<svg width="44" height="44" viewBox="0 0 44 44" fill="none" xmlns="http://www.w3.org/2000/svg">
<path d="M21.9955 16.155C19.2032 16.155 16.8761 18.129 16.3125 20.7554C16.257 21.014 16.2155 21.2775 16.1933 21.5466C16.1736 21.7859 16.3694 21.9809 16.6089 21.9809H18.1939C18.4334 21.9809 18.6247 21.7854 18.6569 21.5474C18.6943 21.2717 18.7659 21.0069 18.8642 20.7554C19.3547 19.5005 20.5679 18.6098 21.9955 18.6099C23.8559 18.6099 25.3632 20.1187 25.3634 21.9809C25.3634 23.8431 23.8559 25.3519 21.9955 25.352H7.91574C7.63737 25.352 7.43078 25.6112 7.50151 25.8811C7.64953 26.4459 7.82743 26.9985 8.03801 27.5349C8.10204 27.698 8.26041 27.8031 8.4353 27.8031H21.9955C25.2088 27.8031 27.8119 25.1974 27.8119 21.9809C27.8119 18.7644 25.2088 16.155 21.9955 16.155Z" fill="#2B2727"/>
<path d="M21.9955 11.5585C16.6603 11.5585 12.2666 15.5784 11.6593 20.7554C11.6286 21.0169 11.6057 21.2801 11.5933 21.5463C11.5821 21.7861 11.7772 21.9809 12.0168 21.9809H13.598C13.8375 21.9809 14.0306 21.786 14.0459 21.5464C14.063 21.2792 14.0944 21.016 14.1347 20.7554C14.7251 16.9374 18.0157 14.0094 21.9955 14.0094C26.3927 14.0094 29.9555 17.5794 29.9555 21.9809C29.9555 26.3825 26.3927 29.9486 21.9955 29.9486H10.0505C9.70982 29.9486 9.50431 30.3229 9.69927 30.6029C10.1081 31.1902 10.5572 31.7475 11.0439 32.2689C11.1246 32.3554 11.2379 32.4034 11.356 32.4034H21.9955C27.7458 32.4034 32.408 27.7368 32.4079 21.9809C32.4079 16.225 27.7458 11.5585 21.9955 11.5585Z" fill="#2B2727"/>
<path d="M21.9955 7C17.3339 7 13.1682 9.12512 10.416 12.4632C10.12 12.8222 9.83892 13.1961 9.57688 13.5818C9.55967 13.6071 9.54429 13.6329 9.52733 13.6582C9.29128 14.01 9.07354 14.3742 8.8674 14.7463C8.83127 14.8119 8.79197 14.8747 8.75682 14.9409C8.57643 15.2784 8.41581 15.6273 8.26105 15.9794C8.21529 16.0843 8.16708 16.1901 8.12375 16.2963C8.00377 16.587 7.89747 16.8824 7.79568 17.182C7.73148 17.3726 7.66545 17.5645 7.60882 17.7585C7.54828 17.9636 7.50056 18.1722 7.44857 18.3808C7.37912 18.6632 7.30735 18.9437 7.25414 19.2321C7.22973 19.3622 7.21789 19.4979 7.1969 19.6291C7.13953 19.9933 7.08644 20.3601 7.05581 20.7326C7.05508 20.7403 7.05251 20.7476 7.0519 20.7554C7.03071 21.018 7.01136 21.281 7.00037 21.5462C6.99042 21.7861 7.18508 21.9809 7.42464 21.9809H9.00581C9.24537 21.9809 9.43881 21.7862 9.44749 21.5462C9.45709 21.2806 9.4752 21.0175 9.5006 20.7554C10.1172 14.3908 15.4752 9.41282 21.9955 9.41282C28.9297 9.41282 34.5514 15.04 34.5514 21.9809C34.5514 28.9219 28.9297 34.5491 21.9955 34.5489H15.1741C14.744 34.5489 14.5917 35.0849 14.972 35.2863C16.8551 36.2836 18.9771 36.886 21.2289 37H21.9955C29.7647 37 36.1515 31.0895 36.9199 23.5157C36.9699 23.0233 36.9988 22.5244 37 22.0191C37 21.5006 36.9712 20.9855 36.9199 20.4805C36.1515 12.9067 29.7647 7 21.9955 7Z" fill="#2B2727"/>
</svg>
