<svg width="256" height="128" viewBox="0 0 256 128" fill="none" xmlns="http://www.w3.org/2000/svg">
<path fill-rule="evenodd" clip-rule="evenodd" d="M128 111C153.957 111 175 89.9574 175 64C175 38.0426 153.957 17 128 17C102.043 17 81 38.0426 81 64C81 89.9574 102.043 111 128 111ZM128 50.25C132.867 50.25 136.812 46.3045 136.812 41.4375C136.812 36.5705 132.867 32.625 128 32.625C123.133 32.625 119.188 36.5705 119.188 41.4375C119.188 46.3045 123.133 50.25 128 50.25ZM133.375 54.1172C133.281 54.1453 133.184 54.1596 133.087 54.1596H123.744C123.656 54.1596 123.568 54.1479 123.483 54.1248L107.174 49.7078C104.796 49.0601 102.353 50.4947 101.715 52.9122C101.078 55.3297 102.489 57.8146 104.867 58.4624L120.681 62.5594C121.122 62.6737 121.43 63.0718 121.43 63.5275L121.43 71.6719C121.43 71.8411 121.387 72.0076 121.305 72.1558L113.33 86.5767C112.099 88.7441 112.83 91.5157 114.961 92.7671C117.093 94.0185 119.818 93.2758 121.049 91.1084L127.349 80.0127C127.755 79.2979 128.802 79.3509 129.134 80.103L133.987 91.1084C135.217 93.2759 137.943 94.0185 140.075 92.7671C142.206 91.5157 142.937 88.7442 141.706 86.5767L134.896 72.1325C134.833 71.9991 134.8 71.8535 134.8 71.706V63.6484C134.8 63.202 135.096 62.8097 135.525 62.6869L151.133 58.2226C153.511 57.5748 154.922 55.0899 154.285 52.6724C153.647 50.2549 151.204 48.8203 148.826 49.468L133.375 54.1172Z" fill="#F9FAFC"/>
</svg>
