<svg width="256" height="128" viewBox="0 0 256 128" fill="none" xmlns="http://www.w3.org/2000/svg">
<path fill-rule="evenodd" clip-rule="evenodd" d="M190.341 21.0956C189.6 19.6348 187.514 19.6348 186.773 21.0956L183.895 26.7719C183.374 27.7999 182.094 28.1758 181.1 27.5927L175.61 24.3735C174.197 23.545 172.442 24.673 172.608 26.3023L173.256 32.6335C173.373 33.7801 172.5 34.7883 171.348 34.8354L164.989 35.0953C163.353 35.1622 162.486 37.06 163.507 38.3405L167.475 43.3165C168.194 44.2177 168.004 45.5382 167.06 46.2004L161.851 49.857C160.511 50.7979 160.808 52.8631 162.359 53.3883L168.387 55.4292C169.479 55.7988 170.033 57.0123 169.598 58.0794L167.192 63.9717C166.573 65.488 167.94 67.0648 169.529 66.6679L175.703 65.1258C176.822 64.8465 177.944 65.5678 178.154 66.701L179.317 72.9582C179.616 74.5685 181.618 75.1562 182.74 73.9633L187.1 69.3278C187.89 68.4882 189.224 68.4882 190.014 69.3278L194.375 73.9633C195.497 75.1562 197.499 74.5685 197.798 72.9582L198.96 66.701C199.17 65.5678 200.293 64.8465 201.411 65.1258L207.586 66.6679C209.174 67.0648 210.541 65.488 209.922 63.9717L207.517 58.0794C207.081 57.0123 207.635 55.7988 208.727 55.4292L214.755 53.3883C216.306 52.8631 216.603 50.7979 215.263 49.857L210.054 46.2004C209.11 45.5382 208.921 44.2177 209.639 43.3165L213.607 38.3405C214.628 37.06 213.761 35.1622 212.125 35.0953L205.766 34.8354C204.614 34.7883 203.741 33.7801 203.858 32.6335L204.506 26.3023C204.672 24.673 202.917 23.545 201.504 24.3735L196.014 27.5927C195.02 28.1758 193.74 27.7999 193.219 26.7719L190.341 21.0956ZM189.174 58.3116C194.628 58.3116 199.049 53.8904 199.049 48.4366C199.049 42.9828 194.628 38.5616 189.174 38.5616C183.721 38.5616 179.299 42.9828 179.299 48.4366C179.299 53.8904 183.721 58.3116 189.174 58.3116Z" fill="#F9FAFC" stroke="#2B2727" stroke-width="3"/>
<path d="M41.6582 39.3061C41.6582 33.4226 46.4277 28.6531 52.3113 28.6531H88.7092C94.5927 28.6531 99.3623 33.4226 99.3623 39.3061V94.347C99.3623 100.23 94.5927 105 88.7092 105H52.3113C46.4277 105 41.6582 100.23 41.6582 94.347V66.8265C41.6582 61.4529 41.6582 58.44 41.6582 53.0663V39.3061Z" fill="#F9FAFC"/>
<path d="M41.6582 66.8265V94.347C41.6582 100.23 46.4277 105 52.3113 105H88.7092C94.5927 105 99.3623 100.23 99.3623 94.347V39.3061C99.3623 33.4226 94.5927 28.6531 88.7092 28.6531H52.3113C46.4277 28.6531 41.6582 33.4226 41.6582 39.3061V53.0663" stroke="#2B2727" stroke-width="3" stroke-linecap="round"/>
<path d="M68.2908 40.1938H88.7091M68.2908 49.0715H88.7091M68.2908 57.949H88.7091M68.2908 66.8265H88.7091M68.2908 75.7042H88.7091M68.2908 84.5817H88.7091M68.2908 93.4592H88.7091" stroke="#2B2727" stroke-linecap="round"/>
<path fill-rule="evenodd" clip-rule="evenodd" d="M70.5102 18C66.797 18 63.7103 20.6819 63.0814 24.2144H62.5203C59.8237 24.2144 57.6377 26.4004 57.6377 29.097C57.6377 31.7937 59.8237 33.9797 62.5204 33.9797H78.4999C81.1966 33.9797 83.3826 31.7937 83.3826 29.097C83.3826 26.4004 81.1966 24.2144 78.4999 24.2144H77.939C77.3101 20.6819 74.2233 18 70.5102 18ZM70.5102 28.653C72.2262 28.653 73.6173 27.2619 73.6173 25.5459C73.6173 23.8299 72.2262 22.4387 70.5102 22.4387C68.7942 22.4387 67.4031 23.8299 67.4031 25.5459C67.4031 27.2619 68.7942 28.653 70.5102 28.653Z" fill="#F9FAFC" stroke="#2B2727" stroke-width="3"/>
<circle cx="57.1938" cy="45.9643" r="6.65816" fill="#F9FAFC" stroke="#2B2727" stroke-width="2"/>
<path d="M55.8959 44.1663C55.8207 44.0247 55.8713 43.9149 56.0476 43.8368C56.2152 43.7617 56.39 43.6562 56.5721 43.5204C56.7541 43.3846 56.903 43.2444 57.0186 43.0999C57.1486 42.9381 57.2729 42.8572 57.3913 42.8572H58.0806C58.254 42.8572 58.3407 42.9439 58.3407 43.1173V48.8391C58.3407 49.0125 58.254 49.0992 58.0806 49.0992H57.387C57.2136 49.0992 57.1269 49.0125 57.1269 48.8391V44.7168C57.1269 44.6012 57.1327 44.4856 57.1443 44.37H57.1269C57.0373 44.4827 56.9391 44.5795 56.8322 44.6604C56.7252 44.7413 56.6169 44.8049 56.5071 44.8512C56.3712 44.909 56.2687 44.8714 56.1993 44.7385L55.8959 44.1663Z" fill="#2B2727"/>
<circle cx="57.1938" cy="67.2705" r="6.65816" fill="#F9FAFC" stroke="#2B2727" stroke-width="2"/>
<path d="M55.2996 70.4747C55.0829 70.4747 54.9745 70.3808 54.9745 70.193V69.9849C54.9745 69.8346 55.0438 69.6858 55.1826 69.5384L56.4786 68.173C56.8688 67.7597 57.2257 67.3927 57.5493 67.0719C57.873 66.7483 58.0348 66.4217 58.0348 66.0923C58.0348 65.7628 57.9525 65.5215 57.7877 65.3684C57.6259 65.2123 57.4193 65.1343 57.1679 65.1343C56.7691 65.1343 56.4916 65.2268 56.3356 65.4117C56.1795 65.5967 56.0668 65.7946 55.9975 66.0056C55.931 66.2108 55.8096 66.2845 55.6334 66.2267L55.1956 66.0793C55.054 66.0302 55.0135 65.8943 55.0742 65.6718C55.1869 65.2586 55.4166 64.9046 55.7634 64.6098C56.1102 64.3122 56.6246 64.1633 57.3066 64.1633C58.0175 64.1633 58.5333 64.3468 58.8541 64.7138C59.1749 65.078 59.3352 65.4739 59.3352 65.9016C59.3352 66.4622 59.1012 66.9549 58.633 67.3797C58.1649 67.8016 57.7401 68.2134 57.3586 68.6151L56.6217 69.391V69.417C56.7951 69.4055 56.9396 69.3997 57.0552 69.3997H59.0795C59.2962 69.3997 59.4046 69.4936 59.4046 69.6815V70.193C59.4046 70.3808 59.2962 70.4747 59.0795 70.4747H55.2996Z" fill="#2B2727"/>
<circle cx="57.1938" cy="88.5764" r="6.65816" fill="#F9FAFC" stroke="#2B2727" stroke-width="2"/>
<path d="M55.0661 91.3387C54.9534 91.2434 54.9447 91.1075 55.0401 90.9313L55.2394 90.5671C55.3348 90.3909 55.4894 90.3779 55.7033 90.5281C55.8824 90.6553 56.0847 90.7593 56.3101 90.8402C56.5355 90.9183 56.787 90.9573 57.0644 90.9573C57.4458 90.9573 57.7189 90.8547 57.8836 90.6495C58.0484 90.4414 58.1307 90.2088 58.1307 89.9516C58.1307 89.6886 58.0325 89.4531 57.836 89.245C57.6423 89.0341 57.3678 88.9286 57.0124 88.9286H56.6786C56.4907 88.9286 56.3968 88.852 56.3968 88.6989V88.222C56.3968 88.0631 56.4907 87.9836 56.6786 87.9836H56.9387C57.2045 87.9836 57.4386 87.9013 57.6409 87.7366C57.8461 87.5718 57.9487 87.3652 57.9487 87.1167C57.9487 86.9231 57.8808 86.7627 57.7449 86.6355C57.612 86.5055 57.3938 86.4405 57.0904 86.4405C56.8043 86.4405 56.5572 86.4824 56.3491 86.5662C56.1411 86.65 55.9764 86.7511 55.855 86.8696C55.6816 87.0401 55.5328 87.0329 55.4085 86.8479L55.1571 86.4795C55.0617 86.3408 55.0906 86.1992 55.2438 86.0547C55.4519 85.8553 55.7206 85.7079 56.05 85.6125C56.3795 85.5172 56.7017 85.4695 57.0167 85.4695C57.7594 85.4695 58.3113 85.6183 58.6726 85.916C59.0338 86.2107 59.2144 86.572 59.2144 86.9996C59.2144 87.3175 59.0901 87.608 58.8416 87.8709C58.5931 88.131 58.3301 88.3102 58.0527 88.4084V88.4258C58.3821 88.5067 58.6942 88.6844 58.989 88.9589C59.2838 89.2306 59.4311 89.5687 59.4311 89.9733C59.4311 90.6062 59.2317 91.0902 58.8329 91.4254C58.4342 91.7606 57.8258 91.9282 57.008 91.9282C56.6641 91.9282 56.3072 91.8762 55.9373 91.7722C55.5703 91.6653 55.2799 91.5208 55.0661 91.3387Z" fill="#2B2727"/>
<path fill-rule="evenodd" clip-rule="evenodd" d="M120.831 24.9436C116.965 24.9436 113.831 28.0776 113.831 31.9436V57.6619C113.831 61.5279 116.965 64.6619 120.831 64.6619H150.521C154.387 64.6619 157.521 61.5279 157.521 57.6619V31.9436C157.521 28.0776 154.387 24.9436 150.521 24.9436H120.831ZM124.775 31.8872C123.118 31.8872 121.775 33.2304 121.775 34.8872V60.6619C121.775 62.3187 123.118 63.6619 124.775 63.6619H146.577C148.234 63.6619 149.577 62.3187 149.577 60.6619V34.8872C149.577 33.2304 148.234 31.8872 146.577 31.8872H124.775Z" fill="#F9FAFC" stroke="#2B2727" stroke-width="3"/>
<path d="M90 52.7466C90 46.897 94.742 42.155 100.592 42.155H173.408C179.258 42.155 184 46.897 184 52.7466V100.409C184 106.258 179.258 111 173.408 111H100.592C94.742 111 90 106.258 90 100.409V52.7466Z" fill="#F9FAFC"/>
<path d="M184 52.7466V100.409C184 106.258 179.258 111 173.408 111H100.592C94.742 111 90 106.258 90 100.409V52.7466M184 52.7466C184 46.897 179.258 42.155 173.408 42.155H100.592C94.742 42.155 90 46.897 90 52.7466M184 52.7466V69.9578C184 75.8074 179.258 80.5494 173.408 80.5494H137H118.796M90 52.7466V69.9578C90 75.8074 94.742 80.5494 100.592 80.5494" stroke="#2B2727" stroke-width="3" stroke-linecap="round"/>
<path d="M129.718 75.2536C129.718 73.06 131.497 71.2817 133.69 71.2817H141.634C143.827 71.2817 145.606 73.06 145.606 75.2536V87.1691C145.606 91.5562 142.049 95.1127 137.662 95.1127C133.275 95.1127 129.718 91.5562 129.718 87.1691V75.2536Z" fill="#F9FAFC"/>
<path d="M137.662 85.8451V88.493M137.662 95.1127C133.275 95.1127 129.718 91.5562 129.718 87.1691V75.2536C129.718 73.06 131.497 71.2817 133.69 71.2817H141.634C143.827 71.2817 145.606 73.06 145.606 75.2536V87.1691C145.606 91.5562 142.049 95.1127 137.662 95.1127Z" stroke="#2B2727" stroke-width="3" stroke-linecap="round"/>
</svg>
