<svg xmlns="http://www.w3.org/2000/svg" width="256" height="128" fill="none" viewBox="0 0 256 128">
  <path fill="#F9FAFC" stroke="#2B2727" stroke-linecap="round" stroke-linejoin="round" stroke-width="3" d="M105 59.613V39.482c0-2.796 0-4.194.545-5.264a4.997 4.997 0 0 1 2.185-2.185c1.07-.545 2.47-.545 5.27-.545h30.935c2.799 0 4.198 0 5.268.545a5.005 5.005 0 0 1 2.185 2.184c.545 1.069.546 2.468.547 5.267l.011 20.125c.001 1.657.001 2.485-.278 3.286a5.382 5.382 0 0 1-1.18 1.884c-.599.6-1.259.92-2.579 1.558h0c-4.846 2.345-11.971 5.013-18.992 5.013-7.075 0-14.758-2.709-19.854-5.067-1.296-.6-1.944-.9-2.56-1.502a5.47 5.47 0 0 1-1.215-1.9c-.288-.812-.288-1.63-.288-3.268Z"/>
  <rect width="36.523" height="25.231" x="110.315" y="63.222" fill="#F9FAFC" stroke="#2B2727" stroke-linecap="round" stroke-linejoin="round" stroke-width="3" rx="8"/>
  <path fill="#F9FAFC" d="M151.982 35.926c0 13.214-10.517 23.926-23.491 23.926S105 49.14 105 35.927C105 22.712 115.517 12 128.491 12s23.491 10.712 23.491 23.926Z"/>
  <path stroke="#2B2727" stroke-linecap="round" stroke-linejoin="round" stroke-width="3" d="M151.982 35.926c0 13.214-10.517 23.926-23.491 23.926S105 49.14 105 35.927m46.982 0c0-13.214-10.517-23.926-23.491-23.926S105 22.712 105 35.926m46.982 0c-5.503.653-11.992 1.044-18.193-1.614-5.886-2.522-10.7-8.607-11.388-11.001-.696 2.648-2.544 6.21-5.568 8.608-4.177 3.31-9.745 4.007-11.833 4.007"/>
  <g stroke="#2B2727" stroke-linecap="round" stroke-linejoin="round">
    <ellipse cx="193.368" cy="44.727" fill="#F9FAFC" stroke-width="3" rx="19.368" ry="19.727"/>
    <rect width="32.281" height="20.803" x="176.869" y="67.237" fill="#F9FAFC" stroke-width="3" rx="8"/>
    <path stroke-width="2" d="m195.806 67.86-5.014 11.7c-.051.12-.077.18-.098.235a3 3 0 0 0 .678 3.19c.042.043.089.087.185.176v0c.123.113.184.17.24.217a3 3 0 0 0 3.861 0c.055-.047.116-.104.239-.217v0c.096-.09.144-.133.186-.175a3 3 0 0 0 .579-3.426l-5.014-11.7"/>
  </g>
  <path fill="#F9FAFC" d="M82.7 44.708c0 10.885-8.663 19.709-19.35 19.709-10.687 0-19.35-8.824-19.35-19.709C44 33.824 52.663 25 63.35 25c10.687 0 19.35 8.824 19.35 19.708Z"/>
  <path stroke="#2B2727" stroke-linecap="round" stroke-linejoin="round" stroke-width="3" d="M82.7 44.708c0 10.885-8.663 19.709-19.35 19.709-10.687 0-19.35-8.824-19.35-19.709m38.7 0C82.7 33.824 74.037 25 63.35 25 52.663 25 44 33.824 44 44.708m38.7 0c-4.534.538-9.879.86-14.986-1.33-4.849-2.077-8.814-7.089-9.38-9.061-.574 2.181-2.096 5.115-4.587 7.09-3.44 2.727-8.027 3.301-9.747 3.301"/>
  <rect width="32.281" height="20.803" x="46.919" y="67.32" fill="#F9FAFC" stroke="#2B2727" stroke-linecap="round" stroke-linejoin="round" stroke-width="3" rx="8"/>
  <path stroke="#2B2727" stroke-linecap="round" stroke-linejoin="round" stroke-width="2" d="M58.593 67.32c0 3.284 1.824 4.743 4.743 4.743 2.919 0 4.378-1.46 4.378-4.743"/>
  <path stroke="#2B2727" stroke-linecap="round" stroke-width="3" d="M59.5 99v6a8 8 0 0 0 8 8h52a8 8 0 0 0 8-8m0-6v6m0 0a8 8 0 0 0 8 8h52a8 8 0 0 0 8-8v-6m-74.5 4.5 6.5-6.5 6.5 6.5m-81 0 6.5-6.5 6.5 6.5m123 0 6.5-6.5 6.5 6.5"/>
</svg>
