<svg width="256" height="128" viewBox="0 0 256 128" fill="none" xmlns="http://www.w3.org/2000/svg">
<path d="M129 19C133.418 19 137 22.5817 137 27L137 101C137 105.418 133.418 109 129 109H127C122.582 109 119 105.418 119 101L119 27C119 22.5817 122.582 19 127 19H129Z" fill="#F9FAFC"/>
<path d="M104 19C108.418 19 112 22.5817 112 27L112 101C112 105.418 108.418 109 104 109H102C97.5817 109 94 105.418 94 101L94 27C94 22.5817 97.5817 19 102 19H104Z" fill="#F9FAFC"/>
<path d="M154 19C158.418 19 162 22.5817 162 27V101C162 105.418 158.418 109 154 109H152C147.582 109 144 105.418 144 101L144 27C144 22.5817 147.582 19 152 19H154Z" fill="#F9FAFC"/>
<path d="M137 64L137 101C137 105.418 133.418 109 129 109H127C122.582 109 119 105.418 119 101L119 27C119 22.5817 122.582 19 127 19H129C133.418 19 137 22.5817 137 27V50.5M162 64V101C162 105.418 158.418 109 154 109H152C147.582 109 144 105.418 144 101L144 27C144 22.5817 147.582 19 152 19H154C158.418 19 162 22.5817 162 27V50.5M112 64V101C112 105.418 108.418 109 104 109H102C97.5817 109 94 105.418 94 101L94 27C94 22.5817 97.5817 19 102 19H104C108.418 19 112 22.5817 112 27L112 50.5" stroke="#2B2727" stroke-width="3" stroke-linecap="round" stroke-linejoin="round"/>
<path d="M26 64H81M81 64L72 55M81 64L72 73M230 65L175 65M175 65L184 74M175 65L184 56" stroke="#2B2727" stroke-width="3" stroke-linecap="round" stroke-linejoin="round"/>
</svg>
