<svg width="256" height="128" viewBox="0 0 256 128" fill="none" xmlns="http://www.w3.org/2000/svg">
<circle cx="13" cy="13" r="11.5" transform="matrix(-1 0 0 1 193.366 11)" fill="#F9FAFC" stroke="#2B2727" stroke-width="3"/>
<path d="M202.866 80C202.866 82.5 201.873 84.3496 198.866 85C197.102 85.3814 193.866 84.5 193.366 82L190.866 58.5V111C190.866 113.5 188.366 116.5 184.866 116.5C181.366 116.5 178.866 113 178.866 111C178.866 113 176.866 116.5 172.366 116.5C169.866 116.5 166.866 114 166.866 110.5V56.5L161.866 65.5C160.866 67 157.866 68 155.366 66L139.866 50.5C138.866 49 138.39 46.3362 140.366 44C142.1 42.2828 144.866 42.5 146.366 43.5L157.366 54L162.866 44C164.295 41.5763 165.366 40.5 168.366 40.5H190.582C195.866 40.5 199.366 44.5 199.755 48L202.866 80Z" fill="#F9FAFC"/>
<path d="M178.866 111C178.866 113 176.866 116.5 172.366 116.5C169.866 116.5 166.866 114 166.866 110.5V56.5L161.866 65.5C160.866 67 157.866 68 155.366 66L139.866 50.5C138.866 49 138.39 46.3362 140.366 44C142.1 42.2828 144.866 42.5 146.366 43.5L157.366 54L162.866 44C164.295 41.5763 165.366 40.5 168.366 40.5H190.582C195.866 40.5 199.366 44.5 199.755 48L202.866 80C202.866 82.5 201.873 84.3496 198.866 85C197.102 85.3814 193.866 84.5 193.366 82L190.866 58.5V111C190.866 113.5 188.366 116.5 184.866 116.5C181.366 116.5 178.866 113 178.866 111ZM178.866 111V84.5" stroke="#2B2727" stroke-width="3" stroke-linecap="round" stroke-linejoin="round"/>
<path d="M54.5 44C54.5 38.201 59.201 33.5 65 33.5H95C100.799 33.5 105.5 38.201 105.5 44V84C105.5 89.799 100.799 94.5 95 94.5H65C59.201 94.5 54.5 89.799 54.5 84V44Z" fill="#F9FAFC" stroke="#2B2727" stroke-width="3"/>
<rect x="69" y="21" width="65" height="86" rx="12" fill="#F9FAFC"/>
<path d="M70 34C70 27.3726 75.3726 22 82 22H121C127.627 22 133 27.3726 133 34V94C133 100.627 127.627 106 121 106H82C75.3726 106 70 100.627 70 94V34Z" fill="#F9FAFC"/>
<path d="M70 64V94C70 100.627 75.3726 106 82 106H121C127.627 106 133 100.627 133 94V34C133 27.3726 127.627 22 121 22H82C75.3726 22 70 27.3726 70 34C70 39.8579 70 46.6421 70 52.5" stroke="#2B2727" stroke-width="3" stroke-linecap="round" stroke-linejoin="round"/>
<path d="M79 34H124" stroke="#2B2727" stroke-linecap="round"/>
<path d="M79 44H124" stroke="#2B2727" stroke-linecap="round"/>
<path d="M79 54H124" stroke="#2B2727" stroke-linecap="round"/>
<path d="M79 64H124" stroke="#2B2727" stroke-linecap="round"/>
<path d="M79 74H124" stroke="#2B2727" stroke-linecap="round"/>
<path d="M79 84H124" stroke="#2B2727" stroke-linecap="round"/>
<path d="M79 94H124" stroke="#2B2727" stroke-linecap="round"/>
<path d="M62 49L69 49" stroke="#2B2727" stroke-linecap="round"/>
<path d="M62 59L69 59" stroke="#2B2727" stroke-linecap="round"/>
<path d="M62 69L69 69" stroke="#2B2727" stroke-linecap="round"/>
<path d="M62 79L69 79" stroke="#2B2727" stroke-linecap="round"/>
</svg>
