<svg width="256" height="128" viewBox="0 0 256 128" fill="none" xmlns="http://www.w3.org/2000/svg">
<path d="M160.667 59.3334H95.3333C90.1787 59.3334 86 63.512 86 68.6667V101.333C86 106.488 90.1787 110.667 95.3333 110.667H160.667C165.821 110.667 170 106.488 170 101.333V68.6667C170 63.512 165.821 59.3334 160.667 59.3334Z" fill="#F9FAFC" stroke="#2B2727" stroke-width="3" stroke-linecap="round" stroke-linejoin="round"/>
<path d="M104.667 59.3334V40.6667C104.667 34.4783 107.125 28.5434 111.501 24.1675C115.877 19.7917 121.812 17.3334 128 17.3334C134.188 17.3334 140.123 19.7917 144.499 24.1675C148.875 28.5434 151.333 34.4783 151.333 40.6667V59.3334" stroke="#2B2727" stroke-width="3" stroke-linecap="round" stroke-linejoin="round"/>
<path d="M118.076 86.0714C120.878 83.6564 124.41 82.3339 128.057 82.3339C131.704 82.3339 135.235 83.6564 138.038 86.0714M113 80.8638C117.143 77.085 122.477 75 128 75C133.523 75 138.857 77.085 143 80.8638M123.08 91.2937C124.52 90.2356 126.242 89.6672 128.007 89.6672C129.773 89.6672 131.495 90.2356 132.934 91.2937M128 97H128.014" stroke="#2B2727" stroke-width="3" stroke-linecap="round" stroke-linejoin="round"/>
</svg>
