<svg width="256" height="128" viewBox="0 0 256 128" fill="none" xmlns="http://www.w3.org/2000/svg">
<g clip-path="url(#clip0_1000_25738)">
<rect x="67.0312" y="18.5938" width="122.938" height="90.8125" rx="10.5" fill="#F9FAFC" stroke="#2B2727" stroke-width="3" stroke-linecap="round" stroke-linejoin="round"/>
<rect x="137.266" y="29.7031" width="41.8047" height="29.0938" rx="6.5" fill="#F9FAFC" stroke="#2B2727" stroke-width="3" stroke-linecap="round" stroke-linejoin="round"/>
<path d="M146.664 51.6562V46.6935M153.93 51.6562V39.8744M161.195 51.6562V43.6628M168.461 51.6562V36.8438" stroke="#2B2727" stroke-width="2" stroke-linecap="round" stroke-linejoin="round"/>
<path d="M106.098 33.7578H124.867M106.098 41.1641H118.207M106.098 48.5703H123.051M106.098 55.9766H114.574" stroke="#2B2727" stroke-width="2" stroke-linecap="round" stroke-linejoin="round"/>
<path d="M99.1484 33.7578C99.1484 33.9792 98.9798 34.1094 98.832 34.1094C98.6843 34.1094 98.5156 33.9792 98.5156 33.7578C98.5156 33.5364 98.6843 33.4062 98.832 33.4062C98.9798 33.4062 99.1484 33.5364 99.1484 33.7578ZM99.1484 41.1641C99.1484 41.3855 98.9798 41.5156 98.832 41.5156C98.6843 41.5156 98.5156 41.3855 98.5156 41.1641C98.5156 40.9427 98.6843 40.8125 98.832 40.8125C98.9798 40.8125 99.1484 40.9427 99.1484 41.1641ZM99.1484 48.5703C99.1484 48.7917 98.9798 48.9219 98.832 48.9219C98.6843 48.9219 98.5156 48.7917 98.5156 48.5703C98.5156 48.3489 98.6843 48.2188 98.832 48.2188C98.9798 48.2188 99.1484 48.3489 99.1484 48.5703ZM99.1484 55.9766C99.1484 56.198 98.9798 56.3281 98.832 56.3281C98.6843 56.3281 98.5156 56.198 98.5156 55.9766C98.5156 55.7552 98.6843 55.625 98.832 55.625C98.9798 55.625 99.1484 55.7552 99.1484 55.9766Z" fill="#2B2727" stroke="#2B2727" stroke-width="3" stroke-linecap="round" stroke-linejoin="round"/>
<path d="M104.281 90.7073L112.758 80.3421L121.399 89.91L130.316 85.4051L139.621 87.518L144.039 80.3421L155.082 86.7207L163.617 78.588L173.305 77.1528" stroke="#2B2727" stroke-width="2" stroke-linecap="round" stroke-linejoin="round"/>
<rect x="98.5156" y="67.9688" width="80.5547" height="30.3281" rx="6.5" stroke="#2B2727" stroke-width="3" stroke-linecap="round" stroke-linejoin="round"/>
<path d="M76.4297 64H88.5391" stroke="#2B2727" stroke-width="3" stroke-linecap="round"/>
<path d="M76.4297 54.7422H83.6953" stroke="#2B2727" stroke-width="3" stroke-linecap="round"/>
<path d="M76.4297 72.6406H86.7227" stroke="#2B2727" stroke-width="3" stroke-linecap="round"/>
<path d="M76.4297 97.3281H87.3281" stroke="#2B2727" stroke-width="3" stroke-linecap="round"/>
<g clip-path="url(#clip1_1000_25738)">
<path d="M81.2714 29.5417C78.8487 29.5417 76.8535 31.4025 76.5777 33.7989C76.5638 33.9199 76.5533 34.0418 76.5477 34.165C76.5427 34.276 76.6313 34.3662 76.74 34.3662H77.4581C77.5668 34.3662 77.6545 34.276 77.6615 34.165C77.6692 34.0413 77.6835 33.9195 77.7018 33.7989C77.9699 32.0316 79.4642 30.6762 81.2714 30.6762C83.2682 30.6762 84.886 32.3287 84.886 34.3662C84.886 36.4036 83.2682 38.0543 81.2714 38.0543H75.8471C75.6924 38.0543 75.5991 38.2276 75.6877 38.3572C75.8733 38.6291 76.0772 38.887 76.2983 39.1284C76.3349 39.1684 76.3863 39.1906 76.44 39.1906H81.2714C83.8826 39.1906 85.9997 37.0305 85.9997 34.3662C85.9997 31.7018 83.8826 29.5417 81.2714 29.5417Z" fill="#2B2727"/>
<path d="M81.2714 27.4316C79.1546 27.4316 77.2629 28.4153 76.0131 29.9605C75.142 31.0374 74.5995 32.3966 74.4873 33.7883C74.4869 33.7919 74.4858 33.7953 74.4855 33.7989C74.4759 33.9204 74.4671 34.0422 74.4621 34.165C74.4576 34.276 74.546 34.3662 74.6547 34.3662H75.3728C75.4815 34.3662 75.5694 34.276 75.5733 34.1649C75.5777 34.042 75.5859 33.9202 75.5974 33.7989C75.8774 30.8528 78.3105 28.5485 81.2714 28.5485C84.4202 28.5485 86.9731 31.1533 86.9731 34.3662C86.9731 37.5791 84.4202 40.1838 81.2714 40.1838H78.1738C77.9785 40.1838 77.9093 40.4319 78.082 40.5251C78.9371 40.9867 79.9007 41.2656 80.9233 41.3184H81.2714C84.7994 41.3184 87.6997 38.5824 88.0486 35.0766C88.0713 34.8487 88.0844 34.6177 88.085 34.3839C88.085 34.1438 88.0719 33.9054 88.0486 33.6717C87.6997 30.1658 84.7994 27.4316 81.2714 27.4316Z" fill="#2B2727"/>
<path d="M81.2714 31.6694C80.0034 31.6694 78.9467 32.5832 78.6907 33.7989C78.6655 33.9186 78.6467 34.0406 78.6366 34.1651C78.6276 34.2759 78.7166 34.3662 78.8253 34.3662H79.5451C79.6539 34.3662 79.7407 34.2756 79.7554 34.1655C79.7723 34.0379 79.8048 33.9153 79.8495 33.7989C80.0722 33.218 80.6231 32.8057 81.2714 32.8058C82.1162 32.8058 82.8007 33.5042 82.8007 34.3662C82.8007 35.2282 82.1162 35.9265 81.2714 35.9266H75.7758C75.7337 35.7696 75.6946 35.6062 75.6505 35.4497C75.6194 35.3398 75.5227 35.2638 75.4244 35.2638H74.7125C74.6153 35.2638 74.5285 35.3794 74.5473 35.4889C74.6373 35.9789 74.7451 36.4913 74.9393 36.9508C74.9697 37.0226 75.044 37.0612 75.1137 37.0612H81.2714C82.7306 37.0612 83.9126 35.8551 83.9126 34.3662C83.9126 32.8773 82.7306 31.6694 81.2714 31.6694Z" fill="#2B2727"/>
</g>
<line x1="194.046" y1="83.2192" x2="200.354" y2="89.5268" stroke="#2B2727" stroke-width="3" stroke-linecap="round"/>
<rect x="196.121" y="89.3257" width="6.36589" height="27.652" rx="3.18295" transform="rotate(-45 196.121 89.3257)" fill="#F9FAFC" stroke="#2B2727" stroke-width="3"/>
<circle cx="178.415" cy="65.4147" r="21.9147" fill="#F9FAFC" stroke="#2B2727" stroke-width="3"/>
<path d="M40 45C40 40.5817 43.5817 37 48 37H71C75.4183 37 79 40.5817 79 45V102C79 106.418 75.4183 110 71 110H48C43.5817 110 40 106.418 40 102V45Z" fill="#F9FAFC"/>
<path d="M54.5 43.5H63.5M48 110H71C75.4183 110 79 106.418 79 102V45C79 40.5817 75.4183 37 71 37H48C43.5817 37 40 40.5817 40 45V102C40 106.418 43.5817 110 48 110Z" stroke="#2B2727" stroke-width="3" stroke-linecap="round" stroke-linejoin="round"/>
<rect x="46" y="52" width="27" height="12" rx="3" fill="#F9FAFC" stroke="#2B2727" stroke-width="2" stroke-linecap="round" stroke-linejoin="round"/>
<path d="M53 74.5C53 76.433 51.433 78 49.5 78C47.567 78 46 76.433 46 74.5C46 72.567 47.567 71 49.5 71C51.433 71 53 72.567 53 74.5Z" fill="#F9FAFC"/>
<path d="M63 74.5C63 76.433 61.433 78 59.5 78C57.567 78 56 76.433 56 74.5C56 72.567 57.567 71 59.5 71C61.433 71 63 72.567 63 74.5Z" fill="#F9FAFC"/>
<path d="M73 74.5C73 76.433 71.433 78 69.5 78C67.567 78 66 76.433 66 74.5C66 72.567 67.567 71 69.5 71C71.433 71 73 72.567 73 74.5Z" fill="#F9FAFC"/>
<path d="M53 85.5C53 87.433 51.433 89 49.5 89C47.567 89 46 87.433 46 85.5C46 83.567 47.567 82 49.5 82C51.433 82 53 83.567 53 85.5Z" fill="#F9FAFC"/>
<path d="M63 85.5C63 87.433 61.433 89 59.5 89C57.567 89 56 87.433 56 85.5C56 83.567 57.567 82 59.5 82C61.433 82 63 83.567 63 85.5Z" fill="#F9FAFC"/>
<path d="M73 85.5C73 87.433 71.433 89 69.5 89C67.567 89 66 87.433 66 85.5C66 83.567 67.567 82 69.5 82C71.433 82 73 83.567 73 85.5Z" fill="#F9FAFC"/>
<path d="M53 96.5C53 98.433 51.433 100 49.5 100C47.567 100 46 98.433 46 96.5C46 94.567 47.567 93 49.5 93C51.433 93 53 94.567 53 96.5Z" fill="#F9FAFC"/>
<path d="M63 96.5C63 98.433 61.433 100 59.5 100C57.567 100 56 98.433 56 96.5C56 94.567 57.567 93 59.5 93C61.433 93 63 94.567 63 96.5Z" fill="#F9FAFC"/>
<path d="M73 96.5C73 98.433 71.433 100 69.5 100C67.567 100 66 98.433 66 96.5C66 94.567 67.567 93 69.5 93C71.433 93 73 94.567 73 96.5Z" fill="#F9FAFC"/>
<path d="M53 74.5C53 76.433 51.433 78 49.5 78C47.567 78 46 76.433 46 74.5C46 72.567 47.567 71 49.5 71C51.433 71 53 72.567 53 74.5Z" stroke="#2B2727" stroke-width="2" stroke-linecap="round" stroke-linejoin="round"/>
<path d="M63 74.5C63 76.433 61.433 78 59.5 78C57.567 78 56 76.433 56 74.5C56 72.567 57.567 71 59.5 71C61.433 71 63 72.567 63 74.5Z" stroke="#2B2727" stroke-width="2" stroke-linecap="round" stroke-linejoin="round"/>
<path d="M73 74.5C73 76.433 71.433 78 69.5 78C67.567 78 66 76.433 66 74.5C66 72.567 67.567 71 69.5 71C71.433 71 73 72.567 73 74.5Z" stroke="#2B2727" stroke-width="2" stroke-linecap="round" stroke-linejoin="round"/>
<path d="M53 85.5C53 87.433 51.433 89 49.5 89C47.567 89 46 87.433 46 85.5C46 83.567 47.567 82 49.5 82C51.433 82 53 83.567 53 85.5Z" stroke="#2B2727" stroke-width="2" stroke-linecap="round" stroke-linejoin="round"/>
<path d="M63 85.5C63 87.433 61.433 89 59.5 89C57.567 89 56 87.433 56 85.5C56 83.567 57.567 82 59.5 82C61.433 82 63 83.567 63 85.5Z" stroke="#2B2727" stroke-width="2" stroke-linecap="round" stroke-linejoin="round"/>
<path d="M73 85.5C73 87.433 71.433 89 69.5 89C67.567 89 66 87.433 66 85.5C66 83.567 67.567 82 69.5 82C71.433 82 73 83.567 73 85.5Z" stroke="#2B2727" stroke-width="2" stroke-linecap="round" stroke-linejoin="round"/>
<path d="M53 96.5C53 98.433 51.433 100 49.5 100C47.567 100 46 98.433 46 96.5C46 94.567 47.567 93 49.5 93C51.433 93 53 94.567 53 96.5Z" stroke="#2B2727" stroke-width="2" stroke-linecap="round" stroke-linejoin="round"/>
<path d="M63 96.5C63 98.433 61.433 100 59.5 100C57.567 100 56 98.433 56 96.5C56 94.567 57.567 93 59.5 93C61.433 93 63 94.567 63 96.5Z" stroke="#2B2727" stroke-width="2" stroke-linecap="round" stroke-linejoin="round"/>
<path d="M73 96.5C73 98.433 71.433 100 69.5 100C67.567 100 66 98.433 66 96.5C66 94.567 67.567 93 69.5 93C71.433 93 73 94.567 73 96.5Z" stroke="#2B2727" stroke-width="2" stroke-linecap="round" stroke-linejoin="round"/>
</g>
<defs>
<clipPath id="clip0_1000_25738">
<rect width="256" height="128" fill="white"/>
</clipPath>
<clipPath id="clip1_1000_25738">
<rect width="14.5312" height="14.8125" fill="white" transform="translate(74.0078 26.9688)"/>
</clipPath>
</defs>
</svg>
