<svg width="256" height="128" viewBox="0 0 256 128" fill="none" xmlns="http://www.w3.org/2000/svg">
<path d="M63 30C63 26.6863 65.6863 24 69 24H113C116.314 24 119 26.6863 119 30V60C119 63.3137 116.314 66 113 66H69C65.6863 66 63 63.3137 63 60V30Z" fill="#F9FAFC"/>
<path d="M105 57C105 58.6569 103.657 60 102 60C100.343 60 99 58.6569 99 57C99 55.3431 100.343 54 102 54C103.657 54 105 55.3431 105 57Z" fill="#F9FAFC"/>
<path d="M97.25 41.634C97.9167 42.0189 97.9167 42.9812 97.25 43.3661L87.5 48.9952C86.8333 49.3801 86 48.899 86 48.1292V36.8709C86 36.1011 86.8333 35.62 87.5 36.0049L97.25 41.634Z" fill="#F9FAFC"/>
<path d="M72 57C72 57 88.4558 57 99 57M99 57C99 58.6569 100.343 60 102 60C103.657 60 105 58.6569 105 57M99 57C99 55.3431 100.343 54 102 54C103.657 54 105 55.3431 105 57M105 57C107.343 57 111 57 111 57M69 66H113C116.314 66 119 63.3137 119 60V30C119 26.6863 116.314 24 113 24H69C65.6863 24 63 26.6863 63 30V60C63 63.3137 65.6863 66 69 66ZM86 36.8709V48.1292C86 48.899 86.8333 49.3801 87.5 48.9952L97.25 43.3661C97.9167 42.9812 97.9167 42.0189 97.25 41.634L87.5 36.0049C86.8333 35.62 86 36.1011 86 36.8709Z" stroke="#2B2727" stroke-width="3" stroke-linecap="round" stroke-linejoin="round"/>
<path d="M83 74C79.6863 74 77 76.6863 77 80V100C77 103.314 79.6863 106 83 106H86V112.086C86 112.977 87.0771 113.423 87.7071 112.793L94.5 106H113C116.314 106 119 103.314 119 100V80C119 76.6863 116.314 74 113 74H83Z" fill="#F9FAFC"/>
<path d="M85 83H111M85 90H111M85 97H111M77 80C77 76.6863 79.6863 74 83 74H113C116.314 74 119 76.6863 119 80V100C119 103.314 116.314 106 113 106H94.5L87.7071 112.793C87.0771 113.423 86 112.977 86 112.086V106H83C79.6863 106 77 103.314 77 100V80Z" stroke="#2B2727" stroke-width="3" stroke-linecap="round" stroke-linejoin="round"/>
<path d="M126 80C126 76.6863 128.686 74 132 74H176C179.314 74 182 76.6863 182 80V108C182 111.314 179.314 114 176 114H132C128.686 114 126 111.314 126 108V80Z" fill="#F9FAFC"/>
<path d="M172 86.5C172 89.5376 169.538 92 166.5 92C163.462 92 161 89.5376 161 86.5C161 83.4624 163.462 81 166.5 81C169.538 81 172 83.4624 172 86.5Z" fill="#F9FAFC"/>
<path d="M126 99.5L136.462 90.3883C139.152 88.0448 143.281 88.5533 145.323 91.4797L153.139 102.682C155.007 105.359 158.672 106.052 161.388 104.241L165.36 101.593C167.279 100.314 169.762 100.248 171.747 101.424L182 107.5M132 114H176C179.314 114 182 111.314 182 108V80C182 76.6863 179.314 74 176 74H132C128.686 74 126 76.6863 126 80V108C126 111.314 128.686 114 132 114ZM172 86.5C172 89.5376 169.538 92 166.5 92C163.462 92 161 89.5376 161 86.5C161 83.4624 163.462 81 166.5 81C169.538 81 172 83.4624 172 86.5Z" stroke="#2B2727" stroke-width="3" stroke-linecap="round" stroke-linejoin="round"/>
<path d="M126 20C126 16.6863 128.686 14 132 14H170C173.314 14 176 16.6863 176 20V60C176 63.3137 173.314 66 170 66H132C128.686 66 126 63.3137 126 60V20Z" fill="#F9FAFC"/>
<path d="M134 22H160M134 40H167M134 58H167M134 31H150M157 31H169M134 48.9999H147M154 49H162M132 66H170C173.314 66 176 63.3137 176 60V20C176 16.6863 173.314 14 170 14H132C128.686 14 126 16.6863 126 20V60C126 63.3137 128.686 66 132 66Z" stroke="#2B2727" stroke-width="3" stroke-linecap="round" stroke-linejoin="round"/>
</svg>
