<svg xmlns="http://www.w3.org/2000/svg" width="256" height="128" fill="none" viewBox="0 0 256 128">
  <path fill="#F9FAFC" d="M156.358 114h-42.865a3 3 0 0 1-3-3v-9.908a3 3 0 0 0-3-3H93.372a3 3 0 0 1-3-3V79.504a3 3 0 0 0-3-3h-6.255c-2.291 0-3.732-2.464-2.57-4.44 7.89-13.415 11.825-17.044 11.825-22.83 0-14.203 10.923-34.655 36.792-35.223 25.87-.568 36.218 21.588 36.793 32.95.453 8.964-2.782 26.03-4.526 33.766a2.983 2.983 0 0 0-.073.66V111a3 3 0 0 1-3 3Z"/>
  <path stroke="#2B2727" stroke-linecap="round" stroke-width="3" d="M148.5 20.068c-5.448-3.785-12.483-6.252-21.336-6.057-25.869.568-36.792 21.02-36.792 35.223 0 5.786-3.934 9.415-11.825 22.83-1.162 1.976.279 4.44 2.57 4.44h6.255a3 3 0 0 1 3 3v15.588a3 3 0 0 0 3 3h14.121a3 3 0 0 1 3 3V111a3 3 0 0 0 3 3h42.865a3 3 0 0 0 3-3V81.386a3 3 0 0 1 .073-.66c1.744-7.735 4.979-24.8 4.526-33.764-.234-4.62-2.084-11.026-5.936-16.962"/>
  <path fill="#F9FAFC" d="M133 64.395C133 61 139 59 139 52c0-6.627-5.373-12-12-12s-12 5.373-12 12c0 7.5 6 9.5 6 12.395V68a6 6 0 1 0 12 0v-3.605Z"/>
  <path stroke="#2B2727" stroke-linecap="round" stroke-width="3" d="M122 64c3.906 2.134 6.101 2.175 10 0m7-12c0 7-6 9-6 12.395V68a6 6 0 1 1-12 0v-3.605c0-2.895-6-4.895-6-12.395 0-6.627 5.373-12 12-12s12 5.373 12 12Zm-34 0h4m36 0h4m-37.556 15.556 2.828-2.828m25.456-25.456 2.828-2.828m-31.113 0 2.829 2.828m25.456 25.456 2.828 2.828M127 34v-4"/>
</svg>
