<svg xmlns="http://www.w3.org/2000/svg" width="256" height="128" fill="none" viewBox="0 0 256 128">
  <path fill="#F9FAFC" d="M139.12 22.358c4.17.365 7.236 3.831 6.847 7.742l-3.605 36.265c1.815 8.415 0 34.135 0 34.135l-9.551 5.5-9.552 5.5s-18.475.902-30.15-13.96c-5.061-6.441-13.05-17.392-13.05-17.392-2.904-3.453-2.257-8.235 1.374-10.307 3.63-2.072 7.387-1.234 10.302 2.577C105.18 90 108.675 88 113.688 85c5.013-3 6.684-8.002.532-18.635-3.667-6.338-7.639-10.865-14.244-10.865-3.497 0-7.15 1.458-9.756 6.532-1.695 3.3-5.844 5.326-9.474 3.944-3.63-1.38-4.235-6.476-3.434-9.018C79.141 51.161 84.35 45 93.108 42.5c8.76-2.5 19.622.683 24.038 5l-10.57-21.942c-1.748-3.57-.08-7.793 3.725-9.433 3.806-1.64 8.309-.076 10.058 3.494l.362.73c.78-2.858 3.42-5.071 6.731-5.325 4.174-.32 7.835 2.594 8.176 6.51l.109 1.25a8.019 8.019 0 0 1 3.383-.426Z"/>
  <path stroke="#2B2727" stroke-linecap="round" stroke-linejoin="round" stroke-width="3" d="m135.737 22.784-.109-1.25c-.341-3.916-4.002-6.83-8.176-6.51-3.311.254-5.951 2.467-6.731 5.325m15.016 2.435a8.019 8.019 0 0 1 3.383-.426c4.17.365 7.236 3.831 6.847 7.742l-2.626 26.414m-7.604-33.73L137.674 45m-20.528 2.5-10.57-21.942c-1.748-3.57-.08-7.793 3.725-9.433 3.806-1.64 8.309-.076 10.058 3.494l.362.73M117.146 47.5c-4.416-4.317-12.497-8-21.536-6.5-9.04 1.5-16.47 10.16-18.298 15.958-.801 2.542-.196 7.637 3.434 9.018 3.63 1.382 7.78-.644 9.474-3.944 2.606-5.074 6.146-7.532 9.644-7.532 5.736 0 9.391 5.587 13.824 11.476C121.317 76.11 117.742 83 112.73 86c-5.013 3-9.145 1.5-20.995-13.582-2.967-3.776-6.672-4.649-10.302-2.577s-4.278 6.854-1.374 10.307c0 0 7.989 10.95 13.05 17.392 11.675 14.862 30.15 13.96 30.15 13.96l9.552-5.5m-15.665-58.5c2.558 2.5 8.24 8 13.557 19m7.975-9.986-3.483-7.014-14.474-29.151"/>
  <path fill="#F9FAFC" d="m158.385 64-20.5 3.179c0 31.364 0 39.099 20.5 44.821 20.5-5.722 20.5-13.775 20.5-44.821L158.385 64Z"/>
  <path stroke="#2B2727" stroke-linecap="round" stroke-linejoin="round" stroke-width="3" d="M167.568 84.871a2.529 2.529 0 0 0 0-3.596 2.577 2.577 0 0 0-3.624 0l-6.795 6.743-2.718-2.697a2.575 2.575 0 0 0-3.623 0 2.529 2.529 0 0 0 0 3.596l4.529 4.496a2.577 2.577 0 0 0 3.643-.019l4.294-4.261m-25.389-21.954 20.5-3.179 20.5 3.179c0 31.046 0 39.099-20.5 44.821-20.5-5.722-20.5-13.457-20.5-44.821Z"/>
</svg>
