<svg width="256" height="128" viewBox="0 0 256 128" fill="none" xmlns="http://www.w3.org/2000/svg">
<path d="M44 28C44 22.4772 48.4772 18 54 18H135C140.523 18 145 22.4772 145 28V88C145 93.5229 140.523 98 135 98H54C48.4771 98 44 93.5229 44 88V28Z" fill="#F9FAFC"/>
<path d="M58 26.5C58 27.3284 57.3284 28 56.5 28C55.6716 28 55 27.3284 55 26.5C55 25.6716 55.6716 25 56.5 25C57.3284 25 58 25.6716 58 26.5Z" fill="#F9FAFC"/>
<path d="M68 26.5C68 27.3284 67.3284 28 66.5 28C65.6716 28 65 27.3284 65 26.5C65 25.6716 65.6716 25 66.5 25C67.3284 25 68 25.6716 68 26.5Z" fill="#F9FAFC"/>
<path d="M78 26.5C78 27.3284 77.3284 28 76.5 28C75.6716 28 75 27.3284 75 26.5C75 25.6716 75.6716 25 76.5 25C77.3284 25 78 25.6716 78 26.5Z" fill="#F9FAFC"/>
<path d="M45.5 34.5L143.5 34.5M89 27H135M54 98H135C140.523 98 145 93.5228 145 88V28C145 22.4772 140.523 18 135 18H54C48.4772 18 44 22.4772 44 28V88C44 93.5228 48.4771 98 54 98ZM58 26.5C58 27.3284 57.3284 28 56.5 28C55.6716 28 55 27.3284 55 26.5C55 25.6716 55.6716 25 56.5 25C57.3284 25 58 25.6716 58 26.5ZM68 26.5C68 27.3284 67.3284 28 66.5 28C65.6716 28 65 27.3284 65 26.5C65 25.6716 65.6716 25 66.5 25C67.3284 25 68 25.6716 68 26.5ZM78 26.5C78 27.3284 77.3284 28 76.5 28C75.6716 28 75 27.3284 75 26.5C75 25.6716 75.6716 25 76.5 25C77.3284 25 78 25.6716 78 26.5Z" stroke="#2B2727" stroke-width="3" stroke-linecap="round" stroke-linejoin="round"/>
<path d="M52 80H104M52 87H104M56 73H132C134.761 73 137 70.7614 137 68V48C137 45.2386 134.761 43 132 43H56C53.2386 43 51 45.2386 51 48V68C51 70.7614 53.2386 73 56 73ZM115.5 87H132.5C134.985 87 137 84.9853 137 82.5C137 80.0147 134.985 78 132.5 78H115.5C113.015 78 111 80.0147 111 82.5C111 84.9853 113.015 87 115.5 87Z" stroke="#2B2727" stroke-width="2" stroke-linecap="round" stroke-linejoin="round"/>
<path d="M133 39C133 34.5817 136.582 31 141 31H164C168.418 31 172 34.5817 172 39V96C172 100.418 168.418 104 164 104H141C136.582 104 133 100.418 133 96V39Z" fill="#F9FAFC"/>
<path d="M147.5 37.5H156.5M141 104H164C168.418 104 172 100.418 172 96V39C172 34.5817 168.418 31 164 31H141C136.582 31 133 34.5817 133 39V96C133 100.418 136.582 104 141 104Z" stroke="#2B2727" stroke-width="3" stroke-linecap="round" stroke-linejoin="round"/>
<path d="M140 80H165M142 85H163M142 74H163C164.657 74 166 72.6569 166 71V48C166 46.3431 164.657 45 163 45H142C140.343 45 139 46.3431 139 48V71C139 72.6569 140.343 74 142 74ZM147 97H158C159.657 97 161 95.6569 161 94C161 92.3431 159.657 91 158 91H147C145.343 91 144 92.3431 144 94C144 95.6569 145.343 97 147 97Z" stroke="#2B2727" stroke-width="2" stroke-linecap="round" stroke-linejoin="round"/>
<path d="M170.781 73.735L162.366 59.1598C161.087 56.9462 158.257 56.1877 156.043 57.4658C153.83 58.7438 153.071 61.5744 154.349 63.788L173.073 96.2177C166.438 92.1225 170.951 94.8077 164.316 90.7126C161.859 89.1958 158.637 89.9584 157.12 92.4159C155.604 94.8734 156.366 98.0952 158.824 99.612C158.824 99.612 172.656 108.118 175.813 110.098C178.971 112.078 188.577 116.417 196.626 111.769L206.1 106.299C212.54 102.582 214.746 94.3471 211.028 87.9074L196.933 63.4941C195.655 61.2804 192.825 60.522 190.611 61.8C188.397 63.0781 187.639 65.9086 188.917 68.1223L186.813 64.4785C185.535 62.2649 182.705 61.5064 180.491 62.7845C178.277 64.0625 177.519 66.8931 178.797 69.1067C177.519 66.8931 174.688 66.1346 172.475 67.4127C170.261 68.6907 169.502 71.5213 170.781 73.735Z" fill="#F9FAFC"/>
<path d="M170.781 73.735L162.366 59.1598C161.087 56.9462 158.257 56.1877 156.043 57.4658C153.83 58.7438 153.071 61.5744 154.349 63.788L173.073 96.2177C166.438 92.1225 170.951 94.8077 164.316 90.7126C161.859 89.1958 158.637 89.9584 157.12 92.4159C155.604 94.8734 156.366 98.0952 158.824 99.612C158.824 99.612 172.656 108.118 175.813 110.098C178.971 112.078 188.577 116.417 196.626 111.769L206.1 106.299C212.54 102.582 214.746 94.3471 211.028 87.9074L196.933 63.4941C195.655 61.2804 192.825 60.522 190.611 61.8C188.397 63.0781 187.639 65.9086 188.917 68.1223M170.781 73.735C170.781 73.735 173.24 77.9955 177.512 85.3951M170.781 73.735C169.502 71.5213 170.261 68.6907 172.475 67.4127C174.688 66.1346 177.519 66.8931 178.797 69.1067M178.797 69.1067C178.797 69.1067 181.257 73.3673 185.529 80.7668M178.797 69.1067C177.519 66.8931 178.277 64.0625 180.491 62.7845C182.705 61.5064 185.535 62.2649 186.813 64.4785L188.917 68.1223M188.917 68.1223L193.545 76.1386" stroke="#2B2727" stroke-width="3" stroke-linecap="round" stroke-linejoin="round"/>
<path d="M151.824 52.1738L149.288 47.7821M147.773 57.3001L142.943 56.006M157.571 51.6433L158.865 46.8136" stroke="#2B2727" stroke-width="3" stroke-linecap="round" stroke-linejoin="round"/>
</svg>
