<svg width="256" height="128" viewBox="0 0 256 128" fill="none" xmlns="http://www.w3.org/2000/svg">
<path d="M139 18L137 22M146 23L143 26M151 31L147 32" stroke="#2B2727" stroke-width="3" stroke-linecap="round"/>
<path fill-rule="evenodd" clip-rule="evenodd" d="M157 40C154.239 40 152 42.2386 152 45V50C152 47.2386 149.761 45 147 45C144.239 45 142 47.2386 142 50V65.5C139.535 67.8659 138 73.8133 138 77.5V79.9569V82.4137C138 86.9663 139.657 91.426 142.953 94.5667C143.936 95.5032 144.933 96.3988 146.015 97.3037C147.535 98.5748 149.215 99.5918 151 100.377V106C151 107.657 152.343 109 154 109H172C173.657 109 175 107.657 175 106V99.299C176.367 98.3442 177.545 97.1362 178.447 95.6243C180.073 92.8986 181.065 89.9747 181.625 87.2064C181.932 85.6918 182 84.4513 182 83C182 82.3753 182 81.6268 182 81V60C182 57.2386 179.761 55 177 55C174.239 55 172 57.2386 172 60V50C172 47.2386 169.761 45 167 45C164.239 45 162 47.2386 162 50V45C162 42.2386 159.761 40 157 40Z" fill="#F9FAFC"/>
<path d="M152 50V45C152 42.2386 154.239 40 157 40C159.761 40 162 42.2386 162 45V50M152 50C152 47.2386 149.761 45 147 45C144.239 45 142 47.2386 142 50V65.5M152 50C152 50 152 57.6184 152 62.5M142 65.5C139.535 67.8659 138 73.8133 138 77.5V79.9569M142 65.5C144.904 62.2911 148 61 152 62.5M172 60C172 57.2386 174.239 55 177 55C179.761 55 182 57.2386 182 60V81C182 81.6268 182 82.3753 182 83C182 84.4513 181.932 85.6918 181.625 87.2064C181.065 89.9747 180.073 92.8986 178.447 95.6243C177.545 97.1362 176.367 98.3442 175 99.299V106C175 107.657 173.657 109 172 109H154C152.343 109 151 107.657 151 106V100.377C149.215 99.5918 147.535 98.5748 146.015 97.3037C144.933 96.3988 143.936 95.5032 142.953 94.5667C139.657 91.426 138 86.9663 138 82.4137V79.9569M172 60V50C172 47.2386 169.761 45 167 45C164.239 45 162 47.2386 162 50M172 60V70.5M162 50V69.5M152 62.5C153.5 63.1667 156.3 65.5 155.5 69.5C154.998 72.0123 154.206 75.0507 153.521 77.5M138 79.9569C137.833 81.1379 138.841 84.5956 142.953 85.5C147.5 86.5 151.5 84.25 152.5 81C152.748 80.1942 153.116 78.9504 153.521 77.5M153.521 77.5C156.014 77.9312 160.453 79.9063 162 83C164.5 88 161 92.1132 160 94.5667" stroke="#2B2727" stroke-width="4" stroke-linecap="round" stroke-linejoin="round"/>
<path d="M79.2557 60.5905C81.8079 59.6827 83.9098 59.9257 85.5155 60.6182C88.2844 61.8124 89.2997 65.0052 90.0674 67.9213L92.4677 77.0387C93.3066 79.6247 93.0684 81.8549 92.3458 83.5336C91.3363 85.879 88.6939 87.0291 86.1407 86.9992C82.9385 86.9617 80.0953 85.6079 78.1393 83.5078C76.5356 81.7859 75.9701 79.4011 75.5008 77.0954L74.1741 70.5769C73.666 68.0313 73.9709 62.4703 79.2557 60.5905Z" fill="#F9FAFC"/>
<path d="M151.744 60.5905C149.192 59.6827 147.09 59.9257 145.484 60.6182C142.716 61.8124 141.7 65.0052 140.933 67.9213L138.532 77.0387C137.693 79.6247 137.932 81.8549 138.654 83.5336C139.664 85.879 142.306 87.0291 144.859 86.9992C148.062 86.9617 150.905 85.6079 152.861 83.5078C154.464 81.7859 155.03 79.4011 155.499 77.0954L156.826 70.5769C157.334 68.0313 157.029 62.4703 151.744 60.5905Z" fill="#F9FAFC"/>
<path d="M79.2557 60.5905C81.8079 59.6827 83.9098 59.9257 85.5155 60.6182C88.2844 61.8124 89.2997 65.0052 90.0674 67.9213L92.4677 77.0387C93.3066 79.6247 93.0684 81.8549 92.3458 83.5336C91.3363 85.879 88.6939 87.0291 86.1407 86.9992C82.9385 86.9617 80.0953 85.6079 78.1393 83.5078C76.5356 81.7859 75.9701 79.4011 75.5008 77.0954L74.1741 70.5769C73.666 68.0313 73.9709 62.4703 79.2557 60.5905Z" stroke="#2B2727" stroke-width="4"/>
<path d="M151.744 60.5905C149.192 59.6827 147.09 59.9257 145.484 60.6182C142.716 61.8124 141.7 65.0052 140.933 67.9213L138.532 77.0387C137.693 79.6247 137.932 81.8549 138.654 83.5336C139.664 85.879 142.306 87.0291 144.859 86.9992C148.062 86.9617 150.905 85.6079 152.861 83.5078C154.464 81.7859 155.03 79.4011 155.499 77.0954L156.826 70.5769C157.334 68.0313 157.029 62.4703 151.744 60.5905Z" stroke="#2B2727" stroke-width="4"/>
<rect x="86" y="24" width="60" height="85" rx="30" fill="#F9FAFC"/>
<path d="M94.0967 33.5C89.0747 38.8635 86 46.0727 86 54V79C86 95.5685 99.4315 109 116 109C132.569 109 146 95.5685 146 79V54C146 37.4315 132.569 24 116 24C112.494 24 109.128 24.6015 106 25.7071" stroke="#2B2727" stroke-width="4" stroke-linecap="round"/>
</svg>
