<svg width="256" height="128" viewBox="0 0 256 128" fill="none" xmlns="http://www.w3.org/2000/svg">
<path d="M77 25.8C77 21.3196 77 19.0794 77.8719 17.3681C78.6389 15.8628 79.8628 14.6389 81.3681 13.8719C83.0794 13 85.3196 13 89.8 13H167.2C171.68 13 173.921 13 175.632 13.8719C177.137 14.6389 178.361 15.8628 179.128 17.3681C180 19.0794 180 21.3196 180 25.8V103.2C180 107.68 180 109.921 179.128 111.632C178.361 113.137 177.137 114.361 175.632 115.128C173.921 116 171.68 116 167.2 116H89.8C85.3196 116 83.0794 116 81.3681 115.128C79.8628 114.361 78.6389 113.137 77.8719 111.632C77 109.921 77 107.68 77 103.2V25.8Z" fill="#F9FAFC"/>
<path d="M78.5 38.5H178.5M78.5 64.5H178.5M78.5 90.5H178.5M92 116.5V120.5M164 116.5V120.5M128.5 13H89.8C85.3196 13 83.0794 13 81.3681 13.8719C79.8628 14.6389 78.6389 15.8628 77.8719 17.3681C77 19.0794 77 21.3196 77 25.8V103.2C77 107.68 77 109.921 77.8719 111.632C78.6389 113.137 79.8628 114.361 81.3681 115.128C83.0794 116 85.3196 116 89.8 116H167.2C171.68 116 173.921 116 175.632 115.128C177.137 114.361 178.361 113.137 179.128 111.632C180 109.921 180 107.68 180 103.2V25.8C180 21.3196 180 19.0794 179.128 17.3681C178.361 15.8628 177.137 14.6389 175.632 13.8719C173.921 13 171.68 13 167.2 13H147.85" stroke="#2B2727" stroke-width="3" stroke-linecap="round" stroke-linejoin="round"/>
<path d="M93 51.5C93 53.9853 90.9853 56 88.5 56C86.0147 56 84 53.9853 84 51.5C84 49.0147 86.0147 47 88.5 47C90.9853 47 93 49.0147 93 51.5Z" fill="#F9FAFC"/>
<path d="M110 51.5C110 53.9853 107.985 56 105.5 56C103.015 56 101 53.9853 101 51.5C101 49.0147 103.015 47 105.5 47C107.985 47 110 49.0147 110 51.5Z" fill="#F9FAFC"/>
<path d="M121 48C121 48.5523 120.552 49 120 49C119.448 49 119 48.5523 119 48C119 47.4477 119.448 47 120 47C120.552 47 121 47.4477 121 48Z" fill="#F9FAFC"/>
<path d="M129 48C129 48.5523 128.552 49 128 49C127.448 49 127 48.5523 127 48C127 47.4477 127.448 47 128 47C128.552 47 129 47.4477 129 48Z" fill="#F9FAFC"/>
<path d="M125 56C125 56.5523 124.552 57 124 57C123.448 57 123 56.5523 123 56C123 55.4477 123.448 55 124 55C124.552 55 125 55.4477 125 56Z" fill="#F9FAFC"/>
<path d="M137 48C137 48.5523 136.552 49 136 49C135.448 49 135 48.5523 135 48C135 47.4477 135.448 47 136 47C136.552 47 137 47.4477 137 48Z" fill="#F9FAFC"/>
<path d="M133 56C133 56.5523 132.552 57 132 57C131.448 57 131 56.5523 131 56C131 55.4477 131.448 55 132 55C132.552 55 133 55.4477 133 56Z" fill="#F9FAFC"/>
<path d="M145 48C145 48.5523 144.552 49 144 49C143.448 49 143 48.5523 143 48C143 47.4477 143.448 47 144 47C144.552 47 145 47.4477 145 48Z" fill="#F9FAFC"/>
<path d="M141 56C141 56.5523 140.552 57 140 57C139.448 57 139 56.5523 139 56C139 55.4477 139.448 55 140 55C140.552 55 141 55.4477 141 56Z" fill="#F9FAFC"/>
<path d="M153.5 48C152.672 48 152 48.6716 152 49.5C152 50.3284 152.672 51 153.5 51V48ZM171.5 51C172.328 51 173 50.3284 173 49.5C173 48.6716 172.328 48 171.5 48V51ZM153.5 54C152.672 54 152 54.6716 152 55.5C152 56.3284 152.672 57 153.5 57V54ZM171.5 57C172.328 57 173 56.3284 173 55.5C173 54.6716 172.328 54 171.5 54V57ZM153.5 51H171.5V48H153.5V51ZM153.5 57L171.5 57V54L153.5 54V57ZM91.5 51.5C91.5 53.1569 90.1569 54.5 88.5 54.5V57.5C91.8137 57.5 94.5 54.8137 94.5 51.5H91.5ZM88.5 54.5C86.8431 54.5 85.5 53.1569 85.5 51.5H82.5C82.5 54.8137 85.1863 57.5 88.5 57.5V54.5ZM85.5 51.5C85.5 49.8431 86.8431 48.5 88.5 48.5V45.5C85.1863 45.5 82.5 48.1863 82.5 51.5H85.5ZM88.5 48.5C90.1569 48.5 91.5 49.8431 91.5 51.5H94.5C94.5 48.1863 91.8137 45.5 88.5 45.5V48.5ZM108.5 51.5C108.5 53.1569 107.157 54.5 105.5 54.5V57.5C108.814 57.5 111.5 54.8137 111.5 51.5H108.5ZM105.5 54.5C103.843 54.5 102.5 53.1569 102.5 51.5H99.5C99.5 54.8137 102.186 57.5 105.5 57.5V54.5ZM102.5 51.5C102.5 49.8431 103.843 48.5 105.5 48.5V45.5C102.186 45.5 99.5 48.1863 99.5 51.5H102.5ZM105.5 48.5C107.157 48.5 108.5 49.8431 108.5 51.5H111.5C111.5 48.1863 108.814 45.5 105.5 45.5V48.5ZM119.5 48C119.5 47.7239 119.724 47.5 120 47.5V50.5C121.381 50.5 122.5 49.3807 122.5 48H119.5ZM120 47.5C120.276 47.5 120.5 47.7239 120.5 48H117.5C117.5 49.3807 118.619 50.5 120 50.5V47.5ZM120.5 48C120.5 48.2761 120.276 48.5 120 48.5V45.5C118.619 45.5 117.5 46.6193 117.5 48H120.5ZM120 48.5C119.724 48.5 119.5 48.2761 119.5 48H122.5C122.5 46.6193 121.381 45.5 120 45.5V48.5ZM127.5 48C127.5 47.7239 127.724 47.5 128 47.5V50.5C129.381 50.5 130.5 49.3807 130.5 48H127.5ZM128 47.5C128.276 47.5 128.5 47.7239 128.5 48H125.5C125.5 49.3807 126.619 50.5 128 50.5V47.5ZM128.5 48C128.5 48.2761 128.276 48.5 128 48.5V45.5C126.619 45.5 125.5 46.6193 125.5 48H128.5ZM128 48.5C127.724 48.5 127.5 48.2761 127.5 48H130.5C130.5 46.6193 129.381 45.5 128 45.5V48.5ZM123.5 56C123.5 55.7239 123.724 55.5 124 55.5V58.5C125.381 58.5 126.5 57.3807 126.5 56H123.5ZM124 55.5C124.276 55.5 124.5 55.7239 124.5 56H121.5C121.5 57.3807 122.619 58.5 124 58.5V55.5ZM124.5 56C124.5 56.2761 124.276 56.5 124 56.5V53.5C122.619 53.5 121.5 54.6193 121.5 56H124.5ZM124 56.5C123.724 56.5 123.5 56.2761 123.5 56H126.5C126.5 54.6193 125.381 53.5 124 53.5V56.5ZM135.5 48C135.5 47.7239 135.724 47.5 136 47.5V50.5C137.381 50.5 138.5 49.3807 138.5 48H135.5ZM136 47.5C136.276 47.5 136.5 47.7239 136.5 48H133.5C133.5 49.3807 134.619 50.5 136 50.5V47.5ZM136.5 48C136.5 48.2761 136.276 48.5 136 48.5V45.5C134.619 45.5 133.5 46.6193 133.5 48H136.5ZM136 48.5C135.724 48.5 135.5 48.2761 135.5 48H138.5C138.5 46.6193 137.381 45.5 136 45.5V48.5ZM131.5 56C131.5 55.7239 131.724 55.5 132 55.5V58.5C133.381 58.5 134.5 57.3807 134.5 56H131.5ZM132 55.5C132.276 55.5 132.5 55.7239 132.5 56H129.5C129.5 57.3807 130.619 58.5 132 58.5V55.5ZM132.5 56C132.5 56.2761 132.276 56.5 132 56.5V53.5C130.619 53.5 129.5 54.6193 129.5 56H132.5ZM132 56.5C131.724 56.5 131.5 56.2761 131.5 56H134.5C134.5 54.6193 133.381 53.5 132 53.5V56.5ZM143.5 48C143.5 47.7239 143.724 47.5 144 47.5V50.5C145.381 50.5 146.5 49.3807 146.5 48H143.5ZM144 47.5C144.276 47.5 144.5 47.7239 144.5 48H141.5C141.5 49.3807 142.619 50.5 144 50.5V47.5ZM144.5 48C144.5 48.2761 144.276 48.5 144 48.5V45.5C142.619 45.5 141.5 46.6193 141.5 48H144.5ZM144 48.5C143.724 48.5 143.5 48.2761 143.5 48H146.5C146.5 46.6193 145.381 45.5 144 45.5V48.5ZM139.5 56C139.5 55.7239 139.724 55.5 140 55.5V58.5C141.381 58.5 142.5 57.3807 142.5 56H139.5ZM140 55.5C140.276 55.5 140.5 55.7239 140.5 56H137.5C137.5 57.3807 138.619 58.5 140 58.5V55.5ZM140.5 56C140.5 56.2761 140.276 56.5 140 56.5V53.5C138.619 53.5 137.5 54.6193 137.5 56H140.5ZM140 56.5C139.724 56.5 139.5 56.2761 139.5 56H142.5C142.5 54.6193 141.381 53.5 140 53.5V56.5Z" fill="#2B2727"/>
<path d="M85 77.5C85 75.0147 87.0147 73 89.5 73H105.5C107.985 73 110 75.0147 110 77.5C110 79.9853 107.985 82 105.5 82H89.5C87.0147 82 85 79.9853 85 77.5Z" fill="#F9FAFC"/>
<path d="M121 74C121 74.5523 120.552 75 120 75C119.448 75 119 74.5523 119 74C119 73.4477 119.448 73 120 73C120.552 73 121 73.4477 121 74Z" fill="#F9FAFC"/>
<path d="M129 74C129 74.5523 128.552 75 128 75C127.448 75 127 74.5523 127 74C127 73.4477 127.448 73 128 73C128.552 73 129 73.4477 129 74Z" fill="#F9FAFC"/>
<path d="M125 82C125 82.5523 124.552 83 124 83C123.448 83 123 82.5523 123 82C123 81.4477 123.448 81 124 81C124.552 81 125 81.4477 125 82Z" fill="#F9FAFC"/>
<path d="M137 74C137 74.5523 136.552 75 136 75C135.448 75 135 74.5523 135 74C135 73.4477 135.448 73 136 73C136.552 73 137 73.4477 137 74Z" fill="#F9FAFC"/>
<path d="M133 82C133 82.5523 132.552 83 132 83C131.448 83 131 82.5523 131 82C131 81.4477 131.448 81 132 81C132.552 81 133 81.4477 133 82Z" fill="#F9FAFC"/>
<path d="M145 74C145 74.5523 144.552 75 144 75C143.448 75 143 74.5523 143 74C143 73.4477 143.448 73 144 73C144.552 73 145 73.4477 145 74Z" fill="#F9FAFC"/>
<path d="M141 82C141 82.5523 140.552 83 140 83C139.448 83 139 82.5523 139 82C139 81.4477 139.448 81 140 81C140.552 81 141 81.4477 141 82Z" fill="#F9FAFC"/>
<path d="M153 74C153 74.5523 152.552 75 152 75C151.448 75 151 74.5523 151 74C151 73.4477 151.448 73 152 73C152.552 73 153 73.4477 153 74Z" fill="#F9FAFC"/>
<path d="M149 82C149 82.5523 148.552 83 148 83C147.448 83 147 82.5523 147 82C147 81.4477 147.448 81 148 81C148.552 81 149 81.4477 149 82Z" fill="#F9FAFC"/>
<path d="M161 74C161 74.5523 160.552 75 160 75C159.448 75 159 74.5523 159 74C159 73.4477 159.448 73 160 73C160.552 73 161 73.4477 161 74Z" fill="#F9FAFC"/>
<path d="M157 82C157 82.5523 156.552 83 156 83C155.448 83 155 82.5523 155 82C155 81.4477 155.448 81 156 81C156.552 81 157 81.4477 157 82Z" fill="#F9FAFC"/>
<path d="M169 74C169 74.5523 168.552 75 168 75C167.448 75 167 74.5523 167 74C167 73.4477 167.448 73 168 73C168.552 73 169 73.4477 169 74Z" fill="#F9FAFC"/>
<path d="M165 82C165 82.5523 164.552 83 164 83C163.448 83 163 82.5523 163 82C163 81.4477 163.448 81 164 81C164.552 81 165 81.4477 165 82Z" fill="#F9FAFC"/>
<path d="M85 77.5C85 75.0147 87.0147 73 89.5 73H105.5C107.985 73 110 75.0147 110 77.5C110 79.9853 107.985 82 105.5 82H89.5C87.0147 82 85 79.9853 85 77.5Z" stroke="#2B2727" stroke-width="3" stroke-linecap="round" stroke-linejoin="round"/>
<path d="M121 74C121 74.5523 120.552 75 120 75C119.448 75 119 74.5523 119 74C119 73.4477 119.448 73 120 73C120.552 73 121 73.4477 121 74Z" stroke="#2B2727" stroke-width="3" stroke-linecap="round" stroke-linejoin="round"/>
<path d="M129 74C129 74.5523 128.552 75 128 75C127.448 75 127 74.5523 127 74C127 73.4477 127.448 73 128 73C128.552 73 129 73.4477 129 74Z" stroke="#2B2727" stroke-width="3" stroke-linecap="round" stroke-linejoin="round"/>
<path d="M125 82C125 82.5523 124.552 83 124 83C123.448 83 123 82.5523 123 82C123 81.4477 123.448 81 124 81C124.552 81 125 81.4477 125 82Z" stroke="#2B2727" stroke-width="3" stroke-linecap="round" stroke-linejoin="round"/>
<path d="M137 74C137 74.5523 136.552 75 136 75C135.448 75 135 74.5523 135 74C135 73.4477 135.448 73 136 73C136.552 73 137 73.4477 137 74Z" stroke="#2B2727" stroke-width="3" stroke-linecap="round" stroke-linejoin="round"/>
<path d="M133 82C133 82.5523 132.552 83 132 83C131.448 83 131 82.5523 131 82C131 81.4477 131.448 81 132 81C132.552 81 133 81.4477 133 82Z" stroke="#2B2727" stroke-width="3" stroke-linecap="round" stroke-linejoin="round"/>
<path d="M145 74C145 74.5523 144.552 75 144 75C143.448 75 143 74.5523 143 74C143 73.4477 143.448 73 144 73C144.552 73 145 73.4477 145 74Z" stroke="#2B2727" stroke-width="3" stroke-linecap="round" stroke-linejoin="round"/>
<path d="M141 82C141 82.5523 140.552 83 140 83C139.448 83 139 82.5523 139 82C139 81.4477 139.448 81 140 81C140.552 81 141 81.4477 141 82Z" stroke="#2B2727" stroke-width="3" stroke-linecap="round" stroke-linejoin="round"/>
<path d="M153 74C153 74.5523 152.552 75 152 75C151.448 75 151 74.5523 151 74C151 73.4477 151.448 73 152 73C152.552 73 153 73.4477 153 74Z" stroke="#2B2727" stroke-width="3" stroke-linecap="round" stroke-linejoin="round"/>
<path d="M149 82C149 82.5523 148.552 83 148 83C147.448 83 147 82.5523 147 82C147 81.4477 147.448 81 148 81C148.552 81 149 81.4477 149 82Z" stroke="#2B2727" stroke-width="3" stroke-linecap="round" stroke-linejoin="round"/>
<path d="M161 74C161 74.5523 160.552 75 160 75C159.448 75 159 74.5523 159 74C159 73.4477 159.448 73 160 73C160.552 73 161 73.4477 161 74Z" stroke="#2B2727" stroke-width="3" stroke-linecap="round" stroke-linejoin="round"/>
<path d="M157 82C157 82.5523 156.552 83 156 83C155.448 83 155 82.5523 155 82C155 81.4477 155.448 81 156 81C156.552 81 157 81.4477 157 82Z" stroke="#2B2727" stroke-width="3" stroke-linecap="round" stroke-linejoin="round"/>
<path d="M169 74C169 74.5523 168.552 75 168 75C167.448 75 167 74.5523 167 74C167 73.4477 167.448 73 168 73C168.552 73 169 73.4477 169 74Z" stroke="#2B2727" stroke-width="3" stroke-linecap="round" stroke-linejoin="round"/>
<path d="M165 82C165 82.5523 164.552 83 164 83C163.448 83 163 82.5523 163 82C163 81.4477 163.448 81 164 81C164.552 81 165 81.4477 165 82Z" stroke="#2B2727" stroke-width="3" stroke-linecap="round" stroke-linejoin="round"/>
<path d="M84 26.5C84 24.0147 86.0147 22 88.5 22H104.5C106.985 22 109 24.0147 109 26.5C109 28.9853 106.985 31 104.5 31H88.5C86.0147 31 84 28.9853 84 26.5Z" fill="#F9FAFC"/>
<path d="M121 23C121 23.5523 120.552 24 120 24C119.448 24 119 23.5523 119 23C119 22.4477 119.448 22 120 22C120.552 22 121 22.4477 121 23Z" fill="#F9FAFC"/>
<path d="M129 23C129 23.5523 128.552 24 128 24C127.448 24 127 23.5523 127 23C127 22.4477 127.448 22 128 22C128.552 22 129 22.4477 129 23Z" fill="#F9FAFC"/>
<path d="M125 31C125 31.5523 124.552 32 124 32C123.448 32 123 31.5523 123 31C123 30.4477 123.448 30 124 30C124.552 30 125 30.4477 125 31Z" fill="#F9FAFC"/>
<path d="M137 23C137 23.5523 136.552 24 136 24C135.448 24 135 23.5523 135 23C135 22.4477 135.448 22 136 22C136.552 22 137 22.4477 137 23Z" fill="#F9FAFC"/>
<path d="M133 31C133 31.5523 132.552 32 132 32C131.448 32 131 31.5523 131 31C131 30.4477 131.448 30 132 30C132.552 30 133 30.4477 133 31Z" fill="#F9FAFC"/>
<path d="M145 23C145 23.5523 144.552 24 144 24C143.448 24 143 23.5523 143 23C143 22.4477 143.448 22 144 22C144.552 22 145 22.4477 145 23Z" fill="#F9FAFC"/>
<path d="M141 31C141 31.5523 140.552 32 140 32C139.448 32 139 31.5523 139 31C139 30.4477 139.448 30 140 30C140.552 30 141 30.4477 141 31Z" fill="#F9FAFC"/>
<path d="M153 23C153 23.5523 152.552 24 152 24C151.448 24 151 23.5523 151 23C151 22.4477 151.448 22 152 22C152.552 22 153 22.4477 153 23Z" fill="#F9FAFC"/>
<path d="M149 31C149 31.5523 148.552 32 148 32C147.448 32 147 31.5523 147 31C147 30.4477 147.448 30 148 30C148.552 30 149 30.4477 149 31Z" fill="#F9FAFC"/>
<path d="M161 23C161 23.5523 160.552 24 160 24C159.448 24 159 23.5523 159 23C159 22.4477 159.448 22 160 22C160.552 22 161 22.4477 161 23Z" fill="#F9FAFC"/>
<path d="M157 31C157 31.5523 156.552 32 156 32C155.448 32 155 31.5523 155 31C155 30.4477 155.448 30 156 30C156.552 30 157 30.4477 157 31Z" fill="#F9FAFC"/>
<path d="M169 23C169 23.5523 168.552 24 168 24C167.448 24 167 23.5523 167 23C167 22.4477 167.448 22 168 22C168.552 22 169 22.4477 169 23Z" fill="#F9FAFC"/>
<path d="M165 31C165 31.5523 164.552 32 164 32C163.448 32 163 31.5523 163 31C163 30.4477 163.448 30 164 30C164.552 30 165 30.4477 165 31Z" fill="#F9FAFC"/>
<path d="M84 26.5C84 24.0147 86.0147 22 88.5 22H104.5C106.985 22 109 24.0147 109 26.5C109 28.9853 106.985 31 104.5 31H88.5C86.0147 31 84 28.9853 84 26.5Z" stroke="#2B2727" stroke-width="3" stroke-linecap="round" stroke-linejoin="round"/>
<path d="M121 23C121 23.5523 120.552 24 120 24C119.448 24 119 23.5523 119 23C119 22.4477 119.448 22 120 22C120.552 22 121 22.4477 121 23Z" stroke="#2B2727" stroke-width="3" stroke-linecap="round" stroke-linejoin="round"/>
<path d="M129 23C129 23.5523 128.552 24 128 24C127.448 24 127 23.5523 127 23C127 22.4477 127.448 22 128 22C128.552 22 129 22.4477 129 23Z" stroke="#2B2727" stroke-width="3" stroke-linecap="round" stroke-linejoin="round"/>
<path d="M125 31C125 31.5523 124.552 32 124 32C123.448 32 123 31.5523 123 31C123 30.4477 123.448 30 124 30C124.552 30 125 30.4477 125 31Z" stroke="#2B2727" stroke-width="3" stroke-linecap="round" stroke-linejoin="round"/>
<path d="M137 23C137 23.5523 136.552 24 136 24C135.448 24 135 23.5523 135 23C135 22.4477 135.448 22 136 22C136.552 22 137 22.4477 137 23Z" stroke="#2B2727" stroke-width="3" stroke-linecap="round" stroke-linejoin="round"/>
<path d="M133 31C133 31.5523 132.552 32 132 32C131.448 32 131 31.5523 131 31C131 30.4477 131.448 30 132 30C132.552 30 133 30.4477 133 31Z" stroke="#2B2727" stroke-width="3" stroke-linecap="round" stroke-linejoin="round"/>
<path d="M145 23C145 23.5523 144.552 24 144 24C143.448 24 143 23.5523 143 23C143 22.4477 143.448 22 144 22C144.552 22 145 22.4477 145 23Z" stroke="#2B2727" stroke-width="3" stroke-linecap="round" stroke-linejoin="round"/>
<path d="M141 31C141 31.5523 140.552 32 140 32C139.448 32 139 31.5523 139 31C139 30.4477 139.448 30 140 30C140.552 30 141 30.4477 141 31Z" stroke="#2B2727" stroke-width="3" stroke-linecap="round" stroke-linejoin="round"/>
<path d="M153 23C153 23.5523 152.552 24 152 24C151.448 24 151 23.5523 151 23C151 22.4477 151.448 22 152 22C152.552 22 153 22.4477 153 23Z" stroke="#2B2727" stroke-width="3" stroke-linecap="round" stroke-linejoin="round"/>
<path d="M149 31C149 31.5523 148.552 32 148 32C147.448 32 147 31.5523 147 31C147 30.4477 147.448 30 148 30C148.552 30 149 30.4477 149 31Z" stroke="#2B2727" stroke-width="3" stroke-linecap="round" stroke-linejoin="round"/>
<path d="M161 23C161 23.5523 160.552 24 160 24C159.448 24 159 23.5523 159 23C159 22.4477 159.448 22 160 22C160.552 22 161 22.4477 161 23Z" stroke="#2B2727" stroke-width="3" stroke-linecap="round" stroke-linejoin="round"/>
<path d="M157 31C157 31.5523 156.552 32 156 32C155.448 32 155 31.5523 155 31C155 30.4477 155.448 30 156 30C156.552 30 157 30.4477 157 31Z" stroke="#2B2727" stroke-width="3" stroke-linecap="round" stroke-linejoin="round"/>
<path d="M169 23C169 23.5523 168.552 24 168 24C167.448 24 167 23.5523 167 23C167 22.4477 167.448 22 168 22C168.552 22 169 22.4477 169 23Z" stroke="#2B2727" stroke-width="3" stroke-linecap="round" stroke-linejoin="round"/>
<path d="M165 31C165 31.5523 164.552 32 164 32C163.448 32 163 31.5523 163 31C163 30.4477 163.448 30 164 30C164.552 30 165 30.4477 165 31Z" stroke="#2B2727" stroke-width="3" stroke-linecap="round" stroke-linejoin="round"/>
<path d="M120 98C120 98.5523 119.552 99 119 99C118.448 99 118 98.5523 118 98C118 97.4477 118.448 97 119 97C119.552 97 120 97.4477 120 98Z" fill="#F9FAFC"/>
<path d="M128 98C128 98.5523 127.552 99 127 99C126.448 99 126 98.5523 126 98C126 97.4477 126.448 97 127 97C127.552 97 128 97.4477 128 98Z" fill="#F9FAFC"/>
<path d="M124 106C124 106.552 123.552 107 123 107C122.448 107 122 106.552 122 106C122 105.448 122.448 105 123 105C123.552 105 124 105.448 124 106Z" fill="#F9FAFC"/>
<path d="M136 98C136 98.5523 135.552 99 135 99C134.448 99 134 98.5523 134 98C134 97.4477 134.448 97 135 97C135.552 97 136 97.4477 136 98Z" fill="#F9FAFC"/>
<path d="M132 106C132 106.552 131.552 107 131 107C130.448 107 130 106.552 130 106C130 105.448 130.448 105 131 105C131.552 105 132 105.448 132 106Z" fill="#F9FAFC"/>
<path d="M144 98C144 98.5523 143.552 99 143 99C142.448 99 142 98.5523 142 98C142 97.4477 142.448 97 143 97C143.552 97 144 97.4477 144 98Z" fill="#F9FAFC"/>
<path d="M140 106C140 106.552 139.552 107 139 107C138.448 107 138 106.552 138 106C138 105.448 138.448 105 139 105C139.552 105 140 105.448 140 106Z" fill="#F9FAFC"/>
<path d="M152 98C152 98.5523 151.552 99 151 99C150.448 99 150 98.5523 150 98C150 97.4477 150.448 97 151 97C151.552 97 152 97.4477 152 98Z" fill="#F9FAFC"/>
<path d="M148 106C148 106.552 147.552 107 147 107C146.448 107 146 106.552 146 106C146 105.448 146.448 105 147 105C147.552 105 148 105.448 148 106Z" fill="#F9FAFC"/>
<path d="M160 98C160 98.5523 159.552 99 159 99C158.448 99 158 98.5523 158 98C158 97.4477 158.448 97 159 97C159.552 97 160 97.4477 160 98Z" fill="#F9FAFC"/>
<path d="M156 106C156 106.552 155.552 107 155 107C154.448 107 154 106.552 154 106C154 105.448 154.448 105 155 105C155.552 105 156 105.448 156 106Z" fill="#F9FAFC"/>
<path d="M168 98C168 98.5523 167.552 99 167 99C166.448 99 166 98.5523 166 98C166 97.4477 166.448 97 167 97C167.552 97 168 97.4477 168 98Z" fill="#F9FAFC"/>
<path d="M164 106C164 106.552 163.552 107 163 107C162.448 107 162 106.552 162 106C162 105.448 162.448 105 163 105C163.552 105 164 105.448 164 106Z" fill="#F9FAFC"/>
<path d="M92.2422 105C91.435 106.206 90.0602 107 88.5 107C86.0147 107 84 104.985 84 102.5C84 100.015 86.0147 98 88.5 98C90.0602 98 91.435 98.794 92.2422 100H101.758C102.565 98.794 103.94 98 105.5 98C107.985 98 110 100.015 110 102.5C110 104.985 107.985 107 105.5 107C103.94 107 102.565 106.206 101.758 105H92.2422Z" fill="#F9FAFC"/>
<path d="M120 98C120 98.5523 119.552 99 119 99C118.448 99 118 98.5523 118 98C118 97.4477 118.448 97 119 97C119.552 97 120 97.4477 120 98Z" stroke="#2B2727" stroke-width="3" stroke-linecap="round" stroke-linejoin="round"/>
<path d="M128 98C128 98.5523 127.552 99 127 99C126.448 99 126 98.5523 126 98C126 97.4477 126.448 97 127 97C127.552 97 128 97.4477 128 98Z" stroke="#2B2727" stroke-width="3" stroke-linecap="round" stroke-linejoin="round"/>
<path d="M124 106C124 106.552 123.552 107 123 107C122.448 107 122 106.552 122 106C122 105.448 122.448 105 123 105C123.552 105 124 105.448 124 106Z" stroke="#2B2727" stroke-width="3" stroke-linecap="round" stroke-linejoin="round"/>
<path d="M136 98C136 98.5523 135.552 99 135 99C134.448 99 134 98.5523 134 98C134 97.4477 134.448 97 135 97C135.552 97 136 97.4477 136 98Z" stroke="#2B2727" stroke-width="3" stroke-linecap="round" stroke-linejoin="round"/>
<path d="M132 106C132 106.552 131.552 107 131 107C130.448 107 130 106.552 130 106C130 105.448 130.448 105 131 105C131.552 105 132 105.448 132 106Z" stroke="#2B2727" stroke-width="3" stroke-linecap="round" stroke-linejoin="round"/>
<path d="M144 98C144 98.5523 143.552 99 143 99C142.448 99 142 98.5523 142 98C142 97.4477 142.448 97 143 97C143.552 97 144 97.4477 144 98Z" stroke="#2B2727" stroke-width="3" stroke-linecap="round" stroke-linejoin="round"/>
<path d="M140 106C140 106.552 139.552 107 139 107C138.448 107 138 106.552 138 106C138 105.448 138.448 105 139 105C139.552 105 140 105.448 140 106Z" stroke="#2B2727" stroke-width="3" stroke-linecap="round" stroke-linejoin="round"/>
<path d="M152 98C152 98.5523 151.552 99 151 99C150.448 99 150 98.5523 150 98C150 97.4477 150.448 97 151 97C151.552 97 152 97.4477 152 98Z" stroke="#2B2727" stroke-width="3" stroke-linecap="round" stroke-linejoin="round"/>
<path d="M148 106C148 106.552 147.552 107 147 107C146.448 107 146 106.552 146 106C146 105.448 146.448 105 147 105C147.552 105 148 105.448 148 106Z" stroke="#2B2727" stroke-width="3" stroke-linecap="round" stroke-linejoin="round"/>
<path d="M160 98C160 98.5523 159.552 99 159 99C158.448 99 158 98.5523 158 98C158 97.4477 158.448 97 159 97C159.552 97 160 97.4477 160 98Z" stroke="#2B2727" stroke-width="3" stroke-linecap="round" stroke-linejoin="round"/>
<path d="M156 106C156 106.552 155.552 107 155 107C154.448 107 154 106.552 154 106C154 105.448 154.448 105 155 105C155.552 105 156 105.448 156 106Z" stroke="#2B2727" stroke-width="3" stroke-linecap="round" stroke-linejoin="round"/>
<path d="M168 98C168 98.5523 167.552 99 167 99C166.448 99 166 98.5523 166 98C166 97.4477 166.448 97 167 97C167.552 97 168 97.4477 168 98Z" stroke="#2B2727" stroke-width="3" stroke-linecap="round" stroke-linejoin="round"/>
<path d="M164 106C164 106.552 163.552 107 163 107C162.448 107 162 106.552 162 106C162 105.448 162.448 105 163 105C163.552 105 164 105.448 164 106Z" stroke="#2B2727" stroke-width="3" stroke-linecap="round" stroke-linejoin="round"/>
<path d="M92.2422 105C91.435 106.206 90.0602 107 88.5 107C86.0147 107 84 104.985 84 102.5C84 100.015 86.0147 98 88.5 98C90.0602 98 91.435 98.794 92.2422 100H101.758C102.565 98.794 103.94 98 105.5 98C107.985 98 110 100.015 110 102.5C110 104.985 107.985 107 105.5 107C103.94 107 102.565 106.206 101.758 105H92.2422Z" stroke="#2B2727" stroke-width="3" stroke-linecap="round" stroke-linejoin="round"/>
</svg>
