<svg width="256" height="128" viewBox="0 0 256 128" fill="none" xmlns="http://www.w3.org/2000/svg">
<path d="M82.9288 38.4023C83.4629 37.8659 84.3288 37.8659 84.8629 38.4023L92.5994 46.1724C93.1335 46.7088 93.1335 47.5785 92.5994 48.1149L90.6653 50.0574C90.1312 50.5938 89.2653 50.5938 88.7312 50.0574L87.2806 48.6005L85.545 50.3437C88.7208 54.5905 90.6026 59.8691 90.6026 65.5891C90.6026 79.6231 79.2748 91 65.3013 91C51.3278 91 40 79.6231 40 65.5891C40 51.555 51.3278 40.1782 65.3013 40.1782C71.1138 40.1782 76.4686 42.1467 80.7407 45.4562L82.4453 43.7442L80.9946 42.2873C80.4606 41.7509 80.4606 40.8812 80.9946 40.3448L82.9288 38.4023Z" fill="#F9FAFC" stroke="#2B2727" stroke-width="3" stroke-linecap="round"/>
<path d="M65.6969 46.0303V49.1897M65.6969 81.4163V84.5757M84.9697 64.9871H81.7575M49.6363 64.9871H46.4242" stroke="#2B2727" stroke-width="3" stroke-linecap="round"/>
<line x1="65.0946" y1="64.0903" x2="75.3675" y2="53.8175" stroke="#2B2727" stroke-width="3" stroke-linecap="round"/>
<path d="M198 70.5C209.426 83.4163 219.371 87.4481 220.97 96.3268C220.991 96.4409 221 96.5586 220.998 96.6745C220.962 98.4906 220.617 99.7811 219.686 101.678C219.327 102.409 218.543 102.811 217.745 102.729C217.61 102.715 217.474 102.697 217.337 102.697H210.705C210.569 102.697 210.443 102.683 210.311 102.645C208.374 102.097 192.382 97.4238 192.186 97.2968L167.128 81.0829C167.043 81.0277 166.962 80.9661 166.886 80.8986L149 65L131 45C130.558 44.5367 130.362 43.893 130.498 43.2837C130.54 43.096 130.593 42.9086 130.614 42.7174C131.633 33.3573 138.127 26.4144 150.517 18.0955C151.653 17.1329 153.421 17.7062 153.911 19.1125C158.189 31.4018 170.201 42.5886 185.029 43.0807C186.57 43.1319 187.954 44.8625 187.987 46.4036C188.067 50.1461 189.437 55.5034 191 60C191.823 62.3666 196.154 68.4135 198 70.5Z" fill="#F9FAFC"/>
<path d="M144.5 22.3968C147.044 25.2162 152.626 34.15 150.406 40.9166C148.186 47.6833 142.544 51.7916 140 53M181.5 42.5C181.5 39 183 33.5 186.954 30M220.97 96.3268C219.371 87.4481 209.426 83.4163 198 70.5C196.154 68.4135 191.823 62.3666 191 60C189.437 55.5034 188.067 50.1461 187.987 46.4036C187.954 44.8625 186.57 43.1319 185.029 43.0807C170.201 42.5886 158.189 31.4018 153.911 19.1125C153.421 17.7062 151.653 17.1329 150.517 18.0955C138.127 26.4144 131.633 33.3573 130.614 42.7174C130.593 42.9086 130.54 43.096 130.498 43.2837C130.362 43.893 130.558 44.5367 131 45L149 65L166.886 80.8986C166.962 80.9661 167.043 81.0277 167.128 81.0829L192.186 97.2968C192.382 97.4238 208.374 102.097 210.311 102.645C210.443 102.683 210.569 102.697 210.705 102.697H217.337C217.474 102.697 217.61 102.715 217.745 102.729C218.543 102.811 219.327 102.409 219.686 101.678C220.617 99.7811 220.962 98.4906 220.998 96.6745C221 96.5586 220.991 96.4409 220.97 96.3268Z" stroke="#2B2727" stroke-width="4" stroke-linecap="round"/>
<path d="M154 75L124.811 44.8537C124.075 44.0934 124.058 42.8912 124.773 42.111L127.554 39.0779C128.336 38.2243 129.67 38.2035 130.47 39.041C135.293 44.0919 150.874 60.374 160.5 70C172 81.5 181 87.4123 189 92.5C196.32 97.1556 202.977 98.8374 215.773 101.293C217.352 101.596 217.864 103.471 216.417 104.173C208.02 108.249 193.8 103.659 185 99C182.131 97.4813 164 85.5 154 75Z" fill="#F9FAFC"/>
<path d="M160.5 70C172 81.5 181 87.4123 189 92.5C196.463 97.2461 203.236 98.9017 216.526 101.437C217.934 101.706 218.546 103.307 217.343 104.087C211.662 107.773 199.266 106.552 185 99C182.131 97.4813 164 85.5 154 75L124.811 44.8537C124.075 44.0934 124.058 42.8912 124.773 42.111L127.554 39.0779C128.336 38.2243 129.676 38.2092 130.475 39.0467C133.785 42.5132 142.142 51.2486 150.171 59.5" stroke="#2B2727" stroke-width="4" stroke-linecap="round"/>
<path d="M192 75.7329C192.667 73.2329 195.7 68.3329 202.5 68.7329M186 68.0231C186.667 65.5231 189.7 60.6231 196.5 61.0231M182 59.0231C182.667 56.5231 185.7 51.6231 192.5 52.0231" stroke="#2B2727" stroke-width="4" stroke-linecap="round" stroke-linejoin="round"/>
<path d="M125.5 81.5H141.5M122.5 92.5H148.5M142.5 102.5H168.5M119.5 102.5H127.5" stroke="#2B2727" stroke-width="3" stroke-linecap="round"/>
</svg>
