<svg width="256" height="128" viewBox="0 0 256 128" fill="none" xmlns="http://www.w3.org/2000/svg">
<path d="M173 64C173 88.8528 152.853 109 128 109C103.147 109 83 88.8528 83 64C83 39.1472 103.147 19 128 19C152.853 19 173 39.1472 173 64Z" fill="#F9FAFC"/>
<path d="M105 39.9999L128 62.9999M128 62.9999L151 85.9999M128 62.9999L105 85.9999M128 62.9999L151 39.9999M173 64C173 88.8528 152.853 109 128 109C103.147 109 83 88.8528 83 64C83 39.1472 103.147 19 128 19C152.853 19 173 39.1472 173 64Z" stroke="#2B2727" stroke-width="3" stroke-linecap="round" stroke-linejoin="round"/>
</svg>
