<svg width="256" height="128" viewBox="0 0 256 128" fill="none" xmlns="http://www.w3.org/2000/svg">
<path fill-rule="evenodd" clip-rule="evenodd" d="M128 111C153.957 111 175 89.9574 175 64C175 38.0426 153.957 17 128 17C102.043 17 81 38.0426 81 64C81 89.9574 102.043 111 128 111ZM129.28 39.2639C128.211 38.5244 126.789 38.5244 125.72 39.2639C119.478 43.5818 114.948 45.3983 107.799 46.1613C106.228 46.3289 105 47.6275 105 49.2071V64.88C105.5 73.3151 107.484 77.1911 112.5 83.36C117.579 88.483 120.834 90.6231 126.169 93.3325C127.004 93.7569 127.996 93.7569 128.831 93.3325C134.166 90.6231 137.421 88.483 142.5 83.36C147.516 77.1911 149.5 73.3151 150 64.88V49.2071C150 47.6275 148.772 46.3289 147.201 46.1613C140.052 45.3983 135.522 43.5818 129.28 39.2639Z" fill="#F9FAFC"/>
<path fill-rule="evenodd" clip-rule="evenodd" d="M137.879 60.0517C138.679 60.8135 138.71 62.0795 137.948 62.8793L127.948 73.3793C127.199 74.1661 125.959 74.2107 125.155 73.4799L119.655 68.4799C118.837 67.7369 118.777 66.472 119.52 65.6547C120.263 64.8373 121.528 64.7771 122.345 65.5201L126.399 69.2056L135.052 60.1207C135.814 59.3208 137.079 59.29 137.879 60.0517Z" fill="#F9FAFC"/>
</svg>
