<svg width="256" height="128" viewBox="0 0 256 128" fill="none" xmlns="http://www.w3.org/2000/svg">
<path d="M160.055 55.4269L144.448 28.5731C137.804 17.1423 121.196 17.1423 114.552 28.5731L106.749 42M167.858 68.8538L175.662 82.2808C182.305 93.7115 174.001 108 160.714 108H129.5M113.893 108H98.2858C84.999 108 76.6948 93.7116 83.3382 82.2808L98.9453 55.4269" stroke="#2B2727" stroke-width="3" stroke-linecap="round" stroke-linejoin="round"/>
<path d="M139 98.5L129.5 108L139 117.5" stroke="#2B2727" stroke-width="3" stroke-linecap="round" stroke-linejoin="round"/>
<path d="M102.414 68.3762L98.9368 55.3989L85.9596 58.8762" stroke="#2B2727" stroke-width="3" stroke-linecap="round" stroke-linejoin="round"/>
<path d="M147.059 51.947L160.036 55.4243L163.513 42.447" stroke="#2B2727" stroke-width="3" stroke-linecap="round" stroke-linejoin="round"/>
<path d="M136.642 70.6338C136.649 73.0759 138.589 75.0437 140.976 75.0289L141 83.8725L120.475 83.9999C117.492 84.0184 115.066 81.5588 115.058 78.5061L115 57.5024L123.642 57.4487C123.636 55.0066 125.565 53.0149 127.951 53.0001C130.338 52.9853 132.278 54.953 132.285 57.3951L140.927 57.3415L140.951 66.1852C138.565 66.2 136.636 68.1917 136.642 70.6338Z" fill="#F9FAFC" stroke="#2B2727" stroke-width="3" stroke-linecap="round" stroke-linejoin="round"/>
</svg>
