<svg width="256" height="128" viewBox="0 0 256 128" fill="none" xmlns="http://www.w3.org/2000/svg">
<path d="M104.069 89.4897L104.069 69.3586C104.069 66.5626 104.069 65.1647 104.614 64.0951C105.094 63.1543 105.858 62.3894 106.799 61.91C107.869 61.3651 109.269 61.3651 112.069 61.3651H143.004C145.803 61.3651 147.203 61.3651 148.272 61.9096C149.213 62.3887 149.977 63.1531 150.457 64.0934C151.002 65.1624 151.003 66.5618 151.004 69.3607L151.015 89.4855C151.016 91.1425 151.017 91.9709 150.737 92.7721C150.508 93.4288 150.048 94.163 149.557 94.6555C148.958 95.2564 148.298 95.5756 146.979 96.214L146.979 96.2141C142.133 98.5589 135.007 101.227 127.986 101.227C120.912 101.227 113.228 98.5177 108.133 96.1601C106.836 95.5603 106.188 95.2604 105.572 94.6579C105.075 94.1717 104.59 93.4127 104.358 92.7576C104.069 91.9458 104.069 91.1271 104.069 89.4897Z" fill="#F9FAFC" stroke="#2B2727" stroke-width="3" stroke-linecap="round" stroke-linejoin="round"/>
<rect x="109.384" y="93.0989" width="36.5225" height="25.2313" rx="8" fill="#F9FAFC" stroke="#2B2727" stroke-width="3" stroke-linecap="round" stroke-linejoin="round"/>
<path d="M151.052 65.8032C151.052 79.0173 140.534 89.7295 127.56 89.7295C114.587 89.7295 104.069 79.0173 104.069 65.8032C104.069 52.5891 114.587 41.877 127.56 41.877C140.534 41.877 151.052 52.5891 151.052 65.8032Z" fill="#F9FAFC"/>
<path d="M151.052 65.8032C151.052 79.0173 140.534 89.7295 127.56 89.7295C114.587 89.7295 104.069 79.0173 104.069 65.8032M151.052 65.8032C151.052 52.5891 140.534 41.877 127.56 41.877C114.587 41.877 104.069 52.5891 104.069 65.8032M151.052 65.8032C145.548 66.4563 139.059 66.8469 132.858 64.1894C126.972 61.6666 122.158 55.5822 121.47 53.1876C120.774 55.8362 118.927 59.3976 115.902 61.7955C111.726 65.1063 106.157 65.8032 104.069 65.8032" stroke="#2B2727" stroke-width="3" stroke-linecap="round" stroke-linejoin="round"/>
<ellipse cx="191.746" cy="67.6041" rx="19.3684" ry="19.7271" fill="#F9FAFC" stroke="#2B2727" stroke-width="3" stroke-linecap="round" stroke-linejoin="round"/>
<rect x="175.246" y="90.1143" width="32.2807" height="20.8032" rx="8" fill="#F9FAFC" stroke="#2B2727" stroke-width="3" stroke-linecap="round" stroke-linejoin="round"/>
<path d="M194.183 90.7371L189.169 102.437C189.118 102.557 189.092 102.617 189.071 102.672C188.649 103.776 188.914 105.025 189.749 105.862C189.791 105.904 189.839 105.949 189.934 106.037V106.037C190.057 106.151 190.119 106.208 190.174 106.255C191.29 107.193 192.919 107.193 194.035 106.255C194.09 106.208 194.152 106.151 194.274 106.037V106.037C194.37 105.949 194.418 105.904 194.46 105.862C195.295 105.025 195.56 103.776 195.138 102.672C195.117 102.617 195.091 102.557 195.039 102.437L190.025 90.7371" stroke="#2B2727" stroke-width="2" stroke-linecap="round" stroke-linejoin="round"/>
<path d="M82.3771 67.5852C82.3771 78.4698 73.7138 87.2934 63.0272 87.2934C52.3405 87.2934 43.6772 78.4698 43.6772 67.5852C43.6772 56.7006 52.3405 47.877 63.0272 47.877C73.7138 47.877 82.3771 56.7006 82.3771 67.5852Z" fill="#F9FAFC"/>
<path d="M82.3771 67.5852C82.3771 78.4698 73.7138 87.2934 63.0272 87.2934C52.3405 87.2934 43.6772 78.4698 43.6772 67.5852M82.3771 67.5852C82.3771 56.7006 73.7138 47.877 63.0272 47.877C52.3405 47.877 43.6772 56.7006 43.6772 67.5852M82.3771 67.5852C77.8438 68.1232 72.4988 68.4449 67.3912 66.2559C62.5423 64.1778 58.5772 59.1661 58.0106 57.1936C57.4372 59.3753 55.9154 62.3088 53.4239 64.284C49.9839 67.0111 45.3972 67.5852 43.6772 67.5852" stroke="#2B2727" stroke-width="3" stroke-linecap="round" stroke-linejoin="round"/>
<rect x="46.5959" y="90.1974" width="32.2807" height="20.8032" rx="8" fill="#F9FAFC" stroke="#2B2727" stroke-width="3" stroke-linecap="round" stroke-linejoin="round"/>
<path d="M58.2704 90.1974C58.2704 93.4809 60.0945 94.9402 63.0132 94.9402C65.9318 94.9402 67.3911 93.4809 67.3911 90.1974" stroke="#2B2727" stroke-width="2" stroke-linecap="round" stroke-linejoin="round"/>
<path d="M126.5 32C126.5 32.8284 127.172 33.5 128 33.5C128.828 33.5 129.5 32.8284 129.5 32L126.5 32ZM129.061 8.93934C128.475 8.35355 127.525 8.35355 126.939 8.93934L117.393 18.4853C116.808 19.0711 116.808 20.0208 117.393 20.6066C117.979 21.1924 118.929 21.1924 119.515 20.6066L128 12.1213L136.485 20.6066C137.071 21.1924 138.021 21.1924 138.607 20.6066C139.192 20.0208 139.192 19.0711 138.607 18.4853L129.061 8.93934ZM129.5 32L129.5 10L126.5 10L126.5 32L129.5 32Z" fill="#2B2727"/>
<path d="M57.0056 37.1299C57.0774 37.9553 57.8046 38.5661 58.6299 38.4944C59.4553 38.4226 60.0661 37.6954 59.9944 36.8701L57.0056 37.1299ZM38.5257 17.577C37.7397 17.8389 37.315 18.6884 37.577 19.4743L41.846 32.2816C42.108 33.0675 42.9575 33.4922 43.7434 33.2302C44.5293 32.9683 44.9541 32.1188 44.6921 31.3329L40.8974 19.9487L52.2816 16.154C53.0675 15.892 53.4922 15.0425 53.2302 14.2566C52.9683 13.4707 52.1188 13.0459 51.3329 13.3079L38.5257 17.577ZM59.9944 36.8701C59.4383 30.4748 55.3908 26.2495 51.0821 23.3769C46.8701 20.569 41.9156 18.7808 39.6708 17.6584L38.3292 20.3416C41.0844 21.7192 45.3799 23.181 49.4179 25.8731C53.3592 28.5005 56.5617 32.0252 57.0056 37.1299L59.9944 36.8701Z" fill="#2B2727"/>
<path d="M191.494 37.1299C191.423 37.9553 190.695 38.5661 189.87 38.4944C189.045 38.4226 188.434 37.6954 188.506 36.8701L191.494 37.1299ZM209.974 17.577C210.76 17.8389 211.185 18.6884 210.923 19.4743L206.654 32.2816C206.392 33.0675 205.542 33.4922 204.757 33.2302C203.971 32.9683 203.546 32.1188 203.808 31.3329L207.603 19.9487L196.218 16.154C195.433 15.892 195.008 15.0425 195.27 14.2566C195.532 13.4707 196.381 13.0459 197.167 13.3079L209.974 17.577ZM188.506 36.8701C189.062 30.4748 193.109 26.2495 197.418 23.3769C201.63 20.569 206.584 18.7808 208.829 17.6584L210.171 20.3416C207.416 21.7192 203.12 23.181 199.082 25.8731C195.141 28.5005 191.938 32.0252 191.494 37.1299L188.506 36.8701Z" fill="#2B2727"/>
</svg>
