<svg width="256" height="128" viewBox="0 0 256 128" fill="none" xmlns="http://www.w3.org/2000/svg">
<path d="M32.5 34.4347C32.5 29.305 36.0966 25.5 40.1255 25.5H126.817C130.846 25.5 134.443 29.305 134.443 34.4347V97.0426C134.443 102.172 130.846 105.977 126.817 105.977H40.1255C36.0966 105.977 32.5 102.172 32.5 97.0426V34.4347Z" fill="#F9FAFC" stroke="#2B2727" stroke-width="3" stroke-linejoin="round"/>
<g clip-path="url(#clip0_909_11995)">
<path d="M46.7371 32.4908C45.068 32.4908 43.6934 33.7484 43.5034 35.368C43.4938 35.4499 43.4866 35.5322 43.4828 35.6155C43.4793 35.6905 43.5403 35.7514 43.6153 35.7514H44.1099C44.1849 35.7514 44.2453 35.6905 44.2501 35.6155C44.2554 35.5319 44.2652 35.4496 44.2779 35.368C44.4626 34.1736 45.492 33.2576 46.7371 33.2576C48.1128 33.2576 49.2274 34.3744 49.2274 35.7514C49.2274 37.1285 48.1128 38.2441 46.7371 38.2441H43.0001C42.8935 38.2441 42.8292 38.3612 42.8902 38.4488C43.0181 38.6325 43.1586 38.8069 43.3109 38.97C43.3362 38.9971 43.3716 39.0121 43.4085 39.0121H46.7371C48.5361 39.0121 49.9946 37.5522 49.9946 35.7514C49.9946 33.9507 48.5361 32.4908 46.7371 32.4908Z" fill="#2B2727"/>
<path d="M46.7371 31.0647C45.2787 31.0647 43.9755 31.7295 43.1145 32.7739C42.5143 33.5017 42.1406 34.4203 42.0632 35.3609C42.063 35.3633 42.0622 35.3656 42.062 35.368C42.0554 35.4502 42.0493 35.5325 42.0459 35.6155C42.0428 35.6905 42.1037 35.7514 42.1786 35.7514H42.6733C42.7482 35.7514 42.8088 35.6905 42.8115 35.6154C42.8145 35.5324 42.8201 35.45 42.8281 35.368C43.021 33.3769 44.6972 31.8195 46.7371 31.8195C48.9064 31.8195 50.6652 33.58 50.6652 35.7514C50.6652 37.9229 48.9064 39.6834 46.7371 39.6833H44.603C44.4685 39.6833 44.4208 39.851 44.5398 39.914C45.1289 40.226 45.7928 40.4145 46.4973 40.4501H46.7371C49.1677 40.4501 51.1658 38.601 51.4062 36.2316C51.4218 36.0776 51.4308 35.9215 51.4312 35.7634C51.4312 35.6012 51.4222 35.44 51.4062 35.2821C51.1658 32.9126 49.1677 31.0647 46.7371 31.0647Z" fill="#2B2727"/>
<path d="M46.7371 33.9288C45.8635 33.9288 45.1355 34.5464 44.9592 35.368C44.9418 35.4489 44.9288 35.5314 44.9219 35.6156C44.9157 35.6904 44.977 35.7514 45.0519 35.7514H45.5478C45.6227 35.7514 45.6826 35.6903 45.6926 35.6158C45.7043 35.5296 45.7267 35.4467 45.7575 35.368C45.9109 34.9755 46.2905 34.6968 46.7371 34.6968C47.3191 34.6968 47.7907 35.1688 47.7907 35.7514C47.7907 36.334 47.3191 36.806 46.7371 36.8061H42.9509C42.922 36.6999 42.895 36.5895 42.8646 36.4837C42.8432 36.4095 42.7766 36.3581 42.7088 36.3581H42.2184C42.1515 36.3581 42.0917 36.4363 42.1046 36.5103C42.1666 36.8414 42.2409 37.1877 42.3747 37.4983C42.3956 37.5468 42.4468 37.5729 42.4948 37.5729H46.7371C47.7424 37.5729 48.5567 36.7577 48.5567 35.7514C48.5567 34.7452 47.7424 33.9288 46.7371 33.9288Z" fill="#2B2727"/>
</g>
<path d="M69.4708 35.6624H83.85M93.4361 35.6624H103.022M112.608 35.6624H122.195" stroke="#2B2727" stroke-width="2" stroke-linecap="round"/>
<rect x="43" y="47" width="52" height="49" rx="5" stroke="#2B2727" stroke-width="2" stroke-linecap="round" stroke-linejoin="round"/>
<rect x="100" y="47" width="23" height="22" rx="3" stroke="#2B2727" stroke-width="2" stroke-linecap="round" stroke-linejoin="round"/>
<rect x="100" y="74" width="23" height="22" rx="3" stroke="#2B2727" stroke-width="2" stroke-linecap="round" stroke-linejoin="round"/>
<path d="M67 29.875C67 23.3166 71.6718 18 77.4348 18H176.565C182.328 18 187 23.3166 187 29.875C187 57.6999 187 73.3001 187 101.125C187 107.683 182.328 113 176.565 113H77.4348C71.6718 113 67 107.683 67 101.125V29.875Z" fill="#F9FAFC"/>
<path d="M187 29.875C187 23.3166 182.328 18 176.565 18H77.4348C71.6718 18 67 23.3166 67 29.875V101.125C67 107.683 71.6718 113 77.4348 113H176.565C182.328 113 187 107.683 187 101.125V95" stroke="#2B2727" stroke-width="3" stroke-linecap="round" stroke-linejoin="round"/>
<g clip-path="url(#clip1_909_11995)">
<path d="M84.2864 25.8664C82.3469 25.8664 80.7496 27.3277 80.5289 29.2097C80.5177 29.3048 80.5094 29.4004 80.5049 29.4972C80.5008 29.5844 80.5717 29.6552 80.6588 29.6552H81.2336C81.3207 29.6552 81.3909 29.5844 81.3965 29.4972C81.4027 29.4001 81.4141 29.3044 81.4287 29.2097C81.6434 27.8217 82.8396 26.7573 84.2864 26.7573C85.8849 26.7573 87.18 28.0551 87.18 29.6552C87.18 31.2553 85.8849 32.5517 84.2864 32.5517H79.944C79.8202 32.5517 79.7455 32.6877 79.8163 32.7895C79.965 33.003 80.1282 33.2056 80.3052 33.3952C80.3345 33.4266 80.3757 33.4441 80.4186 33.4441H84.2864C86.3767 33.4441 88.0716 31.7476 88.0715 29.6552C88.0715 27.5628 86.3767 25.8664 84.2864 25.8664Z" fill="#2B2727"/>
<path d="M84.2864 24.2092C82.5917 24.2092 81.0774 24.9818 80.0769 26.1953C79.3795 27.041 78.9453 28.1084 78.8554 29.2014C78.8551 29.2042 78.8542 29.2069 78.854 29.2097C78.8462 29.3051 78.8392 29.4008 78.8352 29.4972C78.8316 29.5844 78.9024 29.6552 78.9895 29.6552H79.5642C79.6513 29.6552 79.7217 29.5844 79.7248 29.4972C79.7283 29.4006 79.7349 29.305 79.7441 29.2097C79.9683 26.896 81.916 25.0864 84.2864 25.0864C86.8071 25.0864 88.8508 27.132 88.8508 29.6552C88.8508 32.1784 86.8071 34.2241 84.2864 34.224H81.8066C81.6502 34.224 81.5949 34.4189 81.7331 34.4921C82.4177 34.8546 83.1891 35.0736 84.0077 35.115H84.2864C87.1107 35.115 89.4324 32.9664 89.7118 30.2131C89.7299 30.0341 89.7405 29.8528 89.7409 29.6691C89.7409 29.4806 89.7304 29.2933 89.7118 29.1098C89.4324 26.3565 87.1107 24.2092 84.2864 24.2092Z" fill="#2B2727"/>
<path d="M84.2864 27.5373C83.2713 27.5373 82.4253 28.2549 82.2204 29.2097C82.2003 29.3037 82.1852 29.3995 82.1771 29.4973C82.1699 29.5843 82.2411 29.6552 82.3282 29.6552H82.9044C82.9914 29.6552 83.061 29.5841 83.0727 29.4976C83.0863 29.3974 83.1123 29.3011 83.148 29.2097C83.3264 28.7535 83.7674 28.4297 84.2864 28.4297C84.9627 28.4297 85.5106 28.9782 85.5107 29.6552C85.5107 30.3321 84.9627 30.8806 84.2864 30.8807H79.8869C79.8532 30.7573 79.8219 30.629 79.7866 30.5061C79.7617 30.4198 79.6843 30.3602 79.6056 30.3602H79.0357C78.9579 30.3602 78.8884 30.4509 78.9034 30.5369C78.9755 30.9218 79.0618 31.3241 79.2173 31.685C79.2416 31.7414 79.3011 31.7717 79.3569 31.7717H84.2864C85.4545 31.7717 86.4008 30.8245 86.4008 29.6552C86.4008 28.4859 85.4545 27.5373 84.2864 27.5373Z" fill="#2B2727"/>
</g>
<path d="M110.703 29.5515H127.411M138.55 29.5515H149.689M160.828 29.5515H171.967" stroke="#2B2727" stroke-width="2" stroke-linecap="round"/>
<path d="M142.132 41H89.6C86.2397 41 84.5595 41 83.2761 41.654C82.1471 42.2292 81.2292 43.1471 80.654 44.2761C80 45.5595 80 47.2397 80 50.6V64.4C80 67.7603 80 69.4405 80.654 70.7239C81.2292 71.8529 82.1471 72.7708 83.2761 73.346C84.5595 74 86.2397 74 89.6 74H139.181M158.066 41H164.4C167.76 41 169.44 41 170.724 41.654C171.853 42.2292 172.771 43.1471 173.346 44.2761C174 45.5595 174 47.2397 174 50.6V64.4C174 67.7603 174 69.4405 173.346 70.7239C172.771 71.8529 171.853 72.7708 170.724 73.346C169.44 74 167.76 74 164.4 74H156.591" stroke="#2B2727" stroke-width="2" stroke-linecap="round" stroke-linejoin="round"/>
<rect x="79.4714" y="81" width="27" height="19" rx="5" stroke="#2B2727" stroke-width="2" stroke-linecap="round" stroke-linejoin="round"/>
<rect x="112.471" y="81" width="27" height="19" rx="5" stroke="#2B2727" stroke-width="2" stroke-linecap="round" stroke-linejoin="round"/>
<path d="M170.595 99.3894C169.418 100 167.877 100 164.794 100H155.805C152.723 100 151.182 100 150.005 99.3894C148.969 98.8522 148.127 97.9951 147.6 96.9408C147 95.7422 147 94.1732 147 91.0352V89.3543C147 86.2163 147 84.6473 147.6 83.4487" stroke="#2B2727" stroke-width="2" stroke-linecap="round" stroke-linejoin="round"/>
<line x1="191.489" y1="83.4109" x2="199.267" y2="91.1891" stroke="#2B2727" stroke-width="3" stroke-linecap="round"/>
<rect x="193.926" y="90.583" width="8" height="33" rx="4" transform="rotate(-45 193.926 90.583)" fill="#F9FAFC" stroke="#2B2727" stroke-width="3"/>
<circle cx="173.5" cy="62.5" r="26" fill="#F9FAFC" stroke="#2B2727" stroke-width="3"/>
<path d="M163 63C163 63 167 55 174 55C181 55 185 63 185 63C185 63 181 71 174 71C167 71 163 63 163 63Z" stroke="#2B2727" stroke-width="2" stroke-linecap="round" stroke-linejoin="round"/>
<path d="M174 66C175.657 66 177 64.6569 177 63C177 61.3431 175.657 60 174 60C172.343 60 171 61.3431 171 63C171 64.6569 172.343 66 174 66Z" stroke="#2B2727" stroke-width="2" stroke-linecap="round" stroke-linejoin="round"/>
<defs>
<clipPath id="clip0_909_11995">
<rect width="10.0111" height="10.0111" fill="white" transform="translate(41.7329 30.752)"/>
</clipPath>
<clipPath id="clip1_909_11995">
<rect width="11.6329" height="11.6329" fill="white" transform="translate(78.4716 23.8457)"/>
</clipPath>
</defs>
</svg>
