<svg width="256" height="128" viewBox="0 0 256 128" fill="none" xmlns="http://www.w3.org/2000/svg">
<path d="M32.5 34.4347C32.5 29.305 36.0966 25.5 40.1255 25.5H126.817C130.846 25.5 134.443 29.305 134.443 34.4347V97.0426C134.443 102.172 130.846 105.977 126.817 105.977H40.1255C36.0966 105.977 32.5 102.172 32.5 97.0426V34.4347Z" fill="#F9FAFC" stroke="#2B2727" stroke-width="3" stroke-linejoin="round"/>
<g clip-path="url(#clip0_909_11995)">
<path d="M46.7371 33.9288C45.8635 33.9288 45.1355 34.5464 44.9592 35.368C44.9418 35.4489 44.9288 35.5314 44.9219 35.6156C44.9157 35.6904 44.977 35.7514 45.0519 35.7514H45.5478C45.6227 35.7514 45.6826 35.6903 45.6926 35.6158C45.7043 35.5296 45.7267 35.4467 45.7575 35.368C45.9109 34.9755 46.2905 34.6968 46.7371 34.6968C47.3191 34.6968 47.7907 35.1688 47.7907 35.7514C47.7907 36.334 47.3191 36.806 46.7371 36.8061H42.3323C42.2452 36.8061 42.1805 36.8872 42.2027 36.9716C42.249 37.1483 42.3046 37.3212 42.3705 37.489C42.3905 37.54 42.4401 37.5729 42.4948 37.5729H46.7371C47.7424 37.5729 48.5567 36.7577 48.5567 35.7514C48.5567 34.7452 47.7424 33.9288 46.7371 33.9288Z" fill="#2B2727"/>
<path d="M46.7371 32.4908C45.068 32.4908 43.6934 33.7484 43.5034 35.368C43.4938 35.4499 43.4866 35.5322 43.4828 35.6155C43.4793 35.6905 43.5403 35.7514 43.6153 35.7514H44.1099C44.1849 35.7514 44.2453 35.6905 44.2501 35.6155C44.2554 35.5319 44.2652 35.4496 44.2779 35.368C44.4626 34.1736 45.492 33.2576 46.7371 33.2576C48.1128 33.2576 49.2274 34.3744 49.2274 35.7514C49.2274 37.1285 48.1128 38.2441 46.7371 38.2441H43.0001C42.8935 38.2441 42.8292 38.3612 42.8902 38.4488C43.0181 38.6325 43.1586 38.8069 43.3109 38.97C43.3362 38.9971 43.3716 39.0121 43.4085 39.0121H46.7371C48.5361 39.0121 49.9946 37.5522 49.9946 35.7514C49.9946 33.9507 48.5361 32.4908 46.7371 32.4908Z" fill="#2B2727"/>
<path d="M46.7371 31.0647C45.2787 31.0647 43.9755 31.7295 43.1145 32.7739C43.0219 32.8862 42.9339 33.0031 42.8519 33.1238C42.8466 33.1317 42.8418 33.1398 42.8364 33.1477C42.7626 33.2578 42.6945 33.3717 42.63 33.4881C42.6187 33.5086 42.6064 33.5283 42.5954 33.549C42.539 33.6546 42.4887 33.7637 42.4403 33.8739C42.426 33.9067 42.4109 33.9398 42.3973 33.973C42.3598 34.064 42.3265 34.1564 42.2947 34.2501C42.2746 34.3097 42.254 34.3698 42.2362 34.4305C42.2173 34.4946 42.2024 34.5599 42.1861 34.6252C42.1644 34.7135 42.1419 34.8012 42.1253 34.8915C42.1176 34.9322 42.1139 34.9746 42.1074 35.0157C42.0894 35.1296 42.0728 35.2444 42.0632 35.3609C42.063 35.3633 42.0622 35.3656 42.062 35.368C42.0554 35.4502 42.0493 35.5325 42.0459 35.6155C42.0428 35.6905 42.1037 35.7514 42.1786 35.7514H42.6733C42.7482 35.7514 42.8088 35.6905 42.8115 35.6154C42.8145 35.5324 42.8201 35.45 42.8281 35.368C43.021 33.3769 44.6972 31.8195 46.7371 31.8195C48.9064 31.8195 50.6652 33.58 50.6652 35.7514C50.6652 37.9229 48.9064 39.6834 46.7371 39.6833H44.603C44.4685 39.6833 44.4208 39.851 44.5398 39.914C45.1289 40.226 45.7928 40.4145 46.4973 40.4501H46.7371C49.1677 40.4501 51.1658 38.601 51.4062 36.2316C51.4218 36.0776 51.4308 35.9215 51.4312 35.7634C51.4312 35.6012 51.4222 35.44 51.4062 35.2821C51.1658 32.9126 49.1677 31.0647 46.7371 31.0647Z" fill="#2B2727"/>
</g>
<path d="M69.4708 35.6624H83.85M93.4361 35.6624H103.022M112.608 35.6624H122.195" stroke="#2B2727" stroke-width="2" stroke-linecap="round"/>
<rect x="43" y="47" width="52" height="49" rx="5" stroke="#2B2727" stroke-width="2" stroke-linecap="round" stroke-linejoin="round"/>
<rect x="100" y="47" width="23" height="22" rx="3" stroke="#2B2727" stroke-width="2" stroke-linecap="round" stroke-linejoin="round"/>
<rect x="100" y="74" width="23" height="22" rx="3" stroke="#2B2727" stroke-width="2" stroke-linecap="round" stroke-linejoin="round"/>
<path d="M67 29.875C67 23.3166 71.6718 18 77.4348 18H176.565C182.328 18 187 23.3166 187 29.875C187 57.6999 187 73.3001 187 101.125C187 107.683 182.328 113 176.565 113H77.4348C71.6718 113 67 107.683 67 101.125V29.875Z" fill="#F9FAFC"/>
<path d="M187 29.875C187 23.3166 182.328 18 176.565 18H77.4348C71.6718 18 67 23.3166 67 29.875V101.125C67 107.683 71.6718 113 77.4348 113H176.565C182.328 113 187 107.683 187 101.125V95" stroke="#2B2727" stroke-width="3" stroke-linecap="round" stroke-linejoin="round"/>
<g clip-path="url(#clip1_909_11995)">
<path d="M84.2864 27.5372C83.2713 27.5372 82.4253 28.2548 82.2204 29.2096C82.2003 29.3036 82.1852 29.3994 82.1771 29.4972C82.1699 29.5842 82.2411 29.6551 82.3282 29.6551H82.9044C82.9914 29.6551 83.061 29.584 83.0727 29.4975C83.0863 29.3973 83.1123 29.301 83.148 29.2096C83.3264 28.7534 83.7674 28.4296 84.2864 28.4296C84.9627 28.4296 85.5106 28.9781 85.5107 29.6551C85.5107 30.332 84.9627 30.8805 84.2864 30.8806H79.168C79.0668 30.8806 78.9917 30.9748 79.0174 31.0729C79.0712 31.2782 79.1359 31.4791 79.2124 31.6741C79.2357 31.7334 79.2933 31.7716 79.3569 31.7716H84.2864C85.4545 31.7716 86.4008 30.8244 86.4008 29.6551C86.4008 28.4858 85.4545 27.5372 84.2864 27.5372Z" fill="#2B2727"/>
<path d="M84.2864 25.8662C82.3469 25.8662 80.7496 27.3276 80.5289 29.2096C80.5177 29.3046 80.5094 29.4003 80.5049 29.4971C80.5008 29.5843 80.5717 29.6551 80.6588 29.6551H81.2336C81.3207 29.6551 81.3909 29.5842 81.3965 29.4971C81.4027 29.4 81.4141 29.3043 81.4287 29.2096C81.6434 27.8216 82.8396 26.7572 84.2864 26.7572C85.8849 26.7572 87.18 28.055 87.18 29.6551C87.18 31.2552 85.8849 32.5515 84.2864 32.5515H79.944C79.8202 32.5515 79.7455 32.6876 79.8163 32.7894C79.965 33.0029 80.1282 33.2055 80.3052 33.395C80.3345 33.4265 80.3757 33.4439 80.4186 33.4439H84.2864C86.3767 33.4439 88.0716 31.7475 88.0715 29.6551C88.0715 27.5627 86.3767 25.8662 84.2864 25.8662Z" fill="#2B2727"/>
<path d="M84.2864 24.2091C82.5917 24.2091 81.0774 24.9816 80.0769 26.1951C79.9693 26.3256 79.8671 26.4616 79.7718 26.6018C79.7656 26.611 79.76 26.6203 79.7538 26.6295C79.668 26.7574 79.5889 26.8898 79.5139 27.0251C79.5008 27.049 79.4865 27.0718 79.4737 27.0959C79.4082 27.2185 79.3498 27.3454 79.2935 27.4733C79.2769 27.5115 79.2593 27.55 79.2436 27.5886C79.2 27.6943 79.1613 27.8016 79.1243 27.9105C79.101 27.9798 79.077 28.0496 79.0564 28.1201C79.0344 28.1947 79.017 28.2705 78.9981 28.3463C78.9729 28.449 78.9468 28.5509 78.9275 28.6558C78.9186 28.7031 78.9143 28.7524 78.9067 28.8001C78.8858 28.9325 78.8665 29.0659 78.8554 29.2013C78.8551 29.2041 78.8542 29.2067 78.854 29.2096C78.8462 29.305 78.8392 29.4006 78.8352 29.4971C78.8316 29.5843 78.9024 29.6551 78.9895 29.6551H79.5642C79.6513 29.6551 79.7217 29.5843 79.7248 29.497C79.7283 29.4005 79.7349 29.3048 79.7441 29.2096C79.9683 26.8959 81.916 25.0862 84.2864 25.0862C86.8071 25.0862 88.8508 27.1319 88.8508 29.6551C88.8508 32.1783 86.8071 34.2239 84.2864 34.2239H81.8066C81.6502 34.2239 81.5949 34.4187 81.7331 34.4919C82.4177 34.8545 83.1891 35.0735 84.0077 35.1149H84.2864C87.1107 35.1149 89.4324 32.9663 89.7118 30.213C89.7299 30.034 89.7405 29.8526 89.7409 29.669C89.7409 29.4805 89.7304 29.2932 89.7118 29.1096C89.4324 26.3564 87.1107 24.2091 84.2864 24.2091Z" fill="#2B2727"/>
</g>
<path d="M110.703 29.5515H127.411M138.55 29.5515H149.689M160.828 29.5515H171.967" stroke="#2B2727" stroke-width="2" stroke-linecap="round"/>
<path d="M142.132 41H89.6C86.2397 41 84.5595 41 83.2761 41.654C82.1471 42.2292 81.2292 43.1471 80.654 44.2761C80 45.5595 80 47.2397 80 50.6V64.4C80 67.7603 80 69.4405 80.654 70.7239C81.2292 71.8529 82.1471 72.7708 83.2761 73.346C84.5595 74 86.2397 74 89.6 74H139.181M158.066 41H164.4C167.76 41 169.44 41 170.724 41.654C171.853 42.2292 172.771 43.1471 173.346 44.2761C174 45.5595 174 47.2397 174 50.6V64.4C174 67.7603 174 69.4405 173.346 70.7239C172.771 71.8529 171.853 72.7708 170.724 73.346C169.44 74 167.76 74 164.4 74H156.591" stroke="#2B2727" stroke-width="2" stroke-linecap="round" stroke-linejoin="round"/>
<rect x="79.4714" y="81" width="27" height="19" rx="5" stroke="#2B2727" stroke-width="2" stroke-linecap="round" stroke-linejoin="round"/>
<rect x="112.471" y="81" width="27" height="19" rx="5" stroke="#2B2727" stroke-width="2" stroke-linecap="round" stroke-linejoin="round"/>
<path d="M170.595 99.3894C169.418 100 167.877 100 164.794 100H155.805C152.723 100 151.182 100 150.005 99.3894C148.969 98.8522 148.127 97.9951 147.6 96.9408C147 95.7422 147 94.1732 147 91.0352V89.3543C147 86.2163 147 84.6473 147.6 83.4487" stroke="#2B2727" stroke-width="2" stroke-linecap="round" stroke-linejoin="round"/>
<line x1="191.489" y1="83.4109" x2="199.267" y2="91.1891" stroke="#2B2727" stroke-width="3" stroke-linecap="round"/>
<rect x="193.926" y="90.583" width="8" height="33" rx="4" transform="rotate(-45 193.926 90.583)" fill="#F9FAFC" stroke="#2B2727" stroke-width="3"/>
<circle cx="173.5" cy="62.5" r="26" fill="#F9FAFC" stroke="#2B2727" stroke-width="3"/>
<path d="M163 63C163 63 167 55 174 55C181 55 185 63 185 63C185 63 181 71 174 71C167 71 163 63 163 63Z" stroke="#2B2727" stroke-width="2" stroke-linecap="round" stroke-linejoin="round"/>
<path d="M174 66C175.657 66 177 64.6569 177 63C177 61.3431 175.657 60 174 60C172.343 60 171 61.3431 171 63C171 64.6569 172.343 66 174 66Z" stroke="#2B2727" stroke-width="2" stroke-linecap="round" stroke-linejoin="round"/>
<defs>
<clipPath id="clip0_909_11995">
<rect width="10.0111" height="10.0111" fill="white" transform="translate(41.7329 30.7518)"/>
</clipPath>
<clipPath id="clip1_909_11995">
<rect width="11.6329" height="11.6329" fill="white" transform="translate(78.4716 23.8456)"/>
</clipPath>
</defs>
</svg>
