<svg width="256" height="128" viewBox="0 0 256 128" fill="none" xmlns="http://www.w3.org/2000/svg">
<g clip-path="url(#clip0_1574_13093)">
<path d="M89.6 2.1333V49.0666" stroke="#2B2727" stroke-width="4" stroke-linecap="round" stroke-linejoin="round"/>
<path d="M100.267 10.6665H84.2667C82.2864 10.6665 80.3873 11.4532 78.987 12.8534C77.5867 14.2537 76.8 16.1529 76.8 18.1332C76.8 20.1135 77.5867 22.0126 78.987 23.4129C80.3873 24.8132 82.2864 25.5998 84.2667 25.5998H94.9334C96.9137 25.5998 98.8128 26.3865 100.213 27.7868C101.613 29.187 102.4 31.0862 102.4 33.0665C102.4 35.0468 101.613 36.946 100.213 38.3462C98.8128 39.7465 96.9137 40.5332 94.9334 40.5332H76.8" stroke="#2B2727" stroke-width="4" stroke-linecap="round" stroke-linejoin="round"/>
</g>
<path d="M185.6 34.1333V17.0666C185.599 16.3184 185.402 15.5835 185.027 14.9358C184.653 14.288 184.115 13.7501 183.467 13.376L168.533 4.84262C167.885 4.46814 167.149 4.271 166.4 4.271C165.651 4.271 164.915 4.46814 164.267 4.84262L149.333 13.376C148.685 13.7501 148.147 14.288 147.773 14.9358C147.398 15.5835 147.201 16.3184 147.2 17.0666V34.1333C147.201 34.8815 147.398 35.6164 147.773 36.2641C148.147 36.9119 148.685 37.4498 149.333 37.824L164.267 46.3573C164.915 46.7318 165.651 46.9289 166.4 46.9289C167.149 46.9289 167.885 46.7318 168.533 46.3573L183.467 37.824C184.115 37.4498 184.653 36.9119 185.027 36.2641C185.402 35.6164 185.599 34.8815 185.6 34.1333Z" stroke="#2B2727" stroke-width="4" stroke-linecap="round" stroke-linejoin="round"/>
<path d="M156.8 8.98145L166.4 14.5281L176 8.98145" stroke="#2B2727" stroke-width="4" stroke-linecap="round" stroke-linejoin="round"/>
<path d="M156.8 42.2188V31.1468L147.2 25.6001" stroke="#2B2727" stroke-width="4" stroke-linecap="round" stroke-linejoin="round"/>
<path d="M185.6 25.6001L176 31.1468V42.2188" stroke="#2B2727" stroke-width="4" stroke-linecap="round" stroke-linejoin="round"/>
<path d="M147.776 14.8481L166.4 25.6215L185.024 14.8481" stroke="#2B2727" stroke-width="4" stroke-linecap="round" stroke-linejoin="round"/>
<path d="M166.4 47.1041V25.6001" stroke="#2B2727" stroke-width="4" stroke-linecap="round" stroke-linejoin="round"/>
<path d="M89.6001 123.733C101.382 123.733 110.933 114.182 110.933 102.4C110.933 90.6177 101.382 81.0664 89.6001 81.0664C77.818 81.0664 68.2667 90.6177 68.2667 102.4C68.2667 114.182 77.818 123.733 89.6001 123.733Z" stroke="#2B2727" stroke-width="4" stroke-linecap="round" stroke-linejoin="round"/>
<path d="M89.6 89.5996V102.4L98.1333 106.666" stroke="#2B2727" stroke-width="4" stroke-linecap="round" stroke-linejoin="round"/>
<path d="M177.067 100.266L168.533 81.0664C166.836 81.0664 165.208 81.7407 164.008 82.9409C162.808 84.1412 162.133 85.769 162.133 87.4664V95.9997H150.059C149.44 95.9927 148.828 96.1203 148.263 96.3735C147.699 96.6268 147.196 96.9997 146.791 97.4664C146.385 97.9332 146.085 98.4826 145.913 99.0765C145.74 99.6705 145.699 100.295 145.792 100.906L148.736 120.106C148.89 121.124 149.407 122.051 150.191 122.718C150.975 123.384 151.974 123.745 153.003 123.733H177.067M177.067 100.266V123.733M177.067 100.266H183.467C184.598 100.266 185.683 100.716 186.484 101.516C187.284 102.316 187.733 103.401 187.733 104.533V119.466C187.733 120.598 187.284 121.683 186.484 122.483C185.683 123.284 184.598 123.733 183.467 123.733H177.067" stroke="#2B2727" stroke-width="4" stroke-linecap="round" stroke-linejoin="round"/>
<defs>
<clipPath id="clip0_1574_13093">
<rect width="51.2" height="51.2" fill="white" transform="translate(64)"/>
</clipPath>
</defs>
</svg>
