<svg width="256" height="128" viewBox="0 0 256 128" fill="none" xmlns="http://www.w3.org/2000/svg">
<path d="M177.429 64H159.571C157.599 64 156 65.567 156 67.5V95.5C156 97.433 157.599 99 159.571 99H177.429C179.401 99 181 97.433 181 95.5V67.5C181 65.567 179.401 64 177.429 64Z" fill="#F9FAFC"/>
<path d="M168.5 92H168.518M159.571 64H177.429C179.401 64 181 65.567 181 67.5V95.5C181 97.433 179.401 99 177.429 99H159.571C157.599 99 156 97.433 156 95.5V67.5C156 65.567 157.599 64 159.571 64Z" stroke="#2B2727" stroke-width="3" stroke-linecap="round" stroke-linejoin="round"/>
<path d="M240.875 29H198.125C194.19 29 191 32.134 191 36V92C191 95.866 194.19 99 198.125 99H240.875C244.81 99 248 95.866 248 92V36C248 32.134 244.81 29 240.875 29Z" fill="#F9FAFC"/>
<path d="M219.5 85H219.536M198.125 29H240.875C244.81 29 248 32.134 248 36V92C248 95.866 244.81 99 240.875 99H198.125C194.19 99 191 95.866 191 92V36C191 32.134 194.19 29 198.125 29Z" stroke="#2B2727" stroke-width="3" stroke-linecap="round" stroke-linejoin="round"/>
<path d="M111.645 75L108.936 77.6281L111.645 75ZM98.6276 87.6281C99.327 88.2976 99.883 89.0946 100.264 89.9734C100.644 90.8522 100.842 91.7953 100.845 92.7485C100.848 93.7017 100.657 94.646 100.283 95.5273C99.9083 96.4085 99.3578 97.2092 98.663 97.8832C97.9682 98.5572 97.1428 99.0912 96.2344 99.4545C95.326 99.8178 94.3524 100.003 93.3698 100C92.3872 99.9968 91.415 99.8051 90.5091 99.4359C89.6032 99.0667 88.7815 98.5273 88.0914 97.8488C86.7343 96.4857 85.9833 94.6601 86.0003 92.7651C86.0173 90.8701 86.8008 89.0574 88.1822 87.7174C89.5635 86.3774 91.4322 85.6173 93.3856 85.6009C95.3391 85.5844 97.2211 86.3129 98.6262 87.6294L98.6276 87.6281ZM98.6276 87.6281L104.195 82.2273L98.6276 87.6281ZM104.195 82.2273L108.259 86.1695L113 81.5703L108.936 77.6281M104.195 82.2273L108.936 77.6281L104.195 82.2273Z" fill="#F9FAFC"/>
<path d="M111.645 75L108.936 77.6281M108.936 77.6281L113 81.5703L108.259 86.1695L104.195 82.2273M108.936 77.6281L104.195 82.2273M98.6276 87.6281C99.327 88.2976 99.883 89.0946 100.264 89.9734C100.644 90.8522 100.842 91.7953 100.845 92.7485C100.848 93.7017 100.657 94.646 100.283 95.5273C99.9083 96.4085 99.3578 97.2092 98.663 97.8832C97.9682 98.5572 97.1428 99.0912 96.2344 99.4545C95.326 99.8178 94.3524 100.003 93.3698 100C92.3872 99.9968 91.415 99.8051 90.5091 99.4359C89.6032 99.0667 88.7815 98.5273 88.0914 97.8488C86.7343 96.4857 85.9833 94.6601 86.0003 92.7651C86.0173 90.8701 86.8008 89.0574 88.1822 87.7174C89.5635 86.3774 91.4322 85.6173 93.3856 85.6009C95.3391 85.5844 97.2211 86.3129 98.6262 87.6294L98.6276 87.6281ZM98.6276 87.6281L104.195 82.2273" stroke="#2B2727" stroke-width="3" stroke-linecap="round" stroke-linejoin="round"/>
<path d="M14.21 73.0119L8 85.5V96.375C8 97.3364 8.37928 98.2584 9.05442 98.9383C9.72955 99.6181 10.6452 100 11.6 100H40.4C41.3548 100 42.2705 99.6181 42.9456 98.9383C43.6207 98.2584 44 97.3364 44 96.375V85.5L37.79 73.0119C37.492 72.4079 37.0325 71.8997 36.4633 71.5443C35.8941 71.1888 35.2378 71.0004 34.568 71H17.432C16.7622 71.0004 16.1059 71.1888 15.5367 71.5443C14.9675 71.8997 14.508 72.4079 14.21 73.0119Z" fill="#F9FAFC"/>
<path d="M44 85.5H8M44 85.5V96.375C44 97.3364 43.6207 98.2584 42.9456 98.9383C42.2705 99.6181 41.3548 100 40.4 100H11.6C10.6452 100 9.72955 99.6181 9.05442 98.9383C8.37928 98.2584 8 97.3364 8 96.375V85.5M44 85.5L37.79 73.0119C37.492 72.4079 37.0325 71.8997 36.4633 71.5443C35.8941 71.1888 35.2378 71.0004 34.568 71H17.432C16.7622 71.0004 16.1059 71.1888 15.5367 71.5443C14.9675 71.8997 14.508 72.4079 14.21 73.0119L8 85.5M15.2 92.75H15.2186M22.4 92.75H22.4186" stroke="#2B2727" stroke-width="3" stroke-linecap="round" stroke-linejoin="round"/>
<path d="M53 92.5H77" stroke="#2B2727" stroke-width="3" stroke-linecap="round" stroke-dasharray="1 6"/>
<path d="M109 93L146 93" stroke="#2B2727" stroke-width="3" stroke-linecap="round" stroke-dasharray="1 6"/>
</svg>
