<svg width="256" height="128" viewBox="0 0 256 128" fill="none" xmlns="http://www.w3.org/2000/svg">
<path d="M122.362 38.601L112.497 58.4289H144.369V28.6871C144.369 23.1105 137.218 10.5529 124.639 9.76807V17.947L110.979 25.3825C107.916 26.7624 107.238 27.4792 107.185 28.6871V34.4702C107.217 37.6621 108.068 38.5274 110.979 38.601H122.362Z" fill="#F9FAFC" stroke="#2B2727" stroke-width="3" stroke-linecap="round" stroke-linejoin="round"/>
<rect x="104.324" y="56.8591" width="47.1957" height="17.2667" rx="4" fill="#F9FAFC" stroke="#2B2727" stroke-width="3" stroke-linecap="round" stroke-linejoin="round"/>
<path d="M74.8578 63H82.4089C85.0917 63 87.2666 65.1492 87.2666 67.8004L87.2666 70.1095H133.311C139.816 70.4159 142.604 72.0812 145.541 78.6409L152.736 93.5708C154.01 96.2658 155.066 101.232 152.016 103.524C148.967 105.816 144.045 106.368 140.505 99.9694C144.045 106.368 142.122 110.076 139 112.055C135.878 114.035 131.5 113 127.555 106.368C131.5 113 129.647 115.61 126.769 117.743C123.892 119.876 118.203 117.743 115.325 112.055C118.203 117.743 117.168 121.678 113.819 123.431C110.471 125.183 107 124.5 103.094 117.743L94.461 101.391H87.2666L87.2666 102.278C87.2666 104.93 85.0917 107.079 82.4089 107.079H74.8578C72.1749 107.079 70 104.93 70 102.278V67.8004C70 65.1492 72.1749 63 74.8578 63Z" fill="#F9FAFC"/>
<path d="M87.2666 102.278C87.2666 104.93 85.0917 107.079 82.4089 107.079H74.8578C72.1749 107.079 70 104.93 70 102.278V67.8004C70 65.1492 72.1749 63 74.8578 63H82.4089C85.0917 63 87.2666 65.1492 87.2666 67.8004M87.2666 102.278V85.0394M87.2666 102.278L87.2666 101.391H94.461L103.094 117.743C107 124.5 110.471 125.183 113.819 123.431C117.168 121.678 118.203 117.743 115.325 112.055C118.203 117.743 123.892 119.876 126.769 117.743C129.647 115.61 131.5 113 127.555 106.368C131.5 113 135.878 114.035 139 112.055C142.122 110.076 144.045 106.368 140.505 99.9694C144.045 106.368 148.967 105.816 152.016 103.524C155.066 101.232 154.01 96.2658 152.736 93.5708L145.541 78.6409C142.604 72.0812 139.816 70.4159 133.311 70.1095H87.2666L87.2666 67.8004M87.2666 67.8004V76.4199" stroke="#2B2727" stroke-width="3" stroke-linecap="round" stroke-linejoin="round"/>
<path d="M169.623 63H177.155C179.831 63 182 65.1454 182 67.7918V102.208C182 104.855 179.831 107 177.155 107H169.623C166.947 107 164.778 104.855 164.778 102.208V101.322H156.014L144.927 77.3011L129.617 77.1935L121.156 88.1359C119.063 90.8497 112.845 92.5276 110.242 90.6773C107.639 88.827 105.688 85.2778 108.089 81.4515L118.136 67.9677C121.158 65.1067 123.288 64.0816 128.182 63.7096H147.556C150.489 64.2864 154.711 67.7957 156.167 70.0967H164.778V67.7918C164.778 65.1454 166.947 63 169.623 63Z" fill="#F9FAFC"/>
<path d="M164.778 102.208C164.778 104.855 166.947 107 169.623 107H177.155C179.831 107 182 104.855 182 102.208V67.7918C182 65.1454 179.831 63 177.155 63H169.623C166.947 63 164.778 65.1454 164.778 67.7918V70.0967M164.778 102.208V85M164.778 102.208V101.322H156.014L144.927 77.3011L129.617 77.1935L121.156 88.1359C119.063 90.8497 112.845 92.5276 110.242 90.6773C107.639 88.827 105.688 85.2778 108.089 81.4515L118.136 67.9677C121.158 65.1067 123.288 64.0816 128.182 63.7096H147.556C150.489 64.2864 154.711 67.7957 156.167 70.0967H164.778M164.778 76.3959V70.0967" stroke="#2B2727" stroke-width="3" stroke-linecap="round" stroke-linejoin="round"/>
</svg>
