<svg width="256" height="128" viewBox="0 0 256 128" fill="none" xmlns="http://www.w3.org/2000/svg">
<path d="M141.823 105.863C139.804 103.844 139.804 100.571 141.823 98.5525L163.753 76.6223C165.771 74.6037 169.044 74.6037 171.063 76.6223L173.804 79.3636C175.823 81.3822 175.823 84.655 173.804 86.6736L151.874 108.604C149.855 110.622 146.583 110.622 144.564 108.604L141.823 105.863Z" fill="#F9FAFC"/>
<path d="M119.892 76.6223L141.823 54.6922L163.753 76.6223L141.823 98.5525L119.892 76.6223Z" fill="#F9FAFC"/>
<path d="M163.753 76.6223L141.823 98.5525M163.753 76.6223C165.771 74.6037 169.044 74.6037 171.063 76.6223L173.804 79.3636C175.823 81.3822 175.823 84.655 173.804 86.6736L151.874 108.604C149.855 110.622 146.583 110.622 144.564 108.604L141.823 105.863C139.804 103.844 139.804 100.571 141.823 98.5525M163.753 76.6223L141.823 54.6922L119.892 76.6223L141.823 98.5525" stroke="#2B2727" stroke-width="3"/>
<path d="M86.0834 76.6223C88.102 74.6036 91.3749 74.6036 93.3935 76.6223L113.496 96.7249C115.515 98.7435 115.515 102.016 113.496 104.035L110.755 106.776C108.736 108.795 105.463 108.795 103.445 106.776L83.3422 86.6736C81.3235 84.655 81.3235 81.3821 83.3422 79.3635L86.0834 76.6223Z" fill="#F9FAFC"/>
<path d="M134.513 33.6757C136.531 31.6571 139.804 31.6571 141.823 33.6757C143.841 35.6943 143.841 38.9671 141.823 40.9857L139.995 42.8133C142.014 40.7946 145.287 40.7946 147.305 42.8133C149.324 44.8319 149.324 48.1047 147.305 50.1233L145.478 51.9508C147.496 49.9322 150.769 49.9322 152.788 51.9508C154.806 53.9694 154.806 57.2423 152.788 59.2609L150.96 61.0884C152.979 59.0698 156.252 59.0698 158.27 61.0884C160.289 63.107 160.289 66.3798 158.27 68.3984L140.909 85.7598C139.706 86.9624 136.34 87.5873 136.34 87.5873C136.34 87.5873 133.452 87.8839 131.771 87.5873C124.004 86.2167 121.72 88.5011 119.436 90.7855L113.496 96.7249L92.4797 75.7085L134.513 33.6757Z" fill="#F9FAFC"/>
<path d="M113.496 96.7249L93.3935 76.6223C91.3749 74.6036 88.102 74.6036 86.0834 76.6223L83.3422 79.3635C81.3235 81.3821 81.3235 84.655 83.3422 86.6736L103.445 106.776C105.463 108.795 108.736 108.795 110.755 106.776L113.496 104.035C115.515 102.016 115.515 98.7435 113.496 96.7249ZM113.496 96.7249L119.436 90.7855C121.72 88.5011 124.004 86.2167 131.771 87.5873C133.452 87.8839 136.34 87.5873 136.34 87.5873C136.34 87.5873 139.706 86.9624 140.909 85.7598L158.27 68.3984C160.289 66.3798 160.289 63.107 158.27 61.0884C156.252 59.0698 152.979 59.0698 150.96 61.0884L152.788 59.2609C154.806 57.2423 154.806 53.9694 152.788 51.9508C150.769 49.9322 147.496 49.9322 145.478 51.9508L147.305 50.1233C149.324 48.1047 149.324 44.8319 147.305 42.8133C145.287 40.7946 142.014 40.7946 139.995 42.8133L141.823 40.9857C143.841 38.9671 143.841 35.6943 141.823 33.6757C139.804 31.6571 136.531 31.6571 134.513 33.6757L92.4797 75.7085L113.496 96.7249Z" stroke="#2B2727" stroke-width="3" stroke-linejoin="round"/>
<path d="M106.186 39.158C108.205 37.1394 111.478 37.1394 113.496 39.158L124.461 50.1231C126.48 52.1417 126.48 55.4145 124.461 57.4331C122.443 59.4517 119.17 59.4517 117.151 57.4331L106.186 46.468C104.168 44.4494 104.168 41.1766 106.186 39.158Z" fill="#F9FAFC"/>
<path d="M102.531 50.1231C104.55 48.1044 107.823 48.1044 109.841 50.1231L117.151 57.4331C119.17 59.4517 119.17 62.7245 117.151 64.7432C115.133 66.7618 111.86 66.7618 109.841 64.7432L102.531 57.4331C100.513 55.4145 100.513 52.1417 102.531 50.1231Z" fill="#F9FAFC"/>
<path d="M98.8762 61.0881C100.895 59.0695 104.168 59.0695 106.186 61.0881L109.841 64.7432C111.86 66.7618 111.86 70.0346 109.841 72.0532C107.823 74.0718 104.55 74.0718 102.531 72.0532L98.8762 68.3982C96.8576 66.3796 96.8576 63.1067 98.8762 61.0881Z" fill="#F9FAFC"/>
<path d="M115.324 33.6754C117.342 31.6568 120.615 31.6568 122.634 33.6754L131.771 42.813C133.79 44.8316 133.79 48.1044 131.771 50.1231C129.753 52.1417 126.48 52.1417 124.461 50.1231L115.324 40.9855C113.305 38.9669 113.305 35.694 115.324 33.6754Z" fill="#F9FAFC"/>
<path d="M117.151 57.4331L106.186 46.468C104.168 44.4494 104.168 41.1766 106.186 39.158C108.205 37.1394 111.478 37.1394 113.496 39.158L124.461 50.1231M117.151 57.4331C119.17 59.4517 122.443 59.4517 124.461 57.4331C126.48 55.4145 126.48 52.1417 124.461 50.1231M117.151 57.4331L109.841 50.1231C107.823 48.1044 104.55 48.1044 102.531 50.1231C100.513 52.1417 100.513 55.4145 102.531 57.4331L109.841 64.7432M117.151 57.4331C119.17 59.4517 119.17 62.7245 117.151 64.7432C115.133 66.7618 111.86 66.7618 109.841 64.7432M124.461 50.1231L115.324 40.9855C113.305 38.9669 113.305 35.694 115.324 33.6754C117.342 31.6568 120.615 31.6568 122.634 33.6754L131.771 42.813C133.79 44.8316 133.79 48.1044 131.771 50.1231C129.753 52.1417 126.48 52.1417 124.461 50.1231ZM109.841 64.7432L106.186 61.0881C104.168 59.0695 100.895 59.0695 98.8762 61.0881C96.8576 63.1067 96.8576 66.3796 98.8762 68.3982L102.531 72.0532C104.55 74.0718 107.823 74.0718 109.841 72.0532C111.86 70.0346 111.86 66.7618 109.841 64.7432Z" stroke="#2B2727" stroke-width="3"/>
<path d="M123.547 30.0204L135.883 32.3048L128.573 39.6149C126.746 39.6149 123.73 39.8891 121.263 36.8736C117.974 32.8531 121.263 29.5635 123.547 30.0204Z" fill="#F9FAFC"/>
<path d="M135.883 32.3048L136.944 33.3654C137.338 32.9715 137.481 32.3918 137.316 31.8598C137.151 31.3279 136.704 30.9313 136.156 30.8298L135.883 32.3048ZM123.547 30.0204L123.253 31.4912L123.264 31.4933L123.274 31.4953L123.547 30.0204ZM121.263 36.8736L122.424 35.9237L121.263 36.8736ZM128.573 39.6149L128.573 41.1149L129.194 41.1149L129.634 40.6756L128.573 39.6149ZM136.156 30.8298L123.821 28.5454L123.274 31.4953L135.61 33.7797L136.156 30.8298ZM123.842 28.5495C121.934 28.168 119.947 29.3222 119 31.0456C117.959 32.9405 118.14 35.4248 120.102 37.8234L122.424 35.9237C121.097 34.3019 121.278 33.1311 121.63 32.4903C122.076 31.678 122.876 31.4159 123.253 31.4912L123.842 28.5495ZM120.102 37.8234C123.08 41.4629 126.853 41.1149 128.573 41.1149L128.573 38.1149C126.638 38.1149 124.381 38.3152 122.424 35.9237L120.102 37.8234ZM129.634 40.6756L136.944 33.3654L134.823 31.2441L127.512 38.5542L129.634 40.6756Z" fill="#2B2727"/>
<path d="M113.496 24.9816L105.272 16.7578M144.564 24.9816L152.788 16.7578M129.363 18.9179L129.363 7.28772" stroke="#2B2727" stroke-width="3" stroke-linecap="round"/>
</svg>
