<svg width="256" height="128" viewBox="0 0 256 128" fill="none" xmlns="http://www.w3.org/2000/svg">
<path fill-rule="evenodd" clip-rule="evenodd" d="M128 111C153.957 111 175 89.9574 175 64C175 38.0426 153.957 17 128 17C102.043 17 81 38.0426 81 64C81 89.9574 102.043 111 128 111ZM112.098 79.3376C106.973 68.3255 105.991 59.1054 112.929 51.8741C117.261 47.3583 120.491 45.6883 131.525 42.9888C135.92 41.9063 141.031 39.1832 142.831 36.9501C144.477 34.4871 146.152 34.5 146.984 36.9501C151.456 50.1128 151.003 62.2637 146.984 71.7291C142.088 80.5872 135.168 82.9247 128.71 84.9919C123.727 86.6073 120.954 84.2103 122.5 80.5C124.666 75.3014 129.092 71.5229 134.897 66.5677C135.792 65.8038 136.72 65.0119 137.677 64.1825C140.167 61.7592 136.976 57.8692 133.525 60.9516C116.436 76.2134 114.68 82.3237 111.267 94.6849C110.251 98.365 106.283 97.3303 107.113 93.8771C108.484 88.1779 109.549 85.5731 111.521 80.752C111.705 80.3014 111.897 79.8314 112.098 79.3376Z" fill="#F9FAFC"/>
</svg>
