<svg width="256" height="256" viewBox="0 0 256 256" fill="none" xmlns="http://www.w3.org/2000/svg">
<rect x="121.684" y="18" width="13.6929" height="17.3444" rx="2" fill="#F9FAFC" stroke="#2B2727" stroke-width="6" stroke-linecap="round" stroke-linejoin="round"/>
<rect x="116.208" y="212.44" width="23.7344" height="25.5601" rx="2" fill="#F9FAFC" stroke="#2B2727" stroke-width="6" stroke-linecap="round" stroke-linejoin="round"/>
<path d="M150.585 60.8345L142.4 31.6929H113.75L105.564 60.8345L66 75.8606L82.8261 144.616C72.1616 160.848 70.0701 179.999 69.1833 221.568H121.481H134.669H186.966C186.079 179.999 183.988 160.848 173.323 144.616L190.149 75.8606L150.585 60.8345Z" fill="#F9FAFC"/>
<path d="M121.481 221.568H186.966C186.797 213.649 186.584 206.543 186.277 200.116M134.669 221.568H69.1833C70.0701 179.999 72.1616 160.848 82.8261 144.616L66 75.8606L105.564 60.8345L113.75 31.6929H142.4L150.585 60.8345L190.149 75.8606L173.323 144.616C178.595 152.641 181.772 161.379 183.744 173.187" stroke="#2B2727" stroke-width="6" stroke-linecap="round" stroke-linejoin="round"/>
<path d="M154.544 92.6627C151.835 92.6627 149.578 94.5773 149.032 97.1247C148.978 97.3755 148.937 97.6311 148.916 97.8921C148.897 98.1242 149.087 98.3133 149.319 98.3133H150.856C151.089 98.3133 151.274 98.1236 151.306 97.8929C151.342 97.6255 151.411 97.3686 151.507 97.1247C151.982 95.9075 153.159 95.0436 154.544 95.0437C156.348 95.0437 157.81 96.5071 157.81 98.3133C157.81 100.119 156.348 101.583 154.544 101.583H140.887C140.617 101.583 140.417 101.834 140.486 102.096C140.629 102.644 140.802 103.18 141.006 103.7C141.068 103.858 141.222 103.96 141.391 103.96H154.544C157.66 103.96 160.185 101.433 160.185 98.3133C160.185 95.1936 157.66 92.6627 154.544 92.6627Z" fill="#F9FAFC"/>
<path d="M154.544 88.2044C149.369 88.2044 145.107 92.1034 144.518 97.1247C144.489 97.3783 144.466 97.6336 144.454 97.8917C144.444 98.1244 144.633 98.3133 144.865 98.3133H146.399C146.631 98.3133 146.818 98.1243 146.833 97.8919C146.85 97.6327 146.88 97.3774 146.919 97.1247C147.492 93.4215 150.684 90.5816 154.544 90.5816C158.809 90.5816 162.264 94.0442 162.264 98.3133C162.264 102.582 158.809 106.041 154.544 106.041H142.958C142.628 106.041 142.428 106.404 142.617 106.676C143.014 107.246 143.449 107.786 143.922 108.292C144 108.376 144.11 108.422 144.224 108.422H154.544C160.121 108.422 164.643 103.896 164.643 98.3133C164.643 92.7306 160.121 88.2044 154.544 88.2044Z" fill="#F9FAFC"/>
<path d="M154.544 83.7831C150.022 83.7831 145.982 85.8443 143.312 89.082C143.025 89.4301 142.753 89.7928 142.499 90.1669C142.482 90.1914 142.467 90.2164 142.451 90.2409C142.222 90.5822 142.01 90.9354 141.81 91.2964C141.775 91.36 141.737 91.4209 141.703 91.4851C141.528 91.8124 141.372 92.1508 141.222 92.4923C141.178 92.5941 141.131 92.6967 141.089 92.7997C140.973 93.0817 140.87 93.3682 140.771 93.6588C140.709 93.8436 140.645 94.0298 140.59 94.2179C140.531 94.4169 140.485 94.6191 140.434 94.8215C140.367 95.0954 140.297 95.3674 140.246 95.6472C140.222 95.7734 140.211 95.905 140.19 96.0323C140.135 96.3855 140.083 96.7412 140.053 97.1025C140.053 97.11 140.05 97.1171 140.05 97.1247C140.029 97.3793 140.01 97.6345 140 97.8917C139.99 98.1244 140.179 98.3133 140.411 98.3133H141.945C142.177 98.3133 142.365 98.1244 142.373 97.8917C142.382 97.6341 142.4 97.3789 142.425 97.1247C143.023 90.9515 148.22 86.1233 154.544 86.1233C161.269 86.1233 166.722 91.5812 166.722 98.3133C166.722 105.045 161.269 110.503 154.544 110.503H147.927C147.51 110.503 147.363 111.023 147.731 111.218C149.558 112.186 151.616 112.77 153.8 112.881H154.544C162.079 112.881 168.274 107.148 169.019 99.8019C169.068 99.3244 169.096 98.8405 169.097 98.3504C169.097 97.8475 169.069 97.3478 169.019 96.8581C168.274 89.5121 162.079 83.7831 154.544 83.7831Z" fill="#F9FAFC"/>
<path d="M165.958 171.361H150.896V61.8174L146.332 45.8423L165.958 54.0581V171.361Z" fill="#F9FAFC" stroke="#2B2727" stroke-width="5" stroke-linecap="round" stroke-linejoin="round"/>
<path d="M160.025 61.8173H165.502M160.025 80.0746H165.502M160.025 98.3318H165.502M160.025 116.589H165.502M160.025 134.846H165.502M160.025 153.104H165.502" stroke="#2B2727" stroke-width="6" stroke-linecap="round"/>
<path d="M106.622 204.68H92.0164V54.5143L109.361 47.2114L106.622 56.7964V204.68Z" fill="#F9FAFC"/>
<path d="M92.4728 189.618H106.166M106.622 179.12V204.68H92.0164V54.5143L109.361 47.2114L106.622 56.7964V164.971" stroke="#2B2727" stroke-width="5" stroke-linecap="round" stroke-linejoin="round"/>
<path d="M92.473 61.8173H97.9502M92.473 80.0746H97.9502M92.473 98.3318H97.9502M92.473 116.589H97.9502M92.473 134.846H97.9502M92.473 153.104H97.9502M92.473 171.361H97.9502" stroke="#2B2727" stroke-width="6" stroke-linecap="round"/>
</svg>
