<svg width="256" height="128" viewBox="0 0 256 128" fill="none" xmlns="http://www.w3.org/2000/svg">
<path d="M190 97C190 95.3431 191.343 94 193 94H228V100H193C191.343 100 190 98.6569 190 97V97Z" fill="#F9FAFC" stroke="#2B2727" stroke-width="3"/>
<path d="M189 78H195V96C195 97.6569 193.657 99 192 99V99C190.343 99 189 97.6569 189 96V78Z" fill="#F9FAFC" stroke="#2B2727" stroke-width="3"/>
<circle cx="191.413" cy="76.7002" r="6.04005" fill="#F9FAFC" stroke="#2B2727" stroke-width="3"/>
<circle cx="191.856" cy="96.6592" r="4.70945" fill="#F9FAFC" stroke="#2B2727" stroke-width="3"/>
<path d="M221 92.7143C221 91.1207 221 90.324 221.15 89.6649C221.663 87.4179 223.418 85.6633 225.665 85.1504C226.324 85 227.121 85 228.714 85V85C228.98 85 229.113 85 229.223 85.0251C229.597 85.1105 229.889 85.403 229.975 85.7775C230 85.8873 230 86.0201 230 86.2857V107.714C230 107.98 230 108.113 229.975 108.223C229.889 108.597 229.597 108.889 229.223 108.975C229.113 109 228.98 109 228.714 109V109C227.121 109 226.324 109 225.665 108.85C223.418 108.337 221.663 106.582 221.15 104.335C221 103.676 221 102.879 221 101.286V92.7143Z" fill="#F9FAFC" stroke="#2B2727" stroke-width="3"/>
<path d="M149.065 70.5907C148.843 69.3426 148.76 68.8589 148.742 68.4639C148.603 65.5161 150.469 62.8452 153.283 61.9594C153.661 61.8407 154.143 61.7518 155.391 61.53L157.966 61.0725L160.7 76.4599L158.125 76.9174C156.877 77.1392 156.393 77.2219 155.998 77.2404C153.051 77.3785 150.38 75.5135 149.494 72.6985C149.375 72.3213 149.286 71.8387 149.065 70.5907Z" fill="#F9FAFC" stroke="#2B2727" stroke-width="3"/>
<path d="M156.199 65.1079C155.901 63.4293 155.694 62.2589 155.607 61.3347C155.521 60.428 155.566 59.8903 155.695 59.4662C155.972 58.557 156.529 57.7588 157.287 57.1859C157.641 56.9186 158.13 56.6913 159.011 56.4595C159.909 56.2232 161.079 56.0141 162.757 55.7159L199.75 49.1434C201.429 48.8451 202.599 48.6384 203.523 48.551C204.43 48.4652 204.968 48.5101 205.392 48.6391C206.301 48.9158 207.099 49.4732 207.672 50.2314C207.939 50.5851 208.167 51.0744 208.399 51.9552C208.635 52.853 208.844 54.0229 209.142 55.7015L210.749 64.746C211.047 66.4246 211.254 67.5949 211.342 68.5191C211.427 69.4259 211.382 69.9636 211.253 70.3877C210.977 71.2968 210.419 72.0951 209.661 72.668C209.307 72.9352 208.818 73.1626 207.937 73.3944C207.039 73.6307 205.87 73.8398 204.191 74.138L167.198 80.7105C165.52 81.0087 164.349 81.2155 163.425 81.3029C162.518 81.3887 161.981 81.3438 161.556 81.2147C160.647 80.9381 159.849 80.3807 159.276 79.6225C159.009 79.2688 158.781 78.7795 158.55 77.8987C158.313 77.0009 158.104 75.831 157.806 74.1523L156.199 65.1079Z" fill="#F9FAFC" stroke="#2B2727" stroke-width="3"/>
<path d="M146.893 55.4681C146.464 54.4898 146.183 53.8458 146.013 53.3433C145.847 52.8517 145.849 52.6606 145.86 52.577C145.907 52.2144 146.085 51.8814 146.36 51.6407C146.424 51.5852 146.581 51.4778 147.082 51.3424C147.594 51.204 148.286 51.0798 149.338 50.8929L203.235 41.317C204.086 41.1657 204.636 41.0692 205.061 41.029C205.468 40.9905 205.626 41.0198 205.706 41.044C206.009 41.1362 206.275 41.322 206.466 41.5747C206.516 41.6411 206.598 41.78 206.703 42.1754C206.811 42.5878 206.91 43.1374 207.061 43.9889L208.64 52.878C208.792 53.7295 208.888 54.2795 208.928 54.704C208.967 55.1111 208.938 55.2697 208.914 55.3493C208.821 55.6524 208.636 55.9185 208.383 56.1094C208.316 56.1596 208.177 56.2417 207.782 56.3457C207.37 56.4543 206.82 56.5531 205.969 56.7044L154.225 65.8977C152.758 66.1583 152.459 66.182 152.235 66.131C151.974 66.0714 151.733 65.9427 151.538 65.7585C151.371 65.6007 151.225 65.3388 150.626 63.9746L146.893 55.4681Z" fill="#F9FAFC" stroke="#2B2727" stroke-width="3"/>
<g clip-path="url(#clip0_571_29255)">
<path d="M193.251 48.5797C192.336 48.7421 191.689 49.524 191.657 50.417C191.654 50.5049 191.655 50.5936 191.664 50.683C191.671 50.7625 191.747 50.815 191.825 50.8011L192.344 50.7089C192.423 50.695 192.474 50.6198 192.471 50.54C192.467 50.4475 192.475 50.3566 192.493 50.2685C192.58 49.829 192.926 49.4667 193.393 49.3837C194.003 49.2755 194.584 49.682 194.693 50.2919C194.801 50.9018 194.395 51.4837 193.786 51.5919L189.174 52.4108C189.083 52.427 189.03 52.5239 189.069 52.6082C189.151 52.7846 189.241 52.9552 189.341 53.1187C189.372 53.1684 189.43 53.1936 189.487 53.1834L193.928 52.3947C194.981 52.2078 195.682 51.203 195.495 50.1495C195.307 49.096 194.303 48.3928 193.251 48.5797Z" fill="#2B2727"/>
<path d="M192.983 47.0742C191.236 47.3845 190.031 48.9567 190.133 50.6876C190.138 50.775 190.146 50.8626 190.157 50.9505C190.168 51.0297 190.243 51.0821 190.321 51.0682L190.839 50.9762C190.918 50.9623 190.969 50.8872 190.961 50.8079C190.951 50.7193 190.946 50.6313 190.944 50.5436C190.915 49.2588 191.822 48.1084 193.126 47.8769C194.566 47.6212 195.941 48.5832 196.197 50.0248C196.453 51.4664 195.493 52.8416 194.053 53.0974L190.141 53.7922C190.029 53.812 189.984 53.9465 190.064 54.0269C190.232 54.1955 190.411 54.3519 190.601 54.4943C190.632 54.518 190.672 54.5271 190.711 54.5203L194.196 53.9014C196.079 53.567 197.335 51.7674 197 49.8822C196.665 47.997 194.867 46.7397 192.983 47.0742Z" fill="#2B2727"/>
<path d="M192.718 45.5812C191.191 45.8523 189.951 46.7906 189.243 48.044C189.167 48.1788 189.097 48.3176 189.034 48.4592C189.029 48.4685 189.026 48.4778 189.022 48.4871C188.965 48.6161 188.915 48.748 188.869 48.8819C188.861 48.9055 188.852 48.9283 188.844 48.952C188.805 49.073 188.772 49.1967 188.742 49.321C188.733 49.358 188.724 49.3955 188.716 49.4328C188.693 49.535 188.676 49.6379 188.66 49.7419C188.65 49.8081 188.639 49.8748 188.632 49.9416C188.624 50.0123 188.621 50.0834 188.616 50.1548C188.609 50.2513 188.602 50.3473 188.601 50.4449C188.601 50.4889 188.605 50.5341 188.606 50.5783C188.608 50.7009 188.612 50.8241 188.624 50.9479C188.624 50.9504 188.624 50.953 188.624 50.9556C188.632 51.0428 188.641 51.1301 188.653 51.2176C188.664 51.2968 188.739 51.3492 188.817 51.3353L189.335 51.2433C189.414 51.2294 189.466 51.1543 189.454 51.0752C189.442 50.9877 189.433 50.9005 189.426 50.8132C189.258 48.6927 190.723 46.7507 192.858 46.3714C195.13 45.9681 197.298 47.4842 197.702 49.7575C198.106 52.0308 196.592 54.2008 194.321 54.6041L192.086 55.0009C191.945 55.0259 191.927 55.2103 192.063 55.2542C192.738 55.4713 193.468 55.5451 194.212 55.4515L194.463 55.4069C197.008 54.955 198.756 52.6477 198.567 50.1224C198.555 49.9582 198.535 49.7931 198.506 49.6276C198.476 49.4578 198.437 49.2907 198.39 49.1283C197.698 46.6924 195.263 45.1293 192.718 45.5812Z" fill="#2B2727"/>
</g>
<path d="M151.607 42L137.489 44.7288C135.665 45.0814 134.597 46.9907 135.251 48.7299L140.226 61.9636C140.796 63.4815 139.946 65.1418 138.958 66.4274C137.03 68.9345 137.101 73.1922 138.5 77.5556C140.29 83.1398 142.196 85.0405 145.326 85.5313C146.593 85.73 147.716 86.5027 148.226 87.6791C149.609 90.867 151.401 92.3907 155.75 91.9143L163 90.7799" stroke="#2B2727" stroke-width="3" stroke-linecap="round" stroke-linejoin="round"/>
<path d="M153.72 33L127.365 38.3747C125.585 38.7377 124.533 40.5877 125.132 42.3032L132.234 62.6412C132.611 63.7217 132.315 64.9052 131.623 65.8166C128.566 69.8401 128.453 74.7691 130.869 81.4872C132.631 86.3868 135.176 91.8152 139.525 92.9574C140.559 93.2292 141.555 93.7527 142.144 94.6453C145.264 99.3699 149.228 102.231 153.72 101.985L170 99.6698" stroke="#2B2727" stroke-width="3" stroke-linecap="round" stroke-linejoin="round"/>
<path fill-rule="evenodd" clip-rule="evenodd" d="M70.5518 24.7016C72.1086 21.266 76.2016 19.8029 79.5835 21.4731C82.9655 23.1432 84.2918 27.2825 82.5102 30.6071L53.2718 85.1684C52.4708 86.6631 50.9604 87.5415 49.3733 87.6008L40.6703 105.224L42.0343 105.898C43.0853 106.417 43.5165 107.689 42.9975 108.74C42.4785 109.791 41.2058 110.223 40.1548 109.704L33.4943 106.414C32.4433 105.895 32.0121 104.623 32.5311 103.572C33.0501 102.521 34.3228 102.089 35.3738 102.608L36.3564 103.094L45.1748 85.2366C44.4866 84.0005 44.3756 82.467 45.0021 81.0845L70.5518 24.7016Z" fill="#F9FAFC"/>
<path d="M70.5518 24.7016L69.1855 24.0825L70.5518 24.7016ZM82.5102 30.6071L81.188 29.8986L81.188 29.8986L82.5102 30.6071ZM53.2718 85.1684L51.9497 84.4599L53.2718 85.1684ZM49.3733 87.6008L49.3173 86.1018L48.4241 86.1352L48.0283 86.9366L49.3733 87.6008ZM40.6703 105.224L39.3254 104.56L38.6612 105.905L40.0062 106.569L40.6703 105.224ZM42.0343 105.898L41.3701 107.242L42.0343 105.898ZM35.3738 102.608L34.7096 103.953L35.3738 102.608ZM36.3564 103.094L35.6922 104.439L37.0371 105.103L37.7013 103.758L36.3564 103.094ZM45.1748 85.2366L46.5197 85.9007L46.8683 85.1948L46.4854 84.507L45.1748 85.2366ZM45.0021 81.0845L46.3684 81.7036L45.0021 81.0845ZM80.2477 20.1281C76.1054 18.0825 71.0923 19.8746 69.1855 24.0825L71.9181 25.3208C73.1249 22.6575 76.2977 21.5234 78.9193 22.818L80.2477 20.1281ZM83.8323 31.3156C86.0144 27.2436 84.39 22.1737 80.2477 20.1281L78.9193 22.818C81.541 24.1127 82.5691 27.3214 81.188 29.8986L83.8323 31.3156ZM54.5939 85.8769L83.8323 31.3156L81.188 29.8986L51.9497 84.4599L54.5939 85.8769ZM49.4293 89.0997C51.5283 89.0213 53.5317 87.8591 54.5939 85.8769L51.9497 84.4599C51.4099 85.4671 50.3924 86.0617 49.3173 86.1018L49.4293 89.0997ZM42.0153 105.888L50.7182 88.2649L48.0283 86.9366L39.3254 104.56L42.0153 105.888ZM40.0062 106.569L41.3701 107.242L42.6985 104.553L41.3345 103.879L40.0062 106.569ZM41.3701 107.242C41.6783 107.395 41.8048 107.768 41.6526 108.076L44.3424 109.404C45.2283 107.611 44.4922 105.438 42.6985 104.553L41.3701 107.242ZM41.6526 108.076C41.5004 108.384 41.1271 108.511 40.8189 108.359L39.4906 111.048C41.2844 111.934 43.4566 111.198 44.3424 109.404L41.6526 108.076ZM40.8189 108.359L34.1585 105.069L32.8301 107.759L39.4906 111.048L40.8189 108.359ZM34.1585 105.069C33.8503 104.917 33.7238 104.544 33.876 104.236L31.1861 102.907C30.3003 104.701 31.0363 106.873 32.8301 107.759L34.1585 105.069ZM33.876 104.236C34.0282 103.928 34.4014 103.801 34.7096 103.953L36.038 101.263C34.2442 100.378 32.072 101.114 31.1861 102.907L33.876 104.236ZM34.7096 103.953L35.6922 104.439L37.0205 101.749L36.038 101.263L34.7096 103.953ZM43.8298 84.5724L35.0114 102.429L37.7013 103.758L46.5197 85.9007L43.8298 84.5724ZM43.6358 80.4654C42.8053 82.2983 42.9543 84.3317 43.8642 85.9662L46.4854 84.507C46.019 83.6693 45.946 82.6357 46.3684 81.7036L43.6358 80.4654ZM69.1855 24.0825L43.6358 80.4654L46.3684 81.7036L71.9181 25.3208L69.1855 24.0825Z" fill="#2B2727"/>
<path d="M59.7131 28.9577L39.4757 19.2596" stroke="#2B2727" stroke-width="3" stroke-linecap="round" stroke-linejoin="round"/>
<path d="M55.2714 37.0345L40.2068 29.7835" stroke="#2B2727" stroke-width="3" stroke-linecap="round" stroke-linejoin="round"/>
<path d="M49.8317 45.3839L38.2156 39.7644" stroke="#2B2727" stroke-width="3" stroke-linecap="round" stroke-linejoin="round"/>
<defs>
<clipPath id="clip0_571_29255">
<rect width="10.6448" height="10.6448" fill="white" transform="translate(187.421 46.184) rotate(-10.07)"/>
</clipPath>
</defs>
</svg>
