<svg width="256" height="128" viewBox="0 0 256 128" fill="none" xmlns="http://www.w3.org/2000/svg">
<path d="M96.2 98.8261C89.4794 98.8261 86.1191 98.8261 83.5521 97.5182C81.2942 96.3677 79.4584 94.5319 78.3079 92.274C77 89.707 77 86.3467 77 79.6261L77 38.2C77 31.4794 77 28.1191 78.3079 25.5521C79.4584 23.2942 81.2942 21.4584 83.5521 20.3079C86.1191 19 89.4794 19 96.2 19L159.8 19C166.521 19 169.881 19 172.448 20.3079C174.706 21.4584 176.542 23.2942 177.692 25.5521C179 28.1191 179 31.4794 179 38.2V79.6261C179 86.3467 179 89.707 177.692 92.274C176.542 94.5319 174.706 96.3677 172.448 97.5182C169.881 98.8261 166.521 98.8261 159.8 98.8261H96.2Z" fill="#F9FAFC"/>
<path d="M179 81.5V38.2C179 31.4794 179 28.1191 177.692 25.5521C176.542 23.2942 174.706 21.4584 172.448 20.3079C169.881 19 166.521 19 159.8 19H108.5M96.2 19C89.4794 19 86.1191 19 83.5521 20.3079C81.2942 21.4584 79.4584 23.2942 78.3079 25.5521C77 28.1191 77 31.4794 77 38.2L77 79.6261C77 86.3467 77 89.707 78.3079 92.274C79.4584 94.5319 81.2942 96.3677 83.5521 97.5182C86.1191 98.8261 89.4794 98.8261 96.2 98.8261H129" stroke="#2B2727" stroke-width="3" stroke-linecap="round" stroke-linejoin="round"/>
<path d="M135.761 58.9131H141.489M145.499 58.9131L159.247 58.9131M163.257 58.9131H170.13M135.761 70H144.353M146.931 70H153.518M155.523 70H168.467M135.761 81.087H143.78M146.931 81.087C153.104 81.087 156.669 81.087 156.669 81.087M135.761 75.5435H142.921M145.499 75.5435H153.805M156.669 75.5435H165.834M135.761 64.4566H141.489M143.78 64.4566H154.378M157.528 64.4566H167.913" stroke="#2B2727" stroke-linecap="round"/>
<path d="M103.627 31.1956H109.355M113.365 31.1956H120.239M103.627 42.2825L118.022 42.2825M85.8695 53.3695H93.8891M96.1804 53.3695H99.6173M102.768 53.3695H117.661M85.8695 64.4564L89.1956 64.4564M91.5978 64.4564H94.4619M85.8695 75.5434H93.0298M85.8695 86.6303H91.5978M93.8891 86.6303H104.486M107.637 86.6303H120.239M85.8695 81.0869H94.4619M97.0396 81.0869H103.627M105.632 81.0869H120.239M85.8695 69.9999H93.8891M85.8695 58.9129L94.1755 58.9129M96.7532 58.9129H103.914M117.661 58.9129L120.239 58.9129M103.627 47.826H108.043M111.37 47.826H120.239M103.627 36.739H106.778M109.355 36.739H119.685M106.778 58.9129L115.943 58.9129" stroke="#2B2727" stroke-linecap="round"/>
<path d="M128 24L128 92" stroke="#2B2727" stroke-width="2" stroke-linecap="round"/>
<rect x="135.652" y="31.0869" width="33.4783" height="21.2826" rx="3" stroke="#2B2727" stroke-width="2"/>
<path d="M155.326 40.8621C155.993 41.247 155.993 42.2093 155.326 42.5942L150.842 45.1828C150.176 45.5677 149.342 45.0866 149.342 44.3168L149.342 39.1395C149.342 38.3697 150.176 37.8886 150.842 38.2735L155.326 40.8621Z" fill="#2B2727"/>
<rect x="85.7609" y="31.0869" width="14.6304" height="16.8478" rx="3" fill="#F9FAFC" stroke="#2B2727" stroke-width="2"/>
<rect x="97.9565" y="64.3479" width="22.3913" height="11.3043" rx="3" fill="#F9FAFC" stroke="#2B2727" stroke-width="2"/>
<path d="M174.517 115.656C181.963 115.656 188 109.62 188 102.173C188 94.7266 181.963 88.69 174.517 88.69L166.627 88.69C166.627 85.5 165.5 82 161.5 81.5C162 84 161.5 87.5 159.831 88.69L151.483 88.69C144.037 88.69 138 94.7266 138 102.173C138 109.62 144.037 115.656 151.483 115.656H174.517Z" fill="#F9FAFC" stroke="#2B2727" stroke-width="3" stroke-linecap="round" stroke-linejoin="round"/>
<path d="M148 99.2V104.8M158 100V104M168 99.2V104.8M178 100V104M153 96.8L153 107.2M163 96.8L163 107.2M173 96V108" stroke="#2B2727" stroke-width="2" stroke-linecap="round"/>
</svg>
