<svg width="256" height="128" viewBox="0 0 256 128" fill="none" xmlns="http://www.w3.org/2000/svg">
<path d="M131.402 18.405L161.775 18.4357C163.355 18.4872 165.231 19.1809 166.934 20.3431L182.849 32.0884C185.546 34.5068 186.968 36.8091 185.928 39.623L187.661 34.9332C188.008 33.9951 189.293 33.4039 190.7 33.9239L195.859 35.8306C197.735 36.5239 198.326 37.8086 197.633 39.6846L190.006 60.3203C189.486 61.7273 187.733 62.1444 186.325 61.6253C184.918 61.1062 182.105 60.0634 181.167 59.7177C180.228 59.3719 179.168 57.914 179.688 56.5061L180.728 53.693C179.342 57.444 173.367 56.3029 169.788 54.4481C166.485 52.7365 165.032 51.3208 164.081 49.2173C163.531 47.9986 162.782 46.8607 161.689 46.0895L150.692 38.3276C150.321 38.0991 150.018 37.8023 149.777 37.4565L136.174 37.2264C134.124 37.002 131.484 35.493 131.239 33.2704C130.994 31.0478 132.457 28.5328 134.302 28.5389L131.392 28.5293C128.232 28.4269 126.861 25.7882 126.804 23.6349C126.733 20.9429 128.711 18.476 131.402 18.405Z" fill="#F9FAFC"/>
<path d="M156.973 29.9877L164.722 34.9833M156.973 29.9877C154.332 28.4788 151.294 29.4881 150.132 31.1907C148.927 32.955 148.613 35.7807 149.777 37.4565M156.973 29.9877C155.714 29.2497 154.995 28.8523 153.221 28.6011L134.302 28.5389M180.728 53.693C179.342 57.444 173.367 56.3029 169.788 54.4481C166.485 52.7365 165.032 51.3208 164.081 49.2173C163.531 47.9986 162.782 46.8607 161.689 46.0895L150.692 38.3276C150.321 38.0991 150.018 37.8023 149.777 37.4565M180.728 53.693L185.928 39.623M180.728 53.693C180.728 53.693 180.209 55.0982 179.688 56.5061C179.168 57.914 180.228 59.3719 181.167 59.7177C182.105 60.0634 184.918 61.1062 186.325 61.6253C187.733 62.1444 189.486 61.7273 190.006 60.3203C190.526 58.9133 196.939 41.5605 197.633 39.6846C198.326 37.8086 197.735 36.5239 195.859 35.8306C193.983 35.1373 192.107 34.4439 190.7 33.9239C189.293 33.4039 188.008 33.9951 187.661 34.9332C187.315 35.8714 185.928 39.623 185.928 39.623M185.928 39.623C186.968 36.8091 185.546 34.5068 182.849 32.0884L166.934 20.3431C165.231 19.1809 163.355 18.4872 161.775 18.4357L131.402 18.405C128.711 18.476 126.733 20.9429 126.804 23.6349C126.861 25.7882 128.232 28.4269 131.392 28.5293L134.302 28.5389M134.302 28.5389C132.457 28.5328 130.994 31.0478 131.239 33.2704C131.484 35.493 134.124 37.002 136.174 37.2264L149.777 37.4565" stroke="#2B2727" stroke-width="3" stroke-linecap="round" stroke-linejoin="round"/>
<path d="M125.33 109.595L94.9566 109.564C93.3764 109.513 91.5006 108.819 89.7979 107.657L73.8827 95.9116C71.1861 93.4932 69.7638 91.1909 70.8037 88.377L69.0705 93.0668C68.7237 94.0049 67.4391 94.5961 66.0322 94.0761L60.8732 92.1694C58.9972 91.4761 58.4059 90.1914 59.0993 88.3154L66.7259 67.6797C67.2459 66.2727 68.9992 65.8556 70.4065 66.3747C71.8139 66.8938 74.6268 67.9365 75.5651 68.2823C76.5035 68.628 77.5638 70.086 77.0435 71.4939L76.0038 74.307C77.3901 70.5559 83.365 71.6971 86.944 73.5519C90.2465 75.2635 91.7 76.6792 92.6506 78.7827C93.2013 80.0014 93.9499 81.1393 95.0425 81.9105L106.04 89.6724C106.411 89.9009 106.714 90.1977 106.955 90.5435L120.558 90.7736C122.608 90.998 125.248 92.507 125.493 94.7296C125.738 96.9522 124.275 99.4672 122.43 99.4611L125.34 99.4707C128.5 99.5731 129.871 102.212 129.928 104.365C129.999 107.057 128.021 109.524 125.33 109.595Z" fill="#F9FAFC"/>
<path d="M99.7591 98.0123L92.0103 93.0167M99.7591 98.0123C102.4 99.5212 105.438 98.5119 106.6 96.8093C107.805 95.045 108.119 92.2193 106.955 90.5435M99.7591 98.0123C101.018 98.7503 101.737 99.1477 103.511 99.3989L122.43 99.4611M76.0038 74.307C77.3901 70.5559 83.365 71.6971 86.944 73.5519C90.2465 75.2635 91.7 76.6792 92.6506 78.7827C93.2013 80.0014 93.9499 81.1393 95.0425 81.9105L106.04 89.6724C106.411 89.9009 106.714 90.1977 106.955 90.5435M76.0038 74.307L70.8037 88.377M76.0038 74.307C76.0038 74.307 76.5231 72.9018 77.0435 71.4939C77.5638 70.086 76.5035 68.628 75.5651 68.2823C74.6268 67.9365 71.8139 66.8938 70.4065 66.3747C68.9992 65.8556 67.2459 66.2727 66.7259 67.6797C66.2059 69.0867 59.7926 86.4395 59.0993 88.3154C58.4059 90.1914 58.9972 91.4761 60.8732 92.1694C62.7492 92.8627 64.6252 93.5561 66.0322 94.0761C67.4391 94.5961 68.7237 94.0049 69.0705 93.0668C69.4172 92.1286 70.8037 88.377 70.8037 88.377M70.8037 88.377C69.7638 91.1909 71.1861 93.4932 73.8827 95.9116L89.7979 107.657C91.5006 108.819 93.3764 109.513 94.9566 109.564L125.33 109.595C128.021 109.524 129.999 107.057 129.928 104.365C129.871 102.212 128.5 99.5731 125.34 99.4707L122.43 99.4611M122.43 99.4611C124.275 99.4672 125.738 96.9522 125.493 94.7296C125.248 92.507 122.608 90.998 120.558 90.7736L106.955 90.5435" stroke="#2B2727" stroke-width="3" stroke-linecap="round" stroke-linejoin="round"/>
<path d="M126.948 56.1157C127.532 56.69 128.468 56.69 129.052 56.1157C130.515 54.6761 131.621 53.6478 132.743 53.0508C133.764 52.5073 134.809 52.3187 136.224 52.7007C138.896 53.4217 140.5 55.9388 140.5 59.9901C140.5 62.2406 139.03 64.9714 136.419 68.0189C134.106 70.7185 131.093 73.4469 128.025 76.0254C125.089 73.432 122.072 70.6293 119.715 67.885C118.408 66.3638 117.337 64.8983 116.599 63.5312C115.854 62.1535 115.5 60.9712 115.5 59.9901C115.5 58.0084 115.837 56.4355 116.48 55.2832C117.098 54.1762 118.04 53.3746 119.475 52.9545C120.993 52.51 122.05 52.6087 123.059 53.0606C124.169 53.5573 125.333 54.5269 126.948 56.1157Z" fill="#F9FAFC" stroke="#2B2727" stroke-width="3" stroke-linejoin="round"/>
</svg>
