<svg width="256" height="128" viewBox="0 0 256 128" fill="none" xmlns="http://www.w3.org/2000/svg">
<path d="M182.085 28.9574C182.085 23.4581 186.543 19 192.043 19H220.67C226.17 19 230.628 23.4581 230.628 28.9574V99.9043C230.628 105.404 226.17 109.862 220.67 109.862H192.043C186.543 109.862 182.085 105.404 182.085 99.9043V28.9574Z" fill="#F9FAFC"/>
<path d="M200.133 27.0904H211.335M192.043 109.862H220.67C226.17 109.862 230.628 105.404 230.628 99.9043V28.9574C230.628 23.4581 226.17 19 220.67 19H192.043C186.543 19 182.085 23.4581 182.085 28.9574V99.9043C182.085 105.404 186.543 109.862 192.043 109.862Z" stroke="#2B2727" stroke-width="3" stroke-linecap="round" stroke-linejoin="round"/>
<path d="M188.309 38.915C188.309 36.8527 189.98 35.1809 192.043 35.1809H213.202C215.264 35.1809 216.936 36.8527 216.936 38.915V94.9256C216.936 96.9878 215.264 98.6596 213.202 98.6596H192.043C189.98 98.6596 188.309 96.9878 188.309 94.9256V38.915Z" stroke="#2B2727" stroke-width="2" stroke-linecap="round" stroke-linejoin="round"/>
<path d="M223.16 38.915C223.16 36.8527 224.831 35.1809 226.894 35.1809H230.628V97.415H226.894C224.831 97.415 223.16 95.7432 223.16 93.6809V38.915Z" stroke="#2B2727" stroke-width="2" stroke-linecap="round" stroke-linejoin="round"/>
<path d="M26 28.915C26 23.4156 30.4581 18.9575 35.9574 18.9575H64.5851C70.0845 18.9575 74.5426 23.4156 74.5426 28.915V99.8618C74.5426 105.361 70.0845 109.819 64.5851 109.819H35.9574C30.4581 109.819 26 105.361 26 99.8618V28.915Z" fill="#F9FAFC"/>
<path d="M44.0479 27.0479H55.25M35.9574 109.819H64.5851C70.0845 109.819 74.5426 105.361 74.5426 99.8618V28.915C74.5426 23.4156 70.0845 18.9575 64.5851 18.9575H35.9574C30.4581 18.9575 26 23.4156 26 28.915V99.8618C26 105.361 30.4581 109.819 35.9574 109.819Z" stroke="#2B2727" stroke-width="3" stroke-linecap="round" stroke-linejoin="round"/>
<path d="M33.4681 38.8725C33.4681 36.8102 35.1399 35.1384 37.2022 35.1384H63.3405C65.4027 35.1384 67.0745 36.8102 67.0745 38.8725V42.6065C67.0745 44.6688 65.4027 46.3406 63.3405 46.3406H37.2022C35.1399 46.3406 33.4681 44.6688 33.4681 42.6065V38.8725Z" stroke="#2B2727" stroke-width="2" stroke-linecap="round" stroke-linejoin="round"/>
<path d="M33.4681 56.298C33.4681 54.2357 35.1399 52.564 37.2022 52.564H63.3405C65.4027 52.564 67.0745 54.2357 67.0745 56.298V61.2767C67.0745 63.339 65.4027 65.0108 63.3405 65.0108H37.2022C35.1399 65.0108 33.4681 63.339 33.4681 61.2767V56.298Z" stroke="#2B2727" stroke-width="2" stroke-linecap="round" stroke-linejoin="round"/>
<path d="M33.4681 73.7235C33.4681 71.6613 35.1399 69.9895 37.2022 69.9895H63.3405C65.4027 69.9895 67.0745 71.6613 67.0745 73.7235V78.7023C67.0745 80.7645 65.4027 82.4363 63.3405 82.4363H37.2022C35.1399 82.4363 33.4681 80.7645 33.4681 78.7023V73.7235Z" stroke="#2B2727" stroke-width="2" stroke-linecap="round" stroke-linejoin="round"/>
<path d="M33.4681 92.3937C33.4681 90.3315 35.1399 88.6597 37.2022 88.6597H63.3405C65.4027 88.6597 67.0745 90.3315 67.0745 92.3937V96.1278C67.0745 98.19 65.4027 99.8618 63.3405 99.8618H37.2022C35.1399 99.8618 33.4681 98.19 33.4681 96.1278V92.3937Z" stroke="#2B2727" stroke-width="2" stroke-linecap="round" stroke-linejoin="round"/>
<path d="M104 38.0956C104 32.5963 108.458 28.1382 113.957 28.1382H142.585C148.084 28.1382 152.543 32.5963 152.543 38.0956V109.042C152.543 114.542 148.084 119 142.585 119H113.957C108.458 119 104 114.542 104 109.042V38.0956Z" fill="#F9FAFC"/>
<path d="M122.048 36.2286H133.25M113.957 119H142.585C148.084 119 152.543 114.542 152.543 109.042V38.0956C152.543 32.5963 148.084 28.1382 142.585 28.1382H113.957C108.458 28.1382 104 32.5963 104 38.0956V109.042C104 114.542 108.458 119 113.957 119Z" stroke="#2B2727" stroke-width="3" stroke-linecap="round" stroke-linejoin="round"/>
<path d="M112.713 89.1276H143.83M115.202 95.351H141.34M115.202 81.6595H141.34C143.403 81.6595 145.075 79.9877 145.075 77.9254V49.2978C145.075 47.2355 143.403 45.5637 141.34 45.5637H115.202C113.14 45.5637 111.468 47.2355 111.468 49.2978V77.9254C111.468 79.9877 113.14 81.6595 115.202 81.6595ZM121.426 110.287H135.117C137.179 110.287 138.851 108.615 138.851 106.553C138.851 104.491 137.179 102.819 135.117 102.819H121.426C119.363 102.819 117.692 104.491 117.692 106.553C117.692 108.615 119.363 110.287 121.426 110.287Z" stroke="#2B2727" stroke-width="2" stroke-linecap="round" stroke-linejoin="round"/>
<path d="M67.7142 58.8799H80.2499C81.8571 58.8799 83.9999 60.5414 83.9999 62.4799C83.9999 64.4184 83.9999 65.6105 83.9999 66.4399C83.9999 68.5275 85.6568 70.3999 87.7278 70.3999C89.7989 70.3999 98.9999 70.3999 98.9999 70.3999M98.9999 70.3999L95.4285 66.7999M98.9999 70.3999L95.4285 73.9999" stroke="#2B2727" stroke-width="3" stroke-linecap="round" stroke-linejoin="round"/>
<path d="M139.669 106.648H156.449C158.797 106.648 160.701 104.732 160.701 102.37V76.7C160.701 74.3372 162.604 72.4217 164.953 72.4217H177M177 72.4217L173.102 68.5M177 72.4217L173.102 76.3435" stroke="#2B2727" stroke-width="3" stroke-linecap="round" stroke-linejoin="round"/>
</svg>
