<svg width="128" height="128" viewBox="0 0 128 128" fill="none" xmlns="http://www.w3.org/2000/svg">
<path d="M36 38C30.4 38.4 17 35.1667 12 34V67.5C16.1667 69.5 25.1 74.4 27.5 78C29.9 81.6 43.1667 92.1667 49.5 97C51.5 98.3333 56 100.8 58 100C60 99.2 61.5 97.6667 62 97C63.6667 97.6667 67.5 98.6 69.5 97C71.5 95.4 73 93 72.5 91C75 92 79.5517 94.9224 82.5 90.5C84.5 87.5 84 85.5 83.5 84C86 85.5 92.6414 87.5379 95 84C97 81 93.1667 72.6667 92 70.5L81 54.5L54.5 35C50.6667 35.8333 41.6 37.6 36 38Z" fill="#F9FAFC"/>
<path d="M83.5 84C86 85.5 92.6414 87.5379 95 84C97 81 93.1667 72.6667 92 70.5L81 54.5L54.5 35C50.6667 35.8333 41.6 37.6 36 38C30.4 38.4 17 35.1667 12 34V67.5C16.1667 69.5 25.1 74.4 27.5 78C29.9 81.6 43.1667 92.1667 49.5 97C51.5 98.3333 56 100.8 58 100C60 99.2 61.5 97.6667 62 97M83.5 84C84 85.5 84.5 87.5 82.5 90.5C79.5517 94.9224 75 92 72.5 91M83.5 84C77.742 79.3936 71 76 64.5 71.5M72.5 91C73 93 71.5 95.4 69.5 97C67.5 98.6 63.6667 97.6667 62 97M72.5 91L57 81M62 97L48.5 88" stroke="#2B2727" stroke-width="3" stroke-linecap="round" stroke-linejoin="round"/>
<path d="M92.9815 42.9652C99.5988 45.1331 115 44.6104 115 44.6104V79.161L96.7407 83C95.4876 80.2579 96.7407 76.4189 78.4815 66.5473C66.7537 60.2069 62.1914 49.1806 61.2963 44.6104H48.9444C47.6914 46.2557 44.3367 50.3951 40.3519 52.8368C33.5 57.0352 28.5 54 27.5 50.5L42.5 33.642L67.2037 27.0609C67.2037 27.0609 69.8889 26.5126 73.1111 28.7062C76.3333 30.8997 83.9507 40.0066 92.9815 42.9652Z" fill="#F9FAFC" stroke="#2B2727" stroke-width="3" stroke-linejoin="round"/>
<path d="M22 68.4999L15.5 76.9999C14 79 14.5 82 16 83C18.1311 84.4207 21 83.8333 22 82.5L28.7766 74.1801C30.3363 72.2213 32 68 29.5 65.9999C26.5002 64 23.5 66.4999 22 68.4999Z" fill="#F9FAFC"/>
<path d="M44.3852 88.6135L39 95C37.1679 97.1605 37.968 99.3089 39.1365 100.365C41.5001 102.5 43.5 102 45 100.365L51.1236 93.401C53.5 90.5 53.5 88.1315 50.9463 86.4374C48.8467 85.0447 46.5 86 44.3852 88.6135Z" fill="#F9FAFC"/>
<path d="M38.2616 81L30.5001 89.9999C29 91.5 29.103 94.9335 31.5 96.4999C33.8969 98.0663 37 97.3585 39 95L44.3852 88.6135C47.3092 85 49.9083 81 46.0828 78.5C43.3834 76.7359 40.3774 78.6928 38.2616 81Z" fill="#F9FAFC"/>
<path d="M28.7766 74.1801L22 82.5C20.5 84.5 20.2876 88.3302 22.9999 90.4999C25.4999 92.4999 29 91.5 30.5001 89.9999L38.2616 81C40.3916 78.6773 43.0256 73.2221 39.7448 70.1003C35.5 66.5 30.3363 72.2213 28.7766 74.1801Z" fill="#F9FAFC"/>
<path d="M22 82.5C21 83.8333 18.1311 84.4207 16 83C14.5 82 14 79 15.5 76.9999L22 68.4999C23.5 66.4999 26.5002 64 29.5 65.9999C32 68 30.3363 72.2213 28.7766 74.1801M22 82.5L28.7766 74.1801M22 82.5C20.5 84.5 20.2876 88.3302 22.9999 90.4999C25.4999 92.4999 29 91.5 30.5001 89.9999M28.7766 74.1801C30.3363 72.2213 35.5 66.5 39.7448 70.1003C43.0256 73.2221 40.3916 78.6773 38.2616 81M44.3852 88.6135L39 95M44.3852 88.6135C46.5 86 48.8467 85.0447 50.9463 86.4374C53.5 88.1315 53.5 90.5 51.1236 93.401L45 100.365C43.5 102 41.5001 102.5 39.1365 100.365C37.968 99.3089 37.1679 97.1605 39 95M44.3852 88.6135C47.3092 85 49.9083 81 46.0828 78.5C43.3834 76.7359 40.3774 78.6928 38.2616 81M39 95C37 97.3585 33.8969 98.0663 31.5 96.4999C29.103 94.9335 29 91.5 30.5001 89.9999M38.2616 81L30.5001 89.9999" stroke="#2B2727" stroke-width="3" stroke-linecap="round" stroke-linejoin="round"/>
</svg>
