<svg width="128" height="128" viewBox="0 0 128 128" fill="none" xmlns="http://www.w3.org/2000/svg">
<path d="M17.5 43C17.5 37.7533 21.7533 33.5 27 33.5H59C64.2467 33.5 68.5 37.7533 68.5 43V85C68.5 90.2467 64.2467 94.5 59 94.5H27C21.7533 94.5 17.5 90.2467 17.5 85V43Z" fill="#F9FAFC" stroke="#2B2727" stroke-width="3"/>
<path d="M33.5 33C33.5 27.201 38.201 22.5 44 22.5H85C90.799 22.5 95.5 27.201 95.5 33V95C95.5 100.799 90.799 105.5 85 105.5H44C38.201 105.5 33.5 100.799 33.5 95V33Z" fill="#F9FAFC" stroke="#2B2727" stroke-width="3"/>
<line x1="82.4888" y1="85.4109" x2="90.267" y2="93.1891" stroke="#2B2727" stroke-width="3" stroke-linecap="round"/>
<rect x="84.9259" y="92.583" width="8" height="33" rx="4" transform="rotate(-45 84.9259 92.583)" fill="#F9FAFC" stroke="#2B2727" stroke-width="3"/>
<circle cx="64.5" cy="64.5" r="26" fill="#F9FAFC" stroke="#2B2727" stroke-width="3"/>
<path d="M44 34H85M44 44H85M44 54H85M44 74H85M44 84H85M44 94H85" stroke="#2B2727" stroke-linecap="round"/>
<path d="M25 49L34 49M25 59L34 59M25 69H34M25 79H34" stroke="#2B2727" stroke-linecap="round"/>
<path d="M50 64.3771C50 62.7303 50.4341 61.4224 51.3022 60.4535C52.1704 59.4845 53.423 59 55.0602 59C56.0027 59 56.8015 59.1408 57.4563 59.4224C58.1111 59.7041 58.5725 60.1122 58.8404 60.6468C59.019 61 58.9892 61.2387 58.7511 61.3628L57.8581 61.821C57.5456 61.9833 57.2876 61.8926 57.0842 61.5489C56.9552 61.3294 56.7146 61.1313 56.3624 60.9547C56.0151 60.778 55.6059 60.6897 55.1346 60.6897C54.0928 60.6897 53.3635 61.0072 52.9468 61.642C52.5301 62.2721 52.3217 63.1838 52.3217 64.3771C52.3217 65.5704 52.5301 66.4845 52.9468 67.1193C53.3635 67.7494 54.0928 68.0644 55.1346 68.0644C55.6952 68.0644 56.1665 67.9427 56.5484 67.6993C56.9354 67.4558 57.2033 67.2243 57.3521 67.0048C57.5952 66.6468 57.8532 66.5561 58.126 66.7327L59.019 67.3055C59.2621 67.463 59.2869 67.7017 59.0934 68.0215C58.8057 68.4988 58.3121 68.9069 57.6126 69.2458C56.9131 69.5847 56.0623 69.7542 55.0602 69.7542C53.4479 69.7542 52.2002 69.2697 51.3171 68.3007C50.439 67.3317 50 66.0239 50 64.3771Z" fill="#2B2727"/>
<path d="M60.7043 64.3771C60.7043 62.7303 61.1458 61.4224 62.0289 60.4535C62.9119 59.4845 64.172 59 65.8091 59C67.4462 59 68.7063 59.4845 69.5894 60.4535C70.4724 61.4224 70.9139 62.7303 70.9139 64.3771C70.9139 66.0239 70.4724 67.3317 69.5894 68.3007C68.7063 69.2697 67.4462 69.7542 65.8091 69.7542C64.172 69.7542 62.9119 69.2697 62.0289 68.3007C61.1458 67.3317 60.7043 66.0239 60.7043 64.3771ZM63.026 64.3771C63.026 65.5704 63.2468 66.4845 63.6883 67.1193C64.1348 67.7494 64.8417 68.0644 65.8091 68.0644C66.7765 68.0644 67.481 67.7494 67.9225 67.1193C68.369 66.4845 68.5922 65.5704 68.5922 64.3771C68.5922 63.1838 68.369 62.2721 67.9225 61.642C67.481 61.0072 66.7765 60.6897 65.8091 60.6897C64.8417 60.6897 64.1348 61.0072 63.6883 61.642C63.2468 62.2721 63.026 63.1838 63.026 64.3771Z" fill="#2B2727"/>
<path d="M72.3388 71C72.1453 71 72.0486 70.9189 72.0486 70.7566V70.4988C72.0486 70.3699 72.1106 70.2434 72.2346 70.1193C72.2346 70.1193 72.6191 69.7279 73.3881 68.9451C73.6609 68.6635 73.9462 68.3652 74.2438 68.0501C74.5464 67.7351 74.6978 67.4439 74.6978 67.1766C74.6978 66.957 74.6382 66.7876 74.5192 66.6683C74.4001 66.5489 74.2289 66.4893 74.0057 66.4893C73.7031 66.4893 73.4749 66.568 73.3211 66.7255C73.1673 66.8831 73.0582 67.0501 72.9937 67.2267C72.9292 67.4224 72.8225 67.4869 72.6737 67.42L72.2421 67.2267C72.123 67.1742 72.0883 67.0597 72.1379 66.8831C72.2371 66.5298 72.4405 66.2267 72.7481 65.9737C73.0606 65.716 73.5195 65.5871 74.1248 65.5871C74.7598 65.5871 75.2187 65.7446 75.5014 66.0597C75.7892 66.3699 75.933 66.7088 75.933 67.0764C75.933 67.5155 75.7395 67.9093 75.3526 68.2578C74.9706 68.6062 74.601 68.9618 74.2438 69.3246L73.589 69.9905V70.0119C73.7428 70.0024 73.8718 69.9976 73.9759 69.9976H75.7098C75.9033 69.9976 76 70.0788 76 70.2411V70.7566C76 70.9189 75.9033 71 75.7098 71H72.3388Z" fill="#2B2727"/>
</svg>
