<svg width="128" height="128" viewBox="0 0 128 128" fill="none" xmlns="http://www.w3.org/2000/svg">
<path d="M40.5977 28.1783C41.1209 28.1441 41.5884 27.8391 41.8304 27.3739C44.2434 22.7369 49.5823 19.9875 54.897 20.6646C55.4068 20.7296 55.9143 20.5291 56.242 20.1332C58.5782 17.3113 62.1592 15.5 66.1852 15.5C72.8717 15.5 78.3112 20.4892 78.8927 26.7851C78.9641 27.5579 79.6131 28.1486 80.3891 28.1472L80.4444 28.1471C80.4448 28.1471 80.4452 28.1471 80.4456 28.1471C88.2428 28.1477 94.5 34.3053 94.5 41.8235C94.5 49.3422 88.2422 55.5 80.4444 55.5H80.3648H80.2851H80.2054H80.1258H80.0462H79.9666H79.8871H79.8075H79.728H79.6485H79.569H79.4895H79.4101H79.3306H79.2512H79.1718H79.0924H79.0131H78.9338H78.8544H78.7751H78.6959H78.6166H78.5374H78.4581H78.3789H78.2997H78.2206H78.1414H78.0623H77.9832H77.9041H77.825H77.746H77.6669H77.5879H77.5089H77.43H77.351H77.2721H77.1931H77.1142H77.0353H76.9565H76.8776H76.7988H76.72H76.6412H76.5624H76.4837H76.4049H76.3262H76.2475H76.1688H76.0901H76.0115H75.9329H75.8542H75.7757H75.6971H75.6185H75.54H75.4614H75.3829H75.3045H75.226H75.1475H75.0691H74.9907H74.9123H74.8339H74.7555H74.6772H74.5989H74.5205H74.4422H74.364H74.2857H74.2075H74.1292H74.051H73.9729H73.8947H73.8165H73.7384H73.6603H73.5822H73.5041H73.426H73.3479H73.2699H73.1919H73.1139H73.0359H72.9579H72.88H72.802H72.7241H72.6462H72.5683H72.4905H72.4126H72.3348H72.257H72.1792H72.1014H72.0236H71.9459H71.8681H71.7904H71.7127H71.635H71.5574H71.4797H71.4021H71.3244H71.2468H71.1693H71.0917H71.0141H70.9366H70.8591H70.7816H70.7041H70.6266H70.5491H70.4717H70.3943H70.3168H70.2394H70.1621H70.0847H70.0074H69.93H69.8527H69.7754H69.6981H69.6208H69.5436H69.4664H69.3891H69.3119H69.2347H69.1575H69.0804H69.0032H68.9261H68.849H68.7719H68.6948H68.6177H68.5407H68.4636H68.3866H68.3096H68.2326H68.1556H68.0787H68.0017H67.9248H67.8479H67.771H67.6941H67.6172H67.5403H67.4635H67.3867H67.3098H67.233H67.1563H67.0795H67.0027H66.926H66.8493H66.7725H66.6958H66.6192H66.5425H66.4658H66.3892H66.3126H66.236H66.1594H66.0828H66.0062H65.9296H65.8531H65.7766H65.7001H65.6236H65.5471H65.4706H65.3941H65.3177H65.2413H65.1649H65.0885H65.0121H64.9357H64.8593H64.783H64.7066H64.6303H64.554H64.4777H64.4015H64.3252H64.2489H64.1727H64.0965H64.0203H63.9441H63.8679H63.7917H63.7156H63.6394H63.5633H63.4872H63.4111H63.335H63.2589H63.1828H63.1068H63.0307H62.9547H62.8787H62.8027H62.7267H62.6507H62.5748H62.4988H62.4229H62.347H62.2711H62.1952H62.1193H62.0434H61.9675H61.8917H61.8159H61.74H61.6642H61.5884H61.5126H61.4369H61.3611H61.2854H61.2096H61.1339H61.0582H60.9825H60.9068H60.8312H60.7555H60.6798H60.6042H60.5286H60.453H60.3774H60.3018H60.2262H60.1506H60.0751H59.9995H59.924H59.8485H59.773H59.6975H59.622H59.5465H59.4711H59.3956H59.3202H59.2448H59.1694H59.094H59.0186H58.9432H58.8678H58.7925H58.7171H58.6418H58.5665H58.4912H58.4159H58.3406H58.2653H58.19H58.1148H58.0395H57.9643H57.8891H57.8139H57.7387H57.6635H57.5883H57.5132H57.438H57.3629H57.2877H57.2126H57.1375H57.0624H56.9873H56.9122H56.8371H56.7621H56.687H56.612H56.537H56.462H56.387H56.312H56.237H56.162H56.087H56.0121H55.9371H55.8622H55.7873H55.7124H55.6375H55.5626H55.4877H55.4128H55.3379H55.2631H55.1883H55.1134H55.0386H54.9638H54.889H54.8142H54.7394H54.6646H54.5899H54.5151H54.4404H54.3656H54.2909H54.2162H54.1415H54.0668H53.9921H53.9174H53.8428H53.7681H53.6934H53.6188H53.5442H53.4695H53.3949H53.3203H53.2457H53.1712H53.0966H53.022H52.9475H52.8729H52.7984H52.7238H52.6493H52.5748H52.5003H52.4258H52.3513H52.2768H52.2024H52.1279H52.0535H51.979H51.9046H51.8302H51.7557H51.6813H51.6069H51.5325H51.4582H51.3838H51.3094H51.2351H51.1607H51.0864H51.012H50.9377H50.8634H50.7891H50.7148H50.6405H50.5662H50.492H50.4177H50.3434H50.2692H50.1949H50.1207H50.0465H49.9723H49.898H49.8238H49.7496H49.6755H49.6013H49.5271H49.4529H49.3788H49.3046H49.2305H49.1564H49.0822H49.0081H48.934H48.8599H48.7858H48.7117H48.6376H48.5636H48.4895H48.4154H48.3414H48.2673H48.1933H48.1193H48.0452H47.9712H47.8972H47.8232H47.7492H47.6752H47.6013H47.5273H47.4533H47.3793H47.3054H47.2314H47.1575H47.0836H47.0096H46.9357H46.8618H46.7879H46.714H46.6401H46.5662H46.4923H46.4185H46.3446H46.2707H46.1969H46.123H46.0492H45.9753H45.9015H45.8277H45.7539H45.6801H45.6063H45.5325H45.4587H45.3849H45.3111H45.2373H45.1636H45.0898H45.016H44.9423H44.8685H44.7948H44.7211H44.6473H44.5736H44.4999H44.4262H44.3525H44.2788H44.2051H44.1314H44.0577H43.984H43.9104H43.8367H43.763H43.6894H43.6157H43.5421H43.4684H43.3948H43.3212H43.2476H43.1739H43.1003H43.0267H42.9531H42.8795H42.8059H42.7323H42.6587H42.5852H42.5116H42.438H42.3645H42.2909H42.2173H42.1438H42.0702H41.9967H41.9232H41.8496H41.7761H41.7026H41.6291H41.5556C33.7578 55.5 27.5 49.3422 27.5 41.8235C27.5 34.615 33.2506 28.6587 40.5977 28.1783Z" fill="#F9FAFC" stroke="#2B2727" stroke-width="3" stroke-linejoin="round"/>
<g clip-path="url(#clip0_612_27903)">
<path d="M62.4968 33.2989C60.4898 33.2989 58.8172 34.7177 58.4121 36.6055C58.3722 36.7913 58.3424 36.9807 58.3264 37.1741C58.3122 37.3461 58.453 37.4863 58.6252 37.4863H59.7644C59.9365 37.4863 60.074 37.3457 60.0972 37.1747C60.124 36.9766 60.1755 36.7862 60.2461 36.6055C60.5987 35.7035 61.4707 35.0633 62.4968 35.0634C63.8339 35.0634 64.9173 36.1478 64.9174 37.4863C64.9174 38.8247 63.8339 39.9092 62.4968 39.9092L52.3769 39.9092C52.1769 39.9092 52.0284 40.0956 52.0792 40.2895C52.1856 40.6955 52.3135 41.0926 52.4648 41.4782C52.5108 41.5955 52.6247 41.6709 52.7504 41.6709L62.4968 41.6709C64.8064 41.6709 66.6773 39.7982 66.6773 37.4863C66.6773 35.1744 64.8064 33.2989 62.4968 33.2989Z" fill="#2B2727"/>
<path d="M62.4968 29.9951C58.6621 29.9951 55.5041 32.8845 55.0676 36.6055C55.0456 36.7934 55.0291 36.9826 55.0202 37.1739C55.0122 37.3463 55.1524 37.4863 55.3246 37.4863H56.461C56.6332 37.4863 56.772 37.3462 56.783 37.174C56.7952 36.9819 56.8178 36.7927 56.8468 36.6055C57.2712 33.8613 59.6363 31.7568 62.4968 31.7568C65.6573 31.7568 68.218 34.3227 68.218 37.4863C68.218 40.6499 65.6573 43.213 62.4968 43.213H53.9113C53.6664 43.213 53.5187 43.4821 53.6589 43.6834C53.9527 44.1055 54.2755 44.5061 54.6253 44.8808C54.6833 44.9429 54.7647 44.9775 54.8496 44.9775L62.4968 44.9775C66.6298 44.9775 69.9807 41.6234 69.9806 37.4863C69.9806 33.3493 66.6298 29.9951 62.4968 29.9951Z" fill="#2B2727"/>
<path d="M62.4968 26.7188C59.1462 26.7188 56.1522 28.2462 54.174 30.6455C53.9613 30.9034 53.7592 31.1722 53.5709 31.4494C53.5585 31.4676 53.5475 31.4861 53.5353 31.5043C53.3656 31.7572 53.2091 32.019 53.0609 32.2864C53.035 32.3336 53.0067 32.3787 52.9815 32.4263C52.8518 32.6688 52.7364 32.9196 52.6251 33.1727C52.5922 33.2481 52.5576 33.3241 52.5264 33.4004C52.4402 33.6094 52.3638 33.8217 52.2906 34.0371C52.2445 34.174 52.197 34.312 52.1563 34.4514C52.1128 34.5989 52.0785 34.7487 52.0412 34.8987C51.9912 35.1016 51.9397 35.3033 51.9014 35.5106C51.8839 35.6041 51.8754 35.7016 51.8603 35.7959C51.819 36.0577 51.7809 36.3213 51.7589 36.589C51.7583 36.5946 51.7565 36.5998 51.7561 36.6055C51.7408 36.7942 51.7269 36.9832 51.719 37.1739C51.7119 37.3463 51.8518 37.4863 52.024 37.4863H53.1604C53.3326 37.4863 53.4716 37.3463 53.4779 37.1738C53.4848 36.9829 53.4978 36.7938 53.5161 36.6055C53.9592 32.0309 57.8103 28.453 62.4968 28.453C67.4807 28.453 71.5213 32.4975 71.5213 37.4863C71.5213 42.4751 67.4807 46.5196 62.4968 46.5196L57.5939 46.5196C57.2847 46.5196 57.1753 46.9048 57.4486 47.0495C58.8021 47.7663 60.3273 48.1993 61.9458 48.2813H62.4968C68.0809 48.2813 72.6714 44.0331 73.2237 38.5894C73.2596 38.2355 73.2804 37.8769 73.2813 37.5137C73.2813 37.1411 73.2605 36.7708 73.2237 36.4079C72.6714 30.9642 68.0809 26.7188 62.4968 26.7188Z" fill="#2B2727"/>
</g>
<path d="M74 93.6837C74 94.9041 73.5154 95.8069 72.0475 96.1244C71.1866 96.3105 69.6069 95.8803 69.3628 94.66L68.1425 83.1891V108.816C68.1425 110.036 66.9222 111.5 65.2138 111.5C63.5053 111.5 62.285 109.792 62.285 108.816C62.285 109.792 61.3088 111.5 59.1122 111.5C57.8919 111.5 56.4275 110.28 56.4275 108.572V82.2128L53.9869 86.6059C53.4988 87.3381 52.0344 87.8262 50.8141 86.85L43.2482 79.2841C42.76 78.5519 42.5276 77.2516 43.4922 76.1113C44.3384 75.2731 45.6888 75.3791 46.421 75.8672L51.7903 80.9925L54.475 76.1113C55.1725 74.9282 55.6953 74.4028 57.1597 74.4028H68.0038C70.5831 74.4028 72.2916 76.3553 72.4814 78.0638L74 93.6837Z" fill="#F9FAFC"/>
<path d="M62.285 108.816C62.285 109.792 63.5053 111.5 65.2138 111.5C66.9222 111.5 68.1425 110.036 68.1425 108.816V83.1891L69.3628 94.66C69.6069 95.8803 71.1866 96.3105 72.0475 96.1244C73.5154 95.8069 74 94.9041 74 93.6837L72.4814 78.0638C72.2916 76.3553 70.5831 74.4028 68.0038 74.4028H57.1597C55.6953 74.4028 55.1725 74.9282 54.475 76.1113L51.7903 80.9925L46.421 75.8672C45.6888 75.3791 44.3384 75.2731 43.4922 76.1113C42.5276 77.2516 42.76 78.5519 43.2482 79.2841L50.8141 86.85C52.0344 87.8262 53.4988 87.3381 53.9869 86.6059L56.4275 82.2128V108.572C56.4275 110.28 57.8919 111.5 59.1122 111.5C61.3088 111.5 62.285 109.792 62.285 108.816ZM62.285 108.816V96.1244" stroke="#2B2727" stroke-width="3" stroke-linecap="round" stroke-linejoin="round"/>
<path d="M57 65.5C57 68.5376 59.4624 71 62.5 71C65.5376 71 68 68.5376 68 65.5C68 62.4624 65.5376 60 62.5 60C59.4624 60 57 62.4624 57 65.5Z" fill="#F9FAFC" stroke="#2B2727" stroke-width="3" stroke-linecap="round" stroke-linejoin="round"/>
<defs>
<clipPath id="clip0_612_27903">
<rect width="23" height="23" fill="white" transform="translate(51 26)"/>
</clipPath>
</defs>
</svg>
