<svg width="128" height="128" viewBox="0 0 128 128" fill="none" xmlns="http://www.w3.org/2000/svg">
<path d="M24.75 14C19.9175 14 16 17.9175 16 22.75V89.25C16 94.0825 19.9175 98 24.75 98H58V84C54.134 84 51 80.866 51 77C51 73.134 54.134 70 58 70V56H72C72 59.866 75.134 63 79 63C82.866 63 86 59.866 86 56H100V22.75C100 17.9175 96.0825 14 91.25 14H24.75Z" fill="#F9FAFC"/>
<path d="M58 56V70C54.134 70 51 73.134 51 77C51 80.866 54.134 84 58 84V98H24.75C19.9175 98 16 94.0825 16 89.25V22.75C16 17.9175 19.9175 14 24.75 14H91.25C96.0825 14 100 17.9175 100 22.75V56H86C86 59.866 82.866 63 79 63C75.134 63 72 59.866 72 56H58ZM58 56H44C44 52.134 40.866 49 37 49C33.134 49 30 52.134 30 56H16M58 56V42C61.866 42 65 38.866 65 35C65 31.134 61.866 28 58 28V14" stroke="#2B2727" stroke-width="3" stroke-linecap="round" stroke-linejoin="round"/>
<path d="M91.7642 77.9103C95.5575 78.2646 98.9149 75.424 99.2632 71.5658L113 72.8487L110.004 106.032C109.569 110.855 105.372 114.406 100.631 113.963L68.0058 110.916L69.2671 96.9439C65.4738 96.5896 62.681 93.1747 63.0293 89.3165C63.3776 85.4582 66.7351 82.6177 70.5284 82.9719L71.7897 69L85.5265 70.2829C85.1782 74.1411 87.9709 77.556 91.7642 77.9103Z" fill="#F9FAFC" stroke="#2B2727" stroke-width="3" stroke-linecap="round" stroke-linejoin="round"/>
</svg>
