<svg width="128" height="128" viewBox="0 0 128 128" fill="none" xmlns="http://www.w3.org/2000/svg">
<path d="M81.6348 64.132H80.1621C81.8981 64.131 83.305 62.7235 83.305 60.9873C83.305 59.2506 81.8971 57.8427 80.1604 57.8427L67.6268 57.8427C69.4987 52.9752 68.8193 54.6739 69.5966 52.2907C70.2177 50.3865 70.7597 48.2325 70.9525 47.4435C71.0033 47.2356 71.0593 47.03 71.0985 46.8195C71.4842 44.7473 70.2152 42.6947 68.1447 42.1399C65.9699 41.5572 63.7345 42.8478 63.1518 45.0226L62.3645 48.5588C62.3645 48.5588 61.0056 53.315 58.528 54.7399C56.8879 55.683 54.1946 57.2389 52.3551 60.3453H48.4356C47.3099 60.3453 46.3973 61.2579 46.3973 62.3836V78.0111C46.3973 79.1369 47.3099 80.0495 48.4356 80.0495H52.8932C54.5507 81.7481 56.8998 83 59.6221 83L78.776 83C80.5128 83 81.9207 81.5921 81.9207 79.8553C81.9207 78.1186 80.5128 76.7107 78.776 76.7107H81.6348C83.3716 76.7107 84.7795 75.3027 84.7795 73.566C84.7795 71.8292 83.3716 70.4213 81.6348 70.4213C83.3716 70.4213 84.7795 69.0134 84.7795 67.2767C84.7795 65.5399 83.3716 64.132 81.6348 64.132Z" fill="#F9FAFC"/>
<path d="M80.1621 64.132H81.6348C83.3716 64.132 84.7795 65.5399 84.7795 67.2767C84.7795 69.0134 83.3716 70.4213 81.6348 70.4213M80.1621 64.132C81.8981 64.131 83.305 62.7235 83.305 60.9873C83.305 59.2506 81.8971 57.8427 80.1604 57.8427L67.6268 57.8427C69.4987 52.9752 68.8193 54.6739 69.5966 52.2907C70.2177 50.3865 70.7597 48.2325 70.9525 47.4435C71.0033 47.2356 71.0593 47.03 71.0985 46.8195C71.4842 44.7473 70.2152 42.6947 68.1447 42.1399C65.9699 41.5572 63.7345 42.8478 63.1518 45.0226L62.3645 48.5588C62.3645 48.5588 61.0056 53.315 58.528 54.7399C56.8879 55.683 54.1946 57.2389 52.3551 60.3453H48.4356C47.3099 60.3453 46.3973 61.2579 46.3973 62.3836V78.0111C46.3973 79.1369 47.3099 80.0495 48.4356 80.0495C48.4356 80.0495 49.4437 80.0495 52.8932 80.0495C54.5507 81.7481 56.8998 83 59.6221 83L78.776 83C80.5128 83 81.9207 81.5921 81.9207 79.8553C81.9207 78.1186 80.5128 76.7107 78.776 76.7107M80.1621 64.132L73.8456 64.132M81.6348 70.4213H73.8456M81.6348 70.4213C83.3716 70.4213 84.7795 71.8292 84.7795 73.566C84.7795 75.3027 83.3716 76.7107 81.6348 76.7107H78.776M78.776 76.7107L73.8456 76.7107" stroke="#2B2727" stroke-width="3" stroke-linecap="round" stroke-linejoin="round"/>
<rect x="43" y="58.3071" width="6.11509" height="23.7809" rx="3" fill="#F9FAFC" stroke="#2B2727" stroke-width="3" stroke-linecap="round" stroke-linejoin="round"/>
<path d="M64.5 106.183C41.0279 106.183 22 87.1552 22 63.6831C22 48.8334 29.6159 35.7624 41.1549 28.1632M64.5 106.183L55.5211 113.366M64.5 106.183L56.7183 97.2042M64.5 21.1831C87.9721 21.1831 107 40.211 107 63.6831C107 78.5328 99.3841 91.6037 87.8451 99.203M64.5 21.1831L73.4789 14M64.5 21.1831L72.2817 30.162" stroke="#2B2727" stroke-width="3" stroke-linecap="round" stroke-linejoin="round"/>
</svg>
