<svg width="128" height="128" viewBox="0 0 128 128" fill="none" xmlns="http://www.w3.org/2000/svg">
<path d="M64.5 106.183C41.0279 106.183 22 87.1552 22 63.6831C22 48.8334 29.6159 35.7624 41.1549 28.1632M64.5 106.183L55.5211 113.366M64.5 106.183L56.7183 97.2042M64.5 21.1831C87.9721 21.1831 107 40.211 107 63.6831C107 78.5328 99.3841 91.6037 87.8451 99.203M64.5 21.1831L73.4789 14M64.5 21.1831L72.2817 30.162" stroke="#2B2727" stroke-width="3" stroke-linecap="round" stroke-linejoin="round"/>
<path d="M41.1549 58.2962C41.1549 54.9438 41.1549 53.2676 41.8073 51.9871C42.3812 50.8608 43.297 49.9451 44.4233 49.3712C45.7037 48.7188 47.3799 48.7188 50.7324 48.7188H77.0704C80.4228 48.7188 82.099 48.7188 83.3795 49.3712C84.5058 49.9451 85.4216 50.8608 85.9954 51.9871C86.6479 53.2676 86.6479 54.9438 86.6479 58.2962V69.0709C86.6479 72.4233 86.6479 74.0995 85.9954 75.38C85.4216 76.5063 84.5058 77.422 83.3795 77.9959C82.099 78.6483 80.4228 78.6483 77.0704 78.6483H50.7324C47.3799 78.6483 45.7037 78.6483 44.4233 77.9959C43.297 77.422 42.3812 76.5063 41.8073 75.38C41.1549 74.0995 41.1549 72.4233 41.1549 69.0709V58.2962Z" fill="#F9FAFC"/>
<rect x="42" y="49" width="46" height="30" rx="6" fill="#F9FAFC"/>
<path d="M77.9155 49C81.2679 49 82.9441 49 84.2246 49.6524C85.3509 50.2263 86.2666 51.142 86.8405 52.2684C87.493 53.5488 87.493 55.225 87.493 58.5775V69.3521C87.493 72.7045 87.493 74.3808 86.8405 75.6612C86.2666 76.7875 85.3509 77.7033 84.2246 78.2772C82.9441 78.9296 81.2679 78.9296 77.9155 78.9296H51.5775C48.225 78.9296 46.5488 78.9296 45.2684 78.2772C44.142 77.7033 43.2263 76.7875 42.6524 75.6612C42 74.3808 42 72.7045 42 69.3521V58.5775C42 55.225 42 53.5488 42.6524 52.2684C43.2263 51.142 44.142 50.2263 45.2684 49.6524C46.5488 49 48.225 49 51.5775 49H64.7465" stroke="#2B2727" stroke-width="3" stroke-linecap="round" stroke-linejoin="round"/>
<path d="M53 72L53 70M59 72L59 62M65 72V65M71 72V60M77 72V56" stroke="#2B2727" stroke-width="3" stroke-linecap="round" stroke-linejoin="round"/>
</svg>
