<svg width="128" height="128" viewBox="0 0 128 128" fill="none" xmlns="http://www.w3.org/2000/svg">
<path fill-rule="evenodd" clip-rule="evenodd" d="M10.2179 27.8771C9 30.8174 9 34.5449 9 42C9 49.4551 9 53.1826 10.2179 56.1229C11.8418 60.0434 14.9566 63.1582 18.8771 64.7821C21.8174 66 25.5449 66 33 66H34.0864C33.2497 68.5458 31.7142 71.4171 29 73.3767C37.4452 75.4506 43.6263 72.1867 46.5025 66H74C81.4551 66 85.1826 66 88.1229 64.7821C92.0434 63.1582 95.1582 60.0434 96.7821 56.1229C98 53.1826 98 49.4551 98 42C98 34.5449 98 30.8174 96.7821 27.8771C95.1582 23.9566 92.0434 20.8418 88.1229 19.2179C85.1826 18 81.4551 18 74 18H33C25.5449 18 21.8174 18 18.8771 19.2179C14.9566 20.8418 11.8418 23.9566 10.2179 27.8771Z" fill="#F9FAFC"/>
<path d="M10.2179 27.8771L8.83211 27.303H8.83211L10.2179 27.8771ZM10.2179 56.1229L8.83211 56.697H8.83211L10.2179 56.1229ZM18.8771 64.7821L18.303 66.1679H18.303L18.8771 64.7821ZM34.0864 66L35.5114 66.4683C35.6616 66.0113 35.5835 65.51 35.3014 65.1204C35.0193 64.7307 34.5674 64.5 34.0864 64.5V66ZM29 73.3767L28.122 72.1605C27.6479 72.5028 27.4159 73.0894 27.5276 73.6633C27.6394 74.2372 28.0744 74.694 28.6423 74.8334L29 73.3767ZM46.5025 66V64.5C45.9189 64.5 45.3883 64.8385 45.1423 65.3676L46.5025 66ZM88.1229 64.7821L88.697 66.1679L88.1229 64.7821ZM96.7821 56.1229L98.1679 56.697L96.7821 56.1229ZM96.7821 27.8771L98.1679 27.303L96.7821 27.8771ZM88.1229 19.2179L88.697 17.8321V17.8321L88.1229 19.2179ZM18.8771 19.2179L18.303 17.8321V17.8321L18.8771 19.2179ZM10.5 42C10.5 38.2519 10.5008 35.516 10.6488 33.3476C10.7958 31.1927 11.0831 29.708 11.6037 28.4511L8.83211 27.303C8.13482 28.9864 7.81317 30.8357 7.65572 33.1434C7.49919 35.4376 7.5 38.293 7.5 42H10.5ZM11.6037 55.5489C11.0831 54.292 10.7958 52.8073 10.6488 50.6524C10.5008 48.484 10.5 45.7481 10.5 42H7.5C7.5 45.707 7.49919 48.5624 7.65572 50.8566C7.81317 53.1643 8.13482 55.0136 8.83211 56.697L11.6037 55.5489ZM19.4511 63.3963C15.8982 61.9246 13.0754 59.1018 11.6037 55.5489L8.83211 56.697C10.6083 60.985 14.015 64.3917 18.303 66.1679L19.4511 63.3963ZM33 64.5C29.2519 64.5 26.516 64.4992 24.3476 64.3512C22.1927 64.2042 20.708 63.9169 19.4511 63.3963L18.303 66.1679C19.9864 66.8652 21.8357 67.1868 24.1434 67.3443C26.4376 67.5008 29.293 67.5 33 67.5V64.5ZM34.0864 64.5H33V67.5H34.0864V64.5ZM29.878 74.5928C32.9387 72.3831 34.6172 69.1891 35.5114 66.4683L32.6614 65.5317C31.8822 67.9024 30.4897 70.4511 28.122 72.1605L29.878 74.5928ZM45.1423 65.3676C43.8389 68.1712 41.821 70.2514 39.2249 71.4178C36.6242 72.5863 33.3187 72.8927 29.3577 71.92L28.6423 74.8334C33.1266 75.9346 37.1342 75.646 40.4544 74.1543C43.7792 72.6605 46.2899 70.0155 47.8627 66.6324L45.1423 65.3676ZM74 64.5H46.5025V67.5H74V64.5ZM87.5489 63.3963C86.292 63.9169 84.8073 64.2042 82.6524 64.3512C80.484 64.4992 77.7481 64.5 74 64.5V67.5C77.707 67.5 80.5624 67.5008 82.8566 67.3443C85.1643 67.1868 87.0135 66.8652 88.697 66.1679L87.5489 63.3963ZM95.3963 55.5489C93.9246 59.1018 91.1018 61.9246 87.5489 63.3963L88.697 66.1679C92.9849 64.3917 96.3918 60.985 98.1679 56.697L95.3963 55.5489ZM96.5 42C96.5 45.7481 96.4992 48.484 96.3512 50.6524C96.2042 52.8073 95.9169 54.292 95.3963 55.5489L98.1679 56.697C98.8652 55.0136 99.1868 53.1643 99.3443 50.8566C99.5008 48.5624 99.5 45.707 99.5 42H96.5ZM95.3963 28.4511C95.9169 29.708 96.2042 31.1927 96.3512 33.3476C96.4992 35.516 96.5 38.2519 96.5 42H99.5C99.5 38.293 99.5008 35.4376 99.3443 33.1434C99.1868 30.8357 98.8652 28.9864 98.1679 27.303L95.3963 28.4511ZM87.5489 20.6037C91.1018 22.0754 93.9246 24.8982 95.3963 28.4511L98.1679 27.303C96.3918 23.015 92.9849 19.6083 88.697 17.8321L87.5489 20.6037ZM74 19.5C77.7481 19.5 80.484 19.5008 82.6524 19.6488C84.8073 19.7958 86.292 20.0831 87.5489 20.6037L88.697 17.8321C87.0135 17.1348 85.1643 16.8132 82.8566 16.6557C80.5624 16.4992 77.707 16.5 74 16.5V19.5ZM33 19.5H74V16.5H33V19.5ZM19.4511 20.6037C20.708 20.0831 22.1927 19.7958 24.3476 19.6488C26.516 19.5008 29.2519 19.5 33 19.5V16.5C29.293 16.5 26.4376 16.4992 24.1434 16.6557C21.8357 16.8132 19.9864 17.1348 18.303 17.8321L19.4511 20.6037ZM11.6037 28.4511C13.0754 24.8982 15.8982 22.0754 19.4511 20.6037L18.303 17.8321C14.015 19.6083 10.6083 23.015 8.83211 27.303L11.6037 28.4511Z" fill="#2B2727"/>
<path fill-rule="evenodd" clip-rule="evenodd" d="M56.689 70.3554C56 72.6266 56 75.4177 56 81C56 86.5823 56 89.3734 56.689 91.6446C58.2402 96.7582 62.2418 100.76 67.3554 102.311C69.6266 103 72.4177 103 78 103H91.0994C93.3153 108.567 98.6925 112 105.5 112C104.181 109.362 103.558 105.907 103.264 102.928C105.094 102.847 106.442 102.676 107.645 102.311C112.758 100.76 116.76 96.7582 118.311 91.6446C119 89.3734 119 86.5823 119 81C119 75.4177 119 72.6266 118.311 70.3554C116.76 65.2418 112.758 61.2402 107.645 59.689C105.373 59 102.582 59 97 59H78C72.4177 59 69.6266 59 67.3554 59.689C62.2418 61.2402 58.2402 65.2418 56.689 70.3554Z" fill="#F9FAFC"/>
<path d="M56.689 70.3554L55.2535 69.92L56.689 70.3554ZM56.689 91.6446L58.1244 91.2091L56.689 91.6446ZM67.3554 102.311L66.92 103.746L67.3554 102.311ZM91.0994 103L92.4931 102.445C92.2659 101.875 91.7137 101.5 91.0994 101.5V103ZM105.5 112V113.5C106.02 113.5 106.503 113.231 106.776 112.789C107.049 112.346 107.074 111.794 106.842 111.329L105.5 112ZM103.264 102.928L103.198 101.43C102.786 101.448 102.4 101.634 102.13 101.946C101.86 102.257 101.73 102.666 101.771 103.076L103.264 102.928ZM107.645 102.311L107.209 100.876L107.645 102.311ZM118.311 91.6446L119.746 92.08V92.08L118.311 91.6446ZM118.311 70.3554L119.746 69.92L118.311 70.3554ZM107.645 59.689L107.209 61.1244L107.645 59.689ZM67.3554 59.689L66.92 58.2535L67.3554 59.689ZM57.5 81C57.5 75.3086 57.5163 72.7955 58.1244 70.7909L55.2535 69.92C54.4837 72.4578 54.5 75.5269 54.5 81H57.5ZM58.1244 91.2091C57.5163 89.2045 57.5 86.6914 57.5 81H54.5C54.5 86.4731 54.4837 89.5422 55.2535 92.08L58.1244 91.2091ZM67.7909 100.876C63.1567 99.4699 59.5301 95.8433 58.1244 91.2091L55.2535 92.08C56.9502 97.673 61.327 102.05 66.92 103.746L67.7909 100.876ZM78 101.5C72.3086 101.5 69.7955 101.484 67.7909 100.876L66.92 103.746C69.4578 104.516 72.5269 104.5 78 104.5V101.5ZM91.0994 101.5H78V104.5H91.0994V101.5ZM89.7058 103.555C92.1791 109.769 98.1644 113.5 105.5 113.5V110.5C99.2206 110.5 94.4515 107.366 92.4931 102.445L89.7058 103.555ZM106.842 111.329C105.648 108.942 105.046 105.71 104.756 102.781L101.771 103.076C102.07 106.105 102.714 109.782 104.158 112.671L106.842 111.329ZM107.209 100.876C106.181 101.187 104.977 101.351 103.198 101.43L103.33 104.427C105.212 104.344 106.703 104.164 108.08 103.746L107.209 100.876ZM116.876 91.2091C115.47 95.8433 111.843 99.4699 107.209 100.876L108.08 103.746C113.673 102.05 118.05 97.673 119.746 92.08L116.876 91.2091ZM117.5 81C117.5 86.6914 117.484 89.2045 116.876 91.2091L119.746 92.08C120.516 89.5422 120.5 86.4731 120.5 81H117.5ZM116.876 70.7909C117.484 72.7955 117.5 75.3086 117.5 81H120.5C120.5 75.5269 120.516 72.4578 119.746 69.92L116.876 70.7909ZM107.209 61.1244C111.843 62.5301 115.47 66.1567 116.876 70.7909L119.746 69.92C118.05 64.327 113.673 59.9502 108.08 58.2535L107.209 61.1244ZM97 60.5C102.691 60.5 105.205 60.5163 107.209 61.1244L108.08 58.2535C105.542 57.4837 102.473 57.5 97 57.5V60.5ZM78 60.5H97V57.5H78V60.5ZM67.7909 61.1244C69.7955 60.5163 72.3086 60.5 78 60.5V57.5C72.5269 57.5 69.4578 57.4837 66.92 58.2535L67.7909 61.1244ZM58.1244 70.7909C59.5301 66.1567 63.1567 62.5301 67.7909 61.1244L66.92 58.2535C61.327 59.9502 56.9502 64.327 55.2535 69.92L58.1244 70.7909Z" fill="#2B2727"/>
</svg>
