<svg width="128" height="128" viewBox="0 0 128 128" fill="none" xmlns="http://www.w3.org/2000/svg">
<circle cx="64.5" cy="73.5" r="35.5" stroke="#2B2727" stroke-width="3" stroke-linejoin="round"/>
<circle cx="64.5" cy="38.5" r="21.5" fill="#F9FAFC" stroke="#2B2727" stroke-width="3" stroke-linejoin="round"/>
<path d="M44 39.4719C46.3791 37.0862 46.8549 34.7004 50.6615 34.7004C54.4681 34.7004 55.4197 37.5633 55.8955 38.0405C56.3714 38.5176 59.2263 37.0862 58.2746 33.2689C57.323 29.4517 56.8472 26.5888 58.2746 25.6345C59.7021 24.6802 62.557 20.3858 63.0329 18M55.8955 42.3348C55.1025 41.2215 53.1358 38.9948 51.6131 38.9948C49.7099 38.9948 48.7582 40.9034 50.1857 42.3348C51.6131 43.7663 51.1373 44.2435 53.0406 44.7206C54.5632 45.1023 55.5783 43.2891 55.8955 42.3348ZM61.1296 38.9948C61.1296 38.0405 63.699 35.6547 64.4603 33.7461C65.412 31.3603 68.2669 29.4516 68.7427 29.9288C69.2185 30.4059 69.2185 36.6089 68.7427 38.0404C68.2669 39.4718 66.3636 42.3348 65.412 42.3348C64.6507 42.3348 61.1296 39.9491 61.1296 38.9948ZM59.2263 44.7206C59.8379 43.9539 60.8441 45.6749 63.5087 45.6749C66.8394 45.6749 69.2185 44.2435 70.1702 45.6749C71.1218 47.1064 69.9712 48.7631 68.7427 49.4922C67.7192 50.0996 64.9042 50.1426 63.5087 49.4922C61.4468 48.6969 57.7037 46.6292 59.2263 44.7206ZM77.3075 29.9289C76.0387 29.6107 73.5009 29.5471 73.5009 31.8375C73.5009 34.7004 72.0735 39.9492 73.5009 40.4263C74.9284 40.9035 76.3559 40.9035 76.3559 38.9949C76.3559 37.0863 77.7833 38.9949 78.735 38.9949C79.6866 38.9949 80.1624 35.1776 78.735 34.7005C77.3075 34.2233 78.2591 31.8376 79.6866 30.8832C80.8286 30.1197 78.5764 29.9289 77.3075 29.9289ZM73.9768 45.1979C75.4042 44.2436 78.735 43.2893 78.735 44.2436C78.735 45.1979 78.735 50.4466 76.3559 49.9694C74.4526 49.5877 73.9768 46.6293 73.9768 45.1979Z" stroke="#2B2727" stroke-width="2" stroke-linecap="round" stroke-linejoin="round"/>
<circle cx="94.5" cy="90.5" r="21.5" fill="#F9FAFC" stroke="#2B2727" stroke-width="3" stroke-linejoin="round"/>
<path d="M101.11 86.3827C101.275 85.8565 101.364 85.2983 101.364 84.72C101.364 81.5609 98.718 79 95.4545 79C92.291 79 89.7081 81.4064 89.5528 84.4314C86.943 85.0247 85 87.2927 85 90C85 93.1591 87.6456 95.72 90.9091 95.72C92.0828 95.72 93.1765 95.3888 94.096 94.8176C95.1436 96.4178 96.9891 97.48 99.0909 97.48C102.354 97.48 105 94.9191 105 91.76C105 89.2874 103.379 87.1813 101.11 86.3827Z" fill="#F9FAFC"/>
<path d="M95 101V95.8876M101.11 86.3827C101.275 85.8565 101.364 85.2983 101.364 84.72C101.364 81.5609 98.718 79 95.4545 79C92.291 79 89.7081 81.4064 89.5528 84.4314C86.943 85.0247 85 87.2927 85 90C85 93.1591 87.6456 95.72 90.9091 95.72C92.0828 95.72 93.1765 95.3888 94.096 94.8176C95.1436 96.4178 96.9891 97.48 99.0909 97.48C102.354 97.48 105 94.9191 105 91.76C105 89.2874 103.379 87.1813 101.11 86.3827Z" stroke="#2B2727" stroke-width="2" stroke-linecap="round" stroke-linejoin="round"/>
<path d="M56 90.5C56 102.374 46.3741 112 34.5 112C22.6259 112 13 102.374 13 90.5C13 78.6259 22.6259 69 34.5 69C46.3741 69 56 78.6259 56 90.5Z" fill="#F9FAFC" stroke="#2B2727" stroke-width="3" stroke-linejoin="round"/>
<path d="M38.1907 86.511C38.1907 89.0023 36.1214 91.0219 33.5689 91.0219C31.0163 91.0219 28.947 89.0023 28.947 86.511C28.947 84.0196 31.0163 82 33.5689 82C36.1214 82 38.1907 84.0196 38.1907 86.511Z" fill="#F9FAFC"/>
<path d="M26 100C27.6723 95.9345 30.4389 93.2774 33.5689 93.2774C36.6144 93.2774 39.3159 95.7931 41 99.6741M38.1907 86.511C38.1907 89.0023 36.1214 91.0219 33.5689 91.0219C31.0163 91.0219 28.947 89.0023 28.947 86.511C28.947 84.0196 31.0163 82 33.5689 82C36.1214 82 38.1907 84.0196 38.1907 86.511Z" stroke="#2B2727" stroke-width="2" stroke-linejoin="round"/>
</svg>
