<svg width="128" height="128" viewBox="0 0 128 128" fill="none" xmlns="http://www.w3.org/2000/svg">
<path d="M34.0822 107.088C32.4032 107.384 31.2326 107.589 30.3082 107.676C29.4014 107.76 28.8638 107.715 28.4398 107.585C27.531 107.307 26.7335 106.749 26.1616 105.99C25.8948 105.636 25.668 105.146 25.4374 104.265C25.2023 103.367 24.9947 102.197 24.6987 100.518L13.2775 35.745C12.9814 34.066 12.7762 32.8953 12.69 31.971C12.6054 31.0642 12.651 30.5266 12.7806 30.1026C13.0585 29.1938 13.6169 28.3963 14.3758 27.8244C14.7299 27.5576 15.2195 27.3308 16.1006 27.1002C16.9987 26.8651 18.1689 26.6575 19.8479 26.3615L55.767 20.028C57.446 19.7319 58.6166 19.5267 59.5409 19.4405C60.4478 19.3559 60.9854 19.4015 61.4094 19.5311C62.3181 19.8089 63.1156 20.3674 63.6875 21.1263C63.9544 21.4804 64.1811 21.97 64.4118 22.8511C64.6469 23.7491 64.8544 24.9194 65.1504 26.5984L76.5716 91.3712C76.8677 93.0502 77.0729 94.2208 77.1591 95.1452C77.2437 96.052 77.1981 96.5896 77.0685 97.0136C76.7907 97.9224 76.2323 98.7199 75.4733 99.2918C75.1192 99.5586 74.6296 99.7853 73.7486 100.016C72.8505 100.251 71.6803 100.459 70.0013 100.755L34.0822 107.088Z" fill="#F9FAFC" stroke="#2B2727" stroke-width="3" stroke-linejoin="round"/>
<g clip-path="url(#clip0_80_31833)">
<path d="M42.4054 60.9403C42.6973 62.3364 43.9276 63.2937 45.2998 63.3009C45.4349 63.3016 45.571 63.2948 45.7078 63.2778C45.8295 63.2626 45.9066 63.1443 45.8815 63.0245L45.7158 62.232C45.6908 62.1123 45.573 62.0371 45.4507 62.0458C45.3089 62.056 45.169 62.0479 45.033 62.025C44.3542 61.9109 43.782 61.3975 43.6328 60.6836C43.4383 59.7534 44.0351 58.842 44.9662 58.6472C45.8974 58.4525 46.8094 59.0485 47.004 59.9787L48.476 67.0188C48.5051 67.158 48.6563 67.2342 48.7838 67.1706C49.0508 67.0376 49.3085 66.8908 49.5547 66.7295C49.6296 66.6804 49.6655 66.5902 49.6472 66.5028L48.2295 59.7225C47.8936 58.1158 46.3186 57.0866 44.7102 57.4229C43.102 57.7592 42.0694 59.3336 42.4054 60.9403Z" fill="#2B2727"/>
<path d="M40.107 61.4208C40.6648 64.0885 43.1342 65.8651 45.7862 65.6276C45.9202 65.6155 46.0542 65.5995 46.1886 65.5779C46.3097 65.5584 46.3867 65.4405 46.3616 65.3207L46.1963 64.5301C46.1713 64.4103 46.0537 64.3341 45.9322 64.3515C45.7968 64.3709 45.6619 64.3827 45.5274 64.3898C43.5567 64.4938 41.7486 63.1546 41.3325 61.1646C40.8728 58.9659 42.2853 56.8112 44.4861 56.3511C46.687 55.8909 48.8426 57.2995 49.3023 59.4982L50.5512 65.4708C50.5868 65.6412 50.7954 65.7048 50.9151 65.578C51.166 65.3122 51.3977 65.0294 51.6075 64.7315C51.6423 64.6821 51.6545 64.6205 51.6421 64.5614L50.5298 59.2415C49.9286 56.3663 47.1078 54.523 44.2297 55.1249C41.3518 55.7266 39.5058 58.5456 40.107 61.4208Z" fill="#2B2727"/>
<path d="M37.8277 61.8974C38.3151 64.2283 39.8132 66.089 41.77 67.1162C41.9804 67.2266 42.1968 67.3281 42.4171 67.4188C42.4315 67.4247 42.446 67.4297 42.4604 67.4356C42.661 67.5168 42.8659 67.5876 43.0735 67.6518C43.1101 67.663 43.1456 67.6761 43.1824 67.6867C43.37 67.7416 43.5612 67.7855 43.7534 67.8261C43.8107 67.838 43.8686 67.851 43.9263 67.8616C44.0842 67.8912 44.243 67.9134 44.4034 67.933C44.5054 67.9452 44.6083 67.9581 44.7112 67.9662C44.8201 67.975 44.9294 67.9771 45.0391 67.9812C45.1876 67.9864 45.3353 67.993 45.4851 67.9895C45.5527 67.9881 45.6218 67.9798 45.6896 67.9766C45.8777 67.9672 46.0667 67.9554 46.2561 67.9318C46.26 67.9313 46.264 67.9318 46.2679 67.9313C46.4014 67.9145 46.535 67.8966 46.6688 67.8744C46.7898 67.8543 46.8668 67.7366 46.8417 67.6168L46.6764 66.8262C46.6514 66.7064 46.5338 66.6301 46.4129 66.6508C46.2791 66.6738 46.1456 66.6922 46.0119 66.7069C42.7651 67.064 39.7158 64.9054 39.0342 61.6452C38.3092 58.178 40.5351 54.7787 44.0056 54.0531C47.4762 53.3274 50.8777 55.55 51.6026 59.0172L52.3157 62.428C52.3607 62.6431 52.6446 62.6632 52.7056 62.452C53.0073 61.4061 53.0867 60.2821 52.9083 59.1443L52.8281 58.7609C52.0158 54.8762 48.3928 52.3007 44.5254 52.7083C44.274 52.7348 44.0215 52.7725 43.7688 52.8247C43.5095 52.8789 43.2549 52.9472 43.0078 53.0256C39.3011 54.2017 37.0154 58.0127 37.8277 61.8974Z" fill="#2B2727"/>
</g>
<path d="M107.5 41V101.5H96.5V54C96.5 53.1716 95.8284 52.5 95 52.5H32C31.1716 52.5 30.5 53.1716 30.5 54V101.5H20.5V40.5C20.5 40.012 20.5008 39.8403 20.5096 39.7057C20.6573 37.4523 22.4523 35.6573 24.7057 35.5096C24.8403 35.5008 25.012 35.5 25.5 35.5C25.988 35.5 26.1597 35.5008 26.2943 35.5096C28.5477 35.6573 30.3427 37.4523 30.4904 39.7057C30.4992 39.8403 30.5 40.012 30.5 40.5V42C30.5 42.8284 31.1716 43.5 32 43.5H95C95.8284 43.5 96.5 42.8284 96.5 42V41C96.5 40.0235 96.5032 39.6805 96.5385 39.4126C96.8043 37.3933 98.3933 35.8043 100.413 35.5385C100.68 35.5032 101.023 35.5 102 35.5C102.977 35.5 103.32 35.5032 103.587 35.5385C105.607 35.8043 107.196 37.3933 107.462 39.4126C107.497 39.6805 107.5 40.0235 107.5 41Z" fill="#F9FAFC" stroke="#2B2727" stroke-width="3" stroke-linejoin="round"/>
<rect x="69.4759" y="106.963" width="68.7608" height="31.7931" rx="4.5" transform="rotate(-80 69.4759 106.963)" fill="#F9FAFC" stroke="#2B2727" stroke-width="3"/>
<mask id="path-5-inside-1_80_31833" fill="white">
<path d="M77.2653 103.236C76.1775 103.044 75.4512 102.007 75.643 100.919L75.8924 99.5042C76.0842 98.4165 77.1215 97.6901 78.2093 97.8819L79.6239 98.1314C80.7117 98.3232 81.438 99.3605 81.2462 100.448L80.9968 101.863C80.805 102.951 79.7677 103.677 78.6799 103.485L77.2653 103.236Z"/>
<path d="M78.587 95.7402C77.4993 95.5484 76.7729 94.5111 76.9647 93.4233L77.2142 92.0087C77.406 90.9209 78.4433 90.1946 79.5311 90.3864L80.9457 90.6358C82.0335 90.8276 82.7598 91.8649 82.568 92.9527L82.3186 94.3673C82.1268 95.4551 81.0894 96.1814 80.0016 95.9896L78.587 95.7402Z"/>
<path d="M79.9086 88.2449C78.8208 88.0531 78.0945 87.0158 78.2863 85.928L78.5357 84.5134C78.7275 83.4256 79.7648 82.6993 80.8526 82.8911L82.2672 83.1405C83.355 83.3323 84.0813 84.3696 83.8895 85.4574L83.6401 86.872C83.4483 87.9598 82.411 88.6862 81.3232 88.4944L79.9086 88.2449Z"/>
<path d="M81.2303 80.7495C80.1425 80.5577 79.4161 79.5204 79.6079 78.4326L79.8574 77.018C80.0492 75.9302 81.0865 75.2039 82.1743 75.3957L83.5889 75.6451C84.6767 75.8369 85.403 76.8742 85.2112 77.962L84.9618 79.3766C84.77 80.4644 83.7326 81.1907 82.6448 80.9989L81.2303 80.7495Z"/>
<path d="M82.552 73.2542C81.4643 73.0624 80.7379 72.0251 80.9297 70.9373L81.1792 69.5227C81.371 68.4349 82.4083 67.7086 83.4961 67.9004L84.9107 68.1498C85.9985 68.3416 86.7248 69.3789 86.533 70.4667L86.2836 71.8813C86.0917 72.9691 85.0544 73.6954 83.9666 73.5036L82.552 73.2542Z"/>
<path d="M83.8736 65.7587C82.7858 65.5669 82.0594 64.5296 82.2512 63.4418L82.5007 62.0272C82.6925 60.9394 83.7298 60.213 84.8176 60.4048L86.2322 60.6543C87.32 60.8461 88.0463 61.8834 87.8545 62.9712L87.6051 64.3858C87.4133 65.4736 86.3759 66.1999 85.2882 66.0081L83.8736 65.7587Z"/>
<path d="M85.1951 58.2636C84.1073 58.0718 83.381 57.0345 83.5728 55.9467L83.8222 54.5321C84.014 53.4443 85.0514 52.718 86.1392 52.9098L87.5538 53.1592C88.6415 53.351 89.3679 54.3884 89.1761 55.4762L88.9266 56.8908C88.7348 57.9785 87.6975 58.7049 86.6097 58.5131L85.1951 58.2636Z"/>
<path d="M86.5169 50.7681C85.4291 50.5763 84.7028 49.539 84.8946 48.4512L85.144 47.0366C85.3358 45.9488 86.3731 45.2225 87.4609 45.4143L88.8755 45.6637C89.9633 45.8555 90.6896 46.8928 90.4978 47.9806L90.2484 49.3952C90.0566 50.483 89.0193 51.2093 87.9315 51.0175L86.5169 50.7681Z"/>
<path d="M84.7608 104.557C83.673 104.365 82.9467 103.328 83.1385 102.24L83.3879 100.826C83.5797 99.7377 84.617 99.0114 85.7048 99.2032L87.1194 99.4526C88.2072 99.6444 88.9335 100.682 88.7417 101.77L88.4923 103.184C88.3005 104.272 87.2632 104.998 86.1754 104.806L84.7608 104.557Z"/>
<path d="M86.0824 97.062C84.9946 96.8702 84.2682 95.8329 84.46 94.7451L84.7095 93.3305C84.9013 92.2427 85.9386 91.5164 87.0264 91.7082L88.441 91.9576C89.5288 92.1494 90.2551 93.1867 90.0633 94.2745L89.8139 95.6891C89.6221 96.7769 88.5847 97.5032 87.4969 97.3114L86.0824 97.062Z"/>
<path d="M87.404 89.5666C86.3162 89.3748 85.5899 88.3375 85.7817 87.2497L86.0311 85.8351C86.2229 84.7473 87.2602 84.0209 88.348 84.2127L89.7626 84.4622C90.8504 84.654 91.5768 85.6913 91.385 86.7791L91.1355 88.1937C90.9437 89.2815 89.9064 90.0078 88.8186 89.816L87.404 89.5666Z"/>
<path d="M88.7257 82.0712C87.6379 81.8794 86.9115 80.842 87.1033 79.7542L87.3528 78.3397C87.5446 77.2519 88.5819 76.5255 89.6697 76.7173L91.0843 76.9668C92.1721 77.1586 92.8984 78.1959 92.7066 79.2837L92.4572 80.6983C92.2654 81.7861 91.2281 82.5124 90.1403 82.3206L88.7257 82.0712Z"/>
<path d="M90.0473 74.5759C88.9595 74.3841 88.2332 73.3467 88.425 72.259L88.6744 70.8444C88.8663 69.7566 89.9036 69.0302 90.9914 69.222L92.406 69.4715C93.4937 69.6633 94.2201 70.7006 94.0283 71.7884L93.7788 73.203C93.587 74.2908 92.5497 75.0171 91.4619 74.8253L90.0473 74.5759Z"/>
<path d="M91.3689 67.0805C90.2811 66.8887 89.5547 65.8513 89.7465 64.7636L89.996 63.349C90.1878 62.2612 91.2251 61.5348 92.3129 61.7266L93.7275 61.9761C94.8153 62.1679 95.5416 63.2052 95.3498 64.293L95.1004 65.7076C94.9086 66.7954 93.8713 67.5217 92.7835 67.3299L91.3689 67.0805Z"/>
<path d="M92.6906 59.5849C91.6028 59.3931 90.8765 58.3558 91.0683 57.268L91.3177 55.8534C91.5096 54.7656 92.5469 54.0393 93.6347 54.2311L95.0493 54.4805C96.137 54.6723 96.8634 55.7096 96.6716 56.7974L96.4221 58.212C96.2303 59.2998 95.193 60.0262 94.1052 59.8344L92.6906 59.5849Z"/>
<path d="M94.0121 52.0898C92.9243 51.898 92.1979 50.8606 92.3897 49.7729L92.6392 48.3583C92.831 47.2705 93.8683 46.5441 94.9561 46.7359L96.3707 46.9854C97.4585 47.1772 98.1848 48.2145 97.993 49.3023L97.7436 50.7169C97.5518 51.8047 96.5145 52.531 95.4267 52.3392L94.0121 52.0898Z"/>
<path d="M92.2561 105.879C91.1683 105.687 90.442 104.65 90.6338 103.562L90.8832 102.147C91.075 101.06 92.1123 100.333 93.2001 100.525L94.6147 100.775C95.7025 100.966 96.4288 102.004 96.237 103.091L95.9876 104.506C95.7958 105.594 94.7585 106.32 93.6707 106.128L92.2561 105.879Z"/>
<path d="M93.5777 98.3834C92.49 98.1916 91.7636 97.1543 91.9554 96.0665L98.813 57.1751C99.0048 56.0873 100.042 55.361 101.13 55.5528L102.545 55.8022C103.632 55.994 104.359 57.0313 104.167 58.1191L97.3093 97.0105C97.1174 98.0983 96.0801 98.8246 94.9923 98.6328L93.5777 98.3834Z"/>
<path d="M101.507 53.4113C100.42 53.2195 99.6932 52.1822 99.885 51.0944L100.134 49.6798C100.326 48.592 101.364 47.8657 102.451 48.0575L103.866 48.3069C104.954 48.4987 105.68 49.536 105.488 50.6238L105.239 52.0384C105.047 53.1262 104.01 53.8526 102.922 53.6607L101.507 53.4113Z"/>
</mask>
<path d="M77.2653 103.236C76.1775 103.044 75.4512 102.007 75.643 100.919L75.8924 99.5042C76.0842 98.4165 77.1215 97.6901 78.2093 97.8819L79.6239 98.1314C80.7117 98.3232 81.438 99.3605 81.2462 100.448L80.9968 101.863C80.805 102.951 79.7677 103.677 78.6799 103.485L77.2653 103.236Z" stroke="#2B2727" stroke-width="2" mask="url(#path-5-inside-1_80_31833)"/>
<path d="M78.587 95.7402C77.4993 95.5484 76.7729 94.5111 76.9647 93.4233L77.2142 92.0087C77.406 90.9209 78.4433 90.1946 79.5311 90.3864L80.9457 90.6358C82.0335 90.8276 82.7598 91.8649 82.568 92.9527L82.3186 94.3673C82.1268 95.4551 81.0894 96.1814 80.0016 95.9896L78.587 95.7402Z" stroke="#2B2727" stroke-width="2" mask="url(#path-5-inside-1_80_31833)"/>
<path d="M79.9086 88.2449C78.8208 88.0531 78.0945 87.0158 78.2863 85.928L78.5357 84.5134C78.7275 83.4256 79.7648 82.6993 80.8526 82.8911L82.2672 83.1405C83.355 83.3323 84.0813 84.3696 83.8895 85.4574L83.6401 86.872C83.4483 87.9598 82.411 88.6862 81.3232 88.4944L79.9086 88.2449Z" stroke="#2B2727" stroke-width="2" mask="url(#path-5-inside-1_80_31833)"/>
<path d="M81.2303 80.7495C80.1425 80.5577 79.4161 79.5204 79.6079 78.4326L79.8574 77.018C80.0492 75.9302 81.0865 75.2039 82.1743 75.3957L83.5889 75.6451C84.6767 75.8369 85.403 76.8742 85.2112 77.962L84.9618 79.3766C84.77 80.4644 83.7326 81.1907 82.6448 80.9989L81.2303 80.7495Z" stroke="#2B2727" stroke-width="2" mask="url(#path-5-inside-1_80_31833)"/>
<path d="M82.552 73.2542C81.4643 73.0624 80.7379 72.0251 80.9297 70.9373L81.1792 69.5227C81.371 68.4349 82.4083 67.7086 83.4961 67.9004L84.9107 68.1498C85.9985 68.3416 86.7248 69.3789 86.533 70.4667L86.2836 71.8813C86.0917 72.9691 85.0544 73.6954 83.9666 73.5036L82.552 73.2542Z" stroke="#2B2727" stroke-width="2" mask="url(#path-5-inside-1_80_31833)"/>
<path d="M83.8736 65.7587C82.7858 65.5669 82.0594 64.5296 82.2512 63.4418L82.5007 62.0272C82.6925 60.9394 83.7298 60.213 84.8176 60.4048L86.2322 60.6543C87.32 60.8461 88.0463 61.8834 87.8545 62.9712L87.6051 64.3858C87.4133 65.4736 86.3759 66.1999 85.2882 66.0081L83.8736 65.7587Z" stroke="#2B2727" stroke-width="2" mask="url(#path-5-inside-1_80_31833)"/>
<path d="M85.1951 58.2636C84.1073 58.0718 83.381 57.0345 83.5728 55.9467L83.8222 54.5321C84.014 53.4443 85.0514 52.718 86.1392 52.9098L87.5538 53.1592C88.6415 53.351 89.3679 54.3884 89.1761 55.4762L88.9266 56.8908C88.7348 57.9785 87.6975 58.7049 86.6097 58.5131L85.1951 58.2636Z" stroke="#2B2727" stroke-width="2" mask="url(#path-5-inside-1_80_31833)"/>
<path d="M86.5169 50.7681C85.4291 50.5763 84.7028 49.539 84.8946 48.4512L85.144 47.0366C85.3358 45.9488 86.3731 45.2225 87.4609 45.4143L88.8755 45.6637C89.9633 45.8555 90.6896 46.8928 90.4978 47.9806L90.2484 49.3952C90.0566 50.483 89.0193 51.2093 87.9315 51.0175L86.5169 50.7681Z" stroke="#2B2727" stroke-width="2" mask="url(#path-5-inside-1_80_31833)"/>
<path d="M84.7608 104.557C83.673 104.365 82.9467 103.328 83.1385 102.24L83.3879 100.826C83.5797 99.7377 84.617 99.0114 85.7048 99.2032L87.1194 99.4526C88.2072 99.6444 88.9335 100.682 88.7417 101.77L88.4923 103.184C88.3005 104.272 87.2632 104.998 86.1754 104.806L84.7608 104.557Z" stroke="#2B2727" stroke-width="2" mask="url(#path-5-inside-1_80_31833)"/>
<path d="M86.0824 97.062C84.9946 96.8702 84.2682 95.8329 84.46 94.7451L84.7095 93.3305C84.9013 92.2427 85.9386 91.5164 87.0264 91.7082L88.441 91.9576C89.5288 92.1494 90.2551 93.1867 90.0633 94.2745L89.8139 95.6891C89.6221 96.7769 88.5847 97.5032 87.4969 97.3114L86.0824 97.062Z" stroke="#2B2727" stroke-width="2" mask="url(#path-5-inside-1_80_31833)"/>
<path d="M87.404 89.5666C86.3162 89.3748 85.5899 88.3375 85.7817 87.2497L86.0311 85.8351C86.2229 84.7473 87.2602 84.0209 88.348 84.2127L89.7626 84.4622C90.8504 84.654 91.5768 85.6913 91.385 86.7791L91.1355 88.1937C90.9437 89.2815 89.9064 90.0078 88.8186 89.816L87.404 89.5666Z" stroke="#2B2727" stroke-width="2" mask="url(#path-5-inside-1_80_31833)"/>
<path d="M88.7257 82.0712C87.6379 81.8794 86.9115 80.842 87.1033 79.7542L87.3528 78.3397C87.5446 77.2519 88.5819 76.5255 89.6697 76.7173L91.0843 76.9668C92.1721 77.1586 92.8984 78.1959 92.7066 79.2837L92.4572 80.6983C92.2654 81.7861 91.2281 82.5124 90.1403 82.3206L88.7257 82.0712Z" stroke="#2B2727" stroke-width="2" mask="url(#path-5-inside-1_80_31833)"/>
<path d="M90.0473 74.5759C88.9595 74.3841 88.2332 73.3467 88.425 72.259L88.6744 70.8444C88.8663 69.7566 89.9036 69.0302 90.9914 69.222L92.406 69.4715C93.4937 69.6633 94.2201 70.7006 94.0283 71.7884L93.7788 73.203C93.587 74.2908 92.5497 75.0171 91.4619 74.8253L90.0473 74.5759Z" stroke="#2B2727" stroke-width="2" mask="url(#path-5-inside-1_80_31833)"/>
<path d="M91.3689 67.0805C90.2811 66.8887 89.5547 65.8513 89.7465 64.7636L89.996 63.349C90.1878 62.2612 91.2251 61.5348 92.3129 61.7266L93.7275 61.9761C94.8153 62.1679 95.5416 63.2052 95.3498 64.293L95.1004 65.7076C94.9086 66.7954 93.8713 67.5217 92.7835 67.3299L91.3689 67.0805Z" stroke="#2B2727" stroke-width="2" mask="url(#path-5-inside-1_80_31833)"/>
<path d="M92.6906 59.5849C91.6028 59.3931 90.8765 58.3558 91.0683 57.268L91.3177 55.8534C91.5096 54.7656 92.5469 54.0393 93.6347 54.2311L95.0493 54.4805C96.137 54.6723 96.8634 55.7096 96.6716 56.7974L96.4221 58.212C96.2303 59.2998 95.193 60.0262 94.1052 59.8344L92.6906 59.5849Z" stroke="#2B2727" stroke-width="2" mask="url(#path-5-inside-1_80_31833)"/>
<path d="M94.0121 52.0898C92.9243 51.898 92.1979 50.8606 92.3897 49.7729L92.6392 48.3583C92.831 47.2705 93.8683 46.5441 94.9561 46.7359L96.3707 46.9854C97.4585 47.1772 98.1848 48.2145 97.993 49.3023L97.7436 50.7169C97.5518 51.8047 96.5145 52.531 95.4267 52.3392L94.0121 52.0898Z" stroke="#2B2727" stroke-width="2" mask="url(#path-5-inside-1_80_31833)"/>
<path d="M92.2561 105.879C91.1683 105.687 90.442 104.65 90.6338 103.562L90.8832 102.147C91.075 101.06 92.1123 100.333 93.2001 100.525L94.6147 100.775C95.7025 100.966 96.4288 102.004 96.237 103.091L95.9876 104.506C95.7958 105.594 94.7585 106.32 93.6707 106.128L92.2561 105.879Z" stroke="#2B2727" stroke-width="2" mask="url(#path-5-inside-1_80_31833)"/>
<path d="M93.5777 98.3834C92.49 98.1916 91.7636 97.1543 91.9554 96.0665L98.813 57.1751C99.0048 56.0873 100.042 55.361 101.13 55.5528L102.545 55.8022C103.632 55.994 104.359 57.0313 104.167 58.1191L97.3093 97.0105C97.1174 98.0983 96.0801 98.8246 94.9923 98.6328L93.5777 98.3834Z" stroke="#2B2727" stroke-width="2" mask="url(#path-5-inside-1_80_31833)"/>
<path d="M101.507 53.4113C100.42 53.2195 99.6932 52.1822 99.885 51.0944L100.134 49.6798C100.326 48.592 101.364 47.8657 102.451 48.0575L103.866 48.3069C104.954 48.4987 105.68 49.536 105.488 50.6238L105.239 52.0384C105.047 53.1262 104.01 53.8526 102.922 53.6607L101.507 53.4113Z" stroke="#2B2727" stroke-width="2" mask="url(#path-5-inside-1_80_31833)"/>
<path d="M53.5 74.988C53.5 72.723 53.5012 71.1145 53.604 69.8558C53.7054 68.6145 53.8982 67.846 54.2085 67.2371C54.8316 66.014 55.826 65.0196 57.0491 64.3964C57.658 64.0862 58.4265 63.8934 59.6678 63.792C60.9265 63.6892 62.535 63.688 64.8 63.688H70.1058C72.3707 63.688 73.9792 63.6892 75.238 63.792C76.4792 63.8934 77.2477 64.0862 77.8567 64.3964C79.0797 65.0196 80.0741 66.014 80.6973 67.2371C81.0076 67.846 81.2003 68.6145 81.3017 69.8558C81.4046 71.1145 81.4057 72.723 81.4057 74.988V100.275C81.4057 102.54 81.4046 104.148 81.3017 105.407C81.2003 106.648 81.0076 107.417 80.6973 108.026C80.0741 109.249 79.0797 110.243 77.8567 110.867C77.2477 111.177 76.4792 111.37 75.238 111.471C73.9792 111.574 72.3707 111.575 70.1057 111.575H64.8C62.535 111.575 60.9265 111.574 59.6678 111.471C58.4265 111.37 57.658 111.177 57.0491 110.867C55.826 110.243 54.8316 109.249 54.2085 108.026C53.8982 107.417 53.7054 106.648 53.604 105.407C53.5012 104.148 53.5 102.54 53.5 100.275L53.5 74.988Z" fill="#F9FAFC" stroke="#2B2727" stroke-width="3" stroke-linejoin="round"/>
<path d="M64 68.8779L70.7606 68.8779" stroke="#2B2727" stroke-width="3" stroke-linecap="round"/>
<path d="M62 107.692L72.6238 107.692" stroke="#2B2727" stroke-linecap="round"/>
<path d="M20.5 82.4C20.5 81.2551 20.5012 80.4867 20.5495 79.895C20.5964 79.3207 20.6802 79.0461 20.7725 78.865C21.0122 78.3946 21.3946 78.0122 21.865 77.7725C22.0461 77.6802 22.3207 77.5964 22.895 77.5495C23.4867 77.5012 24.2551 77.5 25.4 77.5H102.6C103.745 77.5 104.513 77.5012 105.105 77.5495C105.679 77.5964 105.954 77.6802 106.135 77.7725C106.605 78.0122 106.988 78.3946 107.228 78.865C107.32 79.0461 107.404 79.3207 107.45 79.895C107.499 80.4867 107.5 81.2551 107.5 82.4V101.2C107.5 103.465 107.499 105.073 107.396 106.332C107.295 107.573 107.102 108.342 106.792 108.951C106.168 110.174 105.174 111.168 103.951 111.792C103.342 112.102 102.573 112.295 101.332 112.396C100.073 112.499 98.465 112.5 96.2 112.5H31.8C29.535 112.5 27.9265 112.499 26.6678 112.396C25.4265 112.295 24.658 112.102 24.0491 111.792C22.826 111.168 21.8316 110.174 21.2085 108.951C20.8982 108.342 20.7054 107.573 20.604 106.332C20.5012 105.073 20.5 103.465 20.5 101.2V82.4Z" fill="#F9FAFC" stroke="#2B2727" stroke-width="3" stroke-linejoin="round"/>
<path d="M19 95.5H109" stroke="#2B2727"/>
<defs>
<clipPath id="clip0_80_31833">
<rect width="16.3465" height="16.3465" fill="white" transform="translate(39 70) rotate(-101.81)"/>
</clipPath>
</defs>
</svg>
