<svg width="128" height="128" viewBox="0 0 128 128" fill="none" xmlns="http://www.w3.org/2000/svg">
<path fill-rule="evenodd" clip-rule="evenodd" d="M76.4831 20.8438C69.0366 20.8438 63 26.8804 63 34.3269C63 41.7734 69.0366 47.81 76.4831 47.81H84.3726C84.0839 49.3306 83.4393 51.1196 82 52.5C87.1858 52.5 89.8685 51.0461 91.1692 47.81H99.5169C106.963 47.81 113 41.7734 113 34.3269C113 26.8804 106.963 20.8438 99.5169 20.8438H88H76.4831Z" fill="#F9FAFC"/>
<path d="M84.3726 47.81L85.8463 48.0898C85.9296 47.6508 85.8129 47.1976 85.528 46.8534C85.243 46.5092 84.8194 46.31 84.3726 46.31V47.81ZM82 52.5L80.9617 51.4174C80.5197 51.8413 80.3798 52.4913 80.6083 53.0595C80.8367 53.6277 81.3876 54 82 54V52.5ZM91.1692 47.81V46.31C90.5568 46.31 90.0058 46.6824 89.7774 47.2506L91.1692 47.81ZM64.5 34.3269C64.5 27.7088 69.865 22.3438 76.4831 22.3438V19.3438C68.2082 19.3438 61.5 26.0519 61.5 34.3269H64.5ZM76.4831 46.31C69.865 46.31 64.5 40.945 64.5 34.3269H61.5C61.5 42.6019 68.2082 49.31 76.4831 49.31V46.31ZM84.3726 46.31H76.4831V49.31H84.3726V46.31ZM83.0383 53.5826C84.7864 51.9061 85.5257 49.7787 85.8463 48.0898L82.8989 47.5303C82.6422 48.8826 82.0923 50.3331 80.9617 51.4174L83.0383 53.5826ZM89.7774 47.2506C89.2442 48.5772 88.4763 49.4536 87.3512 50.0369C86.1715 50.6484 84.4775 51 82 51V54C84.7083 54 86.9485 53.6247 88.7318 52.7003C90.5697 51.7475 91.7935 50.279 92.561 48.3695L89.7774 47.2506ZM99.5169 46.31H91.1692V49.31H99.5169V46.31ZM111.5 34.3269C111.5 40.945 106.135 46.31 99.5169 46.31V49.31C107.792 49.31 114.5 42.6019 114.5 34.3269H111.5ZM99.5169 22.3438C106.135 22.3438 111.5 27.7088 111.5 34.3269H114.5C114.5 26.0519 107.792 19.3438 99.5169 19.3438V22.3438ZM88 22.3438H99.5169V19.3438H88V22.3438ZM76.4831 22.3438H88V19.3438H76.4831V22.3438Z" fill="#2B2727"/>
<path fill-rule="evenodd" clip-rule="evenodd" d="M29.8085 13C22.1823 13 16 19.1823 16 26.8085C16 34.4347 22.1823 40.617 29.8085 40.617H36.0307C37.4216 44.1111 40.7966 46.2655 45.0692 46.2655C44.2284 44.5841 43.8382 42.3734 43.657 40.4842C50.373 39.5485 55.5426 33.7822 55.5426 26.8085C55.5426 19.1823 49.3603 13 41.7341 13H29.8085Z" fill="#F9FAFC"/>
<path d="M36.0307 40.617L37.4243 40.0622C37.1971 39.4915 36.6449 39.117 36.0307 39.117V40.617ZM45.0692 46.2655V47.7655C45.589 47.7655 46.0718 47.4963 46.3451 47.0541C46.6184 46.6119 46.6433 46.0596 46.4108 45.5947L45.0692 46.2655ZM43.657 40.4842L43.45 38.9986C42.6542 39.1094 42.0871 39.8276 42.1638 40.6274L43.657 40.4842ZM17.5 26.8085C17.5 20.0107 23.0107 14.5 29.8085 14.5V11.5C21.3539 11.5 14.5 18.3539 14.5 26.8085H17.5ZM29.8085 39.117C23.0107 39.117 17.5 33.6063 17.5 26.8085H14.5C14.5 35.2632 21.3538 42.117 29.8085 42.117V39.117ZM36.0307 39.117H29.8085V42.117H36.0307V39.117ZM34.637 41.1718C36.2855 45.3127 40.2685 47.7655 45.0692 47.7655V44.7655C41.3246 44.7655 38.5578 42.9095 37.4243 40.0622L34.637 41.1718ZM46.4108 45.5947C45.697 44.1671 45.3267 42.1817 45.1501 40.341L42.1638 40.6274C42.3497 42.5652 42.7599 45.001 43.7275 46.9363L46.4108 45.5947ZM54.0426 26.8085C54.0426 33.0234 49.435 38.1647 43.45 38.9986L43.864 41.9698C51.311 40.9323 57.0426 34.541 57.0426 26.8085H54.0426ZM41.7341 14.5C48.5318 14.5 54.0426 20.0107 54.0426 26.8085H57.0426C57.0426 18.3539 50.1887 11.5 41.7341 11.5V14.5ZM29.8085 14.5H41.7341V11.5H29.8085V14.5Z" fill="#2B2727"/>
<circle cx="86.0572" cy="75.024" r="15.9945" fill="#F9FAFC" stroke="#2B2727" stroke-width="3" stroke-linecap="round" stroke-linejoin="round"/>
<rect x="71.1028" y="95.0786" width="29.3617" height="18.922" rx="5" fill="#F9FAFC" stroke="#2B2727" stroke-width="3" stroke-linecap="round" stroke-linejoin="round"/>
<path d="M88.3273 95.6438L82.9596 108.168L86.4362 111.389L89.9128 108.168L84.5452 95.6438" stroke="#2B2727" stroke-width="2" stroke-linecap="round" stroke-linejoin="round"/>
<path d="M31.1249 90.8862L31.1249 79.9858C31.1249 77.1872 31.1249 75.7879 31.6698 74.7183C32.1492 73.7775 32.9141 73.0126 33.8549 72.5332C34.9245 71.9883 36.3246 71.9883 39.1249 71.9883H56.8161C59.615 71.9883 61.0145 71.9883 62.0837 72.5329C63.0243 73.0119 63.7891 73.7763 64.2687 74.7166C64.8139 75.7856 64.8146 77.185 64.8161 79.9839L64.8221 90.8812C64.823 92.5302 64.8234 93.3547 64.5294 94.1745C64.2945 94.8292 63.7921 95.6057 63.2911 96.0881C62.6637 96.6923 62.0275 96.9776 60.7551 97.5482C57.3537 99.0737 52.7933 100.601 48.2926 100.601C43.7339 100.601 38.8232 99.034 35.22 97.4892C33.9685 96.9525 33.3427 96.6842 32.6993 96.079C32.1929 95.6028 31.6657 94.8032 31.4275 94.1501C31.1249 93.3202 31.1249 92.5089 31.1249 90.8862Z" fill="#F9FAFC" stroke="#2B2727" stroke-width="3" stroke-linecap="round" stroke-linejoin="round"/>
<rect x="34.9399" y="95.7964" width="26.2158" height="18.111" rx="5" fill="#F9FAFC" stroke="#2B2727" stroke-width="3" stroke-linecap="round" stroke-linejoin="round"/>
<path d="M64.8489 75.1743C64.8489 84.6593 57.2995 92.3485 47.9869 92.3485C38.6743 92.3485 31.1249 84.6593 31.1249 75.1743C31.1249 65.6892 38.6743 58 47.9869 58C57.2995 58 64.8489 65.6892 64.8489 75.1743Z" fill="#F9FAFC"/>
<path d="M64.8489 75.1743C64.8489 84.6593 57.2995 92.3485 47.9869 92.3485C38.6743 92.3485 31.1249 84.6593 31.1249 75.1743M64.8489 75.1743C64.8489 65.6892 57.2995 58 47.9869 58C38.6743 58 31.1249 65.6892 31.1249 75.1743M64.8489 75.1743C60.8984 75.643 56.2407 75.9234 51.7898 74.0159C47.5643 72.205 44.1091 67.8376 43.6153 66.1188C43.1157 68.0199 41.7895 70.5763 39.6183 72.2975C36.6206 74.674 32.6237 75.1743 31.1249 75.1743" stroke="#2B2727" stroke-width="3" stroke-linecap="round" stroke-linejoin="round"/>
</svg>
