<svg width="128" height="128" viewBox="0 0 128 128" fill="none" xmlns="http://www.w3.org/2000/svg">
<circle cx="64.0608" cy="28.0608" r="10.0608" fill="#F9FAFC" stroke="#2B2727" stroke-width="3"/>
<path d="M75 49.7748V105C75 107.761 72.7615 110 70 110H68.5C65.7386 110 63.5 107.761 63.5 105V104.25C63.5 107.425 60.9257 110 57.75 110C54.5744 110 52 107.425 52 104.25V50.0959L31.5141 31.1906C29.6045 29.4283 29.4851 26.4517 31.2474 24.5421C33.0096 22.6325 35.9863 22.513 37.8959 24.2753L59.2694 43.9998H67.3827L89.3158 23.7588C91.2254 21.9966 94.2021 22.116 95.9644 24.0256C97.7266 25.9352 97.6072 28.9119 95.6976 30.6741L75 49.7748Z" fill="#F9FAFC"/>
<path d="M63.5 104.25V105C63.5 107.761 65.7386 110 68.5 110H70C72.7615 110 75 107.761 75 105V49.7748L95.6976 30.6741C97.6072 28.9119 97.7266 25.9352 95.9644 24.0256C94.2021 22.116 91.2254 21.9966 89.3158 23.7588L67.3827 43.9998H59.2694L37.8959 24.2753C35.9863 22.513 33.0096 22.6325 31.2474 24.5421C29.4851 26.4517 29.6045 29.4283 31.5141 31.1906L52 50.0959V104.25C52 107.425 54.5744 110 57.75 110C60.9257 110 63.5 107.425 63.5 104.25ZM63.5 104.25V77.9998" stroke="#2B2727" stroke-width="3" stroke-linecap="round"/>
</svg>
