<svg width="128" height="128" viewBox="0 0 128 128" fill="none" xmlns="http://www.w3.org/2000/svg">
<rect x="13.5" y="27.5" width="101" height="73" rx="10.5" fill="#F9FAFC" stroke="#2B2727" stroke-width="3" stroke-linecap="round" stroke-linejoin="round"/>
<rect x="71.5" y="36.5" width="34" height="23" rx="6.5" fill="#F9FAFC" stroke="#2B2727" stroke-width="3" stroke-linecap="round" stroke-linejoin="round"/>
<path d="M79 54V49.9795M85 54V44.4552M91 54V47.5243M97 54V42" stroke="#2B2727" stroke-width="2" stroke-linecap="round" stroke-linejoin="round"/>
<path d="M45.5 39.5H61M45.5 45.5H55.5M45.5 51.5H59.5M45.5 57.5H52.5" stroke="#2B2727" stroke-width="2" stroke-linecap="round" stroke-linejoin="round"/>
<mask id="path-5-inside-1_1046_23413" fill="white">
<path d="M41 39.5C41 40.3284 40.3284 41 39.5 41C38.6716 41 38 40.3284 38 39.5C38 38.6716 38.6716 38 39.5 38C40.3284 38 41 38.6716 41 39.5Z"/>
<path d="M41 45.5C41 46.3284 40.3284 47 39.5 47C38.6716 47 38 46.3284 38 45.5C38 44.6716 38.6716 44 39.5 44C40.3284 44 41 44.6716 41 45.5Z"/>
<path d="M41 51.5C41 52.3284 40.3284 53 39.5 53C38.6716 53 38 52.3284 38 51.5C38 50.6716 38.6716 50 39.5 50C40.3284 50 41 50.6716 41 51.5Z"/>
<path d="M41 57.5C41 58.3284 40.3284 59 39.5 59C38.6716 59 38 58.3284 38 57.5C38 56.6716 38.6716 56 39.5 56C40.3284 56 41 56.6716 41 57.5Z"/>
</mask>
<path d="M41 39.5C41 40.3284 40.3284 41 39.5 41C38.6716 41 38 40.3284 38 39.5C38 38.6716 38.6716 38 39.5 38C40.3284 38 41 38.6716 41 39.5Z" fill="#2B2727"/>
<path d="M41 45.5C41 46.3284 40.3284 47 39.5 47C38.6716 47 38 46.3284 38 45.5C38 44.6716 38.6716 44 39.5 44C40.3284 44 41 44.6716 41 45.5Z" fill="#2B2727"/>
<path d="M41 51.5C41 52.3284 40.3284 53 39.5 53C38.6716 53 38 52.3284 38 51.5C38 50.6716 38.6716 50 39.5 50C40.3284 50 41 50.6716 41 51.5Z" fill="#2B2727"/>
<path d="M41 57.5C41 58.3284 40.3284 59 39.5 59C38.6716 59 38 58.3284 38 57.5C38 56.6716 38.6716 56 39.5 56C40.3284 56 41 56.6716 41 57.5Z" fill="#2B2727"/>
<path d="M38 39.5C38 38.6716 38.6716 38 39.5 38V44C41.9853 44 44 41.9853 44 39.5H38ZM39.5 38C40.3284 38 41 38.6716 41 39.5H35C35 41.9853 37.0147 44 39.5 44V38ZM41 39.5C41 40.3284 40.3284 41 39.5 41V35C37.0147 35 35 37.0147 35 39.5H41ZM39.5 41C38.6716 41 38 40.3284 38 39.5H44C44 37.0147 41.9853 35 39.5 35V41ZM38 45.5C38 44.6716 38.6716 44 39.5 44V50C41.9853 50 44 47.9853 44 45.5H38ZM39.5 44C40.3284 44 41 44.6716 41 45.5H35C35 47.9853 37.0147 50 39.5 50V44ZM41 45.5C41 46.3284 40.3284 47 39.5 47V41C37.0147 41 35 43.0147 35 45.5H41ZM39.5 47C38.6716 47 38 46.3284 38 45.5H44C44 43.0147 41.9853 41 39.5 41V47ZM38 51.5C38 50.6716 38.6716 50 39.5 50V56C41.9853 56 44 53.9853 44 51.5H38ZM39.5 50C40.3284 50 41 50.6716 41 51.5H35C35 53.9853 37.0147 56 39.5 56V50ZM41 51.5C41 52.3284 40.3284 53 39.5 53V47C37.0147 47 35 49.0147 35 51.5H41ZM39.5 53C38.6716 53 38 52.3284 38 51.5H44C44 49.0147 41.9853 47 39.5 47V53ZM38 57.5C38 56.6716 38.6716 56 39.5 56V62C41.9853 62 44 59.9853 44 57.5H38ZM39.5 56C40.3284 56 41 56.6716 41 57.5H35C35 59.9853 37.0147 62 39.5 62V56ZM41 57.5C41 58.3284 40.3284 59 39.5 59V53C37.0147 53 35 55.0147 35 57.5H41ZM39.5 59C38.6716 59 38 58.3284 38 57.5H44C44 55.0147 41.9853 53 39.5 53V59Z" fill="#2B2727" mask="url(#path-5-inside-1_1046_23413)"/>
<path d="M44 85.6363L51 77.2392L58.136 84.9904L65.5 81.3409L73.184 83.0526L76.832 77.2392L85.952 82.4067L93 75.8182L101 74.6555" stroke="#2B2727" stroke-width="2" stroke-linecap="round" stroke-linejoin="round"/>
<rect x="39.5" y="67.5" width="66" height="24" rx="6.5" stroke="#2B2727" stroke-width="3" stroke-linecap="round" stroke-linejoin="round"/>
<path d="M21 64H31" stroke="#2B2727" stroke-width="3" stroke-linecap="round"/>
<path d="M21 56.5H27" stroke="#2B2727" stroke-width="3" stroke-linecap="round"/>
<path d="M21 71H29.5" stroke="#2B2727" stroke-width="3" stroke-linecap="round"/>
<path d="M21 91H30" stroke="#2B2727" stroke-width="3" stroke-linecap="round"/>
<g clip-path="url(#clip0_1046_23413)">
<path d="M24.9983 36.0844C22.9976 36.0844 21.35 37.5919 21.1222 39.5333C21.1107 39.6313 21.1021 39.73 21.0975 39.8298C21.0933 39.9198 21.1665 39.9928 21.2563 39.9928H21.8492C21.9391 39.9928 22.0115 39.9198 22.0172 39.8299C22.0236 39.7297 22.0354 39.631 22.0505 39.5333C22.2719 38.1015 23.5059 37.0035 24.9983 37.0035C26.6473 37.0035 27.9833 38.3423 27.9833 39.9928C27.9833 41.6434 26.6473 42.9807 24.9983 42.9807H20.5189C20.3912 42.9807 20.3141 43.1211 20.3872 43.2261C20.5405 43.4463 20.7089 43.6553 20.8915 43.8508C20.9217 43.8833 20.9642 43.9013 21.0085 43.9013H24.9983C27.1547 43.9013 28.903 42.1513 28.9029 39.9928C28.9029 37.8344 27.1547 36.0844 24.9983 36.0844Z" fill="#2B2727"/>
<path d="M24.9983 34.375C23.2502 34.375 21.6881 35.1719 20.656 36.4237C19.9366 37.2961 19.4887 38.3973 19.3959 39.5247C19.3957 39.5276 19.3947 39.5303 19.3945 39.5333C19.3865 39.6317 19.3793 39.7304 19.3751 39.8298C19.3714 39.9198 19.4444 39.9928 19.5342 39.9928H20.1272C20.217 39.9928 20.2896 39.9198 20.2928 39.8298C20.2964 39.7302 20.3032 39.6316 20.3127 39.5333C20.5439 37.1466 22.5532 35.2798 24.9983 35.2798C27.5986 35.2798 29.7068 37.39 29.7068 39.9928C29.7068 42.5957 27.5986 44.7059 24.9983 44.7059H22.4403C22.279 44.7059 22.2219 44.9068 22.3645 44.9824C23.0707 45.3563 23.8664 45.5822 24.7108 45.625H24.9983C27.9118 45.625 30.3068 43.4086 30.595 40.5684C30.6137 40.3838 30.6245 40.1967 30.625 40.0072C30.625 39.8127 30.6142 39.6195 30.595 39.4302C30.3068 36.59 27.9118 34.375 24.9983 34.375Z" fill="#2B2727"/>
<path d="M24.9983 37.8081C23.9512 37.8081 23.0785 38.5484 22.8672 39.5333C22.8464 39.6303 22.8308 39.7291 22.8225 39.83C22.8151 39.9197 22.8885 39.9928 22.9783 39.9928H23.5727C23.6625 39.9928 23.7343 39.9195 23.7464 39.8303C23.7604 39.7269 23.7872 39.6276 23.8241 39.5333C24.008 39.0627 24.463 38.7287 24.9983 38.7287C25.696 38.7287 26.2612 39.2945 26.2613 39.9928C26.2613 40.6912 25.696 41.257 24.9983 41.257H20.46C20.4253 41.1298 20.393 40.9974 20.3565 40.8706C20.3309 40.7816 20.251 40.7201 20.1698 40.7201H19.5819C19.5017 40.7201 19.43 40.8137 19.4455 40.9024C19.5199 41.2994 19.6088 41.7145 19.7693 42.0867C19.7943 42.1449 19.8557 42.1761 19.9132 42.1761H24.9983C26.2033 42.1761 27.1795 41.199 27.1795 39.9928C27.1795 38.7867 26.2033 37.8081 24.9983 37.8081Z" fill="#2B2727"/>
</g>
<defs>
<clipPath id="clip0_1046_23413">
<rect width="12" height="12" fill="white" transform="translate(19 34)"/>
</clipPath>
</defs>
</svg>
