<svg width="128" height="128" viewBox="0 0 128 128" fill="none" xmlns="http://www.w3.org/2000/svg">
<path d="M109 64C109 72.2529 106.778 79.987 102.9 86.6367C95.1005 100.012 80.5999 109 64 109C47.3883 109 32.8789 99.999 25.0829 86.6081C21.2153 79.9648 19 72.2411 19 64C19 39.1472 39.1472 19 64 19C88.8528 19 109 39.1472 109 64Z" fill="#F9FAFC"/>
<path d="M109 64C109 39.1472 88.8528 19 64 19M109 64H105.17M109 64C109 72.2529 106.778 79.987 102.9 86.6367C95.1005 100.012 80.5999 109 64 109C47.3883 109 32.8789 99.999 25.0829 86.6081C21.2153 79.9648 19 72.2411 19 64M19 64C19 39.1472 39.1472 19 64 19M19 64H22.8298M64 19V27.8298M102.971 41.5L99.6544 43.4149M25.0289 86.5L28.3455 84.5851M86.5 25.0289L84.5851 28.3456M41.5 102.971L45.4149 96.6545M25.0289 41.5L28.3456 43.4149M102.971 86.5L99.6545 84.5851M41.5 25.0289L43.4149 28.3456M86.5 102.971L82.5851 96.6545" stroke="#2B2727" stroke-width="3" stroke-linecap="round"/>
<path d="M53 96.2C53 94.4327 54.4071 93 56.1429 93H71.8571C73.5929 93 75 94.4327 75 96.2V97.8C75 99.5673 73.5929 101 71.8571 101H56.1429C54.4071 101 53 99.5673 53 97.8V96.2Z" fill="#F9FAFC"/>
<path d="M57.5294 97H59.5728M62.9783 97H65.0217M68.4272 97H70.4706M56.1429 101H71.8571C73.5929 101 75 99.5673 75 97.8V96.2C75 94.4327 73.5929 93 71.8571 93H56.1429C54.4071 93 53 94.4327 53 96.2V97.8C53 99.5673 54.4071 101 56.1429 101Z" stroke="#2B2727" stroke-width="2" stroke-linecap="round"/>
<path opacity="0.25" d="M51.7431 87C44.1489 82.8385 39 74.7705 39 65.5C39 51.969 49.969 41 63.5 41C77.031 41 88 51.969 88 65.5C88 74.4649 83.185 82.3051 76 86.5757" stroke="#2B2727" stroke-width="3" stroke-linecap="round"/>
<path d="M64 41C77.2548 41 88 51.9711 88 65.5047C88 70.0817 86.771 74.3656 84.6316 78.0311C82.4399 81.7862 79.2928 84.8924 75.5327 87" stroke="#2B2727" stroke-width="3" stroke-linecap="round"/>
<path d="M68 64C68 66.2091 66.2091 68 64 68C61.7909 68 60 66.2091 60 64C60 62.8954 60.4477 61.8954 61.1716 61.1716C61.8954 60.4477 62.8954 60 64 60C66.2091 60 68 61.7909 68 64Z" fill="#F9FAFC"/>
<path d="M72.5771 72.5771L66.8744 66.8744M39 39L61.1716 61.1716M61.1716 61.1716C60.4477 61.8954 60 62.8954 60 64C60 66.2091 61.7909 68 64 68C66.2091 68 68 66.2091 68 64C68 61.7909 66.2091 60 64 60C62.8954 60 61.8954 60.4477 61.1716 61.1716Z" stroke="#2B2727" stroke-width="4" stroke-linecap="round" stroke-linejoin="round"/>
</svg>
