<svg width="128" height="128" viewBox="0 0 128 128" fill="none" xmlns="http://www.w3.org/2000/svg">
<path d="M9 48.4118C9 43.7661 12.7994 40 17.4861 40H47.5139C52.2006 40 56 43.7661 56 48.4118V97.5882C56 102.234 52.2006 106 47.5139 106H17.4861C12.7994 106 9 102.234 9 97.5882V48.4118Z" fill="#F9FAFC"/>
<path d="M9 72.6765H56M17.4861 106H47.5139C52.2006 106 56 102.234 56 97.5882V48.4118C56 43.7661 52.2006 40 47.5139 40H17.4861C12.7994 40 9 43.7661 9 48.4118V97.5882C9 102.234 12.7994 106 17.4861 106Z" stroke="#2B2727" stroke-width="3"/>
<path d="M17 36.9608C17 30.9073 21.9311 26 28.0139 26H66.9861C73.0689 26 78 30.9073 78 36.9608V101.039C78 107.093 73.0689 112 66.9861 112H28.0139C21.9311 112 17 107.093 17 101.039V36.9608Z" fill="#F9FAFC"/>
<path d="M17 68.5784H78M28.0139 112H66.9861C73.0689 112 78 107.093 78 101.039V36.9608C78 30.9073 73.0689 26 66.9861 26H28.0139C21.9311 26 17 30.9073 17 36.9608V101.039C17 107.093 21.9311 112 28.0139 112Z" stroke="#2B2727" stroke-width="3"/>
<path d="M28 27C28 19.8203 33.8203 14 41 14H87C94.1797 14 100 19.8203 100 27V103C100 110.18 94.1797 116 87 116H41C33.8203 116 28 110.18 28 103V27Z" fill="#F9FAFC"/>
<path d="M28 64.5H100M41 116H87C94.1797 116 100 110.18 100 103V27C100 19.8203 94.1797 14 87 14H41C33.8203 14 28 19.8203 28 27V103C28 110.18 33.8203 116 41 116Z" stroke="#2B2727" stroke-width="3"/>
<path d="M39.5 75.5H58.5M65.5 75.5H86.5M39.5 84.5H49.5M55.5 84.5H65.5M72.5 84.5H82.5M39.5 93.5H84.5M39.5 102.5H64.5M72.5 102.5H88.5" stroke="#2B2727" stroke-width="3" stroke-linecap="round"/>
<rect x="39.5" y="23.5" width="48.5245" height="33.2064" rx="6.5" fill="#F9FAFC" stroke="#2B2727" stroke-width="3" stroke-linecap="round" stroke-linejoin="round"/>
<path d="M50.533 48.458V42.8593M58.8883 48.458V35.1664M67.2436 48.458V39.4402M75.599 48.458V31.7473" stroke="#2B2727" stroke-width="3" stroke-linecap="round" stroke-linejoin="round"/>
</svg>
