<svg width="128" height="128" viewBox="0 0 128 128" fill="none" xmlns="http://www.w3.org/2000/svg">
<path d="M38.9491 69.1581L62.5635 58.1045C63.9199 57.4696 65.4894 57.4762 66.8405 58.1223L89.9152 69.1581V97.7923C89.9152 99.7178 88.8096 101.472 87.0725 102.303L64.7062 113L41.8294 102.292C40.0719 101.469 38.9491 99.7037 38.9491 97.7631V69.1581Z" fill="#F9FAFC"/>
<path d="M38.9491 69.1581L62.5635 58.1045C63.9199 57.4696 65.4894 57.4762 66.8405 58.1223L89.9152 69.1581M38.9491 69.1581L64.7062 81.2146M38.9491 69.1581V85.0507M64.7062 113L41.8294 102.292C40.0719 101.469 38.9491 99.7037 38.9491 97.7631V92.997M64.7062 113L87.0725 102.303C88.8096 101.472 89.9152 99.7178 89.9152 97.7923V69.1581M64.7062 113V81.2146M89.9152 69.1581L64.7062 81.2146" stroke="#2B2727" stroke-width="3" stroke-linecap="round" stroke-linejoin="round"/>
<path d="M11 51C11 48.7909 12.7909 47 15 47H27C29.2091 47 31 48.7909 31 51V55C31 57.2091 29.2091 59 27 59H15C12.7909 59 11 57.2091 11 55V51Z" fill="#F9FAFC"/>
<path d="M31.2769 52.7168H52.1017V74.0897M21 55V51M21 51L19 52.5M21 51L23 52.5M15 59H27C29.2091 59 31 57.2091 31 55V51C31 48.7909 29.2091 47 27 47H15C12.7909 47 11 48.7909 11 51V55C11 57.2091 12.7909 59 15 59Z" stroke="#2B2727" stroke-width="2" stroke-linecap="round" stroke-linejoin="round"/>
<path d="M38 20C38 17.7909 39.7909 16 42 16H54C56.2091 16 58 17.7909 58 20V24C58 26.2091 56.2091 28 54 28H42C39.7909 28 38 26.2091 38 24V20Z" fill="#F9FAFC"/>
<path d="M58 22H70V36M70 78V50M48 24V20M48 20L46 21.5M48 20L50 21.5M42 28H54C56.2091 28 58 26.2091 58 24V20C58 17.7909 56.2091 16 54 16H42C39.7909 16 38 17.7909 38 20V24C38 26.2091 39.7909 28 42 28Z" stroke="#2B2727" stroke-width="2" stroke-linecap="round" stroke-linejoin="round"/>
<path d="M97 39C97 36.7909 98.7909 35 101 35H113C115.209 35 117 36.7909 117 39V43C117 45.2091 115.209 47 113 47H101C98.7909 47 97 45.2091 97 43V39Z" fill="#F9FAFC"/>
<path d="M97 41H82V72M107 43V39M107 39L105 40.5M107 39L109 40.5M101 47H113C115.209 47 117 45.2091 117 43V39C117 36.7909 115.209 35 113 35H101C98.7909 35 97 36.7909 97 39V43C97 45.2091 98.7909 47 101 47Z" stroke="#2B2727" stroke-width="2" stroke-linecap="round" stroke-linejoin="round"/>
</svg>
