<svg width="128" height="128" viewBox="0 0 128 128" fill="none" xmlns="http://www.w3.org/2000/svg">
<rect x="9.5" y="23.5" width="85" height="67" rx="10.5" fill="#F9FAFC" stroke="#2B2727" stroke-width="3" stroke-linecap="round" stroke-linejoin="round"/>
<rect x="18.5" y="32.5" width="34" height="23" rx="6.5" fill="#F9FAFC" stroke="#2B2727" stroke-width="3" stroke-linecap="round" stroke-linejoin="round"/>
<path d="M26 50V45.9795M32 50V40.4552M38 50V43.5243M44 50V38" stroke="#2B2727" stroke-width="2" stroke-linecap="round" stroke-linejoin="round"/>
<path d="M68.5 35.5H84M68.5 41.5H78.5M68.5 47.5H82.5M68.5 53.5H75.5" stroke="#2B2727" stroke-width="2" stroke-linecap="round" stroke-linejoin="round"/>
<mask id="path-5-inside-1_16_3146" fill="white">
<path d="M64 35.5C64 36.3284 63.3284 37 62.5 37C61.6716 37 61 36.3284 61 35.5C61 34.6716 61.6716 34 62.5 34C63.3284 34 64 34.6716 64 35.5Z"/>
<path d="M64 41.5C64 42.3284 63.3284 43 62.5 43C61.6716 43 61 42.3284 61 41.5C61 40.6716 61.6716 40 62.5 40C63.3284 40 64 40.6716 64 41.5Z"/>
<path d="M64 47.5C64 48.3284 63.3284 49 62.5 49C61.6716 49 61 48.3284 61 47.5C61 46.6716 61.6716 46 62.5 46C63.3284 46 64 46.6716 64 47.5Z"/>
<path d="M64 53.5C64 54.3284 63.3284 55 62.5 55C61.6716 55 61 54.3284 61 53.5C61 52.6716 61.6716 52 62.5 52C63.3284 52 64 52.6716 64 53.5Z"/>
</mask>
<path d="M64 35.5C64 36.3284 63.3284 37 62.5 37C61.6716 37 61 36.3284 61 35.5C61 34.6716 61.6716 34 62.5 34C63.3284 34 64 34.6716 64 35.5Z" fill="#2B2727"/>
<path d="M64 41.5C64 42.3284 63.3284 43 62.5 43C61.6716 43 61 42.3284 61 41.5C61 40.6716 61.6716 40 62.5 40C63.3284 40 64 40.6716 64 41.5Z" fill="#2B2727"/>
<path d="M64 47.5C64 48.3284 63.3284 49 62.5 49C61.6716 49 61 48.3284 61 47.5C61 46.6716 61.6716 46 62.5 46C63.3284 46 64 46.6716 64 47.5Z" fill="#2B2727"/>
<path d="M64 53.5C64 54.3284 63.3284 55 62.5 55C61.6716 55 61 54.3284 61 53.5C61 52.6716 61.6716 52 62.5 52C63.3284 52 64 52.6716 64 53.5Z" fill="#2B2727"/>
<path d="M61 35.5C61 34.6716 61.6716 34 62.5 34V40C64.9853 40 67 37.9853 67 35.5H61ZM62.5 34C63.3284 34 64 34.6716 64 35.5H58C58 37.9853 60.0147 40 62.5 40V34ZM64 35.5C64 36.3284 63.3284 37 62.5 37V31C60.0147 31 58 33.0147 58 35.5H64ZM62.5 37C61.6716 37 61 36.3284 61 35.5H67C67 33.0147 64.9853 31 62.5 31V37ZM61 41.5C61 40.6716 61.6716 40 62.5 40V46C64.9853 46 67 43.9853 67 41.5H61ZM62.5 40C63.3284 40 64 40.6716 64 41.5H58C58 43.9853 60.0147 46 62.5 46V40ZM64 41.5C64 42.3284 63.3284 43 62.5 43V37C60.0147 37 58 39.0147 58 41.5H64ZM62.5 43C61.6716 43 61 42.3284 61 41.5H67C67 39.0147 64.9853 37 62.5 37V43ZM61 47.5C61 46.6716 61.6716 46 62.5 46V52C64.9853 52 67 49.9853 67 47.5H61ZM62.5 46C63.3284 46 64 46.6716 64 47.5H58C58 49.9853 60.0147 52 62.5 52V46ZM64 47.5C64 48.3284 63.3284 49 62.5 49V43C60.0147 43 58 45.0147 58 47.5H64ZM62.5 49C61.6716 49 61 48.3284 61 47.5H67C67 45.0147 64.9853 43 62.5 43V49ZM61 53.5C61 52.6716 61.6716 52 62.5 52V58C64.9853 58 67 55.9853 67 53.5H61ZM62.5 52C63.3284 52 64 52.6716 64 53.5H58C58 55.9853 60.0147 58 62.5 58V52ZM64 53.5C64 54.3284 63.3284 55 62.5 55V49C60.0147 49 58 51.0147 58 53.5H64ZM62.5 55C61.6716 55 61 54.3284 61 53.5H67C67 51.0147 64.9853 49 62.5 49V55Z" fill="#2B2727" mask="url(#path-5-inside-1_16_3146)"/>
<path d="M23 77L30.296 72.7895L37.136 76.4737H45.8L52.184 74.8947L55.832 70.1579L64.952 74.3684L69.968 67L80 68.0526" stroke="#2B2727" stroke-width="2" stroke-linecap="round" stroke-linejoin="round"/>
<rect x="18.5" y="62.5" width="66" height="19" rx="6.5" stroke="#2B2727" stroke-width="3" stroke-linecap="round" stroke-linejoin="round"/>
<rect x="88.5" y="63.5" width="17" height="27" rx="6.5" stroke="#2B2727" stroke-width="3"/>
<rect x="82.5" y="79.5" width="30" height="30" rx="15" fill="#F9FAFC" stroke="#2B2727" stroke-width="3"/>
<rect x="93.6667" y="87.9783" width="7.66667" height="13.0435" rx="3.83333" stroke="#2B2727"/>
<rect x="91.5" y="85.5" width="12" height="18" rx="6" stroke="#2B2727"/>
<rect x="95.8333" y="90.4565" width="3.33333" height="8.08696" rx="1.66667" stroke="#2B2727"/>
<rect x="93" y="93" width="2" height="2" fill="#F9FAFC"/>
<rect x="90" y="96" width="2" height="2" fill="#F9FAFC"/>
<rect x="97" y="100" width="2" height="2" fill="#F9FAFC"/>
<rect x="98" y="92" width="2" height="2" fill="#F9FAFC"/>
<rect x="96" y="85" width="2" height="2" fill="#F9FAFC"/>
<rect x="102" y="90" width="2" height="2" fill="#F9FAFC"/>
<rect x="98" y="102" width="2" height="2" fill="#F9FAFC"/>
<rect x="100" y="95" width="2" height="2" fill="#F9FAFC"/>
</svg>
