<svg width="128" height="128" viewBox="0 0 128 128" fill="none" xmlns="http://www.w3.org/2000/svg">
<path d="M64.9872 34.3125C65.3342 37.2134 64.6524 39.0505 63.5663 40.2395C62.4398 41.4728 60.6609 42.2484 58.3863 42.5576C56.3221 42.8381 54.0429 42.1884 52.4992 40.848C51.0211 39.5646 50.2012 37.6513 50.8953 35.1315C51.3948 33.3182 52.0552 32.1721 52.8586 30.7782L52.8695 30.7592C53.6967 29.3237 54.6337 27.6862 55.4767 25.0443C55.7944 24.0486 56.5283 23.3368 57.2843 23.0541C57.9928 22.7892 58.6918 22.8929 59.256 23.4908C62.2342 26.6469 64.5244 30.444 64.9872 34.3125Z" fill="#F9FAFC" stroke="#2B2727" stroke-width="3" stroke-linejoin="round"/>
<path d="M58.4694 38.8287C58.4694 38.8287 58.8394 46.0433 56.0482 49.2374" stroke="#2B2727" stroke-width="3" stroke-linecap="round"/>
<path d="M77.7837 42.8794C76.9906 45.7381 75.5885 47.1892 73.9979 47.8641C72.3355 48.5695 70.1896 48.5455 67.7464 47.8676C65.495 47.243 63.4247 45.6297 62.3918 43.6922C61.4054 41.8418 61.3512 39.7125 63.0299 37.6495C64.2488 36.1516 65.3637 35.3511 66.725 34.3738C66.7775 34.3361 66.8303 34.2982 66.8835 34.26C68.3482 33.2074 70.0046 31.9822 71.9977 29.6457C72.6496 28.8815 73.5662 28.5186 74.3606 28.5462C75.112 28.5723 75.7276 28.9313 76.0511 29.6733C77.97 34.0748 78.8967 38.868 77.7837 42.8794Z" fill="#F9FAFC" stroke="#2B2727" stroke-width="3" stroke-linejoin="round"/>
<path d="M69.5687 44.7489C69.5687 44.7489 66.9789 51.4086 62.7612 53.1463" stroke="#2B2727" stroke-width="3" stroke-linecap="round"/>
<path d="M49.3297 69.8996L43.7581 65.1852C43.4354 64.9121 42.9404 65.138 42.9352 65.5608L42.4491 104.933C42.4485 104.978 42.4426 105.021 42.4295 105.063C42.0624 106.249 40.5915 108.5 37.4483 108.5C34.2483 108.5 33.4483 106.167 33.4483 105V84.6486C33.4483 84.0435 32.574 83.9586 32.4576 84.5523L28.4585 104.948C28.4517 104.983 28.4418 105.016 28.4274 105.048C27.9022 106.224 26.2105 108.289 23.4483 107.5C20.6873 106.711 19.9682 103.913 19.9487 102.557C19.9481 102.518 19.9527 102.481 19.9614 102.444L25.4351 79.0562C25.4438 79.0189 25.4483 78.9806 25.4483 78.9423V65.9052C25.4483 65.4348 24.8578 65.2247 24.5606 65.5893L14.4483 78C12.9483 79.5 10.3286 79.7254 8.94826 78C7.34826 76 7.94826 74.5 9.44826 72.5L21.9871 57.6164C21.9957 57.6062 22.0029 57.597 22.0108 57.5862C22.1478 57.398 23.5739 55.4754 25 55C26.5 54.5 29 54.5 29 54.5H40C40 54.5 41.4483 54.5 42.5 55C43.44 55.4468 44.1219 56.159 44.2563 56.3054C44.2729 56.3235 44.2899 56.3402 44.3086 56.3561L50.8382 61.9064C50.9101 61.9676 50.9979 62.0071 51.0913 62.0204L61.4128 63.4949C61.4364 63.4983 61.4591 63.5029 61.4817 63.5105C62.4278 63.8284 63.9424 66.0234 63.4483 68C62.9483 70 60.4483 71.1667 59.4483 71L49.6029 70.0155C49.5022 70.0054 49.4069 69.965 49.3297 69.8996Z" fill="#F9FAFC" stroke="#2B2727" stroke-width="3" stroke-linecap="round" stroke-linejoin="round"/>
<circle cx="7.5" cy="7.5" r="7.5" transform="matrix(-1 0 0 1 41.4482 35)" fill="#F9FAFC" stroke="#2B2727" stroke-width="3" stroke-linecap="round" stroke-linejoin="round"/>
<path d="M78.2153 69.8996L83.7868 65.1852C84.1096 64.9121 84.6045 65.138 84.6097 65.5608L85.0958 104.933C85.0964 104.978 85.1023 105.021 85.1155 105.063C85.4825 106.249 86.9534 108.5 90.0967 108.5C93.2967 108.5 94.0967 106.167 94.0967 105V84.6486C94.0967 84.0435 94.9709 83.9586 95.0873 84.5523L99.0865 104.948C99.0932 104.983 99.1032 105.016 99.1175 105.048C99.6427 106.224 101.334 108.289 104.097 107.5C106.858 106.711 107.577 103.913 107.596 102.557C107.597 102.518 107.592 102.481 107.584 102.444L102.11 79.0562C102.101 79.0189 102.097 78.9806 102.097 78.9423V65.9052C102.097 65.4348 102.687 65.2247 102.984 65.5893L113.097 78C114.597 79.5 117.216 79.7254 118.597 78C120.197 76 119.597 74.5 118.097 72.5L105.558 57.6164C105.549 57.6062 105.542 57.597 105.534 57.5862C105.397 57.398 103.971 55.4754 102.545 55C101.045 54.5 98.5449 54.5 98.5449 54.5H87.5449C87.5449 54.5 86.0967 54.5 85.0449 55C84.105 55.4468 83.4231 56.159 83.2887 56.3054C83.2721 56.3235 83.255 56.3402 83.2364 56.3561L76.7067 61.9064C76.6348 61.9676 76.5471 62.0071 76.4536 62.0204L66.1321 63.4949C66.1085 63.4983 66.0858 63.5029 66.0632 63.5105C65.1171 63.8284 63.6025 66.0234 64.0966 68C64.5967 70 67.0966 71.1667 68.0966 71L77.942 70.0155C78.0427 70.0054 78.138 69.965 78.2153 69.8996Z" fill="#F9FAFC" stroke="#2B2727" stroke-width="3" stroke-linecap="round" stroke-linejoin="round"/>
<circle cx="93.5967" cy="42.5" r="7.5" fill="#F9FAFC" stroke="#2B2727" stroke-width="3" stroke-linecap="round" stroke-linejoin="round"/>
</svg>
