<svg width="128" height="128" viewBox="0 0 128 128" fill="none" xmlns="http://www.w3.org/2000/svg">
<rect x="64" y="28" width="46" height="30" rx="6" fill="#F9FAFC"/>
<path d="M99.9155 28C103.268 28 104.944 28 106.225 28.6524C107.351 29.2263 108.267 30.142 108.841 31.2684C109.493 32.5488 109.493 34.225 109.493 37.5775V48.3521C109.493 51.7045 109.493 53.3808 108.841 54.6612C108.267 55.7875 107.351 56.7033 106.225 57.2772C104.944 57.9296 103.268 57.9296 99.9155 57.9296H73.5775C70.225 57.9296 68.5488 57.9296 67.2684 57.2772C66.142 56.7033 65.2263 55.7875 64.6524 54.6612C64 53.3808 64 51.7045 64 48.3521V37.5775C64 34.225 64 32.5488 64.6524 31.2684C65.2263 30.142 66.142 29.2263 67.2684 28.6524C68.5488 28 70.225 28 73.5775 28H86.7465" stroke="#2B2727" stroke-width="3" stroke-linecap="round" stroke-linejoin="round"/>
<path d="M75 51L75 49M81 51L81 41M87 51V44M93 51V39M99 51V35" stroke="#2B2727" stroke-width="3" stroke-linecap="round" stroke-linejoin="round"/>
<path d="M74.8615 72.5732H72.694C75.2489 72.5718 77.3197 70.5002 77.3197 67.945C77.3197 65.3889 75.2475 63.3167 72.6914 63.3167L54.2449 63.3168C57 56.153 56 58.6531 57.144 55.1455C58.0581 52.343 58.8558 49.1728 59.1396 48.0115C59.2144 47.7055 59.2968 47.4029 59.3545 47.0932C59.9222 44.0434 58.0544 41.0224 55.0072 40.2059C51.8064 39.3483 48.5164 41.2478 47.6588 44.4486L46.5 49.6531C46.5 49.6531 44.5 56.6531 40.8535 58.7501C38.4398 60.1382 34.4758 62.4281 31.7686 67H26C24.3431 67 23 68.3431 23 70V93C23 94.6569 24.3431 96 26 96H32.5605C35 98.5 38.4573 100.342 42.4639 100.342L70.654 100.342C73.2101 100.342 75.2823 98.2704 75.2823 95.7143C75.2823 93.1582 73.2101 91.086 70.654 91.086H74.8615C77.4176 91.086 79.4897 89.0139 79.4897 86.4578C79.4897 83.9017 77.4176 81.8296 74.8615 81.8296C77.4176 81.8296 79.4897 79.7575 79.4897 77.2014C79.4897 74.6453 77.4176 72.5732 74.8615 72.5732Z" fill="#F9FAFC"/>
<path d="M72.694 72.5732H74.8615C77.4176 72.5732 79.4897 74.6453 79.4897 77.2014C79.4897 79.7575 77.4176 81.8296 74.8615 81.8296M72.694 72.5732C75.2489 72.5718 77.3197 70.5002 77.3197 67.945C77.3197 65.3889 75.2475 63.3167 72.6914 63.3167L54.2449 63.3168C57 56.153 56 58.6531 57.144 55.1455C58.0581 52.343 58.8558 49.1728 59.1396 48.0115C59.2144 47.7055 59.2968 47.4029 59.3545 47.0932C59.9222 44.0434 58.0544 41.0224 55.0072 40.2059C51.8064 39.3483 48.5164 41.2478 47.6588 44.4486L46.5 49.6531C46.5 49.6531 44.5 56.6531 40.8535 58.7501C38.4398 60.1382 34.4758 62.4281 31.7686 67H26C24.3431 67 23 68.3431 23 70V93C23 94.6569 24.3431 96 26 96C26 96 27.4837 96 32.5605 96C35 98.5 38.4573 100.342 42.4639 100.342L70.654 100.342C73.2101 100.342 75.2823 98.2704 75.2823 95.7143C75.2823 93.1582 73.2101 91.086 70.654 91.086M72.694 72.5732L63.3976 72.5732M74.8615 81.8296H63.3976M74.8615 81.8296C77.4176 81.8296 79.4897 83.9017 79.4897 86.4578C79.4897 89.0139 77.4176 91.086 74.8615 91.086H70.654M70.654 91.086L63.3976 91.086" stroke="#2B2727" stroke-width="3" stroke-linecap="round" stroke-linejoin="round"/>
<rect x="18" y="64" width="9" height="35" rx="3" fill="#F9FAFC" stroke="#2B2727" stroke-width="3" stroke-linecap="round" stroke-linejoin="round"/>
<path d="M46.8802 32.7248L44.3447 28.3332M42.8296 37.8511L38 36.557M52.6276 32.1943L53.9217 27.3646" stroke="#2B2727" stroke-width="3" stroke-linecap="round" stroke-linejoin="round"/>
</svg>
