<svg width="128" height="128" viewBox="0 0 128 128" fill="none" xmlns="http://www.w3.org/2000/svg">
<path d="M17 44C17 40.134 20.134 37 24 37H105C108.866 37 112 40.134 112 44V78C112 81.866 108.866 85 105 85H24C20.134 85 17 81.866 17 78V44Z" fill="#F9FAFC"/>
<path d="M28 47H100V76H28V47Z" fill="#F9FAFC"/>
<path d="M35 56H71M35 62H71M35 68H71M24 85H105C108.866 85 112 81.866 112 78V44C112 40.134 108.866 37 105 37H24C20.134 37 17 40.134 17 44V78C17 81.866 20.134 85 24 85ZM28 47H100V76H28V47Z" stroke="#2B2727" stroke-width="3" stroke-linecap="round"/>
<path d="M91.9794 56.0547C91.9659 55.8001 91.865 55.5601 91.6967 55.3817C91.5284 55.2034 91.3047 55.0995 91.0694 55.0905C90.5194 55.0526 88.7394 55.0255 88.2244 55.0255C89.1394 55.708 89.2644 56.9972 89.3544 59.3914C89.4044 60.8105 89.3544 65.783 89.3544 65.9997L89.3294 67.3539L84.5144 62.1322V60.5072L88.3444 64.6509C88.3544 63.8276 88.3644 62.7551 88.3644 61.7801C88.3644 60.8268 88.3494 59.9655 88.3244 59.5051C88.1794 56.8997 87.9544 55.6755 86.6994 55.1934C86.2662 55.0471 85.8128 54.983 85.3594 55.0039C84.8594 55.0039 81.4244 55.0039 80.9244 55.0309C80.6869 55.0378 80.4609 55.1435 80.2933 55.326C80.1258 55.5086 80.0295 55.754 80.0244 56.0114C79.9944 56.5422 79.9894 66.3951 80.0244 66.9368C80.0494 67.4676 80.4244 67.8684 80.9244 67.9009C81.4744 67.9334 83.2594 67.9389 83.7744 67.9389C82.8594 67.2564 82.7344 65.9672 82.6444 63.573C82.5944 62.1539 82.6444 57.1814 82.6444 56.9647L82.6694 55.6105L87.4844 60.8322V62.4572L83.6494 58.3189C83.6394 59.1422 83.6294 60.2147 83.6294 61.1897C83.6294 62.143 83.6444 63.0043 83.6694 63.4647C83.8144 66.0701 84.0394 67.2943 85.2944 67.7709C85.6794 67.9226 86.0394 67.9551 86.6344 67.9659C87.1344 67.9659 90.5694 67.9659 91.0644 67.9389C91.3037 67.9347 91.5322 67.8302 91.7019 67.6474C91.8716 67.4646 91.9693 67.2176 91.9744 66.9584C91.9994 66.4276 92.0044 56.5964 91.9744 56.0601L91.9794 56.0547Z" fill="#2B2727"/>
</svg>
