<svg width="128" height="128" viewBox="0 0 128 128" fill="none" xmlns="http://www.w3.org/2000/svg">
<path d="M24 30C24 26.6863 26.6863 24 30 24H99C102.314 24 105 26.6863 105 30V99C105 102.314 102.314 105 99 105H30C26.6863 105 24 102.314 24 99V30Z" fill="#F9FAFC"/>
<path d="M35 35H95V95H35V35Z" fill="#F9FAFC"/>
<path d="M44 44H69M44 72H75M44 50H69M44 78H85M44 84H79M30 105H99C102.314 105 105 102.314 105 99V30C105 26.6863 102.314 24 99 24H30C26.6863 24 24 26.6863 24 30V99C24 102.314 26.6863 105 30 105ZM35 35H95V95H35V35Z" stroke="#2B2727" stroke-width="3" stroke-linecap="round"/>
</svg>
