<svg width="128" height="128" viewBox="0 0 128 128" fill="none" xmlns="http://www.w3.org/2000/svg">
<path d="M66.5 88.5002C66.5 86.9956 66.5163 86.5757 66.6076 86.2745C66.85 85.4755 67.4753 84.8503 68.2743 84.6079C68.5755 84.5165 68.9953 84.5002 70.5 84.5002H109.5V92.5002H70.5C68.9953 92.5002 68.5755 92.484 68.2743 92.3926C67.4753 92.1502 66.85 91.525 66.6076 90.726C66.5163 90.4248 66.5 90.0049 66.5 88.5002Z" fill="#F9FAFC" stroke="#2B2727" stroke-width="3"/>
<path d="M66.5 71.5002H72.5V89.5002C72.5 90.0003 72.4982 90.1415 72.488 90.2453C72.3711 91.4322 71.432 92.3713 70.245 92.4882C70.1413 92.4984 70 92.5002 69.5 92.5002C69 92.5002 68.8587 92.4984 68.755 92.4882C67.568 92.3713 66.6289 91.4322 66.512 90.2453C66.5018 90.1415 66.5 90.0003 66.5 89.5002V71.5002Z" fill="#F9FAFC" stroke="#2B2727" stroke-width="3"/>
<circle cx="69.5" cy="65.5002" r="7" fill="#F9FAFC" stroke="#2B2727" stroke-width="3"/>
<circle cx="70" cy="88.0002" r="5.5" fill="#F9FAFC" stroke="#2B2727" stroke-width="3"/>
<mask id="path-5-inside-1_59_24052" fill="white">
<path d="M101 82.6002C101 79.2399 101 77.5598 101.654 76.2763C102.229 75.1473 103.147 74.2294 104.276 73.6542C105.56 73.0002 107.24 73.0002 110.6 73.0002H111.4C111.96 73.0002 112.24 73.0002 112.454 73.1092C112.642 73.2051 112.795 73.3581 112.891 73.5463C113 73.7602 113 74.0402 113 74.6002V103.4C113 103.96 113 104.24 112.891 104.454C112.795 104.642 112.642 104.795 112.454 104.891C112.24 105 111.96 105 111.4 105H110.6C107.24 105 105.56 105 104.276 104.346C103.147 103.771 102.229 102.853 101.654 101.724C101 100.441 101 98.7606 101 95.4002V82.6002Z"/>
</mask>
<path d="M101 82.6002C101 79.2399 101 77.5598 101.654 76.2763C102.229 75.1473 103.147 74.2294 104.276 73.6542C105.56 73.0002 107.24 73.0002 110.6 73.0002H111.4C111.96 73.0002 112.24 73.0002 112.454 73.1092C112.642 73.2051 112.795 73.3581 112.891 73.5463C113 73.7602 113 74.0402 113 74.6002V103.4C113 103.96 113 104.24 112.891 104.454C112.795 104.642 112.642 104.795 112.454 104.891C112.24 105 111.96 105 111.4 105H110.6C107.24 105 105.56 105 104.276 104.346C103.147 103.771 102.229 102.853 101.654 101.724C101 100.441 101 98.7606 101 95.4002V82.6002Z" fill="#F9FAFC" stroke="#2B2727" stroke-width="6" mask="url(#path-5-inside-1_59_24052)"/>
<path d="M21.5723 58.6452C21.1499 56.2676 20.998 55.3478 21.0505 54.5946C21.2173 52.202 22.6881 50.0957 24.8768 49.115C25.5658 48.8062 26.4816 48.632 28.8592 48.2096L31.9501 47.6604L35.0989 65.3828L32.0079 65.932C29.6303 66.3544 28.7106 66.5063 27.9574 66.4538C25.5648 66.287 23.4585 64.8163 22.4777 62.6276C22.1689 61.9385 21.9947 61.0227 21.5723 58.6452Z" fill="#F9FAFC" stroke="#2B2727" stroke-width="3"/>
<path d="M29.4014 51.2617C29.1032 49.5831 28.8965 48.4128 28.809 47.4885C28.7233 46.5818 28.7682 46.0441 28.8972 45.62C29.1739 44.7108 29.7313 43.9126 30.4895 43.3397C30.8432 43.0724 31.3325 42.8451 32.2133 42.6133C33.1111 42.377 34.281 42.1679 35.9596 41.8697L80.0688 34.0328C81.7475 33.7346 82.9178 33.5278 83.842 33.4404C84.7487 33.3546 85.2864 33.3995 85.7106 33.5286C86.6197 33.8052 87.4179 34.3626 87.9908 35.1208C88.2581 35.4746 88.4855 35.9639 88.7173 36.8446C88.9536 37.7424 89.1626 38.9123 89.4609 40.591L91.7 53.1936C91.9982 54.8722 92.205 56.0426 92.2924 56.9668C92.3782 57.8735 92.3333 58.4112 92.2042 58.8353C91.9275 59.7445 91.3702 60.5427 90.612 61.1156C90.2582 61.3829 89.7689 61.6103 88.8881 61.8421C87.9904 62.0784 86.8204 62.2874 85.1418 62.5856L41.0326 70.4225C39.354 70.7208 38.1836 70.9275 37.2594 71.0149C36.3527 71.1007 35.815 71.0558 35.3908 70.9267C34.4817 70.6501 33.6835 70.0927 33.1106 69.3345C32.8433 68.9808 32.6159 68.4915 32.3841 67.6107C32.1478 66.7129 31.9388 65.543 31.6406 63.8644L29.4014 51.2617Z" fill="#F9FAFC" stroke="#2B2727" stroke-width="3"/>
<path d="M18.8254 40.9295C18.3962 39.9512 18.1151 39.3073 17.9455 38.8047C17.7796 38.3131 17.7812 38.1221 17.792 38.0385C17.8391 37.6758 18.017 37.3428 18.2923 37.1021C18.3558 37.0467 18.5137 36.9392 19.0146 36.8038C19.5266 36.6655 20.2182 36.5412 21.27 36.3543L83.3954 25.3165C84.2469 25.1652 84.7969 25.0687 85.2214 25.0285C85.6285 24.99 85.7871 25.0192 85.8667 25.0435C86.1698 25.1357 86.4358 25.3215 86.6268 25.5742C86.677 25.6406 86.7591 25.7795 86.8631 26.1749C86.9717 26.5873 87.0705 27.1369 87.2218 27.9884L89.216 39.2126C89.3673 40.0641 89.4638 40.6141 89.504 41.0386C89.5425 41.4456 89.5132 41.6043 89.489 41.6839C89.3968 41.987 89.211 42.253 88.9583 42.444L89.8625 43.6408L88.9583 42.444C88.8919 42.4942 88.753 42.5762 88.3576 42.6803C87.9452 42.7888 87.3956 42.8877 86.5441 43.039L27.138 53.5937C25.6712 53.8543 25.372 53.878 25.1481 53.827C24.8866 53.7674 24.6458 53.6387 24.4509 53.4545C24.284 53.2967 24.1375 53.0348 23.5388 51.6706L18.8254 40.9295Z" fill="#F9FAFC" stroke="#2B2727" stroke-width="3"/>
<g clip-path="url(#clip0_59_24052)">
<path d="M71.5718 33.7989C70.5408 33.982 69.811 34.8634 69.7751 35.8701C69.7716 35.9692 69.7735 36.0693 69.783 36.1701C69.7914 36.2597 69.8765 36.3189 69.9649 36.3032L70.5501 36.1992C70.6386 36.1835 70.6964 36.0988 70.6927 36.0088C70.6884 35.9046 70.6975 35.8021 70.7172 35.7028C70.8161 35.2073 71.2056 34.7989 71.7327 34.7053C72.4196 34.5833 73.0751 35.0416 73.1972 35.7291C73.3193 36.4167 72.8617 37.0726 72.1748 37.1947L66.9762 38.1179C66.8734 38.1361 66.8142 38.2454 66.858 38.3404C66.9497 38.5392 67.0516 38.7316 67.1645 38.9158C67.1988 38.9718 67.2642 39.0002 67.3288 38.9888L72.3355 38.0996C73.5219 37.8889 74.3122 36.7562 74.1013 35.5686C73.8904 34.381 72.7582 33.5882 71.5718 33.7989Z" fill="#2B2727"/>
<path d="M71.2704 32.1018C69.3005 32.4516 67.9418 34.2239 68.057 36.1752C68.0629 36.2738 68.0716 36.3725 68.0845 36.4716C68.0961 36.5608 68.1809 36.62 68.2694 36.6043L68.8532 36.5006C68.9416 36.4849 69.0002 36.4003 68.9901 36.3108C68.9789 36.211 68.9732 36.1118 68.971 36.0129C68.9387 34.5645 69.9616 33.2677 71.4311 33.0067C73.0546 32.7184 74.6042 33.8029 74.8928 35.428C75.1814 37.0532 74.0997 38.6035 72.4762 38.8918L68.0658 39.675C67.94 39.6974 67.8887 39.8491 67.979 39.9397C68.1685 40.1297 68.3709 40.306 68.5848 40.4666C68.6202 40.4932 68.6652 40.5036 68.7088 40.4958L72.6372 39.7982C74.7603 39.4212 76.1757 37.3925 75.7982 35.2672C75.4208 33.142 73.3935 31.7247 71.2704 32.1018Z" fill="#2B2727"/>
<path d="M70.9715 30.4187C69.2503 30.7243 67.8516 31.7821 67.0543 33.1951C66.9685 33.347 66.8893 33.5035 66.8178 33.6631C66.8131 33.6736 66.8091 33.6841 66.8045 33.6946C66.7404 33.8399 66.6839 33.9887 66.6322 34.1396C66.6232 34.1662 66.6128 34.1919 66.6041 34.2187C66.5596 34.3551 66.5232 34.4945 66.4892 34.6346C66.4791 34.6764 66.4683 34.7186 66.4592 34.7606C66.434 34.8759 66.4141 34.9919 66.3962 35.1092C66.385 35.1837 66.3732 35.2589 66.365 35.3343C66.3561 35.414 66.3522 35.4941 66.3466 35.5746C66.3395 35.6834 66.3314 35.7916 66.3307 35.9016C66.3302 35.9513 66.3347 36.0022 66.3356 36.052C66.3383 36.1902 66.3427 36.3291 66.3558 36.4686C66.3561 36.4715 66.3556 36.4744 66.3559 36.4773C66.3653 36.5757 66.3754 36.674 66.3887 36.7727C66.4008 36.8619 66.4854 36.9211 66.5739 36.9054L67.1577 36.8017C67.2461 36.786 67.3048 36.7014 67.2922 36.6122C67.2784 36.5135 67.2678 36.4152 67.26 36.3168C67.0703 33.9264 68.7222 31.7371 71.1297 31.3095C73.6899 30.8549 76.1346 32.564 76.5897 35.1267C77.0448 37.6895 75.3381 40.1358 72.7778 40.5904L70.2592 41.0377C70.1004 41.0659 70.0793 41.2737 70.2329 41.3232C70.9936 41.5679 71.8166 41.6512 72.6555 41.5456L72.9385 41.4954C75.8071 40.9859 77.7777 38.3849 77.5648 35.5381C77.551 35.353 77.5289 35.1669 77.4963 34.9802C77.4623 34.7888 77.4179 34.6005 77.3658 34.4174C76.5855 31.6714 73.84 29.9093 70.9715 30.4187Z" fill="#2B2727"/>
</g>
<rect x="12.5" y="84.5" width="34" height="23" rx="4.5" fill="#F9FAFC" stroke="#2B2727" stroke-width="3" stroke-linecap="round" stroke-linejoin="round"/>
<path d="M20 101V97.3146M26 101V92.2506M32 101V95.0639M38 101V90" stroke="#2B2727" stroke-width="2" stroke-linecap="round" stroke-linejoin="round"/>
<defs>
<clipPath id="clip0_59_24052">
<rect width="12" height="12" fill="white" transform="translate(65 31.0983) rotate(-10.07)"/>
</clipPath>
</defs>
</svg>
