<svg width="128" height="128" viewBox="0 0 128 128" fill="none" xmlns="http://www.w3.org/2000/svg">
<path d="M65 87C65 85.3431 66.3431 84 68 84H111V90H68C66.3431 90 65 88.6569 65 87Z" fill="#F9FAFC" stroke="#2B2727" stroke-width="3"/>
<path d="M66 64.0002H72V85.0002C72 86.6571 70.6569 88.0002 69 88.0002C67.3431 88.0002 66 86.6571 66 85.0002V64.0002Z" fill="#F9FAFC" stroke="#2B2727" stroke-width="3"/>
<circle cx="68.5" cy="64.5002" r="7.5" fill="#F9FAFC" stroke="#2B2727" stroke-width="3"/>
<circle cx="69" cy="87" r="6" fill="#F9FAFC" stroke="#2B2727" stroke-width="3"/>
<path d="M103 81.4C103 79.1598 103 78.0397 103.436 77.184C103.819 76.4314 104.431 75.8195 105.184 75.436C106.04 75 107.16 75 109.4 75H111.4C111.96 75 112.24 75 112.454 75.109C112.642 75.2049 112.795 75.3578 112.891 75.546C113 75.7599 113 76.0399 113 76.6V100.4C113 100.96 113 101.24 112.891 101.454C112.795 101.642 112.642 101.795 112.454 101.891C112.24 102 111.96 102 111.4 102H109.4C107.16 102 106.04 102 105.184 101.564C104.431 101.181 103.819 100.569 103.436 99.816C103 98.9603 103 97.8402 103 95.6V81.4Z" fill="#F9FAFC" stroke="#2B2727" stroke-width="3"/>
<path d="M19.9205 58.923C19.6768 57.5511 19.5549 56.8651 19.538 56.2752C19.4374 52.7529 21.6533 49.5794 24.9947 48.4606C25.5543 48.2732 26.2403 48.1514 27.6122 47.9076L33.1646 46.9211L36.4883 65.6282L30.9359 66.6147C29.5639 66.8584 28.878 66.9803 28.2881 66.9971C24.7657 67.0978 21.5923 64.8819 20.4735 61.5404C20.2861 60.9809 20.1643 60.2949 19.9205 58.923Z" fill="#F9FAFC" stroke="#2B2727" stroke-width="3"/>
<path d="M27.9246 51.5241C27.3367 48.2156 27.0428 46.5614 27.4622 45.1833C27.8311 43.9711 28.5742 42.9068 29.5852 42.1429C30.7345 41.2745 32.3887 40.9806 35.6972 40.3928L77.8373 32.9058C81.1458 32.318 82.8 32.0241 84.1781 32.4434C85.3903 32.8123 86.4546 33.5555 87.2185 34.5664C88.0868 35.7157 88.3808 37.3699 88.9686 40.6784L90.8578 51.3119C91.4457 54.6204 91.7396 56.2747 91.3202 57.6527C90.9513 58.8649 90.2082 59.9292 89.1972 60.6931C88.0479 61.5615 86.3937 61.8554 83.0852 62.4432L40.9451 69.9302C37.6366 70.5181 35.9824 70.812 34.6043 70.3926C33.3921 70.0237 32.3278 69.2806 31.5639 68.2696C30.6956 67.1203 30.4016 65.4661 29.8138 62.1576L27.9246 51.5241Z" fill="#F9FAFC" stroke="#2B2727" stroke-width="3"/>
<path d="M17.6496 41.6102C16.7483 39.683 16.2976 38.7194 16.3924 37.8787C16.4754 37.1421 16.8282 36.4623 17.3828 35.9704C18.0157 35.409 19.0631 35.2229 21.1579 34.8507L83.133 23.8396C84.7872 23.5457 85.6144 23.3988 86.3034 23.6085C86.9095 23.7929 87.4417 24.1645 87.8236 24.6699C88.2578 25.2446 88.4047 26.0717 88.6986 27.726L90.343 36.981C90.6369 38.6353 90.7839 39.4624 90.5742 40.1514C90.3897 40.7575 90.0182 41.2897 89.5127 41.6716C88.938 42.1058 88.1109 42.2528 86.4567 42.5467L26.9598 53.1175C25.6613 53.3482 25.012 53.4635 24.4292 53.3351C23.9148 53.2217 23.4394 52.975 23.0507 52.6196C22.6102 52.2169 22.3308 51.6196 21.7721 50.425L17.6496 41.6102Z" fill="#F9FAFC" stroke="#2B2727" stroke-width="3"/>
<g clip-path="url(#clip0_59_24052)">
<path d="M72.2704 31.1017C70.3005 31.4515 68.9419 33.2239 69.0571 35.1752C69.0629 35.2737 69.0717 35.3724 69.0845 35.4715C69.0962 35.5608 69.181 35.6199 69.2694 35.6042L69.8532 35.5005C69.9417 35.4848 70.0002 35.4002 69.9901 35.3107C69.9789 35.211 69.9732 35.1117 69.9711 35.0129C69.9387 33.5644 70.9617 32.2676 72.4311 32.0066C74.0547 31.7183 75.6042 32.8028 75.8928 34.428C76.1814 36.0531 75.0998 37.6034 73.4762 37.8918L69.0658 38.675C68.9401 38.6973 68.8887 38.849 68.9791 38.9396C69.1685 39.1296 69.3709 39.306 69.5848 39.4666C69.6203 39.4932 69.6652 39.5035 69.7088 39.4958L73.6372 38.7981C75.7603 38.4211 77.1757 36.3924 76.7983 34.2672C76.4209 32.142 74.3935 30.7247 72.2704 31.1017Z" fill="#2B2727"/>
<path d="M71.9715 29.4186C70.2503 29.7243 68.8516 30.7821 68.0543 32.195C67.4985 33.1798 67.25 34.3423 67.3559 35.4686C67.3561 35.4715 67.3556 35.4743 67.3559 35.4773C67.3653 35.5756 67.3754 35.674 67.3887 35.7726C67.4008 35.8619 67.4854 35.921 67.5739 35.9053L68.1577 35.8016C68.2461 35.7859 68.3048 35.7013 68.2923 35.6122C68.2784 35.5135 68.2678 35.4151 68.26 35.3167C68.0704 32.9263 69.7223 30.737 72.1297 30.3095C74.69 29.8548 77.1346 31.5639 77.5897 34.1266C78.0448 36.6894 76.3381 39.1357 73.7779 39.5903L71.2593 40.0376C71.1004 40.0658 71.0793 40.2737 71.233 40.3231C71.9936 40.5678 72.8166 40.6511 73.6555 40.5456L73.9386 40.4953C76.8072 39.9859 78.7778 37.3848 78.5649 34.538C78.551 34.3529 78.529 34.1668 78.4963 33.9802C78.4623 33.7887 78.4179 33.6004 78.3659 33.4174C77.5855 30.6713 74.8401 28.9092 71.9715 29.4186Z" fill="#2B2727"/>
<path d="M72.5718 32.7989C71.5408 32.982 70.811 33.8634 70.7751 34.8701C70.7716 34.9692 70.7735 35.0692 70.783 35.17C70.7914 35.2597 70.8765 35.3188 70.9649 35.3031L71.5501 35.1992C71.6386 35.1835 71.6964 35.0987 71.6927 35.0088C71.6884 34.9045 71.6975 34.802 71.7173 34.7027C71.8161 34.2072 72.2056 33.7988 72.7328 33.7053C73.4197 33.5833 74.0751 34.0415 74.1973 34.7291C74.3194 35.4166 73.8617 36.0726 73.1748 36.1946L68.7064 36.9881C68.65 36.8689 68.5951 36.7443 68.537 36.6258C68.4962 36.5426 68.4068 36.496 68.3268 36.5102L67.748 36.613C67.669 36.627 67.6148 36.7317 67.6455 36.8164C67.7882 37.1942 67.9484 37.5874 68.1714 37.9258C68.2063 37.9787 68.2721 37.9988 68.3288 37.9887L73.3355 37.0996C74.522 36.8889 75.3123 35.7562 75.1013 34.5685C74.8904 33.3809 73.7582 32.5882 72.5718 32.7989Z" fill="#2B2727"/>
</g>
<rect x="13" y="83" width="35" height="25" rx="6" fill="#F9FAFC" stroke="#2B2727" stroke-width="3" stroke-linecap="round" stroke-linejoin="round"/>
<path d="M21 101V97.3146M27 101V92.2506M33 101V95.0639M39 101V90" stroke="#2B2727" stroke-width="2" stroke-linecap="round" stroke-linejoin="round"/>
<defs>
<clipPath id="clip0_59_24052">
<rect width="12" height="12" fill="white" transform="translate(66 30.0982) rotate(-10.07)"/>
</clipPath>
</defs>
</svg>
