<svg width="128" height="128" viewBox="0 0 128 128" fill="none" xmlns="http://www.w3.org/2000/svg">
<circle cx="65.1495" cy="38.3793" r="24.3793" fill="#F9FAFC" stroke="#2B2727" stroke-width="3" stroke-linecap="round" stroke-linejoin="round"/>
<path d="M28 87.4023C28 76.3566 36.9543 67.4023 48 67.4023H79.977C91.0227 67.4023 99.977 76.3566 99.977 87.4023V99.8391C99.977 107.571 93.709 113.839 85.977 113.839H42C34.268 113.839 28 107.571 28 99.8391V87.4023Z" fill="#F9FAFC" stroke="#2B2727" stroke-width="3" stroke-linecap="round" stroke-linejoin="round"/>
<path d="M52.335 89.266C52.335 86.0602 54.9338 83.4614 58.1396 83.4614H69.7488C72.9546 83.4614 75.5534 86.0602 75.5534 89.266V107.841C75.5534 111.047 72.9546 113.645 69.7488 113.645H58.1396C54.9338 113.645 52.335 111.047 52.335 107.841V89.266Z" fill="#F9FAFC"/>
<path d="M43.742 65.4672C42.0762 66.4289 41.5055 68.5589 42.4672 70.2247L52.5513 87.6909C53.2378 85.2505 55.4798 83.4614 58.1396 83.4614L58.1525 83.4614L48.4995 66.742C47.5378 65.0762 45.4078 64.5054 43.742 65.4672Z" fill="#F9FAFC"/>
<path d="M37.2874 101.649L40.1897 98.7471H43.092M43.092 98.7471H52.335M43.092 98.7471V87.1379M58.1396 83.4614C54.9338 83.4614 52.335 86.0602 52.335 89.266V107.841C52.335 111.047 54.9338 113.645 58.1396 113.645H69.7488C72.9546 113.645 75.5534 111.047 75.5534 107.841V89.266C75.5534 86.0602 72.9546 83.4614 69.7488 83.4614H58.1396ZM58.1396 83.4614C55.4798 83.4614 53.2378 85.2505 52.5513 87.6909L42.4672 70.2247C41.5055 68.5589 42.0762 66.4289 43.742 65.4672C45.4078 64.5054 47.5378 65.0762 48.4995 66.742L58.1525 83.4614L58.1396 83.4614Z" stroke="#2B2727" stroke-width="3" stroke-linecap="round" stroke-linejoin="round"/>
<path d="M68.6322 103.391C68.6322 100.185 71.231 97.5862 74.4368 97.5862H76.7586C79.9644 97.5862 82.5632 100.185 82.5632 103.391C82.5632 105.658 82.5632 106.929 82.5632 109.195C82.5632 112.401 79.9644 115 76.7586 115H74.4368C71.231 115 68.6322 112.401 68.6322 109.195V103.391Z" fill="#F9FAFC"/>
<path d="M91.2701 101.649L88.3678 98.7471H85.4655M85.4655 98.7471H80.242M85.4655 98.7471V87.1379M74.4368 115H76.7586C79.9644 115 82.5632 112.401 82.5632 109.195C82.5632 106.929 82.5632 105.658 82.5632 103.391C82.5632 100.185 79.9644 97.5862 76.7586 97.5862H74.4368C71.231 97.5862 68.6322 100.185 68.6322 103.391V109.195C68.6322 112.401 71.231 115 74.4368 115Z" stroke="#2B2727" stroke-width="3" stroke-linecap="round" stroke-linejoin="round"/>
</svg>
