<svg width="128" height="128" viewBox="0 0 128 128" fill="none" xmlns="http://www.w3.org/2000/svg">
<path d="M32 49.8136L32 41.4658C32 38.667 32 37.2676 32.545 36.1981C33.0243 35.2573 33.7892 34.4924 34.73 34.013C35.7996 33.468 37.1997 33.468 40 33.468H54.0303C56.8292 33.468 58.2287 33.468 59.2979 34.0126C60.2385 34.4917 61.0033 35.2561 61.4829 36.1964C62.028 37.2653 62.0288 38.6648 62.0303 41.4637L62.0349 49.8102C62.0358 51.4555 62.0362 52.2781 61.7357 53.1061C61.4984 53.7599 60.977 54.5545 60.4717 55.0325C59.8318 55.6377 59.2061 55.9088 57.9548 56.451C54.978 57.7408 51.116 58.9714 47.3021 58.9714C43.4288 58.9714 39.2705 57.7022 36.1084 56.3908L36.1083 56.3908C34.8762 55.8798 34.2602 55.6244 33.6049 55.0183C33.0946 54.5463 32.5494 53.7299 32.3088 53.0777C32 52.2402 32 51.4314 32 49.8136Z" fill="#F9FAFC" stroke="#2B2727" stroke-width="3" stroke-linecap="round" stroke-linejoin="round"/>
<rect x="35.4005" y="55.6755" width="23.3668" height="16.1428" rx="5" fill="#F9FAFC" stroke="#2B2727" stroke-width="3" stroke-linecap="round" stroke-linejoin="round"/>
<path d="M62.059 36.3078C62.059 44.7621 55.3301 51.6157 47.0295 51.6157C38.7289 51.6157 32 44.7621 32 36.3078C32 27.8536 38.7289 21 47.0295 21C55.3301 21 62.059 27.8536 62.059 36.3078Z" fill="#F9FAFC"/>
<path d="M62.059 36.3078C62.059 44.7621 55.3301 51.6157 47.0295 51.6157C38.7289 51.6157 32 44.7621 32 36.3078M62.059 36.3078C62.059 27.8536 55.3301 21 47.0295 21C38.7289 21 32 27.8536 32 36.3078M62.059 36.3078C58.5379 36.7257 54.3863 36.9756 50.4191 35.2753C46.6529 33.6612 43.5732 29.7685 43.133 28.2365C42.6877 29.931 41.5057 32.2096 39.5704 33.7438C36.8985 35.8619 33.336 36.3078 32 36.3078" stroke="#2B2727" stroke-width="3" stroke-linecap="round" stroke-linejoin="round"/>
<ellipse cx="80.3547" cy="36.3225" rx="15.0439" ry="15.3225" fill="#F9FAFC" stroke="#2B2727" stroke-width="3" stroke-linecap="round" stroke-linejoin="round"/>
<rect x="67.5394" y="55.7115" width="25.0732" height="16.1583" rx="5" fill="#F9FAFC" stroke="#2B2727" stroke-width="3" stroke-linecap="round" stroke-linejoin="round"/>
<path d="M81.8598 57L78.4011 65.5535C78.2562 65.9119 78.1837 66.0911 78.1782 66.2697C78.1734 66.4276 78.206 66.5843 78.2734 66.7271C78.3497 66.8887 78.4876 67.0241 78.7635 67.295L79.379 67.8994C79.7721 68.2853 79.9686 68.4783 80.1945 68.5508C80.3932 68.6145 80.6068 68.6145 80.8055 68.5508C81.0313 68.4783 81.2279 68.2853 81.6209 67.8994L82.2365 67.295C82.5124 67.0241 82.6503 66.8887 82.7266 66.7271C82.794 66.5843 82.8266 66.4276 82.8218 66.2697C82.8163 66.0911 82.7438 65.9119 82.5989 65.5535L79.1402 57" stroke="#2B2727" stroke-width="2" stroke-linecap="round" stroke-linejoin="round"/>
<path d="M95.5002 100.5L67.0001 111.001C65.5001 111.5 63.5001 111.5 61.5001 111L42.5001 105.5C39.1324 104.167 37.0001 102.5 37.0001 99.5002L37.0001 104.5C37.0001 105.5 36.0001 106.5 34.5001 106.5L29.0001 106.5C27.0001 106.5 26.0001 105.5 26.0001 103.5L26.0001 81.5C26.0001 80 27.5001 79.001 29.0001 79C30.5001 78.999 33.5001 79.0019 34.5001 79.001C35.5001 79 37.0001 80 37.0001 81.501L37.0001 84.5C37.0001 80.501 43 79.5001 47.0001 79.9992C50.6911 80.4598 52.5453 81.2837 54.1662 82.9273C55.1052 83.8795 56.2019 84.6873 57.4941 85.0319L70.5001 88.5002C70.9277 88.5857 71.3151 88.759 71.6603 89L84.5001 84.5C86.5001 84 89.5001 84.5 90.5001 86.5C91.5001 88.5 91.0001 91.366 89.2672 92L92.0001 91.0002C95.0001 90.0006 97.2001 92.0006 98.0001 94.0006C99.0001 96.501 98 99.5006 95.5002 100.5Z" fill="#F9FAFC"/>
<path d="M67.5001 98.5001L58.5001 96.5006M67.5001 98.5001C70.5001 99.0001 73.0001 97.0001 73.5001 95.0002C74.0182 92.9277 73.3337 90.1682 71.6603 89M67.5001 98.5001C68.9366 98.7561 69.7491 98.8794 71.5001 98.5001L89.2672 92M37.0001 84.5C37.0001 80.501 43 79.5001 47.0001 79.9992C50.6911 80.4598 52.5453 81.2837 54.1662 82.9273C55.1052 83.8795 56.2019 84.6873 57.4941 85.0319L70.5001 88.5002C70.9277 88.5857 71.3151 88.759 71.6603 89M37.0001 84.5L37.0001 99.5002M37.0001 84.5C37.0001 84.5 37.0001 83.0019 37.0001 81.501C37.0001 80 35.5001 79 34.5001 79.001C33.5001 79.0019 30.5001 78.999 29.0001 79C27.5001 79.001 26.0001 80 26.0001 81.5C26.0001 83 26.0001 101.5 26.0001 103.5C26.0001 105.5 27.0001 106.5 29.0001 106.5C31.0001 106.5 33.0001 106.5 34.5001 106.5C36.0001 106.5 37.0001 105.5 37.0001 104.5C37.0001 103.5 37.0001 99.5002 37.0001 99.5002M37.0001 99.5002C37.0001 102.5 39.1324 104.167 42.5001 105.5L61.5001 111C63.5001 111.5 65.5001 111.5 67.0001 111.001L95.5002 100.5C98 99.5006 99.0001 96.501 98.0001 94.0006C97.2001 92.0006 95.0001 90.0006 92.0001 91.0002L89.2672 92M89.2672 92C91.0001 91.366 91.5001 88.5 90.5001 86.5C89.5001 84.5 86.5001 84 84.5001 84.5L71.6603 89" stroke="#2B2727" stroke-width="3" stroke-linecap="round" stroke-linejoin="round"/>
</svg>
