<svg width="128" height="128" viewBox="0 0 128 128" fill="none" xmlns="http://www.w3.org/2000/svg">
<rect x="17.5" y="24.5" width="85" height="67" rx="10.5" fill="#F9FAFC" stroke="#2B2727" stroke-width="3"/>
<path d="M28.917 38.5H47.0003M39 48.5H57.0833M61 58.5H79.0833M31.667 68.5H49.7503M52.75 75.5H70.8333M75.667 83.5H89.167" stroke="#2B2727" stroke-width="3" stroke-linecap="round"/>
<path d="M25.5 33V84M35.5 33V84M45.5 33V84M55.5 33V84M65.5 33V84M75.5 33V84M85.5 33V84M95.5 33V84" stroke="#2B2727" stroke-width="0.5" stroke-linecap="round"/>
<path d="M96 33.8574L25 33.8574M96 43.7146L25 43.7146M96 53.5717L25 53.5717M96 63.4288L25 63.4288M96 73.286L25 73.286M96 83.1431L25 83.1431" stroke="#2B2727" stroke-width="0.5" stroke-linecap="round"/>
<rect x="42.5" y="71.5" width="68.7608" height="31.7931" rx="4.5" fill="#F9FAFC" stroke="#2B2727" stroke-width="3"/>
<rect x="48.0234" y="77.0239" width="4.43642" height="4.43642" rx="1.5" stroke="#2B2727"/>
<rect x="55.6346" y="77.0239" width="4.43642" height="4.43642" rx="1.5" stroke="#2B2727"/>
<rect x="63.2455" y="77.0239" width="4.43642" height="4.43642" rx="1.5" stroke="#2B2727"/>
<rect x="70.8566" y="77.0239" width="4.43642" height="4.43642" rx="1.5" stroke="#2B2727"/>
<rect x="78.4675" y="77.0239" width="4.43642" height="4.43642" rx="1.5" stroke="#2B2727"/>
<rect x="86.0786" y="77.0239" width="4.43642" height="4.43642" rx="1.5" stroke="#2B2727"/>
<rect x="93.6893" y="77.0239" width="4.43642" height="4.43642" rx="1.5" stroke="#2B2727"/>
<rect x="101.3" y="77.0239" width="4.43642" height="4.43642" rx="1.5" stroke="#2B2727"/>
<rect x="48.0238" y="84.635" width="4.43642" height="4.43642" rx="1.5" stroke="#2B2727"/>
<rect x="55.6344" y="84.6348" width="4.43642" height="4.43642" rx="1.5" stroke="#2B2727"/>
<rect x="63.2455" y="84.635" width="4.43642" height="4.43642" rx="1.5" stroke="#2B2727"/>
<rect x="70.8566" y="84.635" width="4.43642" height="4.43642" rx="1.5" stroke="#2B2727"/>
<rect x="78.4674" y="84.635" width="4.43642" height="4.43642" rx="1.5" stroke="#2B2727"/>
<rect x="86.0785" y="84.6348" width="4.43642" height="4.43642" rx="1.5" stroke="#2B2727"/>
<rect x="93.6897" y="84.635" width="4.43642" height="4.43642" rx="1.5" stroke="#2B2727"/>
<rect x="101.3" y="84.6348" width="4.43642" height="4.43642" rx="1.5" stroke="#2B2727"/>
<rect x="48.0234" y="92.2458" width="4.43642" height="4.43642" rx="1.5" stroke="#2B2727"/>
<rect x="55.6346" y="92.2458" width="42.4914" height="4.43642" rx="1.5" stroke="#2B2727"/>
<rect x="101.3" y="92.2456" width="4.43642" height="4.43642" rx="1.5" stroke="#2B2727"/>
</svg>
