<svg width="128" height="128" viewBox="0 0 128 128" fill="none" xmlns="http://www.w3.org/2000/svg">
<circle cx="68" cy="62.9998" r="38" fill="#F9FAFC"/>
<path d="M68 100.84C88.9868 100.84 106 83.8267 106 62.8398C106 41.853 88.9868 24.8398 68 24.8398C47.0132 24.8398 30 41.853 30 62.8398C30 76.6134 37.328 88.6754 48.2979 95.3398" stroke="#2B2727" stroke-width="3" stroke-linecap="round" stroke-linejoin="round"/>
<path d="M68 100.84C85.6731 100.84 100 88.3038 100 72.8398C100 57.3759 85.6731 44.8398 68 44.8398" stroke="#2B2727" stroke-width="3" stroke-linecap="round" stroke-linejoin="round"/>
<path d="M69 100.84C82.2548 100.84 93 92.781 93 82.8398C93 72.8987 82.2548 64.8398 69 64.8398" stroke="#2B2727" stroke-width="3" stroke-linecap="round" stroke-linejoin="round"/>
<path d="M68 100.84C75.732 100.84 82 97.2581 82 92.8398C82 88.4216 75.732 84.8398 68 84.8398" stroke="#2B2727" stroke-width="3" stroke-linecap="round" stroke-linejoin="round"/>
<path d="M68 100.84H22.5" stroke="#2B2727" stroke-width="3" stroke-linecap="round" stroke-linejoin="round"/>
<path d="M71.692 40.9997L67.3779 44.6974L70.945 49.0853" stroke="#2B2727" stroke-width="3" stroke-linecap="round" stroke-linejoin="round"/>
<path d="M71.5103 20.9997L67.1962 24.6974L70.7633 29.0853" stroke="#2B2727" stroke-width="3" stroke-linecap="round" stroke-linejoin="round"/>
<path d="M26.31 56.0265L30.0866 60.2718L34.408 56.6244" stroke="#2B2727" stroke-width="3" stroke-linecap="round" stroke-linejoin="round"/>
<path d="M71.692 60.9997L67.3779 64.6974L70.945 69.0853" stroke="#2B2727" stroke-width="3" stroke-linecap="round" stroke-linejoin="round"/>
<path d="M71.692 80.9997L67.3779 84.6974L70.945 89.0853" stroke="#2B2727" stroke-width="3" stroke-linecap="round" stroke-linejoin="round"/>
<path d="M96 101.242H118.207M118.207 101.242L113.965 97M118.207 101.242L113.965 105.485" stroke="#2B2727" stroke-width="3" stroke-linecap="round" stroke-linejoin="round"/>
<rect x="9" y="93.8398" width="13.6659" height="13.6659" rx="3" fill="#F9FAFC" stroke="#2B2727" stroke-width="3" stroke-linecap="round" stroke-linejoin="round"/>
</svg>
