<svg width="128" height="128" viewBox="0 0 128 128" fill="none" xmlns="http://www.w3.org/2000/svg">
<path d="M36.007 109.198C37.5768 110 39.6318 110 43.7419 110H84.2581C88.3682 110 90.4232 110 91.993 109.198C93.3739 108.492 94.4966 107.366 95.2001 105.981C96 104.407 96 102.346 96 98.224V84.2778C96 83.7829 95.5296 83.4227 95.0362 83.4227C92.847 83.4227 91.0723 81.592 91.0723 79.3338C91.0723 77.0756 92.847 75.2449 95.0362 75.2449C95.5296 75.2449 96 74.8847 96 74.3898V29.776C96 25.654 96 23.593 95.2001 22.0186C94.4965 20.6338 93.3739 19.5078 91.993 18.8022C90.4232 18 88.3682 18 84.2581 18L43.7419 18C39.6318 18 37.5768 18 36.007 18.8022C34.6261 19.5078 33.5034 20.6338 32.7999 22.0186C32 23.593 32 25.654 32 29.776L32 74.3898C32 74.8847 32.4704 75.2449 32.9639 75.2449C35.153 75.2449 36.9277 77.0756 36.9277 79.3338C36.9277 81.592 35.153 83.4227 32.9639 83.4227C32.4704 83.4227 32 83.7829 32 84.2778L32 98.224C32 102.346 32 104.407 32.7999 105.981C33.5035 107.366 34.6261 108.492 36.007 109.198Z" fill="#F9FAFC" stroke="#2B2727" stroke-width="3" stroke-linejoin="round"/>
<path d="M46 91.5761H83M46 98H72.4286M83 43.6358V34M46 55.4128H52.3429" stroke="#2B2727" stroke-width="2" stroke-linecap="round"/>
<path d="M40 79H88" stroke="#2B2727" stroke-width="3" stroke-linecap="round" stroke-linejoin="round" stroke-dasharray="4 8"/>
<path d="M45 35.6471C45 34.1851 46.1851 33 47.6471 33H57.3529C58.8149 33 60 34.1851 60 35.6471V45.3529C60 46.8149 58.8149 48 57.3529 48H47.6471C46.1851 48 45 46.8149 45 45.3529V35.6471Z" fill="#2B2727"/>
</svg>
