<svg width="128" height="128" viewBox="0 0 128 128" fill="none" xmlns="http://www.w3.org/2000/svg">
<path d="M10.5 33.2C10.5 29.8149 10.5012 27.3663 10.6585 25.4406C10.8144 23.5323 11.1162 22.2699 11.6444 21.2331C12.6511 19.2574 14.2574 17.6511 16.2331 16.6444C17.2699 16.1162 18.5323 15.8144 20.4406 15.6585C22.3663 15.5012 24.8149 15.5 28.2 15.5H72.8C76.1851 15.5 78.6337 15.5012 80.5594 15.6585C82.4677 15.8144 83.7301 16.1162 84.7669 16.6444C86.7426 17.6511 88.3489 19.2574 89.3556 21.2331C89.8838 22.2699 90.1856 23.5323 90.3415 25.4406C90.4988 27.3663 90.5 29.8149 90.5 33.2V88.8C90.5 92.1851 90.4988 94.6337 90.3415 96.5594C90.1856 98.4677 89.8838 99.7301 89.3556 100.767C88.3489 102.743 86.7426 104.349 84.7669 105.356C83.7301 105.884 82.4677 106.186 80.5594 106.341C78.6337 106.499 76.1851 106.5 72.8 106.5H28.2C24.8149 106.5 22.3663 106.499 20.4406 106.341C18.5323 106.186 17.2699 105.884 16.2331 105.356C14.2574 104.349 12.6511 102.743 11.6444 100.767C11.1162 99.7301 10.8144 98.4677 10.6585 96.5594C10.5012 94.6337 10.5 92.1851 10.5 88.8V33.2Z" fill="#F9FAFC" stroke="#2B2727" stroke-width="3"/>
<path d="M20 26H30M37 26L61 26M68 26H80M20 36H35M42 36H46M54.5 36H80M20 46H25M37 46H43M74 46L80 46M20 56H23.5M39 56H43.5M77.5 56H80M42 66H43.5M56.5 66H58M20 76H32.5M37 76H43.5M56.5 76H80M20 86H30M34 86H36M64.5 86H76.5M20 96H35M42 96H55M61 96H80M56.5 56H61" stroke="#2B2727" stroke-linecap="round"/>
<path d="M30.0625 42.5156H69.0312" stroke="#2B2727" stroke-width="3"/>
<path d="M48 36.9836C48 35.8622 48.9091 34.9531 50.0305 34.9531C51.1519 34.9531 52.0609 35.8622 52.0609 36.9836V43.075H48V36.9836Z" fill="#2B2727"/>
<mask id="path-5-inside-1_16_3145" fill="white">
<rect x="45" y="41" width="10" height="45" rx="2"/>
</mask>
<rect x="45" y="41" width="10" height="45" rx="2" fill="#F9FAFC" stroke="#2B2727" stroke-width="6" stroke-linecap="round" stroke-linejoin="round" mask="url(#path-5-inside-1_16_3145)"/>
<mask id="path-6-inside-2_16_3145" fill="white">
<path d="M38 89C38 87.1362 38 86.2044 38.3045 85.4693C38.7105 84.4892 39.4892 83.7105 40.4693 83.3045C41.2044 83 42.1362 83 44 83H56C57.8638 83 58.7956 83 59.5307 83.3045C60.5108 83.7105 61.2895 84.4892 61.6955 85.4693C62 86.2044 62 87.1362 62 89C62 89.9319 62 90.3978 61.8478 90.7654C61.6448 91.2554 61.2554 91.6448 60.7654 91.8478C60.3978 92 59.9319 92 59 92H41C40.0681 92 39.6022 92 39.2346 91.8478C38.7446 91.6448 38.3552 91.2554 38.1522 90.7654C38 90.3978 38 89.9319 38 89Z"/>
</mask>
<path d="M38 89C38 87.1362 38 86.2044 38.3045 85.4693C38.7105 84.4892 39.4892 83.7105 40.4693 83.3045C41.2044 83 42.1362 83 44 83H56C57.8638 83 58.7956 83 59.5307 83.3045C60.5108 83.7105 61.2895 84.4892 61.6955 85.4693C62 86.2044 62 87.1362 62 89C62 89.9319 62 90.3978 61.8478 90.7654C61.6448 91.2554 61.2554 91.6448 60.7654 91.8478C60.3978 92 59.9319 92 59 92H41C40.0681 92 39.6022 92 39.2346 91.8478C38.7446 91.6448 38.3552 91.2554 38.1522 90.7654C38 90.3978 38 89.9319 38 89Z" fill="#F9FAFC" stroke="#2B2727" stroke-width="6" stroke-linecap="round" stroke-linejoin="round" mask="url(#path-6-inside-2_16_3145)"/>
<circle cx="50" cy="43.6719" r="4.5" fill="#F9FAFC" stroke="#2B2727" stroke-width="3"/>
<path d="M39.4887 66.5781H22.4488L30.9688 44.1165L39.4887 66.5781Z" stroke="#2B2727" stroke-width="2" stroke-linecap="round" stroke-linejoin="round"/>
<mask id="path-9-inside-3_16_3145" fill="white">
<path d="M21 67.9219C21 71.2356 23.6863 73.9219 27 73.9219H34.9375C38.2512 73.9219 40.9375 71.2356 40.9375 67.9219V65.8594C40.9375 65.3071 40.4898 64.8594 39.9375 64.8594H22C21.4477 64.8594 21 65.3071 21 65.8594V67.9219Z"/>
</mask>
<path d="M21 67.9219C21 71.2356 23.6863 73.9219 27 73.9219H34.9375C38.2512 73.9219 40.9375 71.2356 40.9375 67.9219V65.8594C40.9375 65.3071 40.4898 64.8594 39.9375 64.8594H22C21.4477 64.8594 21 65.3071 21 65.8594V67.9219Z" fill="#F9FAFC" stroke="#2B2727" stroke-width="6" stroke-linecap="round" stroke-linejoin="round" mask="url(#path-9-inside-3_16_3145)"/>
<circle cx="31" cy="43.4844" r="2.5" fill="#F9FAFC" stroke="#2B2727" stroke-width="3" stroke-linecap="round" stroke-linejoin="round"/>
<path d="M77.4887 66.5781H60.4488L68.9688 44.1165L77.4887 66.5781Z" stroke="#2B2727" stroke-width="2" stroke-linecap="round" stroke-linejoin="round"/>
<mask id="path-12-inside-4_16_3145" fill="white">
<path d="M59 67.9219C59 71.2356 61.6863 73.9219 65 73.9219H72.9375C76.2512 73.9219 78.9375 71.2356 78.9375 67.9219V65.8594C78.9375 65.3071 78.4898 64.8594 77.9375 64.8594H60C59.4477 64.8594 59 65.3071 59 65.8594V67.9219Z"/>
</mask>
<path d="M59 67.9219C59 71.2356 61.6863 73.9219 65 73.9219H72.9375C76.2512 73.9219 78.9375 71.2356 78.9375 67.9219V65.8594C78.9375 65.3071 78.4898 64.8594 77.9375 64.8594H60C59.4477 64.8594 59 65.3071 59 65.8594V67.9219Z" fill="#F9FAFC" stroke="#2B2727" stroke-width="6" stroke-linecap="round" stroke-linejoin="round" mask="url(#path-12-inside-4_16_3145)"/>
<circle cx="69" cy="43.4844" r="2.5" fill="#F9FAFC" stroke="#2B2727" stroke-width="3" stroke-linecap="round" stroke-linejoin="round"/>
<path fill-rule="evenodd" clip-rule="evenodd" d="M87.7592 94C83.0137 94 79.1666 90.2076 79.1666 85.5294C79.1666 81.0444 82.7025 77.3736 87.176 77.078C88.6738 74.1697 91.9636 72.4684 95.2335 72.8893C96.6774 71.127 98.8873 70 101.364 70C105.473 70 108.847 73.1013 109.209 77.0589L109.241 77.0588C113.986 77.0588 117.833 80.8512 117.833 85.5294C117.833 90.2076 113.986 94 109.241 94C101.728 94 94.6893 94 87.7592 94Z" fill="#F9FAFC"/>
<path d="M98.8451 88V79M98.8451 79L95 82.2042M98.8451 79L102.69 82.2042M87.7592 94C83.0137 94 79.1666 90.2076 79.1666 85.5294C79.1666 81.0444 82.7025 77.3736 87.176 77.078C88.6738 74.1697 91.9636 72.4684 95.2335 72.8893C96.6774 71.127 98.8873 70 101.364 70C105.473 70 108.847 73.1013 109.209 77.0589L109.241 77.0588C113.986 77.0588 117.833 80.8512 117.833 85.5294C117.833 90.2076 113.986 94 109.241 94C101.728 94 94.6893 94 87.7592 94Z" stroke="#2B2727" stroke-width="3" stroke-linecap="round" stroke-linejoin="round"/>
</svg>
