<svg width="128" height="128" viewBox="0 0 128 128" fill="none" xmlns="http://www.w3.org/2000/svg">
<path d="M31.9995 36.5C57.3475 32.415 71.3552 32.4481 95.9993 36.5112" stroke="#2B2727" stroke-width="3"/>
<path d="M42 105.6C42 102.24 42 100.56 42.6539 99.2761C43.2292 98.1471 44.1471 97.2292 45.276 96.654C46.5595 96 48.2397 96 51.6 96H76.4C79.7603 96 81.4404 96 82.7239 96.654C83.8529 97.2292 84.7708 98.1471 85.346 99.2761C86 100.56 86 102.24 86 105.6V105.8C86 106.92 86 107.48 85.782 107.908C85.5902 108.284 85.2843 108.59 84.908 108.782C84.4801 109 83.9201 109 82.8 109H45.2C44.0799 109 43.5198 109 43.092 108.782C42.7157 108.59 42.4097 108.284 42.218 107.908C42 107.48 42 106.92 42 105.8V105.6Z" fill="#F9FAFC"/>
<path d="M72 34C72 36.9611 70.3912 39.5465 68 40.9297C66.8233 41.6104 65.4571 42 64 42C62.5428 42 61.1767 41.6104 60 40.9297C57.6088 39.5465 56 36.9611 56 34C56 29.5817 59.5817 26 64 26C68.4182 26 72 29.5817 72 34Z" fill="#F9FAFC"/>
<path d="M66 96C67.1045 96 68 95.1046 68 94V40.9297C66.8233 41.6104 65.4571 42 64 42C62.5428 42 61.1767 41.6104 60 40.9297V94C60 95.1046 60.8954 96 62 96H66Z" fill="#F9FAFC"/>
<path d="M66 26.252V24C66 22.8954 65.1045 22 64 22C62.8954 22 62 22.8954 62 24V26.252C62.6392 26.0875 63.3094 26 64 26C64.6906 26 65.3607 26.0875 66 26.252Z" fill="#F9FAFC"/>
<path d="M62 26.252C62 24.2994 62 25.9526 62 24M62 26.252V24M62 26.252C62.6392 26.0875 63.3094 26 64 26M62 24C62 22.8954 62.8954 22 64 22C65.1045 22 66 22.8954 66 24V26.252C65.3607 26.0875 64.6906 26 64 26M64 26C59.5817 26 56 29.5817 56 34C56 36.9611 57.6088 39.5465 60 40.9297M64 26C68.4182 26 72 29.5817 72 34C72 36.9611 70.3912 39.5465 68 40.9297M68 40.9297V94C68 95.1046 67.1045 96 66 96H62C60.8954 96 60 95.1046 60 94V40.9297M68 40.9297C66.8233 41.6104 65.4571 42 64 42C62.5428 42 61.1767 41.6104 60 40.9297M45.2 109H82.8C83.9201 109 84.4801 109 84.908 108.782C85.2843 108.59 85.5902 108.284 85.782 107.908C86 107.48 86 106.92 86 105.8V105.6C86 102.24 86 100.56 85.346 99.2761C84.7708 98.1471 83.8529 97.2292 82.7239 96.654C81.4404 96 79.7603 96 76.4 96H51.6C48.2397 96 46.5595 96 45.276 96.654C44.1471 97.2292 43.2292 98.1471 42.6539 99.2761C42 100.56 42 102.24 42 105.6V105.8C42 106.92 42 107.48 42.218 107.908C42.4097 108.284 42.7157 108.59 43.092 108.782C43.5198 109 44.0799 109 45.2 109Z" stroke="#2B2727" stroke-width="3"/>
<path d="M46.0057 73.4716H17.4488L31.7273 35.8284L46.0057 73.4716Z" stroke="#2B2727" stroke-width="2" stroke-linecap="round" stroke-linejoin="round"/>
<path d="M16 74C16 77.3137 18.6863 80 22 80H42C45.3137 80 48 77.3137 48 74V71C48 70.4477 47.5523 70 47 70H17C16.4477 70 16 70.4477 16 71V74Z" fill="#F9FAFC"/>
<path d="M36 36C36 38.2091 34.2091 40 32 40C29.7909 40 28 38.2091 28 36C28 33.7909 29.7909 32 32 32C34.2091 32 36 33.7909 36 36Z" fill="#F9FAFC"/>
<path d="M16 74C16 77.3137 18.6863 80 22 80H42C45.3137 80 48 77.3137 48 74V71C48 70.4477 47.5523 70 47 70H17C16.4477 70 16 70.4477 16 71V74Z" stroke="#2B2727" stroke-width="3" stroke-linecap="round" stroke-linejoin="round"/>
<path d="M36 36C36 38.2091 34.2091 40 32 40C29.7909 40 28 38.2091 28 36C28 33.7909 29.7909 32 32 32C34.2091 32 36 33.7909 36 36Z" stroke="#2B2727" stroke-width="3" stroke-linecap="round" stroke-linejoin="round"/>
<path d="M110.006 73.4716H81.4488L95.7273 35.8284L110.006 73.4716Z" stroke="#2B2727" stroke-width="2" stroke-linecap="round" stroke-linejoin="round"/>
<path d="M80 74C80 77.3137 82.6863 80 86 80H106C109.314 80 112 77.3137 112 74V71C112 70.4477 111.552 70 111 70H81C80.4477 70 80 70.4477 80 71V74Z" fill="#F9FAFC"/>
<path d="M100 36C100 38.2091 98.2091 40 96 40C93.7909 40 92 38.2091 92 36C92 33.7909 93.7909 32 96 32C98.2091 32 100 33.7909 100 36Z" fill="#F9FAFC"/>
<path d="M80 74C80 77.3137 82.6863 80 86 80H106C109.314 80 112 77.3137 112 74V71C112 70.4477 111.552 70 111 70H81C80.4477 70 80 70.4477 80 71V74Z" stroke="#2B2727" stroke-width="3" stroke-linecap="round" stroke-linejoin="round"/>
<path d="M100 36C100 38.2091 98.2091 40 96 40C93.7909 40 92 38.2091 92 36C92 33.7909 93.7909 32 96 32C98.2091 32 100 33.7909 100 36Z" stroke="#2B2727" stroke-width="3" stroke-linecap="round" stroke-linejoin="round"/>
</svg>
