<svg width="128" height="128" viewBox="0 0 128 128" fill="none" xmlns="http://www.w3.org/2000/svg">
<path d="M36.0398 86.0486H47.6947V120.5H36.0398V86.0486Z" fill="#F9FAFC" stroke="#2B2727" stroke-width="3"/>
<path d="M15 43C15 35.8203 20.8203 30 28 30H54.9204C62.1001 30 67.9204 35.8203 67.9204 43V87.0177C67.9204 94.1974 62.1001 100.018 54.9204 100.018H28C20.8203 100.018 15 94.1974 15 87.0177V43Z" fill="#F9FAFC"/>
<path d="M20.6991 45.5133C20.6991 40.5427 24.7286 36.5133 29.6991 36.5133H53.2212C58.1918 36.5133 62.2212 40.5427 62.2212 45.5133V77.177C62.2212 82.1476 58.1918 86.177 53.2212 86.177H29.6991C24.7286 86.177 20.6991 82.1476 20.6991 77.177V45.5133Z" fill="#F9FAFC"/>
<path d="M15 43C15 35.8203 20.8203 30 28 30H54.9204C62.1001 30 67.9204 35.8203 67.9204 43V87.0177C67.9204 94.1974 62.1001 100.018 54.9204 100.018H28C20.8203 100.018 15 94.1974 15 87.0177V43Z" stroke="#2B2727" stroke-width="3"/>
<path d="M20.6991 45.5133C20.6991 40.5427 24.7286 36.5133 29.6991 36.5133H53.2212C58.1918 36.5133 62.2212 40.5427 62.2212 45.5133V77.177C62.2212 82.1476 58.1918 86.177 53.2212 86.177H29.6991C24.7286 86.177 20.6991 82.1476 20.6991 77.177V45.5133Z" stroke="#2B2727" stroke-width="3"/>
<g clip-path="url(#clip0_499_32039)">
<path d="M41.8645 54.5623C38.6067 54.5623 35.9238 57.017 35.553 60.1781C35.5343 60.3378 35.5202 60.4985 35.5127 60.661C35.5059 60.8075 35.625 60.9264 35.7713 60.9264H36.7368C36.8831 60.9264 37.001 60.8075 37.0103 60.6611C37.0207 60.498 37.0399 60.3372 37.0646 60.1781C37.425 57.8468 39.4343 56.0589 41.8645 56.0589C44.5495 56.0589 46.725 58.2388 46.725 60.9264C46.725 63.6141 44.5495 65.7917 41.8645 65.7917H34.5706C34.3626 65.7917 34.2371 66.0202 34.3562 66.1912C34.6058 66.5498 34.88 66.8901 35.1772 67.2085C35.2265 67.2613 35.2957 67.2906 35.3678 67.2906H41.8645C45.3757 67.2906 48.2226 64.4411 48.2225 60.9264C48.2225 57.4118 45.3757 54.5623 41.8645 54.5623Z" fill="#2B2727"/>
<path d="M41.8645 51.7788C39.018 51.7788 36.4744 53.0764 34.7938 55.1148C33.6225 56.5353 32.893 58.3284 32.742 60.1642C32.7416 60.1689 32.74 60.1734 32.7396 60.1781C32.7267 60.3384 32.7149 60.4991 32.7082 60.661C32.7021 60.8075 32.821 60.9264 32.9672 60.9264H33.9327C34.079 60.9264 34.1971 60.8075 34.2024 60.661C34.2083 60.4988 34.2194 60.3382 34.2349 60.1781C34.6114 56.2918 37.8831 53.2521 41.8645 53.2521C46.0986 53.2521 49.5314 56.6882 49.5314 60.9264C49.5314 65.1647 46.0986 68.6008 41.8645 68.6007H37.6992C37.4366 68.6007 37.3436 68.928 37.5758 69.051C38.7257 69.6599 40.0214 70.0278 41.3964 70.0974H41.8645C46.6085 70.0974 50.5084 66.4883 50.9776 61.8636C51.0081 61.563 51.0258 61.2583 51.0265 60.9498C51.0265 60.6332 51.0089 60.3186 50.9776 60.0103C50.5084 55.3856 46.6085 51.7788 41.8645 51.7788Z" fill="#2B2727"/>
<path d="M41.8645 57.3691C40.1595 57.3691 38.7385 58.5744 38.3943 60.1781C38.3605 60.336 38.3351 60.497 38.3215 60.6612C38.3095 60.8074 38.4291 60.9264 38.5753 60.9264H39.5431C39.6894 60.9264 39.8062 60.807 39.8259 60.6617C39.8487 60.4934 39.8924 60.3317 39.9524 60.1781C40.252 59.4119 40.9928 58.868 41.8645 58.868C43.0005 58.868 43.9209 59.7893 43.921 60.9264C43.921 62.0635 43.0005 62.9848 41.8645 62.9849H34.4746C34.4181 62.7777 34.3655 62.5622 34.3062 62.3558C34.2644 62.2108 34.1344 62.1106 34.0021 62.1106H33.0449C32.9142 62.1106 32.7975 62.2631 32.8227 62.4075C32.9438 63.0539 33.0887 63.7298 33.3499 64.3359C33.3907 64.4307 33.4906 64.4816 33.5844 64.4816H41.8645C43.8266 64.4816 45.4161 62.8905 45.4161 60.9264C45.4161 58.9624 43.8266 57.3691 41.8645 57.3691Z" fill="#2B2727"/>
</g>
<path d="M24.7699 118.673C24.7699 116.463 26.5608 114.673 28.7699 114.673H54.9646C57.1737 114.673 58.9646 116.463 58.9646 118.673V120C58.9646 121.105 58.0692 122 56.9646 122H26.7699C25.6653 122 24.7699 121.105 24.7699 120V118.673Z" fill="#F9FAFC" stroke="#2B2727" stroke-width="3"/>
<path d="M34.5398 91.8762C34.5398 92.3258 34.1753 92.6903 33.7257 92.6903C33.276 92.6903 32.9115 92.3258 32.9115 91.8762C32.9115 91.4265 33.276 91.062 33.7257 91.062C34.1753 91.062 34.5398 91.4265 34.5398 91.8762Z" fill="#2B2727"/>
<path d="M41.8673 91.8762C41.8673 92.3258 41.5027 92.6903 41.0531 92.6903C40.6034 92.6903 40.2389 92.3258 40.2389 91.8762C40.2389 91.4265 40.6034 91.062 41.0531 91.062C41.5027 91.062 41.8673 91.4265 41.8673 91.8762Z" fill="#2B2727"/>
<path d="M50.0088 91.8762C50.0088 92.3258 49.6443 92.6903 49.1947 92.6903C48.745 92.6903 48.3805 92.3258 48.3805 91.8762C48.3805 91.4265 48.745 91.062 49.1947 91.062C49.6443 91.062 50.0088 91.4265 50.0088 91.8762Z" fill="#2B2727"/>
<path d="M34.5398 91.8762C34.5398 92.3258 34.1753 92.6903 33.7257 92.6903C33.276 92.6903 32.9115 92.3258 32.9115 91.8762C32.9115 91.4265 33.276 91.062 33.7257 91.062C34.1753 91.062 34.5398 91.4265 34.5398 91.8762Z" stroke="#2B2727" stroke-width="3"/>
<path d="M41.8673 91.8762C41.8673 92.3258 41.5027 92.6903 41.0531 92.6903C40.6034 92.6903 40.2389 92.3258 40.2389 91.8762C40.2389 91.4265 40.6034 91.062 41.0531 91.062C41.5027 91.062 41.8673 91.4265 41.8673 91.8762Z" stroke="#2B2727" stroke-width="3"/>
<path d="M50.0088 91.8762C50.0088 92.3258 49.6443 92.6903 49.1947 92.6903C48.745 92.6903 48.3805 92.3258 48.3805 91.8762C48.3805 91.4265 48.745 91.062 49.1947 91.062C49.6443 91.062 50.0088 91.4265 50.0088 91.8762Z" stroke="#2B2727" stroke-width="3"/>
<circle cx="13" cy="13" r="11.5" transform="matrix(-1 0 0 1 103.5 16)" fill="#F9FAFC" stroke="#2B2727" stroke-width="3"/>
<path d="M113 85C113 87.5 112.007 89.3496 109 90C107.236 90.3814 104 89.5 103.5 87L101 63.5V116C101 118.5 98.5 121.5 95 121.5C91.5 121.5 89 118 89 116C89 118 87 121.5 82.5 121.5C80 121.5 77 119 77 115.5V61.5L72 70.5C71 72 68 73 65.5 71L50 55.5C49 54 48.5238 51.3362 50.5 49C52.2334 47.2828 55 47.5 56.5 48.5L67.5 59L73 49C74.429 46.5763 75.5 45.5 78.5 45.5H100.716C106 45.5 109.5 49.5 109.889 53L113 85Z" fill="#F9FAFC"/>
<path d="M89 116C89 118 87 121.5 82.5 121.5C80 121.5 77 119 77 115.5V61.5L72 70.5C71 72 68 73 65.5 71L50 55.5C49 54 48.5238 51.3362 50.5 49C52.2334 47.2828 55 47.5 56.5 48.5L67.5 59L73 49C74.429 46.5763 75.5 45.5 78.5 45.5H100.716C106 45.5 109.5 49.5 109.889 53L113 85C113 87.5 112.007 89.3496 109 90C107.236 90.3814 104 89.5 103.5 87L101 63.5V116C101 118.5 98.5 121.5 95 121.5C91.5 121.5 89 118 89 116ZM89 116V89.5" stroke="#2B2727" stroke-width="3" stroke-linecap="round" stroke-linejoin="round"/>
<defs>
<clipPath id="clip0_499_32039">
<rect width="19.5398" height="19.5398" fill="white" transform="translate(32.0974 51.1682)"/>
</clipPath>
</defs>
</svg>
