<svg width="128" height="128" viewBox="0 0 128 128" fill="none" xmlns="http://www.w3.org/2000/svg">
<path d="M10 38C10 33.5817 13.5817 30 18 30H99C103.418 30 107 33.5817 107 38V80C107 84.4183 103.418 88 99 88H18C13.5817 88 10 84.4183 10 80V38Z" fill="#F9FAFC" stroke="#2B2727" stroke-width="3"/>
<g clip-path="url(#clip0_499_32411)">
<path d="M58.9978 53.7792C56.3302 53.7792 54.1333 55.7892 53.8297 58.3777C53.8143 58.5085 53.8028 58.64 53.7966 58.7731C53.7911 58.8931 53.8886 58.9904 54.0084 58.9904H54.799C54.9188 58.9904 55.0153 58.893 55.0229 58.7732C55.0315 58.6396 55.0472 58.508 55.0674 58.3777C55.3625 56.4687 57.0078 55.0047 58.9978 55.0047C61.1964 55.0047 62.9778 56.7897 62.9778 58.9904C62.9778 61.1912 61.1964 62.9743 58.9978 62.9743L53.0252 62.9743C52.8549 62.9743 52.7522 63.1615 52.8496 63.3015C53.0541 63.5951 53.2786 63.8738 53.522 64.1345C53.5623 64.1777 53.6189 64.2017 53.678 64.2017H58.9978C61.8729 64.2017 64.204 61.8684 64.2039 58.9904C64.2039 56.1125 61.8729 53.7792 58.9978 53.7792Z" fill="#2B2727"/>
<path d="M58.9978 51.5C56.667 51.5 54.5841 52.5626 53.208 54.2316C52.2488 55.3948 51.6515 56.863 51.5279 58.3663C51.5275 58.3701 51.5263 58.3738 51.526 58.3777C51.5154 58.509 51.5057 58.6405 51.5002 58.7731C51.4952 58.8931 51.5925 58.9904 51.7123 58.9904H52.5029C52.6227 58.9904 52.7194 58.8931 52.7237 58.7731C52.7285 58.6403 52.7376 58.5087 52.7503 58.3777C53.0586 55.1954 55.7376 52.7064 58.9978 52.7064C62.4648 52.7064 65.2757 55.52 65.2757 58.9904C65.2757 62.4609 62.4648 65.2745 58.9978 65.2745H55.5871C55.372 65.2745 55.2958 65.5425 55.486 65.6432C56.4275 66.1418 57.4885 66.443 58.6145 66.5H58.9978C62.8824 66.5 66.0758 63.5448 66.46 59.7578C66.4849 59.5117 66.4994 59.2622 66.5 59.0096C66.5 58.7503 66.4856 58.4927 66.46 58.2403C66.0758 54.4534 62.8824 51.5 58.9978 51.5Z" fill="#2B2727"/>
<path d="M58.9978 56.0775C57.6016 56.0775 56.438 57.0645 56.1562 58.3777C56.1285 58.507 56.1077 58.6388 56.0966 58.7733C56.0868 58.893 56.1847 58.9904 56.3045 58.9904H57.0969C57.2167 58.9904 57.3124 58.8927 57.3285 58.7737C57.3471 58.6359 57.383 58.5035 57.4321 58.3777C57.6773 57.7503 58.2839 57.3049 58.9978 57.3049C59.928 57.3049 60.6816 58.0593 60.6817 58.9904C60.6817 59.9215 59.928 60.6759 58.9978 60.676L52.9466 60.676C52.9003 60.5064 52.8573 60.3299 52.8087 60.1608C52.7745 60.0421 52.6681 59.9601 52.5597 59.9601H51.7759C51.6689 59.9601 51.5734 60.0849 51.594 60.2032C51.6931 60.7325 51.8118 61.2859 52.0257 61.7823C52.0591 61.8598 52.1409 61.9015 52.2176 61.9015L58.9978 61.9015C60.6044 61.9015 61.906 60.5987 61.906 58.9904C61.906 57.3822 60.6044 56.0775 58.9978 56.0775Z" fill="#2B2727"/>
</g>
<circle cx="8.07109" cy="8.07109" r="6.57109" transform="matrix(-1 0 0 1 112.102 53)" fill="#F9FAFC" stroke="#2B2727" stroke-width="3"/>
<path d="M118 95.8389C118 97.391 117.384 98.5393 115.517 98.9431C114.422 99.18 112.412 98.6327 112.102 97.0806L110.55 82.4905V115.085C110.55 116.637 108.998 118.5 106.825 118.5C104.652 118.5 103.1 116.327 103.1 115.085C103.1 116.327 101.858 118.5 99.064 118.5C97.5118 118.5 95.6493 116.948 95.6493 114.775V81.2488L92.545 86.8365C91.9242 87.7678 90.0616 88.3886 88.5095 87.1469L78.8863 77.5237C78.2654 76.5924 77.9698 74.9386 79.1967 73.4882C80.2729 72.4221 81.9905 72.5569 82.9218 73.1777L89.7512 79.6967L93.1659 73.4882C94.0531 71.9834 94.718 71.3152 96.5806 71.3152H110.373C113.654 71.3152 115.827 73.7986 116.068 75.9716L118 95.8389Z" fill="#F9FAFC"/>
<path d="M103.1 115.085C103.1 116.327 101.858 118.5 99.064 118.5C97.5118 118.5 95.6493 116.948 95.6493 114.775V81.2488L92.545 86.8365C91.9242 87.7678 90.0616 88.3886 88.5095 87.1469L78.8863 77.5237C78.2654 76.5924 77.9698 74.9386 79.1967 73.4882C80.2729 72.4221 81.9905 72.5569 82.9218 73.1777L89.7512 79.6967L93.1659 73.4882C94.0531 71.9834 94.718 71.3152 96.5806 71.3152H110.373C113.654 71.3152 115.827 73.7986 116.068 75.9716L118 95.8389C118 97.391 117.384 98.5393 115.517 98.9431C114.422 99.18 112.412 98.6327 112.102 97.0806L110.55 82.4905V115.085C110.55 116.637 108.998 118.5 106.825 118.5C104.652 118.5 103.1 116.327 103.1 115.085ZM103.1 115.085V98.6327" stroke="#2B2727" stroke-width="3" stroke-linecap="round" stroke-linejoin="round"/>
<defs>
<clipPath id="clip0_499_32411">
<rect width="16" height="16" fill="white" transform="translate(51 51)"/>
</clipPath>
</defs>
</svg>
