<svg width="128" height="128" viewBox="0 0 128 128" fill="none" xmlns="http://www.w3.org/2000/svg">
<path d="M61.7356 27.2704C63.2129 26.4771 64.9895 26.4771 66.4668 27.2704L109.798 50.5407C113.31 52.427 113.31 57.4643 109.798 59.3506L66.2645 82.7296C64.7871 83.5229 63.0105 83.5229 61.5332 82.7296L18.2024 59.4593C14.6899 57.573 14.6899 52.5357 18.2024 50.6494L61.7356 27.2704Z" fill="#F9FAFC"/>
<path d="M95 77.418V67.2975L66.2645 82.7296C64.7871 83.5229 63.0105 83.5229 61.5332 82.7296L33 67.4062V77.1965C33 83.9385 36.3229 90.3767 42.2634 93.5649C58.7737 102.426 70.5326 102.202 86.0149 93.6001C91.8017 90.385 95 84.0379 95 77.418Z" fill="#F9FAFC"/>
<path d="M66.2645 82.7296L109.798 59.3506C113.31 57.4643 113.31 52.427 109.798 50.5407L88.1322 38.9056L66.4668 27.2704C64.9895 26.4771 63.2129 26.4771 61.7356 27.2704L50.8523 33.1152M66.2645 82.7296C64.7871 83.523 63.0105 83.523 61.5332 82.7296M66.2645 82.7296L95 67.2975C94.1662 70.4664 94.3363 72.8422 95 77.418C96.3596 83.7287 92.4748 90.232 86.0149 93.6001C70.3959 100.146 58.6363 100.359 42.2634 93.5649C35.8832 90.312 32.2262 83.8246 33 77.1965C33.4443 71.8335 33.5164 69.441 33 67.4062L61.5332 82.7296M61.5332 82.7296L50.7005 76.912L39.8678 71.0945L18.2024 59.4593C14.6899 57.573 14.6899 52.5357 18.2024 50.6494L39.969 38.9599" stroke="#2B2727" stroke-width="3" stroke-linecap="round" stroke-linejoin="round"/>
<path d="M75.4299 110.868L79.6333 104.12L83.8368 110.868C84.5291 111.979 84.4207 113.411 83.5688 114.406L81.9117 116.34C80.7144 117.738 78.5523 117.738 77.355 116.34L75.6978 114.406C74.846 113.411 74.7375 111.979 75.4299 110.868Z" fill="#F9FAFC"/>
<path d="M62 54L79.4681 74.3795C79.8164 74.7858 80.0511 75.278 80.1393 75.8058C81.624 84.6966 81.04 91.6118 79.6333 104.12M79.6333 104.12L75.4299 110.868C74.7375 111.979 74.846 113.411 75.6978 114.406L77.355 116.34C78.5523 117.738 80.7144 117.738 81.9117 116.34L83.5688 114.406C84.4207 113.411 84.5291 111.979 83.8368 110.868L79.6333 104.12Z" stroke="#2B2727" stroke-width="3" stroke-linecap="round" stroke-linejoin="round"/>
</svg>
