<svg width="128" height="128" viewBox="0 0 128 128" fill="none" xmlns="http://www.w3.org/2000/svg">
<rect x="19.5" y="98.5" width="69" height="89" rx="10.5" transform="rotate(-90 19.5 98.5)" fill="#F9FAFC" stroke="#2B2727" stroke-width="3" stroke-linejoin="round"/>
<path d="M71 64H76.1667M79.7833 64L92.1833 64M95.8 64H102M71 74H78.75M81.075 74H87.0167M88.825 74H100.5M71 84H78.2333M80.3 84H83.4M86.2417 84H100.5M71 89L78.4917 89M80.8167 89H87.275M71 79H77.4583M79.7833 79H87.275M89.8583 79H98.125M71 69H76.1667M78.2333 69H87.7917M90.6333 69H100M89.8583 89L98.125 89" stroke="#2B2727" stroke-linecap="round"/>
<path d="M42.0167 39H47.1833M50.8 39H57M42.0167 49L55 49M26 59H33.2333M35.3 59H38.4M41.2417 59H54.675M26 69L29 69M31.1667 69H33.75M26 79H32.4583M26 89H31.1667M33.2333 89H42.7917M45.6333 89H57M26 84H33.75M36.075 84H42.0167M43.825 84H57M26 74H33.2333M26 64L33.4917 64M35.8167 64H42.275M54.675 64L57 64M42.0167 54H46M49 54H57M42.0167 44H44.8583M47.1833 44H56.5M44.8583 64L53.125 64" stroke="#2B2727" stroke-linecap="round"/>
<line x1="64" y1="31" x2="64" y2="97" stroke="#2B2727" stroke-width="2"/>
<rect x="71" y="39" width="30" height="19" rx="3" stroke="#2B2727" stroke-width="2"/>
<path d="M88.5 47.634C89.1667 48.0189 89.1667 48.9811 88.5 49.366L84.75 51.5311C84.0833 51.916 83.25 51.4349 83.25 50.6651L83.25 46.3349C83.25 45.5651 84.0833 45.084 84.75 45.4689L88.5 47.634Z" fill="#2B2727"/>
<rect x="26" y="39" width="13" height="15" rx="3" fill="#F9FAFC" stroke="#2B2727" stroke-width="2"/>
<rect x="37" y="69" width="20" height="10" rx="3" fill="#F9FAFC" stroke="#2B2727" stroke-width="2"/>
</svg>
