<svg width="128" height="128" viewBox="0 0 128 128" fill="none" xmlns="http://www.w3.org/2000/svg">
<path d="M7.00001 75.3433L7 50.9939C7 48.1977 7 46.7996 7.54497 45.73C8.02434 44.7892 8.78924 44.0243 9.73005 43.545C10.7996 43 12.1997 43 15 43H51.9843C54.7832 43 56.1826 43 57.2519 43.5446C58.1924 44.0236 58.9573 44.7881 59.4368 45.7284C59.982 46.7973 59.9827 48.1968 59.9843 50.9956L59.9975 75.3351C59.9984 76.9941 59.9989 77.8236 59.7235 78.6193C59.4961 79.2766 59.0482 79.9982 58.56 80.4936C57.9691 81.0934 57.3033 81.4225 55.9719 82.0808C50.4992 84.7863 42.1867 88 34 88C25.7619 88 16.7928 84.7459 11.0525 82.0299C9.74342 81.4105 9.08888 81.1008 8.48152 80.4993C7.9876 80.0101 7.51496 79.2636 7.28401 78.6079C7.00001 77.8016 7.00001 76.9822 7.00001 75.3433Z" fill="#F9FAFC" stroke="#2B2727" stroke-width="3" stroke-linecap="round" stroke-linejoin="round"/>
<rect x="13" y="78.8242" width="41.23" height="28.4835" rx="8" fill="#F9FAFC" stroke="#2B2727" stroke-width="3" stroke-linecap="round" stroke-linejoin="round"/>
<path d="M60.0383 48.0102C60.0383 62.9276 48.1652 75.0204 33.5191 75.0204C18.873 75.0204 7 62.9276 7 48.0102C7 33.0929 18.873 21 33.5191 21C48.1652 21 60.0383 33.0929 60.0383 48.0102Z" fill="#F9FAFC"/>
<path d="M60.0383 48.0102C60.0383 62.9276 48.1652 75.0204 33.5191 75.0204C18.873 75.0204 7 62.9276 7 48.0102M60.0383 48.0102C60.0383 33.0929 48.1652 21 33.5191 21C18.873 21 7 33.0929 7 48.0102M60.0383 48.0102C53.8253 48.7475 46.5 49.1884 39.5 46.1884C32.8546 43.3404 27.4205 36.4718 26.6439 33.7685C25.8581 36.7585 23.7724 40.779 20.3578 43.486C15.6433 47.2234 9.35726 48.0102 7 48.0102" stroke="#2B2727" stroke-width="3" stroke-linecap="round" stroke-linejoin="round"/>
<ellipse cx="94.0847" cy="48.0361" rx="26.5445" ry="27.0361" fill="#F9FAFC" stroke="#2B2727" stroke-width="3" stroke-linecap="round" stroke-linejoin="round"/>
<rect x="71.4726" y="78.8866" width="44.2409" height="28.5108" rx="8" fill="#F9FAFC" stroke="#2B2727" stroke-width="3" stroke-linecap="round" stroke-linejoin="round"/>
<path d="M97.4257 79.7407L90.5538 95.7752C90.1871 96.6308 90.0038 97.0586 89.9515 97.4809C89.8691 98.1469 90.0124 98.8212 90.3584 99.3962C90.5779 99.7608 90.9193 100.077 91.6022 100.71V100.71C92.4798 101.523 92.9185 101.929 93.396 102.133C94.1498 102.456 95.0028 102.456 95.7567 102.133C96.2341 101.929 96.6729 101.523 97.5505 100.71V100.71C98.2334 100.077 98.5748 99.7608 98.7943 99.3962C99.1403 98.8212 99.2836 98.1469 99.2012 97.4809C99.149 97.0586 98.9656 96.6308 98.5989 95.7752L91.727 79.7407" stroke="#2B2727" stroke-width="2" stroke-linecap="round" stroke-linejoin="round"/>
</svg>
