<svg width="128" height="128" viewBox="0 0 128 128" fill="none" xmlns="http://www.w3.org/2000/svg">
<path d="M19.5 28.8C19.5 26.535 19.5012 24.9265 19.604 23.6678C19.7054 22.4265 19.8982 21.658 20.2085 21.0491C20.8316 19.826 21.826 18.8316 23.0491 18.2085C23.658 17.8982 24.4265 17.7054 25.6678 17.604C26.9265 17.5012 28.535 17.5 30.8 17.5H77.2C79.465 17.5 81.0735 17.5012 82.3322 17.604C83.5735 17.7054 84.342 17.8982 84.9509 18.2085C86.174 18.8316 87.1684 19.826 87.7915 21.0491C88.1018 21.658 88.2946 22.4265 88.396 23.6678C88.4988 24.9265 88.5 26.535 88.5 28.8V95.2C88.5 97.465 88.4988 99.0735 88.396 100.332C88.2946 101.573 88.1018 102.342 87.7915 102.951C87.1684 104.174 86.174 105.168 84.9509 105.792C84.342 106.102 83.5735 106.295 82.3322 106.396C81.0735 106.499 79.465 106.5 77.2 106.5H30.8C28.535 106.5 26.9265 106.499 25.6678 106.396C24.4265 106.295 23.658 106.102 23.0491 105.792C21.826 105.168 20.8316 104.174 20.2085 102.951C19.8982 102.342 19.7054 101.573 19.604 100.332C19.5012 99.0735 19.5 97.465 19.5 95.2V28.8Z" fill="#F9FAFC" stroke="#2B2727" stroke-width="3" stroke-linejoin="round"/>
<path d="M48 103H59" stroke="#2B2727" stroke-linecap="round"/>
<g clip-path="url(#clip0_64_25278)">
<path d="M53.9966 57.6163C51.9024 57.6163 50.1571 59.0968 49.7344 61.0666C49.6928 61.2605 49.6616 61.4582 49.645 61.6599C49.6302 61.8394 49.777 61.9857 49.9567 61.9857H51.1454C51.3251 61.9857 51.4686 61.839 51.4927 61.6606C51.5207 61.4538 51.5744 61.2552 51.6481 61.0666C52.016 60.1254 52.9259 59.4573 53.9966 59.4574C55.3919 59.4574 56.5224 60.589 56.5225 61.9857C56.5225 63.3823 55.3919 64.5139 53.9966 64.514H43.4368C43.228 64.514 43.0731 64.7084 43.1261 64.9108C43.2371 65.3344 43.3706 65.7488 43.5285 66.1512C43.5765 66.2735 43.6953 66.3523 43.8265 66.3523H53.9966C56.4066 66.3523 58.3589 64.3981 58.3589 61.9857C58.3589 59.5733 56.4066 57.6163 53.9966 57.6163Z" fill="#2B2727"/>
<path d="M53.9966 54.1688C49.9952 54.1688 46.7 57.1838 46.2445 61.0666C46.2215 61.2627 46.2042 61.4601 46.195 61.6597C46.1866 61.8396 46.3329 61.9857 46.5126 61.9857H47.6985C47.8781 61.9857 48.0229 61.8395 48.0344 61.6598C48.0472 61.4594 48.0708 61.262 48.101 61.0666C48.5438 58.2031 51.0118 56.0071 53.9966 56.0071C57.2945 56.0071 59.9666 58.6846 59.9666 61.9857C59.9666 65.2869 57.2945 67.9614 53.9966 67.9614H45.0379C44.7824 67.9614 44.6282 68.2422 44.7745 68.4522C45.0811 68.8926 45.4179 69.3107 45.7829 69.7017C45.8435 69.7665 45.9284 69.8026 46.017 69.8026H53.9966C58.3093 69.8026 61.806 66.3026 61.8059 61.9857C61.8059 57.6688 58.3093 54.1688 53.9966 54.1688Z" fill="#2B2727"/>
<path d="M53.9966 50.75C50.5004 50.75 47.3762 52.3438 45.312 54.8474C45.09 55.1166 44.8792 55.3971 44.6827 55.6864C44.6698 55.7053 44.6582 55.7247 44.6455 55.7436C44.4685 56.0075 44.3052 56.2806 44.1505 56.5597C44.1235 56.6089 44.094 56.656 44.0676 56.7057C43.9323 56.9588 43.8119 57.2205 43.6958 57.4845C43.6615 57.5632 43.6253 57.6426 43.5928 57.7222C43.5028 57.9403 43.4231 58.1618 43.3468 58.3865C43.2986 58.5294 43.2491 58.6734 43.2066 58.8189C43.1612 58.9727 43.1254 59.1291 43.0864 59.2856C43.0343 59.4974 42.9805 59.7077 42.9406 59.9241C42.9223 60.0217 42.9134 60.1235 42.8977 60.2219C42.8546 60.495 42.8148 60.7701 42.7919 61.0494C42.7913 61.0552 42.7894 61.0607 42.7889 61.0666C42.773 61.2635 42.7585 61.4608 42.7503 61.6597C42.7428 61.8396 42.8888 61.9857 43.0685 61.9857H44.2544C44.434 61.9857 44.5791 61.8396 44.5856 61.6596C44.5928 61.4605 44.6064 61.2631 44.6254 61.0666C45.0879 56.2931 49.1064 52.5596 53.9966 52.5596C59.1973 52.5596 63.4136 56.78 63.4136 61.9857C63.4136 67.1914 59.1973 71.4118 53.9966 71.4117H48.8806C48.558 71.4117 48.4438 71.8137 48.729 71.9647C50.1413 72.7127 51.7328 73.1645 53.4217 73.25H53.9966C59.8236 73.25 64.6136 68.8171 65.19 63.1368C65.2274 62.7675 65.2491 62.3933 65.25 62.0143C65.25 61.6255 65.2284 61.2391 65.19 60.8604C64.6136 55.18 59.8236 50.75 53.9966 50.75Z" fill="#2B2727"/>
</g>
<path d="M79.5 69.8C79.5 67.535 79.5012 65.9265 79.604 64.6678C79.7054 63.4265 79.8982 62.658 80.2085 62.0491C80.8316 60.826 81.826 59.8316 83.0491 59.2085C83.658 58.8982 84.4265 58.7054 85.6678 58.604C86.9265 58.5012 88.535 58.5 90.8 58.5H97.2C99.465 58.5 101.073 58.5012 102.332 58.604C103.573 58.7054 104.342 58.8982 104.951 59.2085C106.174 59.8316 107.168 60.826 107.792 62.0491C108.102 62.658 108.295 63.4265 108.396 64.6678C108.499 65.9265 108.5 67.535 108.5 69.8V100.2C108.5 102.465 108.499 104.073 108.396 105.332C108.295 106.573 108.102 107.342 107.792 107.951C107.168 109.174 106.174 110.168 104.951 110.792C104.342 111.102 103.573 111.295 102.332 111.396C101.073 111.499 99.465 111.5 97.2 111.5H90.8C88.535 111.5 86.9265 111.499 85.6678 111.396C84.4265 111.295 83.658 111.102 83.0491 110.792C81.826 110.168 80.8316 109.174 80.2085 107.951C79.8982 107.342 79.7054 106.573 79.604 105.332C79.5012 104.073 79.5 102.465 79.5 100.2V69.8Z" fill="#F9FAFC" stroke="#2B2727" stroke-width="3" stroke-linejoin="round"/>
<g clip-path="url(#clip1_64_25278)">
<path d="M94.4985 83.4908C93.5386 83.4908 92.7387 84.1694 92.5449 85.0722C92.5259 85.1611 92.5116 85.2517 92.5039 85.3441C92.4972 85.4264 92.5645 85.4934 92.6468 85.4934H93.1916C93.274 85.4934 93.3398 85.4262 93.3508 85.3444C93.3637 85.2497 93.3883 85.1586 93.4221 85.0722C93.5907 84.6408 94.0077 84.3346 94.4985 84.3346C95.138 84.3346 95.6561 84.8533 95.6562 85.4934C95.6562 86.1336 95.138 86.6522 94.4985 86.6522H89.6585C89.5628 86.6522 89.4918 86.7414 89.5161 86.8341C89.567 87.0283 89.6282 87.2182 89.7006 87.4026C89.7226 87.4587 89.777 87.4948 89.8371 87.4948H94.4985C95.603 87.4948 96.4979 86.5991 96.4979 85.4934C96.4979 84.3878 95.603 83.4908 94.4985 83.4908Z" fill="#2B2727"/>
<path d="M94.4985 81.9107C92.6645 81.9107 91.1542 83.2926 90.9454 85.0722C90.9348 85.1621 90.9269 85.2525 90.9227 85.344C90.9189 85.4265 90.9859 85.4934 91.0683 85.4934H91.6118C91.6941 85.4934 91.7605 85.4264 91.7658 85.3441C91.7716 85.2522 91.7824 85.1617 91.7963 85.0722C91.9992 83.7597 93.1304 82.7532 94.4985 82.7532C96.01 82.7532 97.2347 83.9804 97.2347 85.4934C97.2347 87.0065 96.01 88.2323 94.4985 88.2323H90.3924C90.2752 88.2323 90.2046 88.361 90.2716 88.4573C90.4122 88.6591 90.5665 88.8507 90.7338 89.0299C90.7616 89.0597 90.8005 89.0762 90.8411 89.0762H94.4985C96.4751 89.0762 98.0777 87.472 98.0777 85.4934C98.0777 83.5149 96.4751 81.9107 94.4985 81.9107Z" fill="#2B2727"/>
<path d="M94.4985 80.3438C92.896 80.3438 91.4641 81.0743 90.518 82.2217C90.4163 82.3451 90.3196 82.4737 90.2296 82.6062C90.2236 82.6149 90.2184 82.6238 90.2125 82.6325C90.1314 82.7534 90.0565 82.8786 89.9857 83.0065C89.9732 83.0291 89.9597 83.0507 89.9477 83.0734C89.8856 83.1894 89.8304 83.3094 89.7772 83.4304C89.7615 83.4665 89.7449 83.5028 89.73 83.5393C89.6888 83.6393 89.6523 83.7408 89.6173 83.8438C89.5952 83.9093 89.5725 83.9753 89.553 84.042C89.5322 84.1125 89.5158 84.1842 89.4979 84.2559C89.4741 84.353 89.4494 84.4494 89.4311 84.5485C89.4227 84.5933 89.4186 84.6399 89.4114 84.685C89.3917 84.8102 89.3735 84.9363 89.3629 85.0643C89.3627 85.067 89.3618 85.0695 89.3616 85.0722C89.3543 85.1624 89.3477 85.2528 89.3439 85.344C89.3405 85.4265 89.4074 85.4934 89.4897 85.4934H90.0332C90.1156 85.4934 90.1821 85.4265 90.1851 85.344C90.1884 85.2527 90.1946 85.1623 90.2033 85.0722C90.4153 82.8843 92.2571 81.1732 94.4985 81.1732C96.8821 81.1732 98.8146 83.1075 98.8146 85.4934C98.8146 87.8794 96.8821 89.8137 94.4985 89.8137H92.1536C92.0057 89.8137 91.9534 89.9979 92.0841 90.0672C92.7314 90.41 93.4609 90.617 94.2349 90.6562H94.4985C97.1691 90.6562 99.3646 88.6245 99.6287 86.021C99.6459 85.8518 99.6558 85.6803 99.6563 85.5066C99.6563 85.3283 99.6463 85.1512 99.6287 84.9777C99.3646 82.3742 97.1691 80.3438 94.4985 80.3438Z" fill="#2B2727"/>
</g>
<path d="M90 64.1372H97" stroke="#2B2727" stroke-width="3" stroke-linecap="round"/>
<path d="M88 107.51H99" stroke="#2B2727" stroke-linecap="round"/>
<defs>
<clipPath id="clip0_64_25278">
<rect width="24" height="24" fill="white" transform="translate(42 50)"/>
</clipPath>
<clipPath id="clip1_64_25278">
<rect width="11" height="11" fill="white" transform="translate(89 80)"/>
</clipPath>
</defs>
</svg>
