<svg width="128" height="128" viewBox="0 0 128 128" fill="none" xmlns="http://www.w3.org/2000/svg">
<path d="M16 54.2C16 47.4794 16 44.1191 17.3079 41.5521C18.4584 39.2942 20.2942 37.4584 22.5521 36.3079C25.1191 35 28.4794 35 35.2 35H56.3684C64.2508 35 68.6702 35 76.5526 35H77.5368C84.2575 35 87.6178 35 90.1847 36.3079C92.4427 37.4584 94.2784 39.2942 95.4289 41.5521C96.7368 44.1191 96.7368 47.4794 96.7368 54.2V74.8C96.7368 81.5206 96.7368 84.8809 95.4289 87.4479C94.2784 89.7058 92.4427 91.5416 90.1847 92.6921C87.6178 94 84.2575 94 77.5368 94H35.2C28.4794 94 25.1191 94 22.5521 92.6921C20.2942 91.5416 18.4584 89.7058 17.3079 87.4479C16 84.8809 16 81.5206 16 74.8V54.2Z" fill="#F9FAFC"/>
<path d="M96.7368 49.75V49.75C96.7368 47.1948 96.7368 45.9172 96.543 44.8518C95.6485 39.9357 91.8012 36.0884 86.885 35.1938C85.8197 35 84.5421 35 81.9868 35H76.5526C68.6702 35 64.2508 35 56.3684 35H35.2C28.4794 35 25.1191 35 22.5521 36.3079C20.2942 37.4584 18.4584 39.2942 17.3079 41.5521C16 44.1191 16 47.4794 16 54.2V74.8C16 81.5206 16 84.8809 17.3079 87.4479C18.4584 89.7058 20.2942 91.5416 22.5521 92.6921C25.1191 94 28.4794 94 35.2 94H56.3684H76.5526" stroke="#2B2727" stroke-width="3" stroke-linecap="round" stroke-linejoin="round"/>
<rect x="61.5263" y="43.4861" width="25.7237" height="17.1842" rx="6.5" fill="#F9FAFC" stroke="#2B2727" stroke-width="3" stroke-linecap="round" stroke-linejoin="round"/>
<path d="M68.0131 56.7364V53.6153M72.671 56.7364V49.3267M77.3289 56.7364V51.7093M81.9868 56.7364V47.4207" stroke="#2B2727" stroke-width="2" stroke-linecap="round" stroke-linejoin="round"/>
<path d="M42.0066 45.481H54.0395M42.0066 50.1389H49.7697M42.0066 54.7967H52.875M42.0066 59.4546H47.4408" stroke="#2B2727" stroke-width="2" stroke-linecap="round" stroke-linejoin="round"/>
<path d="M37.0132 45.4809C37.0132 45.2956 37.1634 45.1454 37.3487 45.1454C37.534 45.1454 37.6842 45.2956 37.6842 45.4809C37.6842 45.6662 37.534 45.8164 37.3487 45.8164C37.1634 45.8164 37.0132 45.6662 37.0132 45.4809ZM37.0132 50.1388C37.0132 49.9535 37.1634 49.8032 37.3487 49.8032C37.534 49.8032 37.6842 49.9535 37.6842 50.1388C37.6842 50.3241 37.534 50.4743 37.3487 50.4743C37.1634 50.4743 37.0132 50.3241 37.0132 50.1388ZM37.0132 54.7967C37.0132 54.6114 37.1634 54.4611 37.3487 54.4611C37.534 54.4611 37.6842 54.6114 37.6842 54.7967C37.6842 54.982 37.534 55.1322 37.3487 55.1322C37.1634 55.1322 37.0132 54.982 37.0132 54.7967ZM37.0132 59.4546C37.0132 59.2693 37.1634 59.119 37.3487 59.119C37.534 59.119 37.6842 59.2693 37.6842 59.4546C37.6842 59.6399 37.534 59.7901 37.3487 59.7901C37.1634 59.7901 37.0132 59.6399 37.0132 59.4546Z" fill="#2B2727" stroke="#2B2727" stroke-width="3" stroke-linecap="round" stroke-linejoin="round"/>
<path d="M40.8421 81.2964L46.2763 74.7776L51.8161 80.795L57.5329 77.9618L63.4981 79.2906L66.3301 74.7776L73.4101 78.7892" stroke="#2B2727" stroke-width="2" stroke-linecap="round" stroke-linejoin="round"/>
<path d="M76.5 87.0133H75.1941H71.1184H62.9671H46.6645C44.3584 87.0133 43.2054 87.0133 42.2554 86.7773C39.3798 86.0629 37.1346 83.8176 36.4202 80.9421C36.1842 79.9921 36.1842 78.8391 36.1842 76.533C36.1842 74.2269 36.1842 73.0739 36.4202 72.1239C37.1346 69.2483 39.3798 67.0031 42.2554 66.2887C43.2054 66.0527 44.3584 66.0527 46.6645 66.0527H62.9671H71.1184C74.3017 66.0527 73.3167 66.0527 76.5 66.0527" stroke="#2B2727" stroke-width="3" stroke-linecap="round" stroke-linejoin="round"/>
<path d="M22.9868 64.4995H30.75" stroke="#2B2727" stroke-width="3" stroke-linecap="round"/>
<path d="M22.9868 58.677H27.6447" stroke="#2B2727" stroke-width="3" stroke-linecap="round"/>
<path d="M22.9868 69.9336H29.5855" stroke="#2B2727" stroke-width="3" stroke-linecap="round"/>
<path d="M22.9868 85.46H29.9737" stroke="#2B2727" stroke-width="3" stroke-linecap="round"/>
<g clip-path="url(#clip0_749_39520)">
<path d="M26.0908 42.828C24.5376 42.828 23.2586 43.9983 23.0817 45.5054C23.0728 45.5816 23.0661 45.6582 23.0625 45.7357C23.0593 45.8055 23.1161 45.8622 23.1858 45.8622H23.6461C23.7159 45.8622 23.7721 45.8055 23.7765 45.7357C23.7815 45.6579 23.7907 45.5813 23.8024 45.5054C23.9743 44.3939 24.9322 43.5415 26.0908 43.5415C27.3709 43.5415 28.4081 44.5808 28.4081 45.8622C28.4081 47.1436 27.3709 48.1817 26.0908 48.1817H22.6134C22.5142 48.1817 22.4544 48.2907 22.5111 48.3722C22.6302 48.5432 22.7609 48.7054 22.9026 48.8572C22.9261 48.8824 22.9591 48.8964 22.9935 48.8964H26.0908C27.7648 48.8964 29.1221 47.5379 29.122 45.8622C29.122 44.1866 27.7648 42.828 26.0908 42.828Z" fill="#2B2727"/>
<path d="M26.0908 41.501C24.7337 41.501 23.521 42.1196 22.7198 43.0914C22.1613 43.7687 21.8136 44.6235 21.7416 45.4988C21.7414 45.501 21.7406 45.5032 21.7405 45.5054C21.7343 45.5819 21.7286 45.6584 21.7254 45.7357C21.7226 45.8055 21.7792 45.8622 21.849 45.8622H22.3093C22.379 45.8622 22.4353 45.8055 22.4378 45.7356C22.4406 45.6583 22.4459 45.5817 22.4533 45.5054C22.6328 43.6526 24.1926 42.2034 26.0908 42.2034C28.1095 42.2034 29.7461 43.8416 29.7461 45.8622C29.7461 47.8828 28.1095 49.521 26.0908 49.521H24.105C23.9798 49.521 23.9354 49.677 24.0461 49.7356C24.5943 50.026 25.2121 50.2013 25.8676 50.2345H26.0908C28.3526 50.2345 30.2119 48.5139 30.4356 46.309C30.4501 46.1657 30.4585 46.0204 30.4589 45.8733C30.4589 45.7224 30.4505 45.5724 30.4356 45.4254C30.2119 43.2205 28.3526 41.501 26.0908 41.501Z" fill="#2B2727"/>
<path d="M26.0908 44.1662C25.2779 44.1662 24.6005 44.7408 24.4364 45.5054C24.4202 45.5807 24.4081 45.6574 24.4017 45.7358C24.3959 45.8054 24.4529 45.8622 24.5227 45.8622H24.9841C25.0538 45.8622 25.1095 45.8053 25.1189 45.736C25.1298 45.6557 25.1506 45.5786 25.1792 45.5054C25.322 45.1401 25.6752 44.8808 26.0908 44.8808C26.6324 44.8808 27.0712 45.3201 27.0713 45.8622C27.0713 46.4043 26.6324 46.8435 26.0908 46.8436H22.5676C22.5407 46.7448 22.5156 46.6421 22.4873 46.5436C22.4674 46.4745 22.4054 46.4267 22.3424 46.4267H21.886C21.8237 46.4267 21.7681 46.4994 21.7801 46.5683C21.8378 46.8765 21.9069 47.1987 22.0314 47.4877C22.0509 47.5329 22.0985 47.5571 22.1432 47.5571H26.0908C27.0263 47.5571 27.7841 46.7986 27.7841 45.8622C27.7841 44.9258 27.0263 44.1662 26.0908 44.1662Z" fill="#2B2727"/>
</g>
<line x1="100.978" y1="95.3461" x2="102.755" y2="101.247" stroke="#2B2727" stroke-width="3" stroke-linecap="round"/>
<rect x="100.162" y="100.236" width="4.19935" height="20.5615" rx="2.09967" transform="rotate(-16.7661 100.162 100.236)" fill="#F9FAFC" stroke="#2B2727" stroke-width="3"/>
<path d="M110.969 85.1764C106.659 93.2041 96.6566 96.2175 88.6289 91.907C80.6012 87.5964 77.5878 77.5943 81.8984 69.5666C86.2089 61.5389 96.211 58.5255 104.239 62.8361C112.266 67.1466 115.28 77.1487 110.969 85.1764Z" fill="#F9FAFC" stroke="#2B2727" stroke-width="3"/>
<path d="M106 57L107.519 58.8283L109.784 58.1112L110.073 60.4703L112.367 61.0921L111.335 63.2329L112.929 64.9962L110.903 66.2391L111.29 68.584L108.914 68.5344L107.972 70.7165L106 69.39L104.028 70.7165L103.086 68.5344L100.71 68.584L101.097 66.2391L99.0712 64.9962L100.665 63.2329L99.6326 61.0921L101.927 60.4703L102.216 58.1112L104.481 58.8283L106 57Z" fill="#F9FAFC" stroke="#2B2727" stroke-width="2"/>
<defs>
<clipPath id="clip0_749_39520">
<rect width="9.31579" height="9.31579" fill="white" transform="translate(21.4342 41.21)"/>
</clipPath>
</defs>
</svg>
