<svg width="128" height="128" viewBox="0 0 128 128" fill="none" xmlns="http://www.w3.org/2000/svg">
<rect x="13.5" y="89.5" width="56" height="85" rx="6.5" transform="rotate(-90 13.5 89.5)" fill="#F9FAFC" stroke="#2B2727" stroke-width="3" stroke-linejoin="round"/>
<rect x="12" y="43" width="88" height="12" fill="#2B2727"/>
<path d="M20 67H55" stroke="#2B2727" stroke-width="2" stroke-linecap="round"/>
<path d="M20 75H45" stroke="#2B2727" stroke-width="2" stroke-linecap="round"/>
<g clip-path="url(#clip0_64_29377)">
<path d="M85.9983 74.0844C83.9976 74.0844 82.35 75.5919 82.1222 77.5333C82.1107 77.6313 82.1021 77.73 82.0975 77.8298C82.0933 77.9198 82.1665 77.9928 82.2563 77.9928H82.8492C82.9391 77.9928 83.0115 77.9198 83.0172 77.8299C83.0236 77.7297 83.0354 77.631 83.0505 77.5333C83.2719 76.1015 84.5059 75.0035 85.9983 75.0035C87.6473 75.0035 88.9833 76.3423 88.9833 77.9928C88.9833 79.6434 87.6473 80.9807 85.9983 80.9807H81.5189C81.3912 80.9807 81.3141 81.1211 81.3872 81.2261C81.5405 81.4463 81.7089 81.6553 81.8915 81.8508C81.9217 81.8833 81.9642 81.9013 82.0085 81.9013H85.9983C88.1547 81.9013 89.903 80.1513 89.9029 77.9928C89.9029 75.8344 88.1547 74.0844 85.9983 74.0844Z" fill="#2B2727"/>
<path d="M85.9983 72.375C84.2502 72.375 82.6881 73.1719 81.656 74.4237C80.9366 75.2961 80.4887 76.3973 80.3959 77.5247C80.3957 77.5276 80.3947 77.5303 80.3945 77.5333C80.3865 77.6317 80.3793 77.7304 80.3751 77.8298C80.3714 77.9198 80.4444 77.9928 80.5342 77.9928H81.1272C81.217 77.9928 81.2896 77.9198 81.2928 77.8298C81.2964 77.7302 81.3032 77.6316 81.3127 77.5333C81.5439 75.1466 83.5532 73.2798 85.9983 73.2798C88.5986 73.2798 90.7068 75.39 90.7068 77.9928C90.7068 80.5957 88.5986 82.7059 85.9983 82.7059H83.4403C83.279 82.7059 83.2219 82.9068 83.3645 82.9824C84.0707 83.3563 84.8664 83.5822 85.7108 83.625H85.9983C88.9118 83.625 91.3068 81.4086 91.595 78.5684C91.6137 78.3838 91.6245 78.1967 91.625 78.0072C91.625 77.8127 91.6142 77.6195 91.595 77.4302C91.3068 74.59 88.9118 72.375 85.9983 72.375Z" fill="#2B2727"/>
<path d="M85.9983 75.8081C84.9512 75.8081 84.0785 76.5484 83.8672 77.5333C83.8464 77.6303 83.8308 77.7291 83.8225 77.83C83.8151 77.9197 83.8885 77.9928 83.9783 77.9928H84.5727C84.6625 77.9928 84.7343 77.9195 84.7464 77.8303C84.7604 77.7269 84.7872 77.6276 84.8241 77.5333C85.008 77.0627 85.463 76.7287 85.9983 76.7287C86.696 76.7287 87.2612 77.2945 87.2613 77.9928C87.2613 78.6912 86.696 79.257 85.9983 79.257H81.46C81.4253 79.1298 81.393 78.9974 81.3565 78.8706C81.3309 78.7816 81.251 78.7201 81.1698 78.7201H80.5819C80.5017 78.7201 80.43 78.8137 80.4455 78.9024C80.5199 79.2994 80.6088 79.7145 80.7693 80.0867C80.7943 80.1449 80.8557 80.1761 80.9132 80.1761H85.9983C87.2033 80.1761 88.1795 79.199 88.1795 77.9928C88.1795 76.7867 87.2033 75.8081 85.9983 75.8081Z" fill="#2B2727"/>
</g>
<rect x="89.5" y="60.5" width="17" height="27" rx="6.5" stroke="#2B2727" stroke-width="3"/>
<rect x="83.5" y="76.5" width="30" height="30" rx="15" fill="#F9FAFC" stroke="#2B2727" stroke-width="3"/>
<path d="M93.0016 89.4758C93.3517 89.4527 93.664 89.2478 93.8247 88.9358C94.3644 87.8879 95.5702 87.2575 96.7673 87.4116C97.1093 87.4556 97.4499 87.3203 97.6684 87.0535C98.1942 86.4118 98.9997 86 99.9074 86C101.416 86 102.636 87.1368 102.766 88.5596C102.813 89.0752 103.246 89.4695 103.764 89.4686L103.778 89.4686C103.778 89.4686 103.778 89.4686 103.779 89.4686C105.571 89.469 107 90.898 107 92.6308C107 94.3639 105.571 95.7931 103.778 95.7931H103.756H103.735H103.713H103.691H103.67H103.648H103.626H103.605H103.583H103.562H103.54H103.519H103.497H103.475H103.454H103.432H103.411H103.389H103.368H103.346H103.325H103.303H103.282H103.26H103.239H103.217H103.196H103.174H103.153H103.131H103.11H103.088H103.067H103.045H103.024H103.002H102.981H102.96H102.938H102.917H102.895H102.874H102.852H102.831H102.81H102.788H102.767H102.745H102.724H102.703H102.681H102.66H102.639H102.617H102.596H102.575H102.553H102.532H102.511H102.489H102.468H102.447H102.425H102.404H102.383H102.361H102.34H102.319H102.297H102.276H102.255H102.234H102.212H102.191H102.17H102.149H102.127H102.106H102.085H102.064H102.042H102.021H102H101.979H101.958H101.936H101.915H101.894H101.873H101.852H101.83H101.809H101.788H101.767H101.746H101.725H101.703H101.682H101.661H101.64H101.619H101.598H101.577H101.555H101.534H101.513H101.492H101.471H101.45H101.429H101.408H101.387H101.366H101.344H101.323H101.302H101.281H101.26H101.239H101.218H101.197H101.176H101.155H101.134H101.113H101.092H101.071H101.05H101.029H101.008H100.987H100.966H100.945H100.924H100.903H100.882H100.861H100.84H100.819H100.798H100.777H100.756H100.735H100.714H100.693H100.672H100.651H100.63H100.61H100.589H100.568H100.547H100.526H100.505H100.484H100.463H100.442H100.421H100.4H100.38H100.359H100.338H100.317H100.296H100.275H100.254H100.234H100.213H100.192H100.171H100.15H100.129H100.108H100.088H100.067H100.046H100.025H100.004H99.9836H99.9628H99.942H99.9212H99.9004H99.8796H99.8588H99.838H99.8173H99.7965H99.7757H99.755H99.7342H99.7134H99.6927H99.6719H99.6512H99.6305H99.6097H99.589H99.5683H99.5475H99.5268H99.5061H99.4854H99.4647H99.444H99.4233H99.4026H99.3819H99.3612H99.3405H99.3198H99.2991H99.2784H99.2578H99.2371H99.2164H99.1957H99.1751H99.1544H99.1338H99.1131H99.0925H99.0718H99.0512H99.0306H99.0099H98.9893H98.9687H98.9481H98.9274H98.9068H98.8862H98.8656H98.845H98.8244H98.8038H98.7832H98.7626H98.742H98.7214H98.7009H98.6803H98.6597H98.6391H98.6186H98.598H98.5775H98.5569H98.5363H98.5158H98.4953H98.4747H98.4542H98.4336H98.4131H98.3926H98.372H98.3515H98.331H98.3105H98.29H98.2695H98.249H98.2284H98.2079H98.1874H98.167H98.1465H98.126H98.1055H98.085H98.0645H98.0441H98.0236H98.0031H97.9826H97.9622H97.9417H97.9213H97.9008H97.8804H97.8599H97.8395H97.819H97.7986H97.7782H97.7577H97.7373H97.7169H97.6964H97.676H97.6556H97.6352H97.6148H97.5944H97.574H97.5536H97.5332H97.5128H97.4924H97.472H97.4516H97.4312H97.4108H97.3905H97.3701H97.3497H97.3293H97.309H97.2886H97.2682H97.2479H97.2275H97.2072H97.1868H97.1665H97.1461H97.1258H97.1055H97.0851H97.0648H97.0445H97.0241H97.0038H96.9835H96.9632H96.9428H96.9225H96.9022H96.8819H96.8616H96.8413H96.821H96.8007H96.7804H96.7601H96.7398H96.7195H96.6992H96.679H96.6587H96.6384H96.6181H96.5979H96.5776H96.5573H96.5371H96.5168H96.4965H96.4763H96.456H96.4358H96.4155H96.3953H96.375H96.3548H96.3345H96.3143H96.2941H96.2738H96.2536H96.2334H96.2132H96.1929H96.1727H96.1525H96.1323H96.1121H96.0919H96.0717H96.0514H96.0312H96.011H95.9908H95.9706H95.9505H95.9303H95.9101H95.8899H95.8697H95.8495H95.8293H95.8092H95.789H95.7688H95.7486H95.7285H95.7083H95.6881H95.668H95.6478H95.6277H95.6075H95.5873H95.5672H95.547H95.5269H95.5068H95.4866H95.4665H95.4463H95.4262H95.4061H95.3859H95.3658H95.3457H95.3255H95.3054H95.2853H95.2652H95.2451H95.2249H95.2048H95.1847H95.1646H95.1445H95.1244H95.1043H95.0842H95.0641H95.044H95.0239H95.0038H94.9837H94.9636H94.9435H94.9234H94.9034H94.8833H94.8632H94.8431H94.823H94.803H94.7829H94.7628H94.7428H94.7227H94.7026H94.6826H94.6625H94.6424H94.6224H94.6023H94.5823H94.5622H94.5422H94.5221H94.5021H94.482H94.462H94.4419H94.4219H94.4018H94.3818H94.3618H94.3417H94.3217H94.3017H94.2816H94.2616H94.2416H94.2216H94.2015H94.1815H94.1615H94.1415H94.1215H94.1014H94.0814H94.0614H94.0414H94.0214H94.0014H93.9814H93.9614H93.9414H93.9214H93.9014H93.8814H93.8614H93.8414H93.8214H93.8014H93.7814H93.7614H93.7414H93.7214H93.7015H93.6815H93.6615H93.6415H93.6215H93.6016H93.5816H93.5616H93.5416H93.5217H93.5017H93.4817H93.4617H93.4418H93.4218H93.4018H93.3819H93.3619H93.342H93.322H93.302H93.2821H93.2621H93.2422H93.2222C91.4291 95.7931 90 94.3639 90 92.6308C90 90.9694 91.3131 89.5874 93.0016 89.4758Z" fill="#F9FAFC" stroke="#2B2727" stroke-width="2" stroke-linejoin="round"/>
<defs>
<clipPath id="clip0_64_29377">
<rect width="12" height="12" fill="white" transform="translate(80 72)"/>
</clipPath>
</defs>
</svg>
