<svg width="128" height="128" viewBox="0 0 128 128" fill="none" xmlns="http://www.w3.org/2000/svg">
<path d="M109 64C109 88.8528 88.8528 109 64 109C39.1472 109 19 88.8528 19 64C19 39.1472 39.1472 19 64 19C88.8528 19 109 39.1472 109 64Z" fill="#F9FAFC"/>
<path d="M41 39.9999L64 62.9999M64 62.9999L87 85.9999M64 62.9999L41 85.9999M64 62.9999L87 39.9999M109 64C109 88.8528 88.8528 109 64 109C39.1472 109 19 88.8528 19 64C19 39.1472 39.1472 19 64 19C88.8528 19 109 39.1472 109 64Z" stroke="#2B2727" stroke-width="3" stroke-linecap="round" stroke-linejoin="round"/>
</svg>
