<svg width="128" height="128" viewBox="0 0 128 128" fill="none" xmlns="http://www.w3.org/2000/svg">
<rect x="15" y="23" width="83" height="74" rx="8" fill="#F9FAFC"/>
<path d="M97.7662 60.1041V30.0911C97.7662 26.2251 94.6322 23.0911 90.7662 23.0911H21.6493C17.7833 23.0911 14.6493 26.2251 14.6493 30.0911V90.117C14.6493 93.983 17.7987 97.117 21.6647 97.117C39.4489 97.117 36.9375 97.117 59.9999 97.117" stroke="#2B2727" stroke-width="3" stroke-linecap="round" stroke-linejoin="round"/>
<path d="M51.0129 18.5455C51.0129 16.0351 53.0479 14 55.5583 14C58.0687 14 60.1038 16.0351 60.1038 18.5455V28.9351C60.1038 31.4454 58.0687 33.4805 55.5583 33.4805C53.0479 33.4805 51.0129 31.4454 51.0129 28.9351V18.5455Z" fill="#F9FAFC"/>
<path d="M71.7921 18.5455C71.7921 16.0351 73.8272 14 76.3375 14C78.8479 14 80.883 16.0351 80.883 18.5455V28.9351C80.883 31.4454 78.8479 33.4805 76.3375 33.4805C73.8272 33.4805 71.7921 31.4454 71.7921 28.9351V18.5455Z" fill="#F9FAFC"/>
<path d="M30.2336 18.5455C30.2336 16.0351 32.2687 14 34.7791 14C37.2895 14 39.3246 16.0351 39.3246 18.5455V28.9351C39.3246 31.4454 37.2895 33.4805 34.7791 33.4805C32.2687 33.4805 30.2336 31.4454 30.2336 28.9351V18.5455Z" fill="#F9FAFC"/>
<path d="M51.0129 18.5455C51.0129 16.0351 53.0479 14 55.5583 14C58.0687 14 60.1038 16.0351 60.1038 18.5455V28.9351C60.1038 31.4454 58.0687 33.4805 55.5583 33.4805C53.0479 33.4805 51.0129 31.4454 51.0129 28.9351V18.5455Z" stroke="#2B2727" stroke-width="3" stroke-linecap="round" stroke-linejoin="round"/>
<path d="M71.7921 18.5455C71.7921 16.0351 73.8272 14 76.3375 14C78.8479 14 80.883 16.0351 80.883 18.5455V28.9351C80.883 31.4454 78.8479 33.4805 76.3375 33.4805C73.8272 33.4805 71.7921 31.4454 71.7921 28.9351V18.5455Z" stroke="#2B2727" stroke-width="3" stroke-linecap="round" stroke-linejoin="round"/>
<path d="M30.2336 18.5455C30.2336 16.0351 32.2687 14 34.7791 14C37.2895 14 39.3246 16.0351 39.3246 18.5455V28.9351C39.3246 31.4454 37.2895 33.4805 34.7791 33.4805C32.2687 33.4805 30.2336 31.4454 30.2336 28.9351V18.5455Z" stroke="#2B2727" stroke-width="3" stroke-linecap="round" stroke-linejoin="round"/>
<path d="M42 42H98" stroke="#2B2727" stroke-width="3" stroke-linecap="round"/>
<path d="M15 42H30" stroke="#2B2727" stroke-width="3" stroke-linecap="round"/>
<path d="M61.4026 54.2593H87.3766" stroke="#2B2727" stroke-width="3" stroke-linecap="round"/>
<path d="M25.0389 85.4285H51.013" stroke="#2B2727" stroke-width="3" stroke-linecap="round"/>
<path d="M25.0389 54.2593H51.013M25.0389 64.6489H51.013M25.0389 75.0385H51.013M61.4026 54.2593H87.3766M61.4026 64.6489H87.3766M61.4026 75.0385H69.1948M61.4026 85.4281H62.7013" stroke="#2B2727" stroke-width="3" stroke-linecap="round"/>
<circle cx="92.5715" cy="93.2206" r="20.7792" fill="#F9FAFC" stroke="#2B2727" stroke-width="3" stroke-linecap="round" stroke-linejoin="round"/>
<path d="M101.662 93.2199H92.5714V80.2329" stroke="#2B2727" stroke-width="3" stroke-linecap="round" stroke-linejoin="round"/>
</svg>
