<svg width="128" height="128" viewBox="0 0 128 128" fill="none" xmlns="http://www.w3.org/2000/svg">
<rect x="15" y="23" width="83" height="74" rx="8" fill="#F9FAFC"/>
<path d="M97.7662 60.1041V30.0911C97.7662 26.2251 94.6322 23.0911 90.7662 23.0911H21.6494C17.7834 23.0911 14.6494 26.2251 14.6494 30.0911V90.117C14.6494 93.983 17.7988 97.117 21.6648 97.117C39.449 97.117 36.9375 97.117 60 97.117" stroke="#2B2727" stroke-width="3" stroke-linecap="round" stroke-linejoin="round"/>
<path d="M51.013 18.5455C51.013 16.0351 53.048 14 55.5584 14C58.0688 14 60.1039 16.0351 60.1039 18.5455V28.9351C60.1039 31.4454 58.0688 33.4805 55.5584 33.4805C53.048 33.4805 51.013 31.4454 51.013 28.9351V18.5455Z" fill="#F9FAFC"/>
<path d="M71.7922 18.5455C71.7922 16.0351 73.8272 14 76.3376 14C78.848 14 80.8831 16.0351 80.8831 18.5455V28.9351C80.8831 31.4454 78.848 33.4805 76.3376 33.4805C73.8272 33.4805 71.7922 31.4454 71.7922 28.9351V18.5455Z" fill="#F9FAFC"/>
<path d="M30.2337 18.5455C30.2337 16.0351 32.2688 14 34.7792 14C37.2896 14 39.3246 16.0351 39.3246 18.5455V28.9351C39.3246 31.4454 37.2896 33.4805 34.7792 33.4805C32.2688 33.4805 30.2337 31.4454 30.2337 28.9351V18.5455Z" fill="#F9FAFC"/>
<path d="M51.013 18.5455C51.013 16.0351 53.048 14 55.5584 14C58.0688 14 60.1039 16.0351 60.1039 18.5455V28.9351C60.1039 31.4454 58.0688 33.4805 55.5584 33.4805C53.048 33.4805 51.013 31.4454 51.013 28.9351V18.5455Z" stroke="#2B2727" stroke-width="3" stroke-linecap="round" stroke-linejoin="round"/>
<path d="M71.7922 18.5455C71.7922 16.0351 73.8272 14 76.3376 14C78.848 14 80.8831 16.0351 80.8831 18.5455V28.9351C80.8831 31.4454 78.848 33.4805 76.3376 33.4805C73.8272 33.4805 71.7922 31.4454 71.7922 28.9351V18.5455Z" stroke="#2B2727" stroke-width="3" stroke-linecap="round" stroke-linejoin="round"/>
<path d="M30.2337 18.5455C30.2337 16.0351 32.2688 14 34.7792 14C37.2896 14 39.3246 16.0351 39.3246 18.5455V28.9351C39.3246 31.4454 37.2896 33.4805 34.7792 33.4805C32.2688 33.4805 30.2337 31.4454 30.2337 28.9351V18.5455Z" stroke="#2B2727" stroke-width="3" stroke-linecap="round" stroke-linejoin="round"/>
<path d="M42 42H98" stroke="#2B2727" stroke-width="3" stroke-linecap="round"/>
<path d="M15 42H30" stroke="#2B2727" stroke-width="3" stroke-linecap="round"/>
<path d="M61.4026 54.2593H87.3766" stroke="#2B2727" stroke-width="3" stroke-linecap="round"/>
<path d="M25.039 85.4285H51.013" stroke="#2B2727" stroke-width="3" stroke-linecap="round"/>
<path d="M25.039 54.2593H51.013M25.039 64.6489H51.013M25.039 75.0385H51.013M61.4026 54.2593H87.3766M61.4026 64.6489H87.3766M61.4026 75.0385H69.1948M61.4026 85.4281H62.7013" stroke="#2B2727" stroke-width="3" stroke-linecap="round"/>
<circle cx="92.5714" cy="93.2206" r="20.7792" fill="#F9FAFC" stroke="#2B2727" stroke-width="3" stroke-linecap="round" stroke-linejoin="round"/>
<path d="M101.662 93.2199H92.5714V80.2329" stroke="#2B2727" stroke-width="3" stroke-linecap="round" stroke-linejoin="round"/>
</svg>
