<svg width="128" height="128" viewBox="0 0 128 128" fill="none" xmlns="http://www.w3.org/2000/svg">
<rect x="9.5" y="30.5" width="85" height="67" rx="10.5" fill="#F9FAFC" stroke="#2B2727" stroke-width="3"/>
<path d="M26.917 42.5H45.0003M37 50.5H55.0833M59 58.5H77.0833M29.667 71.5H47.7503M50.75 79.5H68.8333M73.667 87.5H87.167" stroke="#2B2727" stroke-width="3" stroke-linecap="round"/>
<path d="M19.25 42.5C19.25 43.3284 18.5784 44 17.75 44C16.9216 44 16.25 43.3284 16.25 42.5C16.25 41.6716 16.9216 41 17.75 41C18.5784 41 19.25 41.6716 19.25 42.5Z" fill="#2B2727"/>
<path d="M19.25 50.5C19.25 51.3284 18.5784 52 17.75 52C16.9216 52 16.25 51.3284 16.25 50.5C16.25 49.6716 16.9216 49 17.75 49C18.5784 49 19.25 49.6716 19.25 50.5Z" fill="#2B2727"/>
<path d="M19.25 58.5C19.25 59.3284 18.5784 60 17.75 60C16.9216 60 16.25 59.3284 16.25 58.5C16.25 57.6716 16.9216 57 17.75 57C18.5784 57 19.25 57.6716 19.25 58.5Z" fill="#2B2727"/>
<path d="M19.25 71.5C19.25 72.3284 18.5784 73 17.75 73C16.9216 73 16.25 72.3284 16.25 71.5C16.25 70.6716 16.9216 70 17.75 70C18.5784 70 19.25 70.6716 19.25 71.5Z" fill="#2B2727"/>
<path d="M19.25 79.5C19.25 80.3284 18.5784 81 17.75 81C16.9216 81 16.25 80.3284 16.25 79.5C16.25 78.6716 16.9216 78 17.75 78C18.5784 78 19.25 78.6716 19.25 79.5Z" fill="#2B2727"/>
<path d="M19.25 87.5C19.25 88.3284 18.5784 89 17.75 89C16.9216 89 16.25 88.3284 16.25 87.5C16.25 86.6716 16.9216 86 17.75 86C18.5784 86 19.25 86.6716 19.25 87.5Z" fill="#2B2727"/>
<circle cx="94" cy="86" r="24.5" fill="#F9FAFC" stroke="#2B2727" stroke-width="3"/>
<path d="M93.5438 66.386V70.9474M93.5438 101.053V105.614M103.351 69.0138L102.439 70.5939M84.6491 101.406L83.7368 102.986M110.53 76.193L108.95 77.1053M78.1377 94.8947L76.5576 95.807M110.53 95.8071L108.95 94.8948M78.1377 77.1053L76.5576 76.193M103.351 102.986L102.439 101.406M84.6491 70.5939L83.7368 69.0138M73.9298 86H78.4912M108.596 86H113.158" stroke="#2B2727" stroke-width="2" stroke-linecap="round"/>
<path d="M84.6336 84.3818L93.5439 86.4561L106.206 73.6218" stroke="#2B2727" stroke-width="3" stroke-linecap="round" stroke-linejoin="round"/>
</svg>
