<svg width="128" height="128" viewBox="0 0 128 128" fill="none" xmlns="http://www.w3.org/2000/svg">
<path d="M33.1311 102.892C33.1311 102.063 32.4595 101.392 31.6311 101.392H29.6863C28.4323 101.392 27.7319 99.9446 28.5099 98.9612L35.4951 90.1324C36.0957 89.3733 37.2473 89.3733 37.8478 90.1324L44.8331 98.9612C45.6111 99.9446 44.9107 101.392 43.6567 101.392H41.8146C40.9861 101.392 40.3146 102.063 40.3146 102.892V109C40.3146 110.933 38.7475 112.5 36.8145 112.5H36.6311C34.6981 112.5 33.1311 110.933 33.1311 109V102.892ZM60.9042 93.6341C60.9042 92.8057 60.2326 92.1341 59.4042 92.1341H57.4594C56.2054 92.1341 55.5049 90.6868 56.283 89.7034L63.2682 80.8745C63.8688 80.1155 65.0204 80.1155 65.6209 80.8745L72.6062 89.7034C73.3842 90.6868 72.6838 92.1341 71.4298 92.1341H69.5876C68.7592 92.1341 68.0876 92.8057 68.0876 93.6341V109C68.0876 110.933 66.5206 112.5 64.5876 112.5H64.4042C62.4712 112.5 60.9042 110.933 60.9042 109V93.6341ZM88.6773 84.3767C88.6773 83.5483 88.0057 82.8767 87.1773 82.8767H85.2325C83.9785 82.8767 83.2781 81.4294 84.0562 80.446L91.0414 71.6171C91.642 70.8581 92.7935 70.8581 93.3941 71.6171L100.379 80.446C101.157 81.4294 100.457 82.8767 99.203 82.8767H97.3608C96.5324 82.8767 95.8608 83.5483 95.8608 84.3767V109C95.8608 110.933 94.2938 112.5 92.3608 112.5H92.1773C90.2443 112.5 88.6773 110.933 88.6773 109V84.3767Z" fill="#F9FAFC" stroke="#2B2727" stroke-width="3" stroke-linejoin="round"/>
<path d="M74 24C74 28.4183 70.4183 32 66 32C61.5817 32 58 28.4183 58 24C58 19.5817 61.5817 16 66 16C70.4183 16 74 19.5817 74 24Z" fill="#F9FAFC"/>
<path d="M45.3215 54.0188C44.2169 52.1056 44.8724 49.6593 46.7856 48.5547L83.5634 27.321C85.4765 26.2165 87.9229 26.872 89.0275 28.7851C90.132 30.6983 89.4765 33.1447 87.5634 34.2492L72 43.2347V51.9373L84.3118 44.8291C86.225 43.7245 88.6713 44.38 89.7759 46.2932C89.9177 46.5388 90.0305 46.7932 90.1153 47.0524C90.2448 47.446 90.3149 47.8666 90.3149 48.3035V61.408C90.3149 63.6171 88.524 65.408 86.3149 65.408C84.1057 65.408 82.3149 63.6172 82.3149 61.408V55.2196L51.534 72.991C49.6209 74.0955 47.1745 73.44 46.0699 71.5269C44.9654 69.6137 45.6209 67.1673 47.534 66.0628L64 56.5561V47.8535L50.7856 55.4829C48.8724 56.5875 46.426 55.932 45.3215 54.0188Z" fill="#F9FAFC"/>
<path d="M74 24C74 28.4183 70.4183 32 66 32C61.5817 32 58 28.4183 58 24C58 19.5817 61.5817 16 66 16C70.4183 16 74 19.5817 74 24Z" stroke="#2B2727" stroke-width="3"/>
<path d="M45.3215 54.0188C44.2169 52.1056 44.8724 49.6593 46.7856 48.5547L83.5634 27.321C85.4765 26.2165 87.9229 26.872 89.0275 28.7851C90.132 30.6983 89.4765 33.1447 87.5634 34.2492L72 43.2347V51.9373L84.3118 44.8291C86.225 43.7245 88.6713 44.38 89.7759 46.2932C89.9177 46.5388 90.0305 46.7932 90.1153 47.0524C90.2448 47.446 90.3149 47.8666 90.3149 48.3035V61.408C90.3149 63.6171 88.524 65.408 86.3149 65.408C84.1057 65.408 82.3149 63.6172 82.3149 61.408V55.2196L51.534 72.991C49.6209 74.0955 47.1745 73.44 46.0699 71.5269C44.9654 69.6137 45.6209 67.1673 47.534 66.0628L64 56.5561V47.8535L50.7856 55.4829C48.8724 56.5875 46.426 55.932 45.3215 54.0188Z" stroke="#2B2727" stroke-width="3"/>
<path d="M24.701 62.7503C24.2868 62.0328 24.5326 61.1154 25.25 60.7012L32.1782 56.7012C32.8956 56.287 33.813 56.5328 34.2272 57.2503C34.6415 57.9677 34.3956 58.8851 33.6782 59.2993L26.75 63.2993C26.0326 63.7135 25.1152 63.4677 24.701 62.7503Z" fill="#2B2727"/>
<path d="M27.701 82.7502C27.2868 82.0328 27.5326 81.1154 28.25 80.7012L35.1782 76.7012C35.8956 76.287 36.813 76.5328 37.2272 77.2502C37.6415 77.9677 37.3956 78.8851 36.6782 79.2993L29.75 83.2993C29.0326 83.7135 28.1152 83.4677 27.701 82.7502Z" fill="#2B2727"/>
<path d="M23.25 72.7012C22.5326 73.1154 22.2868 74.0328 22.701 74.7502C23.1152 75.4677 24.0326 75.7135 24.75 75.2993L38.6064 67.2993C39.3239 66.8851 39.5697 65.9677 39.1555 65.2502C38.7412 64.5328 37.8239 64.287 37.1064 64.7012L23.25 72.7012Z" fill="#2B2727"/>
</svg>
