<svg width="128" height="128" viewBox="0 0 128 128" fill="none" xmlns="http://www.w3.org/2000/svg">
<path d="M72.8166 33.6024C72.8166 39.1818 77.3396 43.7048 82.919 43.7048C88.4984 43.7048 93.0214 39.1818 93.0214 33.6024C93.0214 28.023 88.4984 23.5 82.919 23.5C77.3396 23.5 72.8166 28.023 72.8166 33.6024Z" fill="#F9FAFC" stroke="#2B2727" stroke-width="3"/>
<path d="M104.5 85.5002C103.5 87.5002 101.723 89.3619 99 88.0002C96.2766 86.6386 96.5 84.1633 97 82.1633L100.5 71.1633L94.2901 61.5002V111.256C94.2901 113.487 92.0589 116.165 88.9351 116.165C85.8114 116.165 83.5802 113.041 83.5802 111.256C83.5802 113.041 81.7952 116.165 77.779 116.165C75.5477 116.165 72.8703 113.933 72.8703 110.81V62.6151L68.4078 70.6475C67.5153 71.9863 64.8378 72.8787 62.6066 71.0938L48.773 57.2601C47.8805 55.9214 47.4555 53.544 49.2192 51.4589C50.7663 49.9264 53.2354 50.1202 54.5742 51.0127L64.3916 60.3839L68.4078 52.5002C70 50.0002 72 48.3352 75.209 48.3352H92C96.5 48.3352 99.2766 52.1347 101 55.0002L109 69.5002L104.5 85.5002Z" fill="#F9FAFC"/>
<path d="M83.5802 111.256C83.5802 113.041 81.7952 116.165 77.779 116.165C75.5477 116.165 72.8703 113.933 72.8703 110.81V62.6151L68.4078 70.6475C67.5153 71.9863 64.8378 72.8787 62.6066 71.0938L48.773 57.2601C47.8805 55.9214 47.4555 53.544 49.2192 51.4589C50.7663 49.9264 53.2354 50.1202 54.5742 51.0127L64.3916 60.3839L68.4078 52.5002C70 50.0002 72 48.3352 75.209 48.3352H92C96.5 48.3352 99.2766 52.1347 101 55.0002L109 69.5002L104.5 85.5002C103.5 87.5002 101.723 89.3619 99 88.0002C96.2766 86.6386 96.5 84.1633 97 82.1633L100.5 71.1633L94.2901 61.5002V111.256C94.2901 113.487 92.0589 116.165 88.9351 116.165C85.8114 116.165 83.5802 113.041 83.5802 111.256ZM83.5802 111.256V87.6049" stroke="#2B2727" stroke-width="3" stroke-linecap="round" stroke-linejoin="round"/>
<g clip-path="url(#clip0_749_38381)">
<path d="M33 39.5C37.1421 39.5 40.5 36.1421 40.5 32C40.5 27.8579 37.1421 24.5 33 24.5C28.8579 24.5 25.5 27.8579 25.5 32C25.5 36.1421 28.8579 39.5 33 39.5Z" fill="#F9FAFC" stroke="#2B2727" stroke-width="3" stroke-linecap="round" stroke-linejoin="round"/>
<path d="M33 15.5V18.5M33 45.5V48.5M21.33 20.33L23.46 22.46M42.54 41.54L44.67 43.67M16.5 32H19.5M46.5 32H49.5M21.33 43.67L23.46 41.54M42.54 22.46L44.67 20.33" stroke="#2B2727" stroke-width="3" stroke-linecap="round" stroke-linejoin="round"/>
</g>
<defs>
<clipPath id="clip0_749_38381">
<rect width="36" height="36" fill="white" transform="translate(15 14)"/>
</clipPath>
</defs>
</svg>
