<svg width="128" height="128" viewBox="0 0 128 128" fill="none" xmlns="http://www.w3.org/2000/svg">
<path d="M49.2429 21.7448C47.9496 18.1674 43.8662 16.4698 40.4179 18.076C36.9697 19.6822 35.6418 23.9003 37.5481 27.1922L44.4461 39.1035C41.3232 42.6305 39.7803 47.497 40.6619 52.4967C42.1964 61.199 50.4949 67.0097 59.1972 65.4753C67.8995 63.9408 73.7102 55.6423 72.1757 46.94C71.5452 43.3642 69.7727 40.2767 67.2994 37.9863L70.4852 22.8525C71.2962 18.9997 68.6179 15.2842 64.7063 14.8357C60.7947 14.3872 57.3449 17.4001 57.2629 21.3365L57.0048 33.7258C55.9054 33.6866 54.7853 33.7609 53.6584 33.9583L49.2429 21.7448Z" fill="#F9FAFC" stroke="#2B2727" stroke-width="3" stroke-linejoin="round"/>
<path d="M9.22974 57.6457C9.22974 54.1103 12.2741 52.3422 15.7953 52.6581C25.5866 53.5365 44.2995 55.0391 57.7297 55.0391C71.16 55.0391 89.8729 53.5365 99.6642 52.6581C103.185 52.3422 106.23 54.1103 106.23 57.6457C106.23 60.7087 103.924 62.2705 100.874 62.5487C96.3214 62.9639 89.3308 63.5622 81.7399 64.0683C73.6798 64.6057 64.9429 65.0391 57.7297 65.0391C49.7812 65.0391 39.9823 64.5128 31.2777 63.901C24.6437 63.4348 18.6453 62.919 14.5858 62.5487C11.5354 62.2705 9.22974 60.7087 9.22974 57.6457Z" fill="#F9FAFC"/>
<path d="M34.8863 114.039H78.1137C82.8633 114.039 86.567 109.925 86.0697 105.202L81.7399 64.0683C73.6798 64.6057 64.9429 65.0391 57.7297 65.0391C49.7812 65.0391 39.9823 64.5128 31.2777 63.901L26.9303 105.202C26.4331 109.925 30.1367 114.039 34.8863 114.039Z" fill="#F9FAFC"/>
<path d="M31.2777 63.901C39.9823 64.5128 49.7812 65.0391 57.7297 65.0391C64.9429 65.0391 73.6798 64.6057 81.7399 64.0683M31.2777 63.901C24.6437 63.4348 18.6453 62.919 14.5858 62.5487C11.5354 62.2705 9.22974 60.7087 9.22974 57.6457C9.22974 54.1103 12.2741 52.3422 15.7953 52.6581C25.5866 53.5365 44.2995 55.0391 57.7297 55.0391C71.16 55.0391 89.8729 53.5365 99.6642 52.6581C103.185 52.3422 106.23 54.1103 106.23 57.6457C106.23 60.7087 103.924 62.2705 100.874 62.5487C96.3214 62.9639 89.3308 63.5622 81.7399 64.0683M31.2777 63.901L26.9303 105.202C26.433 109.925 30.1367 114.039 34.8863 114.039H78.1137C82.8633 114.039 86.567 109.925 86.0697 105.202L81.7399 64.0683" stroke="#2B2727" stroke-width="3"/>
<path d="M55.2513 76.8595C55.6238 75.7657 57.2456 75.7657 57.6181 76.8595L59.2284 81.588C59.395 82.0772 59.8727 82.4084 60.4118 82.4084H65.6227C66.8281 82.4084 67.3293 83.8801 66.3541 84.5561L62.1384 87.4785C61.7023 87.7808 61.5198 88.3167 61.6864 88.8059L63.2966 93.5344C63.6691 94.6282 62.357 95.5377 61.3818 94.8617L57.1661 91.9394C56.73 91.637 56.1394 91.637 55.7033 91.9394L51.4876 94.8617C50.5124 95.5378 49.2003 94.6282 49.5728 93.5344L51.183 88.8059C51.3496 88.3167 51.1671 87.7808 50.731 87.4785L46.5153 84.5561C45.5401 83.8801 46.0413 82.4084 47.2467 82.4084H52.4576C52.9967 82.4084 53.4744 82.0772 53.641 81.588L55.2513 76.8595Z" fill="#F9FAFC" stroke="#2B2727" stroke-width="2" stroke-linejoin="round"/>
<path d="M78.0352 33.193C77.4635 31.0592 78.7298 28.8658 80.8637 28.2941L81.8296 28.0352C83.9635 27.4635 86.1568 28.7298 86.7286 30.8637L106.14 103.308C106.712 105.442 105.445 107.635 103.312 108.207L102.346 108.466C100.212 109.038 98.0184 107.771 97.4467 105.637L78.0352 33.193Z" fill="#F9FAFC"/>
<path d="M83.2116 52.5116L91.905 50.1822M102.346 108.466L103.312 108.207C105.445 107.635 106.712 105.442 106.14 103.308L86.7286 30.8637C86.1568 28.7298 83.9635 27.4635 81.8296 28.0352L80.8637 28.2941C78.7298 28.8658 77.4635 31.0592 78.0352 33.193L97.4467 105.637C98.0184 107.771 100.212 109.038 102.346 108.466Z" stroke="#2B2727" stroke-width="3"/>
</svg>
