<svg width="128" height="128" viewBox="0 0 128 128" fill="none" xmlns="http://www.w3.org/2000/svg">
<circle cx="55" cy="52" r="21" fill="#F9FAFC" stroke="#2B2727" stroke-width="3" stroke-linecap="round" stroke-linejoin="round"/>
<path d="M23 97C23 85.9543 31.9543 77 43 77H65C76.0457 77 85 85.9543 85 97V103C85 110.732 78.732 117 71 117H37C29.268 117 23 110.732 23 103V97Z" fill="#F9FAFC" stroke="#2B2727" stroke-width="3" stroke-linecap="round" stroke-linejoin="round"/>
<path d="M31 106.5L33.5 104H36M44.5 104H36M36 104V94" stroke="#2B2727" stroke-width="3" stroke-linecap="round" stroke-linejoin="round"/>
<path d="M44 95.0001C44 92.2387 46.2385 90.0001 49 90.0001H59C61.7614 90.0001 64 92.2387 64 95.0001V111C64 113.762 61.7614 116 59 116H49C46.2385 116 44 113.762 44 111V95.0001Z" fill="#F9FAFC"/>
<path d="M36.598 74.5001C35.1632 75.3285 34.6715 77.1633 35.5 78.5982L44.1862 93.6433C44.7776 91.5411 46.7088 90.0001 49 90.0001L49.0111 90.0001L40.6961 75.5982C39.8677 74.1633 38.0329 73.6717 36.598 74.5001Z" fill="#F9FAFC"/>
<path d="M49 90.0001H59C61.7614 90.0001 64 92.2387 64 95.0001V111C64 113.762 61.7614 116 59 116H49C46.2385 116 44 113.762 44 111V95.0001C44 92.2387 46.2385 90.0001 49 90.0001ZM49 90.0001C46.7088 90.0001 44.7776 91.5411 44.1862 93.6433L35.5 78.5982C34.6715 77.1633 35.1632 75.3285 36.598 74.5001C38.0329 73.6717 39.8677 74.1633 40.6961 75.5982L49.0111 90.0001L49 90.0001Z" stroke="#2B2727" stroke-width="3" stroke-linecap="round" stroke-linejoin="round"/>
<path d="M58 108C58 105.239 60.2386 103 63 103H65C67.7614 103 70 105.239 70 108C70 109.953 70 111.047 70 113C70 115.761 67.7614 118 65 118H63C60.2386 118 58 115.761 58 113V108Z" fill="#F9FAFC"/>
<path d="M77.5 106.5L75 104H72.5M72.5 104H68.0005M72.5 104V94M63 118H65C67.7614 118 70 115.761 70 113C70 111.047 70 109.953 70 108C70 105.239 67.7614 103 65 103H63C60.2386 103 58 105.239 58 108V113C58 115.761 60.2386 118 63 118Z" stroke="#2B2727" stroke-width="3" stroke-linecap="round" stroke-linejoin="round"/>
<path d="M101.517 21C108.963 21 115 27.0366 115 34.4831C115 41.9297 108.963 47.9663 101.517 47.9663L89.6274 47.9663C89.6274 51.1562 87.5 54.6562 83.5 55.1562C83.5 53 83.5 49.5 82.8308 47.9663L78.4831 47.9663C71.0366 47.9663 65 41.9297 65 34.4831C65 27.0366 71.0366 21 78.4831 21L101.517 21Z" fill="#F9FAFC" stroke="#2B2727" stroke-width="3" stroke-linecap="round" stroke-linejoin="round"/>
<path d="M76 29H103M76 34H103M76 39H103" stroke="#2B2727" stroke-width="2" stroke-linecap="round" stroke-linejoin="round"/>
</svg>
