<svg width="128" height="128" viewBox="0 0 128 128" fill="none" xmlns="http://www.w3.org/2000/svg">
<rect x="9.5" y="17.5" width="76" height="60" rx="21.5" fill="#F9FAFC" stroke="#2B2727" stroke-width="3" stroke-linecap="round" stroke-linejoin="round"/>
<g clip-path="url(#clip0_96_41995)">
<path d="M47.9966 43.6163C45.9024 43.6163 44.1571 45.0968 43.7344 47.0666C43.6928 47.2605 43.6616 47.4582 43.645 47.6599C43.6302 47.8394 43.777 47.9857 43.9567 47.9857H45.1454C45.3251 47.9857 45.4686 47.839 45.4927 47.6606C45.5207 47.4538 45.5744 47.2552 45.6481 47.0666C46.016 46.1254 46.9259 45.4573 47.9966 45.4574C49.3919 45.4574 50.5224 46.589 50.5225 47.9857C50.5225 49.3823 49.3919 50.5139 47.9966 50.514H37.4368C37.228 50.514 37.0731 50.7084 37.1261 50.9108C37.2371 51.3344 37.3706 51.7488 37.5285 52.1512C37.5765 52.2735 37.6953 52.3523 37.8265 52.3523H47.9966C50.4066 52.3523 52.3589 50.3981 52.3589 47.9857C52.3589 45.5733 50.4066 43.6163 47.9966 43.6163Z" fill="#2B2727"/>
<path d="M47.9966 40.1688C43.9952 40.1688 40.7 43.1838 40.2445 47.0666C40.2215 47.2627 40.2042 47.4601 40.195 47.6597C40.1866 47.8396 40.3329 47.9857 40.5126 47.9857H41.6985C41.8781 47.9857 42.0229 47.8395 42.0344 47.6598C42.0472 47.4594 42.0708 47.262 42.101 47.0666C42.5438 44.2031 45.0118 42.0071 47.9966 42.0071C51.2945 42.0071 53.9666 44.6846 53.9666 47.9857C53.9666 51.2869 51.2945 53.9614 47.9966 53.9614H39.0379C38.7824 53.9614 38.6282 54.2422 38.7745 54.4522C39.0811 54.8926 39.4179 55.3107 39.7829 55.7017C39.8435 55.7665 39.9284 55.8026 40.017 55.8026H47.9966C52.3093 55.8026 55.806 52.3026 55.8059 47.9857C55.8059 43.6688 52.3093 40.1688 47.9966 40.1688Z" fill="#2B2727"/>
<path d="M47.9966 36.75C44.5004 36.75 41.3762 38.3438 39.312 40.8474C39.09 41.1166 38.8792 41.3971 38.6827 41.6864C38.6698 41.7053 38.6582 41.7247 38.6455 41.7436C38.4685 42.0075 38.3052 42.2806 38.1505 42.5597C38.1235 42.6089 38.094 42.656 38.0676 42.7057C37.9323 42.9588 37.8119 43.2205 37.6958 43.4845C37.6615 43.5632 37.6253 43.6426 37.5928 43.7222C37.5028 43.9403 37.4231 44.1618 37.3468 44.3865C37.2986 44.5294 37.2491 44.6734 37.2066 44.8189C37.1612 44.9727 37.1254 45.1291 37.0864 45.2856C37.0343 45.4974 36.9805 45.7077 36.9406 45.9241C36.9223 46.0217 36.9134 46.1235 36.8977 46.2219C36.8546 46.495 36.8148 46.7701 36.7919 47.0494C36.7913 47.0552 36.7894 47.0607 36.7889 47.0666C36.773 47.2635 36.7585 47.4608 36.7503 47.6597C36.7428 47.8396 36.8888 47.9857 37.0685 47.9857H38.2544C38.434 47.9857 38.5791 47.8396 38.5856 47.6596C38.5928 47.4605 38.6064 47.2631 38.6254 47.0666C39.0879 42.2931 43.1064 38.5596 47.9966 38.5596C53.1973 38.5596 57.4136 42.78 57.4136 47.9857C57.4136 53.1914 53.1973 57.4118 47.9966 57.4117H42.8806C42.558 57.4117 42.4438 57.8137 42.729 57.9647C44.1413 58.7127 45.7328 59.1645 47.4217 59.25H47.9966C53.8236 59.25 58.6136 54.8171 59.19 49.1368C59.2274 48.7675 59.2491 48.3933 59.25 48.0143C59.25 47.6255 59.2284 47.2391 59.19 46.8604C58.6136 41.18 53.8236 36.75 47.9966 36.75Z" fill="#2B2727"/>
</g>
<path d="M49.8831 99.5002L78.3832 110.001C79.8832 110.5 81.8832 110.5 83.8832 110L102.883 104.5C106.251 103.167 108.383 101.5 108.383 98.5002L108.383 103.5C108.383 104.5 109.383 105.5 110.883 105.5L116.383 105.5C118.383 105.5 119.383 104.5 119.383 102.5L119.383 80.5C119.383 79 117.883 78.001 116.383 78C114.883 77.999 111.883 78.002 110.883 78.001C109.883 78 108.383 79 108.383 80.501L108.383 83.5C108.383 79.501 102.383 78.5001 98.3832 78.9992C94.6922 79.4598 92.838 80.2837 91.2172 81.9273C90.2781 82.8795 89.1814 83.6873 87.8892 84.0319L74.8832 87.5002C74.4556 87.5857 74.0683 87.759 73.723 88L60.8832 83.5C58.8832 83 55.8832 83.5 54.8832 85.5C53.8832 87.5 54.3832 90.366 56.1161 91L53.3833 90.0002C50.3832 89.0006 48.1832 91.0006 47.3832 93.0006C46.3832 95.501 47.3833 98.5006 49.8831 99.5002Z" fill="#F9FAFC"/>
<path d="M77.8832 97.5001L86.8832 95.5006M77.8832 97.5001C74.8832 98.0001 72.3832 96.0001 71.8832 94.0002C71.3651 91.9277 72.0496 89.1682 73.723 88M77.8832 97.5001C76.4467 97.7561 75.6342 97.8794 73.8832 97.5001L56.1161 91M108.383 83.5C108.383 79.501 102.383 78.5001 98.3832 78.9992C94.6922 79.4598 92.838 80.2837 91.2171 81.9273C90.2781 82.8795 89.1814 83.6873 87.8892 84.0319L74.8832 87.5002C74.4556 87.5857 74.0683 87.759 73.723 88M108.383 83.5L108.383 98.5002M108.383 83.5C108.383 83.5 108.383 82.002 108.383 80.501C108.383 79 109.883 78 110.883 78.001C111.883 78.002 114.883 77.999 116.383 78C117.883 78.001 119.383 79 119.383 80.5C119.383 82 119.383 100.5 119.383 102.5C119.383 104.5 118.383 105.5 116.383 105.5C114.383 105.5 112.383 105.5 110.883 105.5C109.383 105.5 108.383 104.5 108.383 103.5C108.383 102.5 108.383 98.5002 108.383 98.5002M108.383 98.5002C108.383 101.5 106.251 103.167 102.883 104.5L83.8832 110C81.8832 110.5 79.8832 110.5 78.3832 110.001L49.8831 99.5002C47.3833 98.5006 46.3832 95.501 47.3832 93.0006C48.1832 91.0006 50.3832 89.0006 53.3833 90.0002L56.1161 91M56.1161 91C54.3832 90.366 53.8832 87.5 54.8832 85.5C55.8832 83.5 58.8832 83 60.8832 83.5L73.723 88" stroke="#2B2727" stroke-width="3" stroke-linecap="round" stroke-linejoin="round"/>
<defs>
<clipPath id="clip0_96_41995">
<rect width="24" height="24" fill="white" transform="translate(36 36)"/>
</clipPath>
</defs>
</svg>
