<svg width="128" height="128" viewBox="0 0 128 128" fill="none" xmlns="http://www.w3.org/2000/svg">
<rect x="33.5" y="29.5" width="62" height="83" rx="10.5" fill="#F9FAFC" stroke="#2B2727" stroke-width="3"/>
<path d="M62 41H85" stroke="#2B2727" stroke-linecap="round"/>
<path d="M62 51H85" stroke="#2B2727" stroke-linecap="round"/>
<path d="M62 61H85" stroke="#2B2727" stroke-linecap="round"/>
<path d="M62 71H85" stroke="#2B2727" stroke-linecap="round"/>
<path d="M62 81H85" stroke="#2B2727" stroke-linecap="round"/>
<path d="M62 91H85" stroke="#2B2727" stroke-linecap="round"/>
<path d="M62 101H85" stroke="#2B2727" stroke-linecap="round"/>
<path fill-rule="evenodd" clip-rule="evenodd" d="M64.5 16C60.3174 16 56.8404 19.021 56.1319 23H55.5C52.4624 23 50 25.4624 50 28.5C50 31.5376 52.4624 34 55.5 34H73.5C76.5376 34 79 31.5376 79 28.5C79 25.4624 76.5376 23 73.5 23H72.8681C72.1596 19.021 68.6826 16 64.5 16ZM64.5 28C66.433 28 68 26.433 68 24.5C68 22.567 66.433 21 64.5 21C62.567 21 61 22.567 61 24.5C61 26.433 62.567 28 64.5 28Z" fill="#F9FAFC"/>
<path d="M56.1319 23V24.5H57.3884L57.6087 23.2629L56.1319 23ZM72.8681 23L71.3913 23.2629L71.6116 24.5H72.8681V23ZM57.6087 23.2629C58.192 19.9871 61.0571 17.5 64.5 17.5V14.5C59.5777 14.5 55.4888 18.0549 54.6552 22.7371L57.6087 23.2629ZM55.5 24.5H56.1319V21.5H55.5V24.5ZM51.5 28.5C51.5 26.2909 53.2909 24.5 55.5 24.5V21.5C51.634 21.5 48.5 24.634 48.5 28.5H51.5ZM55.5 32.5C53.2909 32.5 51.5 30.7091 51.5 28.5H48.5C48.5 32.366 51.634 35.5 55.5 35.5V32.5ZM73.5 32.5H55.5V35.5H73.5V32.5ZM77.5 28.5C77.5 30.7091 75.7091 32.5 73.5 32.5V35.5C77.366 35.5 80.5 32.366 80.5 28.5H77.5ZM73.5 24.5C75.7091 24.5 77.5 26.2909 77.5 28.5H80.5C80.5 24.634 77.366 21.5 73.5 21.5V24.5ZM72.8681 24.5H73.5V21.5H72.8681V24.5ZM64.5 17.5C67.9429 17.5 70.808 19.9871 71.3913 23.2629L74.3448 22.7371C73.5112 18.0549 69.4223 14.5 64.5 14.5V17.5ZM66.5 24.5C66.5 25.6046 65.6046 26.5 64.5 26.5V29.5C67.2614 29.5 69.5 27.2614 69.5 24.5H66.5ZM64.5 22.5C65.6046 22.5 66.5 23.3954 66.5 24.5H69.5C69.5 21.7386 67.2614 19.5 64.5 19.5V22.5ZM62.5 24.5C62.5 23.3954 63.3954 22.5 64.5 22.5V19.5C61.7386 19.5 59.5 21.7386 59.5 24.5H62.5ZM64.5 26.5C63.3954 26.5 62.5 25.6046 62.5 24.5H59.5C59.5 27.2614 61.7386 29.5 64.5 29.5V26.5Z" fill="#2B2727"/>
<rect x="41" y="39" width="17" height="17" rx="8.5" fill="#F9FAFC"/>
<rect x="41" y="39" width="17" height="17" rx="8.5" stroke="#2B2727" stroke-width="2"/>
<path d="M48.0379 45.4746C47.9533 45.3151 48.0103 45.1914 48.2088 45.1035C48.3976 45.0189 48.5946 44.9001 48.7997 44.7471C49.0047 44.5941 49.1724 44.4362 49.3026 44.2734C49.4491 44.0911 49.589 44 49.7225 44H50.4989C50.6942 44 50.7918 44.0977 50.7918 44.293V50.7383C50.7918 50.9336 50.6942 51.0312 50.4989 51.0312H49.7176C49.5223 51.0312 49.4247 50.9336 49.4247 50.7383V46.0947C49.4247 45.9645 49.4312 45.8343 49.4442 45.7041H49.4247C49.3237 45.8311 49.2131 45.9401 49.0926 46.0312C48.9722 46.1224 48.8501 46.194 48.7264 46.2461C48.5734 46.3112 48.4579 46.2689 48.3797 46.1191L48.0379 45.4746Z" fill="#2B2727"/>
<rect x="41" y="63" width="17" height="17" rx="8.5" fill="#F9FAFC"/>
<rect x="41" y="63" width="17" height="17" rx="8.5" stroke="#2B2727" stroke-width="2"/>
<path d="M47.3662 75.1094C47.1221 75.1094 47 75.0036 47 74.792V74.5576C47 74.3883 47.0781 74.2207 47.2344 74.0547L48.6943 72.5166C49.1338 72.0511 49.5358 71.6377 49.9004 71.2764C50.265 70.9118 50.4473 70.5439 50.4473 70.1729C50.4473 69.8018 50.3545 69.5299 50.1689 69.3574C49.9867 69.1816 49.7539 69.0938 49.4707 69.0938C49.0215 69.0938 48.709 69.1979 48.5332 69.4062C48.3574 69.6146 48.2305 69.8376 48.1523 70.0752C48.0775 70.3063 47.9408 70.3893 47.7422 70.3242L47.249 70.1582C47.0895 70.1029 47.0439 69.9499 47.1123 69.6992C47.2393 69.2337 47.498 68.835 47.8887 68.5029C48.2793 68.1676 48.8587 68 49.627 68C50.4277 68 51.0088 68.2067 51.3701 68.6201C51.7314 69.0303 51.9121 69.4762 51.9121 69.958C51.9121 70.5895 51.6484 71.1445 51.1211 71.623C50.5938 72.0983 50.1152 72.5622 49.6855 73.0146L48.8555 73.8887V73.918C49.0508 73.9049 49.2135 73.8984 49.3438 73.8984H51.624C51.8682 73.8984 51.9902 74.0042 51.9902 74.2158V74.792C51.9902 75.0036 51.8682 75.1094 51.624 75.1094H47.3662Z" fill="#2B2727"/>
<rect x="41" y="87" width="17" height="17" rx="8.5" fill="#F9FAFC"/>
<rect x="41" y="87" width="17" height="17" rx="8.5" stroke="#2B2727" stroke-width="2"/>
<path d="M47.1031 98.6113C46.9762 98.5039 46.9664 98.3509 47.0739 98.1523L47.2985 97.7422C47.4059 97.5436 47.58 97.529 47.8209 97.6982C48.0227 97.8415 48.2506 97.9587 48.5045 98.0498C48.7584 98.1377 49.0416 98.1816 49.3541 98.1816C49.7838 98.1816 50.0914 98.0661 50.277 97.835C50.4625 97.6006 50.5553 97.3385 50.5553 97.0488C50.5553 96.7526 50.4446 96.4873 50.2233 96.2529C50.0052 96.0153 49.6959 95.8965 49.2955 95.8965H48.9196C48.708 95.8965 48.6022 95.8102 48.6022 95.6377V95.1006C48.6022 94.9215 48.708 94.832 48.9196 94.832H49.2125C49.512 94.832 49.7757 94.7393 50.0035 94.5537C50.2347 94.3682 50.3502 94.1354 50.3502 93.8555C50.3502 93.6374 50.2737 93.4567 50.1207 93.3135C49.971 93.167 49.7252 93.0938 49.3834 93.0938C49.0612 93.0938 48.7828 93.141 48.5485 93.2354C48.3141 93.3298 48.1285 93.4437 47.9918 93.5771C47.7965 93.7692 47.6289 93.7611 47.4889 93.5527L47.2057 93.1377C47.0983 92.9814 47.1308 92.8219 47.3033 92.6592C47.5377 92.4346 47.8405 92.2686 48.2115 92.1611C48.5826 92.0537 48.9456 92 49.3004 92C50.137 92 50.7587 92.1676 51.1656 92.5029C51.5726 92.835 51.776 93.2419 51.776 93.7236C51.776 94.0817 51.636 94.4089 51.3561 94.7051C51.0761 94.998 50.7799 95.1999 50.4674 95.3105V95.3301C50.8385 95.4212 51.1901 95.6214 51.5221 95.9307C51.8541 96.2367 52.0201 96.6175 52.0201 97.0732C52.0201 97.7861 51.7955 98.3314 51.3463 98.709C50.8971 99.0866 50.2119 99.2754 49.2906 99.2754C48.9033 99.2754 48.5013 99.2168 48.0846 99.0996C47.6712 98.9792 47.344 98.8164 47.1031 98.6113Z" fill="#2B2727"/>
</svg>
