<svg width="128" height="128" viewBox="0 0 128 128" fill="none" xmlns="http://www.w3.org/2000/svg">
<path fill-rule="evenodd" clip-rule="evenodd" d="M64 10C52.9543 10 44 18.9543 44 30V49C44 57.7568 49.6278 65.1992 57.4639 67.9076C54.6101 65.8671 52.75 62.5258 52.75 58.75V29.25C52.75 23.0368 57.7868 18 64 18C70.2132 18 75.25 23.0368 75.25 29.25V58.75C75.25 62.5258 73.3899 65.8671 70.5361 67.9076C78.3722 65.1992 84 57.7568 84 49V30C84 18.9543 75.0457 10 64 10Z" fill="#F9FAFC"/>
<path d="M57.4639 67.9076L56.9739 69.3253L58.3364 66.6874L57.4639 67.9076ZM70.5361 67.9076L69.6636 66.6874L71.0261 69.3253L70.5361 67.9076ZM45.5 30C45.5 19.7827 53.7827 11.5 64 11.5V8.5C52.1259 8.5 42.5 18.1259 42.5 30H45.5ZM45.5 49V30H42.5V49H45.5ZM57.9539 66.4899C50.7036 63.984 45.5 57.0977 45.5 49H42.5C42.5 58.4159 48.552 66.4145 56.9739 69.3253L57.9539 66.4899ZM58.3364 66.6874C55.8595 64.9164 54.25 62.0212 54.25 58.75H51.25C51.25 63.0304 53.3607 66.8178 56.5915 69.1278L58.3364 66.6874ZM54.25 58.75V29.25H51.25V58.75H54.25ZM54.25 29.25C54.25 23.8652 58.6152 19.5 64 19.5V16.5C56.9584 16.5 51.25 22.2084 51.25 29.25H54.25ZM64 19.5C69.3848 19.5 73.75 23.8652 73.75 29.25H76.75C76.75 22.2084 71.0416 16.5 64 16.5V19.5ZM73.75 29.25V58.75H76.75V29.25H73.75ZM73.75 58.75C73.75 62.0212 72.1405 64.9164 69.6636 66.6874L71.4085 69.1278C74.6393 66.8178 76.75 63.0304 76.75 58.75H73.75ZM82.5 49C82.5 57.0977 77.2964 63.984 70.0461 66.4899L71.0261 69.3253C79.448 66.4145 85.5 58.4159 85.5 49H82.5ZM82.5 30V49H85.5V30H82.5ZM64 11.5C74.2173 11.5 82.5 19.7827 82.5 30H85.5C85.5 18.1259 75.8741 8.5 64 8.5V11.5Z" fill="#2B2727"/>
<path d="M64 42.5L32 47.5C32 96.8333 32 109 64 118C96 109 96 96.3333 96 47.5L64 42.5Z" fill="#F9FAFC" stroke="#2B2727" stroke-width="3" stroke-linejoin="round"/>
<path fill-rule="evenodd" clip-rule="evenodd" d="M66.7693 81.2329C69.4757 80.1374 71.3848 77.484 71.3848 74.3848C71.3848 70.3063 68.0785 67 64 67C59.9215 67 56.6152 70.3063 56.6152 74.3848C56.6152 77.4841 58.5243 80.1374 61.2307 81.2329V88.2308C61.2307 89.7603 62.4706 91.0001 64 91.0001C65.5295 91.0001 66.7693 89.7603 66.7693 88.2308V81.2329Z" fill="#F9FAFC"/>
<path d="M66.7693 81.2329L66.2065 79.8425L65.2693 80.2218V81.2329H66.7693ZM61.2307 81.2329H62.7307V80.2218L61.7935 79.8425L61.2307 81.2329ZM69.8848 74.3848C69.8848 76.8522 68.3659 78.9683 66.2065 79.8425L67.3322 82.6233C70.5855 81.3064 72.8848 78.1159 72.8848 74.3848H69.8848ZM64 68.5C67.2501 68.5 69.8848 71.1347 69.8848 74.3848H72.8848C72.8848 69.4779 68.907 65.5 64 65.5V68.5ZM58.1152 74.3848C58.1152 71.1347 60.7499 68.5 64 68.5V65.5C59.0931 65.5 55.1152 69.4779 55.1152 74.3848H58.1152ZM61.7935 79.8425C59.6341 78.9684 58.1152 76.8522 58.1152 74.3848H55.1152C55.1152 78.1159 57.4145 81.3064 60.6679 82.6233L61.7935 79.8425ZM62.7307 88.2308V81.2329H59.7307V88.2308H62.7307ZM64 89.5001C63.299 89.5001 62.7307 88.9319 62.7307 88.2308H59.7307C59.7307 90.5887 61.6421 92.5001 64 92.5001V89.5001ZM65.2693 88.2308C65.2693 88.9319 64.701 89.5001 64 89.5001V92.5001C66.3579 92.5001 68.2693 90.5887 68.2693 88.2308H65.2693ZM65.2693 81.2329V88.2308H68.2693V81.2329H65.2693Z" fill="#2B2727"/>
</svg>
