<svg width="128" height="128" viewBox="0 0 128 128" fill="none" xmlns="http://www.w3.org/2000/svg">
<path d="M30.5 29.133C30.5 26.868 30.5012 25.2595 30.604 24.0008C30.7054 22.7595 30.8982 21.991 31.2085 21.3821C31.8316 20.159 32.826 19.1646 34.0491 18.5415C34.658 18.2312 35.4265 18.0384 36.6678 17.937C37.9265 17.8342 39.535 17.833 41.8 17.833H76.2C78.465 17.833 80.0735 17.8342 81.3322 17.937C82.5735 18.0384 83.342 18.2312 83.9509 18.5415C85.174 19.1646 86.1684 20.159 86.7915 21.3821C87.1018 21.991 87.2946 22.7595 87.396 24.0008C87.4988 25.2595 87.5 26.868 87.5 29.133V80.1997C87.5 82.4646 87.4988 84.0731 87.396 85.3319C87.2946 86.5732 87.1018 87.3417 86.7915 87.9506C86.1684 89.1737 85.174 90.168 83.9509 90.7912C83.342 91.1015 82.5735 91.2942 81.3322 91.3957C80.0735 91.4985 78.465 91.4997 76.2 91.4997H41.8C39.535 91.4997 37.9265 91.4985 36.6678 91.3957C35.4265 91.2942 34.658 91.1015 34.0491 90.7912C32.826 90.168 31.8316 89.1737 31.2085 87.9506C30.8982 87.3417 30.7054 86.5732 30.604 85.3319C30.5012 84.0731 30.5 82.4646 30.5 80.1997V29.133Z" fill="#F9FAFC" stroke="#2B2727" stroke-width="3" stroke-linejoin="round"/>
<g clip-path="url(#clip0_499_32469)">
<path d="M58.9966 50.6163C56.9024 50.6163 55.1571 52.0968 54.7344 54.0666C54.6928 54.2605 54.6616 54.4582 54.645 54.6599C54.6302 54.8394 54.777 54.9857 54.9567 54.9857H56.1454C56.3251 54.9857 56.4686 54.839 56.4927 54.6606C56.5207 54.4538 56.5744 54.2552 56.6481 54.0666C57.016 53.1254 57.9259 52.4573 58.9966 52.4574C60.3919 52.4574 61.5224 53.589 61.5225 54.9857C61.5225 56.3823 60.3919 57.5139 58.9966 57.514H48.4368C48.228 57.514 48.0731 57.7084 48.1261 57.9108C48.2371 58.3344 48.3706 58.7488 48.5285 59.1512C48.5765 59.2735 48.6953 59.3523 48.8265 59.3523H58.9966C61.4066 59.3523 63.3589 57.3981 63.3589 54.9857C63.3589 52.5733 61.4066 50.6163 58.9966 50.6163Z" fill="#2B2727"/>
<path d="M58.9966 47.1688C54.9952 47.1688 51.7 50.1838 51.2445 54.0666C51.2215 54.2627 51.2042 54.4601 51.195 54.6597C51.1866 54.8396 51.3329 54.9857 51.5126 54.9857H52.6985C52.8781 54.9857 53.0229 54.8395 53.0344 54.6598C53.0472 54.4594 53.0708 54.262 53.101 54.0666C53.5438 51.2031 56.0118 49.0071 58.9966 49.0071C62.2945 49.0071 64.9666 51.6846 64.9666 54.9857C64.9666 58.2869 62.2945 60.9614 58.9966 60.9614H50.0379C49.7824 60.9614 49.6282 61.2422 49.7745 61.4522C50.0811 61.8926 50.4179 62.3107 50.7829 62.7017C50.8435 62.7665 50.9284 62.8026 51.017 62.8026H58.9966C63.3093 62.8026 66.806 59.3026 66.8059 54.9857C66.8059 50.6688 63.3093 47.1688 58.9966 47.1688Z" fill="#2B2727"/>
<path d="M58.9966 43.75C55.5004 43.75 52.3762 45.3438 50.312 47.8474C50.09 48.1166 49.8792 48.3971 49.6827 48.6864C49.6698 48.7053 49.6582 48.7247 49.6455 48.7436C49.4685 49.0075 49.3052 49.2806 49.1505 49.5597C49.1235 49.6089 49.094 49.656 49.0676 49.7057C48.9323 49.9588 48.8119 50.2205 48.6958 50.4845C48.6615 50.5632 48.6253 50.6426 48.5928 50.7222C48.5028 50.9403 48.4231 51.1618 48.3468 51.3865C48.2986 51.5294 48.2491 51.6734 48.2066 51.8189C48.1612 51.9727 48.1254 52.1291 48.0864 52.2856C48.0343 52.4974 47.9805 52.7077 47.9406 52.9241C47.9223 53.0217 47.9134 53.1235 47.8977 53.2219C47.8546 53.495 47.8148 53.7701 47.7919 54.0494C47.7913 54.0552 47.7894 54.0607 47.7889 54.0666C47.773 54.2635 47.7585 54.4608 47.7503 54.6597C47.7428 54.8396 47.8888 54.9857 48.0685 54.9857H49.2544C49.434 54.9857 49.5791 54.8396 49.5856 54.6596C49.5928 54.4605 49.6064 54.2631 49.6254 54.0666C50.0879 49.2931 54.1064 45.5596 58.9966 45.5596C64.1973 45.5596 68.4136 49.78 68.4136 54.9857C68.4136 60.1914 64.1973 64.4118 58.9966 64.4117H53.8806C53.558 64.4117 53.4438 64.8137 53.729 64.9647C55.1413 65.7127 56.7328 66.1645 58.4217 66.25H58.9966C64.8236 66.25 69.6136 61.8171 70.19 56.1368C70.2274 55.7675 70.2491 55.3933 70.25 55.0143C70.25 54.6255 70.2284 54.2391 70.19 53.8604C69.6136 48.18 64.8236 43.75 58.9966 43.75Z" fill="#2B2727"/>
</g>
<path d="M54 87.8328H63.1667" stroke="#2B2727" stroke-linecap="round"/>
<path d="M96.6719 57.3134L97.172 83.166C97.1555 84.5118 96.5976 86.1205 95.6379 87.5899L85.9166 101.34C83.905 103.677 81.97 104.927 79.5569 104.091L83.5786 105.485C84.3831 105.764 84.9086 106.847 84.4903 108.054L82.9569 112.478C82.3992 114.086 81.3161 114.612 79.7073 114.054L62.0111 107.92C60.8045 107.502 60.4192 106.017 60.8366 104.81C61.254 103.603 62.0928 101.191 62.3709 100.386C62.6489 99.5818 63.8715 98.6541 65.0788 99.0726L67.4912 99.9087C64.2744 98.7938 65.1422 93.6885 66.659 90.6101C67.985 87.9187 69.1137 86.6447 70.7375 85.7991C71.9236 85.1814 73.056 84.4259 73.8048 83.3179L80.049 74.0773C80.237 73.7572 80.4844 73.4939 80.7746 73.2834C82.1808 72.263 84.5913 72.4819 86.1139 73.4765C87.5832 74.4362 88.4949 77.0048 87.2563 79.2785C87.8627 78.1944 88.1884 77.5753 88.3715 76.061L88.0967 59.9572L88.0544 57.4802C88.0868 54.7883 90.309 53.5763 92.1408 53.4904C94.4309 53.3832 96.5648 55.0239 96.6719 57.3134Z" fill="#F9FAFC"/>
<path d="M87.2563 79.2785L83.1386 85.9605M87.2563 79.2785C88.4949 77.0048 87.5832 74.4362 86.1139 73.4765C84.5913 72.4819 82.1808 72.263 80.7746 73.2834C80.4844 73.4939 80.237 73.7572 80.049 74.0773L73.8048 83.3179C73.056 84.4259 71.9236 85.1814 70.7375 85.7991C69.1137 86.6447 67.985 87.9187 66.659 90.6101C65.1422 93.6885 64.2744 98.7938 67.4912 99.9087M87.2563 79.2785C87.8627 78.1944 88.1884 77.5753 88.3715 76.061L88.0967 59.9572L88.0544 57.4802C88.0868 54.7883 90.309 53.5763 92.1408 53.4904C94.4309 53.3832 96.5648 55.0239 96.6719 57.3134L97.172 83.166C97.1555 84.5118 96.5976 86.1205 95.6379 87.5899L85.9166 101.34C83.905 103.677 81.97 104.927 79.5569 104.091M67.4912 99.9087L79.5569 104.091M67.4912 99.9087C67.4912 99.9087 66.2862 99.4911 65.0788 99.0726C63.8715 98.6541 62.6489 99.5818 62.3709 100.386C62.0928 101.191 61.254 103.603 60.8366 104.81C60.4192 106.017 60.8045 107.502 62.0111 107.92C63.2177 108.339 78.0986 113.497 79.7073 114.054C81.3161 114.612 82.3992 114.086 82.9569 112.478C83.5145 110.869 84.0721 109.26 84.4903 108.054C84.9086 106.847 84.3831 105.764 83.5786 105.485C82.7741 105.206 79.5569 104.091 79.5569 104.091" stroke="#2B2727" stroke-width="3" stroke-linecap="round" stroke-linejoin="round"/>
<defs>
<clipPath id="clip0_499_32469">
<rect width="24" height="24" fill="white" transform="translate(47 43)"/>
</clipPath>
</defs>
</svg>
