<svg width="128" height="128" viewBox="0 0 128 128" fill="none" xmlns="http://www.w3.org/2000/svg">
<path d="M9 48.4118C9 43.7661 12.7994 40 17.4861 40H47.5139C52.2006 40 56 43.7661 56 48.4118V97.5882C56 102.234 52.2006 106 47.5139 106H17.4861C12.7994 106 9 102.234 9 97.5882V48.4118Z" fill="#F9FAFC"/>
<path d="M9 72.6765H56M17.4861 106H47.5139C52.2006 106 56 102.234 56 97.5882V48.4118C56 43.7661 52.2006 40 47.5139 40H17.4861C12.7994 40 9 43.7661 9 48.4118V97.5882C9 102.234 12.7994 106 17.4861 106Z" stroke="#2B2727" stroke-width="3"/>
<path d="M17 36.9608C17 30.9073 21.9311 26 28.0139 26H66.9861C73.0689 26 78 30.9073 78 36.9608V101.039C78 107.093 73.0689 112 66.9861 112H28.0139C21.9311 112 17 107.093 17 101.039V36.9608Z" fill="#F9FAFC"/>
<path d="M17 68.5784H78M28.0139 112H66.9861C73.0689 112 78 107.093 78 101.039V36.9608C78 30.9073 73.0689 26 66.9861 26H28.0139C21.9311 26 17 30.9073 17 36.9608V101.039C17 107.093 21.9311 112 28.0139 112Z" stroke="#2B2727" stroke-width="3"/>
<path d="M28 27C28 19.8203 33.8203 14 41 14H87C94.1797 14 100 19.8203 100 27V103C100 110.18 94.1797 116 87 116H41C33.8203 116 28 110.18 28 103V27Z" fill="#F9FAFC"/>
<path d="M28 64.5H100M41 116H87C94.1797 116 100 110.18 100 103V27C100 19.8203 94.1797 14 87 14H41C33.8203 14 28 19.8203 28 27V103C28 110.18 33.8203 116 41 116Z" stroke="#2B2727" stroke-width="3"/>
<path d="M39.5 75.5H58.5M65.5 75.5H86.5M39.5 84.5H49.5M55.5 84.5H65.5M72.5 84.5H82.5M39.5 93.5H84.5M39.5 102.5H64.5M72.5 102.5H88.5" stroke="#2B2727" stroke-width="3" stroke-linecap="round"/>
<path d="M76.0693 33.0749C76.0693 39.7437 70.6632 45.1498 63.9944 45.1498C57.3257 45.1498 51.9196 39.7437 51.9196 33.0749C51.9196 26.4061 57.3257 21 63.9944 21C70.6632 21 76.0693 26.4061 76.0693 33.0749Z" fill="#F9FAFC" stroke="#2B2727" stroke-width="3" stroke-linecap="round" stroke-linejoin="round"/>
<path d="M52.7047 63.9665V53.7482C52.7047 51.8113 52.7047 50.8429 53.0816 50.1031C53.4132 49.4524 53.9423 48.9233 54.593 48.5918C55.3328 48.2148 56.3012 48.2148 58.238 48.2148H69.3377C71.2746 48.2148 72.243 48.2148 72.9828 48.5918C73.6335 48.9233 74.1626 49.4524 74.4941 50.1031C74.8711 50.8429 74.8711 51.8113 74.8711 53.7482V63.9665" stroke="#2B2727" stroke-width="3" stroke-linecap="round" stroke-linejoin="round"/>
<path d="M64.2806 51.9727L61.656 58.0969L64.2806 60.5283L66.9053 58.0969L64.2806 51.9727ZM64.2806 51.9727L65.7083 48.6416M64.2806 51.9727L62.853 48.6416" stroke="#2B2727" stroke-width="3" stroke-linecap="round" stroke-linejoin="round"/>
<line x1="107.977" y1="95.3461" x2="109.755" y2="101.247" stroke="#2B2727" stroke-width="3" stroke-linecap="round"/>
<rect x="107.162" y="100.236" width="4.19935" height="20.5615" rx="2.09967" transform="rotate(-16.7661 107.162 100.236)" fill="#F9FAFC" stroke="#2B2727" stroke-width="3"/>
<path d="M117.969 85.1764C113.659 93.2041 103.657 96.2175 95.6288 91.907C87.6011 87.5964 84.5878 77.5943 88.8983 69.5666C93.2089 61.5389 103.211 58.5255 111.239 62.8361C119.266 67.1466 122.28 77.1487 117.969 85.1764Z" fill="#F9FAFC" stroke="#2B2727" stroke-width="3"/>
</svg>
