<svg width="128" height="128" viewBox="0 0 128 128" fill="none" xmlns="http://www.w3.org/2000/svg">
<path d="M50.5833 112H37.1667C26.5812 112 18 103.404 18 92.8V78.4M77.4167 112H90.8333C101.419 112 110 103.404 110 92.8V78.4M110 49.6V35.2C110 24.5961 101.419 16 90.8333 16H77.4167M50.5833 16H37.1667C26.5812 16 18 24.5961 18 35.2V49.6" stroke="#2B2727" stroke-width="3" stroke-linecap="round" stroke-linejoin="round"/>
<path d="M39 48.0565L62.6144 37.003C63.9707 36.3681 65.5403 36.3746 66.8913 37.0207L89.9661 48.0565V76.6907C89.9661 78.6162 88.8604 80.3706 87.1234 81.2014L64.7571 91.8983L41.8803 81.19C40.1228 80.3674 39 78.6021 39 76.6616V48.0565Z" fill="#F9FAFC"/>
<path d="M39 48.0565L62.6144 37.003C63.9707 36.3681 65.5403 36.3746 66.8913 37.0207L89.9661 48.0565M39 48.0565L64.7571 60.113M39 48.0565V63.9492M64.7571 91.8983L41.8803 81.19C40.1228 80.3674 39 78.6021 39 76.6616V71.8955M64.7571 91.8983L87.1234 81.2014C88.8604 80.3706 89.9661 78.6162 89.9661 76.6907V48.0565M64.7571 91.8983V60.113M89.9661 48.0565L64.7571 60.113" stroke="#2B2727" stroke-width="3" stroke-linecap="round" stroke-linejoin="round"/>
</svg>
