<svg width="128" height="128" viewBox="0 0 128 128" fill="none" xmlns="http://www.w3.org/2000/svg">
<rect x="62.0617" y="25.5" width="48.5245" height="33.2064" rx="6.5" fill="#F9FAFC" stroke="#2B2727" stroke-width="3" stroke-linecap="round" stroke-linejoin="round"/>
<path d="M73.0947 50.458V44.8593M81.45 50.458V37.1664M89.8053 50.458V41.4402M98.1606 50.458V33.7473" stroke="#2B2727" stroke-width="3" stroke-linecap="round" stroke-linejoin="round"/>
<rect x="17.5" y="68.6699" width="93.0862" height="34.5989" rx="6.5" fill="#F9FAFC" stroke="#2B2727" stroke-width="3" stroke-linecap="round" stroke-linejoin="round"/>
<path d="M24.3553 94.5143L34.1032 82.8209L44.0405 93.6148L54.2953 88.5327L64.9956 90.9164L70.0757 82.8209L82.7758 90.0169L92.5905 80.842L103.731 79.2229" stroke="#2B2727" stroke-width="3" stroke-linecap="round" stroke-linejoin="round"/>
<path d="M34.1032 25.3921C24.8742 25.3921 17.3926 33.0759 17.3926 42.5545C17.3926 47.624 19.5327 52.1801 22.9357 55.3218C23.3591 55.7127 23.5708 55.9082 24.3496 56.356C24.8458 56.6413 26.0051 57.0946 26.5632 57.2216C27.4392 57.4208 28.0472 57.4208 29.2634 57.4208H38.9431C40.1592 57.4208 40.7673 57.4208 41.6433 57.2216C42.2014 57.0946 43.3606 56.6413 43.8568 56.356C44.6356 55.9082 44.8473 55.7127 45.2707 55.3218C48.6737 52.1801 50.8139 47.624 50.8139 42.5545C50.8139 33.0759 43.3323 25.3921 34.1032 25.3921Z" fill="#F9FAFC"/>
<path d="M25.7479 57.4208C20.7531 54.4534 17.3926 48.907 17.3926 42.5545C17.3926 33.0759 24.8742 25.3921 34.1032 25.3921C43.3323 25.3921 50.8139 33.0759 50.8139 42.5545C50.8139 48.907 47.4534 54.4534 42.4585 57.4208" stroke="#2B2727" stroke-width="3" stroke-linecap="round" stroke-linejoin="round"/>
<path d="M34.1032 43.4956L25.7479 37.9254" stroke="#2B2727" stroke-width="3" stroke-linecap="round"/>
</svg>
