<svg width="128" height="128" viewBox="0 0 128 128" fill="none" xmlns="http://www.w3.org/2000/svg">
<path d="M11 31.1172V83.6172C11 88.4497 14.426 92.3672 18.6522 92.3672H51.5L69 22.3672H18.6522C14.426 22.3672 11 26.2847 11 31.1172Z" fill="#F9FAFC"/>
<path d="M69 22.3672H18.6522C14.426 22.3672 11 26.2847 11 31.1172V83.6172C11 88.4497 14.426 92.3672 18.6522 92.3672H51.5" stroke="#2B2727" stroke-width="3" stroke-linecap="round" stroke-linejoin="round"/>
<g clip-path="url(#clip0_64_25279)">
<path d="M25.9983 33.8081C24.9512 33.8081 24.0785 34.5484 23.8672 35.5333C23.8464 35.6303 23.8308 35.7291 23.8225 35.83C23.8151 35.9197 23.8885 35.9928 23.9783 35.9928H24.5727C24.6625 35.9928 24.7343 35.9195 24.7464 35.8303C24.7604 35.7269 24.7872 35.6276 24.8241 35.5333C25.008 35.0627 25.463 34.7287 25.9983 34.7287C26.696 34.7287 27.2612 35.2945 27.2613 35.9928C27.2613 36.6912 26.696 37.257 25.9983 37.257H20.7184C20.614 37.257 20.5365 37.3542 20.5631 37.4554C20.6186 37.6672 20.6853 37.8744 20.7643 38.0756C20.7883 38.1368 20.8477 38.1761 20.9132 38.1761H25.9983C27.2033 38.1761 28.1795 37.199 28.1795 35.9928C28.1795 34.7867 27.2033 33.8081 25.9983 33.8081Z" fill="#2B2727"/>
<path d="M25.9983 32.0844C23.9976 32.0844 22.35 33.5919 22.1222 35.5333C22.1107 35.6313 22.1021 35.73 22.0975 35.8298C22.0933 35.9198 22.1665 35.9928 22.2563 35.9928H22.8492C22.9391 35.9928 23.0115 35.9198 23.0172 35.8299C23.0236 35.7297 23.0354 35.631 23.0505 35.5333C23.2719 34.1015 24.5059 33.0035 25.9983 33.0035C27.6473 33.0035 28.9833 34.3423 28.9833 35.9928C28.9833 37.6434 27.6473 38.9807 25.9983 38.9807H21.5189C21.3912 38.9807 21.3141 39.1211 21.3872 39.2261C21.5405 39.4463 21.7089 39.6553 21.8915 39.8508C21.9217 39.8833 21.9642 39.9013 22.0085 39.9013H25.9983C28.1547 39.9013 29.903 38.1513 29.9029 35.9928C29.9029 33.8344 28.1547 32.0844 25.9983 32.0844Z" fill="#2B2727"/>
<path d="M25.9983 30.375C24.2502 30.375 22.6881 31.1719 21.656 32.4237C21.545 32.5583 21.4396 32.6985 21.3413 32.8432C21.3349 32.8527 21.3291 32.8623 21.3227 32.8718C21.2342 33.0038 21.1526 33.1403 21.0753 33.2799C21.0617 33.3045 21.047 33.328 21.0338 33.3529C20.9662 33.4794 20.9059 33.6102 20.8479 33.7423C20.8307 33.7816 20.8127 33.8213 20.7964 33.8611C20.7514 33.9701 20.7115 34.0809 20.6734 34.1932C20.6493 34.2647 20.6245 34.3367 20.6033 34.4094C20.5806 34.4864 20.5627 34.5646 20.5432 34.6428C20.5172 34.7487 20.4903 34.8539 20.4703 34.962C20.4611 35.0108 20.4567 35.0617 20.4488 35.1109C20.4273 35.2475 20.4074 35.385 20.3959 35.5247C20.3957 35.5276 20.3947 35.5303 20.3945 35.5333C20.3865 35.6317 20.3793 35.7304 20.3751 35.8298C20.3714 35.9198 20.4444 35.9928 20.5342 35.9928H21.1272C21.217 35.9928 21.2896 35.9198 21.2928 35.8298C21.2964 35.7302 21.3032 35.6316 21.3127 35.5333C21.5439 33.1466 23.5532 31.2798 25.9983 31.2798C28.5986 31.2798 30.7068 33.39 30.7068 35.9928C30.7068 38.5957 28.5986 40.7059 25.9983 40.7059H23.4403C23.279 40.7059 23.2219 40.9068 23.3645 40.9824C24.0707 41.3563 24.8664 41.5822 25.7108 41.625H25.9983C28.9118 41.625 31.3068 39.4086 31.595 36.5684C31.6137 36.3838 31.6245 36.1967 31.625 36.0072C31.625 35.8127 31.6142 35.6195 31.595 35.4302C31.3068 32.59 28.9118 30.375 25.9983 30.375Z" fill="#2B2727"/>
</g>
<path d="M43.2596 36.3672H55.3173M63.3558 36.3672H65.3943" stroke="#2B2727" stroke-width="2" stroke-linecap="round"/>
<path d="M63.5 44H27.4C25.1598 44 24.0397 44 23.184 44.436C22.4314 44.8195 21.8195 45.4314 21.436 46.184C21 47.0397 21 48.1598 21 50.4V53.6C21 55.8402 21 56.9603 21.436 57.816C21.8195 58.5686 22.4314 59.1805 23.184 59.564C24.0397 60 25.1598 60 27.4 60H59.5M58.5 64H52.4C50.1598 64 49.0397 64 48.184 64.436C47.4314 64.8195 46.8195 65.4314 46.436 66.184C46 67.0397 46 68.1598 46 70.4V75.6C46 77.8402 46 78.9603 46.436 79.816C46.8195 80.5686 47.4314 81.1805 48.184 81.564C49.0397 82 50.1598 82 52.4 82H54M27.4 82H35.6C37.8402 82 38.9603 82 39.816 81.564C40.5686 81.1805 41.1805 80.5686 41.564 79.816C42 78.9603 42 77.8402 42 75.6V70.4C42 68.1598 42 67.0397 41.564 66.184C41.1805 65.4314 40.5686 64.8195 39.816 64.436C38.9603 64 37.8402 64 35.6 64H27.4C25.1598 64 24.0397 64 23.184 64.436C22.4314 64.8195 21.8195 65.4314 21.436 66.184C21 67.0397 21 68.1598 21 70.4V75.6C21 77.8402 21 78.9603 21.436 79.816C21.8195 80.5686 22.4314 81.1805 23.184 81.564C24.0397 82 25.1598 82 27.4 82Z" stroke="#2B2727" stroke-width="2" stroke-linecap="round" stroke-linejoin="round"/>
<path d="M113 43.25V92.75C113 97.3063 109.73 101 105.696 101H59.5909L75.2955 35H105.696C109.73 35 113 38.6937 113 43.25Z" fill="#F9FAFC"/>
<path d="M75.2955 35H105.696C109.73 35 113 38.6937 113 43.25V92.75C113 97.3063 109.73 101 105.696 101H59.5909" stroke="#2B2727" stroke-width="3" stroke-linecap="round" stroke-linejoin="round"/>
<path d="M79.3558 47.3672H87.3943M95.4327 47.3672H103.471" stroke="#2B2727" stroke-width="2" stroke-linecap="round"/>
<path d="M70.2692 55H96.9282C99.0535 55 100.116 55 100.928 55.4103C101.642 55.7713 102.223 56.3472 102.586 57.0556C103 57.8609 103 58.9151 103 61.0235V64.9765C103 67.0849 103 68.1391 102.586 68.9444C102.223 69.6528 101.642 70.2287 100.928 70.5897C100.116 71 99.0535 71 96.9282 71H66" stroke="#2B2727" stroke-width="2" stroke-linecap="round" stroke-linejoin="round"/>
<path d="M61.4251 92.587C62.2559 93 63.3436 93 65.5188 93H73.4812C75.6564 93 76.7441 93 77.5749 92.587C78.3058 92.2237 78.8999 91.6439 79.2723 90.9309C79.6957 90.1203 79.6957 89.0591 79.6957 86.9368V81.0632C79.6957 78.9409 79.6957 77.8797 79.2723 77.0691C78.8999 76.3561 78.3058 75.7763 77.5749 75.413C76.7441 75 75.6564 75 73.4812 75H65.5188M88.8232 93H96.7855C98.9608 93 100.048 93 100.879 92.587C101.61 92.2237 102.204 91.6439 102.577 90.9309C103 90.1203 103 89.0591 103 86.9368V81.0632C103 78.9409 103 77.8797 102.577 77.0691C102.204 76.3561 101.61 75.7763 100.879 75.413C100.048 75 98.9608 75 96.7855 75H88.8232C86.6479 75 85.5603 75 84.7294 75.413C83.9986 75.7763 83.4044 76.3561 83.032 77.0691C82.6087 77.8797 82.6087 78.9409 82.6087 81.0632V86.9368C82.6087 89.0591 82.6087 90.1203 83.032 90.9309C83.4044 91.6439 83.9986 92.2237 84.7294 92.587C85.5603 93 86.6479 93 88.8232 93Z" stroke="#2B2727" stroke-width="2" stroke-linecap="round" stroke-linejoin="round"/>
<path d="M52 112L77 8.00001" stroke="#2B2727" stroke-width="3" stroke-linecap="round"/>
<defs>
<clipPath id="clip0_64_25279">
<rect width="12" height="12" fill="white" transform="translate(20 30)"/>
</clipPath>
</defs>
</svg>
