<svg width="128" height="128" viewBox="0 0 128 128" fill="none" xmlns="http://www.w3.org/2000/svg">
<path d="M11 31.1172V83.6172C11 88.4497 14.426 92.3672 18.6522 92.3672H51.5L69 22.3672H18.6522C14.426 22.3672 11 26.2847 11 31.1172Z" fill="#F9FAFC"/>
<path d="M69 22.3672H18.6522C14.426 22.3672 11 26.2847 11 31.1172V83.6172C11 88.4497 14.426 92.3672 18.6522 92.3672H51.5" stroke="#2B2727" stroke-width="3" stroke-linecap="round" stroke-linejoin="round"/>
<g clip-path="url(#clip0_64_25279)">
<rect width="12" height="12" transform="translate(20 30)" fill="#F9FAFC"/>
<path d="M25.9983 32.0844C23.9976 32.0844 22.35 33.5919 22.1222 35.5333C22.1107 35.6313 22.1021 35.73 22.0975 35.8298C22.0933 35.9198 22.1665 35.9928 22.2563 35.9928H22.8492C22.9391 35.9928 23.0115 35.9198 23.0172 35.8299C23.0236 35.7297 23.0354 35.631 23.0505 35.5333C23.2719 34.1015 24.5059 33.0035 25.9983 33.0035C27.6473 33.0035 28.9833 34.3423 28.9833 35.9928C28.9833 37.6434 27.6473 38.9807 25.9983 38.9807H21.5189C21.3912 38.9807 21.3141 39.1211 21.3872 39.2261C21.5405 39.4463 21.7089 39.6553 21.8915 39.8508C21.9217 39.8833 21.9642 39.9013 22.0085 39.9013H25.9983C28.1547 39.9013 29.903 38.1513 29.9029 35.9928C29.9029 33.8344 28.1547 32.0844 25.9983 32.0844Z" fill="#2B2727"/>
<path d="M25.9983 30.375C24.2502 30.375 22.6881 31.1719 21.656 32.4237C20.9366 33.2961 20.4887 34.3973 20.3959 35.5247C20.3957 35.5276 20.3947 35.5303 20.3945 35.5333C20.3865 35.6317 20.3793 35.7304 20.3751 35.8298C20.3714 35.9198 20.4444 35.9928 20.5342 35.9928H21.1272C21.217 35.9928 21.2896 35.9198 21.2928 35.8298C21.2964 35.7302 21.3032 35.6316 21.3127 35.5333C21.5439 33.1466 23.5532 31.2798 25.9983 31.2798C28.5986 31.2798 30.7068 33.39 30.7068 35.9928C30.7068 38.5957 28.5986 40.7059 25.9983 40.7059H23.4403C23.279 40.7059 23.2219 40.9068 23.3645 40.9824C24.0707 41.3563 24.8664 41.5822 25.7108 41.625H25.9983C28.9118 41.625 31.3068 39.4086 31.595 36.5684C31.6137 36.3838 31.6245 36.1967 31.625 36.0072C31.625 35.8127 31.6142 35.6195 31.595 35.4302C31.3068 32.59 28.9118 30.375 25.9983 30.375Z" fill="#2B2727"/>
<path d="M25.9983 33.8081C24.9512 33.8081 24.0785 34.5484 23.8672 35.5333C23.8464 35.6303 23.8308 35.7291 23.8225 35.83C23.8151 35.9197 23.8885 35.9928 23.9783 35.9928H24.5727C24.6625 35.9928 24.7343 35.9195 24.7464 35.8303C24.7604 35.7269 24.7872 35.6276 24.8241 35.5333C25.008 35.0627 25.463 34.7287 25.9983 34.7287C26.696 34.7287 27.2612 35.2945 27.2613 35.9928C27.2613 36.6912 26.696 37.257 25.9983 37.257H21.46C21.4253 37.1298 21.393 36.9974 21.3565 36.8706C21.3309 36.7816 21.251 36.7201 21.1698 36.7201H20.5819C20.5017 36.7201 20.43 36.8137 20.4455 36.9024C20.5199 37.2994 20.6088 37.7145 20.7693 38.0867C20.7943 38.1449 20.8557 38.1761 20.9132 38.1761H25.9983C27.2033 38.1761 28.1795 37.199 28.1795 35.9928C28.1795 34.7867 27.2033 33.8081 25.9983 33.8081Z" fill="#2B2727"/>
</g>
<path d="M43.2596 36.3672H55.3173M63.3558 36.3672H65.3943" stroke="#2B2727" stroke-width="2" stroke-linecap="round"/>
<path d="M21 70.4C21 68.1598 21 67.0397 21.436 66.184C21.8195 65.4314 22.4314 64.8195 23.184 64.436C24.0397 64 25.1598 64 27.4 64H35.6C37.8402 64 38.9603 64 39.816 64.436C40.5686 64.8195 41.1805 65.4314 41.564 66.184C42 67.0397 42 68.1598 42 70.4V75.6C42 77.8402 42 78.9603 41.564 79.816C41.1805 80.5686 40.5686 81.1805 39.816 81.564C38.9603 82 37.8402 82 35.6 82H27.4C25.1598 82 24.0397 82 23.184 81.564C22.4314 81.1805 21.8195 80.5686 21.436 79.816C21 78.9603 21 77.8402 21 75.6V70.4Z" fill="#F9FAFC"/>
<path d="M63.5 44H27.4C25.1598 44 24.0397 44 23.184 44.436C22.4314 44.8195 21.8195 45.4314 21.436 46.184C21 47.0397 21 48.1598 21 50.4V53.6C21 55.8402 21 56.9603 21.436 57.816C21.8195 58.5686 22.4314 59.1805 23.184 59.564C24.0397 60 25.1598 60 27.4 60H59.5M58.5 64H52.4C50.1598 64 49.0397 64 48.184 64.436C47.4314 64.8195 46.8195 65.4314 46.436 66.184C46 67.0397 46 68.1598 46 70.4V75.6C46 77.8402 46 78.9603 46.436 79.816C46.8195 80.5686 47.4314 81.1805 48.184 81.564C49.0397 82 50.1598 82 52.4 82H54M27.4 82H35.6C37.8402 82 38.9603 82 39.816 81.564C40.5686 81.1805 41.1805 80.5686 41.564 79.816C42 78.9603 42 77.8402 42 75.6V70.4C42 68.1598 42 67.0397 41.564 66.184C41.1805 65.4314 40.5686 64.8195 39.816 64.436C38.9603 64 37.8402 64 35.6 64H27.4C25.1598 64 24.0397 64 23.184 64.436C22.4314 64.8195 21.8195 65.4314 21.436 66.184C21 67.0397 21 68.1598 21 70.4V75.6C21 77.8402 21 78.9603 21.436 79.816C21.8195 80.5686 22.4314 81.1805 23.184 81.564C24.0397 82 25.1598 82 27.4 82Z" stroke="#2B2727" stroke-width="2" stroke-linecap="round" stroke-linejoin="round"/>
<path d="M113 43.25V92.75C113 97.3064 109.73 101 105.696 101H59.5909L75.2955 35H105.696C109.73 35 113 38.6937 113 43.25Z" fill="#F9FAFC"/>
<path d="M75.2955 35H105.696C109.73 35 113 38.6937 113 43.25V92.75C113 97.3063 109.73 101 105.696 101H59.5909" stroke="#2B2727" stroke-width="3" stroke-linecap="round" stroke-linejoin="round"/>
<path d="M79.3558 47.3672H87.3943M95.4328 47.3672H103.471" stroke="#2B2727" stroke-width="2" stroke-linecap="round"/>
<path d="M70.2692 55H96.9282C99.0535 55 100.116 55 100.928 55.4103C101.642 55.7713 102.223 56.3472 102.586 57.0556C103 57.8609 103 58.9151 103 61.0235V64.9765C103 67.0849 103 68.1391 102.586 68.9444C102.223 69.6528 101.642 70.2287 100.928 70.5897C100.116 71 99.0535 71 96.9282 71H66" stroke="#2B2727" stroke-width="2" stroke-linecap="round" stroke-linejoin="round"/>
<path d="M82.6088 81.0632C82.6088 78.9409 82.6088 77.8797 83.0321 77.0691C83.4045 76.3561 83.9987 75.7763 84.7295 75.413C85.5604 75 86.648 75 88.8233 75H96.7856C98.9609 75 100.049 75 100.879 75.413C101.61 75.7763 102.204 76.3561 102.577 77.0691C103 77.8797 103 78.9409 103 81.0632V86.9368C103 89.0591 103 90.1203 102.577 90.9309C102.204 91.6439 101.61 92.2237 100.879 92.587C100.049 93 98.9609 93 96.7856 93H88.8233C86.648 93 85.5604 93 84.7295 92.587C83.9987 92.2237 83.4045 91.6439 83.0321 90.9309C82.6088 90.1203 82.6088 89.0591 82.6088 86.9368V81.0632Z" fill="#F9FAFC"/>
<path d="M61.4252 92.587C62.256 93 63.3437 93 65.5189 93H73.4812C75.6565 93 76.7442 93 77.575 92.587C78.3058 92.2237 78.9 91.6439 79.2724 90.9309C79.6957 90.1203 79.6957 89.0591 79.6957 86.9368V81.0632C79.6957 78.9409 79.6957 77.8797 79.2724 77.0691C78.9 76.3561 78.3058 75.7763 77.575 75.413C76.7442 75 75.6565 75 73.4812 75H65.5189M88.8233 93H96.7856C98.9609 93 100.049 93 100.879 92.587C101.61 92.2237 102.204 91.6439 102.577 90.9309C103 90.1203 103 89.0591 103 86.9368V81.0632C103 78.9409 103 77.8797 102.577 77.0691C102.204 76.3561 101.61 75.7763 100.879 75.413C100.049 75 98.9609 75 96.7856 75H88.8233C86.648 75 85.5604 75 84.7295 75.413C83.9987 75.7763 83.4045 76.3561 83.0321 77.0691C82.6088 77.8797 82.6088 78.9409 82.6088 81.0632V86.9368C82.6088 89.0591 82.6088 90.1203 83.0321 90.9309C83.4045 91.6439 83.9987 92.2237 84.7295 92.587C85.5604 93 86.648 93 88.8233 93Z" stroke="#2B2727" stroke-width="2" stroke-linecap="round" stroke-linejoin="round"/>
<path d="M52 112L77 8.00001" stroke="#2B2727" stroke-width="3" stroke-linecap="round"/>
<defs>
<clipPath id="clip0_64_25279">
<rect width="12" height="12" fill="white" transform="translate(20 30)"/>
</clipPath>
</defs>
</svg>
