<svg width="32" height="32" viewBox="0 0 32 32" fill="none" xmlns="http://www.w3.org/2000/svg">
<path fill-rule="evenodd" clip-rule="evenodd" d="M16 28.931C23.1416 28.931 28.931 23.1416 28.931 16C28.931 8.85839 23.1416 3.06897 16 3.06897C8.85839 3.06897 3.06897 8.85839 3.06897 16C3.06897 23.1416 8.85839 28.931 16 28.931ZM16 31C24.2843 31 31 24.2843 31 16C31 7.71573 24.2843 1 16 1C7.71573 1 1 7.71573 1 16C1 24.2843 7.71573 31 16 31Z" fill="#2B2727"/>
<path d="M17.7817 13.0971L23.0898 11.5C23.8991 11.2795 24.7311 11.7679 24.9479 12.5909C25.1648 13.4138 24.6845 14.2598 23.8751 14.4803L18.3149 16.0706V19.1466L20.6659 24.1327C21.0848 24.8706 20.8362 25.8141 20.1105 26.2401C19.3849 26.6661 18.457 26.4133 18.038 25.6754L16.1128 21.3094L13.6337 25.6754C13.2148 26.4133 12.2869 26.6661 11.5612 26.2401C10.8356 25.8141 10.5869 24.8706 11.0059 24.1327L13.7633 19.1466L13.7634 16.0227L8.12488 14.5619C7.31552 14.3414 6.83521 13.4955 7.05207 12.6725C7.26894 11.8495 8.10087 11.3611 8.91023 11.5816L14.5059 13.0971H17.7817Z" fill="#2B2727"/>
<path d="M19 8.58164C19 10.2385 17.6569 11.5816 16 11.5816C14.3431 11.5816 13 10.2385 13 8.58164C13 6.92478 14.3431 5.58164 16 5.58164C17.6569 5.58164 19 6.92478 19 8.58164Z" fill="#2B2727"/>
</svg>
