<svg width="32" height="32" viewBox="0 0 32 32" fill="none" xmlns="http://www.w3.org/2000/svg">
<path d="M15.9955 10.155C13.2032 10.155 10.8761 12.129 10.3125 14.7554C10.257 15.014 10.2155 15.2775 10.1933 15.5466C10.1736 15.7859 10.3694 15.9809 10.6089 15.9809H12.1939C12.4334 15.9809 12.6247 15.7854 12.6569 15.5474C12.6943 15.2717 12.7659 15.0069 12.8642 14.7554C13.3547 13.5005 14.5679 12.6098 15.9955 12.6099C17.8559 12.6099 19.3632 14.1187 19.3634 15.9809C19.3634 17.8431 17.8559 19.3519 15.9955 19.352H1.91574C1.63737 19.352 1.43078 19.6112 1.50151 19.8811C1.64953 20.4459 1.82743 20.9985 2.03801 21.5349C2.10204 21.698 2.26041 21.8031 2.4353 21.8031H15.9955C19.2088 21.8031 21.8119 19.1974 21.8119 15.9809C21.8119 12.7644 19.2088 10.155 15.9955 10.155Z" fill="url(#paint0_angular_554_46945)"/>
<path d="M15.9955 5.55846C10.6603 5.55846 6.26662 9.57841 5.6593 14.7554C5.62865 15.0169 5.60565 15.2801 5.59328 15.5463C5.58214 15.7861 5.77722 15.9809 6.01678 15.9809H7.59796C7.83752 15.9809 8.0306 15.786 8.0459 15.5464C8.06295 15.2792 8.0944 15.016 8.13473 14.7554C8.72508 10.9374 12.0157 8.0094 15.9955 8.0094C20.3927 8.0094 23.9555 11.5794 23.9555 15.9809C23.9555 20.3825 20.3927 23.9486 15.9955 23.9486H4.05049C3.70982 23.9486 3.50431 24.3229 3.69927 24.6029C4.10813 25.1902 4.55719 25.7475 5.04391 26.2689C5.12462 26.3554 5.23788 26.4034 5.356 26.4034H15.9955C21.7458 26.4034 26.408 21.7368 26.4079 15.9809C26.4079 10.225 21.7458 5.55846 15.9955 5.55846Z" fill="url(#paint1_angular_554_46945)"/>
<path d="M15.9955 1C11.3339 1 7.16821 3.12512 4.41598 6.46324C4.12 6.82217 3.83892 7.19613 3.57688 7.58181C3.55967 7.6071 3.54429 7.63288 3.52733 7.65817C3.29128 8.01001 3.07354 8.3742 2.8674 8.74632C2.83127 8.81192 2.79197 8.87472 2.75682 8.94094C2.57643 9.27836 2.41581 9.62728 2.26105 9.97937C2.21529 10.0843 2.16708 10.1901 2.12375 10.2963C2.00377 10.587 1.89747 10.8824 1.79568 11.182C1.73148 11.3726 1.66545 11.5645 1.60882 11.7585C1.54828 11.9636 1.50056 12.1722 1.44857 12.3808C1.37912 12.6632 1.30735 12.9437 1.25414 13.2321C1.22973 13.3622 1.21789 13.4979 1.1969 13.6291C1.13953 13.9933 1.08644 14.3601 1.05581 14.7326C1.05508 14.7403 1.05251 14.7476 1.0519 14.7554C1.03071 15.018 1.01136 15.281 1.00037 15.5462C0.990417 15.7861 1.18508 15.9809 1.42464 15.9809H3.00581C3.24537 15.9809 3.43881 15.7862 3.44749 15.5462C3.45709 15.2806 3.4752 15.0175 3.5006 14.7554C4.1172 8.39081 9.47521 3.41282 15.9955 3.41282C22.9297 3.41282 28.5514 9.04001 28.5514 15.9809C28.5514 22.9219 22.9297 28.5491 15.9955 28.5489H9.17413C8.744 28.5489 8.59168 29.0849 8.97199 29.2863C10.8551 30.2836 12.9771 30.886 15.2289 31H15.9955C23.7647 31 30.1515 25.0895 30.9199 17.5157C30.9699 17.0233 30.9988 16.5244 31 16.0191C31 15.5006 30.9712 14.9855 30.9199 14.4805C30.1515 6.90671 23.7647 1 15.9955 1Z" fill="url(#paint2_angular_554_46945)"/>
<defs>
<radialGradient id="paint0_angular_554_46945" cx="0" cy="0" r="1" gradientUnits="userSpaceOnUse" gradientTransform="translate(16.1725 16.2174) rotate(89.1835) scale(15.2189 15.1832)">
<stop offset="0.243627" stop-color="#003DAE"/>
<stop offset="0.251613" stop-color="#00FD6A"/>
<stop offset="0.506744" stop-color="#0096E1"/>
<stop offset="0.751688" stop-color="#0057F2"/>
<stop offset="0.999853" stop-color="#004BD0"/>
</radialGradient>
<radialGradient id="paint1_angular_554_46945" cx="0" cy="0" r="1" gradientUnits="userSpaceOnUse" gradientTransform="translate(16.1725 16.2174) rotate(89.1835) scale(15.2189 15.1832)">
<stop offset="0.243627" stop-color="#003DAE"/>
<stop offset="0.251613" stop-color="#00FD6A"/>
<stop offset="0.506744" stop-color="#0096E1"/>
<stop offset="0.751688" stop-color="#0057F2"/>
<stop offset="0.999853" stop-color="#004BD0"/>
</radialGradient>
<radialGradient id="paint2_angular_554_46945" cx="0" cy="0" r="1" gradientUnits="userSpaceOnUse" gradientTransform="translate(16.1725 16.2174) rotate(89.1835) scale(15.2189 15.1832)">
<stop offset="0.243627" stop-color="#003DAE"/>
<stop offset="0.251613" stop-color="#00FD6A"/>
<stop offset="0.506744" stop-color="#0096E1"/>
<stop offset="0.751688" stop-color="#0057F2"/>
<stop offset="0.999853" stop-color="#004BD0"/>
</radialGradient>
</defs>
</svg>
