<svg width="186" height="150" viewBox="0 0 186 150" fill="none" xmlns="http://www.w3.org/2000/svg">
<path fill-rule="evenodd" clip-rule="evenodd" d="M96.0128 71.8108C98.16 67.2702 99.947 63.0578 103.175 61.1203C103.366 61.0063 103.558 60.906 103.749 60.8103C101.429 60.7556 99.0672 61.3391 96.9336 62.6247C94.9597 63.81 93.4233 65.4512 92.3793 67.3294C91.5952 68.7791 90.8932 70.2699 90.1911 71.7652C92.1332 71.6649 94.0707 71.7242 96.0128 71.8108Z" fill="#9ECA43"/>
<path fill-rule="evenodd" clip-rule="evenodd" d="M93.3231 77.0083C98.2512 77.2545 104.447 77.5873 109.352 74.6377C116.705 70.2202 115.625 61.4536 120.366 57.2047C111.435 56.1015 113.186 66.719 107.1 70.3707C104.004 72.2307 100.289 71.9977 96.0128 71.8108C95.99 71.8108 95.9626 71.8113 95.9398 71.8067C94.0206 71.7246 92.1104 71.6649 90.1911 71.7652C89.138 74.0036 88.2172 75.9507 87.2051 77.1269C88.7141 76.785 90.8613 76.8853 93.3231 77.0083Z" fill="#72BB38"/>
<path fill-rule="evenodd" clip-rule="evenodd" d="M124.36 54.8886C122.212 59.4292 120.425 63.6416 117.198 65.5791C117.006 65.6931 116.815 65.7934 116.623 65.8891C118.944 65.9438 121.305 65.3603 123.439 64.0747C125.413 62.8894 126.949 61.2482 127.993 59.37C128.777 57.9203 129.479 56.4295 130.181 54.9342C128.239 55.0345 126.302 54.9752 124.36 54.8886Z" fill="#82C8EF"/>
<path fill-rule="evenodd" clip-rule="evenodd" d="M127.054 49.6962C122.126 49.4501 115.93 49.1173 111.025 52.0668C103.672 56.4844 104.752 65.251 100.011 69.4999C108.942 70.6031 107.191 59.9856 113.277 56.3339C116.373 54.4739 120.088 54.7064 124.364 54.8933C124.387 54.8933 124.414 54.8933 124.437 54.8979C126.356 54.9799 128.267 55.0392 130.186 54.9389C131.239 52.7005 132.16 50.7539 133.172 49.5777C131.663 49.9196 129.516 49.8193 127.054 49.6962Z" fill="#40A3DC"/>
<path fill-rule="evenodd" clip-rule="evenodd" d="M3.88987 96.7834L4.50467 94.6579H8.35151L8.94873 96.7834H11.6363L8.10559 84.3119C8.01776 84.0133 7.75428 83.82 7.45567 83.82C6.64766 83.82 5.82208 83.82 5.01407 83.82L5.11946 84.1889C5.18972 84.4524 5.18972 84.6807 5.11946 84.9442L1.65906 96.7834H3.88987ZM57.6403 89.3532C56.8323 88.4573 53.7934 88.1587 53.7934 89.4761C53.7934 90.9341 58.1848 90.249 58.2375 93.7621C58.2902 97.486 53.003 97.6616 51.2113 95.9753L51.1235 93.5513C52.2477 95.1673 55.6554 95.4835 55.6554 93.9553C55.6554 92.392 51.141 92.919 51.141 89.5639C51.141 87.5615 52.7219 86.771 54.4258 86.6481C55.6554 86.5602 56.9552 86.7886 57.6403 87.3683C58.2551 87.8777 57.8862 88.7911 57.6403 89.3707V89.3532ZM71.4292 96.8536H74.0991V92.4622L74.9774 92.4974C77.9987 92.6379 79.562 91.2854 79.562 88.106C79.562 85.6293 78.3675 83.7673 75.803 83.7673C74.2396 83.7673 72.6939 83.7673 71.1306 83.7673L71.2535 84.0659C71.3589 84.3294 71.4116 84.5753 71.4116 84.8564V96.8361L71.4292 96.8536ZM74.0991 90.4247V85.9279H75.1004C76.2948 85.9279 76.8393 86.894 76.8393 88.1763C76.8393 90.2841 76.1016 90.53 74.5734 90.4598L74.0816 90.4071L74.0991 90.4247ZM88.7487 86.7886V95.9051C88.7487 96.151 88.8014 96.3442 88.9244 96.555L89.0649 96.8185H87.7124C87.1678 96.8185 86.6936 96.4847 86.4652 96.028C86.0261 96.4847 85.3586 96.8888 84.2344 96.8888C81.1605 96.8888 80.9145 94.6579 80.9145 92.269V87.7723C80.9145 87.3683 80.7389 87.1048 80.5632 86.771C81.0902 86.771 81.6347 86.771 82.1617 86.771C82.8116 86.771 83.3561 87.3156 83.3561 87.9655V92.4096C83.3561 93.3757 83.3737 94.7985 84.7789 94.7985C86.1666 94.7985 86.3247 93.8675 86.3247 92.796V86.7886H88.7487ZM91.0147 96.8536H93.386V91.3381C94.0184 89.9153 95.3007 88.5276 96.6005 89.7396C98.3571 85.559 95.0372 86.2968 93.386 88.7911V87.825C93.386 87.2629 92.9293 86.8062 92.3672 86.8062C91.7876 86.8062 91.1903 86.8062 90.6107 86.8062L90.8215 87.1399C90.962 87.3683 91.0323 87.5966 91.0323 87.8601V96.8536H91.0147ZM105.594 87.0169L105.102 87.0872C104.821 87.1223 104.558 87.1223 104.277 87.0345C103.451 86.8062 102.151 86.5427 101.168 86.6305C99.6218 86.771 97.4788 88.3695 97.4788 91.865C97.4788 95.7646 99.2705 96.9414 100.693 96.9414C102.116 96.9414 102.555 96.4847 103.082 96.0456C103.451 96.6955 103.75 96.8361 104.4 96.8361H105.945C105.559 96.4672 105.594 95.8524 105.594 95.4308C105.594 91.5313 105.594 87.0169 105.594 87.0169ZM103.029 89.1072V93.5162C102.836 94.0958 102.485 94.6228 101.835 94.7809C100.078 95.2025 100.061 92.7784 100.061 91.6542C100.061 89.6342 100.57 88.5978 101.782 88.5978C102.344 88.5978 102.731 88.8086 103.012 89.1248L103.029 89.1072ZM67.7229 87.0169L67.231 87.0872C66.95 87.1223 66.6865 87.1223 66.4054 87.0345C65.5799 86.8062 64.28 86.5427 63.2964 86.6305C61.7506 86.771 59.6076 88.3695 59.6076 91.865C59.6076 95.7646 61.3993 96.9414 62.8221 96.9414C64.2449 96.9414 64.684 96.4847 65.1934 96.0456C65.5623 96.6955 65.8609 96.8361 66.5108 96.8361H68.0566C67.6702 96.4672 67.7053 95.8524 67.7053 95.4308C67.7053 91.5313 67.7053 87.0169 67.7053 87.0169H67.7229ZM65.1583 89.1072V93.5162C64.9651 94.0958 64.6138 94.6228 63.9638 94.7809C62.2073 95.2025 62.1897 92.7784 62.1897 91.6542C62.1897 89.6342 62.6991 88.5978 63.9111 88.5978C64.4732 88.5978 64.8597 88.8086 65.1407 89.1248L65.1583 89.1072ZM49.244 87.0169L48.7521 87.0872C48.4711 87.1223 48.2076 87.1223 47.9266 87.0345C47.101 86.8062 45.8011 86.5427 44.8175 86.6305C43.2717 86.771 41.1287 88.3695 41.1287 91.865C41.1287 95.7646 42.9204 96.9414 44.3432 96.9414C45.766 96.9414 46.2051 96.4847 46.7145 96.0456C47.0834 96.6955 47.382 96.8361 48.0319 96.8361H49.5777C49.1913 96.4672 49.2264 95.8524 49.2264 95.4308C49.2264 91.5313 49.2264 87.0169 49.2264 87.0169H49.244ZM46.6794 89.1072V93.5162C46.4862 94.0958 46.1349 94.6228 45.4849 94.7809C43.7284 95.2025 43.7108 92.7784 43.7108 91.6542C43.7108 89.6342 44.2202 88.5978 45.4323 88.5978C45.9943 88.5978 46.3808 88.8086 46.6618 89.1248L46.6794 89.1072ZM32.9081 96.8536H35.3848V91.988C35.8415 92.8311 36.913 94.7633 37.4575 95.6943C38.0547 96.7131 38.5114 96.8536 39.5478 96.8536H41.2868C40.672 96.555 40.0221 95.624 39.6532 94.939L37.7034 91.3381L40.549 86.8062H38.1601L35.3848 91.2327V84.9267C35.3848 84.3646 34.9281 83.9079 34.366 83.9079C33.7512 83.9079 33.1364 83.9079 32.5216 83.9079L32.6797 84.1713C32.8202 84.3997 32.8905 84.6456 32.8905 84.9091V96.8712L32.9081 96.8536ZM30.7651 87.0345L30.2732 87.1048C29.9922 87.1399 29.7287 87.1399 29.4477 87.0521C28.6221 86.8237 27.3222 86.5602 26.3386 86.6481C24.7928 86.7886 22.6498 88.3871 22.6498 91.8826C22.6498 95.3957 23.9672 97.0468 25.9873 97.0468C26.9709 97.0468 27.6911 96.7131 28.2005 96.2564V96.6604C28.2005 99.2425 24.9685 98.6102 23.5457 97.5562V99.7519C24.6874 100.455 26.848 100.613 27.8843 100.314C30.0625 99.6817 30.7475 98.698 30.7475 95.4484C30.7475 91.5488 30.7475 87.0345 30.7475 87.0345H30.7651ZM28.2005 89.1248V93.5337C28.0073 94.1134 27.656 94.6404 27.0061 94.7985C25.2495 95.22 25.2319 92.796 25.2319 91.6718C25.2319 89.6518 25.7413 88.6154 26.9534 88.6154C27.5155 88.6154 27.9019 88.8262 28.1829 89.1424L28.2005 89.1248ZM13.1293 96.8712H15.7114V91.0746C15.7114 89.1248 18.4341 88.3695 18.4341 90.9516V96.1686C18.4341 96.5374 18.7327 96.8536 19.1192 96.8536H20.9987V89.8977C20.9987 85.9455 17.9071 86.0508 15.7114 87.9831V87.8601C15.7114 87.298 15.2547 86.8413 14.6926 86.8413C14.0779 86.8413 13.4631 86.8413 12.8307 86.8413L12.9888 87.1399C13.0942 87.3331 13.1293 87.5263 13.1293 87.7547V96.8712ZM5.08433 92.673L6.43687 88.0182L7.75428 92.673H5.08433Z" fill="#0362AE"/>
<path fill-rule="evenodd" clip-rule="evenodd" d="M114.676 83.4859C114.957 85.1898 115.15 88.2286 115.15 91.689C115.15 95.1494 114.957 98.1883 114.676 99.8921H113.622C113.341 98.1883 113.147 95.1494 113.147 91.689C113.147 88.2286 113.341 85.1898 113.622 83.4859H114.676ZM183.708 86.7883C181.389 86.3316 177.999 86.7707 178.069 89.7744C178.157 92.9537 182.268 91.9525 182.268 94.0604C182.268 95.1143 180.722 95.7642 178.473 94.9386L178.368 96.783C180.704 97.3978 184.288 96.8357 184.34 93.8496C184.411 90.5121 179.808 91.3202 180.177 89.1596C180.406 87.8598 183.005 88.2462 183.585 88.4921L183.69 86.7883H183.708ZM174.662 88.4394V96.783H172.765V88.4394H170.147V86.8058H177.297V88.4394H174.662ZM166.792 92.3741L169.866 96.8006H167.513L164.685 92.5322V96.8006H162.77V86.7883H166.529C168.075 86.7883 169.322 88.053 169.322 89.5812C169.322 91.0215 168.215 92.216 166.81 92.3565L166.792 92.3741ZM164.667 88.334V91.2675H165.826C166.634 91.2675 167.284 90.6 167.284 89.8095C167.284 89.0015 166.617 88.3516 165.826 88.3516H164.667V88.334ZM156.569 86.6302C162.893 86.6302 162.506 97.0114 156.165 97.0114C149.842 97.0114 150.228 86.6302 156.569 86.6302ZM156.481 88.3165C160.1 88.3165 159.889 95.3427 156.253 95.3427C152.635 95.3427 152.845 88.3165 156.481 88.3165ZM144.203 86.8058H147.488C149.367 86.8058 150.738 87.9827 150.738 89.8798C150.738 91.7769 149.42 93.3051 146.715 93.3051H146.118V96.8006H144.203V86.8058ZM146.118 88.3165V91.7944H146.522C147.962 91.7944 148.682 90.9688 148.682 89.9676C148.682 88.9488 147.945 88.334 146.943 88.334H146.118V88.3165ZM139.566 92.3916L142.64 96.8182H140.286L137.458 92.5497V96.8182H135.543V86.8058H139.302C140.848 86.8058 142.095 88.0705 142.095 89.5987C142.095 91.0391 140.989 92.2336 139.583 92.3741L139.566 92.3916ZM137.44 88.3516V91.285H138.6C139.408 91.285 140.058 90.6175 140.058 89.8271C140.058 89.0191 139.39 88.3692 138.6 88.3692H137.44V88.3516ZM131.117 86.8058H133.032V96.8006H131.117V86.8058ZM120.665 96.8006H122.562L123.248 94.7454H127.077L127.779 96.8182L129.87 96.8006L126.286 86.8058H124.108L120.665 96.8006ZM123.757 93.2348L125.145 89.0366L126.567 93.2348H123.757Z" fill="#72BB38"/>
</svg>
