<svg width="186" height="150" viewBox="0 0 186 150" fill="none" xmlns="http://www.w3.org/2000/svg">
<path fill-rule="evenodd" clip-rule="evenodd" d="M58.4016 61.0804C58.3019 57.425 57.2528 55.5077 54.1992 53.7131C53.6099 53.3664 52.9292 53.0755 52.2805 52.7288C48.722 50.8282 37.6398 51.3152 33.3013 51.2994C29.4069 51.2851 25.5012 51.3027 21.6083 51.2492L13.8971 97.3938C17.909 97.4472 21.9068 97.4038 25.8802 97.4038C33.5485 97.4038 40.9647 97.9769 47.6386 95.1796C52.0589 93.327 52.0721 91.7105 54.1072 89.6132C54.5816 89.9999 54.9216 90.8899 55.3273 91.423C55.8918 92.1647 56.0682 92.3912 56.7784 93.0212C57.8738 93.9924 58.7486 94.8434 60.2975 95.6085C63.0817 96.9845 66.6945 97.8924 70.4134 97.8007C74.2576 97.7059 77.3974 97.233 80.9451 96.0276C82.9736 95.338 85.3471 94.2494 86.9547 92.8991C87.4563 92.4777 88.2138 91.7265 88.6979 91.4167L87.7505 97.3844L101.804 97.4002C103.305 90.1052 104.112 80.4179 105.441 72.7981C106.421 74.6967 107.316 76.887 108.192 78.8386L113.724 91.1989C114.621 93.2705 115.73 95.4381 116.481 97.4358L130.01 97.4378C130.727 92.3277 131.718 87.1004 132.541 82.0365C132.761 80.6873 135.059 67.5047 135.008 66.536C134.351 66.2891 123.303 66.1999 121.693 66.227L121.604 66.4262C121.573 66.5177 121.524 66.675 121.51 66.7365L121.236 68.6073C121.046 69.9301 120.392 75.3249 120.103 75.8067C119.453 74.8787 111.237 56.5949 110.159 54.2077C109.707 53.2076 109.102 51.9935 108.752 50.9953L95.5865 50.9729C94.9145 52.4581 94.8652 57.5559 94.1285 58.6985C92.8902 56.5363 93.3458 56.8865 91.3163 54.901C90.2793 53.8874 88.6872 53.092 87.0281 52.4235C83.6235 51.0527 79.2778 50.7824 75.1747 51.1184C72.663 51.3241 71.8373 51.5752 69.6642 52.2711C66.2487 53.3647 63.7317 55.0278 61.3059 57.3005C60.1834 58.3527 59.3889 59.7222 58.4016 61.0804ZM91.5003 74.7208C89.7762 72.2538 87.9465 71.2193 84.5479 69.8926C82.8809 69.242 81.836 68.9103 80.0012 68.4758C78.3067 68.0751 72.4013 67.1746 71.5397 65.1381C71.2933 64.5555 71.1009 63.2951 71.4725 62.8386C71.9426 62.2612 72.3599 62.0167 73.2535 61.7017C74.415 61.2925 77.4367 61.2262 78.704 61.5527C80.3201 61.9691 80.6486 63.3739 81.3513 64.7103L93.1261 64.9206C93.045 65.982 91.7322 74.2662 91.5003 74.7208ZM51.0199 72.4999C51.2281 72.2425 51.1156 72.3388 51.4683 72.1063C53.1511 70.9959 52.4016 71.9115 54.3457 69.6943C55.6879 68.1638 55.232 69.0619 56.3949 67.0949C56.5922 66.7609 56.7781 66.4531 57.0372 66.2263C57.0111 68.4106 56.5322 69.6623 57.5182 71.5994C59.3656 75.2285 60.6414 75.9577 64.1724 77.1445C66.9106 78.065 76.5876 80.9842 77.7761 81.8311C79.2724 82.8976 78.5206 84.9647 77.4835 85.9416C76.4708 86.895 74.4629 87.2155 72.6603 87.2223C66.9388 87.2475 67.1024 83.45 66.5787 82.619L56.2525 82.5083C56.0498 81.5634 56.3083 79.9399 56.1385 78.8179C55.4471 74.2528 52.1059 73.5748 51.0199 72.4999ZM32.9362 69.3638L34.1475 62.0889C36.411 61.9463 42.5581 61.2854 43.6671 63.1975C44.4742 64.5898 44.0297 68.8328 39.796 69.3207C38.0966 69.5167 34.7182 69.5697 32.9362 69.3638ZM31.3561 78.1175C33.021 78.0278 40.9575 77.4786 42.1861 79.2511C43.0474 80.494 43.1984 83.6193 41.0156 85.1116C38.7226 86.6793 32.6808 86.2426 30.0899 86.1865C29.9191 85.649 31.1046 79.1134 31.3561 78.1175Z" fill="#291A6B"/>
<path fill-rule="evenodd" clip-rule="evenodd" d="M129.635 108.632C130.546 108.749 136.706 107.852 137.833 107.594C144.975 105.959 151.972 103.399 157.891 99.0262C161.447 96.3992 164.784 93.4509 167.338 89.52C170.021 85.3909 171.772 81.343 172.081 75.1505C172.337 70.0204 170.287 63.5752 167.972 60.2766C166.06 57.5529 163.638 54.8203 161.148 52.7905C158.891 50.9519 158.794 50.492 155.805 48.7283L149.418 45.5712C144.27 43.6241 144.175 43.5529 138.415 42.2499C136.946 41.9176 132.897 41.5867 130.941 41.3859C130.805 41.3717 130.572 41.3494 130.44 41.3613C129.699 41.4289 130.158 41.3422 129.942 41.5303C130.584 41.4664 135.042 42.7796 136.008 43.0713C136.828 43.3189 140.288 44.975 141.118 45.522C143.74 47.2475 147.243 50.262 149.043 52.7047C150.889 55.2095 153.419 58.7542 154.589 62.2706C155.829 65.9978 156.93 70.6236 156.835 75.1505C156.739 79.7298 156.016 84.3989 154.462 88.035C153.726 89.757 152.969 91.7246 152.094 93.2319C151.658 93.9832 151.052 94.7549 150.528 95.5091C148.94 97.7955 148.92 97.7107 147.036 99.5683C144.668 101.902 143.697 102.667 140.844 104.638C140.466 104.9 136.196 106.82 135.651 107.011C133.815 107.655 131.533 107.982 129.635 108.632Z" fill="#4B9233"/>
<path fill-rule="evenodd" clip-rule="evenodd" d="M128.294 51.5103C125.112 52.1918 122.191 55.1792 122.675 59.223C123.09 62.6894 126.171 65.7301 130.174 64.9377C133.263 64.3266 136.24 61.1811 135.799 57.3037C135.403 53.8107 132.409 50.6293 128.294 51.5103Z" fill="#CD0419"/>
</svg>
