<svg width="186" height="150" viewBox="0 0 186 150" fill="none" xmlns="http://www.w3.org/2000/svg">
<g clip-path="url(#clip0_456_62796)">
<path fill-rule="evenodd" clip-rule="evenodd" d="M119.691 22.6531H124.753C124.736 23.0049 124.727 23.3584 124.727 23.7141C124.727 29.2701 126.725 34.3583 130.038 38.3009L136.046 32.2864L139.351 31.8416L138.906 35.1503L132.907 41.1564C136.83 44.4214 141.872 46.3847 147.372 46.3847C147.76 46.3847 148.146 46.3746 148.529 46.3554V51.9847C148.146 51.9654 147.76 51.9553 147.372 51.9553C141.89 51.9553 136.863 53.9052 132.946 57.1505L138.907 63.1181L139.351 66.4264L136.046 65.9817L133.799 63.7325H136.66V63.7321H133.799L130.071 60.0003C129.099 61.1516 128.24 62.4013 127.51 63.7324H122.078H116.935C116.172 62.341 115.267 61.0383 114.241 59.844L110.357 63.7321H107.496V63.7325H110.357L107.837 66.2553L104.805 66.4264L104.976 63.3916L111.339 57.0215C107.445 53.8545 102.48 51.9553 97.072 51.9553C96.5865 51.9553 96.1051 51.9725 95.6272 52.0026V46.3375C96.1051 46.3677 96.5865 46.3847 97.072 46.3847C102.499 46.3847 107.478 44.4729 111.379 41.2864L104.976 34.8766L104.805 31.8416L107.837 32.0129L114.274 38.4571C117.667 34.4935 119.717 29.3436 119.717 23.7141C119.717 23.3584 119.708 23.0049 119.691 22.6531ZM113.454 68.1143C114.478 68.1143 115.309 68.946 115.309 69.9716C115.309 70.997 114.478 71.8287 113.454 71.8287C112.429 71.8287 111.599 70.997 111.599 69.9716C111.599 68.946 112.429 68.1143 113.454 68.1143ZM103.119 40.5002C103.119 41.5257 102.289 42.3573 101.264 42.3573C100.24 42.3573 99.4093 41.5257 99.4093 40.5002C99.4093 39.4746 100.24 38.6431 101.264 38.6431C102.289 38.6431 103.119 39.4746 103.119 40.5002ZM144.747 40.5002C144.747 41.5257 143.916 42.3573 142.892 42.3573C141.867 42.3573 141.037 41.5257 141.037 40.5002C141.037 39.4746 141.867 38.6431 142.892 38.6431C143.916 38.6431 144.747 39.4746 144.747 40.5002ZM144.747 57.7684C144.747 58.7939 143.916 59.6255 142.892 59.6255C141.867 59.6255 141.037 58.7939 141.037 57.7684C141.037 56.7428 141.867 55.9114 142.892 55.9114C143.916 55.9114 144.747 56.7428 144.747 57.7684ZM103.119 57.7684C103.119 58.7939 102.289 59.6255 101.264 59.6255C100.24 59.6255 99.4093 58.7939 99.4093 57.7684C99.4093 56.7428 100.24 55.9114 101.264 55.9114C102.289 55.9114 103.119 56.7428 103.119 57.7684ZM113.454 26.4397C114.478 26.4397 115.309 27.2712 115.309 28.2968C115.309 29.3224 114.478 30.1539 113.454 30.1539C112.429 30.1539 111.599 29.3224 111.599 28.2968C111.599 27.2712 112.429 26.4397 113.454 26.4397ZM130.702 26.4397C131.727 26.4397 132.557 27.2712 132.557 28.2968C132.557 29.3224 131.727 30.1539 130.702 30.1539C129.678 30.1539 128.847 29.3224 128.847 28.2968C128.847 27.2712 129.678 26.4397 130.702 26.4397ZM130.702 68.1143C131.727 68.1143 132.557 68.946 132.557 69.9716C132.557 70.997 131.727 71.8287 130.702 71.8287C129.678 71.8287 128.847 70.997 128.847 69.9716C128.847 68.946 129.678 68.1143 130.702 68.1143ZM127.51 63.7325C125.736 66.9652 124.727 70.6772 124.727 74.6259C124.727 74.9574 124.736 75.2868 124.75 75.6151H119.694C119.708 75.2868 119.717 74.9574 119.717 74.6259C119.717 70.6777 118.708 66.9655 116.935 63.7325H127.51ZM122.078 63.7324C125.057 57.3885 129.504 52.1981 136.66 49.1342V49.1337C129.504 46.0698 125.057 40.8797 122.078 34.5357C119.099 40.8799 114.652 46.0699 107.496 49.1339C114.652 52.198 119.099 57.3881 122.078 63.7324Z" fill="#A8996E"/>
<path fill-rule="evenodd" clip-rule="evenodd" d="M37.4937 50.9929L37.4712 46.1922H51.6363C58.3177 46.1922 62.0938 53.339 58.4296 59.6981C60.7645 61.4096 62.0469 64.8468 61.6054 67.9611C61.0608 71.8032 58.0926 75.2307 53.6588 75.2307H40.0239V52.5602C40.0239 51.6124 39.723 50.9929 38.8188 50.9929H37.4937ZM101.906 113.959L104.151 106.875H114.944L117.189 113.959H122.091L113.077 85.2168H109.548H107.227H106.018H101.831V90.089H103.903C104.131 90.089 104.226 90.3843 104.263 90.8148L97.0043 113.959H101.906ZM127.115 114.048H131.5V101.828H143.706V97.4383H131.5V89.6076H146.585V85.2182H131.5H127.115H124.952V89.6076H127.115V114.048ZM105.649 102.148L109.548 89.8474L113.446 102.148H105.649ZM81.8844 85.2171L66.493 85.3094V90.0365C67.9033 89.9864 68.8767 90.0518 68.8767 91.2916V114.058H73.502V104.411H80.0303L88.4342 113.499C88.8718 113.972 89.5809 114.083 90.1475 114.083H93.4238V109.308H90.5089L85.0886 103.35C89.6658 100.85 90.9186 97.0872 90.4217 93.7465C89.7368 89.1393 86.0863 85.1918 81.8844 85.2171ZM73.4164 90.0213H81.0889C83.7854 90.0213 85.9913 92.2297 85.9913 94.9293C85.9913 97.6289 83.7854 99.8373 81.0889 99.8373H73.4164V90.0213ZM37.4884 85.2352L44.7152 85.2716V97.5651H47.3001L54.8177 86.7605C55.4511 85.85 56.8154 85.2168 57.8653 85.2168H60.7198V90.0885H57.8291L52.9627 97.0104L60.4774 109.022H62.8866V113.823H60.6082C57.6934 113.823 53.6972 106.677 50.6036 101.955H44.7152V114.104H40.0418V91.1922C40.0418 90.6026 39.7538 90.1069 39.1988 90.1069H37.4884V85.2352ZM90.6789 75.1536H68.867V52.277C68.867 51.4182 68.4891 50.9383 67.7949 50.9383H66.3497V46.1922H90.7763V50.8896H74.7321C73.9505 50.8896 73.3107 51.673 73.3107 52.6171V58.8718H87.0662V63.4227H73.3104V70.6282H90.6789V75.1536ZM44.4292 62.2554H53.1254C55.4046 62.2554 57.2692 64.1223 57.2692 66.4039V66.4041C57.2692 68.6856 55.4043 70.5526 53.1254 70.5526H44.4292V62.2554ZM44.4292 50.9447H51.6804C53.7341 50.9447 55.4143 52.6268 55.4143 54.6827C55.4143 56.7387 53.7341 58.4209 51.6804 58.4209H44.4292V50.9447Z" fill="var(--svg-stroke)"/>
<path d="M39.5757 122.41H41.4731C41.8489 122.41 42.1296 122.426 42.3142 122.459C42.4987 122.491 42.6634 122.557 42.8092 122.659C42.9551 122.761 43.0756 122.896 43.1728 123.065C43.2701 123.234 43.3187 123.424 43.3187 123.633C43.3187 123.86 43.259 124.069 43.1397 124.259C43.0193 124.449 42.8568 124.592 42.6523 124.687C42.9408 124.773 43.164 124.92 43.3187 125.127C43.4745 125.335 43.5519 125.579 43.5519 125.86C43.5519 126.08 43.5022 126.295 43.4016 126.504C43.301 126.712 43.164 126.88 42.9905 127.004C42.817 127.129 42.6026 127.206 42.3473 127.235C42.1882 127.252 41.8025 127.263 41.1914 127.268H39.5757V122.41ZM40.5349 123.219V124.342H41.1626C41.5362 124.342 41.7682 124.336 41.8589 124.325C42.0224 124.306 42.1517 124.248 42.2457 124.152C42.3396 124.056 42.386 123.929 42.386 123.772C42.386 123.622 42.3462 123.5 42.2656 123.406C42.1838 123.312 42.0633 123.255 41.9042 123.236C41.8091 123.225 41.5362 123.219 41.0853 123.219H40.5349ZM40.5349 125.151V126.449H41.4212C41.7671 126.449 41.986 126.44 42.0788 126.42C42.2213 126.394 42.3374 126.328 42.4269 126.226C42.5164 126.123 42.5617 125.985 42.5617 125.813C42.5617 125.668 42.5263 125.544 42.4578 125.442C42.3882 125.341 42.2887 125.266 42.1583 125.22C42.0279 125.173 41.744 125.151 41.3085 125.151H40.5349ZM45.0349 124.823L44.2094 124.67C44.3023 124.33 44.4614 124.079 44.688 123.915C44.9156 123.752 45.2516 123.669 45.698 123.669C46.1047 123.669 46.4064 123.719 46.6053 123.817C46.8031 123.916 46.9435 124.04 47.0242 124.192C47.1049 124.343 47.1457 124.62 47.1457 125.025L47.1358 126.112C47.1358 126.421 47.1501 126.649 47.18 126.796C47.2087 126.942 47.264 127.1 47.3436 127.268H46.4429C46.4197 127.206 46.3898 127.114 46.3555 126.993C46.3412 126.937 46.3301 126.901 46.3235 126.883C46.1677 127.038 46.0019 127.153 45.8251 127.232C45.6483 127.308 45.4593 127.347 45.2582 127.347C44.9045 127.347 44.6249 127.249 44.4216 127.053C44.2172 126.856 44.1155 126.607 44.1155 126.306C44.1155 126.109 44.1619 125.931 44.2547 125.775C44.3475 125.619 44.478 125.5 44.6448 125.418C44.8117 125.335 45.0537 125.263 45.3687 125.2C45.7931 125.119 46.0881 125.042 46.2517 124.972V124.879C46.2517 124.699 46.2086 124.573 46.1224 124.496C46.0362 124.42 45.8737 124.382 45.6339 124.382C45.4715 124.382 45.3455 124.414 45.2549 124.48C45.1642 124.545 45.0913 124.659 45.0349 124.823ZM46.2517 125.578C46.1357 125.618 45.9511 125.665 45.698 125.721C45.4461 125.776 45.2814 125.83 45.2029 125.882C45.0847 125.969 45.0251 126.078 45.0251 126.21C45.0251 126.341 45.0725 126.454 45.1676 126.548C45.2626 126.644 45.3831 126.691 45.5301 126.691C45.6947 126.691 45.8505 126.636 45.9997 126.526C46.1102 126.442 46.1821 126.339 46.2163 126.217C46.2406 126.138 46.2517 125.986 46.2517 125.764V125.578ZM51.196 127.268H50.3517V126.751C50.2113 126.952 50.0456 127.101 49.8544 127.2C49.6632 127.298 49.4709 127.347 49.2764 127.347C48.8808 127.347 48.5426 127.184 48.2608 126.858C47.9801 126.533 47.8387 126.078 47.8387 125.496C47.8387 124.899 47.9757 124.445 48.2498 124.135C48.5238 123.825 48.8708 123.669 49.2897 123.669C49.6731 123.669 50.0058 123.833 50.2865 124.16V122.41H51.196V127.268ZM48.7681 125.432C48.7681 125.808 48.8189 126.079 48.9206 126.248C49.0664 126.49 49.272 126.612 49.535 126.612C49.745 126.612 49.9229 126.52 50.0699 126.338C50.2158 126.156 50.2898 125.884 50.2898 125.522C50.2898 125.118 50.218 124.826 50.0765 124.649C49.9339 124.471 49.7516 124.382 49.5284 124.382C49.3129 124.382 49.1327 124.47 48.9868 124.645C48.841 124.82 48.7681 125.083 48.7681 125.432ZM52.773 124.823L51.9475 124.67C52.0403 124.33 52.1994 124.079 52.426 123.915C52.6537 123.752 52.9897 123.669 53.436 123.669C53.8428 123.669 54.1444 123.719 54.3433 123.817C54.5412 123.916 54.6815 124.04 54.7622 124.192C54.8428 124.343 54.8838 124.62 54.8838 125.025L54.8738 126.112C54.8738 126.421 54.8882 126.649 54.918 126.796C54.9468 126.942 55.002 127.1 55.0815 127.268H54.1809C54.1577 127.206 54.1279 127.114 54.0936 126.993C54.0792 126.937 54.0682 126.901 54.0617 126.883C53.9057 127.038 53.7399 127.153 53.5631 127.232C53.3863 127.308 53.1973 127.347 52.9962 127.347C52.6425 127.347 52.363 127.249 52.1596 127.053C51.9552 126.856 51.8535 126.607 51.8535 126.306C51.8535 126.109 51.8999 125.931 51.9928 125.775C52.0856 125.619 52.216 125.5 52.3829 125.418C52.5498 125.335 52.7918 125.263 53.1066 125.2C53.5312 125.119 53.8262 125.042 53.9898 124.972V124.879C53.9898 124.699 53.9467 124.573 53.8604 124.496C53.7743 124.42 53.6118 124.382 53.372 124.382C53.2096 124.382 53.0836 124.414 52.9929 124.48C52.9023 124.545 52.8294 124.659 52.773 124.823ZM53.9898 125.578C53.8737 125.618 53.6891 125.665 53.436 125.721C53.184 125.776 53.0195 125.83 52.9409 125.882C52.8227 125.969 52.763 126.078 52.763 126.21C52.763 126.341 52.8106 126.454 52.9055 126.548C53.0007 126.644 53.1212 126.691 53.2681 126.691C53.4327 126.691 53.5885 126.636 53.7378 126.526C53.8483 126.442 53.92 126.339 53.9543 126.217C53.9786 126.138 53.9898 125.986 53.9898 125.764V125.578ZM58.9086 127.268H57.9991V125.472C57.9991 125.092 57.9793 124.846 57.9404 124.735C57.9019 124.624 57.8377 124.537 57.7505 124.474C57.6632 124.413 57.5581 124.382 57.4355 124.382C57.2775 124.382 57.136 124.426 57.0111 124.514C56.8862 124.603 56.8001 124.72 56.7536 124.866C56.7072 125.012 56.684 125.281 56.684 125.674V127.268H55.7744V123.75H56.6189V124.266C56.9194 123.868 57.2974 123.669 57.7526 123.669C57.9527 123.669 58.1372 123.706 58.303 123.78C58.4688 123.855 58.5948 123.949 58.6798 124.064C58.765 124.179 58.8246 124.309 58.8578 124.455C58.8921 124.601 58.9086 124.809 58.9086 125.081V127.268ZM61.6802 127.268V122.41H65.1988V123.233H62.6384V124.309H65.021V125.127H62.6384V126.449H65.2895V127.268H61.6802ZM66.0632 127.268V122.41H66.9737V124.988L68.0379 123.75H69.1585L67.9837 125.034L69.2425 127.268H68.2622L67.397 125.688L66.9737 126.141V127.268H66.0632ZM69.5729 125.458C69.5729 125.15 69.6482 124.85 69.7962 124.56C69.9453 124.272 70.1565 124.05 70.4295 123.899C70.7024 123.746 71.0074 123.669 71.3446 123.669C71.8639 123.669 72.2905 123.842 72.623 124.188C72.9558 124.534 73.1215 124.971 73.1215 125.499C73.1215 126.031 72.9535 126.472 72.6187 126.822C72.2827 127.173 71.8605 127.347 71.3511 127.347C71.035 127.347 70.7356 127.275 70.4493 127.129C70.1631 126.983 69.9453 126.769 69.7962 126.487C69.6482 126.206 69.5729 125.863 69.5729 125.458ZM70.5056 125.508C70.5056 125.858 70.5864 126.124 70.7488 126.31C70.9101 126.495 71.1101 126.588 71.3478 126.588C71.5854 126.588 71.7844 126.495 71.9446 126.31C72.1058 126.124 72.1866 125.855 72.1866 125.501C72.1866 125.157 72.1058 124.892 71.9446 124.706C71.7844 124.521 71.5854 124.428 71.3478 124.428C71.1101 124.428 70.9101 124.521 70.7488 124.706C70.5864 124.892 70.5056 125.16 70.5056 125.508ZM76.9618 127.268H76.0522V125.472C76.0522 125.092 76.0324 124.846 75.9936 124.735C75.9551 124.624 75.8908 124.537 75.8037 124.474C75.7162 124.413 75.6113 124.382 75.4886 124.382C75.3305 124.382 75.1891 124.426 75.0643 124.514C74.9393 124.603 74.8532 124.72 74.8068 124.866C74.7604 125.012 74.7372 125.281 74.7372 125.674V127.268H73.8276V123.75H74.6719V124.266C74.9725 123.868 75.3506 123.669 75.8058 123.669C76.0058 123.669 76.1904 123.706 76.3562 123.78C76.522 123.855 76.6478 123.949 76.733 124.064C76.818 124.179 76.8778 124.309 76.9108 124.455C76.9451 124.601 76.9618 124.809 76.9618 125.081V127.268ZM77.6735 125.458C77.6735 125.15 77.7486 124.85 77.8966 124.56C78.0458 124.272 78.257 124.05 78.5299 123.899C78.8028 123.746 79.1079 123.669 79.445 123.669C79.9643 123.669 80.3909 123.842 80.7236 124.188C81.0562 124.534 81.2219 124.971 81.2219 125.499C81.2219 126.031 81.054 126.472 80.7191 126.822C80.3831 127.173 79.9611 127.347 79.4515 127.347C79.1356 127.347 78.836 127.275 78.5497 127.129C78.2636 126.983 78.0458 126.769 77.8966 126.487C77.7486 126.206 77.6735 125.863 77.6735 125.458ZM78.6062 125.508C78.6062 125.858 78.6868 126.124 78.8493 126.31C79.0107 126.495 79.2107 126.588 79.4483 126.588C79.6858 126.588 79.8848 126.495 80.045 126.31C80.2064 126.124 80.2871 125.855 80.2871 125.501C80.2871 125.157 80.2064 124.892 80.045 124.706C79.8848 124.521 79.6858 124.428 79.4483 124.428C79.2107 124.428 79.0107 124.521 78.8493 124.706C78.6868 124.892 78.6062 125.16 78.6062 125.508ZM81.8662 123.75H82.705V124.229C83.0046 123.856 83.3626 123.669 83.777 123.669C83.9969 123.669 84.1881 123.716 84.3494 123.808C84.512 123.901 84.6445 124.041 84.7484 124.229C84.8987 124.041 85.0622 123.901 85.2368 123.808C85.4114 123.716 85.5982 123.669 85.7971 123.669C86.0491 123.669 86.2635 123.722 86.438 123.827C86.6127 123.932 86.7431 124.086 86.8294 124.289C86.8924 124.439 86.9233 124.682 86.9233 125.018V127.268H86.0137V125.257C86.0137 124.908 85.9828 124.683 85.9198 124.581C85.8358 124.448 85.7066 124.382 85.5318 124.382C85.4037 124.382 85.2844 124.421 85.1717 124.502C85.06 124.581 84.9793 124.697 84.9296 124.851C84.8799 125.005 84.8545 125.247 84.8545 125.578V127.268H83.9449V125.34C83.9449 124.997 83.9284 124.776 83.8963 124.677C83.8643 124.577 83.8134 124.504 83.7461 124.455C83.6774 124.406 83.5858 124.382 83.4687 124.382C83.3283 124.382 83.2023 124.42 83.0907 124.498C82.978 124.575 82.8972 124.687 82.8487 124.833C82.8 124.979 82.7758 125.22 82.7758 125.558V127.268H81.8662V123.75ZM87.8306 123.272V122.41H88.74V123.272H87.8306ZM87.8306 127.268V123.75H88.74V127.268H87.8306ZM91.5338 127.268V122.41H92.4918V124.567L94.428 122.41H95.7166L93.9296 124.303L95.8138 127.268H94.5739L93.2699 124.988L92.4918 125.8V127.268H91.5338ZM97.1742 127.268H96.2648V123.75H97.1091V124.249C97.2538 124.013 97.3842 123.857 97.4992 123.782C97.6151 123.708 97.7456 123.669 97.8925 123.669C98.1003 123.669 98.2993 123.728 98.4915 123.846L98.2097 124.656C98.0572 124.556 97.9147 124.505 97.7832 124.505C97.655 124.505 97.5478 124.54 97.4594 124.612C97.3698 124.684 97.3013 124.814 97.2505 125.001C97.1996 125.189 97.1742 125.583 97.1742 126.181V127.268ZM100.874 126.148L101.782 126.303C101.664 126.644 101.481 126.902 101.229 127.08C100.978 127.259 100.663 127.347 100.285 127.347C99.6872 127.347 99.2453 127.148 98.9579 126.747C98.7313 126.428 98.6175 126.023 98.6175 125.535C98.6175 124.952 98.7668 124.495 99.0651 124.165C99.3624 123.834 99.7392 123.669 100.194 123.669C100.706 123.669 101.11 123.842 101.406 124.188C101.701 124.534 101.842 125.064 101.83 125.777H99.5502C99.5569 126.053 99.6299 126.268 99.7701 126.421C99.9105 126.574 100.086 126.651 100.295 126.651C100.438 126.651 100.557 126.612 100.654 126.533C100.751 126.452 100.825 126.324 100.874 126.148ZM100.926 125.207C100.92 124.937 100.852 124.732 100.723 124.592C100.593 124.452 100.435 124.382 100.25 124.382C100.051 124.382 99.8873 124.456 99.758 124.604C99.6287 124.751 99.5646 124.953 99.5669 125.207H100.926ZM103.251 124.823L102.426 124.67C102.519 124.33 102.678 124.079 102.904 123.915C103.132 123.752 103.468 123.669 103.914 123.669C104.321 123.669 104.623 123.719 104.822 123.817C105.019 123.916 105.16 124.04 105.241 124.192C105.321 124.343 105.362 124.62 105.362 125.025L105.352 126.112C105.352 126.421 105.366 126.649 105.396 126.796C105.425 126.942 105.48 127.1 105.56 127.268H104.659C104.636 127.206 104.606 127.114 104.572 126.993C104.558 126.937 104.547 126.901 104.54 126.883C104.384 127.038 104.218 127.153 104.041 127.232C103.865 127.308 103.676 127.347 103.475 127.347C103.121 127.347 102.841 127.249 102.638 127.053C102.433 126.856 102.332 126.607 102.332 126.306C102.332 126.109 102.378 125.931 102.471 125.775C102.564 125.619 102.694 125.5 102.861 125.418C103.028 125.335 103.27 125.263 103.585 125.2C104.009 125.119 104.304 125.042 104.468 124.972V124.879C104.468 124.699 104.425 124.573 104.339 124.496C104.252 124.42 104.09 124.382 103.85 124.382C103.688 124.382 103.562 124.414 103.471 124.48C103.381 124.545 103.308 124.659 103.251 124.823ZM104.468 125.578C104.352 125.618 104.167 125.665 103.914 125.721C103.662 125.776 103.498 125.83 103.419 125.882C103.301 125.969 103.241 126.078 103.241 126.21C103.241 126.341 103.289 126.454 103.384 126.548C103.479 126.644 103.599 126.691 103.746 126.691C103.911 126.691 104.067 126.636 104.216 126.526C104.327 126.442 104.398 126.339 104.433 126.217C104.457 126.138 104.468 125.986 104.468 125.764V125.578ZM107.835 123.75V124.491H107.214V125.91C107.214 126.197 107.22 126.364 107.232 126.412C107.244 126.459 107.271 126.498 107.313 126.529C107.355 126.56 107.407 126.576 107.466 126.576C107.551 126.576 107.673 126.545 107.833 126.486L107.91 127.208C107.698 127.301 107.46 127.347 107.191 127.347C107.027 127.347 106.879 127.319 106.748 127.263C106.616 127.207 106.52 127.133 106.458 127.044C106.396 126.954 106.354 126.834 106.33 126.681C106.311 126.573 106.302 126.354 106.302 126.025V124.491H105.884V123.75H106.302V123.049L107.214 122.507V123.75H107.835ZM108.468 123.272V122.41H109.377V123.272H108.468ZM108.468 127.268V123.75H109.377V127.268H108.468ZM109.911 123.75H110.416V123.484C110.416 123.188 110.447 122.967 110.509 122.821C110.571 122.675 110.683 122.556 110.848 122.465C111.014 122.373 111.222 122.328 111.474 122.328C111.734 122.328 111.987 122.368 112.236 122.447L112.113 123.097C111.968 123.061 111.829 123.044 111.695 123.044C111.563 123.044 111.469 123.074 111.411 123.138C111.354 123.201 111.326 123.322 111.326 123.501V123.75H112.006V124.481H111.326V127.268H110.416V124.481H109.911V123.75ZM114.337 127.268V122.41H115.295V127.268H114.337ZM119.33 127.268H118.42V125.472C118.42 125.092 118.4 124.846 118.362 124.735C118.323 124.624 118.259 124.537 118.172 124.474C118.084 124.413 117.979 124.382 117.856 124.382C117.699 124.382 117.557 124.426 117.432 124.514C117.307 124.603 117.221 124.72 117.175 124.866C117.128 125.012 117.105 125.281 117.105 125.674V127.268H116.195V123.75H117.04V124.266C117.34 123.868 117.718 123.669 118.174 123.669C118.374 123.669 118.558 123.706 118.724 123.78C118.89 123.855 119.016 123.949 119.101 124.064C119.186 124.179 119.246 124.309 119.279 124.455C119.313 124.601 119.33 124.809 119.33 125.081V127.268ZM123.405 127.268H122.561V126.751C122.421 126.952 122.255 127.101 122.064 127.2C121.872 127.298 121.68 127.347 121.486 127.347C121.09 127.347 120.752 127.184 120.47 126.858C120.189 126.533 120.048 126.078 120.048 125.496C120.048 124.899 120.185 124.445 120.459 124.135C120.733 123.825 121.08 123.669 121.499 123.669C121.882 123.669 122.215 123.833 122.496 124.16V122.41H123.405V127.268ZM120.977 125.432C120.977 125.808 121.028 126.079 121.13 126.248C121.276 126.49 121.481 126.612 121.744 126.612C121.954 126.612 122.132 126.52 122.279 126.338C122.425 126.156 122.499 125.884 122.499 125.522C122.499 125.118 122.427 124.826 122.286 124.649C122.143 124.471 121.961 124.382 121.738 124.382C121.522 124.382 121.342 124.47 121.196 124.645C121.05 124.82 120.977 125.083 120.977 125.432ZM124.092 125.458C124.092 125.15 124.167 124.85 124.315 124.56C124.464 124.272 124.675 124.05 124.948 123.899C125.221 123.746 125.526 123.669 125.863 123.669C126.382 123.669 126.809 123.842 127.142 124.188C127.474 124.534 127.64 124.971 127.64 125.499C127.64 126.031 127.472 126.472 127.137 126.822C126.801 127.173 126.379 127.347 125.87 127.347C125.554 127.347 125.254 127.275 124.968 127.129C124.682 126.983 124.464 126.769 124.315 126.487C124.167 126.206 124.092 125.863 124.092 125.458ZM125.024 125.508C125.024 125.858 125.105 126.124 125.267 126.31C125.429 126.495 125.629 126.588 125.866 126.588C126.104 126.588 126.303 126.495 126.463 126.31C126.624 126.124 126.705 125.855 126.705 125.501C126.705 125.157 126.624 124.892 126.463 124.706C126.303 124.521 126.104 124.428 125.866 124.428C125.629 124.428 125.429 124.521 125.267 124.706C125.105 124.892 125.024 125.16 125.024 125.508ZM131.48 127.268H130.571V125.472C130.571 125.092 130.551 124.846 130.512 124.735C130.474 124.624 130.409 124.537 130.322 124.474C130.235 124.413 130.13 124.382 130.007 124.382C129.849 124.382 129.708 124.426 129.583 124.514C129.458 124.603 129.372 124.72 129.325 124.866C129.279 125.012 129.256 125.281 129.256 125.674V127.268H128.346V123.75H129.19V124.266C129.491 123.868 129.869 123.669 130.324 123.669C130.524 123.669 130.709 123.706 130.875 123.78C131.04 123.855 131.167 123.949 131.252 124.064C131.337 124.179 131.396 124.309 131.429 124.455C131.464 124.601 131.48 124.809 131.48 125.081V127.268ZM134.393 126.148L135.301 126.303C135.184 126.644 135 126.902 134.748 127.08C134.497 127.259 134.182 127.347 133.804 127.347C133.207 127.347 132.764 127.148 132.477 126.747C132.251 126.428 132.137 126.023 132.137 125.535C132.137 124.952 132.286 124.495 132.584 124.165C132.882 123.834 133.258 123.669 133.714 123.669C134.225 123.669 134.629 123.842 134.925 124.188C135.22 124.534 135.361 125.064 135.349 125.777H133.07C133.076 126.053 133.149 126.268 133.289 126.421C133.43 126.574 133.605 126.651 133.814 126.651C133.957 126.651 134.076 126.612 134.174 126.533C134.271 126.452 134.345 126.324 134.393 126.148ZM134.445 125.207C134.439 124.937 134.371 124.732 134.242 124.592C134.113 124.452 133.955 124.382 133.769 124.382C133.57 124.382 133.407 124.456 133.277 124.604C133.148 124.751 133.084 124.953 133.086 125.207H134.445ZM135.77 126.264L136.683 126.121C136.722 126.302 136.8 126.44 136.92 126.534C137.038 126.628 137.204 126.675 137.418 126.675C137.653 126.675 137.83 126.631 137.949 126.542C138.029 126.481 138.069 126.397 138.069 126.294C138.069 126.223 138.047 126.164 138.004 126.118C137.959 126.074 137.857 126.033 137.7 125.995C136.966 125.83 136.501 125.679 136.304 125.542C136.032 125.352 135.896 125.087 135.896 124.749C135.896 124.445 136.013 124.188 136.249 123.981C136.484 123.773 136.849 123.669 137.343 123.669C137.814 123.669 138.164 123.748 138.393 123.904C138.622 124.062 138.779 124.293 138.865 124.601L138.007 124.763C137.971 124.626 137.901 124.521 137.798 124.448C137.696 124.375 137.55 124.339 137.36 124.339C137.12 124.339 136.948 124.373 136.844 124.442C136.776 124.49 136.742 124.554 136.742 124.63C136.742 124.697 136.772 124.753 136.832 124.799C136.914 124.861 137.197 124.948 137.682 125.061C138.166 125.173 138.504 125.311 138.697 125.475C138.887 125.642 138.982 125.872 138.982 126.167C138.982 126.49 138.85 126.768 138.586 127C138.323 127.232 137.934 127.347 137.418 127.347C136.95 127.347 136.579 127.25 136.305 127.055C136.032 126.862 135.854 126.597 135.77 126.264ZM139.779 123.272V122.41H140.688V123.272H139.779ZM139.779 127.268V123.75H140.688V127.268H139.779ZM142.301 124.823L141.475 124.67C141.568 124.33 141.727 124.079 141.954 123.915C142.181 123.752 142.517 123.669 142.964 123.669C143.37 123.669 143.672 123.719 143.871 123.817C144.069 123.916 144.209 124.04 144.29 124.192C144.371 124.343 144.411 124.62 144.411 125.025L144.401 126.112C144.401 126.421 144.416 126.649 144.446 126.796C144.474 126.942 144.53 127.1 144.609 127.268H143.708C143.685 127.206 143.655 127.114 143.621 126.993C143.607 126.937 143.596 126.901 143.589 126.883C143.433 127.038 143.267 127.153 143.091 127.232C142.914 127.308 142.725 127.347 142.524 127.347C142.17 127.347 141.891 127.249 141.687 127.053C141.483 126.856 141.381 126.607 141.381 126.306C141.381 126.109 141.427 125.931 141.52 125.775C141.613 125.619 141.744 125.5 141.91 125.418C142.077 125.335 142.319 125.263 142.634 125.2C143.059 125.119 143.354 125.042 143.517 124.972V124.879C143.517 124.699 143.474 124.573 143.388 124.496C143.302 124.42 143.139 124.382 142.9 124.382C142.737 124.382 142.611 124.414 142.52 124.48C142.43 124.545 142.357 124.659 142.301 124.823ZM143.517 125.578C143.401 125.618 143.217 125.665 142.964 125.721C142.712 125.776 142.547 125.83 142.468 125.882C142.35 125.969 142.291 126.078 142.291 126.21C142.291 126.341 142.338 126.454 142.433 126.548C142.528 126.644 142.649 126.691 142.796 126.691C142.96 126.691 143.116 126.636 143.265 126.526C143.376 126.442 143.448 126.339 143.482 126.217C143.506 126.138 143.517 125.986 143.517 125.764V125.578Z" fill="#A8996E"/>
</g>
<defs>
<clipPath id="clip0_456_62796">
<rect width="111.364" height="105" fill="white" transform="translate(37.3182 22.5)"/>
</clipPath>
</defs>
<style><![CDATA[ :root{ --svg-stroke: #2B2727 } ]]></style>
</svg>
