<svg width="186" height="150" viewBox="0 0 186 150" fill="none" xmlns="http://www.w3.org/2000/svg">
<g clip-path="url(#clip0_477_99896)">
<path d="M65.7866 99.1693C65.8215 99.0926 65.8587 99.0253 65.8936 98.9533C67.0827 96.5024 68.6347 92.2558 68.3485 91.682C68.0623 91.1129 66.4265 89.3195 66.4265 89.3195L65.7307 91.847C60.1694 87.7235 53.6237 81.27 50.5196 75.4321C49.6214 73.7525 48.9629 72.0102 48.4696 70.3771C50.3195 82.097 56.7092 92.3093 65.7866 99.1693Z" fill="#005EA7"/>
<path d="M48.0112 60.5296C49.7029 57.1193 52.1113 56.2435 52.1113 56.2435C52.1113 56.2435 49.3306 50.8935 58.4103 43.9544C67.4899 37.0108 76.8814 36.7413 76.8814 36.7413C74.8639 38.2118 73.6656 40.4419 73.6656 40.4419C79.2548 38.2118 83.8086 39.1364 83.8086 39.1364C82.0355 39.8705 81.4631 41.0692 81.4631 41.0692C92.4229 40.3862 95.9412 46.324 95.9412 46.324C94.4171 46.5377 93.2978 47.2462 93.2978 47.2462C93.2978 47.2462 94.331 48.2521 95.9668 50.2686C97.6026 52.2873 97.6026 54.8148 98.2588 56.8011C98.9127 58.7873 100.33 60.9408 103.792 61.2939C107.255 61.647 107.692 62.3532 107.909 63.2244C108.13 64.0978 105.591 66.3559 105.591 66.3559C107.229 68.4536 108.539 68.5326 108.427 69.2667C108.32 70.0031 104.667 72.4795 104.667 72.4795C104.667 72.4795 105.619 72.21 106.957 72.4795C108.288 72.7536 108.649 73.9245 108.265 74.8769C107.883 75.8271 108.209 77.351 109.274 79.0143C110.338 80.6776 109.516 82.1203 108.074 83.4212C106.633 84.7291 101.067 85.5491 98.9406 86.9592C96.8161 88.381 94.5799 93.7124 93.8121 97.3597C93.0512 101.002 94.3054 101.17 95.9412 101.602C97.5747 102.043 97.7399 101.771 103.245 103.783C105.058 104.447 106.191 105.242 106.901 106.018C124.89 100.136 137.889 83.2516 137.889 63.3335C137.889 38.5277 117.747 18.4192 92.9046 18.4192C69.0047 18.4192 49.4656 37.0317 48.0112 60.5296ZM116.811 44.4864L110.105 43.9126L115.953 40.1562C115.953 40.1562 114.561 36.4393 113.009 33.8281C113.009 33.8281 117.137 35.9096 118.815 37.257C118.815 37.257 120.739 35.8701 121.682 34.3996C121.682 34.3996 122.373 37.1362 122.049 40.7277C122.049 40.7277 125.44 43.4201 126.261 46.5261C126.261 46.5261 122.743 45.1369 121.228 45.0161L118.08 51.7507L116.811 44.4864Z" fill="#005EA7"/>
<path d="M92.4392 62.0628C92.4392 62.0628 94.3822 62.0419 96.7929 60.5714C96.7929 60.5714 95.6946 58.5433 95.4502 58.1066C95.2013 57.6745 95.9575 56.9985 95.9575 56.9985C95.9575 56.9985 93.5841 57.8975 92.4392 62.0628Z" fill="#005EA7"/>
<path d="M94.0866 53.644C91.5526 55.14 89.8074 57.4817 89.6166 61.1568C89.6166 61.1568 90.9522 58.246 92.8882 56.4479C94.8219 54.6499 96.1599 55.2237 96.1599 55.2237C96.1599 55.2237 96.4577 53.2328 95.257 53.2328C94.9638 53.2328 94.5822 53.3513 94.0866 53.644Z" fill="#005EA7"/>
<path d="M48.693 115.621V131.13H54.5545C55.704 131.13 56.6231 131.023 57.3073 130.81C58.2287 130.515 58.9594 130.101 59.4992 129.569C60.2159 128.868 60.7627 127.955 61.149 126.828C61.4655 125.903 61.6214 124.807 61.6214 123.527C61.6214 122.075 61.4538 120.848 61.1188 119.861C60.7814 118.871 60.2904 118.03 59.6458 117.347C59.0013 116.662 58.2264 116.184 57.3212 115.916C56.6464 115.719 55.6691 115.621 54.3846 115.621H48.693ZM51.8087 118.244H53.2072C54.4777 118.244 55.3294 118.3 55.7622 118.39C56.3439 118.521 56.8256 118.767 57.2026 119.12C57.5818 119.482 57.8774 119.986 58.0868 120.628C58.2985 121.266 58.4032 122.186 58.4032 123.385C58.4032 124.586 58.2985 125.536 58.0868 126.231C57.8774 126.921 57.6051 127.425 57.2724 127.722C56.9396 128.031 56.5208 128.243 56.0135 128.37C55.6295 128.473 55.0036 128.521 54.131 128.521H51.8087V118.244Z" fill="#005EA7"/>
<path d="M87.5271 115.621V123.924C85.3119 119.91 80.9512 115.621 80.9512 115.621H77.7959V131.13H80.8116V121.016C80.8116 121.016 84.9279 124.633 87.2874 131.13H90.5405V115.621H87.5271Z" fill="#005EA7"/>
<path d="M118.854 115.621V123.924C116.639 119.91 112.281 115.621 112.281 115.621H109.125V131.13H112.137V121.016C112.137 121.016 116.253 124.633 118.617 131.13H121.872V115.621H118.854Z" fill="#005EA7"/>
<path d="M96.9418 115.972C96.2181 116.276 95.555 116.743 94.95 117.371C94.3426 117.996 93.8633 118.704 93.5119 119.496C93.0442 120.569 92.8092 121.891 92.8092 123.476C92.8092 125.945 93.484 127.878 94.8383 129.293C96.1926 130.7 98.0169 131.4 100.307 131.4C102.575 131.4 104.383 130.693 105.735 129.274C107.087 127.864 107.767 125.903 107.767 123.399C107.767 120.876 107.085 118.902 105.719 117.482C104.358 116.067 102.54 115.354 100.267 115.354C99.0128 115.354 97.9075 115.559 96.9418 115.972ZM97.228 127.36C96.4206 126.452 96.018 125.123 96.018 123.369C96.018 121.585 96.4066 120.251 97.1955 119.366C97.9796 118.481 99.0151 118.03 100.3 118.03C101.582 118.03 102.61 118.472 103.387 119.348C104.16 120.223 104.549 121.547 104.549 123.327C104.549 125.123 104.148 126.47 103.359 127.374C102.559 128.27 101.54 128.721 100.3 128.721C99.057 128.721 98.0308 128.266 97.228 127.36Z" fill="#005EA7"/>
<path d="M69.1327 115.621H67.4014C67.4014 115.621 65.5469 116.843 63.6039 121.861C61.6632 126.874 61.3933 131.13 61.3933 131.13H64.6975C64.6975 131.13 64.7906 130.35 64.9023 129.413C65.014 128.475 65.2653 127.611 65.2653 127.611H69.1327H73C73 127.611 73.2513 128.475 73.363 129.413C73.4747 130.35 73.5654 131.13 73.5654 131.13H76.8673C76.8673 131.13 76.6021 126.874 74.6591 121.861C72.7208 116.843 70.8639 115.621 70.8639 115.621H69.1327ZM66.7941 121.838C67.8598 119.51 69.1327 118.692 69.1327 118.692C69.1327 118.692 70.4055 119.51 71.4689 121.838C72.0646 123.141 72.5719 124.997 72.5719 124.997H69.1327H65.6911C65.6911 124.997 66.2007 123.141 66.7941 121.838Z" fill="#005EA7"/>
<path d="M125.314 117.11C123.932 118.595 123.236 120.676 123.236 123.369C123.236 125.966 123.92 127.982 125.293 129.413C126.664 130.863 128.518 131.581 130.859 131.581C132.721 131.581 134.245 131.128 135.441 130.229C136.634 129.325 137.453 128.054 137.896 126.421L135.096 126.075C134.682 127.22 134.124 128.05 133.421 128.572C132.72 129.093 131.869 129.351 130.875 129.351C129.537 129.351 128.425 128.884 127.531 127.955C126.636 127.021 126.142 125.68 126.04 123.919H137.972C137.984 123.601 137.989 123.357 137.989 123.199C137.989 120.563 137.309 118.518 135.955 117.064C134.596 115.61 132.846 114.883 130.71 114.883C128.499 114.883 126.703 115.626 125.314 117.11ZM127.599 118.358C128.448 117.522 129.493 117.11 130.738 117.11C132.113 117.11 133.237 117.626 134.1 118.669C134.663 119.343 135.003 120.356 135.127 121.694H126.189C126.277 120.305 126.752 119.19 127.599 118.358Z" fill="#005EA7"/>
</g>
<defs>
<clipPath id="clip0_477_99896">
<rect width="186" height="150" fill="white"/>
</clipPath>
</defs>
</svg>
