<svg width="186" height="150" viewBox="0 0 186 150" fill="none" xmlns="http://www.w3.org/2000/svg">
<path d="M22.379 10H163.621V140H22.379V10Z" fill="white"/>
<path d="M22.379 140H163.621V10H22.379V140ZM95.6311 24.9972C99.0037 25.1168 103.022 25.7746 106.61 26.8031C117.637 29.9604 127.085 36.8132 133.878 46.5483C134.248 47.0865 134.559 47.5888 134.559 47.6605C134.559 47.7562 134.021 47.7921 132.837 47.7921H131.115L130.565 47.0147C129.046 44.9098 126.08 41.609 124.131 39.8749L123.293 39.1334L121.248 39.6477C117.589 40.5446 113.558 41.2741 109.54 41.7645C108.631 41.8841 107.89 42.0156 107.89 42.0515C107.89 42.0994 108.057 42.6734 108.26 43.3192C108.727 44.862 109.444 47.4453 109.444 47.6366C109.444 47.7562 109.074 47.7921 107.949 47.7921H106.466L106.263 47.0984C106.167 46.7277 105.964 46.034 105.845 45.5796C105.462 44.264 104.876 42.4821 104.78 42.3744C104.732 42.3146 103.943 42.3266 103.034 42.3983C102.137 42.4701 99.5897 42.5897 97.3892 42.6734C93.1674 42.8169 87.2236 42.6854 83.253 42.3505C82.2364 42.2668 81.3634 42.2309 81.3156 42.2787C81.2199 42.3744 80.3588 45.0653 79.9522 46.5842L79.6293 47.7921H78.1582C76.8068 47.7921 76.6753 47.7682 76.6753 47.5768C76.6753 47.3137 77.3569 44.7783 77.8712 43.1398C78.0745 42.5179 78.1941 41.9678 78.1343 41.92C78.0865 41.8841 77.4885 41.7764 76.7949 41.7047C73.5299 41.3339 68.7939 40.4609 65.1702 39.5759L62.9338 39.0258L62.2999 39.5639C60.3744 41.2144 57.2769 44.6109 55.6863 46.7994L54.9687 47.7921H53.2107C52.23 47.7921 51.4407 47.7562 51.4407 47.7203C51.4407 47.5649 53.3542 44.9098 54.4305 43.5465C59.023 37.7939 64.644 33.2732 71.2935 29.9844C76.3643 27.4729 81.3156 26.0018 87.1398 25.2484C88.6109 25.057 92.5097 24.8537 93.4186 24.9135C93.6458 24.9255 94.6504 24.9733 95.6311 24.9972ZM90.0101 52.3487C91.8758 52.5759 92.9283 52.6237 97.9393 52.6596L103.704 52.7075V65.6118H93.4305L93.3588 62.8013L92.6412 62.5143C90.5842 61.701 87.8215 61.2585 84.7479 61.2465C81.7222 61.2465 80.3588 61.5097 79.0552 62.3827C77.7157 63.2557 77.5244 65.0377 78.6366 66.138C79.7967 67.31 81.2199 67.6808 87.5584 68.4701C93.0359 69.1638 95.1527 69.6063 97.8077 70.6467C99.0874 71.149 100.702 72.0938 101.707 72.943C103.19 74.1748 104.409 76.2079 104.971 78.3606C105.39 79.9632 105.51 83.0488 105.211 84.6872C104.696 87.4857 103.644 89.4949 101.719 91.3247C99.6376 93.31 96.9586 94.6136 93.2631 95.4388C89.1849 96.3597 83.4085 96.5032 77.6201 95.8454C75.6348 95.6302 74.4867 95.5823 69.7148 95.5465L64.1178 95.4986V82.7139H74.4029V85.345L74.8694 85.5842C76.3882 86.3496 79.5097 86.9117 82.7985 86.9834C88.4674 87.127 91.0147 86.1224 91.0267 83.7305C91.0267 82.7976 90.7636 82.2953 89.9743 81.7452C88.8261 80.9319 87.2116 80.5612 82.057 79.9034C75.862 79.1021 73.4103 78.54 70.7194 77.2723C66.4259 75.2392 64.3091 72.1417 63.8786 67.2622C63.6394 64.6789 64.058 62.2631 65.0745 60.1582C67.3588 55.4342 72.5851 52.7194 80.6817 52.0497C82.3082 51.9181 87.9292 52.0975 90.0101 52.3487ZM135.277 52.2769C140.611 53.0782 144.857 55.0874 148.145 58.3643C152.152 62.3707 154.089 67.5133 154.077 74.103C154.077 77.2603 153.73 79.6283 152.905 82.1159C150.095 90.5593 142.811 95.6063 132.562 96.2162C127.192 96.5271 121.727 95.4627 117.816 93.3339C115.173 91.8988 112.362 89.3753 110.844 87.0791C109.002 84.2806 107.866 81.0754 107.411 77.3321C107.232 75.8372 107.268 72.058 107.471 70.4913C108.452 63.0764 112.422 57.4554 118.809 54.4296C121.476 53.1739 124.358 52.4204 127.922 52.0497C129.118 51.9301 133.961 52.0736 135.277 52.2769ZM61.0083 63.4591H54.0718V84.9862H61.0083V95.6302L33.4416 95.5704L33.4057 90.2723L33.3818 84.9862H40.3183V63.4591L36.8859 63.4351L33.4416 63.3993L33.4057 58.1012L33.3818 52.8151H61.0083V63.4591ZM55.3873 101.215C56.9062 103.368 60.2309 107.063 62.1086 108.69L62.7902 109.276L64.7397 108.798C68.483 107.877 72.1904 107.195 76.0175 106.729C77.2015 106.585 78.1822 106.454 78.2061 106.442C78.23 106.43 78.0745 105.891 77.8712 105.234C77.3809 103.691 76.6753 101.132 76.6753 100.868C76.6753 100.677 76.8188 100.653 78.1582 100.653H79.6293L79.9522 101.813C80.1316 102.459 80.5023 103.703 80.7654 104.588L81.2677 106.178L81.9375 106.107C85.8004 105.712 95.8703 105.604 100.594 105.915C102.077 106.011 103.632 106.095 104.051 106.095H104.828L105.235 104.839C105.462 104.145 105.821 102.937 106.036 102.148L106.431 100.713L107.937 100.677C108.942 100.653 109.444 100.689 109.444 100.773C109.444 100.976 108.404 104.707 108.081 105.64L107.782 106.501L108.165 106.561C108.38 106.597 109.217 106.717 110.042 106.812C113.546 107.255 117.9 108.08 121.201 108.917C122.911 109.36 123.114 109.384 123.353 109.228C123.927 108.845 126.511 106.274 127.754 104.875C128.472 104.05 129.524 102.77 130.086 102.017L131.127 100.653H132.837C133.782 100.653 134.559 100.701 134.559 100.749C134.559 100.904 132.981 103.177 132.06 104.361C123.808 114.993 111.621 121.786 98.1426 123.281C95.9181 123.52 89.4839 123.484 87.379 123.221C76.4361 121.81 67.2153 117.504 59.2144 110.065C56.4637 107.506 53.0193 103.368 51.5124 100.797C51.4407 100.689 51.8114 100.653 53.2107 100.653H54.9926L55.3873 101.215Z" fill="#E30613"/>
<path d="M91.3735 27.9752C88.6109 28.92 85.9798 31.9098 83.5639 36.8491C83.0138 37.9614 82.5354 38.9779 82.4995 39.0856C82.4397 39.253 82.5354 39.3008 83.0497 39.3606C86.0156 39.6835 93.7893 39.851 98.023 39.6716C103.106 39.4563 103.584 39.4204 103.584 39.1932C103.584 38.8942 101.79 35.2944 101.025 34.0745C99.4701 31.563 97.9273 29.8169 96.3487 28.7764C94.6863 27.7001 93 27.425 91.3735 27.9752ZM84.6881 28.4416C78.2778 29.793 73.0396 31.9577 67.5621 35.5455C66.2226 36.4186 65.7921 36.7893 66.1269 36.7893C66.1748 36.7893 66.9402 36.9568 67.8252 37.1481C70.7194 37.8059 76.759 38.7985 78.8638 38.966L79.3183 39.0018L79.8206 37.8059C81.2797 34.3974 83.552 30.678 85.3937 28.7406C85.8004 28.31 85.8004 28.2981 85.5253 28.31C85.3579 28.322 84.9871 28.3698 84.6881 28.4416ZM100.774 28.8004C101.599 29.7571 102.962 31.6348 103.656 32.747C104.505 34.1224 105.785 36.6339 106.335 38.0331L106.753 39.0736L107.531 39.0018C111.298 38.6311 120.208 37.0644 120.208 36.7654C120.208 36.7056 119.443 36.1555 118.51 35.5455C113.415 32.1849 107.77 29.793 102.161 28.609C100.235 28.2024 100.247 28.2024 100.774 28.8004ZM129.07 62.1555C125.087 62.7654 122.767 65.5998 122.05 70.7185C121.775 72.7157 121.87 77.0092 122.229 78.6835C123.365 83.9218 126.295 86.3735 131.139 86.1463C133.662 86.0267 135.038 85.4765 136.533 83.9696C138.614 81.9006 139.451 79.0423 139.463 74.103C139.463 70.0487 138.877 67.4775 137.465 65.3487C136.485 63.8537 134.894 62.7534 133.124 62.3229C132.132 62.0957 130.063 62 129.07 62.1555ZM87.9172 108.738C84.6881 108.917 82.4756 109.049 82.4397 109.085C82.3441 109.18 83.851 112.278 84.6403 113.641C86.3385 116.559 88.0129 118.521 89.735 119.645C90.8592 120.374 91.5409 120.614 92.6532 120.709C93.7415 120.793 94.5308 120.614 95.7507 119.992C97.126 119.286 99.1113 117.289 100.463 115.244C101.36 113.892 103.584 109.647 103.584 109.288C103.584 109.097 103.333 109.061 101.013 108.905C99.0515 108.774 89.4959 108.654 87.9172 108.738ZM78.0506 109.467C77.8592 109.491 76.7111 109.647 75.5032 109.814C72.6329 110.209 70.3845 110.592 67.8611 111.13C66.2585 111.477 65.828 111.608 65.9236 111.728C66.1389 111.991 69.2843 114.012 70.8629 114.885C74.9531 117.169 79.402 118.856 83.851 119.788C84.7718 119.992 85.5851 120.147 85.6568 120.147C85.7286 120.147 85.5014 119.812 85.1426 119.394C83.2051 117.181 81.3753 114.167 79.8924 110.759L79.3183 109.443L78.8638 109.431C78.6127 109.42 78.2539 109.431 78.0506 109.467ZM106.466 110.137C106.024 111.261 104.541 114.203 103.764 115.483C102.926 116.87 101.91 118.282 101.025 119.298C100.654 119.729 100.379 120.087 100.403 120.123C100.534 120.255 104.601 119.274 106.777 118.58C110.688 117.337 115.615 114.897 119.179 112.445L120.232 111.716L119.598 111.572C116.393 110.831 112.554 110.137 109.504 109.742C108.452 109.611 107.399 109.479 107.172 109.443C106.753 109.396 106.753 109.396 106.466 110.137Z" fill="#E30613"/>
</svg>
