<svg width="186" height="150" viewBox="0 0 186 150" fill="none" xmlns="http://www.w3.org/2000/svg">
<path fill-rule="evenodd" clip-rule="evenodd" d="M133.254 47.7916C126.021 48.1924 120.197 49.423 116.523 51.9312C112.662 54.7151 110.266 57.8938 109.773 61.592C109.442 62.7301 109.372 73.4851 109.375 79.7609L92.5102 88.6145L75.4251 80.089L75.6487 63.4759C75.5298 54.9151 77.8933 46.6536 83.2679 38.7638C86.9993 34.3399 90.5124 28.9894 96.5463 25.4773C97.8214 24.4846 100.04 24.0928 103.379 24.4149C106.462 24.7079 108.838 25.4278 110.742 26.4381C101.242 30.2929 93.6688 35.8491 88.7848 43.7742C85.8581 48.8191 83.9446 54.1517 83.5671 59.917L83.3639 76.2515L88.4944 79.169L88.7794 62.4136C89.3891 54.5001 92.037 48.352 96.2241 43.6959C99.247 40.1134 104.081 36.5926 109.781 33.8316C112.209 32.6764 115.2 32.3337 118.208 33.0423C121.146 33.7593 123.704 34.7666 125.923 36.0319C117.157 37.71 109.27 41.0221 105.345 44.7552C100.635 49.4608 97.2028 54.3 96.6744 59.4408C96.3635 61.5891 96.3227 72.3704 96.2736 78.9454L101.677 76.3529L101.657 61.7688C102.24 57.3044 104.378 53.4868 107.508 50.0762C109.299 48.1284 114.634 44.8365 119.044 43.3243C124.34 41.1761 129.692 44.1139 133.254 47.7916Z" fill="#49A85E"/>
<path fill-rule="evenodd" clip-rule="evenodd" d="M51.7693 47.7916C58.9992 48.1924 64.8269 49.423 68.5001 51.9312C72.3619 54.7151 74.7575 57.8938 75.2512 61.592C75.582 62.7301 75.4281 73.813 75.4251 80.089L92.5102 88.6145L109.375 79.7609L109.375 63.4759C109.494 54.9151 107.128 46.6536 101.756 38.7638C98.0245 34.3399 94.5081 28.9894 88.4775 25.4773C87.2025 24.4846 84.984 24.0928 81.645 24.4149C78.5614 24.7079 76.1861 25.4278 74.2811 26.4381C83.7792 30.2929 91.3551 35.8491 96.2388 43.7742C99.1658 48.8191 101.079 54.1517 101.457 59.917L101.677 76.3529L96.2736 78.9454L96.2444 62.4136C95.6348 54.5001 92.9869 48.352 88.7994 43.6959C85.7768 40.1134 80.9424 36.5926 75.2424 33.8316C72.815 32.6764 69.8211 32.3337 66.8159 33.0423C63.8773 33.7593 61.3194 34.7666 59.101 36.0319C67.8668 37.71 75.7535 41.0221 79.6791 44.7552C84.3891 49.4608 87.8211 54.3 88.3494 59.4408C88.66 61.5891 88.4453 72.591 88.4944 79.169L83.3639 76.2515L83.3639 61.7688C82.7832 57.3044 80.6461 53.4868 77.5159 50.0762C75.7243 48.1284 70.3902 44.8365 65.9798 43.3243C60.6836 41.1761 55.3319 44.1139 51.7693 47.7916Z" fill="#263D93"/>
<path d="M18.2168 107.05L20.7039 102.295H23.5706L21.9994 111.114H20.1718L21.3349 104.585H21.285C20.309 106.409 19.333 108.233 18.357 110.057H16.7798L15.8272 104.585H15.752L14.5889 111.114H12.8364L14.4076 102.295H17.3493L18.1668 107.05H18.2168Z" fill="#263D93"/>
<path d="M25.7229 102.295H27.638L26.0669 111.114H24.1517L25.7229 102.295Z" fill="#263D93"/>
<path d="M31.0652 104.698C30.9959 105.579 30.9125 106.258 30.6413 107.78L30.0474 111.114H28.2198L29.791 102.295H32.0816L33.253 105.767C33.5411 106.61 33.842 107.591 34.0105 108.472H34.0605C34.18 107.239 34.3973 106.019 34.5633 105.088L35.0609 102.295H36.876L35.305 111.114H33.0642L31.7999 107.39C31.5141 106.535 31.3058 105.667 31.1152 104.698H31.0652Z" fill="#263D93"/>
<path d="M39.0285 102.295H40.9437L39.3725 111.114H37.4573L39.0285 102.295Z" fill="#263D93"/>
<path d="M45.6498 108.763C45.8984 107.367 41.8216 107.555 42.3168 104.775C42.5769 103.316 44.0576 102.171 45.8727 102.171C47.3373 102.171 48.13 102.85 48.3507 103.228L46.9083 104.649C46.7427 104.385 46.3404 103.832 45.4141 103.832C44.7882 103.832 44.3751 104.184 44.2966 104.624C44.0434 106.046 48.1122 105.832 47.6123 108.637C47.3771 109.958 46.0592 111.242 43.8311 111.242C42.1412 111.242 41.2242 110.487 40.9844 110.147L42.3557 108.562C42.6641 108.939 43.3066 109.619 44.3707 109.619C45.1342 109.619 45.5667 109.229 45.6498 108.763Z" fill="#263D93"/>
<path d="M50.8376 103.88H48.6596L48.9422 102.295H55.2133L54.9309 103.88H52.7528L51.4642 111.114H49.549L50.8376 103.88Z" fill="#263D93"/>
<path d="M57.4396 106.308H58.1657C59.1794 106.308 59.5835 105.868 59.729 105.05C59.8726 104.245 59.4619 103.88 58.623 103.88H57.8722L57.4396 106.308ZM59.1185 102.295C61.0588 102.295 62.028 103.037 61.6986 104.887C61.4249 106.421 60.471 107.139 59.4087 107.34L59.3997 107.39C59.8226 107.617 60.0522 107.944 60.3331 108.686L61.24 111.114H58.9618L58.0205 108.246C57.9139 107.931 57.6941 107.83 57.2936 107.83H57.1685L56.5836 111.114H54.6931L56.2644 102.295H59.1185Z" fill="#263D93"/>
<path d="M66.2879 108.283L65.7837 111.114H63.8685L64.3726 108.283L62.4856 102.295H64.6134L65.6796 106.359H65.7295L68.2811 102.295H70.3091L66.2879 108.283Z" fill="#263D93"/>
<path d="M76.773 109.644C77.7742 109.644 78.5154 108.927 78.9031 106.75C79.2955 104.549 78.7709 103.769 77.7068 103.769C76.7682 103.769 75.9836 104.448 75.5937 106.637C75.1969 108.864 75.7089 109.644 76.773 109.644ZM76.3755 111.242C74.185 111.242 73.0187 110.059 73.6059 106.763C74.1775 103.555 75.9762 102.171 78.1042 102.171C80.2823 102.171 81.4817 103.379 80.8966 106.662C80.3251 109.87 78.5161 111.242 76.3755 111.242Z" fill="#263D93"/>
<path d="M81.6926 111.114L83.2638 102.295H88.4585L88.1761 103.88H84.8841L84.467 106.22H87.2961L87.0136 107.805H84.1848L83.5953 111.114H81.6926Z" fill="#263D93"/>
<path d="M93.5776 102.295H95.4928L93.9216 111.114H92.0064L93.5776 102.295Z" fill="#263D93"/>
<path d="M98.9198 104.698C98.8506 105.579 98.767 106.258 98.4959 107.78L97.902 111.114H96.0744L97.6456 102.295H99.9363L101.108 105.767C101.396 106.61 101.697 107.591 101.865 108.472H101.915C102.035 107.239 102.252 106.019 102.418 105.088L102.915 102.295H104.731L103.16 111.114H100.919L99.6544 107.39C99.3687 106.535 99.1603 105.667 98.9697 104.698H98.9198Z" fill="#263D93"/>
<path d="M105.869 102.295H107.997L108.497 107.076C108.577 107.893 108.663 108.673 108.689 109.516H108.739C109.047 108.699 109.374 107.918 109.764 107.063L111.965 102.295H113.981L109.593 111.114H107.115L105.869 102.295Z" fill="#263D93"/>
<path d="M113.523 111.114L115.094 102.295H120.289L120.007 103.88H116.714L116.365 105.843H119.194L118.911 107.428H116.082L115.708 109.529H119.151L118.868 111.114H113.523Z" fill="#263D93"/>
<path d="M124.719 108.763C124.968 107.367 120.891 107.555 121.387 104.775C121.647 103.316 123.128 102.171 124.943 102.171C126.407 102.171 127.2 102.85 127.421 103.228L125.978 104.649C125.812 104.385 125.41 103.832 124.484 103.832C123.858 103.832 123.445 104.184 123.366 104.624C123.113 106.046 127.182 105.832 126.682 108.637C126.447 109.958 125.129 111.242 122.901 111.242C121.211 111.242 120.294 110.487 120.054 110.147L121.426 108.562C121.734 108.939 122.376 109.619 123.441 109.619C124.204 109.619 124.637 109.229 124.719 108.763Z" fill="#263D93"/>
<path d="M129.908 103.88H127.73L128.012 102.295H134.283L134.001 103.88H131.823L130.534 111.114H128.619L129.908 103.88Z" fill="#263D93"/>
<path d="M139.169 107.05L141.655 102.295H144.523L142.952 111.114H141.124L142.287 104.585H142.237C141.261 106.409 140.284 108.233 139.309 110.057H137.732L136.779 104.585H136.704L135.541 111.114H133.788L135.359 102.295H138.301L139.119 107.05H139.169Z" fill="#263D93"/>
<path d="M145.004 111.114L146.575 102.295H151.77L151.486 103.88H148.196L147.846 105.843H150.673L150.392 107.428H147.562L147.189 109.529H150.631L150.348 111.114H145.004Z" fill="#263D93"/>
<path d="M154.921 104.698C154.851 105.579 154.768 106.258 154.497 107.78L153.902 111.114H152.076L153.647 102.295H155.936L157.108 105.767C157.397 106.61 157.698 107.591 157.867 108.472H157.916C158.036 107.239 158.252 106.019 158.419 105.088L158.917 102.295H160.731L159.16 111.114H156.92L155.655 107.39C155.37 106.535 155.162 105.667 154.97 104.698H154.921Z" fill="#263D93"/>
<path d="M163.703 103.863H161.525L161.808 102.278H168.078L167.796 103.863H165.618L164.33 111.097H162.414L163.703 103.863Z" fill="#263D93"/>
<path d="M173.163 101.931L167.628 113.115H166.063L171.597 101.931H173.163Z" fill="#263D93"/>
<path d="M80.1242 118.369H79.069L78.7171 120.344H79.6953C80.6477 120.344 81.1071 119.86 81.1979 119.35C81.2954 118.802 81.051 118.369 80.1242 118.369ZM80.879 123.019C81.0173 122.242 80.4133 121.949 79.6797 121.949H78.4313L78.0499 124.09H79.4013C80.3923 124.09 80.7883 123.529 80.879 123.019ZM82.8851 122.956C82.6785 124.115 81.8052 125.695 78.8065 125.695H75.8206L77.4115 116.764H80.6418C82.2377 116.764 83.4575 117.286 83.1375 119.082C82.9581 120.089 82.2141 120.726 81.4889 120.968L81.4798 121.019C82.3239 121.121 83.1097 121.694 82.8851 122.956Z" fill="#49A85E"/>
<path d="M90.4226 116.763H92.6877L89.1083 121.108L91.38 125.695H88.9218L86.9559 121.197L86.9649 121.146L90.4226 116.763ZM86.1033 125.695H84.1341L85.725 116.763H87.6941L86.1033 125.695Z" fill="#49A85E"/>
<path d="M95.7405 118.407L95.2912 120.93H95.9346C97.2474 120.93 97.6304 120.369 97.7529 119.681C97.9096 118.802 97.5423 118.407 96.5383 118.407H95.7405ZM99.834 119.414C99.5366 121.083 98.3922 122.523 95.754 122.523H95.0074L94.4424 125.695H92.4733L94.0641 116.764H97.1529C98.9805 116.764 100.186 117.439 99.834 119.414Z" fill="#49A85E"/>
<path d="M105.728 121.58L108.272 116.763H111.219L109.629 125.695H107.749L108.927 119.082H108.876C107.878 120.93 106.879 122.777 105.881 124.625H104.259L103.265 119.082H103.187L102.009 125.695H100.208L101.799 116.763H104.823L105.677 121.58H105.728Z" fill="#49A85E"/>
</svg>
