<svg width="186" height="150" viewBox="0 0 186 150" fill="none" xmlns="http://www.w3.org/2000/svg">
<path fill-rule="evenodd" clip-rule="evenodd" d="M92.9821 30.5195C113.995 30.5195 131.135 50.4257 131.155 74.8409C131.155 74.8545 131.155 74.868 131.155 74.8817L114.541 74.8817L103.281 63.8066C104.109 62.5317 104.642 61.1436 104.708 59.7498C104.843 56.9333 103.957 54.4483 103.076 51.9779C102.607 50.6611 102.275 49.405 101.565 48.1972C101.671 50.1563 102.081 52.1431 101.806 54.1012C101.651 55.2101 101.262 56.1818 100.478 57.0145C100.816 55.0115 100.885 52.4747 100.569 50.3875C100.091 47.2237 98.1733 44.4509 95.4801 42.6756C96.404 44.3681 97.3328 45.9993 97.8761 47.8506C98.708 50.6828 98.3102 52.7249 97.3712 54.1608C97.279 53.4897 97.2097 52.8096 97.1403 52.131C96.7947 48.7511 96.1897 46.2297 94.3004 43.3765C91.2361 38.7496 92.4256 37.1835 94.0265 31.8966C92.0725 34.1387 89.9313 36.8688 89.2191 39.8009C88.652 42.1343 89.8544 44.2079 89.8724 46.5043C89.8802 47.4898 89.4666 48.4579 89.0532 49.4229C89.1246 48.7857 89.1583 48.1493 88.9978 47.5167C88.5375 45.7034 87.7476 44.0806 86.614 42.5746C86.9467 44.8136 87.2198 47.0404 86.8797 49.2959C86.5282 51.6287 85.1712 53.7003 84.9773 56.0704C84.8676 57.4106 84.9995 58.478 85.1834 59.6659C84.5561 58.648 83.8764 57.5292 83.928 56.5665C84.0202 54.8567 84.2843 53.4801 84.566 52.0093C84.8077 50.7469 85.0148 49.6096 84.9925 48.3285C84.4124 49.564 83.9159 50.8305 83.3637 52.0784C82.4038 54.2475 81.4702 56.3568 81.2748 58.6998C81.1211 60.5437 81.4911 62.4687 82.324 64.1589L71.4222 74.8817L54.8086 74.8817C54.8086 74.8448 54.8096 74.8082 54.8098 74.7715C54.8614 50.3879 71.9887 30.5195 92.9821 30.5195ZM100.921 79.4459C104.813 79.4459 107.988 82.5688 107.988 86.3968C107.988 90.2244 104.813 93.3475 100.921 93.3475C97.0294 93.3475 93.8543 90.2244 93.8543 86.3968C93.8543 83.8049 95.311 81.5362 97.4593 80.3413C97.7079 80.9118 97.847 81.5388 97.8504 82.1963C96.524 83.1382 95.6574 84.6715 95.6574 86.3968C95.6574 89.2478 98.0223 91.574 100.921 91.574C103.82 91.574 106.185 89.2478 106.185 86.3968C106.185 83.5454 103.82 81.2194 100.921 81.2194C100.746 81.2194 100.574 81.2272 100.403 81.2437C100.321 80.6408 100.165 80.0605 99.9435 79.5123C100.263 79.4684 100.589 79.4459 100.921 79.4459ZM85.0427 79.4459C85.3745 79.4459 85.7004 79.4685 86.0202 79.5125C85.7988 80.0607 85.6426 80.6409 85.5608 81.2438C85.3902 81.2274 85.2178 81.2194 85.0427 81.2194C82.1437 81.2194 79.7788 83.5454 79.7788 86.3968C79.7788 89.2478 82.1437 91.574 85.0427 91.574C87.9413 91.574 90.3064 89.2478 90.3064 86.3968C90.3064 84.6715 89.4396 83.1381 88.1133 82.1964C88.1167 81.5389 88.2559 80.9118 88.5047 80.3415C90.6529 81.5364 92.1094 83.8049 92.1094 86.3968C92.1094 90.2244 88.9342 93.3475 85.0427 93.3475C81.1508 93.3475 77.9758 90.2244 77.9758 86.3968C77.9758 82.5688 81.1508 79.4459 85.0427 79.4459ZM92.9821 75.2697C96.8736 75.2697 100.049 78.3926 100.049 82.2206C100.049 84.8124 98.5921 87.0804 96.4435 88.275C96.1947 87.7045 96.0558 87.0778 96.0525 86.42C97.3789 85.4786 98.2458 83.9459 98.2458 82.2206C98.2458 79.3693 95.8807 77.0432 92.9821 77.0432C90.0831 77.0432 87.7182 79.3693 87.7182 82.2206C87.7182 83.9457 88.5849 85.4783 89.9112 86.4197C89.908 87.0776 89.7691 87.7041 89.5202 88.2748C87.3717 87.0801 85.9152 84.8124 85.9152 82.2206C85.9152 78.3926 89.0902 75.2697 92.9821 75.2697ZM92.4646 87.3721C92.635 87.3888 92.8072 87.3979 92.9821 87.3979C93.1568 87.3979 93.3288 87.3888 93.4992 87.3722C93.5812 87.975 93.7372 88.5552 93.9588 89.1035C93.6393 89.1476 93.3137 89.1713 92.9821 89.1713C92.6504 89.1713 92.3246 89.1478 92.0048 89.1037C92.2264 88.5553 92.3828 87.9749 92.4646 87.3721Z" fill="#E31F25"/>
<path d="M92.2298 72.9435C93.2766 71.2089 94.1602 69.7225 96.7318 68.7588C100.439 67.3696 104.264 63.5657 104.447 59.737C104.631 55.9084 102.884 52.6715 101.888 49.2438C102.319 52.933 102.548 55.767 100.066 57.7462C100.513 55.8232 100.436 54.1502 100.43 51.9792C100.422 49.0182 99.1882 45.9433 96.2125 43.4658C99.5064 49.1781 98.9336 52.7309 97.2081 54.826C96.7767 52.1818 96.8158 49.42 95.9137 46.8934C94.8317 43.8624 92.6331 42.3386 92.067 39.1748C91.7282 37.2823 92.7276 34.7825 93.4246 32.9871C91.8647 35.011 90.0786 37.3904 89.4782 39.8603C88.882 42.3138 90.1185 43.9793 90.1389 46.5017C90.1522 48.1563 89.0621 49.7009 88.6307 51.3004C88.5975 50.0599 89.0506 48.7824 88.7449 47.579C88.3416 45.9908 87.9062 45.0566 87.0287 43.555C87.3161 45.4809 87.4302 47.428 87.1428 49.333C86.7957 51.6354 85.4337 53.7702 85.2437 56.0903C85.0957 57.8986 85.3928 59.2003 85.6583 60.9957C84.9945 59.6899 83.5883 58.0104 83.667 56.5527C83.8093 53.9181 84.3566 52.0657 84.7549 49.4542C83.3942 53.045 81.3527 56.1877 81.5128 60.0165C81.6456 63.1879 83.9232 66.752 86.3391 68.0098C88.7327 69.256 91.1345 68.8727 92.2298 72.9435Z" fill="black"/>
<path fill-rule="evenodd" clip-rule="evenodd" d="M92.2298 72.9435C93.2766 71.2089 94.1602 69.7225 96.7318 68.7588C100.439 67.3696 104.264 63.5657 104.447 59.737C104.631 55.9084 102.884 52.6715 101.888 49.2438C102.319 52.933 102.548 55.767 100.066 57.7462C100.513 55.8232 100.436 54.1502 100.43 51.9792C100.422 49.0182 99.1882 45.9433 96.2125 43.4658C99.5064 49.1781 98.9336 52.7309 97.2081 54.826C96.7767 52.1818 96.8158 49.42 95.9137 46.8934C94.8317 43.8624 92.6331 42.3386 92.067 39.1748C91.7282 37.2823 92.7276 34.7825 93.4246 32.9871C91.8647 35.011 90.0786 37.3904 89.4782 39.8603C88.882 42.3138 90.1185 43.9793 90.1389 46.5017C90.1522 48.1563 89.0621 49.7009 88.6307 51.3004C88.5975 50.0599 89.0506 48.7824 88.7449 47.579C88.3416 45.9908 87.9062 45.0566 87.0287 43.555C87.3161 45.4809 87.4302 47.428 87.1428 49.333C86.7957 51.6354 85.4337 53.7702 85.2437 56.0903C85.0957 57.8986 85.3928 59.2003 85.6583 60.9957C84.9945 59.6899 83.5883 58.0104 83.667 56.5527C83.8093 53.9181 84.3566 52.0657 84.7549 49.4542C83.3942 53.045 81.3527 56.1877 81.5128 60.0165C81.6456 63.1879 83.9232 66.752 86.3391 68.0098C88.7327 69.256 91.1345 68.8727 92.2298 72.9435Z" fill="url(#paint0_linear_480_102987)"/>
<path fill-rule="evenodd" clip-rule="evenodd" d="M92.2298 72.944C91.1345 68.8731 88.7326 69.2565 86.3392 68.0103C83.9232 66.7525 81.6457 63.1884 81.5129 60.0169C81.3526 56.1882 83.3941 53.0455 84.7548 49.4545C84.3565 52.0661 83.8093 53.9185 83.6669 56.5532C83.5883 58.0108 84.9945 59.6904 85.6583 60.9962C85.3928 59.2007 85.0957 57.899 85.2437 56.0908C85.4337 53.7706 86.7957 51.6358 87.1429 49.3334C87.4302 47.4284 87.3161 45.4813 87.0286 43.5554C87.9062 45.057 88.3416 45.9912 88.7449 47.5794C89.0506 48.7828 88.5974 50.0604 88.6308 51.3009C89.0621 49.7013 90.1522 48.1567 90.1389 46.5021C90.1186 43.9798 88.882 42.3142 89.4782 39.8608C90.0785 37.3908 91.8646 35.0115 93.4245 32.9875C92.7276 34.783 91.7281 37.2828 92.067 39.1751C92.6331 42.339 94.8316 43.8629 95.9137 46.8939C96.8158 49.4204 96.7767 52.1822 97.2082 54.8265C98.9336 52.7313 99.5063 49.1786 96.2125 43.4662C99.1882 45.9437 100.422 49.0186 100.43 51.9796C100.436 54.1506 100.513 55.8237 100.066 57.7467C102.548 55.7673 102.319 52.9333 101.888 49.2442C102.883 52.6719 104.631 55.9089 104.447 59.7374C104.264 63.566 100.439 67.37 96.7318 68.7593C94.1602 69.7231 93.2766 71.2094 92.2298 72.944ZM92.9821 12.6999C122.452 12.6999 146.489 40.633 146.489 74.8816C146.489 109.13 122.452 137.063 92.9821 137.063C63.5116 137.063 39.475 109.13 39.475 74.8816C39.475 40.633 63.5116 12.6999 92.9821 12.6999ZM51.1763 88.4748L44.7091 89.7113L44.5016 88.6612L47.373 88.1122L44.0804 86.5301L43.8 85.1112L46.7075 86.5949L50.2467 83.771L50.5159 85.1337L47.7642 87.1506L49.0143 87.7984L50.9688 87.4247L51.1763 88.4748ZM53.0806 109.462L58.4106 105.653L59.7603 107.481C60.1057 107.948 60.3042 108.317 60.3565 108.586C60.409 108.854 60.3644 109.138 60.2231 109.435C60.0817 109.733 59.8456 109.999 59.517 110.234C59.1 110.532 58.6914 110.675 58.2918 110.66C57.8914 110.644 57.525 110.479 57.1934 110.164C57.194 110.447 57.1598 110.706 57.0879 110.942C57.0167 111.179 56.8501 111.552 56.5884 112.06L55.9333 113.324L55.1706 112.292L55.8656 110.833C56.117 110.308 56.2665 109.966 56.3116 109.809C56.3576 109.653 56.3655 109.515 56.3399 109.395C56.3129 109.277 56.2254 109.117 56.0775 108.917L55.945 108.738L53.7197 110.328L53.0806 109.462ZM56.7961 108.129L57.2724 108.774C57.5625 109.167 57.7648 109.405 57.879 109.487C57.993 109.57 58.1278 109.606 58.2839 109.597C58.4394 109.586 58.6073 109.519 58.7837 109.393C58.9535 109.271 59.065 109.14 59.1193 109C59.1727 108.859 59.1767 108.718 59.1303 108.576C59.0982 108.476 58.9365 108.232 58.6498 107.843L58.1475 107.164L56.7961 108.129ZM56.8833 114.496L61.7793 110.16L64.4624 113.091L63.6334 113.825L61.6781 111.689L60.593 112.65L62.4099 114.634L61.5856 115.364L59.7689 113.38L58.4364 114.56L60.4574 116.768L59.632 117.499L56.8833 114.496ZM60.9879 118.721L65.5644 114.06L66.8257 115.258C67.2957 115.704 67.5801 116.018 67.6809 116.2C67.8413 116.491 67.8797 116.825 67.7996 117.202C67.7184 117.58 67.4963 117.954 67.1319 118.326C66.8005 118.663 66.4583 118.883 66.1055 118.989C65.7525 119.094 65.4336 119.099 65.1489 119.007C64.8651 118.916 64.485 118.645 64.0105 118.194L63.4962 117.706L61.7702 119.464L60.9879 118.721ZM65.572 115.592L64.2742 116.914L64.7079 117.326C64.9991 117.602 65.2158 117.77 65.3603 117.83C65.5033 117.888 65.6607 117.897 65.8303 117.855C66.0009 117.814 66.1598 117.717 66.31 117.564C66.4613 117.41 66.556 117.246 66.591 117.076C66.626 116.903 66.6102 116.752 66.545 116.619C66.4786 116.486 66.2815 116.266 65.9538 115.954L65.572 115.592ZM69.1712 117.236L70.0623 117.85L68.0158 120.724C67.6972 121.172 67.5006 121.469 67.4273 121.619C67.2991 121.881 67.2647 122.126 67.3215 122.357C67.3793 122.586 67.5296 122.786 67.7721 122.953C67.978 123.095 68.1789 123.165 68.3739 123.165C68.5675 123.163 68.7466 123.099 68.9086 122.971C69.0699 122.845 69.3393 122.516 69.7158 121.987L71.8063 119.051L72.701 119.667L70.716 122.455C70.2093 123.167 69.8034 123.655 69.5015 123.919C69.1975 124.183 68.8411 124.321 68.4299 124.33C68.0177 124.341 67.5899 124.192 67.1464 123.887C66.6853 123.569 66.3827 123.239 66.2401 122.898C66.0966 122.557 66.0728 122.199 66.1664 121.823C66.2596 121.447 66.59 120.862 67.1557 120.067L69.1712 117.236ZM73.9456 120.273L75.8373 121.304C76.3524 121.585 76.6901 121.83 76.8464 122.037C77.0037 122.244 77.0887 122.504 77.101 122.818C77.1132 123.13 77.0353 123.436 76.8687 123.731C76.7148 124.004 76.514 124.218 76.2664 124.371C76.0187 124.524 75.7669 124.6 75.5115 124.599C75.7369 124.85 75.8611 125.137 75.8854 125.46C75.9122 125.784 75.8286 126.116 75.6366 126.456C75.4047 126.868 75.1056 127.162 74.7445 127.336C74.3824 127.511 74.0449 127.557 73.7319 127.474C73.514 127.416 73.0565 127.197 72.3603 126.817L70.7517 125.941L73.9456 120.273ZM74.3651 121.735L73.6267 123.045L74.2558 123.389C74.6329 123.594 74.8701 123.715 74.9673 123.75C75.1439 123.814 75.3078 123.815 75.4621 123.756C75.6152 123.696 75.7448 123.572 75.8512 123.384C75.9456 123.216 75.986 123.06 75.9696 122.915C75.9531 122.77 75.8997 122.656 75.8086 122.572C75.7166 122.489 75.4196 122.31 74.9165 122.036L74.3651 121.735ZM73.0949 123.989L72.2413 125.504L73.1268 125.986C73.5145 126.198 73.7738 126.313 73.9059 126.334C74.0384 126.354 74.1756 126.326 74.3169 126.249C74.4569 126.172 74.5778 126.044 74.6795 125.864C74.7845 125.678 74.8298 125.504 74.8181 125.341C74.8056 125.177 74.7463 125.036 74.6402 124.919C74.5325 124.802 74.2743 124.632 73.8664 124.41L73.0949 123.989ZM76.4194 128.762L78.5469 122.685L79.5753 123.033L77.8093 128.077L80.3751 128.946L80.0135 129.979L76.4194 128.762ZM81.5933 130.428L83.2984 124.169L84.3491 124.445L82.6439 130.705L81.5933 130.428ZM84.5412 131.116L85.6853 124.735L86.7563 124.92L86.2485 127.754L88.9302 125.298L90.3773 125.548L87.9271 127.687L89.339 131.948L87.9493 131.707L87.0209 128.458L85.9581 129.374L85.6124 131.302L84.5412 131.116ZM92.8459 131.989L92.5012 125.518L93.5873 125.462L93.9322 131.934L92.8459 131.989ZM95.8755 131.787L95.3012 125.332L96.3587 125.241L98.9442 129.362L98.5607 125.051L99.5723 124.964L100.147 131.419L99.054 131.513L96.5127 127.49L96.8871 131.7L95.8755 131.787ZM100.472 124.713L102.394 124.206C102.88 124.078 103.262 124.035 103.538 124.077C103.815 124.118 104.092 124.238 104.369 124.437C104.646 124.634 104.899 124.921 105.129 125.293C105.358 125.667 105.554 126.152 105.717 126.753C105.865 127.295 105.93 127.781 105.915 128.214C105.899 128.646 105.827 129.004 105.7 129.289C105.572 129.573 105.39 129.808 105.151 129.998C104.912 130.187 104.582 130.339 104.155 130.451L102.177 130.972L100.472 124.713ZM101.81 125.496L102.939 129.641L103.73 129.432C104.068 129.343 104.305 129.248 104.439 129.145C104.575 129.042 104.674 128.915 104.735 128.763C104.799 128.61 104.824 128.389 104.813 128.099C104.803 127.809 104.736 127.441 104.614 126.994C104.488 126.53 104.355 126.173 104.217 125.922C104.079 125.672 103.921 125.488 103.742 125.371C103.562 125.253 103.368 125.196 103.158 125.2C103 125.201 102.711 125.259 102.288 125.37L101.81 125.496ZM106.8 126.392C106.505 125.675 106.37 125.044 106.396 124.495C106.421 123.947 106.56 123.489 106.814 123.125C107.068 122.76 107.443 122.48 107.938 122.283C108.655 121.998 109.348 122.035 110.021 122.394C110.693 122.753 111.234 123.43 111.643 124.425C112.056 125.429 112.14 126.31 111.894 127.065C111.68 127.733 111.214 128.208 110.494 128.494C109.768 128.782 109.095 128.762 108.473 128.435C107.763 128.059 107.205 127.378 106.8 126.392ZM107.824 125.937C108.108 126.629 108.454 127.093 108.862 127.333C109.271 127.572 109.673 127.614 110.068 127.457C110.465 127.299 110.723 126.997 110.844 126.55C110.964 126.104 110.878 125.526 110.586 124.816C110.3 124.119 109.962 123.654 109.57 123.421C109.18 123.189 108.779 123.155 108.368 123.318C107.957 123.481 107.69 123.782 107.57 124.221C107.45 124.661 107.534 125.232 107.824 125.937ZM114.395 126.564L110.904 121.068L111.804 120.515L116.01 123.032L113.678 119.363L114.54 118.833L118.031 124.329L117.101 124.901L112.979 122.45L115.256 126.034L114.395 126.564ZM119.769 123.172L115.713 118.066L118.872 115.638L119.559 116.502L117.256 118.272L118.155 119.404L120.295 117.759L120.977 118.619L118.838 120.263L119.942 121.653L122.322 119.824L123.006 120.685L119.769 123.172ZM122.615 118.228L123.263 117.387C123.952 117.878 124.528 117.888 124.991 117.417C125.219 117.185 125.337 116.943 125.343 116.691C125.352 116.439 125.263 116.227 125.08 116.053C124.972 115.951 124.858 115.886 124.737 115.862C124.616 115.836 124.483 115.849 124.341 115.898C124.199 115.948 123.892 116.101 123.417 116.359C122.993 116.592 122.647 116.729 122.379 116.768C122.11 116.809 121.835 116.782 121.554 116.689C121.272 116.595 121.021 116.443 120.8 116.232C120.541 115.987 120.365 115.708 120.271 115.396C120.178 115.084 120.178 114.776 120.271 114.472C120.367 114.169 120.56 113.868 120.854 113.568C121.295 113.119 121.763 112.886 122.259 112.87C122.754 112.852 123.24 113.056 123.715 113.48L123 114.291C122.711 114.084 122.462 113.988 122.249 114.004C122.039 114.021 121.831 114.133 121.627 114.34C121.424 114.548 121.31 114.75 121.289 114.946C121.266 115.142 121.32 115.303 121.452 115.428C121.581 115.551 121.74 115.603 121.928 115.585C122.118 115.567 122.444 115.424 122.909 115.159C123.405 114.879 123.8 114.714 124.095 114.661C124.391 114.608 124.684 114.63 124.972 114.728C125.261 114.826 125.548 115.01 125.832 115.281C126.244 115.671 126.467 116.124 126.503 116.639C126.538 117.155 126.296 117.678 125.776 118.207C124.856 119.144 123.802 119.151 122.615 118.228ZM128.385 115.247L123.413 110.996L124.126 110.189L129.098 114.44L128.385 115.247ZM133.113 109.056L132.416 109.999L130.928 109.51L129.66 111.226L130.61 112.445L129.928 113.368L125.834 107.886L126.513 106.967L133.113 109.056ZM129.825 109.147L127.41 108.324L128.958 110.32L129.825 109.147ZM50.0136 82.3213L43.4614 82.9986L43.0423 79.0762L44.1513 78.9617L44.4568 81.82L45.909 81.6699L45.6253 79.014L46.7282 78.9L47.0122 81.5558L48.7954 81.3715L48.4798 78.417L49.5842 78.3028L50.0136 82.3213ZM49.4763 76.5414L42.892 76.3153L42.949 74.7124L47.4749 73.9032L43.0169 72.7945L43.0741 71.1871L49.6583 71.4132L49.6231 72.4069L44.44 72.2288L49.5856 73.4624L49.5489 74.4967L44.3286 75.3652L49.5118 75.5432L49.4763 76.5414ZM49.7977 69.4677L43.2586 68.678L43.7473 64.7635L44.8543 64.8971L44.498 67.7497L45.9473 67.9249L46.2783 65.2743L47.3791 65.4073L47.0482 68.0579L48.8279 68.2728L49.1961 65.3241L50.2984 65.4572L49.7977 69.4677ZM50.5411 63.6774L44.1485 62.1097L44.4054 61.0966L49.2087 60.0339L44.94 58.9871L45.1858 58.018L51.5784 59.5857L51.313 60.6323L46.6177 61.6858L50.7867 62.7082L50.5411 63.6774ZM52.5291 56.5966L47.3542 54.844L46.8318 56.336L45.7773 55.9791L47.1746 51.9876L48.2291 52.3448L47.7082 53.8326L52.8831 55.5853L52.5291 56.5966ZM53.9303 52.5948L48.0603 49.6528L49.8805 46.1388L50.8742 46.6368L49.5477 49.1977L50.8487 49.8498L52.0814 47.4703L53.0696 47.9656L51.8369 50.3451L53.4346 51.1457L54.8058 48.4987L55.7954 48.9947L53.9303 52.5948ZM56.5799 47.3677L50.9927 43.9337L52.2096 42.0184C52.5209 41.5282 52.7944 41.2088 53.0279 41.0606C53.2614 40.9122 53.5454 40.8467 53.878 40.8642C54.2125 40.8815 54.5514 40.9971 54.896 41.209C55.3332 41.4777 55.6207 41.7967 55.7566 42.1666C55.8914 42.5377 55.8732 42.9339 55.7002 43.3542C55.9668 43.2475 56.224 43.1816 56.4736 43.1589C56.724 43.1349 57.1376 43.1472 57.7146 43.1956L59.1518 43.3192L58.4642 44.4016L56.8284 44.3144C56.2397 44.2817 55.8614 44.2735 55.6964 44.2911C55.5322 44.3077 55.399 44.3521 55.2959 44.4204C55.1941 44.4895 55.0765 44.629 54.9432 44.8389L54.8237 45.0268L57.1562 46.4605L56.5799 47.3677ZM53.9314 44.4784L54.3606 43.8028C54.6223 43.3909 54.7709 43.1173 54.8058 42.9824C54.841 42.8475 54.8245 42.7111 54.7575 42.5719C54.6893 42.4341 54.5626 42.3064 54.3778 42.1927C54.1997 42.0832 54.0336 42.0312 53.882 42.0338C53.7292 42.0378 53.5948 42.0869 53.4782 42.1824C53.396 42.2493 53.2261 42.4882 52.9675 42.8952L52.5148 43.6078L53.9314 44.4784ZM59.988 42.1717L54.7264 38.2719L55.3811 37.4176L60.6426 41.3174L59.988 42.1717ZM65.0934 36.1724L64.2998 37.0391L62.8711 36.3991L61.428 37.9756L62.2429 39.2861L61.467 40.1336L57.9783 34.2604L58.7509 33.4162L65.0934 36.1724ZM61.813 35.9249L59.4991 34.8583L60.8265 37.0023L61.813 35.9249ZM66.115 35.2525L61.8801 30.2884L62.6934 29.6173L67.2145 31.5346L64.3865 28.2198L65.1644 27.5779L69.3993 32.5419L68.5592 33.2352L64.1311 31.3731L66.8929 34.6105L66.115 35.2525ZM72.853 30.1041L69.7601 24.3825L71.3082 23.5729C71.8851 23.2712 72.2769 23.1022 72.4838 23.064C72.8143 23.004 73.1495 23.0712 73.4893 23.2627C73.8298 23.4554 74.1227 23.779 74.3691 24.2346C74.593 24.6488 74.7003 25.0369 74.6932 25.3996C74.6858 25.7622 74.5927 26.0623 74.4156 26.3C74.2395 26.5373 73.8604 26.8093 73.278 27.1138L72.6468 27.4439L73.8134 29.6019L72.853 30.1041ZM71.2439 24.8488L72.121 26.4713L72.6533 26.193C73.0109 26.006 73.2403 25.8552 73.3424 25.7386C73.4429 25.6227 73.5005 25.4783 73.5118 25.3065C73.5246 25.1342 73.4802 24.9557 73.3787 24.7679C73.2764 24.5786 73.1474 24.4395 72.9935 24.3542C72.8376 24.2683 72.6865 24.2362 72.5374 24.2559C72.3891 24.2774 72.1149 24.3934 71.7124 24.6038L71.2439 24.8488ZM78.0697 27.4466L75.7087 21.3969L79.4522 19.9836L79.8517 21.0076L77.1238 22.0376L77.6471 23.3785L80.1819 22.4213L80.5794 23.4398L78.0446 24.3969L78.6871 26.0434L81.5069 24.9787L81.9048 25.9986L78.0697 27.4466ZM83.6324 25.549L82.3752 19.1881L83.9758 18.8821L85.7956 23.0374L85.8912 18.5159L87.4964 18.2091L88.7535 24.57L87.7612 24.7598L86.7716 19.7524L86.7072 24.9613L85.6742 25.1587L83.6396 20.3512L84.6291 25.3586L83.6324 25.549ZM90.6152 17.9845L91.7026 17.9658L91.7649 21.4746C91.7746 22.0205 91.7932 22.375 91.8237 22.5389C91.8763 22.8248 91.9951 23.0429 92.179 23.1969C92.3626 23.3491 92.6035 23.4235 92.8995 23.4183C93.1511 23.414 93.3554 23.3546 93.5131 23.2419C93.6689 23.129 93.7752 22.9732 93.83 22.7761C93.8849 22.5806 93.9066 22.1591 93.8951 21.5135L93.8315 17.9292L94.9234 17.9105L94.9839 21.3138C94.9992 22.1827 94.9628 22.8126 94.8762 23.2003C94.7879 23.5895 94.5819 23.9071 94.2549 24.1525C93.9279 24.3996 93.4928 24.5262 92.9515 24.5356C92.3886 24.5453 91.9466 24.4532 91.6273 24.2596C91.3078 24.0674 91.0742 23.7907 90.9252 23.4325C90.7761 23.0745 90.6937 22.4105 90.6766 21.4405L90.6152 17.9845ZM97.9814 18.221L99.9515 18.4933C100.45 18.5621 100.819 18.6696 101.057 18.8138C101.295 18.9577 101.502 19.1754 101.678 19.4648C101.855 19.7528 101.974 20.1135 102.038 20.5445C102.1 20.9765 102.087 21.4989 101.999 22.1144C101.92 22.6702 101.787 23.1425 101.601 23.5358C101.415 23.9274 101.206 24.2292 100.976 24.4426C100.746 24.6547 100.485 24.8014 100.189 24.8841C99.8941 24.9666 99.53 24.9788 99.0925 24.9182L97.0644 24.6379L97.9814 18.221ZM98.9017 19.4559L98.2945 23.7048L99.1058 23.8169C99.452 23.8648 99.7087 23.8683 99.8728 23.8256C100.038 23.783 100.18 23.7034 100.297 23.5872C100.416 23.471 100.527 23.2776 100.633 23.0058C100.738 22.7354 100.823 22.3709 100.888 21.9122C100.956 21.437 100.976 21.0574 100.949 20.7731C100.921 20.4906 100.849 20.2596 100.73 20.0833C100.611 19.9054 100.456 19.7788 100.261 19.7014C100.114 19.6417 99.8252 19.5835 99.3925 19.5237L98.9017 19.4559ZM107.922 27.3874L106.795 27.0269L106.808 25.483L104.757 24.8274L103.871 26.0926L102.768 25.7402L106.804 20.2165L107.903 20.5676L107.922 27.3874ZM106.818 24.3393L106.867 21.8261L105.416 23.8911L106.818 24.3393ZM114.235 23.3583L115.94 24.3661C116.371 24.6211 116.668 24.8617 116.83 25.0858C116.992 25.31 117.096 25.59 117.143 25.9238C117.192 26.2572 117.158 26.6348 117.045 27.0561C116.931 27.4777 116.712 27.9538 116.386 28.4866C116.093 28.9675 115.783 29.3514 115.455 29.6416C115.128 29.9308 114.816 30.1283 114.519 30.2362C114.223 30.3429 113.925 30.3776 113.62 30.3404C113.316 30.3027 112.976 30.174 112.597 29.9502L110.841 28.9127L114.235 23.3583ZM114.591 24.8486L112.344 28.5266L113.047 28.9416C113.346 29.1186 113.581 29.2205 113.749 29.2443C113.919 29.2686 114.08 29.2498 114.234 29.1879C114.39 29.1266 114.569 28.9915 114.774 28.7817C114.979 28.5733 115.201 28.2703 115.444 27.8731C115.695 27.4618 115.865 27.1202 115.952 26.848C116.039 26.5771 116.064 26.3368 116.024 26.1288C115.986 25.9195 115.893 25.7431 115.745 25.5971C115.633 25.4858 115.391 25.3211 115.016 25.0997L114.591 24.8486ZM119.941 35.3222L119.032 34.5725L119.633 33.1458L117.981 31.7823L116.678 32.629L115.789 31.8958L121.635 28.2614L122.52 28.9916L119.941 35.3222ZM120.078 32.0891L121.081 29.7773L118.948 31.1571L120.078 32.0891ZM121.027 36.2893L125.923 31.9534L126.633 32.7292L124.843 37.2402L128.112 34.3447L128.792 35.0871L123.896 39.4231L123.162 38.6215L124.9 34.2038L121.707 37.0316L121.027 36.2893ZM128.931 40.7881C129.582 40.3561 130.182 40.0948 130.733 40.0058C131.284 39.9153 131.768 39.9545 132.183 40.1231C132.598 40.2917 132.955 40.5936 133.254 41.0287C133.686 41.6592 133.794 42.334 133.577 43.0566C133.359 43.7779 132.799 44.4391 131.894 45.0391C130.981 45.6448 130.123 45.9088 129.321 45.8293C128.612 45.7624 128.043 45.4123 127.609 44.7794C127.171 44.1414 127.052 43.4892 127.247 42.8224C127.473 42.0613 128.035 41.383 128.931 40.7881ZM129.596 41.6793C128.968 42.0961 128.578 42.5258 128.424 42.9681C128.271 43.4116 128.313 43.8064 128.551 44.1542C128.79 44.5032 129.145 44.6884 129.614 44.7118C130.084 44.7352 130.64 44.5317 131.286 44.1032C131.919 43.6829 132.311 43.2612 132.461 42.8357C132.611 42.4123 132.562 42.0193 132.314 41.6578C132.066 41.2962 131.711 41.1022 131.251 41.0783C130.788 41.054 130.237 41.2541 129.596 41.6793ZM129.851 48.4268L135.673 45.509L136.167 46.4621L131.334 48.8841L132.566 51.2622L131.577 51.7583L129.851 48.4268ZM133.814 57.7566L133.428 56.6538L134.69 55.7351L133.987 53.7293L132.427 53.7949L132.05 52.7166L138.964 52.5627L139.34 53.6369L133.814 57.7566ZM135.624 55.0547L137.695 53.5812L135.145 53.6837L135.624 55.0547ZM134.192 59.2181L140.585 57.6504L140.848 58.6884L138.333 59.3052L138.85 61.3474L141.366 60.7307L141.63 61.7728L135.237 63.3405L134.973 62.2982L137.768 61.6128L137.251 59.5705L134.456 60.2561L134.192 59.2181ZM135.675 65.2954L142.214 64.5057L142.494 66.7475C142.566 67.3211 142.557 67.7384 142.471 67.9984C142.384 68.2579 142.205 68.4849 141.936 68.677C141.665 68.8708 141.327 68.9907 140.924 69.0395C140.412 69.1012 139.985 69.0311 139.643 68.8278C139.3 68.623 139.061 68.3038 138.927 67.8699C138.787 68.1179 138.63 68.3284 138.45 68.5004C138.271 68.6741 137.942 68.9206 137.462 69.2401L136.267 70.0336L136.108 68.7667L137.435 67.822C137.914 67.4831 138.213 67.2552 138.33 67.1395C138.447 67.0249 138.522 66.9079 138.558 66.7911C138.594 66.6744 138.596 66.4933 138.565 66.2476L138.537 66.0275L135.808 66.3572L135.675 65.2954ZM139.582 65.9014L139.681 66.6921C139.741 67.1742 139.8 67.4787 139.859 67.6053C139.919 67.7319 140.019 67.8278 140.16 67.8944C140.301 67.9593 140.481 67.9801 140.697 67.954C140.906 67.9288 141.068 67.8666 141.184 67.7706C141.3 67.673 141.374 67.5515 141.403 67.4053C141.424 67.3023 141.403 67.0115 141.344 66.5353L141.24 65.7012L139.582 65.9014ZM136.426 76.239L136.384 75.0734L137.864 74.5578L137.789 72.4376L136.277 72.0517L136.236 70.9119L142.894 72.753L142.934 73.8884L136.426 76.239ZM138.96 74.176L141.378 73.3622L138.909 72.7268L138.96 74.176ZM138.585 80.4051L139.69 80.5194L139.444 82.8181L136.834 82.5482C136.581 82.2885 136.378 81.9352 136.224 81.4899C136.069 81.0446 136.016 80.6081 136.061 80.1792C136.117 79.6584 136.296 79.2113 136.599 78.8406C136.903 78.4684 137.327 78.1922 137.872 78.0134C138.417 77.8346 139.04 77.7807 139.743 77.8533C140.465 77.928 141.069 78.1102 141.556 78.3988C142.043 78.6873 142.394 79.0329 142.607 79.4357C142.819 79.8386 142.898 80.3032 142.842 80.827C142.775 81.4572 142.557 81.946 142.19 82.2918C141.823 82.6377 141.32 82.8314 140.675 82.874L140.542 81.7938C140.888 81.7505 141.161 81.6317 141.362 81.4385C141.563 81.2469 141.68 81.0042 141.711 80.7102C141.76 80.2569 141.619 79.8691 141.291 79.5515C140.963 79.2324 140.43 79.0363 139.693 78.96C138.904 78.8785 138.287 78.968 137.844 79.2302C137.461 79.4545 137.246 79.7903 137.199 80.2345C137.176 80.4431 137.203 80.6643 137.278 80.8997C137.355 81.1336 137.47 81.3472 137.623 81.542L138.455 81.6281L138.585 80.4051ZM134.677 88.9991L134.903 87.8541L136.463 87.679L136.875 85.5966L135.49 84.8861L135.711 83.7665L141.777 87.0336L141.557 88.1486L134.677 88.9991ZM137.619 87.5495L140.161 87.2916L137.9 86.1261L137.619 87.5495ZM50.7963 94.7334L51.5216 96.7456L53.6911 96.802L51.969 98.102L52.5855 100.149L50.7963 98.9404L49.0068 100.149L49.6235 98.102L47.9014 96.802L50.071 96.7456L50.7963 94.7334ZM135.168 94.7334L135.893 96.7456L138.062 96.802L136.34 98.102L136.957 100.149L135.168 98.9404L133.378 100.149L133.995 98.102L132.273 96.802L134.442 96.7456L135.168 94.7334ZM92.9821 29.3251C114.573 29.3251 132.183 49.7899 132.183 74.8816C132.183 99.9732 114.573 120.438 92.9821 120.438C71.3909 120.438 53.781 99.9732 53.781 74.8816C53.781 49.7899 71.3909 29.3251 92.9821 29.3251ZM85.0432 79.0323C85.4342 79.0323 85.8179 79.0619 86.193 79.1191C86.6044 78.2524 87.1819 77.4772 87.8856 76.8327L87.8856 68.9575C87.3417 68.7502 86.7781 68.5327 86.2141 68.2391C84.7713 67.488 83.6157 66.3413 82.7827 64.9887L79.8848 67.839L79.8848 81.0659C81.2291 79.8065 83.0466 79.0323 85.0432 79.0323ZM88.8065 76.1128C90.0007 75.3199 91.4383 74.8561 92.9823 74.8561C94.5267 74.8561 95.9636 75.3201 97.1574 76.1132L97.1574 68.9241C95.6681 69.6677 94.3861 70.2889 93.0415 72.1749C92.7118 72.6376 92.4255 73.1231 92.1342 73.6092C92.0114 73.1526 91.8963 72.6937 91.7335 72.249C91.0978 70.5152 90.0378 69.8383 88.8065 69.3194L88.8065 76.1128ZM97.6738 76.4889C98.561 77.1934 99.2827 78.0924 99.7702 79.1193C100.146 79.0619 100.53 79.0323 100.922 79.0323C102.021 79.0323 103.066 79.2671 104.008 79.6886L106.618 77.1209L107.27 77.7612L104.856 80.1352C106.985 81.436 108.408 83.7576 108.408 86.3969C108.408 90.4539 105.046 93.7609 100.922 93.7609C99.9161 93.7609 98.9553 93.5638 98.0782 93.2075L98.0782 118.847C97.7723 118.895 97.4654 118.939 97.1574 118.978L97.1574 92.7586C95.8418 92.0021 94.7801 90.8627 94.132 89.4973C93.7571 89.5545 93.3733 89.5847 92.9823 89.5847C92.5912 89.5847 92.2063 89.5545 91.8311 89.4972C91.1831 90.8623 90.1215 92.0016 88.8065 92.7581L88.8065 118.978C88.4983 118.939 88.1916 118.895 87.8856 118.847L87.8856 93.2074C87.0085 93.5636 86.0489 93.7609 85.0432 93.7609C80.9178 93.7609 77.5555 90.4539 77.5555 86.3969C77.5555 85.3003 77.8017 84.2581 78.2419 83.3214L73.1274 83.3214L72.2066 83.3215L72.2066 75.391L69.7559 77.8015L69.7559 85.8574L81.0061 96.9229L81.0061 116.998C80.6977 116.879 80.3904 116.756 80.0854 116.628C65.3742 110.459 54.8088 94.0593 54.8088 74.8816L71.4224 74.8816L82.3242 64.1588C81.4914 62.4688 81.1213 60.5435 81.275 58.6997C81.4704 56.3569 82.404 54.2476 83.3639 52.0784C83.9161 50.8304 84.4125 49.5637 84.9929 48.3284C85.015 49.6094 84.8079 50.7469 84.5662 52.0092C84.2844 53.4799 84.0204 54.8566 83.9282 56.5665C83.8765 57.5291 84.5563 58.648 85.1835 59.6659C84.9996 58.4779 84.8679 57.4106 84.9775 56.0704C85.1714 53.7002 86.5284 51.6287 86.8798 49.2959C87.2198 47.0404 86.9469 44.8135 86.6142 42.5746C87.7478 44.0804 88.5377 45.7033 88.9979 47.5167C89.1585 48.1495 89.1248 48.7856 89.0533 49.4229C89.4668 48.4579 89.8804 47.4898 89.8728 46.5043C89.8546 44.2079 88.6522 42.1343 89.2193 39.8009C89.9314 36.8687 92.0727 34.1387 94.0265 31.8966C92.4257 37.1834 91.2363 38.7495 94.3006 43.3765C96.1899 46.2297 96.7949 48.7511 97.1405 52.1307C97.2099 52.8097 97.2792 53.4897 97.3713 54.1608C98.3104 52.7249 98.7081 50.6828 97.8765 47.8505C97.333 45.9992 96.4042 44.3681 95.4803 42.6756C98.1735 44.4508 100.091 47.2237 100.569 50.3875C100.885 52.4749 100.816 55.0115 100.478 57.0145C101.262 56.1818 101.651 55.2101 101.807 54.1012C102.082 52.143 101.671 50.1562 101.565 48.1971C102.275 49.4049 102.607 50.6611 103.076 51.9778C103.957 54.4482 104.843 56.9332 104.708 59.7497C104.642 61.1434 104.109 62.5319 103.282 63.8068L114.541 74.8816L131.155 74.8816C131.155 94.0598 120.59 110.46 105.878 116.629C105.573 116.757 105.266 116.88 104.958 116.999L104.958 96.9229L116.208 85.8574L116.208 77.8014L106.56 68.3116L98.0782 76.6536L97.6738 76.4889ZM78.7485 82.4157C78.8178 82.3104 78.8897 82.2071 78.9639 82.1055L78.9639 68.7446L73.1274 74.4854L73.1274 82.4157L78.7485 82.4157ZM102.747 64.562L105.909 67.6713L98.0782 75.373L98.0782 68.452C98.6656 68.1372 99.2891 67.7676 99.9618 67.2722C101.006 66.5035 101.967 65.5797 102.747 64.562ZM87.8856 87.6074L87.8856 90.2792C87.085 90.8486 86.1031 91.1851 85.043 91.1851C82.3605 91.1852 80.1742 89.0348 80.1742 86.3967C80.1742 85.2276 80.604 84.1543 81.3155 83.3214L85.5783 83.3214C85.8362 85.0017 86.6747 86.4986 87.8856 87.6074ZM88.8065 89.4271L88.8065 88.3276C88.9783 88.4417 89.1552 88.5491 89.3365 88.649C89.1856 88.9257 89.0075 89.186 88.8065 89.4271ZM97.1574 88.3265L97.1574 89.4286C96.9558 89.1872 96.7779 88.9263 96.6267 88.649C96.8086 88.5487 96.9854 88.4409 97.1574 88.3265ZM98.0782 90.2799L98.0782 87.6062C99.5476 86.2606 100.469 84.3439 100.469 82.2207C100.469 82.0223 100.461 81.8254 100.445 81.6309C100.602 81.6157 100.761 81.608 100.921 81.608C103.603 81.608 105.79 83.7584 105.79 86.3967C105.79 89.0348 103.603 91.1851 100.921 91.1851C99.8616 91.1851 98.8789 90.849 98.0782 90.2799ZM85.4973 82.4157L82.3419 82.4157C83.1153 81.9059 84.0448 81.608 85.043 81.608C85.2036 81.608 85.3619 81.6157 85.5185 81.6309C85.5026 81.8254 85.4947 82.0223 85.4947 82.2207C85.4947 82.2861 85.4957 82.351 85.4973 82.4157ZM97.1574 83.3631L97.1574 84.6776C96.8706 85.1471 96.5046 85.5647 96.0773 85.9121C96.1762 84.951 96.5654 84.0724 97.1574 83.3631ZM97.1574 79.763L97.1574 80.0337C96.1357 80.6212 95.2668 81.4395 94.6262 82.4157L91.3368 82.4157C90.6962 81.44 89.8277 80.6216 88.8065 80.0341L88.8065 79.7611C89.6591 78.367 91.2127 77.4319 92.9823 77.4319C94.7521 77.4319 96.3051 78.3678 97.1574 79.763ZM91.8437 83.3214L94.1191 83.3214C93.6791 84.258 93.4339 85.3001 93.4339 86.3969C93.4339 86.5953 93.4418 86.7914 93.4577 86.9859C93.3012 87.001 93.1428 87.009 92.9823 87.009C92.8215 87.009 92.6624 87.001 92.5056 86.9859C92.5214 86.7914 92.53 86.5953 92.53 86.3969C92.53 85.3001 92.2838 84.258 91.8437 83.3214ZM88.8065 84.6792L88.8065 83.3644C89.3981 84.0734 89.7876 84.9518 89.8863 85.9124C89.4594 85.5655 89.0931 85.1479 88.8065 84.6792ZM100.921 79.4459C104.813 79.4459 107.988 82.5688 107.988 86.3967C107.988 90.2244 104.813 93.3475 100.921 93.3475C97.0294 93.3475 93.8544 90.2244 93.8544 86.3967C93.8544 83.8049 95.3111 81.5362 97.4593 80.3413C97.7079 80.9117 97.8471 81.5387 97.8505 82.1963C96.5241 83.1381 95.6574 84.6714 95.6574 86.3967C95.6574 89.2478 98.0223 91.574 100.921 91.574C103.82 91.574 106.185 89.2478 106.185 86.3967C106.185 83.5454 103.82 81.2194 100.921 81.2194C100.746 81.2194 100.574 81.2272 100.403 81.2436C100.321 80.6408 100.165 80.0604 99.9436 79.5123C100.263 79.4684 100.589 79.4459 100.921 79.4459ZM85.0427 79.4459C85.3745 79.4459 85.7004 79.4685 86.0203 79.5125C85.7989 80.0607 85.6426 80.6409 85.5608 81.2438C85.3902 81.2274 85.2178 81.2194 85.0427 81.2194C82.1437 81.2194 79.7789 83.5454 79.7789 86.3967C79.7789 89.2478 82.1437 91.574 85.0427 91.574C87.9414 91.574 90.3064 89.2478 90.3064 86.3967C90.3064 84.6714 89.4397 83.138 88.1134 82.1963C88.1167 81.5389 88.256 80.9117 88.5047 80.3415C90.653 81.5363 92.1094 83.8049 92.1094 86.3967C92.1094 90.2244 88.9343 93.3475 85.0427 93.3475C81.1509 93.3475 77.9758 90.2244 77.9758 86.3967C77.9758 82.5688 81.1509 79.4459 85.0427 79.4459ZM92.9821 75.2697C96.8736 75.2697 100.049 78.3926 100.049 82.2206C100.049 84.8124 98.5921 87.0804 96.4435 88.2749C96.1947 87.7045 96.0559 87.0778 96.0526 86.42C97.379 85.4786 98.2458 83.9458 98.2458 82.2206C98.2458 79.3692 95.8807 77.0432 92.9821 77.0432C90.0831 77.0432 87.7182 79.3692 87.7182 82.2206C87.7182 83.9457 88.585 85.4782 89.9113 86.4197C89.908 87.0775 89.7691 87.7041 89.5202 88.2748C87.3717 87.0801 85.9152 84.8124 85.9152 82.2206C85.9152 78.3926 89.0902 75.2697 92.9821 75.2697ZM92.4646 87.372C92.635 87.3888 92.8073 87.3978 92.9821 87.3978C93.1569 87.3978 93.3289 87.3888 93.4992 87.3722C93.5812 87.975 93.7373 88.5551 93.9589 89.1034C93.6394 89.1475 93.3137 89.1712 92.9821 89.1712C92.6505 89.1712 92.3246 89.1477 92.0048 89.1036C92.2264 88.5552 92.3828 87.9749 92.4646 87.372Z" fill="white"/>
<path fill-rule="evenodd" clip-rule="evenodd" d="M92.9821 29.3251C114.573 29.3251 132.183 49.7899 132.183 74.8817C132.183 99.9732 114.573 120.438 92.9821 120.438C71.391 120.438 53.781 99.9732 53.781 74.8817C53.781 49.7899 71.391 29.3251 92.9821 29.3251ZM104.007 79.6891L106.619 77.121L107.27 77.7612L104.855 80.1357C106.985 81.4363 108.408 83.7576 108.408 86.3969C108.408 90.4539 105.046 93.7609 100.922 93.7609C99.9156 93.7609 98.9556 93.5635 98.0782 93.2073L98.0782 118.846C97.7723 118.893 97.4655 118.937 97.1574 118.976L97.1574 92.7582C95.8421 92.0018 94.7801 90.8627 94.132 89.4973C93.7571 89.5546 93.3733 89.5847 92.9824 89.5847C92.5912 89.5847 92.2063 89.5546 91.8311 89.4972C91.1832 90.8627 90.1217 92.0019 88.8065 92.7585L88.8065 118.976C88.4984 118.937 88.1914 118.893 87.8857 118.845L87.8857 93.2077C87.0086 93.5639 86.0485 93.7609 85.0432 93.7609C80.9178 93.7609 77.5555 90.4539 77.5555 86.3969C77.5555 85.3001 77.802 84.2579 78.242 83.3215L73.1274 83.3215L72.2066 83.3215L72.2066 75.391L69.756 77.8015L69.756 85.8575L81.0062 96.9229L81.0062 116.998C65.817 111.138 54.8088 94.4571 54.8088 74.8817C54.8088 50.4477 71.9571 30.5195 92.9821 30.5195C114.007 30.5195 131.155 50.4477 131.155 74.8817C131.155 94.4572 120.147 111.138 104.958 116.998L104.958 96.9229L116.208 85.8575L116.208 77.8015L106.56 68.3116L98.0782 76.6536L98.0782 76.8332C98.7816 77.4778 99.3589 78.2528 99.7702 79.1193C100.146 79.0619 100.53 79.0323 100.922 79.0323C102.021 79.0323 103.066 79.2676 104.007 79.6891ZM102.748 64.5624L105.909 67.6713L98.0782 75.373L98.0782 68.4525C98.6657 68.1377 99.2887 67.7678 99.9619 67.2722C101.006 66.5036 101.967 65.5798 102.748 64.5624ZM98.0782 90.2795L98.0782 87.6069C99.5479 86.2612 100.469 84.3443 100.469 82.2207C100.469 82.0223 100.461 81.8254 100.445 81.6309C100.602 81.6157 100.761 81.6081 100.921 81.6081C103.603 81.6081 105.79 83.7584 105.79 86.3967C105.79 89.0348 103.603 91.1852 100.921 91.1852C99.8614 91.1852 98.8789 90.8487 98.0782 90.2795ZM88.8065 89.428L88.8065 88.3271C88.9783 88.4412 89.1548 88.5489 89.3365 88.649C89.1856 88.9261 89.0078 89.1867 88.8065 89.428ZM88.8065 84.6782L88.8065 83.3638C89.3984 84.073 89.7876 84.9515 89.8864 85.9124C89.4592 85.5652 89.0935 85.1476 88.8065 84.6782ZM91.8444 83.3215L94.1201 83.3215C93.6801 84.258 93.4339 85.3001 93.4339 86.3969C93.4339 86.5953 93.4418 86.7915 93.4577 86.9859C93.3012 87.001 93.1428 87.009 92.9823 87.009C92.8215 87.009 92.6624 87.001 92.5056 86.9859C92.5214 86.7915 92.53 86.5953 92.53 86.3969C92.53 85.3001 92.2846 84.258 91.8444 83.3215ZM97.1574 83.3635L97.1574 84.6786C96.8706 85.1476 96.5043 85.5649 96.0773 85.9121C96.1762 84.9511 96.5655 84.0727 97.1574 83.3635ZM97.1574 88.3273L97.1574 89.4282C96.956 89.187 96.7777 88.9261 96.6267 88.649C96.8083 88.5489 96.9856 88.4415 97.1574 88.3273ZM81.3155 83.3215L85.5789 83.3215C85.837 85.0015 86.6751 86.4979 87.8856 87.6066L87.8857 90.2798C87.085 90.8489 86.1029 91.1852 85.043 91.1852C82.3605 91.1852 80.1742 89.0348 80.1742 86.3968C80.1742 85.2277 80.6041 84.1543 81.3155 83.3215ZM73.1274 74.4854L78.964 68.7446L78.964 82.1055C78.8896 82.2071 78.8178 82.3104 78.7485 82.4157L73.1274 82.4157L73.1274 74.4854ZM79.8848 67.839L82.7827 64.9887C83.6158 66.3413 84.7713 67.4881 86.2141 68.2392C86.7782 68.5327 87.3417 68.7503 87.8856 68.9575L87.8856 76.8338C87.1825 77.4782 86.6041 78.2528 86.193 79.1191C85.8179 79.0619 85.4342 79.0323 85.0432 79.0323C83.0466 79.0323 81.2288 79.8067 79.8848 81.0662L79.8848 67.839ZM85.4977 82.4157L82.3419 82.4157C83.1153 81.9059 84.0448 81.6081 85.043 81.6081C85.2036 81.6081 85.3619 81.6157 85.5185 81.6309C85.5027 81.8254 85.4947 82.0223 85.4947 82.2207C85.4947 82.2861 85.4958 82.351 85.4977 82.4157ZM97.1574 68.9246L97.1574 76.1128C95.9636 75.3199 94.5264 74.8561 92.9824 74.8561C91.4378 74.8561 90.0005 75.3199 88.8065 76.1132L88.8065 69.3194C90.0379 69.8383 91.0978 70.5153 91.7335 72.249C91.8964 72.6937 92.0114 73.1527 92.1342 73.6092C92.4255 73.1231 92.7119 72.6377 93.0415 72.1749C94.386 70.2893 95.6685 69.6678 97.1574 68.9246ZM97.1574 79.7624L97.1574 80.0345C96.1359 80.622 95.2674 81.4399 94.6268 82.4157L91.3374 82.4157C90.6965 81.4399 89.828 80.622 88.8065 80.0345L88.8065 79.7629C89.659 78.3682 91.2123 77.4319 92.9823 77.4319C94.7516 77.4319 96.3049 78.368 97.1574 79.7624ZM51.1763 88.4748L44.7091 89.7114L44.5016 88.6613L47.373 88.1123L44.0804 86.5301L43.8 85.1112L46.7075 86.595L50.2467 83.7711L50.5159 85.1337L47.7643 87.1506L49.0143 87.7984L50.9688 87.4247L51.1763 88.4748ZM53.0806 109.462L58.4106 105.653L59.7603 107.481C60.1058 107.948 60.3043 108.317 60.3565 108.586C60.409 108.854 60.3644 109.138 60.2231 109.435C60.0817 109.733 59.8456 109.999 59.517 110.234C59.1 110.532 58.6914 110.675 58.2918 110.66C57.8914 110.644 57.525 110.479 57.1934 110.164C57.1941 110.447 57.1599 110.706 57.0879 110.942C57.0167 111.18 56.8501 111.552 56.5884 112.06L55.9333 113.324L55.1706 112.292L55.8656 110.833C56.117 110.308 56.2665 109.966 56.3116 109.809C56.3576 109.653 56.3655 109.515 56.3399 109.395C56.3129 109.277 56.2254 109.117 56.0775 108.917L55.945 108.738L53.7198 110.328L53.0806 109.462ZM56.7961 108.129L57.2724 108.774C57.5625 109.167 57.7648 109.405 57.879 109.487C57.993 109.57 58.1278 109.606 58.284 109.597C58.4394 109.586 58.6074 109.519 58.7837 109.393C58.9535 109.271 59.065 109.14 59.1193 109C59.1727 108.859 59.1767 108.718 59.1304 108.576C59.0982 108.476 58.9365 108.232 58.6499 107.844L58.1475 107.164L56.7961 108.129ZM56.8833 114.496L61.7793 110.16L64.4624 113.091L63.6334 113.825L61.6782 111.689L60.593 112.65L62.4099 114.634L61.5856 115.364L59.7689 113.38L58.4364 114.56L60.4574 116.768L59.632 117.499L56.8833 114.496ZM60.9879 118.721L65.5644 114.06L66.8257 115.258C67.2957 115.704 67.5801 116.018 67.6809 116.2C67.8414 116.491 67.8797 116.825 67.7996 117.202C67.7184 117.58 67.4963 117.954 67.1319 118.326C66.8005 118.663 66.4583 118.883 66.1055 118.989C65.7525 119.094 65.4336 119.099 65.1489 119.007C64.8651 118.916 64.485 118.645 64.0105 118.194L63.4962 117.706L61.7703 119.464L60.9879 118.721ZM65.572 115.592L64.2742 116.914L64.7079 117.326C64.9991 117.602 65.2158 117.77 65.3603 117.83C65.5033 117.888 65.6607 117.897 65.8303 117.855C66.001 117.814 66.1598 117.717 66.3101 117.564C66.4614 117.41 66.5561 117.246 66.591 117.076C66.626 116.903 66.6103 116.752 66.545 116.619C66.4786 116.486 66.2815 116.266 65.9539 115.954L65.572 115.592ZM69.1712 117.236L70.0623 117.85L68.0158 120.724C67.6972 121.172 67.5006 121.469 67.4273 121.619C67.2991 121.881 67.2647 122.126 67.3215 122.357C67.3793 122.586 67.5296 122.786 67.7721 122.953C67.978 123.095 68.1789 123.165 68.3739 123.165C68.5675 123.164 68.7466 123.099 68.9087 122.971C69.0699 122.845 69.3393 122.516 69.7159 121.987L71.8064 119.051L72.701 119.667L70.716 122.455C70.2093 123.167 69.8034 123.655 69.5015 123.919C69.1975 124.183 68.8411 124.321 68.4299 124.33C68.0177 124.341 67.59 124.192 67.1464 123.887C66.6853 123.569 66.3828 123.239 66.2401 122.898C66.0966 122.557 66.0728 122.199 66.1664 121.823C66.2597 121.447 66.59 120.862 67.1557 120.067L69.1712 117.236ZM73.9457 120.273L75.8373 121.304C76.3525 121.585 76.6901 121.83 76.8465 122.037C77.0038 122.244 77.0887 122.504 77.1011 122.818C77.1132 123.13 77.0353 123.436 76.8687 123.731C76.7148 124.005 76.5141 124.218 76.2664 124.371C76.0187 124.524 75.7669 124.601 75.5115 124.599C75.7369 124.85 75.8611 125.137 75.8855 125.46C75.9122 125.784 75.8286 126.116 75.6366 126.456C75.4047 126.868 75.1056 127.162 74.7445 127.336C74.3825 127.511 74.0449 127.557 73.732 127.474C73.514 127.416 73.0565 127.197 72.3603 126.818L70.7517 125.941L73.9457 120.273ZM74.3651 121.735L73.6267 123.045L74.2558 123.389C74.6329 123.594 74.8702 123.715 74.9673 123.75C75.1439 123.814 75.3078 123.815 75.4621 123.756C75.6152 123.696 75.7448 123.572 75.8513 123.384C75.9456 123.216 75.986 123.06 75.9696 122.915C75.9532 122.77 75.8997 122.656 75.8086 122.572C75.7166 122.489 75.4196 122.31 74.9166 122.036L74.3651 121.735ZM73.0949 123.989L72.2413 125.504L73.1268 125.986C73.5145 126.198 73.7739 126.313 73.9059 126.334C74.0384 126.354 74.1756 126.326 74.3169 126.249C74.4569 126.172 74.5778 126.044 74.6796 125.864C74.7846 125.678 74.8298 125.504 74.8181 125.341C74.8056 125.177 74.7463 125.036 74.6403 124.919C74.5326 124.802 74.2743 124.632 73.8664 124.41L73.0949 123.989ZM76.4194 128.762L78.5469 122.685L79.5753 123.033L77.8093 128.077L80.3751 128.946L80.0135 129.979L76.4194 128.762ZM81.5933 130.428L83.2984 124.169L84.3491 124.445L82.6439 130.705L81.5933 130.428ZM84.5412 131.116L85.6853 124.735L86.7563 124.92L86.2485 127.754L88.9302 125.298L90.3774 125.548L87.9271 127.687L89.339 131.948L87.9494 131.707L87.0209 128.458L85.9582 129.374L85.6124 131.302L84.5412 131.116ZM92.846 131.989L92.5013 125.518L93.5874 125.462L93.9322 131.934L92.846 131.989ZM95.8756 131.787L95.3012 125.332L96.3587 125.241L98.9442 129.362L98.5607 125.051L99.5723 124.964L100.147 131.419L99.0541 131.513L96.5127 127.49L96.8871 131.7L95.8756 131.787ZM100.472 124.713L102.394 124.206C102.88 124.079 103.262 124.036 103.538 124.077C103.815 124.118 104.092 124.238 104.369 124.437C104.646 124.634 104.899 124.921 105.129 125.293C105.358 125.667 105.554 126.152 105.717 126.753C105.865 127.295 105.931 127.781 105.915 128.214C105.9 128.646 105.827 129.004 105.7 129.289C105.572 129.573 105.39 129.808 105.151 129.998C104.912 130.187 104.582 130.339 104.155 130.451L102.177 130.972L100.472 124.713ZM101.81 125.496L102.939 129.641L103.73 129.432C104.068 129.343 104.305 129.248 104.439 129.145C104.575 129.042 104.674 128.915 104.735 128.763C104.799 128.61 104.824 128.389 104.813 128.099C104.803 127.809 104.736 127.441 104.614 126.994C104.488 126.53 104.356 126.173 104.217 125.922C104.079 125.672 103.921 125.488 103.742 125.371C103.562 125.253 103.368 125.196 103.158 125.2C103 125.201 102.711 125.259 102.288 125.37L101.81 125.496ZM106.8 126.392C106.505 125.676 106.37 125.044 106.396 124.495C106.421 123.947 106.56 123.489 106.814 123.125C107.068 122.76 107.443 122.48 107.938 122.283C108.655 121.998 109.348 122.035 110.021 122.394C110.693 122.753 111.234 123.43 111.643 124.425C112.056 125.429 112.14 126.31 111.894 127.065C111.68 127.733 111.214 128.208 110.494 128.494C109.768 128.782 109.095 128.762 108.473 128.435C107.763 128.059 107.205 127.378 106.8 126.392ZM107.824 125.937C108.108 126.629 108.454 127.093 108.862 127.333C109.271 127.572 109.673 127.614 110.068 127.457C110.465 127.299 110.723 126.997 110.844 126.55C110.964 126.104 110.878 125.526 110.586 124.816C110.3 124.119 109.962 123.654 109.57 123.421C109.18 123.189 108.779 123.155 108.368 123.318C107.957 123.481 107.69 123.782 107.57 124.221C107.45 124.661 107.535 125.232 107.824 125.937ZM114.395 126.564L110.904 121.068L111.804 120.515L116.01 123.032L113.679 119.363L114.54 118.833L118.031 124.329L117.101 124.901L112.979 122.45L115.256 126.034L114.395 126.564ZM119.769 123.173L115.713 118.066L118.872 115.638L119.559 116.502L117.256 118.272L118.155 119.404L120.295 117.759L120.977 118.619L118.838 120.263L119.942 121.653L122.322 119.824L123.006 120.685L119.769 123.173ZM122.615 118.228L123.263 117.387C123.952 117.878 124.528 117.888 124.991 117.417C125.219 117.185 125.337 116.943 125.343 116.691C125.352 116.439 125.263 116.227 125.08 116.053C124.972 115.951 124.858 115.886 124.737 115.862C124.616 115.836 124.483 115.849 124.341 115.898C124.199 115.948 123.892 116.101 123.417 116.359C122.993 116.592 122.647 116.729 122.379 116.768C122.11 116.809 121.835 116.782 121.554 116.689C121.272 116.596 121.021 116.443 120.8 116.232C120.541 115.987 120.365 115.708 120.271 115.396C120.178 115.084 120.178 114.776 120.271 114.472C120.367 114.169 120.56 113.868 120.854 113.568C121.295 113.119 121.763 112.886 122.259 112.87C122.754 112.852 123.24 113.056 123.715 113.48L123 114.291C122.711 114.084 122.462 113.988 122.249 114.004C122.039 114.021 121.831 114.133 121.627 114.34C121.424 114.548 121.31 114.75 121.289 114.946C121.266 115.142 121.32 115.303 121.452 115.428C121.581 115.551 121.74 115.603 121.928 115.585C122.118 115.567 122.444 115.424 122.909 115.159C123.405 114.879 123.8 114.714 124.095 114.661C124.391 114.608 124.684 114.63 124.972 114.728C125.261 114.826 125.548 115.01 125.832 115.281C126.244 115.671 126.467 116.124 126.503 116.639C126.538 117.155 126.296 117.678 125.776 118.207C124.856 119.144 123.802 119.151 122.615 118.228ZM128.385 115.247L123.413 110.996L124.126 110.189L129.099 114.44L128.385 115.247ZM133.113 109.056L132.416 109.999L130.928 109.51L129.66 111.226L130.61 112.445L129.928 113.368L125.834 107.886L126.513 106.967L133.113 109.056ZM129.825 109.147L127.41 108.324L128.958 110.32L129.825 109.147ZM50.0136 82.3213L43.4615 82.9986L43.0423 79.0762L44.1514 78.9617L44.4568 81.82L45.909 81.67L45.6253 79.0141L46.7283 78.9L47.0122 81.5558L48.7954 81.3715L48.4798 78.417L49.5842 78.3028L50.0136 82.3213ZM49.4764 76.5414L42.8921 76.3153L42.949 74.7125L47.4749 73.9032L43.017 72.7945L43.0741 71.1871L49.6583 71.4133L49.6231 72.4069L44.4401 72.2288L49.5856 73.4624L49.5489 74.4967L44.3287 75.3652L49.5118 75.5432L49.4764 76.5414ZM49.7977 69.4677L43.2586 68.678L43.7473 64.7635L44.8543 64.8971L44.4981 67.7498L45.9474 67.9249L46.2783 65.2743L47.3791 65.4073L47.0482 68.0579L48.8279 68.2728L49.1961 65.3241L50.2985 65.4573L49.7977 69.4677ZM50.5411 63.6775L44.1485 62.1098L44.4054 61.0966L49.2087 60.034L44.9401 58.9871L45.1858 58.0181L51.5784 59.5858L51.313 60.6323L46.6177 61.6858L50.7867 62.7082L50.5411 63.6775ZM52.5291 56.5966L47.3542 54.844L46.8318 56.3361L45.7774 55.9791L47.1747 51.9876L48.2291 52.3448L47.7082 53.8327L52.8831 55.5853L52.5291 56.5966ZM53.9304 52.5948L48.0603 49.6528L49.8805 46.1389L50.8743 46.6369L49.5477 49.1978L50.8487 49.8498L52.0814 47.4703L53.0696 47.9656L51.8369 50.3451L53.4346 51.1457L54.8059 48.4987L55.7954 48.9948L53.9304 52.5948ZM56.5799 47.3677L50.9927 43.9337L52.2096 42.0184C52.5209 41.5282 52.7944 41.2089 53.028 41.0606C53.2614 40.9122 53.5454 40.8467 53.878 40.8643C54.2126 40.8815 54.5515 40.9971 54.896 41.209C55.3332 41.4777 55.6208 41.7967 55.7566 42.1666C55.8914 42.5377 55.8732 42.9339 55.7002 43.3542C55.9668 43.2476 56.224 43.1816 56.4736 43.1589C56.724 43.1349 57.1376 43.1472 57.7146 43.1956L59.1518 43.3192L58.4642 44.4016L56.8284 44.3144C56.2397 44.2817 55.8614 44.2735 55.6964 44.2911C55.5322 44.3078 55.399 44.3521 55.2959 44.4204C55.1941 44.4895 55.0766 44.629 54.9432 44.8389L54.8237 45.0268L57.1562 46.4605L56.5799 47.3677ZM53.9314 44.4784L54.3607 43.8028C54.6223 43.3909 54.7709 43.1174 54.8059 42.9824C54.841 42.8475 54.8246 42.7111 54.7576 42.5719C54.6893 42.4341 54.5626 42.3064 54.3778 42.1927C54.1997 42.0833 54.0336 42.0312 53.882 42.0338C53.7292 42.0379 53.5948 42.0869 53.4783 42.1824C53.396 42.2494 53.2261 42.4883 52.9675 42.8953L52.5148 43.6078L53.9314 44.4784ZM59.988 42.1717L54.7264 38.2719L55.3811 37.4176L60.6426 41.3174L59.988 42.1717ZM65.0934 36.1724L64.2998 37.0391L62.8712 36.3991L61.428 37.9756L62.2429 39.2861L61.467 40.1337L57.9783 34.2604L58.751 33.4162L65.0934 36.1724ZM61.813 35.9249L59.4991 34.8584L60.8266 37.0024L61.813 35.9249ZM66.115 35.2525L61.8801 30.2885L62.6934 29.6174L67.2145 31.5347L64.3866 28.2199L65.1644 27.5779L69.3993 32.5419L68.5592 33.2352L64.1312 31.3732L66.8929 34.6105L66.115 35.2525ZM72.853 30.1041L69.7601 24.3826L71.3083 23.5729C71.8851 23.2712 72.2769 23.1023 72.4838 23.064C72.8144 23.004 73.1495 23.0713 73.4893 23.2627C73.8299 23.4554 74.1228 23.779 74.3691 24.2347C74.593 24.6489 74.7003 25.0369 74.6932 25.3996C74.6858 25.7623 74.5927 26.0623 74.4156 26.3C74.2395 26.5373 73.8604 26.8093 73.278 27.1138L72.6468 27.4439L73.8134 29.602L72.853 30.1041ZM71.2439 24.8489L72.121 26.4713L72.6534 26.193C73.011 26.006 73.2404 25.8552 73.3424 25.7387C73.4429 25.6227 73.5005 25.4783 73.5118 25.3065C73.5246 25.1343 73.4802 24.9557 73.3787 24.768C73.2765 24.5786 73.1474 24.4395 72.9936 24.3542C72.8377 24.2683 72.6865 24.2362 72.5374 24.2559C72.3891 24.2774 72.1149 24.3935 71.7124 24.6038L71.2439 24.8489ZM78.0698 27.4466L75.7087 21.3969L79.4522 19.9836L79.8517 21.0076L77.1238 22.0377L77.6471 23.3785L80.1819 22.4213L80.5794 23.4398L78.0446 24.3969L78.6871 26.0434L81.5069 24.9787L81.9049 25.9986L78.0698 27.4466ZM83.6324 25.5491L82.3752 19.1882L83.9758 18.8822L85.7957 23.0375L85.8912 18.516L87.4964 18.2091L88.7535 24.57L87.7613 24.7598L86.7717 19.7525L86.7072 24.9613L85.6742 25.1588L83.6397 20.3513L84.6292 25.3586L83.6324 25.5491ZM90.6152 17.9845L91.7026 17.9658L91.765 21.4746C91.7746 22.0206 91.7932 22.375 91.8237 22.539C91.8764 22.8248 91.9951 23.0429 92.179 23.1969C92.3627 23.3491 92.6035 23.4235 92.8995 23.4183C93.1511 23.414 93.3554 23.3546 93.5131 23.2419C93.669 23.129 93.7752 22.9732 93.83 22.7761C93.885 22.5806 93.9066 22.1592 93.8952 21.5135L93.8316 17.9293L94.9234 17.9105L94.9839 21.3139C94.9992 22.1827 94.9628 22.8126 94.8763 23.2004C94.7879 23.5895 94.5819 23.9071 94.2549 24.1526C93.9279 24.3996 93.4928 24.5263 92.9516 24.5356C92.3886 24.5454 91.9467 24.4532 91.6273 24.2596C91.3078 24.0674 91.0742 23.7907 90.9252 23.4325C90.7761 23.0745 90.6937 22.4105 90.6766 21.4405L90.6152 17.9845ZM97.9814 18.221L99.9515 18.4933C100.45 18.5621 100.819 18.6696 101.057 18.8138C101.295 18.9578 101.502 19.1755 101.678 19.4648C101.855 19.7528 101.974 20.1136 102.038 20.5446C102.1 20.9766 102.087 21.4989 101.999 22.1145C101.92 22.6703 101.787 23.1425 101.601 23.5358C101.415 23.9275 101.206 24.2292 100.976 24.4427C100.746 24.6547 100.485 24.8014 100.189 24.8842C99.8941 24.9666 99.53 24.9788 99.0925 24.9182L97.0644 24.638L97.9814 18.221ZM98.9017 19.4559L98.2946 23.7048L99.1058 23.817C99.452 23.8648 99.7087 23.8683 99.8729 23.8256C100.038 23.7831 100.18 23.7035 100.297 23.5872C100.416 23.471 100.527 23.2777 100.633 23.0058C100.738 22.7355 100.823 22.3709 100.888 21.9122C100.956 21.4371 100.976 21.0574 100.949 20.7732C100.921 20.4906 100.849 20.2597 100.73 20.0833C100.611 19.9054 100.456 19.7788 100.261 19.7015C100.114 19.6417 99.8253 19.5836 99.3925 19.5237L98.9017 19.4559ZM107.922 27.3874L106.795 27.0269L106.808 25.483L104.757 24.8274L103.871 26.0926L102.768 25.7402L106.804 20.2165L107.903 20.5676L107.922 27.3874ZM106.818 24.3393L106.867 21.8262L105.416 23.8911L106.818 24.3393ZM114.235 23.3583L115.94 24.3661C116.371 24.6211 116.668 24.8617 116.83 25.0858C116.992 25.31 117.096 25.59 117.143 25.9238C117.192 26.2572 117.158 26.6349 117.046 27.0561C116.931 27.4777 116.712 27.9538 116.386 28.4866C116.093 28.9676 115.783 29.3514 115.455 29.6416C115.128 29.9309 114.816 30.1283 114.52 30.2363C114.223 30.3429 113.925 30.3777 113.62 30.3404C113.316 30.3028 112.976 30.174 112.597 29.9502L110.841 28.9128L114.235 23.3583ZM114.591 24.8487L112.344 28.5266L113.047 28.9416C113.346 29.1186 113.581 29.2205 113.749 29.2443C113.919 29.2686 114.08 29.2498 114.234 29.1879C114.39 29.1266 114.569 28.9915 114.774 28.7817C114.979 28.5733 115.201 28.2703 115.444 27.8732C115.695 27.4618 115.865 27.1203 115.952 26.848C116.039 26.5772 116.064 26.3369 116.024 26.1289C115.986 25.9195 115.893 25.7432 115.745 25.5971C115.633 25.4858 115.391 25.3211 115.016 25.0997L114.591 24.8487ZM119.941 35.3222L119.032 34.5726L119.633 33.1458L117.981 31.7823L116.678 32.629L115.789 31.8958L121.635 28.2614L122.52 28.9917L119.941 35.3222ZM120.078 32.0891L121.081 29.7773L118.949 31.1572L120.078 32.0891ZM121.027 36.2893L125.923 31.9534L126.633 32.7292L124.843 37.2403L128.112 34.3448L128.792 35.0871L123.896 39.4232L123.162 38.6215L124.9 34.2039L121.707 37.0317L121.027 36.2893ZM128.931 40.7882C129.582 40.3562 130.182 40.0949 130.733 40.0058C131.284 39.9153 131.768 39.9545 132.183 40.1231C132.598 40.2917 132.955 40.5936 133.254 41.0288C133.686 41.6592 133.794 42.334 133.577 43.0566C133.359 43.7779 132.799 44.4391 131.894 45.0391C130.981 45.6448 130.123 45.9088 129.321 45.8293C128.612 45.7624 128.043 45.4123 127.609 44.7794C127.171 44.1415 127.052 43.4892 127.247 42.8224C127.473 42.0614 128.035 41.3831 128.931 40.7882ZM129.596 41.6793C128.968 42.0961 128.578 42.5258 128.424 42.9681C128.271 43.4116 128.313 43.8064 128.551 44.1542C128.79 44.5032 129.145 44.6884 129.614 44.7118C130.084 44.7352 130.64 44.5318 131.286 44.1032C131.919 43.683 132.311 43.2613 132.461 42.8357C132.611 42.4123 132.562 42.0193 132.314 41.6578C132.066 41.2963 131.711 41.1022 131.251 41.0783C130.788 41.054 130.237 41.2541 129.596 41.6793ZM129.851 48.4269L135.673 45.509L136.167 46.4622L131.334 48.8841L132.566 51.2622L131.577 51.7583L129.851 48.4269ZM133.814 57.7567L133.428 56.6538L134.69 55.7351L133.987 53.7293L132.427 53.7949L132.05 52.7166L138.964 52.5628L139.34 53.6369L133.814 57.7567ZM135.624 55.0547L137.695 53.5812L135.145 53.6837L135.624 55.0547ZM134.192 59.2181L140.585 57.6504L140.848 58.6885L138.333 59.3052L138.85 61.3475L141.366 60.7307L141.63 61.7728L135.237 63.3406L134.973 62.2983L137.768 61.6128L137.251 59.5705L134.456 60.2561L134.192 59.2181ZM135.675 65.2954L142.214 64.5057L142.494 66.7475C142.566 67.3211 142.557 67.7384 142.471 67.9984C142.384 68.258 142.206 68.4849 141.936 68.6771C141.665 68.8708 141.327 68.9907 140.924 69.0395C140.412 69.1012 139.985 69.0312 139.643 68.8278C139.3 68.623 139.061 68.3038 138.927 67.8699C138.787 68.1179 138.63 68.3284 138.451 68.5005C138.271 68.6741 137.942 68.9207 137.462 69.2401L136.267 70.0336L136.108 68.7667L137.435 67.8221C137.914 67.4831 138.213 67.2553 138.33 67.1395C138.447 67.025 138.522 66.908 138.559 66.7912C138.594 66.6744 138.596 66.4934 138.565 66.2476L138.538 66.0275L135.808 66.3572L135.675 65.2954ZM139.582 65.9014L139.681 66.6922C139.741 67.1742 139.8 67.4787 139.859 67.6054C139.919 67.732 140.019 67.8279 140.16 67.8944C140.301 67.9593 140.481 67.9802 140.697 67.954C140.906 67.9288 141.068 67.8666 141.184 67.7706C141.301 67.673 141.374 67.5516 141.403 67.4053C141.424 67.3024 141.403 67.0115 141.344 66.5353L141.24 65.7012L139.582 65.9014ZM136.426 76.239L136.384 75.0735L137.864 74.5578L137.789 72.4377L136.277 72.0517L136.236 70.9119L142.894 72.753L142.934 73.8884L136.426 76.239ZM138.96 74.176L141.378 73.3622L138.909 72.7269L138.96 74.176ZM138.585 80.4052L139.69 80.5194L139.444 82.8182L136.834 82.5483C136.581 82.2885 136.378 81.9353 136.224 81.49C136.069 81.0447 136.016 80.6082 136.061 80.1792C136.117 79.6584 136.296 79.2113 136.599 78.8406C136.903 78.4684 137.327 78.1922 137.872 78.0135C138.417 77.8347 139.04 77.7807 139.743 77.8533C140.465 77.928 141.069 78.1102 141.556 78.3988C142.043 78.6873 142.394 79.033 142.607 79.4358C142.819 79.8386 142.898 80.3033 142.842 80.8271C142.775 81.4573 142.557 81.946 142.19 82.2918C141.823 82.6378 141.32 82.8315 140.675 82.874L140.542 81.7938C140.888 81.7505 141.161 81.6317 141.362 81.4385C141.563 81.247 141.68 81.0042 141.711 80.7102C141.76 80.2569 141.619 79.8691 141.291 79.5516C140.963 79.2325 140.43 79.0363 139.693 78.96C138.904 78.8785 138.287 78.968 137.844 79.2302C137.461 79.4545 137.246 79.7904 137.199 80.2346C137.176 80.4431 137.203 80.6644 137.279 80.8997C137.355 81.1336 137.47 81.3472 137.623 81.5421L138.455 81.6281L138.585 80.4052ZM134.677 88.9991L134.903 87.8541L136.463 87.6791L136.875 85.5966L135.49 84.8861L135.711 83.7666L141.777 87.0336L141.557 88.1486L134.677 88.9991ZM137.619 87.5496L140.161 87.2916L137.9 86.1261L137.619 87.5496ZM50.7963 94.7335L51.5216 96.7456L53.6911 96.8021L51.969 98.1021L52.5855 100.149L50.7963 98.9405L49.0068 100.149L49.6235 98.1021L47.9015 96.8021L50.071 96.7456L50.7963 94.7335ZM135.168 94.7334L135.893 96.7456L138.062 96.8021L136.34 98.1021L136.957 100.149L135.168 98.9405L133.378 100.149L133.995 98.1021L132.273 96.8021L134.442 96.7456L135.168 94.7334ZM92.9821 11.0257C123.246 11.0257 147.929 39.7109 147.929 74.8817C147.929 110.052 123.246 138.738 92.9821 138.738C62.7182 138.738 38.0344 110.052 38.0344 74.8817C38.0344 39.7109 62.7182 11.0257 92.9821 11.0257ZM92.9821 12.6999C122.452 12.6999 146.489 40.633 146.489 74.8817C146.489 109.13 122.452 137.063 92.9821 137.063C63.5117 137.063 39.475 109.13 39.475 74.8817C39.475 40.633 63.5117 12.6999 92.9821 12.6999Z" fill="#3A3285"/>
<defs>
<linearGradient id="paint0_linear_480_102987" x1="90.5282" y1="42.9231" x2="90.5282" y2="66.252" gradientUnits="userSpaceOnUse">
<stop stop-color="#E31F25"/>
<stop offset="1" stop-color="#FFEE00"/>
</linearGradient>
</defs>
</svg>
