<svg width="186" height="150" viewBox="0 0 186 150" fill="none" xmlns="http://www.w3.org/2000/svg">
<path fill-rule="evenodd" clip-rule="evenodd" d="M50.8133 37.0136C61.64 43.5469 69.9933 43.4536 74.0067 39.3003C66.7267 51.1069 70.2733 63.8469 69.9933 70.6136C68.78 64.3136 67.0533 50.6403 50.8133 37.0136Z" fill="#0A58A6"/>
<path d="M64.16 37.7136C68.4126 37.7136 71.86 34.4751 71.86 30.4803C71.86 26.4854 68.4126 23.2469 64.16 23.2469C59.9074 23.2469 56.46 26.4854 56.46 30.4803C56.46 34.4751 59.9074 37.7136 64.16 37.7136Z" fill="#0A58A6"/>
<path fill-rule="evenodd" clip-rule="evenodd" d="M71.9067 56.6136C75.92 44.5269 85.4867 29.7336 104.62 19.7003C105.133 17.0403 105.693 14.3803 106.207 11.7203C81.38 26.3269 71.4867 40.9803 71.9067 56.6136Z" fill="#06914B"/>
<path fill-rule="evenodd" clip-rule="evenodd" d="M71.8133 63.4269C81.4267 43.9669 99.02 33.6069 114.327 28.2869C114.233 27.6336 117.547 17.7403 118.247 15.2203C95.1933 27.4003 72.28 46.7203 71.8133 63.4269Z" fill="#06914B"/>
<path fill-rule="evenodd" clip-rule="evenodd" d="M71.7667 69.9136C86.6533 45.7869 116.147 37.3869 130.52 35.6603C129.073 35.0536 119.787 32.3469 116.333 30.9469C99.72 34.7269 74.1933 52.0403 71.7667 69.9136Z" fill="#06914B"/>
<path fill-rule="evenodd" clip-rule="evenodd" d="M71.9067 75.3736C78.1133 65.8069 90.7133 54.1403 115.913 49.4736C112.273 48.2136 108.633 46.9069 104.993 45.6469C100.373 48.2136 75.1733 58.8069 71.9067 75.3736Z" fill="#06914B"/>
<path fill-rule="evenodd" clip-rule="evenodd" d="M47.7801 70.6133C50.9534 77.8933 57.3467 80.2267 63.8334 80.1333C71.8134 79.9933 80.0734 75.7 81.5667 70.24C83.7601 70.24 85.9534 70.24 88.1467 70.24C87.5867 70.4733 86.8867 71.0333 86.5134 71.5C85.3934 73.18 84.4134 74.6267 83.2934 76.3067C80.6334 79.8067 76.4334 80.9267 73.0734 82.1867C76.9467 82.28 82.0801 80.88 85.3934 78.2667C87.9134 76.3067 90.4334 73.4133 91.2267 70.2867C93.2801 70.24 95.3801 70.2867 97.48 70.24C95.4267 71.8733 94.3534 72.48 93.84 75.2333C92.6267 81.5333 85.9067 85.6867 80.3534 87.5533C86.0934 88.1133 93.4201 83.82 96.3134 79.62C97.0601 78.4533 97.6667 76.9133 98.0867 75.3267C98.6467 73.1333 99.3467 71.64 101.213 70.1467C103.08 70.1467 104.993 70.1467 106.813 70.1467C104.947 71.8267 104.2 73.2267 103.733 75.56C103.593 77.1933 102.94 78.78 102.147 80.18C98.6001 86.9 92.8601 89.7933 86.0934 92.0333C90.5267 92.4067 96.6867 90.0267 100.327 87.2733C104.34 84.24 106.44 80.4133 108.26 76.0733C108.493 75.1867 108.773 74.3 109.053 73.4133C109.38 72.1067 110.173 70.94 111.06 70.2867C112.927 70.3333 114.887 70.2867 116.753 70.2867C116.193 70.7533 115.68 71.2667 115.26 71.8267C114.233 73.0867 114.187 74.72 113.907 76.4C113.673 77.66 113.253 78.92 112.787 80.0867C110.64 83.7267 108.167 87.0867 104.713 89.6533C103.453 90.5867 102.1 91.38 100.793 92.1733C97.9934 93.8067 95.1934 95.02 92.3467 96.14C94.7734 96.28 96.9667 95.6267 99.2534 95.1133C102.007 94.2267 104.667 93.3867 107.233 91.66C112.04 88.5333 115.68 84.8467 117.5 79.34C118.573 76.4 118.853 73.2267 120.487 70.4733C122.493 70.4733 124.687 70.52 126.693 70.52C124.36 72.06 124.733 73.6467 124.127 76.12C123.007 81.1133 120.58 85.5 117.127 89C113.067 93.06 108.727 96.2333 103.36 98.3333C95.5201 101.507 85.9067 102.627 77.5067 100.713C64.0201 97.6333 51.8401 87.8333 47.5934 70.6133H47.7801Z" fill="#F9C205"/>
<path d="M34.5266 122.413C34.6666 122.647 34.8066 122.833 34.9466 123.02C35.04 123.16 35.1333 123.253 35.2266 123.347C35.32 123.44 35.3666 123.487 35.46 123.533C35.5533 123.58 35.6466 123.627 35.7866 123.673V124.047H32.4266V123.673C32.5666 123.627 32.66 123.58 32.7066 123.533C32.7533 123.487 32.8 123.44 32.8 123.347C32.8 123.3 32.8 123.207 32.7533 123.16C32.7533 123.113 32.7066 123.02 32.6133 122.88C32.5666 122.74 32.4266 122.507 32.1933 122.18L31.26 120.733C31.1666 120.547 31.0266 120.407 30.98 120.313C30.8866 120.22 30.7933 120.127 30.7 120.08C30.6066 120.033 30.5133 120.033 30.3733 120.033H30.2333V122.507C30.2333 122.647 30.2333 122.787 30.2333 122.927C30.28 123.02 30.28 123.113 30.28 123.207C30.3266 123.3 30.3733 123.347 30.42 123.393C30.4666 123.487 30.5133 123.533 30.6066 123.533C30.7 123.58 30.7933 123.627 30.8866 123.673V124.047H27.6666V123.673C27.8066 123.627 27.9466 123.58 28.04 123.533C28.1333 123.487 28.18 123.393 28.2266 123.3C28.2733 123.253 28.2733 123.113 28.32 122.973C28.32 122.88 28.32 122.693 28.32 122.507V117.14C28.32 116.953 28.32 116.767 28.32 116.627C28.32 116.487 28.2733 116.393 28.2266 116.3C28.18 116.253 28.1333 116.16 28.04 116.113C27.9466 116.067 27.8066 116.02 27.6666 115.973V115.553H30.8866V115.973C30.7466 116.02 30.6066 116.067 30.5133 116.113C30.4666 116.16 30.3733 116.253 30.3266 116.3C30.3266 116.393 30.28 116.487 30.28 116.58C30.2333 116.72 30.2333 116.907 30.2333 117.14V119.333H30.3733C30.56 119.333 30.7 119.333 30.84 119.287C30.9333 119.24 31.0266 119.193 31.1666 119.053C31.26 118.96 31.4933 118.68 31.82 118.307C32.1933 117.933 32.4266 117.607 32.5666 117.373C32.7066 117.187 32.8 117 32.8933 116.86C32.94 116.72 32.94 116.58 32.94 116.44C32.94 116.3 32.8933 116.207 32.8 116.113C32.7066 116.02 32.5666 115.973 32.4266 115.973V115.553H35.5533V115.973C35.4133 116.02 35.2733 116.067 35.18 116.113C35.04 116.16 34.9 116.253 34.76 116.393C34.62 116.533 34.4333 116.72 34.2466 117L32.38 119.053L34.5266 122.413ZM42.4133 115.553V117.56H41.5733C41.4333 117.14 41.2933 116.907 41.2 116.767C41.1066 116.627 41.0133 116.487 40.8733 116.393C40.7333 116.347 40.5 116.3 40.22 116.3H38.8666V119.287H39.66C39.8466 119.287 39.9866 119.24 40.08 119.193C40.22 119.147 40.2666 119.053 40.36 118.96C40.4066 118.82 40.5 118.633 40.5466 118.4H41.2466V120.92H40.5466C40.5 120.687 40.4066 120.5 40.36 120.36C40.2666 120.22 40.22 120.127 40.08 120.08C39.9866 120.033 39.8466 119.987 39.66 119.987H38.8666V123.347H40.1733C40.3133 123.347 40.4533 123.347 40.5466 123.3C40.64 123.3 40.7333 123.253 40.8266 123.207C40.92 123.16 40.9666 123.113 41.06 123.02C41.1066 122.927 41.2 122.88 41.2466 122.787C41.2933 122.693 41.34 122.553 41.4333 122.413C41.48 122.273 41.5266 122.04 41.62 121.807H42.46L42.3666 124.047H36.3V123.673C36.44 123.627 36.5333 123.58 36.6266 123.533C36.72 123.487 36.8133 123.393 36.86 123.3C36.86 123.253 36.9066 123.113 36.9066 122.973C36.9533 122.88 36.9533 122.693 36.9533 122.507V117.14C36.9533 116.953 36.9533 116.767 36.9066 116.627C36.9066 116.487 36.9066 116.393 36.86 116.3C36.8133 116.253 36.72 116.16 36.6266 116.113C36.58 116.067 36.44 116.02 36.3 115.973V115.553H42.4133ZM53.1 115.973C52.8666 116.02 52.7266 116.113 52.6333 116.16C52.54 116.253 52.4933 116.347 52.4933 116.487C52.4466 116.58 52.4466 116.813 52.4466 117.14V122.507C52.4466 122.74 52.4466 122.973 52.4466 123.113C52.4933 123.253 52.54 123.347 52.6333 123.44C52.68 123.533 52.8666 123.58 53.1 123.673V124.047H49.9266V123.673C50.1133 123.58 50.2066 123.58 50.3 123.533C50.3466 123.487 50.44 123.44 50.44 123.393C50.4866 123.3 50.5333 123.207 50.5333 123.113C50.58 122.973 50.58 122.787 50.58 122.507V119.427C50.58 119.1 50.58 118.727 50.58 118.26C50.58 117.793 50.6266 117.467 50.6266 117.28H50.4866C50.44 117.467 50.3933 117.607 50.3466 117.793C50.3 117.933 50.16 118.213 50.02 118.633L48.3866 123.113H47.2666L45.54 118.073C45.4466 117.793 45.3533 117.513 45.26 117.233H45.1666C45.2133 117.887 45.2133 118.727 45.2133 119.66V122.507C45.2133 122.833 45.26 123.02 45.26 123.16C45.3066 123.253 45.3533 123.393 45.4466 123.44C45.54 123.533 45.68 123.58 45.9133 123.673V124.047H43.58V123.673C43.72 123.627 43.8133 123.58 43.9066 123.533C44 123.487 44.0933 123.393 44.14 123.3C44.1866 123.253 44.1866 123.113 44.1866 123.02C44.2333 122.88 44.2333 122.693 44.2333 122.507V117.14C44.2333 116.813 44.1866 116.58 44.1866 116.487C44.14 116.347 44.0933 116.253 44.0466 116.207C43.9533 116.113 43.8133 116.02 43.58 115.973V115.553H46.6133L48.34 120.687L50.2066 115.553H53.1V115.973ZM60.38 115.553V117.56H59.54C59.4 117.14 59.3066 116.907 59.2133 116.767C59.12 116.627 58.98 116.487 58.84 116.393C58.7466 116.347 58.5133 116.3 58.1866 116.3H56.8333V119.287H57.6733C57.86 119.287 58 119.24 58.0933 119.193C58.1866 119.147 58.28 119.053 58.3266 118.96C58.42 118.82 58.4666 118.633 58.5133 118.4H59.2133V120.92H58.5133C58.4666 120.687 58.42 120.5 58.3266 120.36C58.28 120.22 58.1866 120.127 58.0933 120.08C58 120.033 57.86 119.987 57.6733 119.987H56.8333V123.347H58.1866C58.3266 123.347 58.4666 123.347 58.56 123.3C58.6533 123.3 58.7466 123.253 58.7933 123.207C58.8866 123.16 58.98 123.113 59.0266 123.02C59.12 122.927 59.1666 122.88 59.2133 122.787C59.3066 122.693 59.3533 122.553 59.4 122.413C59.4466 122.273 59.54 122.04 59.5866 121.807H60.4733L60.3333 124.047H54.2666V123.673C54.4066 123.627 54.5466 123.58 54.64 123.533C54.7333 123.487 54.78 123.393 54.8266 123.3C54.8733 123.253 54.92 123.113 54.92 122.973C54.92 122.88 54.92 122.693 54.92 122.507V117.14C54.92 116.953 54.92 116.767 54.92 116.627C54.92 116.487 54.8733 116.393 54.8266 116.3C54.78 116.253 54.7333 116.16 54.64 116.113C54.5466 116.067 54.4066 116.02 54.2666 115.973V115.553H60.38ZM69.06 115.553V115.973C68.8733 116.02 68.78 116.067 68.6866 116.113C68.64 116.16 68.5933 116.207 68.5466 116.253C68.5 116.3 68.4533 116.44 68.4066 116.533C68.4066 116.673 68.36 116.86 68.36 117.14V124.047H66.82L64.02 119.24C63.6466 118.54 63.4133 118.027 63.2266 117.653H63.1333C63.18 118.587 63.2266 119.52 63.2266 120.5V122.507C63.2266 122.833 63.2266 123.02 63.2733 123.16C63.2733 123.3 63.3666 123.393 63.4133 123.44C63.5066 123.533 63.6466 123.58 63.88 123.673V124.047H61.5466V123.673C61.6866 123.627 61.8266 123.58 61.92 123.533C62.0133 123.487 62.06 123.393 62.1066 123.3C62.1533 123.207 62.2 123.113 62.2 122.973C62.2 122.88 62.2 122.693 62.2 122.507V117.14C62.2 116.813 62.2 116.58 62.1533 116.487C62.1533 116.347 62.1066 116.253 62.0133 116.16C61.92 116.113 61.78 116.02 61.5466 115.973V115.553H64.0666L66.2133 119.38C66.3533 119.613 66.54 119.94 66.7733 120.36C67.0066 120.78 67.1933 121.153 67.3333 121.527H67.4266C67.38 120.547 67.38 119.473 67.38 118.307V117.14C67.38 116.86 67.38 116.673 67.3333 116.533C67.3333 116.44 67.2866 116.347 67.24 116.253C67.1933 116.207 67.1466 116.16 67.1 116.113C67.0066 116.067 66.8666 116.02 66.7266 115.973V115.553H69.06ZM71.9066 124.047V123.673C72.0933 123.627 72.1866 123.58 72.3266 123.533C72.42 123.487 72.4666 123.44 72.5133 123.347C72.6066 123.253 72.6066 123.113 72.6066 123.02C72.6533 122.88 72.6533 122.693 72.6533 122.507V116.3H72.14C71.9066 116.3 71.72 116.3 71.58 116.393C71.44 116.44 71.3466 116.533 71.2533 116.673C71.16 116.767 71.0666 116.953 70.9733 117.14C70.9266 117.373 70.88 117.56 70.8333 117.747H69.9466V115.553H77.2266V117.747H76.3866C76.2933 117.467 76.2466 117.28 76.2 117.14C76.1533 117 76.1066 116.86 76.06 116.767C76.0133 116.673 75.92 116.627 75.8733 116.533C75.8266 116.487 75.7333 116.44 75.6866 116.393C75.5933 116.347 75.5 116.347 75.4066 116.3C75.3133 116.3 75.1733 116.3 74.9866 116.3H74.5666V122.507C74.5666 122.74 74.5666 122.88 74.5666 123.02C74.5666 123.113 74.6133 123.207 74.66 123.3C74.66 123.347 74.7066 123.393 74.7533 123.44C74.8 123.487 74.8933 123.533 74.94 123.58C75.0333 123.627 75.1733 123.627 75.3133 123.673V124.047H71.9066ZM84.3666 115.553V117.56H83.5266C83.3866 117.14 83.2466 116.907 83.1533 116.767C83.06 116.627 82.9666 116.487 82.8266 116.393C82.6866 116.347 82.4533 116.3 82.1266 116.3H80.82V119.287H81.6133C81.8 119.287 81.94 119.24 82.0333 119.193C82.1266 119.147 82.22 119.053 82.3133 118.96C82.36 118.82 82.4533 118.633 82.5 118.4H83.2V120.92H82.5C82.4533 120.687 82.36 120.5 82.3133 120.36C82.22 120.22 82.1266 120.127 82.0333 120.08C81.94 120.033 81.8 119.987 81.6133 119.987H80.82V123.347H82.1266C82.2666 123.347 82.4066 123.347 82.5 123.3C82.5933 123.3 82.6866 123.253 82.78 123.207C82.8266 123.16 82.92 123.113 83.0133 123.02C83.06 122.927 83.1533 122.88 83.2 122.787C83.2466 122.693 83.2933 122.553 83.34 122.413C83.4333 122.273 83.48 122.04 83.5733 121.807H84.4133L84.2733 124.047H78.2066V123.673C78.3933 123.627 78.4866 123.58 78.58 123.533C78.6733 123.487 78.7666 123.393 78.7666 123.3C78.8133 123.253 78.86 123.113 78.86 122.973C78.9066 122.88 78.9066 122.693 78.9066 122.507V117.14C78.9066 116.953 78.9066 116.767 78.86 116.627C78.86 116.487 78.86 116.393 78.8133 116.3C78.7666 116.253 78.6733 116.16 78.58 116.113C78.4866 116.067 78.3933 116.02 78.2066 115.973V115.553H84.3666ZM88.7533 124.047H85.5333V123.673C85.6733 123.627 85.8133 123.58 85.9066 123.533C86 123.487 86.0466 123.393 86.0933 123.3C86.14 123.253 86.14 123.113 86.1866 122.973C86.1866 122.88 86.1866 122.693 86.1866 122.507V117.14C86.1866 116.953 86.1866 116.767 86.1866 116.627C86.1866 116.487 86.14 116.393 86.0933 116.3C86.0466 116.253 86 116.16 85.9066 116.113C85.8133 116.067 85.6733 116.02 85.5333 115.973V115.553H89.1266C89.5933 115.553 90.0133 115.6 90.3866 115.647C90.7133 115.74 90.9933 115.833 91.2733 115.973C91.46 116.113 91.6466 116.253 91.7866 116.44C91.9266 116.58 92.0666 116.813 92.16 117.047C92.2066 117.28 92.2533 117.56 92.2533 117.84C92.2533 118.26 92.2066 118.633 92.0666 118.913C91.9266 119.193 91.6933 119.427 91.46 119.613C91.2266 119.8 90.9 119.987 90.5266 120.173V120.22C90.8066 120.36 91.0866 120.547 91.2733 120.78C91.46 120.967 91.6466 121.293 91.7866 121.62L92.2066 122.46C92.3466 122.833 92.5333 123.113 92.72 123.3C92.86 123.487 93.0933 123.627 93.3266 123.673V124.047H90.9466C90.7133 123.72 90.4333 123.253 90.1533 122.6L89.64 121.527C89.5 121.2 89.36 120.967 89.2666 120.827C89.1733 120.733 89.08 120.64 88.94 120.547C88.8466 120.5 88.7066 120.5 88.4733 120.5H88.1V122.507C88.1 122.833 88.1 123.02 88.1466 123.16C88.1933 123.3 88.24 123.393 88.3333 123.44C88.38 123.533 88.5666 123.58 88.7533 123.673V124.047ZM88.1 116.3V119.753H88.7066C89.0333 119.753 89.3133 119.707 89.5466 119.613C89.7333 119.567 89.92 119.427 90.0133 119.24C90.1533 119.1 90.2466 118.913 90.2933 118.68C90.34 118.493 90.3866 118.26 90.3866 117.98C90.3866 117.42 90.2466 117 89.9666 116.72C89.6866 116.44 89.3133 116.3 88.8 116.3C88.4266 116.3 88.1933 116.3 88.1 116.3ZM96.4533 122.507C96.4533 122.647 96.4533 122.787 96.4533 122.927C96.5 123.02 96.5 123.113 96.5 123.207C96.5466 123.3 96.5933 123.347 96.64 123.393C96.6866 123.487 96.7333 123.533 96.8266 123.533C96.92 123.58 97.0133 123.627 97.1066 123.673V124.047H93.8866V123.673C94.0266 123.627 94.1666 123.58 94.26 123.533C94.3533 123.487 94.4 123.393 94.4466 123.3C94.4933 123.253 94.54 123.113 94.54 122.973C94.54 122.88 94.54 122.693 94.54 122.507V117.14C94.54 116.907 94.54 116.767 94.54 116.627C94.54 116.487 94.4933 116.393 94.4466 116.3C94.4 116.207 94.3533 116.16 94.26 116.113C94.1666 116.067 94.0266 116.02 93.8866 115.973V115.553H97.1066V115.973C96.9666 116.02 96.8266 116.067 96.7333 116.113C96.6866 116.16 96.5933 116.253 96.5933 116.3C96.5466 116.393 96.5 116.487 96.5 116.58C96.4533 116.72 96.4533 116.907 96.4533 117.14V122.507ZM102.707 121.433H100.047L99.86 122.04C99.8133 122.18 99.7666 122.367 99.72 122.507C99.6733 122.647 99.6733 122.833 99.6733 123.02C99.6733 123.393 99.86 123.627 100.28 123.673V124.047H97.6666V123.673C97.8066 123.627 97.9466 123.58 98.0866 123.487C98.18 123.393 98.2733 123.253 98.3666 123.113C98.46 122.973 98.5533 122.74 98.6933 122.46L101.26 115.507H102.893L104.947 122.507C105.04 122.787 105.087 123.02 105.18 123.16C105.227 123.3 105.32 123.393 105.413 123.487C105.507 123.533 105.647 123.627 105.833 123.673V124.047H102.427V123.673C102.613 123.627 102.8 123.58 102.893 123.487C102.987 123.393 103.033 123.253 103.033 123.067C103.033 122.927 103.033 122.787 102.987 122.647C102.987 122.46 102.94 122.273 102.847 122.04L102.707 121.433ZM100.28 120.687H102.52L101.54 117.187L100.28 120.687ZM114 115.553V115.973C113.86 116.02 113.72 116.067 113.673 116.113C113.627 116.16 113.533 116.207 113.487 116.253C113.44 116.3 113.44 116.44 113.393 116.533C113.347 116.673 113.347 116.86 113.347 117.14V124.047H111.807L109.007 119.24C108.633 118.54 108.353 118.027 108.167 117.653H108.12C108.167 118.587 108.213 119.52 108.213 120.5V122.507C108.213 122.833 108.213 123.02 108.213 123.16C108.26 123.3 108.307 123.393 108.4 123.44C108.493 123.533 108.633 123.58 108.867 123.673V124.047H106.533V123.673C106.673 123.627 106.813 123.58 106.907 123.533C106.953 123.487 107.047 123.393 107.093 123.3C107.14 123.207 107.14 123.113 107.187 122.973C107.187 122.88 107.187 122.693 107.187 122.507V117.14C107.187 116.813 107.187 116.58 107.14 116.487C107.14 116.347 107.047 116.253 107 116.16C106.907 116.113 106.767 116.02 106.533 115.973V115.553H109.007L111.2 119.38C111.34 119.613 111.527 119.94 111.76 120.36C111.947 120.78 112.133 121.153 112.32 121.527H112.413C112.367 120.547 112.367 119.473 112.367 118.307V117.14C112.367 116.86 112.32 116.673 112.32 116.533C112.32 116.44 112.273 116.347 112.227 116.253C112.18 116.207 112.133 116.16 112.04 116.113C111.993 116.067 111.853 116.02 111.713 115.973V115.553H114ZM118.667 121.947C118.76 122.46 118.947 122.833 119.18 123.067C119.413 123.3 119.787 123.44 120.253 123.44C120.487 123.44 120.72 123.393 120.907 123.3C121.093 123.207 121.233 123.113 121.373 122.927C121.467 122.74 121.56 122.507 121.56 122.227C121.56 121.947 121.513 121.713 121.42 121.527C121.327 121.34 121.14 121.2 120.953 121.013C120.72 120.827 120.44 120.64 120.067 120.453C119.74 120.313 119.46 120.127 119.18 119.94C118.947 119.8 118.713 119.613 118.527 119.38C118.34 119.193 118.2 118.96 118.107 118.68C118.013 118.447 117.967 118.167 117.967 117.84C117.967 117.327 118.107 116.907 118.34 116.533C118.573 116.207 118.947 115.927 119.413 115.74C119.927 115.553 120.44 115.46 121.093 115.46C121.467 115.46 121.793 115.46 122.12 115.507C122.447 115.553 122.82 115.647 123.287 115.74V117.56H122.447C122.353 117.187 122.26 116.953 122.12 116.767C121.98 116.58 121.84 116.44 121.653 116.347C121.467 116.253 121.28 116.207 121 116.207C120.767 116.207 120.533 116.253 120.347 116.3C120.16 116.393 120.02 116.533 119.927 116.673C119.833 116.86 119.74 117.047 119.74 117.28C119.74 117.513 119.787 117.747 119.88 117.887C119.973 118.073 120.16 118.26 120.347 118.447C120.58 118.587 120.907 118.773 121.327 119.007C121.84 119.287 122.213 119.52 122.493 119.8C122.82 120.033 123.007 120.313 123.147 120.593C123.287 120.92 123.333 121.247 123.333 121.667C123.333 122.18 123.24 122.6 123.007 122.973C122.773 123.347 122.447 123.673 121.98 123.86C121.513 124.047 121 124.14 120.44 124.14C120.02 124.14 119.553 124.14 119.133 124.093C118.667 124.047 118.247 123.953 117.827 123.86V121.947H118.667ZM128.093 124.14C126.88 124.14 125.993 123.813 125.387 123.113C124.78 122.367 124.453 121.293 124.453 119.893C124.453 118.96 124.593 118.167 124.873 117.513C125.2 116.813 125.62 116.347 126.18 115.973C126.787 115.647 127.44 115.46 128.233 115.46C129.447 115.46 130.38 115.833 130.987 116.533C131.64 117.233 131.92 118.307 131.92 119.707C131.92 120.5 131.827 121.153 131.64 121.713C131.453 122.273 131.22 122.74 130.893 123.113C130.52 123.487 130.147 123.72 129.68 123.907C129.213 124.093 128.653 124.14 128.093 124.14ZM126.413 119.707C126.413 120.967 126.553 121.9 126.88 122.507C127.16 123.113 127.627 123.44 128.233 123.44C128.56 123.44 128.793 123.347 129.027 123.16C129.26 123.02 129.447 122.74 129.587 122.46C129.727 122.133 129.82 121.76 129.867 121.34C129.913 120.92 129.96 120.453 129.96 119.94C129.96 119.147 129.913 118.447 129.773 117.887C129.633 117.327 129.447 116.907 129.167 116.627C128.933 116.347 128.607 116.207 128.187 116.207C127.58 116.207 127.16 116.487 126.833 117.047C126.553 117.607 126.413 118.54 126.413 119.707ZM133.927 121.947C134.067 122.46 134.207 122.833 134.487 123.067C134.72 123.3 135.047 123.44 135.513 123.44C135.747 123.44 135.98 123.393 136.167 123.3C136.353 123.207 136.54 123.113 136.633 122.927C136.773 122.74 136.82 122.507 136.82 122.227C136.82 121.947 136.773 121.713 136.68 121.527C136.587 121.34 136.447 121.2 136.213 121.013C136.027 120.827 135.7 120.64 135.327 120.453C135 120.313 134.72 120.127 134.487 119.94C134.207 119.8 133.973 119.613 133.833 119.38C133.647 119.193 133.507 118.96 133.367 118.68C133.273 118.447 133.227 118.167 133.227 117.84C133.227 117.327 133.367 116.907 133.6 116.533C133.88 116.207 134.207 115.927 134.72 115.74C135.187 115.553 135.747 115.46 136.353 115.46C136.727 115.46 137.053 115.46 137.38 115.507C137.753 115.553 138.127 115.647 138.547 115.74V117.56H137.707C137.613 117.187 137.52 116.953 137.38 116.767C137.287 116.58 137.1 116.44 136.96 116.347C136.773 116.253 136.54 116.207 136.26 116.207C136.027 116.207 135.793 116.253 135.607 116.3C135.42 116.393 135.28 116.533 135.187 116.673C135.093 116.86 135.047 117.047 135.047 117.28C135.047 117.513 135.093 117.747 135.187 117.887C135.28 118.073 135.42 118.26 135.653 118.447C135.84 118.587 136.167 118.773 136.587 119.007C137.1 119.287 137.473 119.52 137.8 119.8C138.08 120.033 138.267 120.313 138.407 120.593C138.547 120.92 138.64 121.247 138.64 121.667C138.64 122.18 138.5 122.6 138.267 122.973C138.033 123.347 137.707 123.673 137.24 123.86C136.82 124.047 136.307 124.14 135.7 124.14C135.28 124.14 134.86 124.14 134.393 124.093C133.927 124.047 133.507 123.953 133.087 123.86V121.947H133.927ZM142.233 122.507C142.233 122.647 142.233 122.787 142.233 122.927C142.233 123.02 142.28 123.113 142.28 123.207C142.327 123.3 142.373 123.347 142.42 123.393C142.467 123.487 142.513 123.533 142.607 123.533C142.7 123.58 142.793 123.627 142.887 123.673V124.047H139.667V123.673C139.807 123.627 139.947 123.58 140.04 123.533C140.133 123.487 140.18 123.393 140.227 123.3C140.273 123.253 140.273 123.113 140.32 122.973C140.32 122.88 140.32 122.693 140.32 122.507V117.14C140.32 116.907 140.32 116.767 140.32 116.627C140.32 116.487 140.273 116.393 140.227 116.3C140.18 116.207 140.133 116.16 140.04 116.113C139.947 116.067 139.807 116.02 139.667 115.973V115.553H142.887V115.973C142.747 116.02 142.607 116.067 142.513 116.113C142.467 116.16 142.373 116.253 142.327 116.3C142.327 116.393 142.28 116.487 142.28 116.58C142.233 116.72 142.233 116.907 142.233 117.14V122.507ZM148.487 121.433H145.827L145.64 122.04C145.593 122.18 145.547 122.367 145.5 122.507C145.453 122.647 145.453 122.833 145.453 123.02C145.453 123.393 145.64 123.627 146.06 123.673V124.047H143.447V123.673C143.587 123.627 143.727 123.58 143.82 123.487C143.96 123.393 144.053 123.253 144.147 123.113C144.24 122.973 144.333 122.74 144.473 122.46L147.04 115.507H148.673L150.727 122.507C150.82 122.787 150.867 123.02 150.96 123.16C151.007 123.3 151.1 123.393 151.193 123.487C151.287 123.533 151.427 123.627 151.613 123.673V124.047H148.207V123.673C148.393 123.627 148.58 123.58 148.673 123.487C148.767 123.393 148.813 123.253 148.813 123.067C148.813 122.927 148.813 122.787 148.767 122.647C148.767 122.46 148.72 122.273 148.627 122.04L148.487 121.433ZM146.06 120.687H148.3L147.32 117.187L146.06 120.687ZM155.533 115.553V115.973C155.393 116.02 155.3 116.067 155.207 116.113C155.113 116.16 155.067 116.207 155.02 116.3C154.973 116.393 154.927 116.487 154.927 116.627C154.88 116.767 154.88 116.907 154.88 117.14V123.3H156.093C156.327 123.3 156.513 123.3 156.653 123.207C156.793 123.113 156.933 123.02 157.027 122.88C157.12 122.693 157.213 122.507 157.307 122.273C157.4 121.993 157.447 121.76 157.493 121.527H158.333L158.193 124.047H152.313V123.673C152.453 123.627 152.593 123.58 152.687 123.533C152.78 123.487 152.827 123.393 152.873 123.3C152.92 123.207 152.967 123.113 152.967 122.973C152.967 122.88 152.967 122.693 152.967 122.507V117.14C152.967 116.953 152.967 116.767 152.967 116.627C152.967 116.487 152.92 116.393 152.873 116.3C152.827 116.253 152.78 116.16 152.687 116.113C152.593 116.067 152.453 116.02 152.313 115.973V115.553H155.533Z" fill="var(--svg-stroke)"/>
<path d="M41.3866 138.187H38.54V137.86C38.68 137.813 38.7733 137.767 38.8666 137.72C38.9133 137.673 38.96 137.627 39.0066 137.533C39.0533 137.487 39.1 137.393 39.1 137.253C39.1 137.16 39.1 137.02 39.1 136.833V132.12C39.1 131.98 39.1 131.84 39.1 131.7C39.1 131.607 39.0533 131.513 39.0066 131.42C39.0066 131.327 38.9133 131.28 38.8666 131.233C38.7733 131.187 38.68 131.14 38.54 131.14V130.767H41.6666C42.0866 130.767 42.46 130.813 42.74 130.86C43.0666 130.907 43.3 131 43.5333 131.14C43.72 131.233 43.9066 131.373 44 131.513C44.14 131.653 44.2333 131.84 44.3266 132.073C44.3733 132.26 44.42 132.493 44.42 132.773C44.42 133.1 44.3733 133.427 44.2333 133.66C44.0933 133.94 43.9533 134.127 43.72 134.313C43.5333 134.5 43.2533 134.64 42.88 134.78V134.827C43.16 134.967 43.3933 135.107 43.5333 135.293C43.72 135.527 43.86 135.76 44 136.04L44.3733 136.787C44.5133 137.113 44.6533 137.393 44.7933 137.533C44.98 137.72 45.12 137.813 45.3533 137.86V138.187H43.2533C43.0666 137.907 42.8333 137.487 42.5533 136.927L42.1333 135.993C41.9933 135.713 41.9 135.48 41.8066 135.387C41.7133 135.247 41.62 135.2 41.5266 135.153C41.4333 135.107 41.2933 135.06 41.1066 135.06H40.78V136.833C40.78 137.113 40.78 137.3 40.8266 137.393C40.8266 137.533 40.8733 137.58 40.9666 137.673C41.06 137.72 41.1533 137.767 41.3866 137.86V138.187ZM40.78 131.42V134.453H41.34C41.62 134.453 41.8533 134.407 42.04 134.313C42.2266 134.267 42.3666 134.127 42.46 133.987C42.6 133.847 42.6466 133.707 42.6933 133.52C42.74 133.333 42.7866 133.1 42.7866 132.867C42.7866 132.4 42.6466 132.027 42.4133 131.793C42.18 131.513 41.8533 131.42 41.3866 131.42C41.1066 131.42 40.8733 131.42 40.78 131.42ZM51.1866 130.767V132.493H50.44C50.3466 132.167 50.2533 131.933 50.16 131.793C50.0666 131.653 49.9733 131.56 49.88 131.513C49.74 131.42 49.5533 131.42 49.2733 131.42H48.1066V134.033H48.8066C48.9933 134.033 49.0866 133.987 49.18 133.94C49.2733 133.893 49.3666 133.847 49.4133 133.707C49.46 133.613 49.5066 133.473 49.6 133.24H50.2066V135.433H49.6C49.5066 135.247 49.46 135.06 49.4133 134.967C49.3666 134.873 49.2733 134.78 49.18 134.733C49.0866 134.687 48.9933 134.64 48.8066 134.64H48.1066V137.58H49.2733C49.4133 137.58 49.5066 137.533 49.6 137.533C49.6933 137.533 49.74 137.487 49.8333 137.44C49.88 137.393 49.9733 137.347 50.02 137.3C50.0666 137.207 50.16 137.16 50.2066 137.067C50.2533 136.973 50.3 136.88 50.3466 136.74C50.3933 136.6 50.44 136.46 50.5333 136.227H51.28L51.14 138.187H45.8666V137.86C45.96 137.813 46.1 137.767 46.1466 137.72C46.24 137.673 46.2866 137.627 46.3333 137.533C46.38 137.487 46.38 137.393 46.4266 137.253C46.4266 137.16 46.4266 137.02 46.4266 136.833V132.12C46.4266 131.98 46.4266 131.84 46.4266 131.7C46.4266 131.607 46.38 131.513 46.3333 131.42C46.2866 131.327 46.24 131.28 46.1466 131.233C46.1 131.187 46.0066 131.14 45.8666 131.14V130.767H51.1866ZM54.5 136.833C54.5 137.067 54.5 137.253 54.5 137.347C54.5466 137.44 54.5466 137.533 54.5933 137.58C54.64 137.627 54.6866 137.673 54.78 137.72C54.8733 137.767 54.9666 137.813 55.1533 137.86V138.187H52.2133V137.86C52.3533 137.813 52.4933 137.767 52.54 137.72C52.6333 137.673 52.68 137.627 52.7266 137.533C52.7733 137.487 52.7733 137.393 52.7733 137.253C52.82 137.16 52.82 137.02 52.82 136.833V132.12C52.82 131.98 52.82 131.84 52.82 131.7C52.7733 131.607 52.7733 131.513 52.7266 131.42C52.68 131.327 52.6333 131.28 52.54 131.233C52.4933 131.187 52.3533 131.14 52.2133 131.14V130.767H55.3866C56.2733 130.767 56.9733 130.907 57.44 131.233C57.86 131.607 58.0933 132.073 58.0933 132.773C58.0933 133.24 58 133.66 57.7666 134.033C57.58 134.407 57.2533 134.64 56.8333 134.827C56.46 135.013 55.9466 135.107 55.34 135.107C55.0133 135.107 54.6866 135.107 54.5 135.107V136.833ZM54.5 134.5H54.9666C55.2933 134.5 55.5733 134.407 55.8066 134.313C56.04 134.22 56.18 134.033 56.2733 133.847C56.3666 133.613 56.4133 133.287 56.4133 132.913C56.4133 132.54 56.3666 132.26 56.2733 132.027C56.18 131.793 56.04 131.653 55.8066 131.56C55.62 131.467 55.3866 131.42 55.06 131.42C54.8266 131.42 54.64 131.42 54.5 131.42V134.5ZM63.7866 132.12C63.7866 131.84 63.7866 131.653 63.74 131.56C63.74 131.467 63.6933 131.373 63.6 131.28C63.5533 131.233 63.4133 131.187 63.2266 131.14V130.767H65.56V131.14C65.4666 131.14 65.3266 131.187 65.28 131.233C65.1866 131.28 65.14 131.327 65.0933 131.42C65.0466 131.467 65.0466 131.56 65.0466 131.7C65 131.793 65 131.98 65 132.12V135.527C65 135.993 64.9533 136.367 64.9066 136.647C64.8133 136.973 64.72 137.207 64.58 137.44C64.3933 137.627 64.2066 137.813 64.02 137.953C63.7866 138.047 63.5066 138.14 63.2266 138.187C62.9466 138.28 62.6666 138.28 62.2933 138.28C61.78 138.28 61.36 138.233 60.9866 138.14C60.66 138 60.38 137.86 60.1466 137.627C59.9133 137.44 59.7733 137.16 59.6333 136.833C59.54 136.553 59.4933 136.133 59.4933 135.667V132.12C59.4933 131.98 59.4933 131.84 59.4933 131.7C59.4466 131.607 59.4466 131.513 59.4 131.42C59.3533 131.327 59.3066 131.28 59.2133 131.233C59.1666 131.187 59.0733 131.14 58.9333 131.14V130.767H61.7333V131.14C61.5933 131.14 61.5 131.187 61.4066 131.233C61.36 131.28 61.3133 131.373 61.2666 131.42C61.22 131.467 61.22 131.56 61.1733 131.653C61.1733 131.793 61.1733 131.933 61.1733 132.12V135.713C61.1733 136.04 61.1733 136.273 61.22 136.507C61.2666 136.74 61.3133 136.973 61.4066 137.113C61.5 137.3 61.64 137.44 61.8266 137.533C61.9666 137.627 62.2 137.627 62.48 137.627C62.8533 137.627 63.0866 137.58 63.2733 137.44C63.46 137.3 63.6 137.067 63.6466 136.787C63.74 136.553 63.7866 136.133 63.7866 135.62V132.12ZM71.16 134.313C71.6733 134.453 72.0466 134.687 72.28 135.013C72.56 135.293 72.7 135.667 72.7 136.087C72.7 136.46 72.6533 136.787 72.5133 137.02C72.3733 137.3 72.2333 137.533 71.9533 137.72C71.72 137.86 71.44 138 71.1133 138.093C70.74 138.14 70.32 138.187 69.8066 138.187H66.4933V137.86C66.6333 137.813 66.7266 137.767 66.82 137.72C66.9133 137.673 66.96 137.627 67.0066 137.533C67.0066 137.487 67.0533 137.393 67.0533 137.253C67.0533 137.16 67.1 137.02 67.1 136.833V132.12C67.1 131.98 67.0533 131.84 67.0533 131.7C67.0533 131.607 67.0533 131.513 67.0066 131.42C66.96 131.327 66.9133 131.28 66.82 131.233C66.7266 131.187 66.6333 131.14 66.4933 131.14V130.767H70.04C70.46 130.767 70.7866 130.767 71.02 130.813C71.3466 130.86 71.6733 130.953 71.9066 131.093C72.14 131.233 72.28 131.42 72.42 131.607C72.56 131.84 72.6066 132.12 72.6066 132.4C72.6066 133.24 72.14 133.847 71.16 134.267V134.313ZM69.48 134.033C69.8066 134.033 70.1333 133.987 70.32 133.847C70.5066 133.753 70.6933 133.613 70.7866 133.427C70.88 133.24 70.9266 132.96 70.9266 132.587C70.9266 132.307 70.88 132.073 70.7866 131.887C70.6466 131.7 70.5066 131.607 70.2733 131.513C70.0866 131.42 69.8066 131.42 69.48 131.42C69.2466 131.42 68.9666 131.42 68.7333 131.42V134.033H69.48ZM68.7333 137.533C68.9666 137.533 69.2 137.58 69.48 137.58C69.8066 137.58 70.0866 137.533 70.32 137.44C70.5533 137.347 70.74 137.207 70.8333 136.973C70.9733 136.787 71.02 136.46 71.02 136.133C71.02 135.853 71.02 135.62 70.9266 135.433C70.88 135.247 70.7866 135.107 70.6466 134.967C70.5066 134.873 70.3666 134.78 70.18 134.733C69.9933 134.687 69.76 134.64 69.48 134.64H68.7333V137.533ZM76.5266 130.767V131.14C76.3866 131.14 76.2933 131.187 76.2466 131.233C76.1533 131.28 76.1066 131.327 76.06 131.42C76.0133 131.467 75.9666 131.56 75.9666 131.7C75.9666 131.793 75.9666 131.933 75.9666 132.12V137.533H76.9933C77.2266 137.533 77.3666 137.533 77.5066 137.44C77.6466 137.393 77.74 137.3 77.8333 137.16C77.9266 137.02 78.02 136.833 78.0666 136.6C78.1133 136.413 78.2066 136.18 78.2066 135.993H78.9533L78.86 138.187H73.68V137.86C73.82 137.813 73.96 137.767 74.0066 137.72C74.1 137.673 74.1466 137.627 74.1933 137.533C74.24 137.487 74.24 137.393 74.24 137.253C74.2866 137.16 74.2866 137.02 74.2866 136.833V132.12C74.2866 131.98 74.2866 131.84 74.2866 131.7C74.24 131.607 74.24 131.513 74.1933 131.42C74.1466 131.327 74.1 131.28 74.0066 131.233C73.96 131.187 73.82 131.14 73.68 131.14V130.767H76.5266ZM82.0333 136.833C82.0333 136.973 82.0333 137.067 82.0333 137.207C82.08 137.3 82.08 137.393 82.08 137.44C82.1266 137.533 82.1266 137.58 82.1733 137.627C82.22 137.673 82.2666 137.72 82.36 137.767C82.4533 137.767 82.5 137.813 82.64 137.86V138.187H79.7933V137.86C79.9333 137.813 80.0266 137.767 80.12 137.72C80.1666 137.673 80.26 137.627 80.26 137.533C80.3066 137.487 80.3533 137.393 80.3533 137.253C80.3533 137.16 80.3533 137.02 80.3533 136.833V132.12C80.3533 131.98 80.3533 131.793 80.3533 131.7C80.3533 131.607 80.3066 131.513 80.3066 131.42C80.26 131.327 80.2133 131.28 80.12 131.233C80.0266 131.187 79.9333 131.14 79.7933 131.14V130.767H82.64V131.14C82.5 131.14 82.36 131.187 82.3133 131.233C82.22 131.28 82.1733 131.373 82.1266 131.42C82.08 131.467 82.08 131.56 82.08 131.653C82.0333 131.793 82.0333 131.933 82.0333 132.12V136.833ZM89.64 136.74C89.78 136.973 89.92 137.16 90.0133 137.253C90.1066 137.393 90.2 137.487 90.2466 137.58C90.34 137.627 90.3866 137.72 90.48 137.72C90.5266 137.767 90.62 137.813 90.76 137.86V138.187H87.82V137.86C87.96 137.813 88.0533 137.813 88.1 137.767C88.1 137.72 88.1466 137.673 88.1466 137.58C88.1466 137.533 88.1466 137.487 88.1 137.393C88.1 137.347 88.0533 137.253 88.0066 137.16C87.96 137.067 87.82 136.833 87.6333 136.553L86.7933 135.293C86.7 135.107 86.6066 135.013 86.56 134.92C86.4666 134.827 86.3733 134.78 86.3266 134.733C86.2333 134.687 86.14 134.687 86 134.687H85.9066V136.833C85.9066 136.973 85.9066 137.067 85.9066 137.207C85.9066 137.3 85.9533 137.393 85.9533 137.44C86 137.533 86 137.58 86.0466 137.627C86.0933 137.673 86.14 137.72 86.2333 137.767C86.28 137.767 86.3733 137.813 86.5133 137.86V138.187H83.6666V137.86C83.8066 137.813 83.9 137.767 83.9933 137.72C84.04 137.673 84.0866 137.627 84.1333 137.533C84.18 137.487 84.2266 137.393 84.2266 137.253C84.2266 137.16 84.2266 137.02 84.2266 136.833V132.12C84.2266 131.98 84.2266 131.84 84.2266 131.7C84.2266 131.607 84.18 131.513 84.1333 131.42C84.1333 131.327 84.04 131.28 83.9933 131.233C83.9 131.187 83.8066 131.14 83.6666 131.14V130.767H86.5133V131.14C86.3266 131.14 86.2333 131.187 86.14 131.233C86.0933 131.28 86.0466 131.373 86 131.42C85.9533 131.467 85.9533 131.56 85.9533 131.653C85.9066 131.793 85.9066 131.933 85.9066 132.12V134.08H86C86.1866 134.08 86.3266 134.033 86.42 134.033C86.5133 133.987 86.6066 133.94 86.7 133.847C86.84 133.753 87.0266 133.52 87.3066 133.147C87.5866 132.82 87.82 132.54 87.96 132.353C88.1 132.167 88.1466 132.027 88.1933 131.887C88.2866 131.793 88.2866 131.653 88.2866 131.513C88.2866 131.42 88.24 131.327 88.1466 131.233C88.1 131.187 87.96 131.14 87.82 131.14V130.767H90.5733V131.14C90.4333 131.14 90.2933 131.187 90.2 131.233C90.1066 131.28 90.0133 131.373 89.8733 131.513C89.7333 131.607 89.5933 131.793 89.4066 131.98L87.7733 133.847L89.64 136.74ZM95.8933 136.833C95.8933 136.973 95.8933 137.067 95.8933 137.207C95.8933 137.3 95.8933 137.393 95.94 137.44C95.94 137.533 95.9866 137.58 96.0333 137.627C96.08 137.673 96.1266 137.72 96.22 137.767C96.2666 137.767 96.36 137.813 96.4533 137.86V138.187H93.6066V137.86C93.7466 137.813 93.8866 137.767 93.9333 137.72C94.0266 137.673 94.0733 137.627 94.12 137.533C94.1666 137.487 94.1666 137.393 94.1666 137.253C94.2133 137.16 94.2133 137.02 94.2133 136.833V132.12C94.2133 131.98 94.2133 131.793 94.2133 131.7C94.1666 131.607 94.1666 131.513 94.12 131.42C94.0733 131.327 94.0266 131.28 93.9333 131.233C93.8866 131.187 93.7466 131.14 93.6066 131.14V130.767H96.4533V131.14C96.3133 131.14 96.22 131.187 96.1266 131.233C96.08 131.28 96.0333 131.373 95.9866 131.42C95.94 131.467 95.8933 131.56 95.8933 131.653C95.8933 131.793 95.8933 131.933 95.8933 132.12V136.833ZM104.06 130.767V131.14C103.873 131.187 103.78 131.187 103.733 131.233C103.687 131.28 103.64 131.327 103.593 131.373C103.547 131.42 103.5 131.513 103.5 131.607C103.453 131.747 103.453 131.887 103.453 132.12V138.187H102.1L99.6733 133.94C99.3466 133.38 99.0666 132.96 98.9266 132.587H98.88C98.9266 133.38 98.9266 134.22 98.9266 135.06V136.833C98.9266 137.113 98.9266 137.3 98.9733 137.393C99.02 137.533 99.0666 137.627 99.1133 137.673C99.2066 137.72 99.3 137.767 99.5333 137.86V138.187H97.48V137.86C97.62 137.813 97.7133 137.767 97.8066 137.72C97.8533 137.673 97.9466 137.627 97.9466 137.533C97.9933 137.487 98.04 137.393 98.04 137.253C98.04 137.16 98.04 137.02 98.04 136.833V132.12C98.04 131.84 98.04 131.653 98.04 131.56C97.9933 131.467 97.9466 131.373 97.8533 131.28C97.8066 131.233 97.6666 131.187 97.48 131.14V130.767H99.6733L101.587 134.127C101.68 134.313 101.867 134.593 102.053 134.967C102.24 135.34 102.38 135.667 102.567 135.993H102.613C102.613 135.107 102.567 134.173 102.567 133.147V132.12C102.567 131.887 102.567 131.747 102.567 131.607C102.52 131.513 102.52 131.42 102.473 131.373C102.427 131.327 102.38 131.28 102.333 131.233C102.24 131.187 102.147 131.187 102.007 131.14V130.767H104.06ZM107.793 130.767C108.4 130.767 108.913 130.813 109.333 130.907C109.707 131 110.08 131.14 110.407 131.373C110.687 131.56 110.967 131.793 111.153 132.073C111.34 132.353 111.48 132.68 111.573 133.053C111.667 133.427 111.713 133.847 111.713 134.313C111.713 134.873 111.667 135.387 111.527 135.853C111.387 136.32 111.2 136.693 110.92 137.02C110.687 137.3 110.407 137.533 110.08 137.72C109.707 137.907 109.333 138.047 108.913 138.093C108.493 138.187 108.027 138.187 107.467 138.187H104.993V137.86C105.133 137.813 105.227 137.767 105.32 137.72C105.413 137.673 105.46 137.627 105.507 137.533C105.507 137.487 105.553 137.393 105.553 137.253C105.553 137.16 105.6 137.02 105.6 136.833V132.12C105.6 131.98 105.553 131.84 105.553 131.7C105.553 131.607 105.553 131.513 105.507 131.42C105.46 131.327 105.413 131.28 105.32 131.233C105.227 131.187 105.133 131.14 104.993 131.14V130.767H107.793ZM107.233 137.533C107.327 137.533 107.467 137.533 107.747 137.533C108.12 137.533 108.493 137.487 108.727 137.393C108.96 137.3 109.1 137.16 109.24 137.02C109.473 136.787 109.66 136.46 109.8 136.04C109.893 135.62 109.987 135.06 109.987 134.453C109.987 133.753 109.893 133.193 109.707 132.727C109.52 132.26 109.24 131.933 108.913 131.747C108.587 131.513 108.213 131.42 107.747 131.42C107.513 131.42 107.373 131.42 107.233 131.42V137.533ZM116.007 138.28C114.98 138.28 114.187 137.953 113.627 137.347C113.113 136.74 112.833 135.807 112.833 134.547C112.833 133.707 112.973 133.007 113.253 132.447C113.487 131.887 113.86 131.42 114.373 131.14C114.887 130.813 115.447 130.673 116.147 130.673C117.22 130.673 118.06 131 118.573 131.607C119.133 132.213 119.413 133.147 119.413 134.407C119.413 135.06 119.32 135.667 119.133 136.133C118.993 136.647 118.76 137.067 118.48 137.347C118.153 137.673 117.827 137.907 117.407 138.047C116.987 138.233 116.52 138.28 116.007 138.28ZM114.56 134.407C114.56 135.48 114.7 136.32 114.98 136.833C115.213 137.393 115.633 137.627 116.147 137.627C116.427 137.627 116.66 137.58 116.847 137.44C117.033 137.253 117.22 137.067 117.313 136.787C117.453 136.507 117.547 136.18 117.593 135.853C117.64 135.48 117.687 135.06 117.687 134.593C117.687 133.893 117.593 133.287 117.5 132.773C117.407 132.307 117.22 131.933 116.987 131.7C116.753 131.42 116.473 131.327 116.1 131.327C115.587 131.327 115.213 131.56 114.933 132.073C114.7 132.587 114.56 133.333 114.56 134.407ZM127.02 130.767V131.14C126.88 131.187 126.787 131.187 126.74 131.233C126.647 131.28 126.6 131.327 126.553 131.373C126.507 131.42 126.507 131.513 126.46 131.607C126.46 131.747 126.46 131.887 126.46 132.12V138.187H125.06L122.633 133.94C122.307 133.38 122.073 132.96 121.933 132.587H121.887C121.887 133.38 121.933 134.22 121.933 135.06V136.833C121.933 137.113 121.933 137.3 121.98 137.393C121.98 137.533 122.027 137.627 122.12 137.673C122.167 137.72 122.307 137.767 122.493 137.86V138.187H120.487V137.86C120.58 137.813 120.72 137.767 120.767 137.72C120.86 137.673 120.907 137.627 120.953 137.533C121 137.487 121 137.393 121.047 137.253C121.047 137.16 121.047 137.02 121.047 136.833V132.12C121.047 131.84 121.047 131.653 121 131.56C121 131.467 120.953 131.373 120.86 131.28C120.767 131.233 120.673 131.187 120.487 131.14V130.767H122.633L124.547 134.127C124.687 134.313 124.827 134.593 125.013 134.967C125.2 135.34 125.387 135.667 125.527 135.993H125.62C125.573 135.107 125.573 134.173 125.573 133.147V132.12C125.573 131.887 125.573 131.747 125.527 131.607C125.527 131.513 125.48 131.42 125.433 131.373C125.433 131.327 125.34 131.28 125.293 131.233C125.247 131.187 125.153 131.187 124.967 131.14V130.767H127.02ZM133.367 130.767V132.493H132.62C132.48 132.167 132.387 131.933 132.293 131.793C132.2 131.653 132.107 131.56 132.013 131.513C131.873 131.42 131.687 131.42 131.407 131.42H130.24V134.033H130.94C131.127 134.033 131.22 133.987 131.313 133.94C131.407 133.893 131.5 133.847 131.547 133.707C131.593 133.613 131.687 133.473 131.733 133.24H132.34V135.433H131.733C131.687 135.247 131.593 135.06 131.547 134.967C131.5 134.873 131.407 134.78 131.313 134.733C131.267 134.687 131.127 134.64 130.94 134.64H130.24V137.58H131.407C131.547 137.58 131.64 137.533 131.733 137.533C131.827 137.533 131.873 137.487 131.967 137.44C132.013 137.393 132.107 137.347 132.153 137.3C132.247 137.207 132.293 137.16 132.34 137.067C132.387 136.973 132.433 136.88 132.48 136.74C132.527 136.6 132.573 136.46 132.667 136.227H133.413L133.32 138.187H128V137.86C128.14 137.813 128.233 137.767 128.327 137.72C128.373 137.673 128.42 137.627 128.467 137.533C128.513 137.487 128.56 137.393 128.56 137.253C128.56 137.16 128.56 137.02 128.56 136.833V132.12C128.56 131.98 128.56 131.84 128.56 131.7C128.56 131.607 128.513 131.513 128.467 131.42C128.467 131.327 128.373 131.28 128.327 131.233C128.233 131.187 128.14 131.14 128 131.14V130.767H133.367ZM135.047 136.367C135.14 136.787 135.28 137.113 135.513 137.347C135.7 137.533 136.027 137.627 136.447 137.627C136.633 137.627 136.82 137.627 137.007 137.533C137.193 137.487 137.287 137.347 137.427 137.207C137.52 137.02 137.567 136.833 137.567 136.6C137.567 136.367 137.52 136.18 137.427 135.993C137.333 135.853 137.24 135.667 137.053 135.527C136.867 135.387 136.587 135.2 136.26 135.06C135.98 134.92 135.747 134.78 135.513 134.593C135.28 134.453 135.093 134.267 134.953 134.127C134.767 133.94 134.627 133.707 134.58 133.52C134.487 133.287 134.44 133.053 134.44 132.773C134.44 132.307 134.533 131.933 134.767 131.607C134.953 131.327 135.28 131.093 135.7 130.907C136.12 130.767 136.587 130.673 137.147 130.673C137.473 130.673 137.8 130.673 138.08 130.72C138.36 130.767 138.687 130.813 139.06 130.907V132.493H138.313C138.267 132.213 138.173 131.98 138.08 131.793C137.94 131.653 137.847 131.513 137.66 131.42C137.52 131.373 137.333 131.327 137.053 131.327C136.867 131.327 136.68 131.327 136.54 131.42C136.353 131.513 136.213 131.607 136.12 131.747C136.027 131.887 135.98 132.073 135.98 132.26C135.98 132.493 136.027 132.68 136.12 132.82C136.213 132.96 136.353 133.1 136.54 133.287C136.727 133.427 137.007 133.567 137.38 133.753C137.8 133.987 138.127 134.22 138.407 134.453C138.64 134.687 138.827 134.92 138.967 135.2C139.107 135.433 139.153 135.76 139.153 136.087C139.153 136.553 139.06 136.927 138.827 137.253C138.64 137.58 138.313 137.86 137.94 138C137.567 138.187 137.1 138.28 136.587 138.28C136.213 138.28 135.84 138.28 135.42 138.233C135.047 138.187 134.673 138.14 134.3 138.047V136.367H135.047ZM142.28 136.833C142.28 136.973 142.327 137.067 142.327 137.207C142.327 137.3 142.327 137.393 142.373 137.44C142.373 137.533 142.42 137.58 142.467 137.627C142.513 137.673 142.56 137.72 142.607 137.767C142.7 137.767 142.793 137.813 142.887 137.86V138.187H140.04V137.86C140.18 137.813 140.273 137.767 140.367 137.72C140.46 137.673 140.507 137.627 140.553 137.533C140.6 137.487 140.6 137.393 140.6 137.253C140.647 137.16 140.647 137.02 140.647 136.833V132.12C140.647 131.98 140.647 131.793 140.6 131.7C140.6 131.607 140.6 131.513 140.553 131.42C140.507 131.327 140.46 131.28 140.367 131.233C140.273 131.187 140.18 131.14 140.04 131.14V130.767H142.887V131.14C142.747 131.14 142.607 131.187 142.56 131.233C142.467 131.28 142.42 131.373 142.42 131.42C142.373 131.467 142.327 131.56 142.327 131.653C142.327 131.793 142.28 131.933 142.28 132.12V136.833ZM147.74 135.9H145.453L145.267 136.413C145.22 136.553 145.173 136.693 145.127 136.833C145.127 136.973 145.08 137.113 145.08 137.253C145.08 137.627 145.267 137.813 145.64 137.86V138.187H143.353V137.86C143.493 137.813 143.587 137.767 143.727 137.72C143.82 137.627 143.913 137.487 143.96 137.393C144.053 137.253 144.147 137.02 144.24 136.787L146.48 130.72H147.927L149.7 136.833C149.793 137.113 149.887 137.3 149.933 137.393C149.98 137.533 150.027 137.627 150.12 137.673C150.213 137.767 150.353 137.813 150.493 137.86V138.187H147.507V137.86C147.693 137.813 147.833 137.767 147.927 137.673C148.02 137.58 148.067 137.487 148.067 137.347C148.067 137.207 148.067 137.067 148.02 136.973C148.02 136.833 147.973 136.647 147.88 136.413L147.74 135.9ZM145.64 135.247H147.6L146.713 132.213L145.64 135.247Z" fill="var(--svg-stroke)"/>
<style><![CDATA[ :root{ --svg-stroke: #2B2727 } ]]></style>
</svg>
