<svg width="186" height="150" viewBox="0 0 186 150" fill="none" xmlns="http://www.w3.org/2000/svg">
<g clip-path="url(#clip0_456_62754)">
<path opacity="0.997" d="M137.058 20.5H48.8952C45.6624 20.5 43.0416 23.1207 43.0416 26.3536V123.646C43.0416 126.879 45.6624 129.5 48.8952 129.5H137.058C140.29 129.5 142.911 126.879 142.911 123.646V26.3536C142.911 23.1207 140.29 20.5 137.058 20.5Z" fill="#242458"/>
<path d="M92.9769 26.4639C90.0674 26.5123 86.186 27.3547 83.7434 28.9813C80.5567 31.1058 78.3283 34.38 77.4129 38.2824L76.9625 40.2044L74.9894 40.3694C72.079 40.6192 69.847 41.4736 67.4208 43.2661C64.648 45.314 62.2893 49.0896 61.6565 52.4924L61.3584 54.0962L60.0253 54.4381C53.7943 56.0355 49.333 60.6911 48.3665 66.6039C47.9325 69.259 47.9954 69.352 50.2228 69.352H52.0701L52.2561 68.0008C52.5415 65.9228 54.0295 63.2167 55.7519 61.643C60.3399 57.4497 67.2275 57.6804 71.3806 62.1663C72.9634 63.8759 73.8068 65.4688 74.3147 67.7081L74.6575 69.2189L80.3406 69.3702V110.751H61.6802L61.838 114.345H84.4664L84.5348 80.7547L84.6032 61.674L85.5988 60.8898C86.1468 60.4586 86.8452 60.0282 87.1507 59.9334L87.7059 59.7601L87.8819 79.1317L88.0588 106.425V114.345H91.7861L92.0277 53.7023C92.0277 50.4737 88.6059 44.2135 82.2681 41.263C80.9661 40.7423 80.9187 40.5226 81.6545 38.3854C82.6684 35.4376 84.7819 33.1308 87.7606 31.7212C89.2104 31.0584 89.638 30.7912 92.9769 30.7912C96.3158 30.7912 96.7425 31.0584 98.1923 31.7212C101.17 33.1299 103.284 35.4367 104.298 38.3854C105.033 40.5226 104.987 40.7414 103.685 41.263C97.347 44.2135 93.9242 50.4746 93.9242 53.7023L94.1659 114.345H97.8932V106.425L98.0701 79.1317L98.2461 59.7601L98.8013 59.9334C99.1068 60.0282 99.8052 60.4586 100.353 60.8898L101.349 61.674L101.417 80.7547L101.485 114.345H124.117L124.274 110.751H105.614V69.3693L111.297 69.218L111.64 67.7072C112.148 65.4678 112.991 63.875 114.573 62.1654C118.726 57.6804 125.614 57.4497 130.202 61.642C131.923 63.2158 133.412 65.9228 133.698 67.9998L133.884 69.3511H135.731C137.958 69.3511 138.02 69.2572 137.586 66.603C136.621 60.6901 132.16 56.0346 125.928 54.4372L124.595 54.0953L124.297 52.4915C123.665 49.0887 121.306 45.3131 118.533 43.2652C116.107 41.4727 113.875 40.6183 110.964 40.3685L108.991 40.2035L108.541 38.2814C107.625 34.379 105.396 31.1049 102.21 28.9804C99.7669 27.3538 95.8864 26.5123 92.9769 26.4639ZM76.5148 44.673C78.2317 44.6575 79.9704 45.0605 81.6572 45.8829C84.615 47.3253 87.426 51.06 87.5965 53.7734C87.6594 54.77 87.6257 54.811 86.3137 55.3526C83.0167 56.7139 80.3169 59.1957 78.7304 62.3204C78.2517 63.2632 77.8223 63.9953 77.7758 63.9488C77.7293 63.9023 77.298 63.1273 76.8184 62.2265C74.7605 58.3633 71.2648 55.6489 66.8026 54.4509C65.6537 54.1427 65.6464 54.1327 65.8261 53.1771C66.3248 50.5193 68.751 47.4402 71.5046 45.9732C73.1029 45.1216 74.7979 44.6885 76.5148 44.673ZM109.438 44.673C111.155 44.6885 112.85 45.1225 114.448 45.9741C117.201 47.4411 119.628 50.5202 120.127 53.178C120.306 54.1336 120.299 54.1436 119.15 54.4518C114.688 55.6499 111.191 58.3642 109.134 62.2274C108.655 63.1273 108.225 63.9023 108.177 63.9497C108.13 63.9972 107.7 63.2641 107.222 62.3213C105.635 59.1967 102.935 56.7148 99.6383 55.3535C98.3272 54.8119 98.2935 54.7709 98.3564 53.7743C98.5269 51.0609 101.338 47.3253 104.296 45.8838C105.982 45.0614 107.721 44.6575 109.438 44.673Z" fill="#FFF114"/>
<path d="M65.2489 118.997C65.2489 118.665 65.1607 118.428 64.9845 118.285C64.8106 118.144 64.5663 118.073 64.2514 118.073H63.0059V119.957H64.2514C64.5669 119.957 64.8112 119.88 64.9845 119.727C65.1607 119.574 65.2489 119.33 65.2489 118.997ZM66.5728 118.988C66.5728 119.743 66.3819 120.277 66.0002 120.589C65.6185 120.902 65.0732 121.058 64.3645 121.058H63.0059V123.358H61.6775V116.961H64.4638C65.1063 116.961 65.6185 117.126 66.0002 117.456C66.3819 117.787 66.5728 118.297 66.5728 118.988ZM72.306 118.095H68.9206V119.453H72.0279V120.565H68.9206V122.21H72.4619V123.359H67.614V116.962H72.3051L72.306 118.095ZM73.4822 116.962H74.8836L77.4311 121.428V116.962H78.6766V123.359H77.3399L74.7277 118.815V123.359H73.4822V116.962ZM84.2229 118.958C84.1214 118.521 83.874 118.216 83.4807 118.043C83.2607 117.947 83.0163 117.9 82.7477 117.9C82.2328 117.9 81.8089 118.095 81.4757 118.486C81.1457 118.874 80.9807 119.458 80.9807 120.239C80.9807 121.026 81.16 121.583 81.5186 121.91C81.8772 122.238 82.2851 122.401 82.7422 122.401C83.1908 122.401 83.5582 122.272 83.8445 122.014C84.1308 121.754 84.3074 121.414 84.3743 120.994H82.8954V119.926H85.5605V123.359H84.6752L84.5402 122.561C84.2825 122.865 84.0509 123.078 83.8455 123.202C83.4923 123.419 83.0583 123.528 82.5434 123.528C81.6955 123.528 81.001 123.234 80.46 122.647C79.8959 122.057 79.6139 121.25 79.6139 120.226C79.6139 119.19 79.899 118.359 80.4692 117.735C81.0393 117.11 81.793 116.797 82.7304 116.797C83.5437 116.797 84.1962 117.004 84.6879 117.418C85.1827 117.829 85.4663 118.343 85.5386 118.959L84.2229 118.958Z" fill="#FFF114"/>
<path d="M88.5849 120.941H90.2078L89.4091 118.424L88.5849 120.941ZM88.6669 116.961H90.1768L92.4426 123.358H90.9929L90.5807 122.044H88.2238L87.7807 123.358H86.3829L88.6669 116.961Z" fill="#FFF114"/>
<path d="M96.0888 116.962H97.6032L95.4633 120.955V123.359H94.1266V120.955L91.9128 116.962H93.4884L94.8168 119.749L96.0888 116.962ZM101.197 122.404C101.726 122.404 102.145 122.208 102.455 121.818C102.767 121.427 102.923 120.871 102.923 120.151C102.923 119.434 102.767 118.879 102.455 118.489C102.145 118.095 101.726 117.899 101.197 117.899C100.667 117.899 100.245 118.094 99.9292 118.485C99.6137 118.876 99.456 119.431 99.456 120.152C99.456 120.872 99.6137 121.428 99.9292 121.818C100.245 122.209 100.667 122.404 101.197 122.404ZM104.26 120.152C104.26 121.301 103.938 122.18 103.293 122.79C102.809 123.288 102.111 123.537 101.197 123.537C100.282 123.537 99.5836 123.288 99.1004 122.79C98.4524 122.18 98.1284 121.301 98.1284 120.152C98.1284 118.98 98.4524 118.1 99.1004 117.513C99.5836 117.015 100.282 116.766 101.197 116.766C102.111 116.766 102.809 117.015 103.293 117.513C103.938 118.1 104.26 118.98 104.26 120.152ZM109.521 116.962H111.444V123.359H110.198V119.032C110.198 118.907 110.2 118.734 110.203 118.511C110.206 118.286 110.208 118.112 110.208 117.991L108.997 123.359H107.699L106.498 117.991C106.498 118.112 106.499 118.286 106.502 118.511C106.505 118.734 106.507 118.908 106.507 119.032V123.359H105.261V116.962H107.205L108.369 121.993L109.521 116.962Z" fill="#FFF114"/>
<path d="M114.434 120.941H116.057L115.258 118.424L114.434 120.941ZM114.516 116.961H116.026L118.291 123.358H116.842L116.43 122.044H114.073L113.63 123.358H112.232L114.516 116.961Z" fill="#FFF114"/>
<path d="M119.082 116.962H120.483L123.031 121.428V116.962H124.276V123.359H122.94L120.327 118.815V123.359H119.082V116.962Z" fill="#FFF114"/>
</g>
<defs>
<clipPath id="clip0_456_62754">
<rect width="99.9167" height="109" fill="white" transform="translate(43.0416 20.5)"/>
</clipPath>
</defs>
</svg>
