<svg width="186" height="150" viewBox="0 0 186 150" fill="none" xmlns="http://www.w3.org/2000/svg">
<path d="M65.1468 36.4074H75.1376V87.963H111.165V76.7037H86.6422V21L93.3027 36.4074H120.853C123.881 36.4074 126 38.4815 126 41.4444V95.3704C126 98.2588 124.183 101 120.853 101H65.7523C62.422 101 60 98.6296 60 95.3704V41.4444C60 38.4815 62.1193 36.4074 65.1468 36.4074Z" fill="#113453"/>
<path d="M63.1967 114.192H60V128.822H67.459V125.61H63.1967V114.192Z" fill="#113453"/>
<path d="M91.7896 114.192H88.5929V128.822H91.7896V122.042L96.6735 128.822H100.669L94.9863 121.239L100.492 114.192H96.6735L91.7896 120.437V114.192Z" fill="#113453"/>
<path d="M111.325 110H107.951L106.441 113.122H108.395L111.325 110Z" fill="#113453"/>
<path d="M112.391 114.192H104.221V128.822H112.391V125.967H107.24V122.934H112.391V120.08H107.24V117.047H112.391V114.192Z" fill="#113453"/>
<path d="M125 114.192H115.232V117.225H118.429V128.732H121.626V117.225H125V114.192Z" fill="#113453"/>
<path fill-rule="evenodd" clip-rule="evenodd" d="M77.4932 129C81.5636 129 84.8634 125.645 84.8634 121.507C84.8634 117.369 81.5636 114.014 77.4932 114.014C73.4227 114.014 70.1229 117.369 70.1229 121.507C70.1229 125.645 73.4227 129 77.4932 129ZM77.4044 126.146C79.6603 126.146 81.4891 124.069 81.4891 121.507C81.4891 118.945 79.6603 116.869 77.4044 116.869C75.1485 116.869 73.3197 118.945 73.3197 121.507C73.3197 124.069 75.1485 126.146 77.4044 126.146Z" fill="#113453"/>
</svg>
