<svg width="186" height="150" viewBox="0 0 186 150" fill="none" xmlns="http://www.w3.org/2000/svg">
<path d="M64.7857 43.1471C59.8847 42.828 56.7886 43.8526 57.06 44.3832C57.3595 44.9156 60.4096 46.5884 61.6954 47.4736C62.6132 48.1054 62.5417 52.1303 64.1677 53.6542C65.7776 55.163 66.4333 58.4096 66.3309 59.8348C65.5955 62.8699 65.3768 64.2231 66.0218 64.7793C72.2901 63.1473 74.0337 54.944 74.0566 49.3277C79.0011 47.2675 91.7331 44.0742 103.105 47.7826C114.478 51.491 117.939 64.3672 118.248 70.3418C115.596 70.937 113.677 67.7596 112.994 67.8696C111.161 68.1651 115.827 79.2415 122.883 78.0675C123.913 81.6729 125.912 89.8107 125.665 93.5191C125.417 97.2274 127.21 96.5063 128.137 95.6823L129.991 93.21C131.677 92.5214 134.393 89.8127 137.099 82.703C140.355 74.1489 137.367 60.5303 134.627 54.8903C133.493 52.006 130.838 45.5885 131.227 43.1471C131.941 38.6707 129.519 33.7865 128.755 33.8762C128.571 33.8978 127.726 33.6874 126.283 36.6575C124.406 40.5187 120.654 39.61 115.467 36.6575C110.752 33.9736 101.366 33.0846 91.6713 35.7304C84.6428 37.6487 75.2317 42.9896 71.5844 45.6194C70.7603 44.8983 68.2483 43.3726 64.7857 43.1471Z" fill="#3293C0"/>
<path d="M121.214 106.853C126.115 107.172 129.211 106.147 128.94 105.617C128.64 105.084 125.59 103.412 124.305 102.526C123.387 101.895 123.458 97.8697 121.832 96.3458C120.222 94.837 119.567 91.5904 119.669 90.1652C120.405 87.1301 120.623 85.7769 119.978 85.2207C113.71 86.8527 111.966 95.056 111.943 100.672C106.999 102.732 94.2669 105.926 82.8946 102.217C71.5222 98.509 68.0611 85.6328 67.7521 79.6582C70.4042 79.063 72.3234 82.2404 73.0056 82.1305C74.839 81.835 70.1733 70.7585 63.1166 71.9325C62.0865 68.3271 60.0881 60.1893 60.3354 56.481C60.5826 52.7726 58.7902 53.4937 57.8631 54.3177L56.0089 56.79C54.3227 57.4786 51.6072 60.1873 48.9012 67.297C45.6455 75.8511 48.6332 89.4697 51.3735 95.1097C52.5066 97.994 55.1622 104.411 54.7728 106.853C54.0588 111.329 56.4812 116.213 57.2451 116.124C57.4287 116.102 58.2736 116.313 59.7173 113.343C61.5942 109.481 65.3465 110.39 70.5334 113.343C75.2483 116.026 84.6344 116.915 94.3287 114.27C101.357 112.351 110.768 107.01 114.416 104.381C115.24 105.102 117.752 106.627 121.214 106.853Z" fill="#3293C0"/>
<path d="M98.779 74.05C98.779 77.4635 96.0118 80.2306 92.5984 80.2306C89.1849 80.2306 86.4178 77.4635 86.4178 74.05C86.4178 70.6366 89.1849 67.8694 92.5984 67.8694C96.0118 67.8694 98.779 70.6366 98.779 74.05Z" fill="#3293C0"/>
<path fill-rule="evenodd" clip-rule="evenodd" d="M92.5984 65.0882C87.6489 65.0882 83.6365 69.1005 83.6365 74.05C83.6365 78.9996 87.6489 83.0119 92.5984 83.0119C97.5479 83.0119 101.56 78.9996 101.56 74.05C101.56 69.1005 97.5479 65.0882 92.5984 65.0882ZM81.7823 74.05C81.7823 68.0765 86.6248 63.234 92.5984 63.234C98.5719 63.234 103.414 68.0765 103.414 74.05C103.414 80.0236 98.5719 84.8661 92.5984 84.8661C86.6248 84.8661 81.7823 80.0236 81.7823 74.05Z" fill="#3293C0"/>
<path fill-rule="evenodd" clip-rule="evenodd" d="M92.5984 61.3798C85.6008 61.3798 79.9282 67.0525 79.9282 74.05C79.9282 81.0476 85.6008 86.7203 92.5984 86.7203C99.596 86.7203 105.269 81.0476 105.269 74.05C105.269 67.0525 99.596 61.3798 92.5984 61.3798ZM78.074 74.05C78.074 66.0284 84.5768 59.5256 92.5984 59.5256C100.62 59.5256 107.123 66.0284 107.123 74.05C107.123 82.0717 100.62 88.5745 92.5984 88.5745C84.5768 88.5745 78.074 82.0717 78.074 74.05Z" fill="#3293C0"/>
</svg>
