<svg width="186" height="150" viewBox="0 0 186 150" fill="none" xmlns="http://www.w3.org/2000/svg">
<g clip-path="url(#clip0_461_63174)">
<path fill-rule="evenodd" clip-rule="evenodd" d="M93 9.66669C122.493 9.66669 143.12 38.9267 143.12 75C143.12 111.073 122.027 140.613 93 140.333C63.9733 140.007 42.88 111.073 42.88 75C42.88 38.9267 63.5067 9.66669 93 9.66669Z" fill="#C6AB1E"/>
<path fill-rule="evenodd" clip-rule="evenodd" d="M94.5867 77.7535C95.9867 76.7735 96.6867 75.2802 96.7333 73.6002V72.1069H102.8C102.8 74.1135 102.753 75.3735 102.147 77.3335C100.887 81.3935 97.8533 84.1469 93.7933 85.3135L93.2333 85.5002V78.3602C93.7933 78.2202 94.0733 78.0802 94.5867 77.7535Z" fill="#FF0000"/>
<path fill-rule="evenodd" clip-rule="evenodd" d="M96.6867 81.8138C96.6867 81.9071 96.5933 82.0004 96.4067 82.0471C96.2667 82.0938 96.1267 82.0471 96.1267 81.9538C96.08 81.9071 96.22 81.8138 96.36 81.7671C96.5 81.7204 96.6867 81.7671 96.6867 81.8138ZM94.68 80.0871C94.7733 80.0871 94.9133 80.1804 95.0067 80.2738C95.1 80.3671 95.1 80.4604 95.0067 80.4604C94.96 80.4604 94.82 80.4138 94.7267 80.3204C94.6333 80.2271 94.6333 80.1338 94.68 80.0871ZM95.1 79.5738C95.1467 79.5271 95.2867 79.6671 95.38 79.9004C95.4733 80.1804 95.4733 80.4138 95.38 80.4138C95.3333 80.4604 95.1933 80.3204 95.1 80.0871C95.0067 79.8538 95.0067 79.6204 95.1 79.5738ZM95.2867 78.9204C95.38 78.8738 95.52 79.0138 95.6133 79.2471C95.7067 79.4804 95.7067 79.7138 95.6133 79.7604C95.52 79.8071 95.38 79.6671 95.3333 79.4338C95.24 79.2004 95.24 78.9671 95.2867 78.9204ZM95.66 78.4071C95.7067 78.3604 95.8467 78.5471 95.94 78.7804C96.0333 79.0138 96.0333 79.2471 95.9867 79.2938C95.8933 79.3404 95.7533 79.1538 95.66 78.9204C95.5667 78.6871 95.5667 78.4538 95.66 78.4071ZM95.9867 77.8938C96.08 77.8471 96.22 78.0338 96.3133 78.2671C96.4067 78.5004 96.4067 78.7338 96.3133 78.7804C96.22 78.8271 96.08 78.6871 96.0333 78.4071C95.94 78.1738 95.94 77.9404 95.9867 77.8938ZM96.36 77.3804C96.4067 77.3338 96.5467 77.5204 96.64 77.7538C96.7333 77.9871 96.7333 78.2204 96.6867 78.2671C96.5933 78.3138 96.4533 78.1271 96.36 77.8938C96.2667 77.6604 96.2667 77.4271 96.36 77.3804ZM96.6867 76.8204C96.78 76.8204 96.92 76.9604 97.0133 77.1938C97.06 77.4271 97.1067 77.6604 97.0133 77.7071C96.92 77.7538 96.78 77.6138 96.6867 77.3804C96.5933 77.1004 96.5933 76.8671 96.6867 76.8204ZM97.06 76.3071C97.1533 76.2604 97.2933 76.4004 97.34 76.6804C97.4333 76.9138 97.48 77.1471 97.3867 77.1938C97.2933 77.2404 97.1533 77.0538 97.06 76.8204C96.9667 76.5871 96.9667 76.3538 97.06 76.3071ZM97.4333 75.7938C97.48 75.7471 97.62 75.8871 97.7133 76.1204C97.8067 76.3071 97.8067 76.5404 97.76 76.5871C97.6667 76.6338 97.5733 76.4938 97.48 76.2604C97.3867 76.0738 97.3867 75.8404 97.4333 75.7938ZM95.38 80.5538C95.4267 80.6471 95.3333 80.8804 95.1 81.0204C94.9133 81.1604 94.68 81.2071 94.6333 81.1138C94.54 81.0204 94.68 80.8338 94.8667 80.6938C95.0533 80.5071 95.2867 80.4604 95.38 80.5538ZM95.52 81.1604C95.5667 81.2538 95.4733 81.4404 95.2867 81.5804C95.1 81.7204 94.9133 81.7671 94.82 81.6738C94.7733 81.5804 94.8667 81.3938 95.0533 81.2538C95.24 81.1138 95.4733 81.0671 95.52 81.1604ZM96.1267 81.3471C96.22 81.4404 96.1267 81.6738 95.8933 81.8604C95.66 82.0004 95.4267 82.0471 95.3333 81.9538C95.2867 81.8604 95.38 81.6271 95.6133 81.4871C95.8467 81.3004 96.08 81.2538 96.1267 81.3471ZM97.4333 81.4404C97.4333 81.5338 97.2467 81.6271 97.0133 81.6271C96.78 81.6738 96.5467 81.5804 96.5467 81.4871C96.5467 81.3471 96.7333 81.2538 96.9667 81.2538C97.2 81.2538 97.4333 81.3004 97.4333 81.4404ZM97.8533 80.9738C97.8533 81.0671 97.6667 81.1604 97.4333 81.1604C97.2 81.2071 96.9667 81.1138 96.9667 80.9738C96.9667 80.8804 97.1533 80.7871 97.3867 80.7871C97.6667 80.7404 97.8533 80.8338 97.8533 80.9738ZM98.2733 80.4604C98.2733 80.5538 98.0867 80.6471 97.8533 80.6938C97.62 80.6938 97.4333 80.6004 97.4333 80.5071C97.3867 80.3671 97.62 80.2738 97.8533 80.2738C98.0867 80.2738 98.2733 80.3671 98.2733 80.4604ZM98.74 79.8538C98.74 79.9938 98.5533 80.0871 98.32 80.0871C98.0867 80.0871 97.8533 80.0404 97.8533 79.9004C97.8533 79.8071 98.04 79.7138 98.2733 79.7138C98.5067 79.6671 98.74 79.7604 98.74 79.8538ZM99.02 79.4338C99.02 79.5271 98.88 79.5738 98.6933 79.5738C98.46 79.5738 98.32 79.5271 98.32 79.4338C98.32 79.3404 98.5067 79.2471 98.6933 79.2471C98.88 79.2471 99.02 79.3404 99.02 79.4338ZM99.3933 78.8738C99.44 78.9671 99.3 79.1071 99.1133 79.1538C98.9267 79.2004 98.74 79.1538 98.6933 79.0604C98.6933 78.9671 98.8333 78.8738 99.02 78.8271C99.2067 78.7804 99.3933 78.7804 99.3933 78.8738ZM99.8133 78.2204C99.86 78.3604 99.6733 78.5004 99.44 78.5471C99.2067 78.5938 99.02 78.5471 98.9733 78.4538C98.9267 78.3604 99.1133 78.2204 99.3467 78.1738C99.58 78.0804 99.7667 78.1271 99.8133 78.2204ZM100.14 77.6604C100.187 77.7538 100.047 77.8938 99.8133 77.9404C99.58 78.0338 99.3467 77.9871 99.3467 77.8938C99.3 77.7538 99.44 77.6138 99.6733 77.5671C99.9067 77.5204 100.14 77.5671 100.14 77.6604ZM100.467 77.0071C100.513 77.1004 100.327 77.2404 100.093 77.2871C99.86 77.3804 99.6733 77.3338 99.6267 77.2404C99.6267 77.1004 99.7667 76.9604 100 76.9138C100.233 76.8671 100.467 76.9138 100.467 77.0071ZM100.793 76.4004C100.84 76.4938 100.653 76.6338 100.42 76.6804C100.187 76.7738 100 76.7271 99.9533 76.6338C99.9533 76.4938 100.093 76.3538 100.327 76.3071C100.56 76.2604 100.793 76.3071 100.793 76.4004ZM101.027 75.7938C101.073 75.9338 100.887 76.0738 100.653 76.1204C100.42 76.1671 100.233 76.1204 100.187 76.0271C100.187 75.9338 100.327 75.7938 100.56 75.7471C100.793 75.6538 101.027 75.7004 101.027 75.7938ZM100.98 74.9071C101.027 75.0004 100.933 75.1871 100.793 75.3738C100.607 75.5138 100.373 75.6071 100.327 75.5138C100.233 75.4204 100.327 75.2338 100.513 75.0471C100.7 74.9071 100.887 74.8604 100.98 74.9071ZM100.373 74.4404C100.467 74.4871 100.467 74.6738 100.42 74.9071C100.373 75.0938 100.233 75.2338 100.14 75.2338C100.047 75.1871 100.047 75.0004 100.093 74.7671C100.14 74.5804 100.28 74.4404 100.373 74.4404ZM99.86 74.2538C99.9533 74.2538 100 74.4871 99.9067 74.6738C99.86 74.8604 99.7667 75.0471 99.6733 75.0004C99.58 74.9538 99.5333 74.7671 99.58 74.5804C99.6267 74.3471 99.7667 74.2071 99.86 74.2538ZM99.2533 74.4404C99.3467 74.4404 99.44 74.6271 99.44 74.8138C99.44 75.0004 99.3933 75.1871 99.3 75.1871C99.2067 75.1871 99.1133 75.0471 99.1133 74.8138C99.1133 74.6271 99.16 74.4404 99.2533 74.4404ZM98.7867 74.5338C98.88 74.5338 98.9733 74.7204 98.9733 74.9071C98.9733 75.1404 98.88 75.3271 98.7867 75.3271C98.6933 75.3271 98.6 75.1404 98.6 74.9538C98.6 74.7204 98.6467 74.5338 98.7867 74.5338ZM98.2733 74.9538C98.3667 74.9538 98.5067 75.0938 98.5533 75.3271C98.6 75.5138 98.5533 75.7004 98.46 75.7471C98.3667 75.7471 98.2733 75.6071 98.2267 75.3738C98.18 75.1871 98.18 75.0004 98.2733 74.9538ZM97.8533 75.3271C97.9467 75.2804 98.0867 75.4671 98.1333 75.6538C98.18 75.8871 98.1333 76.0738 98.04 76.0738C97.9467 76.1204 97.8067 75.9804 97.76 75.7471C97.7133 75.5138 97.76 75.3271 97.8533 75.3271ZM95.66 80.8338C95.66 80.8338 95.66 80.8804 95.6133 80.8804C95.7067 80.8804 95.7533 80.9271 95.8 80.9738C95.8467 81.0204 95.8467 81.1138 95.8467 81.2071C96.0333 81.1138 96.22 81.0671 96.3133 81.1604C96.3133 81.2071 96.36 81.2071 96.36 81.2538C96.4067 81.1604 96.5467 81.1138 96.7333 81.0671C96.6867 81.0204 96.6867 80.9738 96.6867 80.9271C96.6867 80.7871 96.8733 80.6471 97.2 80.6004C97.1533 80.5538 97.1067 80.5071 97.1067 80.4604C97.1067 80.2738 97.34 80.1338 97.62 80.0871C97.5733 80.0404 97.5733 79.9938 97.5733 79.9004C97.5267 79.7604 97.76 79.6204 98.0867 79.5738C98.04 79.5271 97.9933 79.4338 97.9933 79.3871C97.9933 79.2471 98.18 79.1071 98.46 79.0138C98.3667 78.9671 98.32 78.9204 98.32 78.8271C98.32 78.6871 98.5533 78.5471 98.8333 78.4538C98.74 78.4071 98.6933 78.3604 98.6933 78.2671C98.6933 78.1271 98.8333 77.9871 99.1133 77.8938C99.02 77.8471 99.02 77.8004 99.02 77.7538C98.9733 77.6138 99.2067 77.4738 99.4867 77.3804C99.44 77.3804 99.3933 77.3338 99.3933 77.2871C99.3467 77.1471 99.4867 76.9604 99.72 76.8671C99.6733 76.8204 99.6267 76.7738 99.6267 76.7271C99.58 76.5871 99.72 76.4471 99.9533 76.3071C99.9067 76.2604 99.9067 76.2138 99.86 76.1671C99.86 76.0271 99.9533 75.8871 100.093 75.7004C100.047 75.6538 100.047 75.6071 100.047 75.5138C99.9533 75.4671 99.9067 75.3271 99.86 75.1871C99.7667 75.2804 99.6733 75.3271 99.58 75.3271C99.5333 75.3271 99.5333 75.2804 99.4867 75.2804C99.3933 75.4204 99.3 75.5138 99.2067 75.5138C99.16 75.5138 99.1133 75.5138 99.0667 75.4671C99.02 75.6071 98.9733 75.7471 98.8333 75.7471C98.8333 75.7471 98.7867 75.7471 98.74 75.7471C98.74 75.9338 98.6933 76.1204 98.6 76.1204C98.5067 76.1671 98.46 76.1204 98.3667 76.0738C98.3667 76.3071 98.32 76.4471 98.18 76.4471C98.1333 76.4938 98.04 76.4471 97.9933 76.4004C97.9933 76.6804 97.9467 76.9138 97.8067 76.9604C97.76 76.9604 97.6667 76.9604 97.62 76.9138C97.6667 77.1938 97.5733 77.4271 97.4333 77.4738C97.3867 77.5204 97.2933 77.4738 97.2467 77.4271C97.2933 77.7538 97.2467 78.0338 97.06 78.0804C97.0133 78.0804 96.9667 78.0804 96.92 78.0804C96.9667 78.3138 96.92 78.5471 96.78 78.5938C96.6867 78.5938 96.64 78.5938 96.5933 78.5471C96.5933 78.8271 96.5467 79.0138 96.4067 79.0604C96.36 79.1071 96.2667 79.0604 96.22 79.0604C96.22 79.3404 96.1733 79.5271 96.0333 79.5738C95.9867 79.6204 95.94 79.5738 95.8933 79.5738C95.8933 79.8538 95.8467 80.0871 95.7067 80.1338H95.66C95.7067 80.3204 95.66 80.4604 95.6133 80.6004C95.66 80.6004 95.66 80.6004 95.66 80.6471C95.66 80.6938 95.66 80.7404 95.66 80.8338ZM97.34 75.4204C97.3867 75.4204 97.48 75.4204 97.5267 75.4671C97.5267 75.1871 97.5733 74.9538 97.7133 74.9071C97.76 74.9071 97.8533 74.9071 97.9 74.9538C97.9467 74.7671 97.9933 74.6271 98.0867 74.5804C98.18 74.5804 98.2733 74.6271 98.3667 74.7204C98.4133 74.3938 98.5067 74.1604 98.6467 74.1604C98.74 74.1604 98.8333 74.2071 98.9267 74.3471C98.9733 74.0671 99.1133 73.9271 99.2533 73.9271C99.3467 73.9271 99.44 74.0204 99.5333 74.2071C99.6733 73.9271 99.86 73.7404 100 73.7871C100.093 73.7871 100.187 73.9271 100.187 74.1138C100.28 74.0204 100.373 73.9738 100.467 73.9738C100.653 74.0204 100.747 74.3471 100.653 74.7204C100.933 74.5804 101.167 74.5338 101.307 74.6271C101.4 74.7671 101.26 75.0938 101.027 75.3738C101.26 75.3271 101.4 75.4204 101.447 75.5604C101.493 75.7471 101.307 75.9804 101.027 76.1671C101.073 76.2138 101.167 76.2604 101.167 76.3538C101.213 76.4471 101.073 76.6338 100.84 76.7738C100.887 76.7738 100.933 76.8204 100.933 76.8671C100.98 77.0538 100.7 77.2871 100.28 77.4271C100.467 77.4738 100.56 77.5671 100.607 77.7071C100.607 77.8471 100.42 77.9404 100.187 78.0338C100.233 78.0804 100.28 78.1271 100.28 78.1738C100.28 78.3604 100.047 78.5004 99.7667 78.5471C99.86 78.6404 99.9067 78.6871 99.9067 78.7804C99.9533 78.9204 99.72 79.0604 99.44 79.1538C99.5333 79.2004 99.58 79.2471 99.58 79.3404C99.58 79.4804 99.3467 79.6204 99.02 79.7138C99.1133 79.7604 99.1133 79.8071 99.16 79.8538C99.16 80.0404 98.9267 80.1804 98.6 80.2271C98.6933 80.2738 98.6933 80.3204 98.6933 80.3671C98.6933 80.5538 98.5067 80.6938 98.18 80.7404C98.2267 80.7871 98.2733 80.8338 98.2733 80.8804C98.2733 81.0204 98.0867 81.1604 97.8067 81.2538C97.8533 81.2538 97.8533 81.3004 97.8533 81.3471C97.8533 81.5338 97.5733 81.7204 97.2 81.7204C97.1067 81.9071 96.92 82.0938 96.64 82.1871C96.22 82.3738 95.8467 82.3738 95.7533 82.1871V82.1404C95.4733 82.2804 95.1933 82.3271 95.1 82.2338C95.0533 82.1871 95.0533 82.0938 95.0533 82.0004C94.8667 82.0938 94.68 82.0938 94.5867 82.0004C94.4933 81.8604 94.5867 81.6271 94.7733 81.3938C94.4933 81.4871 94.26 81.4404 94.2133 81.3004C94.1667 81.1604 94.3067 80.9271 94.54 80.7871C94.4 80.6004 94.3533 80.4138 94.4 80.2738C94.4467 80.0404 94.6333 79.9471 94.8667 79.9471C94.7733 79.5738 94.82 79.2471 95.0067 79.2004H95.0533C95.0067 78.8738 95.1 78.6404 95.24 78.5938C95.2867 78.5471 95.3333 78.5471 95.38 78.5938C95.3333 78.3138 95.4267 78.0804 95.5667 78.0338C95.6133 78.0338 95.66 78.0338 95.7533 78.0804C95.7067 77.8004 95.8 77.5671 95.94 77.5204C95.9867 77.5204 96.0333 77.5204 96.1267 77.5671C96.08 77.2871 96.1267 77.1004 96.2667 77.0538C96.3133 77.0538 96.36 77.0538 96.4067 77.0538C96.4067 76.7738 96.4533 76.5871 96.5933 76.5404C96.64 76.4938 96.7333 76.5404 96.78 76.5871C96.7333 76.2604 96.8267 75.9804 96.9667 75.9338C97.0133 75.9338 97.1067 75.9338 97.1533 75.9804C97.1067 75.7004 97.2 75.4671 97.34 75.4204Z" fill="#FFFF00"/>
<path fill-rule="evenodd" clip-rule="evenodd" d="M96.7333 68.7935H93.2333V61.8869H102.8V71.9202H96.7333V68.7935Z" fill="white"/>
<path fill-rule="evenodd" clip-rule="evenodd" d="M96.36 64.4538C96.5 64.3604 96.7333 64.3138 96.9667 64.3138C97.2 64.3604 97.3867 64.4538 97.5267 64.5938C97.6667 64.6871 97.8533 64.8271 97.9467 65.0604C98.1333 65.3871 97.9467 66.1804 97.9467 65.9471C97.9467 64.4071 96.08 64.1271 95.7067 65.7138C95.6133 65.9471 95.5667 65.1071 95.8 64.8271C95.9867 64.5938 96.1733 64.5004 96.36 64.4538ZM99.5333 63.8471C99.86 63.6138 100.7 64.3138 100.513 64.6404C101.073 64.7338 100.98 65.8538 100.793 65.8538C100.887 65.7138 100.933 64.7338 100.233 64.7338C100.607 64.2671 99.9533 63.8471 99.5333 63.8471ZM99.02 63.4738C98.74 63.2871 98.32 63.2404 98.2267 63.6138C98.18 63.1938 97.3867 63.4738 97.4333 63.6138C97.5267 63.0538 99.16 63.1004 99.02 63.4738ZM100.793 70.4271C100.7 70.2871 100.56 70.1938 100.047 70.1938C99.86 70.1004 99.6733 70.1471 99.5333 70.2404C99.3467 70.1004 99.1133 69.9138 99.0667 69.5871C98.9733 68.8871 98.9733 68.5138 98.9267 68.0938C99.2067 67.8604 99.44 67.8604 99.58 68.0004C99.7667 68.2804 100 68.2804 100.14 67.9538C100.28 67.6271 100.42 67.3471 100.607 67.6271C100.793 68.0004 100.887 68.0004 100.84 67.7204C100.793 67.1138 101.027 67.0671 101.447 67.4404C101.587 67.6271 101.633 67.4871 101.587 66.9738C101.54 66.3671 101.447 65.8538 101.073 65.4804C101.12 65.1071 101.027 64.8271 100.747 64.6404C100.653 64.0338 100.187 63.8004 99.6733 63.6138C99.6733 63.0538 99.3467 63.1471 99.0667 63.2404C98.8333 62.9604 98.5067 63.0071 98.1333 63.1004C97.8067 63.0538 97.5267 62.9604 97.34 63.4271C97.0133 63.3338 96.8267 63.5204 96.6867 63.7538C96.4533 63.7071 96.2667 63.7071 96.1733 63.9404C95.8467 63.9871 95.7067 64.2671 95.5667 64.5471C95.1933 64.6871 95.24 64.9204 95.24 65.1071C95.0067 65.3871 94.96 65.6204 95.0533 65.8538C94.7267 66.0404 94.8667 66.2271 94.96 66.4138C94.8667 66.6471 94.7733 66.8338 94.96 66.9738C94.7267 67.2538 94.7267 67.3938 94.9133 67.4871C95.0067 67.3471 95.1 67.2071 95.3333 67.4871C95.4733 67.9071 95.6133 68.0004 95.8467 67.4871C96.1267 67.0204 96.2667 67.2071 96.3133 67.6271C96.36 67.9071 96.5 67.9071 96.64 67.6271C96.6867 67.0204 96.7333 66.6471 96.9667 67.6271C97.1067 67.9538 97.2933 68.0004 97.4333 67.6271C97.48 67.8138 97.48 68.0004 97.5267 68.1404C97.48 68.3738 97.5733 68.5138 97.48 68.5138C97.4333 68.7938 97.3867 69.0271 97.48 69.1671C97.5267 69.4004 97.48 69.4471 97.5267 69.6804C97.48 70.1938 96.92 70.1471 97.06 70.4738C97.2467 70.3338 97.5267 70.2404 97.76 70.3338C98.32 70.2871 98.6467 70.4738 98.9733 70.6604C99.2533 70.8004 99.5333 70.8471 99.6733 70.5671C100.28 70.3338 100.467 70.4271 100.793 70.4271Z" fill="#006633"/>
<path fill-rule="evenodd" clip-rule="evenodd" d="M89.5467 68.7935V71.9202H83.48V61.8869H93.0467V68.7935H89.5467Z" fill="#FF0000"/>
<path fill-rule="evenodd" clip-rule="evenodd" d="M89.78 64.1271C89.92 64.5004 90.1533 64.8271 90.2933 65.2471C90.4333 65.8538 90.2467 66.0404 90.1533 66.2271C90.2933 65.9938 90.2 65.3404 89.78 64.1271ZM87.9133 70.0538C87.3067 70.1938 86.98 70.0538 87.0733 69.3071C86.7 68.9804 86.4667 68.4671 86.28 67.7204C86 67.9538 85.58 68.1871 84.9733 68.0471C85.16 67.6738 85.44 67.2071 85.8133 66.8804C85.44 66.2738 85.02 65.7138 85.5333 64.7804C85.9533 64.0338 86 63.7071 85.58 63.1004C86.28 63.3338 86.7467 63.7071 86.3267 64.9204C86.2333 65.3404 86.0467 65.8071 86.7 66.0871C87.0733 65.9471 87.4467 65.9004 87.9133 66.0404C88.3333 65.9004 88.7533 65.9471 89.1267 66.0871C89.7333 65.8071 89.5933 65.3404 89.5 64.9204C89.08 63.7071 89.5467 63.3338 90.2 63.1004C89.8267 63.7071 89.8267 64.0338 90.2933 64.7804C90.76 65.7138 90.34 66.2738 89.9667 66.8804C90.34 67.2071 90.62 67.6738 90.8533 68.0471C90.2467 68.1871 89.8267 67.9538 89.5 67.7204C89.36 68.4671 89.08 68.9804 88.7067 69.3071C88.8467 70.0538 88.4733 70.1938 87.9133 70.0538ZM86 64.1271C85.9067 64.5004 85.6733 64.8271 85.5333 65.2471C85.3933 65.8538 85.5333 66.0404 85.6733 66.2271C85.4867 65.9938 85.58 65.3404 86 64.1271Z" fill="black"/>
<path fill-rule="evenodd" clip-rule="evenodd" d="M89.5467 73.6002C89.7333 75.9335 90.76 77.6602 93.0467 78.3602V85.5002C90.0133 84.6135 87.5867 83.3069 85.72 80.6469C84.3667 78.6869 83.5733 76.0735 83.48 73.7402V72.1069H89.5467V73.6002Z" fill="white"/>
<path fill-rule="evenodd" clip-rule="evenodd" d="M90.9 80.8804L89.8267 80.6004L90.3867 81.5804L90.9933 81.7671C90.6667 81.7671 90.34 81.7204 90.06 81.6738L89.92 80.8338L89.0333 80.2738L89.1733 81.2538L89.64 81.5338C89.4067 81.4871 89.1733 81.3938 88.94 81.2538L88.9867 80.4138L88.24 79.6671L88.1467 80.6471L88.52 80.9738C88.3333 80.8804 88.1467 80.7404 87.96 80.5538L88.1467 79.7138L87.4933 78.8271L87.3067 79.8071L87.6333 80.2271C87.3533 79.9471 87.1667 79.6671 86.9333 79.3404L87.4467 78.6871L87.2133 77.7538L86.6533 78.5004L86.7933 79.1071C86.6533 78.8271 86.5133 78.5471 86.42 78.2204L87.0733 77.7538L87.12 76.7271L86.3267 77.3338V77.9404C86.2333 77.6604 86.1867 77.3338 86.14 77.0538L86.8867 76.8204L87.1667 75.8871L86.2333 76.1671L86.0933 76.6338C86.0933 76.4471 86.0933 76.2604 86.0933 76.0738L86.9333 75.7938L87.26 74.8604L86.28 75.1871L86.1867 75.4204C86.2333 75.3271 86.2333 75.2338 86.2333 75.1404L86.9333 74.4871L86.7933 73.4138L86.0467 74.2071L86.14 75.0004C86.0933 75.1871 86.0467 75.3738 86 75.5604L86.0467 75.0471L85.3933 74.4404L85.3467 75.4671L85.9533 76.0271C85.9067 76.3071 85.9067 76.5404 85.9533 76.7738L85.8133 76.3071L85.16 75.7471L85.3467 76.7271L85.9533 77.2871C86 77.4738 86.0467 77.6604 86.0933 77.8004L85.9067 77.4271L85.16 77.0071L85.5333 77.9404L86.2333 78.3138C86.3267 78.5471 86.42 78.7804 86.5133 78.9671L86.28 78.6404L85.44 78.3604L86.0467 79.2938L86.84 79.5271C86.98 79.7604 87.12 79.9471 87.3067 80.1338L86.84 79.6671L85.9533 79.8071L86.84 80.6471L87.68 80.5538C87.82 80.6471 87.96 80.7871 88.1 80.8804L87.6333 80.6938L86.8867 81.1138L88.0067 81.6738L88.7067 81.3004C88.8467 81.3938 89.0333 81.4871 89.1733 81.5338L88.7067 81.4404L88.0067 82.1404L89.1267 82.4204L89.78 81.7671C89.92 81.8138 90.1067 81.8604 90.2467 81.8604H89.8267L89.22 82.7471L90.3867 82.7938L90.9467 81.9538C91.2267 81.9538 91.46 81.9071 91.74 81.8604C91.6933 81.8138 91.6933 81.7204 91.6467 81.6271C91.5533 81.6738 91.46 81.6738 91.3667 81.7204L90.9 80.8804Z" fill="#FFFF00"/>
<path fill-rule="evenodd" clip-rule="evenodd" d="M90.5267 78.6871C90.2933 78.6404 90.2 78.6871 90.2467 78.8738C90.1533 78.9204 90.06 78.9204 89.9667 78.9671C89.9667 79.0138 90.06 79.1071 90.1533 79.2004C90.1067 79.2471 90.06 79.2938 89.9667 79.2938C90.06 79.4338 90.1533 79.5738 90.34 79.6204C90.5267 79.4804 90.5267 79.3404 90.34 79.1071C90.5733 79.0138 90.7133 78.8738 90.5267 78.6871ZM91.4133 78.9204C91.18 78.9204 91.1333 79.0138 91.2267 79.2004C91.0867 79.2004 90.9933 79.2471 90.9467 79.2938C90.9467 79.3871 91.04 79.4804 91.1333 79.5271C91.1333 79.5738 91.04 79.6204 90.9933 79.6204C91.0867 79.7604 91.2267 79.9004 91.4133 79.9004C91.6 79.7604 91.5533 79.5738 91.32 79.3871C91.5067 79.2471 91.6467 79.1071 91.4133 78.9204ZM88.8467 74.2538C88.8467 74.0204 88.8 73.9271 88.6133 73.9738C88.6133 73.8338 88.5667 73.7404 88.52 73.6938C88.4733 73.6938 88.38 73.7404 88.2867 73.8338C88.24 73.7871 88.24 73.6938 88.24 73.6471C88.1 73.6938 87.96 73.7871 87.96 73.9738C88.0533 74.1604 88.24 74.2071 88.4267 74.0204C88.52 74.2538 88.66 74.4404 88.8467 74.2538ZM88.6133 75.1404C88.66 74.9071 88.5667 74.8138 88.38 74.8604C88.38 74.7204 88.3333 74.6271 88.3333 74.5804C88.24 74.5338 88.1467 74.5804 88.0533 74.6738C88.0067 74.6271 88.0067 74.5804 88.0067 74.4871C87.8667 74.5804 87.7267 74.6738 87.68 74.8604C87.82 75.0471 88.0067 75.0938 88.1933 74.9071C88.2867 75.1404 88.4267 75.3271 88.6133 75.1404ZM88.5667 76.0738C88.5667 75.8404 88.4733 75.7471 88.3333 75.7938C88.2867 75.7004 88.24 75.6071 88.1933 75.5138C88.1 75.5138 88.0533 75.6071 87.96 75.7004C87.9133 75.6538 87.8667 75.6071 87.8667 75.5138C87.7267 75.6071 87.6333 75.7004 87.6333 75.8871C87.7733 76.0738 87.96 76.0738 88.1 75.8871C88.24 76.1204 88.4267 76.3071 88.5667 76.0738ZM88.8 76.8671C88.7067 76.6338 88.6133 76.5871 88.4733 76.6804C88.38 76.5871 88.3333 76.4938 88.24 76.4471C88.1933 76.4938 88.1467 76.5404 88.1 76.6804C88.0533 76.6804 88.0067 76.6338 87.96 76.5404C87.8667 76.6804 87.7733 76.8204 87.82 77.0071C88.0533 77.1471 88.1933 77.1004 88.2867 76.8671C88.52 77.0071 88.7067 77.1471 88.8 76.8671ZM89.22 77.6138C89.08 77.3804 88.94 77.3804 88.8467 77.5204C88.7533 77.4271 88.66 77.3338 88.6133 77.3338C88.52 77.3804 88.52 77.4738 88.52 77.6138C88.4267 77.6138 88.38 77.5671 88.3333 77.5204C88.2867 77.6604 88.24 77.8004 88.3333 77.9871C88.5667 78.0804 88.7067 77.9871 88.7533 77.7071C88.9867 77.8471 89.22 77.8938 89.22 77.6138ZM89.7333 78.1738C89.5467 77.9871 89.4533 78.0338 89.4067 78.2204C89.2667 78.1738 89.1733 78.1271 89.1267 78.1271C89.08 78.1738 89.08 78.2671 89.1267 78.4071C89.0333 78.4538 88.9867 78.4071 88.94 78.3604C88.94 78.5471 88.94 78.7338 89.08 78.8738C89.36 78.8738 89.4533 78.7338 89.36 78.4538C89.64 78.5004 89.8267 78.4538 89.7333 78.1738ZM88.6133 74.8138C88.8467 74.7204 88.8933 74.5338 88.9867 74.3471C88.94 74.2071 88.94 74.0671 88.8467 73.9271C88.7533 73.9271 88.7067 73.8804 88.7067 73.9271C88.66 73.8338 88.66 73.7404 88.6133 73.6471C88.4267 73.6471 88.38 73.6938 88.3333 73.7404C88.3333 73.6938 88.2867 73.6471 88.2867 73.6004C88.0533 73.6471 88.0067 73.7404 87.8667 73.8338C87.82 74.0204 87.82 74.2538 87.8667 74.4404C87.9133 74.4871 87.9133 74.4871 87.9133 74.5338C87.7733 74.5804 87.7267 74.6738 87.6333 74.7204C87.5867 74.9071 87.5867 75.1404 87.6333 75.3271C87.68 75.4204 87.68 75.5138 87.7267 75.5604C87.68 75.6538 87.5867 75.7004 87.54 75.7938C87.54 75.9804 87.54 76.2138 87.6333 76.4004C87.68 76.5404 87.7267 76.6338 87.82 76.6804C87.7733 76.7738 87.7267 76.8671 87.7267 76.9138C87.7733 77.1471 87.8667 77.3338 88.0067 77.5204C88.0533 77.6138 88.1467 77.6604 88.1933 77.7071C88.1933 77.8004 88.1933 77.8938 88.1933 77.9404C88.2867 78.1738 88.4267 78.3138 88.5667 78.5004C88.7067 78.5471 88.7533 78.5938 88.8467 78.6404C88.8467 78.7338 88.8933 78.7804 88.8933 78.8738C89.08 79.0138 89.2667 79.1538 89.4533 79.2471C89.64 79.2938 89.78 79.3404 89.8733 79.2938C89.9667 79.5271 90.06 79.6204 90.1533 79.7604C90.3867 79.8071 90.5733 79.8071 90.8067 79.8071C90.8533 79.7604 90.9 79.7604 90.9467 79.7604C91.04 79.9004 91.1333 79.9471 91.2733 80.0404C91.46 80.0871 91.6467 80.0404 91.88 79.9938C92.02 79.9004 92.16 79.8071 92.2067 79.7138C92.3 79.7138 92.44 79.7604 92.58 79.7604C92.5333 79.6671 92.4867 79.5738 92.44 79.4804C92.3 79.4804 92.2067 79.4804 92.1133 79.3871C91.9267 78.9671 91.6467 78.9204 91.3667 78.8738C91.2733 78.8738 91.1333 78.9204 91.04 79.0138C90.9467 78.7804 90.7133 78.6871 90.5267 78.5938C90.3867 78.5938 90.2467 78.6404 90.1533 78.6871C90.1067 78.7804 90.1067 78.8271 90.1533 78.8738C90.1067 78.8738 90.1067 78.8738 90.1067 78.8738C90.1533 78.5471 90.0133 78.3604 89.8267 78.1271C89.6867 78.0338 89.5467 78.0338 89.4533 77.9871C89.4067 77.8471 89.36 77.7071 89.3133 77.6138C89.22 77.4738 89.08 77.3804 88.9867 77.3338C88.94 77.3338 88.94 77.3338 88.94 77.3338C88.94 77.1938 88.94 77.0538 88.8933 76.8671C88.8467 76.7271 88.7533 76.6338 88.6133 76.5404H88.5667C88.66 76.4471 88.66 76.3071 88.7067 76.1204C88.7067 75.9804 88.6133 75.8871 88.52 75.7471C88.4733 75.7471 88.38 75.7471 88.38 75.7471C88.6133 75.6538 88.7067 75.4204 88.7533 75.2338C88.7533 75.0938 88.7067 74.9538 88.66 74.8138C88.6133 74.8138 88.6133 74.8138 88.6133 74.8138Z" fill="#00FF00"/>
<path fill-rule="evenodd" clip-rule="evenodd" d="M93.14 69.6335L93.8867 71.9669H96.3133L94.3533 73.4135L95.1 75.7002L93.14 74.3002L91.1333 75.7002L91.88 73.3669L89.92 71.9669L92.3933 71.9202L93.14 69.6335Z" fill="#B38F00"/>
<path fill-rule="evenodd" clip-rule="evenodd" d="M93.14 69.6335V72.9935L93.8867 71.9669H96.3133L93.14 72.9935L94.3533 73.4135L95.1 75.7002L93.14 72.9935V74.3002L91.1333 75.7002L93.14 72.9935L91.88 73.3669L89.92 71.9669L93.14 72.9935L92.3933 71.9202L93.14 69.6335Z" fill="#FFCC00"/>
<path fill-rule="evenodd" clip-rule="evenodd" d="M83.1533 61.7002L90.6667 61.6535L92.3 61.6069V61.6535L92.3467 61.6069H93.0933C93.0933 61.6069 93.14 61.6069 93.1867 61.6069H93.9333L93.98 61.6535V61.6069L95.6133 61.6535H95.66L103.127 61.7002V72.1535C103.127 74.7669 102.847 77.2402 101.727 79.4802L101.633 79.4335L101.68 79.4802C100.373 82.1402 97.8067 84.3802 93.1867 86.0135C88.4733 84.3802 85.9533 82.1402 84.6 79.4802C83.7133 77.7535 83.34 75.8402 83.2 73.8802V72.6669H83.1533V61.7002ZM93.14 69.6335L93.8867 71.9669H96.36L94.3533 73.4135L95.1 75.7469L93.14 74.3002L91.1333 75.7469L91.88 73.4135L89.92 71.9669H92.3933L93.14 69.6335ZM102.613 62.1202V71.6869H96.9667V68.6069H93.4667V62.1202H102.613ZM102.613 72.3402C102.613 74.1602 102.52 75.4669 101.96 77.2402C100.653 81.3935 97.5733 84.0069 93.4667 85.1735V78.5469C95.6133 77.8469 96.8733 75.8402 96.9667 73.6469V72.3402H102.613ZM92.8133 85.1735C87.4933 83.6802 84.32 79.9002 83.76 74.3469L83.7133 72.3402H89.3133C89.3133 74.0669 89.36 75.6069 90.5733 77.0535C91.18 77.7535 91.9733 78.2669 92.8133 78.5469V85.1735ZM83.7133 71.6869V62.1202H92.8133V68.6069H89.3133V71.6869H83.7133Z" fill="black"/>
<path d="M93.0466 55.1667C97.7133 55.1667 101.96 57.08 105.04 60.16C108.12 63.24 110.033 67.4867 110.033 72.1533C110.033 76.8667 108.12 81.1133 105.04 84.1933C101.96 87.2733 97.7133 89.14 93.0466 89.14C88.3333 89.14 84.0866 87.2733 81.0066 84.1933C77.9266 81.1133 76.06 76.8667 76.06 72.1533C76.06 67.4867 77.9266 63.24 81.0066 60.16C84.0866 57.08 88.3333 55.1667 93.0466 55.1667ZM93.0466 53.44C98.2266 53.44 102.893 55.54 106.3 58.9C109.66 62.3067 111.76 67.02 111.76 72.1533C111.76 77.3333 109.66 82.0467 106.3 85.4067C102.893 88.8133 98.2266 90.9133 93.0466 90.9133C87.8666 90.9133 83.1533 88.8133 79.7933 85.4067C76.3866 82.0467 74.2866 77.3333 74.2866 72.1533C74.2866 67.02 76.3866 62.3067 79.7933 58.9C83.1533 55.54 87.8666 53.44 93.0466 53.44ZM105.32 59.88C102.147 56.7533 97.8066 54.7933 93.0466 54.7933C88.24 54.7933 83.9 56.7533 80.7733 59.88C77.6 63.0533 75.6866 67.3933 75.6866 72.1533C75.6866 76.96 77.6 81.3 80.7733 84.4267C83.9 87.6 88.24 89.5133 93.0466 89.5133C97.8066 89.5133 102.147 87.6 105.32 84.4267C108.447 81.3 110.407 76.96 110.407 72.1533C110.407 67.3933 108.447 63.0533 105.32 59.88ZM104.06 61.14C101.26 58.2933 97.34 56.5667 93.0466 56.5667C88.7066 56.5667 84.8333 58.2933 81.9866 61.14C79.1866 63.94 77.4133 67.86 77.4133 72.1533C77.4133 76.4933 79.1866 80.3667 81.9866 83.2133C84.8333 86.0134 88.7066 87.7867 93.0466 87.7867C97.34 87.7867 101.26 86.0134 104.06 83.2133C106.907 80.3667 108.633 76.4933 108.633 72.1533C108.633 67.86 106.907 63.94 104.06 61.14Z" fill="#FFF000"/>
<path d="M91.5066 47.7C90.5266 47.3733 89.5933 47.3733 88.52 47.4667C89.8266 46.3933 90.4333 45.9733 92.2066 45.6C90.7133 43.8733 90.2933 42.5667 90.2933 40.7C91.6 42.1 92.8133 42.6133 94.5866 43.64C98.3666 45.8333 100.98 48.26 101.027 53.0667C103.22 54.0467 107 54.7467 109.24 53.7667C108.773 52.8333 108.12 52.18 107.327 51.48C109.007 51.6667 109.707 51.8067 111.247 52.7867C111.387 50.5467 112.04 49.3333 113.347 47.98C113.253 49.8933 113.813 51.1067 114.327 53.1133C115.4 57.3133 115.587 60.9067 112.18 64.3133C113.067 66.5533 115.213 69.7267 117.5 70.6133C117.827 69.6333 117.873 68.7 117.78 67.6733C118.807 68.9333 119.227 69.54 119.6 71.36C121.327 69.8667 122.633 69.4467 124.547 69.4467C123.1 70.7067 122.587 71.9667 121.56 73.74C119.367 77.4734 116.94 80.1334 112.133 80.1334C111.2 82.3733 110.453 86.1067 111.433 88.3933C112.367 87.9267 113.02 87.2733 113.72 86.48C113.533 88.1133 113.393 88.86 112.413 90.3534C114.653 90.54 115.867 91.1467 117.22 92.5C115.307 92.4067 114.093 92.92 112.087 93.4333C107.887 94.5533 104.293 94.6934 100.887 91.3334C98.6466 92.22 95.4733 94.32 94.5866 96.6534C95.5666 96.98 96.5 96.98 97.5266 96.8867C96.2666 97.96 95.66 98.3334 93.8866 98.7533C95.3333 100.433 95.7533 101.74 95.7533 103.653C94.4933 102.207 93.2333 101.74 91.46 100.713C87.7266 98.52 85.0666 96.0933 85.0666 91.2867C82.8266 90.3067 79.0933 89.56 76.8066 90.5867C77.2733 91.4734 77.9266 92.1734 78.72 92.8267C77.0866 92.6867 76.3866 92.5467 74.8466 91.5667C74.66 93.8067 74.0533 95.02 72.7 96.3734C72.7933 94.46 72.28 93.2 71.7666 91.24C70.6466 87.04 70.5066 83.4467 73.8666 80.04C72.98 77.8 70.88 74.6267 68.5466 73.6933C68.22 74.72 68.22 75.6067 68.3133 76.68C67.24 75.3733 66.8666 74.7667 66.4466 72.9933C64.7666 74.4867 63.46 74.9067 61.5466 74.9067C62.9933 73.6 63.46 72.3867 64.4866 70.6133C66.7266 66.8333 69.1533 64.22 73.9133 64.1733C74.8933 61.98 75.64 58.2 74.66 55.96C73.7266 56.4267 73.0266 57.08 72.3733 57.8733C72.56 56.24 72.6533 55.4933 73.6333 53.9533C71.3933 53.8133 70.18 53.16 68.8266 51.8533C70.74 51.9467 72 51.4333 73.96 50.8733C78.16 49.8 81.7533 49.66 85.16 53.02C87.4 52.1333 90.5733 49.9867 91.5066 47.7ZM111.153 64.0333C114.653 60.5333 114.56 57.78 113.44 53.3467C113.16 52.32 112.88 51.2933 112.74 50.22C112.087 51.4333 111.947 52.8333 111.853 54.2333C111.153 53.5333 110.36 53.1133 109.753 53.02C110.08 53.5333 110.173 53.6267 110.313 54.14C107.28 56.0533 103.127 54.8867 100.093 53.6267C100.093 48.68 98.0866 46.7667 94.12 44.4333C93.2333 43.92 92.3 43.36 91.4133 42.7067C91.8333 44.06 92.7666 45.1333 93.6533 46.16C92.6733 46.2067 91.8333 46.44 91.32 46.8133C91.9266 46.9067 92.0666 46.9533 92.4866 47.2333C91.74 50.6867 87.96 52.7867 84.9266 54.0467C81.38 50.5467 78.6266 50.64 74.1933 51.8067C73.1666 52.04 72.14 52.32 71.0666 52.46C72.3266 53.1133 73.68 53.2533 75.08 53.3467C74.38 54.0467 74.0066 54.84 73.9133 55.4467C74.38 55.12 74.4733 55.0267 75.0333 54.8867C76.9 57.92 75.7333 62.0733 74.4733 65.1067C69.5266 65.1067 67.6133 67.1133 65.28 71.08C64.7666 71.9667 64.2533 72.9 63.6 73.7867C64.9066 73.3667 65.98 72.4333 67.0066 71.5467C67.0533 72.5267 67.2866 73.3667 67.66 73.88C67.7533 73.32 67.8 73.18 68.08 72.7133C71.5333 73.5067 73.68 77.24 74.94 80.2733C71.44 83.82 71.4866 86.5733 72.6533 91.0067C72.9333 92.0333 73.1666 93.06 73.3533 94.1334C74.0066 92.8733 74.1 91.52 74.1933 90.12C74.94 90.82 75.6866 91.1933 76.34 91.2867C75.9666 90.82 75.8733 90.7267 75.78 90.1667C78.7666 88.3 82.92 89.4667 85.9533 90.7267C86 95.6734 87.96 97.5867 91.9266 99.92C92.86 100.433 93.7466 100.947 94.6333 101.6C94.2133 100.293 93.3266 99.22 92.44 98.1934C93.42 98.1467 94.2133 97.9133 94.7266 97.54C94.1666 97.4467 94.0266 97.4 93.56 97.12C94.3533 93.6667 98.0866 91.52 101.167 90.26C104.667 93.76 107.42 93.7133 111.853 92.5467C112.88 92.3134 113.907 92.0333 114.98 91.8467C113.767 91.1933 112.367 91.1 111.013 91.0067C111.667 90.26 112.087 89.5134 112.18 88.9067C111.713 89.2333 111.573 89.3267 111.06 89.42C109.147 86.4333 110.313 82.28 111.573 79.2467C116.52 79.2467 118.433 77.24 120.767 73.2733C121.28 72.3867 121.84 71.4533 122.493 70.5667C121.14 70.9867 120.067 71.8733 119.04 72.76C118.993 71.78 118.76 70.9867 118.387 70.4733C118.293 71.0333 118.247 71.1733 117.967 71.64C114.513 70.8467 112.413 67.1133 111.153 64.0333Z" fill="#FFF000"/>
<path d="M107.653 107.387L106.16 105.94C108.913 103.233 110.08 100.013 110.313 96.2333C111.34 98.0533 111.9 99.8267 111.853 101.973C112.927 101.507 113.86 100.947 114.747 100.293C114.56 101.787 114.28 103.14 113.58 104.493C113.067 105.567 112.367 106.547 111.527 107.433L112.693 108.413C110.827 111.867 108.027 114.247 104.433 115.74C97.4333 118.633 88.52 118.633 81.52 115.74C77.9267 114.247 75.1267 111.867 73.26 108.413L74.4267 107.433C73.5867 106.547 72.8867 105.567 72.3733 104.493C71.72 103.14 71.3933 101.787 71.2067 100.293C72.0933 100.947 73.0267 101.507 74.1 101.973C74.0533 99.8267 74.6133 98.0533 75.64 96.2333C75.8733 100.013 77.0867 103.233 79.7933 105.94L78.3 107.387C79.3733 108.973 80.9133 110.14 82.92 111.027C88.8467 113.593 97.1067 113.593 103.033 111.027C105.04 110.14 106.627 108.973 107.653 107.387ZM78.8133 105.567C76.8067 103.42 75.64 100.76 75.3133 97.8667C74.66 99.4067 74.52 100.993 74.5667 102.627C73.5867 102.253 72.6533 101.88 71.8133 101.273C72 102.347 72.3267 103.373 72.7933 104.307C73.3067 105.333 73.96 106.267 74.7533 107.153L77.0867 105.193L78.8133 105.567ZM79 106.08L77.46 105.753C77.6467 106.173 77.8333 106.593 78.0667 106.967L79 106.08ZM104.247 115.273C107.607 113.92 110.313 111.727 112.133 108.553L108.96 105.847C107.98 108.413 105.973 110.233 103.22 111.447C97.1533 114.06 88.8 114.06 82.7333 111.447C79.98 110.233 77.9733 108.413 76.9933 105.847L73.82 108.553C75.64 111.727 78.3467 113.92 81.7067 115.273C88.5667 118.167 97.3867 118.167 104.247 115.273ZM111.2 107.153C111.993 106.267 112.647 105.333 113.16 104.307C113.627 103.373 114 102.347 114.187 101.273C113.3 101.88 112.367 102.253 111.387 102.627C111.433 100.993 111.293 99.4067 110.64 97.8667C110.313 100.76 109.147 103.42 107.187 105.567L108.913 105.193L111.2 107.153ZM108.493 105.753L106.953 106.08L107.933 106.967C108.12 106.593 108.353 106.173 108.493 105.753Z" fill="#FFF000"/>
<path d="M76.06 110.653L76.1067 110.56L76.2 110.653C76.2467 110.7 76.2933 110.7 76.34 110.747C76.3867 110.747 76.4333 110.747 76.48 110.7C76.48 110.7 76.5733 110.653 76.62 110.56L77.7867 109.3C77.88 109.207 77.9267 109.113 77.9267 109.067C77.9267 109.067 77.9267 109.02 77.9267 108.973C77.9267 108.927 77.88 108.88 77.8333 108.833L77.74 108.787L77.7867 108.693L78.6733 109.487C78.9067 109.673 79.0467 109.907 79.14 110.093C79.2333 110.327 79.28 110.56 79.1867 110.793C79.14 111.027 79.0467 111.213 78.86 111.4C78.7667 111.54 78.6267 111.633 78.4867 111.727C78.3 111.82 78.16 111.867 78.02 111.867C77.9267 111.867 77.7867 111.867 77.6467 111.82C77.5067 111.773 77.3667 111.727 77.2267 111.633C77.1333 111.587 77.04 111.493 76.9467 111.4L76.06 110.653ZM78.44 109.487L77.0867 110.98C76.9933 111.073 76.9933 111.12 76.9467 111.12C76.9467 111.167 76.9467 111.167 76.9467 111.213C76.9933 111.26 76.9933 111.307 77.04 111.307C77.2267 111.447 77.3667 111.54 77.5533 111.493C77.7867 111.447 78.0667 111.26 78.3467 110.98C78.58 110.7 78.72 110.513 78.7667 110.28C78.8133 110.093 78.8133 109.953 78.72 109.813C78.6733 109.72 78.58 109.627 78.44 109.487ZM79.9333 112.147L79.5133 112.847C79.4667 112.94 79.42 113.033 79.42 113.08C79.42 113.08 79.42 113.127 79.4667 113.173C79.4667 113.22 79.5133 113.267 79.56 113.313L79.6533 113.36L79.6067 113.407L78.44 112.707L78.4867 112.66L78.58 112.707C78.6267 112.707 78.6733 112.753 78.7667 112.753C78.7667 112.753 78.8133 112.753 78.86 112.707C78.9067 112.707 78.9533 112.613 79 112.52L79.8867 111.073C79.9333 110.933 79.98 110.887 79.98 110.84C79.98 110.793 79.98 110.747 79.98 110.7C79.9333 110.653 79.8867 110.653 79.84 110.607L79.7467 110.56L79.7933 110.513L80.96 111.167L80.9133 111.26L80.82 111.213C80.7733 111.167 80.7267 111.167 80.68 111.167C80.6333 111.12 80.5867 111.167 80.54 111.167C80.54 111.213 80.4933 111.26 80.4 111.4L80.0267 112.007L80.82 112.473L81.1933 111.867C81.24 111.727 81.2867 111.68 81.2867 111.633C81.2867 111.587 81.2867 111.54 81.2867 111.493C81.24 111.447 81.1933 111.4 81.1467 111.4L81.0533 111.353L81.1 111.26L82.2667 111.96L82.22 112.053L82.1733 112.007C82.08 111.96 82.0333 111.913 81.9867 111.913C81.94 111.913 81.8933 111.96 81.8467 111.96C81.8467 112.007 81.8 112.053 81.7067 112.147L80.8667 113.64C80.7733 113.733 80.7267 113.827 80.7267 113.827C80.7267 113.873 80.7267 113.92 80.7733 113.967C80.7733 114.013 80.82 114.06 80.9133 114.107H80.96L80.9133 114.2L79.7933 113.5V113.453L79.8867 113.5C79.9333 113.5 80.0267 113.547 80.0733 113.547C80.12 113.547 80.12 113.547 80.1667 113.5C80.2133 113.5 80.26 113.407 80.3067 113.313L80.7267 112.613L79.9333 112.147ZM83.0133 114.247L82.1733 113.873L81.9867 114.06C81.8933 114.153 81.8933 114.2 81.8467 114.247C81.8467 114.34 81.8467 114.387 81.8933 114.433C81.8933 114.48 81.9867 114.527 82.08 114.573V114.62L81.2867 114.293V114.247C81.38 114.247 81.4733 114.247 81.5667 114.247C81.6133 114.2 81.7533 114.107 81.8933 113.967L83.5267 112.38H83.5733L83.62 114.713C83.62 114.947 83.6667 115.087 83.7133 115.133C83.7133 115.18 83.76 115.227 83.8533 115.273L83.8067 115.32L82.64 114.853L82.6867 114.807H82.7333C82.8267 114.853 82.8733 114.853 82.92 114.853C82.9667 114.853 83.0133 114.853 83.0133 114.807C83.0133 114.76 83.0133 114.76 83.0133 114.713C83.0133 114.713 83.0133 114.667 83.0133 114.573V114.247ZM83.0133 114.06L82.9667 113.127L82.2667 113.78L83.0133 114.06ZM85.44 114.62L85.2533 115.32C85.2067 115.413 85.2067 115.507 85.2067 115.553C85.2067 115.6 85.2533 115.647 85.3 115.693C85.3 115.693 85.3933 115.74 85.4867 115.787V115.833L84.2267 115.507V115.413C84.3667 115.46 84.4133 115.46 84.46 115.46C84.5067 115.46 84.5533 115.413 84.6 115.413C84.6 115.367 84.6467 115.273 84.6933 115.133L85.1133 113.547C85.16 113.407 85.16 113.313 85.16 113.267C85.16 113.22 85.1133 113.173 85.0667 113.173C85.0667 113.127 84.9733 113.08 84.88 113.08V112.987L86.0467 113.313C86.3267 113.407 86.56 113.453 86.7 113.547C86.7933 113.64 86.8867 113.733 86.98 113.873C87.0267 114.013 87.0267 114.153 86.98 114.293C86.9333 114.48 86.84 114.62 86.6533 114.713C86.56 114.76 86.42 114.76 86.28 114.76L86.6533 115.787C86.7 115.927 86.7467 115.973 86.7467 116.02C86.7933 116.067 86.84 116.113 86.9333 116.16L86.8867 116.207L86.0933 116.02L85.6267 114.667L85.44 114.62ZM85.7667 113.36L85.4867 114.48H85.58C85.7667 114.527 85.9067 114.573 86 114.573C86.0933 114.527 86.14 114.527 86.2333 114.433C86.28 114.387 86.3733 114.293 86.3733 114.153C86.42 113.967 86.42 113.78 86.3733 113.687C86.28 113.547 86.1867 113.5 85.9533 113.453L85.7667 113.36ZM89.08 115.647L90.06 114.06L91.0867 114.247V114.293H90.9933C90.9467 114.293 90.8533 114.293 90.8067 114.293C90.76 114.293 90.76 114.34 90.7133 114.387C90.7133 114.387 90.6667 114.48 90.6667 114.62L90.3867 116.3C90.3867 116.393 90.3867 116.487 90.3867 116.533C90.3867 116.58 90.4333 116.58 90.4333 116.627C90.48 116.673 90.5267 116.673 90.62 116.673L90.7133 116.72V116.767L89.36 116.58V116.487H89.4533C89.5467 116.533 89.5933 116.533 89.64 116.487C89.6867 116.487 89.6867 116.44 89.7333 116.44C89.7333 116.393 89.78 116.3 89.78 116.207L90.1067 114.293L88.7533 116.487L88.7067 116.44L88.0533 114.013L87.7733 115.787C87.7733 115.927 87.7733 115.973 87.7733 116.02C87.7733 116.067 87.7733 116.16 87.82 116.207C87.8667 116.253 87.96 116.253 88.1 116.3L88.0533 116.347L87.2133 116.207V116.16H87.26C87.3067 116.16 87.3533 116.16 87.4 116.16C87.4467 116.16 87.4933 116.113 87.54 116.113C87.54 116.067 87.5867 116.02 87.5867 115.973C87.5867 115.973 87.6333 115.88 87.6333 115.787L87.9133 114.153C87.9133 114.013 87.9133 113.967 87.9133 113.92C87.9133 113.873 87.8667 113.873 87.82 113.827C87.82 113.78 87.7267 113.78 87.68 113.733H87.5867V113.687L88.66 113.827L89.08 115.647ZM92.9067 115.927L93.6533 114.2L94.68 114.247V114.293H94.6333C94.54 114.293 94.4933 114.34 94.4467 114.34C94.4 114.34 94.4 114.387 94.3533 114.433C94.3533 114.48 94.3533 114.527 94.3533 114.667L94.3067 116.393C94.3067 116.487 94.3067 116.58 94.3067 116.627C94.3533 116.673 94.3533 116.673 94.4 116.72C94.4467 116.72 94.4933 116.767 94.5867 116.767H94.68V116.813H93.3267V116.72H93.3733C93.4667 116.72 93.5133 116.72 93.56 116.673C93.6067 116.673 93.6533 116.627 93.6533 116.58C93.6533 116.58 93.7 116.487 93.7 116.347V114.433L92.6733 116.767H92.6267L91.6933 114.433L91.6467 116.253C91.6467 116.393 91.6467 116.44 91.6467 116.487C91.6467 116.533 91.6933 116.58 91.74 116.627C91.7867 116.673 91.88 116.72 92.02 116.72V116.767H91.1333V116.673C91.2267 116.673 91.2733 116.673 91.32 116.673C91.3667 116.627 91.4133 116.627 91.4133 116.58C91.46 116.533 91.46 116.487 91.5067 116.44C91.5067 116.44 91.5067 116.393 91.5067 116.253V114.62C91.5067 114.48 91.5067 114.387 91.5067 114.387C91.5067 114.34 91.46 114.293 91.4133 114.293C91.3667 114.247 91.32 114.247 91.2733 114.247H91.18V114.2H92.2067L92.9067 115.927ZM96.5933 115.88L95.66 115.973L95.6133 116.207C95.5667 116.3 95.5667 116.393 95.5667 116.44C95.5667 116.487 95.6133 116.533 95.66 116.58C95.7067 116.58 95.8 116.58 95.94 116.58V116.673L95.1 116.767L95.0533 116.673C95.1467 116.673 95.24 116.627 95.2867 116.533C95.3333 116.487 95.38 116.347 95.4733 116.113L96.1733 114.013L96.22 113.967L97.34 115.973C97.48 116.207 97.5267 116.3 97.62 116.347C97.6667 116.393 97.7133 116.393 97.8067 116.393V116.487L96.5467 116.58V116.533H96.5933C96.6867 116.533 96.78 116.487 96.8267 116.44C96.8267 116.44 96.8733 116.393 96.8267 116.347V116.3C96.8267 116.3 96.78 116.253 96.7333 116.16L96.5933 115.88ZM96.5 115.74L96.0333 114.9L95.7533 115.787L96.5 115.74ZM99.9067 113.36L99.9533 113.453C99.86 113.5 99.8133 113.5 99.7667 113.547C99.72 113.64 99.6267 113.78 99.58 114.06L99.2067 115.087L99.3467 115.693C99.3467 115.833 99.3933 115.927 99.3933 115.927C99.44 115.973 99.44 115.973 99.4867 116.02C99.5333 116.02 99.6267 116.02 99.6733 116.02L99.8133 115.973V116.02L98.4133 116.347V116.253H98.5533C98.6 116.253 98.6467 116.207 98.6933 116.16C98.74 116.16 98.74 116.113 98.74 116.067C98.7867 116.02 98.74 115.973 98.74 115.833L98.6 115.32L97.8067 114.34C97.62 114.153 97.5267 114.06 97.48 114.06C97.4333 114.013 97.34 114.013 97.2467 114.013V113.967L98.46 113.687V113.78H98.4133C98.3667 113.78 98.2733 113.827 98.2733 113.827C98.2267 113.873 98.2267 113.873 98.2267 113.92C98.2733 113.967 98.32 114.06 98.46 114.2L99.1133 114.947L99.3933 114.107C99.44 113.873 99.4867 113.733 99.4867 113.687C99.4867 113.64 99.44 113.64 99.3933 113.64C99.3467 113.593 99.3 113.593 99.16 113.593V113.547L99.9067 113.36ZM100.093 113.313L101.4 112.94V112.987L101.353 113.033C101.26 113.033 101.167 113.08 101.167 113.127C101.12 113.127 101.12 113.173 101.073 113.22C101.073 113.267 101.12 113.36 101.167 113.5L101.54 114.713C101.587 114.9 101.633 115.04 101.727 115.133C101.773 115.18 101.82 115.227 101.913 115.273C102.007 115.273 102.1 115.273 102.24 115.227C102.38 115.18 102.473 115.133 102.567 115.04C102.613 114.947 102.66 114.853 102.707 114.713C102.707 114.62 102.66 114.433 102.567 114.153L102.287 113.127C102.24 113.033 102.193 112.94 102.193 112.94C102.147 112.893 102.1 112.847 102.053 112.847C102.007 112.847 101.913 112.847 101.82 112.893L101.773 112.8L102.66 112.567V112.613H102.613C102.567 112.66 102.473 112.707 102.473 112.707C102.427 112.753 102.38 112.8 102.38 112.893C102.38 112.94 102.38 112.987 102.427 113.08L102.707 114.06C102.8 114.34 102.847 114.527 102.847 114.667C102.847 114.807 102.8 114.993 102.707 115.133C102.567 115.273 102.38 115.413 102.147 115.46C101.913 115.553 101.727 115.553 101.587 115.553C101.4 115.507 101.26 115.46 101.167 115.32C101.073 115.227 100.98 115.087 100.933 114.9L100.56 113.687C100.513 113.547 100.467 113.453 100.467 113.407C100.42 113.407 100.373 113.36 100.327 113.36C100.28 113.36 100.233 113.36 100.14 113.407L100.093 113.313ZM104.62 112.66L105.973 113.22C106.16 113.313 106.3 113.36 106.393 113.36C106.487 113.36 106.58 113.313 106.627 113.313L106.673 113.36L105.46 114.013V113.92C105.507 113.873 105.553 113.827 105.553 113.827C105.6 113.78 105.6 113.78 105.553 113.733C105.553 113.687 105.46 113.64 105.273 113.547L104.387 113.173L104.34 113.313L104.667 113.92C104.76 114.013 104.807 114.107 104.807 114.107C104.853 114.153 104.9 114.153 104.947 114.153C104.993 114.153 105.04 114.153 105.133 114.107L105.18 114.153L104.013 114.76V114.713L104.06 114.667C104.153 114.62 104.2 114.573 104.2 114.527C104.247 114.527 104.247 114.48 104.247 114.433C104.247 114.387 104.2 114.34 104.153 114.2L103.36 112.707C103.267 112.567 103.22 112.52 103.22 112.52C103.173 112.473 103.127 112.473 103.08 112.473C103.033 112.473 102.987 112.473 102.94 112.52L102.847 112.567L102.8 112.473L103.967 111.867V111.96C103.92 112.007 103.827 112.007 103.827 112.053C103.78 112.1 103.78 112.147 103.78 112.193C103.78 112.24 103.827 112.287 103.873 112.427L104.247 113.127L104.76 112.007C104.807 111.82 104.853 111.727 104.807 111.68C104.76 111.633 104.76 111.587 104.667 111.587C104.667 111.587 104.573 111.633 104.48 111.68L104.433 111.633L105.32 111.167L105.367 111.213C105.273 111.26 105.227 111.307 105.227 111.353C105.18 111.4 105.087 111.54 104.993 111.727L104.62 112.66ZM107.42 109.72L107.793 110.28L107.747 110.327C107.607 110.233 107.513 110.14 107.42 110.14C107.373 110.093 107.28 110.093 107.187 110.093C107.14 110.093 107.047 110.14 106.953 110.233L106.813 110.327L107.933 111.96C108.027 112.053 108.073 112.147 108.073 112.147C108.12 112.193 108.167 112.193 108.213 112.193C108.26 112.193 108.307 112.147 108.4 112.1L108.447 112.053L108.493 112.1L107.373 112.893L107.327 112.847L107.42 112.8C107.467 112.753 107.513 112.707 107.56 112.66C107.56 112.613 107.56 112.567 107.56 112.52C107.56 112.473 107.513 112.427 107.42 112.333L106.3 110.7L106.113 110.793C105.973 110.887 105.927 110.98 105.88 111.12C105.833 111.26 105.88 111.4 105.973 111.587L105.927 111.633L105.507 111.073L107.42 109.72ZM110.127 110.42L110.173 110.467L109.24 111.493L109.193 111.447L109.287 111.353C109.333 111.307 109.333 111.26 109.38 111.213C109.38 111.167 109.38 111.12 109.333 111.073C109.333 111.073 109.287 110.98 109.193 110.887L107.933 109.767C107.84 109.673 107.793 109.627 107.747 109.58C107.7 109.58 107.653 109.58 107.607 109.58C107.56 109.627 107.513 109.627 107.467 109.72L107.42 109.767L107.373 109.72L108.307 108.74L108.353 108.787L108.307 108.833C108.26 108.88 108.213 108.927 108.213 108.973C108.167 109.02 108.167 109.067 108.213 109.113C108.213 109.16 108.26 109.207 108.353 109.3L109.613 110.467C109.707 110.56 109.753 110.607 109.8 110.607C109.847 110.607 109.893 110.607 109.94 110.607C109.987 110.607 110.033 110.56 110.08 110.513L110.127 110.42Z" fill="#FFF000"/>
<path d="M88.8001 122.413C89.7334 122.647 90.5734 123.44 90.9001 124.373C93.1401 125.773 93.9801 128.293 96.7801 128.573C97.3867 128.62 97.3867 129.973 96.7801 129.88C92.8134 129.367 93.0001 127.22 90.9001 125.96C90.5267 127.08 89.3601 127.92 88.1934 127.827C86.2801 127.593 85.3001 125.633 84.1801 124.093C83.6201 125.073 82.4534 125.68 81.3334 125.4C79.4667 124.933 78.8134 122.693 77.8801 121.107C77.2267 122.04 75.8734 122.553 74.7534 122.04C73.0267 121.293 72.7001 119.007 72.0934 117.233C71.2067 117.98 69.8067 118.073 68.8734 117.373C67.3801 116.207 67.6134 113.967 67.3801 112.1C66.4934 112.753 65.0934 112.753 64.2534 111.96C62.8067 110.653 63.3201 108.367 63.2267 106.5C62.1534 106.827 60.8467 106.407 60.2401 105.427C59.3067 103.887 60.1934 101.973 60.7067 100.247C59.6334 100.433 58.4201 99.92 57.9534 98.8933C57.0667 97.12 58.4201 95.1133 59.0267 93.2933C57.8134 93.4333 56.5534 92.6867 56.2267 91.52C55.6201 89.3733 57.7667 87.46 58.6067 85.64C59.4934 87.04 61.0801 88.3933 61.3134 90.0733C61.4534 91.3333 60.8001 92.6867 59.6334 93.1533C60.7534 94.18 62.2467 95.16 62.7134 96.56C63.0401 97.68 62.7134 99.08 61.7801 99.78C62.9001 100.62 64.2534 101.46 64.7667 102.72C65.2801 103.887 64.9534 105.427 63.9267 106.173C65.2801 106.687 66.8667 107.06 67.7534 108.133C68.5001 109.067 68.6867 110.513 67.9867 111.493C69.4334 111.913 71.1134 112.147 72.0934 113.173C72.9801 114.06 73.2601 115.46 72.6534 116.533C74.1467 116.58 75.7334 116.44 76.9467 117.187C77.9734 117.84 78.5801 119.193 78.2534 120.407C79.7001 120.22 81.3334 119.753 82.6867 120.313C83.7601 120.78 84.5534 121.9 84.5067 123.067C85.9067 122.647 87.4001 122.04 88.8001 122.413ZM59.1667 90.8667L59.4001 92.7333C60.4267 92.36 60.9867 91.1933 60.8467 90.1667C60.8001 89.6533 60.5667 89.14 60.2867 88.6733L59.1667 90.8667ZM58.9801 92.8733L58.7001 90.96L56.6934 89.84C56.5534 90.3067 56.5067 90.8667 56.6467 91.38C56.9267 92.36 57.9534 92.92 58.9801 92.8733ZM56.8801 89.42L58.8401 90.4933L59.9601 88.2533C59.5401 87.6933 59.0734 87.1333 58.6534 86.5733C58.1401 87.5533 57.3467 88.3933 56.8801 89.42ZM60.8467 99.7333L60.8934 99.6867L60.2867 97.9133L58.1401 97.1667C58.0467 97.68 58.0934 98.24 58.3267 98.7067C58.7934 99.64 59.9134 99.9667 60.8467 99.7333ZM61.2667 99.4067L61.4067 99.5C62.2934 98.8933 62.5734 97.7267 62.2934 96.7C62.1067 96.2333 61.7801 95.7667 61.4067 95.3933L60.7067 97.7267L61.2667 99.4067ZM61.3134 100.06H61.2667C61.0334 101.133 60.5201 102.16 60.3334 103.233L62.4801 103.793L62.9934 101.32C62.4801 100.853 61.8734 100.48 61.3134 100.06ZM58.2334 96.7L60.3334 97.4467L61.0334 95.02C60.5201 94.5067 59.9601 94.0867 59.4467 93.5733C59.1201 94.6467 58.4667 95.6267 58.2334 96.7ZM63.1801 106.033C63.1801 105.987 63.1801 105.94 63.1801 105.893L62.5267 104.26L60.2867 103.7C60.2401 104.213 60.3334 104.773 60.6134 105.193C61.1267 106.08 62.2934 106.36 63.1801 106.033ZM62.9001 104.027L63.6467 105.8C64.5334 105.147 64.7667 103.887 64.3934 102.907C64.1601 102.44 63.8334 102.02 63.4134 101.647L62.9001 104.027ZM66.3534 109.907L67.5667 111.353C68.2201 110.467 68.0801 109.253 67.4267 108.413C67.1001 108.04 66.6334 107.76 66.1667 107.527L66.3534 109.907ZM67.2401 111.68L66.0734 110.233L63.7867 110.327C63.9267 110.793 64.1601 111.307 64.5334 111.633C65.2801 112.333 66.4934 112.24 67.2401 111.68ZM63.7401 109.86L65.9334 109.767L65.7001 107.293C65.0467 107.06 64.3467 106.873 63.6934 106.593C63.7867 107.667 63.5534 108.787 63.7401 109.86ZM70.8334 115.087L72.1867 116.487C72.7934 115.553 72.5601 114.293 71.8134 113.5C71.4401 113.127 70.9734 112.893 70.4134 112.707L70.8334 115.087ZM71.9067 116.813L70.5534 115.46L68.2667 115.74C68.4534 116.253 68.7334 116.72 69.1534 117.047C69.9934 117.653 71.1601 117.467 71.9067 116.813ZM68.1734 115.32L70.3667 115.04L69.9467 112.52C69.2467 112.333 68.5467 112.193 67.8467 111.96C68.0334 113.08 67.9401 114.2 68.1734 115.32ZM76.1534 119.38L77.7401 120.36C78.1134 119.333 77.6001 118.167 76.6667 117.607C76.2467 117.327 75.7334 117.187 75.1734 117.093L76.1534 119.38ZM77.5534 120.78L75.9201 119.753L73.7734 120.593C74.0534 121.013 74.4734 121.433 74.9401 121.62C75.8734 122.04 76.9934 121.573 77.5534 120.78ZM73.5867 120.173L75.6867 119.38L74.6601 117.047C73.9601 117.047 73.2134 117.047 72.5134 117C72.9334 118.027 73.0734 119.193 73.5867 120.173ZM83.8534 123.253L84.0401 123.207C84.1334 122.133 83.4334 121.153 82.5001 120.733C82.0334 120.547 81.4734 120.5 80.9134 120.547L82.2667 122.553L83.8534 123.253ZM83.9001 123.72L82.1267 123.02L80.1667 124.14C80.4934 124.513 80.9601 124.84 81.4734 124.98C82.4534 125.26 83.4801 124.607 83.9001 123.72ZM79.8867 123.813L81.8001 122.693L80.4467 120.547C79.7467 120.64 79.0467 120.78 78.3467 120.873C78.9067 121.807 79.2334 122.88 79.8867 123.813ZM88.7067 124.747L90.5734 125.26C90.6201 124.14 89.7334 123.113 88.6601 122.88C88.1467 122.74 87.5867 122.74 87.0267 122.88L88.7067 124.747ZM90.5267 125.727L88.6134 125.213L86.7934 126.707C87.1667 127.033 87.6801 127.313 88.2401 127.36C89.2667 127.453 90.2001 126.66 90.5267 125.727ZM86.4201 126.38L88.2401 124.933L86.5134 122.973C85.8134 123.16 85.1134 123.393 84.4134 123.58C85.1601 124.467 85.6267 125.54 86.4201 126.38Z" fill="#FFF000"/>
<path d="M97.3867 122.413C96.4067 122.647 95.5667 123.44 95.24 124.373C93 125.773 92.2067 128.293 89.36 128.573C88.8 128.62 88.8 129.973 89.36 129.88C93.3267 129.367 93.1867 127.22 95.24 125.96C95.6134 127.08 96.78 127.92 97.9934 127.827C99.86 127.593 100.887 125.633 101.96 124.093C102.52 125.073 103.733 125.68 104.807 125.4C106.673 124.933 107.327 122.693 108.26 121.107C108.913 122.04 110.313 122.553 111.387 122.04C113.16 121.293 113.44 119.007 114.093 117.233C114.98 117.98 116.333 118.073 117.267 117.373C118.807 116.207 118.573 113.967 118.76 112.1C119.693 112.753 121.047 112.753 121.887 111.96C123.333 110.653 122.867 108.367 122.913 106.5C123.987 106.827 125.34 106.407 125.947 105.427C126.88 103.887 125.947 101.973 125.433 100.247C126.507 100.433 127.72 99.92 128.233 98.8933C129.12 97.12 127.767 95.1133 127.16 93.2933C128.327 93.4333 129.633 92.6867 129.96 91.52C130.567 89.3733 128.373 87.46 127.58 85.64C126.693 87.04 125.06 88.3933 124.827 90.0733C124.687 91.3333 125.34 92.6867 126.507 93.1533C125.387 94.18 123.94 95.16 123.473 96.56C123.1 97.68 123.473 99.08 124.407 99.78C123.24 100.62 121.887 101.46 121.373 102.72C120.907 103.887 121.187 105.427 122.26 106.173C120.907 106.687 119.32 107.06 118.387 108.133C117.64 109.067 117.5 110.513 118.153 111.493C116.753 111.913 115.073 112.147 114.047 113.173C113.207 114.06 112.927 115.46 113.487 116.533C112.04 116.58 110.407 116.44 109.24 117.187C108.213 117.84 107.56 119.193 107.933 120.407C106.44 120.22 104.807 119.753 103.5 120.313C102.427 120.78 101.633 121.9 101.68 123.067C100.28 122.647 98.74 122.04 97.3867 122.413ZM127.02 90.8667L126.787 92.7333C125.713 92.36 125.153 91.1933 125.293 90.1667C125.34 89.6533 125.573 89.14 125.9 88.6733L127.02 90.8667ZM127.207 92.8733L127.44 90.96L129.447 89.84C129.587 90.3067 129.68 90.8667 129.54 91.38C129.26 92.36 128.187 92.92 127.207 92.8733ZM129.26 89.42L127.347 90.4933L126.18 88.2533C126.6 87.6933 127.067 87.1333 127.487 86.5733C128.047 87.5533 128.84 88.3933 129.26 89.42ZM125.293 99.7333V99.6867L125.853 97.9133L128.047 97.1667C128.093 97.68 128.047 98.24 127.813 98.7067C127.347 99.64 126.227 99.9667 125.293 99.7333ZM124.92 99.4067L124.78 99.5C123.893 98.8933 123.567 97.7267 123.893 96.7C124.033 96.2333 124.36 95.7667 124.733 95.3933L125.433 97.7267L124.92 99.4067ZM124.827 100.06H124.873C125.107 101.133 125.667 102.16 125.853 103.233L123.66 103.793L123.147 101.32C123.707 100.853 124.313 100.48 124.827 100.06ZM127.953 96.7L125.853 97.4467L125.107 95.02C125.62 94.5067 126.227 94.0867 126.74 93.5733C127.067 94.6467 127.673 95.6267 127.953 96.7ZM122.96 106.033C122.96 105.987 122.96 105.94 122.96 105.893L123.66 104.26L125.9 103.7C125.9 104.213 125.807 104.773 125.527 105.193C125.013 106.08 123.893 106.36 122.96 106.033ZM123.24 104.027L122.54 105.8C121.607 105.147 121.373 103.887 121.793 102.907C121.98 102.44 122.353 102.02 122.773 101.647L123.24 104.027ZM119.787 109.907L118.62 111.353C117.967 110.467 118.06 109.253 118.76 108.413C119.087 108.04 119.507 107.76 120.02 107.527L119.787 109.907ZM118.9 111.68L120.113 110.233L122.353 110.327C122.213 110.793 121.98 111.307 121.607 111.633C120.86 112.333 119.693 112.24 118.9 111.68ZM122.447 109.86L120.253 109.767L120.487 107.293C121.14 107.06 121.793 106.873 122.447 106.593C122.353 107.667 122.587 108.787 122.447 109.86ZM115.307 115.087L113.953 116.487C113.393 115.553 113.627 114.293 114.373 113.5C114.747 113.127 115.213 112.893 115.727 112.707L115.307 115.087ZM114.28 116.813L115.587 115.46L117.873 115.74C117.687 116.253 117.407 116.72 116.987 117.047C116.193 117.653 114.98 117.467 114.28 116.813ZM118.013 115.32L115.773 115.04L116.24 112.52C116.893 112.333 117.593 112.193 118.293 111.96C118.107 113.08 118.247 114.2 118.013 115.32ZM110.033 119.38L108.4 120.36C108.027 119.333 108.587 118.167 109.473 117.607C109.893 117.327 110.453 117.187 111.013 117.093L110.033 119.38ZM108.587 120.78L110.22 119.753L112.367 120.593C112.087 121.013 111.713 121.433 111.2 121.62C110.267 122.04 109.147 121.573 108.587 120.78ZM112.6 120.173L110.5 119.38L111.527 117.047C112.227 117.047 112.927 117.047 113.673 117C113.207 118.027 113.067 119.193 112.6 120.173ZM102.287 123.253L102.147 123.207C102.007 122.133 102.707 121.153 103.64 120.733C104.153 120.547 104.667 120.5 105.227 120.547L103.92 122.553L102.287 123.253ZM102.287 123.72L104.013 123.02L106.02 124.14C105.647 124.513 105.18 124.84 104.713 124.98C103.733 125.26 102.707 124.607 102.287 123.72ZM106.3 123.813L104.34 122.693L105.74 120.547C106.44 120.64 107.14 120.78 107.84 120.873C107.233 121.807 106.907 122.88 106.3 123.813ZM97.48 124.747L95.5667 125.26C95.5667 124.14 96.4534 123.113 97.48 122.88C97.9934 122.74 98.5534 122.74 99.1134 122.88L97.48 124.747ZM95.66 125.727L97.5267 125.213L99.3934 126.707C98.9734 127.033 98.46 127.313 97.9467 127.36C96.8734 127.453 95.94 126.66 95.66 125.727ZM99.72 126.38L97.9467 124.933L99.6267 122.973C100.327 123.16 101.027 123.393 101.727 123.58C101.027 124.467 100.513 125.54 99.72 126.38Z" fill="#FFF000"/>
<path d="M93 16.3867C106.067 16.3867 117.173 22.78 125.107 33.0933C133.273 43.7333 138.033 58.5733 138.033 75C138.033 75.2333 138.033 75.5133 138.033 75.84C137.847 91.7533 133.133 106.173 125.247 116.627C117.313 127.08 106.253 133.613 93.3733 133.613H93C80.0733 133.473 68.92 127.033 60.94 116.627C52.7733 106.033 47.9667 91.3333 47.9667 75C47.9667 58.5733 52.7267 43.7333 60.8933 33.0933C68.8267 22.78 79.9333 16.3867 93 16.3867ZM124.64 33.42C116.847 23.2467 105.88 16.9467 93 16.9467C80.12 16.9467 69.1533 23.2467 61.36 33.42C53.24 43.9667 48.5267 58.7133 48.5267 75C48.5267 91.1933 53.2867 105.8 61.36 116.3C69.2467 126.567 80.26 132.913 93 133.053H93.3733C106.067 133.053 116.987 126.613 124.78 116.3C132.62 105.94 137.333 91.6133 137.473 75.84C137.473 75.6533 137.473 75.3733 137.473 75C137.473 58.7133 132.76 43.9667 124.64 33.42Z" fill="#FFF000"/>
<path d="M93 14.8467C106.393 14.8467 117.827 21.38 125.947 31.9733C134.347 42.8933 139.247 58.1533 139.247 75C139.247 75.2333 139.247 75.5133 139.247 75.8867C139.06 92.1733 134.207 107.013 126.087 117.747C117.967 128.48 106.58 135.153 93.42 135.153C93.3267 135.153 93.1867 135.153 93 135.153C79.7467 135.013 68.2667 128.433 60.0533 117.747C51.7 106.873 46.7533 91.7533 46.7533 75C46.7533 58.1533 51.6533 42.8933 60.0533 31.9733C68.1733 21.38 79.6067 14.8467 93 14.8467ZM125.527 32.3C117.5 21.8467 106.207 15.4067 93 15.4067C79.7933 15.4067 68.5 21.8467 60.4733 32.3C52.1667 43.1267 47.3133 58.2467 47.3133 75C47.3133 91.66 52.2133 106.593 60.52 117.42C68.5933 127.967 79.9333 134.5 93 134.593H93.42V134.64C106.393 134.64 117.64 128.013 125.667 117.42C133.693 106.78 138.5 92.08 138.687 75.8867C138.687 75.6533 138.687 75.3733 138.687 75C138.687 58.2467 133.833 43.1267 125.527 32.3Z" fill="#FFF000"/>
<path d="M93 13.0733C106.767 13.0733 118.527 19.7933 126.927 30.7133C135.56 41.96 140.6 57.64 140.6 75C140.6 75.2333 140.6 75.5133 140.6 75.8867C140.413 92.6867 135.42 107.947 127.067 119.007C118.713 130.067 107 136.927 93.42 136.927C93.3267 136.927 93.1867 136.927 93 136.927C79.3267 136.787 67.52 129.973 59.12 118.96C50.5333 107.807 45.4 92.2667 45.4 75C45.4 57.64 50.44 41.96 59.0733 30.7133C67.4733 19.7933 79.2333 13.0733 93 13.0733ZM126.46 31.04C118.2 20.26 106.627 13.6333 93 13.6333C79.3733 13.6333 67.8 20.26 59.54 31.04C50.9533 42.1933 45.96 57.78 45.96 75C45.96 92.1267 51 107.527 59.54 118.633C67.8933 129.507 79.5133 136.227 93 136.367H93.42C106.813 136.367 118.34 129.6 126.6 118.633C134.907 107.713 139.853 92.5467 140.04 75.8867C140.04 75.6533 140.04 75.3733 140.04 75C140.04 57.78 135.047 42.1933 126.46 31.04Z" fill="#FFF000"/>
<path d="M93 11.6733C107.093 11.6733 119.133 18.5333 127.673 29.7333C136.493 41.2133 141.673 57.2667 141.673 75C141.673 75.2333 141.673 75.56 141.673 75.9333C141.487 93.1067 136.353 108.693 127.813 119.987C119.273 131.327 107.28 138.327 93.42 138.327C93.3733 138.327 93.2333 138.327 93 138.327C79.0467 138.187 66.96 131.233 58.3267 119.987C49.5533 108.507 44.3267 92.64 44.3267 75C44.3267 57.2667 49.5067 41.2133 58.3267 29.7333C66.8667 18.5333 78.9067 11.6733 93 11.6733ZM127.253 30.06C118.76 19 106.907 12.2333 93 12.2333C79.0933 12.2333 67.24 19 58.7467 30.06C50.02 41.4467 44.8867 57.36 44.8867 75C44.8867 92.5 50.0667 108.273 58.7933 119.66C67.2867 130.767 79.2333 137.627 93 137.767H93.42C107.093 137.767 118.947 130.86 127.393 119.66C135.84 108.46 140.927 92.9667 141.113 75.9333C141.113 75.7 141.113 75.3734 141.113 75C141.113 57.36 135.98 41.4467 127.253 30.06Z" fill="#FFF000"/>
<path d="M57.4867 58.9467L53.52 56.0533L54.22 53.3L54.4067 53.3467L54.36 53.58C54.3133 53.7667 54.3133 53.9533 54.3133 54.0933C54.36 54.1867 54.4067 54.2333 54.5 54.3267C54.5933 54.3733 54.78 54.4667 55.1067 54.5133L59.54 55.6333C59.8667 55.7267 60.1 55.7733 60.1933 55.7267C60.2867 55.7267 60.38 55.68 60.4733 55.5867C60.5667 55.4933 60.6133 55.3533 60.66 55.1667L60.7067 54.9333L60.8933 54.98L60.0067 58.48L59.8667 58.4333L59.9133 58.2C59.96 58.0133 59.96 57.8267 59.9133 57.6867C59.9133 57.5933 59.82 57.5467 59.7267 57.4533C59.68 57.4067 59.4467 57.3133 59.12 57.22L54.1733 56.0067L59.6333 60.0667L59.5867 60.2067L52.9133 61.28L57.58 62.4933C57.9067 62.54 58.14 62.5867 58.2333 62.5867C58.3733 62.5867 58.56 62.54 58.7 62.4C58.84 62.3067 58.9333 62.0733 59.0267 61.7933L59.2133 61.84L58.6067 64.1267L58.42 64.08L58.4667 63.9867C58.5133 63.8467 58.5133 63.7067 58.4667 63.5667C58.4667 63.4267 58.42 63.3333 58.3733 63.24C58.28 63.1467 58.1867 63.0533 58.0467 63.0067C58 62.96 57.8133 62.9133 57.5333 62.8667L53.2867 61.7933C52.96 61.7 52.7733 61.7 52.68 61.7C52.5867 61.7 52.4933 61.7467 52.4 61.84C52.3067 61.98 52.2133 62.12 52.1667 62.3067L52.12 62.4933L51.9333 62.4467L52.6333 59.74L57.4867 58.9467ZM60.9867 50.1267L60.0533 52.3667L60.5667 52.88C60.7067 53.0667 60.8467 53.16 60.9867 53.2067C61.1733 53.3 61.36 53.3 61.5 53.16C61.5933 53.1133 61.6867 52.9267 61.8733 52.6L62.0133 52.6933L61.1267 54.7933L60.9867 54.7C61.0333 54.4667 61.0333 54.2333 60.94 54.0467C60.8467 53.8133 60.5667 53.4867 60.1933 53.0667L56.0867 48.68L56.1333 48.5867L62.2933 48.4933C62.9 48.4933 63.2733 48.4467 63.46 48.3533C63.6 48.3067 63.74 48.1667 63.8333 47.98L63.9733 48.0267L62.7133 51.1067L62.5267 51.06L62.5733 50.92C62.6667 50.6867 62.7133 50.5 62.7133 50.36C62.6667 50.2667 62.62 50.22 62.5267 50.1733C62.48 50.1267 62.3867 50.1267 62.34 50.1267C62.2933 50.1267 62.1533 50.1267 61.92 50.1267H60.9867ZM60.5667 50.1267H58L59.7733 52.04L60.5667 50.1267ZM62.8067 43.78L64.58 44.9467C64.9067 45.1333 65.0933 45.2733 65.1867 45.2733C65.28 45.2733 65.3733 45.2733 65.5133 45.2267C65.6067 45.1333 65.7467 45.04 65.84 44.9L65.98 44.6667L66.12 44.8067L64.16 47.7933L64.02 47.7L64.1133 47.5133C64.2533 47.3267 64.3 47.1867 64.3 47.0467C64.3 46.9533 64.3 46.86 64.2067 46.7667C64.16 46.6733 63.9733 46.5333 63.6933 46.3467L59.9133 43.8733C59.5867 43.6867 59.4 43.5933 59.3067 43.5933C59.2133 43.5467 59.12 43.5933 58.98 43.64C58.8867 43.6867 58.7933 43.8267 58.6533 43.9667L58.56 44.1533L58.3733 44.06L60.3333 41.0267L60.52 41.12L60.38 41.3533C60.2867 41.4933 60.1933 41.6333 60.1933 41.7733C60.1933 41.9133 60.24 42.0067 60.2867 42.1C60.3333 42.1933 60.52 42.2867 60.8 42.52L62.4333 43.5467L63.74 41.54L62.1067 40.4667C61.8267 40.28 61.64 40.14 61.5467 40.14C61.4533 40.14 61.36 40.14 61.22 40.2333C61.1267 40.28 60.9867 40.3733 60.8933 40.56L60.7533 40.7467L60.6133 40.6533L62.5733 37.62L62.7133 37.7133L62.62 37.9C62.48 38.0867 62.4333 38.2267 62.4333 38.3667C62.4333 38.46 62.4333 38.5533 62.5267 38.6933C62.5733 38.74 62.76 38.88 63.04 39.0667L66.82 41.54C67.1 41.7267 67.3333 41.82 67.4267 41.8667C67.52 41.8667 67.6133 41.8667 67.7067 41.7733C67.8467 41.7267 67.94 41.6333 68.08 41.4467L68.1733 41.26L68.36 41.3533L66.4 44.3867L66.2133 44.2933L66.3533 44.1067C66.4467 43.92 66.54 43.78 66.54 43.64C66.54 43.5467 66.4933 43.4067 66.4467 43.3133C66.4 43.2667 66.2133 43.1267 65.9333 42.94L64.16 41.7733L62.8067 43.78ZM68.5467 35.1467L72.42 35.52C72.9333 35.5667 73.3533 35.5667 73.6333 35.4733C73.8667 35.4267 74.0067 35.3333 74.1467 35.1933L74.2867 35.3333L71.8133 37.9L71.6733 37.76C71.8133 37.62 71.9067 37.48 71.9067 37.3867C71.9067 37.2933 71.9067 37.2467 71.8133 37.2C71.72 37.1067 71.44 37.0133 70.9267 36.9667L68.4067 36.7333L68.36 37.06L69.7133 38.3667C69.9933 38.6 70.18 38.74 70.2733 38.7867C70.3667 38.8333 70.46 38.7867 70.6 38.7867C70.6933 38.74 70.88 38.6 71.02 38.4133L71.16 38.5533L68.78 41.0733L68.64 40.9333L68.78 40.7467C68.92 40.6067 69.0133 40.4667 69.06 40.3267C69.06 40.2333 69.06 40.14 69.0133 40.0467C68.9667 39.9533 68.8267 39.7667 68.5933 39.5333L65.3267 36.4067C65.0933 36.1733 64.9067 36.0333 64.8133 35.9867C64.72 35.94 64.6267 35.94 64.4867 35.9867C64.3467 36.0333 64.2533 36.1267 64.1133 36.2667L63.9267 36.4067L63.7867 36.2667L66.1667 33.7933L66.3067 33.9333C66.1667 34.12 66.0733 34.26 66.0267 34.4C65.98 34.4933 66.0267 34.5867 66.0267 34.7267C66.0733 34.82 66.2133 34.96 66.4933 35.1933L68.0333 36.6867L68.3133 33.42C68.36 32.9533 68.3133 32.6733 68.1733 32.58C68.08 32.4867 67.94 32.44 67.8 32.4867C67.7067 32.5333 67.5667 32.6733 67.38 32.86L67.24 32.72L69.1067 30.8067L69.2467 30.9467C69.06 31.0867 68.9667 31.2733 68.92 31.4133C68.8733 31.5533 68.8267 31.9733 68.78 32.58L68.5467 35.1467ZM76.9467 31.5533L74.8467 32.7667L74.94 33.4667C74.94 33.7467 75.0333 33.9333 75.08 34.0267C75.1733 34.2133 75.3133 34.3067 75.5 34.3067C75.5933 34.3067 75.8267 34.2133 76.1533 34.0733L76.2467 34.2133L74.24 35.38L74.1467 35.1933C74.38 35.0533 74.4733 34.8667 74.52 34.6333C74.6133 34.4 74.6133 34.0267 74.52 33.42L73.9133 27.4467L74.0067 27.4L78.9533 31.04C79.4667 31.4133 79.7933 31.6 79.98 31.6467C80.12 31.6467 80.3067 31.6467 80.4933 31.5533L80.5867 31.6933L77.6933 33.3733L77.6 33.2333L77.74 33.14C77.9733 33 78.1133 32.9067 78.16 32.7667C78.2067 32.6733 78.2067 32.58 78.16 32.4867C78.1133 32.44 78.0667 32.3933 78.02 32.3467C78.02 32.3467 77.88 32.2533 77.6933 32.1133L76.9467 31.5533ZM76.62 31.32L74.5667 29.78L74.8 32.3467L76.62 31.32ZM84.7867 27.82L85.3 22.9667L88.0067 22.1734L88.0533 22.36L87.8667 22.4067C87.68 22.5 87.4933 22.5467 87.4 22.64C87.3533 22.7334 87.3067 22.8267 87.3067 22.9667C87.26 23.0134 87.3067 23.2467 87.4 23.5734L88.66 27.9133C88.7533 28.2867 88.8467 28.4733 88.8933 28.5667C88.94 28.6133 89.0333 28.66 89.1733 28.7067C89.3133 28.7533 89.4533 28.7533 89.64 28.7067L89.8733 28.6133L89.92 28.8L86.4667 29.78L86.42 29.5933L86.6067 29.5467C86.84 29.5 86.98 29.4067 87.0733 29.3133C87.12 29.2667 87.1667 29.1267 87.1667 29.0333C87.2133 28.94 87.1667 28.7067 87.0733 28.38L85.6733 23.48L84.8333 30.2467L84.74 30.2933L80.4467 25.02L81.7533 29.6867C81.8467 30.0133 81.94 30.2 81.9867 30.2933C82.08 30.4333 82.1733 30.5267 82.36 30.62C82.5467 30.6667 82.78 30.6667 83.06 30.5733L83.1067 30.76L80.8667 31.4133L80.82 31.2267L80.8667 31.18C81.0067 31.18 81.1467 31.0867 81.2867 30.9933C81.38 30.9 81.4733 30.8067 81.4733 30.7133C81.52 30.62 81.5667 30.48 81.5667 30.34C81.52 30.2933 81.4733 30.1067 81.4267 29.8267L80.2133 25.6267C80.12 25.3 80.0267 25.1133 79.98 25.02C79.9333 24.9734 79.84 24.88 79.7 24.88C79.56 24.8333 79.42 24.8333 79.2333 24.88L79 24.9734L78.9533 24.7867L81.66 23.9934L84.7867 27.82ZM94.6333 27.1667L92.2067 27.12L91.88 27.82C91.7867 28.0067 91.74 28.1933 91.74 28.3333C91.74 28.5667 91.8333 28.7067 91.9733 28.8C92.0667 28.8467 92.3 28.8933 92.6267 28.94V29.1267L90.34 29.08V28.8933C90.62 28.8467 90.8067 28.7533 90.9467 28.5667C91.1333 28.4267 91.32 28.0533 91.5533 27.54L94.12 22.08H94.2133L96.5933 27.7733C96.8267 28.3333 97.0133 28.66 97.2 28.8C97.2933 28.94 97.4333 28.9867 97.6667 28.9867V29.1733L94.3067 29.1267L94.3533 28.94H94.4467C94.7267 28.94 94.9133 28.94 95.0533 28.8467C95.1 28.8 95.1467 28.7067 95.1467 28.6133C95.1467 28.5667 95.1467 28.4733 95.1 28.4267C95.1 28.38 95.0533 28.2867 94.96 28.0533L94.6333 27.1667ZM94.4467 26.7933L93.4667 24.4134L92.3933 26.7467L94.4467 26.7933ZM101.447 26.8867L100.84 28.94C100.747 29.2667 100.7 29.5 100.7 29.5933C100.7 29.6867 100.793 29.78 100.887 29.8733C100.98 29.9667 101.073 30.0133 101.26 30.06L101.493 30.1533L101.447 30.34L97.9933 29.3133L98.04 29.1733L98.2733 29.22C98.46 29.2667 98.6 29.2667 98.74 29.2667C98.8333 29.22 98.9267 29.1733 99.02 29.08C99.0667 28.9867 99.16 28.8 99.2533 28.4733L100.513 24.1334C100.607 23.76 100.653 23.5734 100.607 23.48C100.607 23.3867 100.56 23.2934 100.467 23.2C100.373 23.1067 100.233 23.0134 100.047 22.9667L99.8133 22.8734L99.9067 22.7334L103.36 23.7134L103.313 23.9L103.08 23.8067C102.893 23.76 102.707 23.76 102.567 23.8067C102.473 23.8067 102.38 23.8534 102.333 23.9467C102.24 24.04 102.193 24.2267 102.1 24.5533L101.54 26.4667L103.873 27.12L104.433 25.2534C104.527 24.88 104.573 24.6934 104.573 24.6C104.527 24.5067 104.48 24.4134 104.387 24.32C104.293 24.2267 104.153 24.1334 103.967 24.0867L103.78 24.04L103.827 23.8534L107.28 24.8333L107.233 25.02L107 24.9734C106.813 24.88 106.627 24.88 106.533 24.9267C106.393 24.9267 106.347 25.02 106.253 25.1133C106.207 25.16 106.113 25.3467 106.02 25.6733L104.76 30.06C104.667 30.3867 104.62 30.62 104.62 30.7133C104.667 30.8067 104.713 30.9 104.807 30.9933C104.9 31.0867 105.04 31.1333 105.227 31.2267L105.413 31.2733L105.367 31.46L101.913 30.48L101.96 30.2933L102.193 30.34C102.38 30.3867 102.52 30.3867 102.66 30.3867C102.753 30.34 102.847 30.2933 102.94 30.2C102.987 30.1067 103.08 29.92 103.173 29.5933L103.78 27.54L101.447 26.8867ZM112.04 33.56L110.08 32.1133L109.427 32.4867C109.24 32.6267 109.053 32.7667 109.007 32.86C108.867 33 108.867 33.1867 108.913 33.3267C108.96 33.4667 109.147 33.6067 109.38 33.84L109.287 33.98L107.42 32.6267L107.56 32.4867C107.793 32.6267 107.98 32.6267 108.213 32.6267C108.447 32.58 108.82 32.3933 109.287 32.1133L114.513 29.1267L114.607 29.1733L113.3 35.1933C113.16 35.7533 113.113 36.1733 113.16 36.36C113.207 36.5 113.3 36.64 113.487 36.78L113.347 36.9667L110.64 35.0067L110.78 34.82L110.873 34.9133C111.107 35.0533 111.293 35.1467 111.387 35.1467C111.48 35.1467 111.573 35.1 111.62 35.0533C111.667 35.0067 111.713 34.9133 111.713 34.8667C111.713 34.82 111.76 34.68 111.807 34.4467L112.04 33.56ZM112.087 33.14L112.693 30.62L110.407 31.9267L112.087 33.14ZM123.567 37.5733L121.747 39.2067L121.653 39.0667C121.98 38.46 122.12 37.8533 122.073 37.2933C122.027 36.7333 121.84 36.2667 121.467 35.8467C121.14 35.4733 120.72 35.24 120.3 35.1933C119.833 35.1467 119.367 35.1933 118.9 35.4733C118.433 35.7067 117.967 35.9867 117.593 36.36C117.08 36.8267 116.707 37.2467 116.427 37.7133C116.193 38.1333 116.053 38.6 116.147 38.9733C116.193 39.3933 116.38 39.8133 116.707 40.14C116.8 40.28 116.94 40.3733 117.08 40.4667C117.22 40.6067 117.36 40.7 117.547 40.7933L118.62 39.8133C118.807 39.6267 118.947 39.5333 118.947 39.44C118.993 39.3467 118.993 39.2533 118.993 39.1133C118.947 38.9733 118.853 38.88 118.76 38.74L118.62 38.6L118.76 38.46L121 40.98L120.86 41.0733C120.72 40.9333 120.533 40.7933 120.44 40.7467C120.347 40.7467 120.207 40.7467 120.113 40.7933C120.02 40.7933 119.927 40.8867 119.74 41.0733L118.667 42.0067C118.2 41.82 117.78 41.5867 117.407 41.3067C117.033 40.98 116.66 40.6533 116.287 40.28C115.867 39.8133 115.587 39.3467 115.4 38.88C115.26 38.46 115.167 38.04 115.167 37.5733C115.167 37.1533 115.213 36.7333 115.353 36.36C115.587 35.8467 115.867 35.4267 116.287 35.0533C117.08 34.3533 117.967 34.0267 118.993 34.0733C120.02 34.1667 120.86 34.5867 121.607 35.4267C121.84 35.66 122.027 35.94 122.167 36.1733C122.26 36.2667 122.353 36.5 122.493 36.8733C122.633 37.2 122.727 37.3867 122.727 37.4333C122.82 37.48 122.913 37.5267 123.007 37.5267C123.1 37.5733 123.24 37.5267 123.427 37.4333L123.567 37.5733ZM124.967 39.7667L126.787 42.8L126.6 42.8933L126.507 42.7533C126.367 42.52 126.273 42.38 126.18 42.3333C126.087 42.2867 125.947 42.24 125.853 42.2867C125.76 42.2867 125.527 42.38 125.2 42.5667L122.307 44.34C121.793 44.62 121.467 44.9 121.327 45.0867C121.187 45.2733 121.14 45.46 121.14 45.74C121.14 45.9733 121.233 46.2533 121.373 46.5333C121.56 46.86 121.793 47.0467 122.073 47.1867C122.353 47.3267 122.68 47.3733 123.007 47.3733C123.287 47.3267 123.8 47.0933 124.407 46.72L126.833 45.2733C127.067 45.1333 127.253 44.9933 127.347 44.8533C127.393 44.76 127.44 44.62 127.44 44.5267C127.44 44.34 127.347 44.1533 127.207 43.92L127.347 43.78L128.607 45.8333L128.42 45.9267L128.373 45.8333C128.28 45.6467 128.14 45.5533 128 45.46C127.86 45.4133 127.72 45.3667 127.58 45.4133C127.44 45.4133 127.253 45.5067 127.02 45.6467L124.78 47C124.08 47.42 123.567 47.6533 123.193 47.7467C122.867 47.84 122.447 47.7933 121.98 47.6067C121.467 47.42 121.047 47 120.72 46.3933C120.393 45.88 120.207 45.46 120.207 45.0867C120.16 44.5733 120.207 44.2 120.44 43.8267C120.627 43.5 120.953 43.22 121.467 42.8933L124.36 41.1667C124.687 40.98 124.873 40.84 124.92 40.7467C125.013 40.6533 125.013 40.56 125.013 40.42C125.013 40.28 124.92 40.0933 124.78 39.86L124.967 39.7667ZM130.053 49.24L127.44 54.0467L130.147 52.88C130.52 52.74 130.753 52.5533 130.847 52.4133C130.987 52.18 130.94 51.9 130.8 51.5267L130.987 51.4333L131.873 53.5333L131.687 53.6267C131.547 53.3467 131.407 53.2067 131.313 53.16C131.22 53.0667 131.127 53.02 130.987 53.02C130.847 53.02 130.613 53.1133 130.287 53.2533L125.013 55.4933L124.967 55.3067L128.42 48.7733L124.407 50.5C124.033 50.64 123.8 50.8267 123.753 51.06C123.707 51.2933 123.707 51.48 123.8 51.7133L123.847 51.8533L123.707 51.9467L122.727 49.7067L122.913 49.6133C123.053 49.94 123.24 50.1733 123.427 50.2667C123.66 50.3133 123.893 50.3133 124.22 50.1733L128.7 48.26L128.84 48.0267C128.933 47.84 128.98 47.7 129.027 47.56C129.027 47.42 128.98 47.28 128.887 47.0933L129.073 47L130.053 49.24ZM134.067 61.7933L131.733 62.3533L131.687 62.1667C132.293 61.7933 132.667 61.3733 132.9 60.8133C133.133 60.3 133.18 59.7867 133.04 59.2733C132.9 58.76 132.667 58.3867 132.293 58.1067C131.967 57.8733 131.5 57.7333 130.987 57.6867C130.427 57.6867 129.913 57.7333 129.353 57.8733C128.747 58.06 128.187 58.2467 127.72 58.5267C127.3 58.8067 127.02 59.1333 126.833 59.5067C126.693 59.9267 126.693 60.3467 126.833 60.8133C126.833 60.9533 126.927 61.14 126.973 61.28C127.067 61.4667 127.16 61.6067 127.253 61.7933L128.653 61.42C128.933 61.3733 129.073 61.3267 129.167 61.2333C129.213 61.1867 129.26 61.0933 129.307 60.9533C129.353 60.86 129.353 60.72 129.307 60.5333L129.26 60.3467L129.447 60.3L130.24 63.5667L130.053 63.6133C130.007 63.38 129.913 63.1933 129.82 63.1C129.773 63.0533 129.68 63.0067 129.54 62.96C129.447 62.96 129.307 62.96 129.073 63.0533L127.673 63.38C127.393 63.0067 127.113 62.5867 126.927 62.1667C126.693 61.7 126.507 61.2333 126.413 60.7667C126.227 60.1133 126.18 59.5533 126.273 59.0867C126.32 58.6667 126.46 58.2 126.647 57.8267C126.88 57.4533 127.113 57.1267 127.44 56.8467C127.813 56.52 128.327 56.24 128.887 56.1C129.867 55.8667 130.8 56.0067 131.687 56.52C132.527 57.08 133.133 57.8733 133.367 58.9467C133.46 59.2733 133.507 59.6 133.507 59.88C133.553 60.02 133.507 60.2533 133.46 60.6267C133.46 61 133.413 61.1867 133.46 61.2333C133.46 61.3267 133.507 61.42 133.6 61.4667C133.693 61.5133 133.833 61.56 134.02 61.6067L134.067 61.7933Z" fill="#FFF000"/>
</g>
<defs>
<clipPath id="clip0_461_63174">
<rect width="102" height="132" fill="white" transform="translate(42 9)"/>
</clipPath>
</defs>
</svg>
