<svg width="186" height="150" viewBox="0 0 186 150" fill="none" xmlns="http://www.w3.org/2000/svg">
<g clip-path="url(#clip0_1534_12319)">
<path d="M126.06 108.095V77.3848C126.06 70.9663 123.399 67.7561 118.078 67.7542C112.756 67.7523 110.09 70.9625 110.078 77.3848V108.095H94.3567V77.3848C94.3567 70.9663 91.7369 67.7561 86.4973 67.7542C81.1665 67.7542 78.5058 70.9644 78.5153 77.3848V108.095H62.7908V75.5722C62.7908 68.8719 65.1284 63.8008 69.8035 60.3589C73.92 57.2858 79.4846 55.7493 86.4973 55.7493C93.607 55.7493 98.8447 57.5638 102.21 61.1929C105.111 57.5638 110.396 55.7493 118.066 55.7493C125.079 55.7493 130.642 57.2858 134.754 60.3589C139.429 63.7989 141.768 68.87 141.77 75.5722V108.095H126.06Z" fill="#F98012"/>
<path d="M93.3134 53.3832L108.918 42.0364L108.719 41.3442C80.5593 44.7795 67.7539 47.2134 43.5 61.204L43.7252 61.8395L45.6523 61.8593C45.4755 63.7911 45.1677 68.5653 45.5611 75.745C42.87 83.4949 45.4927 88.7598 47.9557 94.4871C48.3462 88.5301 48.3063 82.0056 46.4676 75.5124C46.0827 68.3809 46.3992 63.6918 46.5731 61.8678L62.6511 62.021C62.6079 65.154 62.7669 68.2865 63.1272 71.3992C77.4948 76.423 91.9451 71.3822 99.6163 58.9971C97.4869 56.6228 93.3134 53.3832 93.3134 53.3832Z" fill="#333333"/>
</g>
<defs>
<clipPath id="clip0_1534_12319">
<rect width="99" height="68" fill="white" transform="translate(43.5 41)"/>
</clipPath>
</defs>
</svg>
