<svg width="186" height="150" viewBox="0 0 186 150" fill="none" xmlns="http://www.w3.org/2000/svg">
<path d="M130.076 115.882V77.9458C130.076 70.017 126.689 66.0515 119.917 66.0491C113.144 66.0468 109.751 70.0123 109.736 77.9458V115.882H89.7268V77.9458C89.7268 70.017 86.3925 66.0515 79.7239 66.0491C72.9392 66.0491 69.5528 70.0147 69.5649 77.9458V115.882H49.5519V75.7066C49.5519 67.4298 52.527 61.1655 58.4772 56.9138C63.7163 53.1176 70.7985 51.2195 79.7239 51.2195C88.7725 51.2195 95.4387 53.461 99.7224 57.944C103.413 53.461 110.14 51.2195 119.902 51.2195C128.828 51.2195 135.907 53.1176 141.142 56.9138C147.092 61.1632 150.068 67.4274 150.071 75.7066V115.882H130.076Z" fill="#F98012"/>
<path d="M88.3989 48.297L108.26 34.2803L108.006 33.4253C72.1664 37.6688 55.8686 40.6754 25 57.958L25.2866 58.7429L27.7393 58.7675C27.5143 61.1538 27.1225 67.0513 27.6232 75.9204C24.1982 85.4938 27.5361 91.9975 30.6709 99.0724C31.1679 91.7137 31.1171 83.6541 28.7769 75.633C28.2871 66.8235 28.6899 61.0311 28.9112 58.778L49.3741 58.9672C49.3191 62.8373 49.5215 66.7069 49.98 70.552C68.2661 76.7579 86.6574 70.531 96.4208 55.2317C93.7105 52.2988 88.3989 48.297 88.3989 48.297Z" fill="#333333"/>
</svg>
