<svg width="186" height="150" viewBox="0 0 186 150" fill="none" xmlns="http://www.w3.org/2000/svg">
<path d="M32.6985 55.4397C25.3855 57.414 25.7733 65.0369 26.8813 68.6015C25.9118 68.7386 23.7234 68.6015 22.7262 66.9563C21.4796 64.8998 21.4796 62.4319 25.6347 56.2623C28.9588 51.3266 35.884 52.2863 38.9311 53.3832L42.6707 76.8277L47.6568 52.9719H53.8895L46.8258 85.8764H41.8397L37.6846 63.2545L32.2829 85.8764H26.0502L32.6985 55.4397Z" fill="#D5B244"/>
<path fill-rule="evenodd" clip-rule="evenodd" d="M61.7843 63.6658H55.5516L51.812 79.2955C50.981 82.586 52.643 86.2877 55.5516 86.699C57.8785 87.0281 60.9533 85.1909 62.1998 84.2312L61.3688 86.699C58.8757 87.1103 54.7206 89.1669 54.3051 91.6347C53.8896 94.1026 55.1361 98.2156 61.3688 97.393C66.3549 96.7349 67.6014 89.9895 67.6014 86.699C68.571 86.4248 70.7593 85.7119 71.7565 85.0538C72.7538 84.3957 73.8341 83.1344 74.2496 82.586C75.9116 85.0538 77.5737 86.2877 81.7288 86.2877C85.0529 86.2877 89.208 82.9973 90.87 81.352L90.039 85.8764H96.2717L99.5958 71.892C100.011 70.2467 101.341 67.0386 103.335 67.3676C105.33 67.6966 104.997 70.7952 104.582 72.3033C104.443 73.263 104 76.0873 103.335 79.7068C102.504 84.2312 104.997 86.2877 108.322 86.2877C110.981 86.2877 113.585 84.0941 114.554 82.9973C114.97 85.4651 117.047 86.2877 119.956 86.2877C122.283 86.2877 125.357 83.8199 126.604 82.586C127.02 85.2168 129.097 86.2877 132.006 86.2877C134.333 86.2877 137.13 83.5457 138.238 82.1747C138.186 84.1026 140.083 86.927 142.809 86.699C144.824 86.5305 147.795 84.6425 149.042 83.4086C149.873 84.7796 152.781 87.2749 157.767 86.2877C162.753 85.3006 164 80.6665 164 78.4729L163.169 62.4319L156.521 63.2545C156.192 64.0353 155.728 65.3359 155.232 66.724C154.683 68.261 154.096 69.9051 153.612 71.0694C151.735 75.5893 150.023 77.4213 149.201 78.3016C149.143 78.3632 149.09 78.4201 149.042 78.4729C147.923 79.6897 148.349 80.9407 148.626 81.352C148.349 81.6262 147.38 82.1747 145.718 82.1747C144.055 82.1747 144.194 80.2552 144.471 79.2955L147.795 64.0771H141.147L137.823 79.2955C137.269 80.3923 135.828 82.5037 134.499 82.1747C133.169 81.8456 133.114 80.1181 133.252 79.2955L136.161 64.0771H129.928L127.02 78.4729C126.604 80.1181 124.111 82.1747 122.033 82.1747C120.371 82.1747 120.787 79.1584 121.202 77.6503L124.111 64.0771H117.878L115.801 75.1824C115.385 77.6503 112.892 82.586 110.399 82.1747C107.906 81.7633 108.737 78.4729 110.815 72.3033C112.892 66.1337 109.568 63.6658 106.659 63.2545C104.333 62.9255 101.812 65.0369 100.842 66.1337V64.0771H94.6096L91.7011 78.4729C89.8431 81.2249 84.779 83.9716 82.1443 82.586C80.0686 81.4943 80.0668 78.8842 80.4823 77.239C83.1138 76.8277 88.7925 74.9356 90.4545 70.6581C92.5321 65.3111 88.377 63.2545 86.7149 63.2545C85.0529 63.2545 81.3133 63.6658 77.5737 67.7789C74.582 71.0694 73.8341 77.3761 73.8341 80.1181C71.7721 83.2224 70.5891 84.1668 68.4324 84.6425L73.0031 64.0771H66.3549L63.0308 79.2955C62.4527 80.9728 60.7212 83.305 59.2912 82.586C58.0693 81.9715 58.1832 79.981 58.4602 78.8842L61.7843 63.6658ZM82.1443 69.4241C81.1471 71.3984 80.8978 74.0856 80.8978 75.1824C81.4518 75.1824 82.7985 75.0018 83.8064 74.3598C85.5109 73.2742 85.9982 72.4079 86.715 70.6581C87.6254 68.4355 87.1305 65.7224 86.2994 65.7224C85.4684 65.7224 83.3909 66.9563 82.1443 69.4241ZM59.2912 93.6912C61.0032 92.7916 61.0918 89.9895 60.9533 88.7556C59.8044 89.0877 57.1915 90.5028 56.7982 91.6347C56.3951 92.7946 57.0405 94.8739 59.2912 93.6912ZM156.521 68.1902L157.352 79.2955C157.629 80.6665 157.352 83.3263 154.028 82.9973C150.704 82.6682 150.427 80.9407 150.704 80.1181C151.396 80.3923 152.947 80.6117 153.612 79.2955C154.277 77.9793 153.335 76.8277 152.781 76.4164L156.521 68.1902Z" fill="#D5B244"/>
<path d="M122.449 54.2058C123.734 54.3646 126.145 55.4784 125.773 57.9075C125.333 60.7831 123.28 61.198 122.033 61.198C120.787 61.198 118.813 59.9615 118.709 57.9075C118.596 55.6744 121.079 54.1113 122.449 54.2058Z" fill="#D5B244"/>
</svg>
