<svg width="186" height="150" viewBox="0 0 186 150" fill="none" xmlns="http://www.w3.org/2000/svg">
<path d="M138 75C138 99.8528 117.853 120 93 120C68.1472 120 48 99.8528 48 75C48 50.1472 68.1472 30 93 30C117.853 30 138 50.1472 138 75Z" fill="#F9FAFC"/>
<path d="M70 50.9999L93 73.9999M93 73.9999L116 96.9999M93 73.9999L70 96.9999M93 73.9999L116 50.9999M138 75C138 99.8528 117.853 120 93 120C68.1472 120 48 99.8528 48 75C48 50.1472 68.1472 30 93 30C117.853 30 138 50.1472 138 75Z" stroke="#2B2727" stroke-width="3" stroke-linecap="round" stroke-linejoin="round"/>
</svg>
