<svg width="186" height="150" viewBox="0 0 186 150" fill="none" xmlns="http://www.w3.org/2000/svg">
<g clip-path="url(#clip0_461_63175)">
<path d="M155.218 75C155.218 109.362 127.362 137.218 93 137.218C58.6378 137.218 30.7817 109.362 30.7817 75C30.7817 40.6378 58.6378 12.7817 93 12.7817C127.362 12.7817 155.218 40.6378 155.218 75Z" fill="white"/>
<path d="M138.396 75H47.6042C47.6043 49.9287 67.9286 29.6045 92.9999 29.6045C118.071 29.6045 138.396 49.9287 138.396 75Z" fill="#DA251D"/>
<path fill-rule="evenodd" clip-rule="evenodd" d="M154.295 77.6459C153.781 86.8595 151.607 94.944 148.057 102.069C141.362 115.505 130.207 125.95 116.391 131.67C96.3655 139.962 73.5878 136.821 56.4582 124.149C53.5148 121.972 52.6219 121.038 50.2985 118.851L47.489 115.936C36.7526 103.586 31.1882 89.4877 31.8138 72.1658C32.268 59.5891 36.9718 47.6833 43.8882 38.3715C46.2507 35.1909 48.4993 32.8618 51.1045 30.2727C51.6683 29.7123 52.4379 29.0719 53.0854 28.5171C55.447 26.4935 57.0004 25.3443 59.6931 23.5464C77.2228 11.8422 101.184 10.4913 120.158 19.9783C133.3 26.549 144.257 37.8112 149.752 51.6491C152.83 59.3971 154.82 68.2503 154.295 77.6459ZM89.6757 12.7822H95.6066C99.2235 12.9311 102.794 13.3452 105.855 13.996C113.946 15.7165 122.442 19.1819 129.069 24.1466C131.214 25.7527 133.264 27.3636 135.235 29.1864L138.038 31.8605C138.425 32.2425 138.55 32.4902 138.906 32.8601C139.54 33.5182 140.138 34.1129 140.683 34.8182L143.174 37.9299C143.442 38.3017 143.646 38.6486 143.937 39.0339C145.552 41.169 146.991 43.5743 148.194 45.9818C148.426 46.446 148.582 46.7638 148.816 47.228L149.401 48.3853C149.784 49.2307 150.163 50.0603 150.553 50.9687C151.713 53.6756 152.667 56.3302 153.332 59.2696C154.149 62.8775 154.617 65.0035 155.021 68.7854C155.173 70.2002 155.23 71.6998 155.249 73.2081V77.7704C155.249 83.7715 153.435 91.3542 151.41 96.8387C150.859 98.3289 149.896 100.857 149.145 102.168C148.666 103.004 148.288 103.789 147.823 104.705C146.623 107.071 144.214 110.797 142.579 112.783C141.148 114.522 139.774 116.285 138.227 117.892L134.367 121.627C133.127 122.822 131.469 124.118 130.1 125.079C129.36 125.598 128.694 126.102 127.91 126.624C127.46 126.923 127.138 127.099 126.688 127.394L120.642 130.81C119.853 131.265 119.026 131.628 118.114 132.017C115.36 133.193 112.593 134.271 109.684 135.041C102.293 136.995 97.158 137.39 89.1366 137.16L82.2211 136.357C77.5909 135.524 70.21 133.4 66.0233 131.141C63.9535 130.024 61.7873 128.939 59.8103 127.643C58.2309 126.608 56.6338 125.629 55.1813 124.428L49.021 119.01C48.6587 118.648 48.3891 118.375 48.0244 118.015C47.617 117.612 47.4655 117.34 47.0938 116.954C44.5121 114.272 42.3962 111.238 40.3385 108.147C39.8246 107.375 39.358 106.604 38.886 105.74L35.072 97.8509C33.0894 93.1426 31.8885 87.4566 31.1756 82.3255L30.8705 78.7711C30.8571 77.4263 30.7509 76.4507 30.7509 75.0314C30.7509 70.4306 31.2742 65.7531 32.2943 61.2616C33.0039 58.1371 33.7938 55.3405 34.948 52.4614C35.6356 50.7464 36.9709 47.5421 37.919 45.9705C39.1843 43.8729 39.9976 42.245 41.4572 40.0469C42.9458 37.8051 44.6373 35.5808 46.4672 33.603C48.3006 31.6215 50.1905 29.6678 52.2523 27.9342C52.6487 27.6008 52.8881 27.3506 53.3137 27.0036C56.312 24.5587 60.0481 21.8352 63.493 20.1267L69.932 17.1038C70.4346 16.9035 70.7554 16.7842 71.283 16.5873C75.2103 15.1211 79.1004 14.1358 83.3064 13.4219C85.2651 13.0895 87.4283 12.8788 89.6757 12.7822Z" fill="#1E1916"/>
<path fill-rule="evenodd" clip-rule="evenodd" d="M48.5117 75.0431C48.6357 73.1784 48.5948 71.4261 48.8052 69.5534C49.3044 65.1106 50.564 60.2397 52.3877 56.3325C55.9 48.808 61.1439 42.2849 67.6637 37.8663C75.1366 32.8019 83.5164 29.8534 93.249 29.8676C112.004 29.895 127.223 41.3016 134.011 56.4308C136.654 62.321 137.638 67.7986 137.826 75.0583C138.146 80.6667 135.989 88.2295 133.745 93.2425C131.395 98.49 127.92 103.022 124.621 106.28C106.945 123.738 78.66 123.39 61.6494 106.258C55.9866 100.555 51.7369 93.457 49.6967 84.9861C49.1488 82.7112 48.2072 77.4375 48.5117 75.0431ZM138.702 77.0234C140.224 51.0853 119.808 30.2236 95.7423 28.9847C69.6433 27.6412 48.9107 47.7023 47.649 72.0407C46.3023 98.0166 66.3069 118.68 90.7074 120.036C106.043 120.889 120.521 113.926 129.554 101.999C134.861 94.9923 138.148 86.4491 138.702 77.0234Z" fill="#201A18"/>
<path fill-rule="evenodd" clip-rule="evenodd" d="M152.824 77.5211C151.485 109.733 124.281 136.07 90.3518 134.717C58.2966 133.439 31.529 105.988 33.153 72.1954C33.7661 59.4369 37.9429 48.6685 44.9181 39.1489C46.0404 37.6173 47.1476 36.4004 48.265 35.0266L52.0276 31.1976C55.6072 28.0982 55.8049 27.6364 60.3993 24.6286C77.8132 13.2281 100.766 11.777 119.503 21.1404C123.659 23.2175 127.476 25.6973 130.855 28.4619L132.861 30.1896C133.852 30.9876 137.66 34.8663 138.475 35.9028C140.411 38.3635 141.331 39.3346 143.265 42.3185C145.09 45.1327 147.086 48.6866 148.409 52.1156C151.507 60.1474 153.227 67.8353 152.824 77.5211ZM90.8477 14.6899C81.4077 15.0533 74.2121 17.2355 66.7515 20.6438C63.6438 22.0635 59.7273 24.4781 57.3572 26.3142C53.4074 29.3741 52.8482 29.836 49.3678 33.3906C40.2974 42.6542 32.1313 58.1495 32.8045 77.0253C33.1194 85.8542 35.3586 94.1043 38.7372 101.035C40.9062 105.485 43.189 108.95 46.0073 112.564C47.3689 114.31 49.8811 117.052 51.4262 118.471C56.8086 123.417 62.5912 127.547 69.6294 130.402C111.217 147.273 154.671 116.205 153.177 72.6605C152.065 40.2599 124.649 13.3885 90.8477 14.6899Z" fill="#2A2522"/>
<path fill-rule="evenodd" clip-rule="evenodd" d="M90.0736 27.9437C117.005 26.4444 138.115 46.6945 139.803 71.5406C141.627 98.409 120.849 119.889 96.1163 121.438C69.1841 123.125 47.8788 102.515 46.3037 77.6523C44.6182 51.0468 65.2597 29.325 90.0736 27.9437ZM90.593 27.5827C80.6569 28.199 72.0516 31.4257 64.6777 36.9967C62.997 38.2665 59.7918 41.085 58.4506 42.5978C50.135 51.9764 45.1709 63.6458 45.9514 77.2739C47.4083 102.713 68.5189 122.885 95.6091 121.793C108.247 121.284 119.409 115.47 127.672 106.714C134.776 99.1862 141.023 86.9031 140.162 72.0385C139.776 65.3772 138.103 59.2104 135.215 53.4848C132.633 48.3667 131.12 46.7539 128.009 43.0113C127.518 42.4207 127.245 42.149 126.542 41.4901C124.416 39.4973 124.311 39.281 121.862 37.3281C118.672 34.784 114.498 32.4639 110.62 30.8928C104.742 28.5113 97.6307 27.1462 90.593 27.5827Z" fill="#2A2522"/>
<path fill-rule="evenodd" clip-rule="evenodd" d="M125.521 79.5136C122.953 79.6575 120.443 79.224 117.936 79.0215L116.924 78.9352L113.219 78.9712L112.585 79.0324C110.964 79.2647 109.492 79.4341 107.932 79.7542C106.425 80.0636 104.854 80.6682 103.454 80.9349L102.549 81.2574L102.26 81.3275L101.46 81.64L100.879 81.8468L100.647 81.9099C99.8527 82.5232 95.246 84.0809 93.8557 84.4742C90.1446 85.5243 88.6038 85.0549 85.5316 84.3255C85.6658 84.7599 85.8002 84.9804 86.0606 85.3307C86.3366 85.7021 86.5839 85.8387 86.7994 86.185C86.995 86.1899 86.9529 86.1363 86.9515 86.3199L88.1022 86.9895L88.8026 87.2185L89.0747 87.2122C91.0585 87.4682 92.2681 87.0539 94.0081 86.7134L100.703 84.4674C106.242 82.543 110.089 81.301 116.037 81.8803C118.799 82.1493 121.305 82.7562 124.194 82.747L125.769 82.6002C126.662 82.2926 127.08 82.2859 127.904 81.7993C128.68 81.3418 129.008 80.918 129.623 80.5458C129.823 80.1294 131.506 78.2737 131.826 76.7999C129.873 78.3086 128.886 79.3965 125.521 79.5136Z" fill="#0093DD"/>
<path fill-rule="evenodd" clip-rule="evenodd" d="M64.6546 69.912C65.0693 70.2148 67.7001 73.3271 67.9694 73.9167C68.3419 74.2513 68.8658 74.8675 69.0626 75.3061C69.527 75.6681 70.1709 76.6503 70.598 77.1395C71.5275 78.204 72.8736 79.8759 74.2607 80.4521C75.0005 80.7595 76.3403 80.892 76.8815 80.26C76.0769 79.7259 76.1744 80.0884 74.6015 78.8617C74.1632 78.5199 72.9294 77.3231 72.7121 76.9398C72.4601 76.786 72.5608 76.8961 72.344 76.638C72.2127 76.4817 72.1954 76.413 72.1115 76.2514C71.7256 75.9371 71.3252 75.543 71.0984 75.0314C70.6093 74.6141 69.7369 73.3933 69.317 72.8166C68.7903 72.0931 68.2327 71.3793 67.689 70.5874L67.4943 70.2869C67.0635 69.903 66.5468 69.0807 66.1659 68.6236C64.5224 66.651 63.827 66.062 61.1186 64.8291C58.4324 63.6063 55.901 61.9266 55.2826 58.9108C55.0493 59.0866 55.0468 59.1947 55.0067 59.3482C54.9756 59.4674 54.969 59.8232 54.9672 59.9606C54.9619 60.3568 54.9581 60.8187 54.9955 61.2102C55.3473 64.891 58.9037 65.421 61.905 67.4014C62.6038 67.8625 64.1834 69.1844 64.6546 69.912Z" fill="#0093DD"/>
<path fill-rule="evenodd" clip-rule="evenodd" d="M79.9248 76.9016C79.2367 77.6677 78.451 77.9694 77.9811 79.2185C78.697 79.015 79.8914 78.1895 80.995 77.8302C82.1396 77.4577 83.7578 77.108 84.9998 77.4924L85.7821 77.7415C88.3369 78.3097 89.4987 81.614 89.8626 81.966C90.0741 80.3467 89.6007 79.445 89.1221 78.24L88.7805 77.7521C88.4773 77.5071 88.0574 77.0898 87.749 76.8051C86.3122 76.1398 85.8035 75.7316 83.7824 75.7898C83.0484 75.811 82.3084 75.9631 81.6803 76.1626C81.0112 76.375 80.4575 76.7489 79.9248 76.9016Z" fill="#0093DD"/>
<path fill-rule="evenodd" clip-rule="evenodd" d="M56.199 112.067L55.3106 114.399C54.8395 114.189 54.1564 113.483 53.8582 112.965L56.199 112.067ZM50.5606 107.401C51.1342 106.841 52.3059 105.971 52.9115 105.576C55.2248 107.184 51.7223 110.115 50.5606 107.401ZM46.7806 99.3316C48.1015 99.1652 48.75 99.1225 49.1676 100.304C48.9454 100.549 44.4551 103.501 43.6569 103.538L43.0978 102.999C43.231 103.546 43.6244 104.045 43.9393 104.547C44.2893 105.103 44.5497 105.713 44.9898 106.046C44.6929 104.763 44.8687 105.036 47.1236 103.608C47.7348 103.22 49.6501 101.922 50.1836 101.789C51.2098 103.927 50.3673 103.146 49.9943 104.419C50.6896 104.171 51.162 103.675 51.4613 103.641C51.7324 103.611 51.4878 103.574 51.6698 103.68C52.362 104.316 50.2254 105.573 49.2395 106.342C46.0896 108.8 47.3184 107.951 46.1123 107.581C46.1699 107.907 47.9398 110.204 48.2923 110.363C48.0316 109.197 47.7598 109.54 48.7899 108.757C49.3065 108.365 50.0503 107.592 50.3217 107.886C50.7167 108.74 48.9359 111.236 49.477 112.069C49.8701 112.675 51.8262 114.747 52.3841 114.888C52.227 114.417 51.8083 114.289 52.1916 113.788C52.3739 113.55 53.0297 113.296 53.4095 113.236L55.1064 114.831C54.9788 115.39 54.7513 116.011 54.4055 116.364C53.9638 116.345 53.9657 116.258 53.5944 116.087C53.7484 116.357 55.4719 118.236 56.0197 118.392C55.561 116.816 57.7858 113.169 58.3976 110.73C56.1822 111.14 52.7188 113.742 50.6883 113.253C50.5226 112.285 51.4033 110.436 51.6021 109.445C52.4065 109.691 52.8937 110.156 53.8439 109.586C56.0791 108.246 53.5532 105.662 52.7262 104.6C51.3606 102.846 51.8471 103.661 50.5097 101.585C49.8068 100.494 49.2013 99.3482 48.4295 98.2986C47.8919 98.3717 47.0304 98.891 46.7806 99.3316Z" fill="#201A18"/>
<path fill-rule="evenodd" clip-rule="evenodd" d="M98.5007 127.196C99.0436 126.65 99.5933 126.164 100.12 125.601C100.635 125.049 101.853 123.493 102.321 124.967C102.649 125.997 103.537 130.086 103.461 130.703C101.967 131.484 101.985 130.883 100.663 129.619C100.259 129.232 98.6688 127.542 98.5007 127.196ZM103.858 124.083C104.333 123.806 105.284 123.628 105.883 123.776C106.736 123.987 106.638 124.627 107.26 124.996L106.805 122.964C105.422 123.066 102.687 123.965 101.089 124.223C100.454 124.326 99.7147 124.253 99.1189 124.457C99.3199 124.637 100.211 124.611 99.67 125.382L97.0145 127.963C96.7027 123.706 96.7715 125.661 97.5137 124.557L94.1896 124.831C94.3686 124.954 94.1185 124.821 94.4745 124.979L95.0206 125.168C95.2241 125.91 95.527 129.553 95.5934 130.688C95.6512 131.678 95.5525 131.532 94.771 131.802L94.932 131.878C94.9573 131.885 94.9941 131.899 95.0238 131.905C95.2584 131.95 97.8844 131.781 98.1611 131.553C97.3316 131.162 97.3391 131.607 97.2216 130.311L97.1162 128.83C97.2382 128.091 97.4374 128.528 97.8493 128.942C98.3575 129.453 99.3928 130.497 99.6258 131.101L99.1198 131.553C102.207 131.598 105.526 130.512 108.5 129.867C108.599 129.385 108.512 128.031 108.313 127.62C107.943 128 108.139 128.861 107.439 129.434C106.992 129.8 106.115 130.129 105.323 130.045C105.052 129.606 104.625 127.914 104.612 127.252C105.59 127.112 105.767 127.474 106.11 128.018L106.535 128.469L105.699 124.947C105.318 125.413 105.917 126.661 104.456 126.821L103.858 124.083Z" fill="#201A18"/>
<path fill-rule="evenodd" clip-rule="evenodd" d="M76.4717 122.091C77.253 122.602 77.3486 122.399 77.0243 123.535C76.7043 124.655 75.8129 128.039 75.4243 128.66L74.6301 128.804C74.6113 128.774 74.5606 128.826 74.5344 128.833L77.6971 129.58C77.2624 129.168 77.3344 129.401 77.2614 129.03C77.2073 128.756 77.7092 126.777 78.0602 126.423C78.394 126.597 78.1355 126.332 78.3793 126.759L78.8284 127.922C79.046 128.475 79.3284 129.016 79.3633 129.686L78.7867 130.051L82.2078 130.997C82.1873 130.966 82.1575 130.929 82.1402 130.907L81.9383 130.666C81.0732 129.717 80.0268 126.836 79.6864 125.705L83.7885 124.038C83.3312 123.913 81.57 123.258 81.231 123.461C81.713 123.817 81.546 123.448 81.8091 123.959C81.86 124.555 78.2861 125.868 78.0933 125.908C78.1877 125.345 78.4224 124.658 78.5857 124.1C79.0389 122.55 78.9845 123.396 79.7243 122.963C79.4268 122.725 77.7851 122.326 77.2356 122.165C76.8119 122.042 76.7267 121.953 76.4717 122.091Z" fill="#201A18"/>
<path fill-rule="evenodd" clip-rule="evenodd" d="M123.133 115.021C124.443 114.781 124.39 115.046 125.037 115.952C125.466 116.553 126.052 117.251 126.356 117.868C125.289 117.711 123.593 117.097 122.475 116.764C121.645 116.517 121.315 116.225 120.696 116.664C120.339 116.918 119.456 117.471 119.212 117.911C120.627 117.56 120.512 117.966 122.137 120.218C124.541 123.551 123.633 122.281 123.3 123.539C123.655 123.392 123.989 123.111 124.301 122.89C124.534 122.725 124.627 122.671 124.818 122.533C125.243 122.224 125.189 122.402 125.199 122.024C124.625 122.326 124.256 122.42 123.819 121.898L121.218 118.181L128.409 120.174C128.25 119.583 125.798 116.324 125.146 115.465C124.214 114.235 124.75 114.562 124.966 113.664C124.499 113.819 123.382 114.629 123.133 115.021Z" fill="#201A18"/>
<path fill-rule="evenodd" clip-rule="evenodd" d="M56.2695 118.595C56.4643 118.961 57.7881 119.91 58.2415 120.069C57.8327 119.013 57.2672 119.601 58.8933 117.366C59.4857 116.551 60.1093 115.591 60.7083 114.909L61.0394 122.403C61.5099 122.304 62.9499 120.041 63.3106 119.543C64.7413 117.57 64.8149 116.89 66.1369 117.222C65.9938 116.89 66.1758 117.113 65.7976 116.8C65.4818 116.54 64.6679 115.912 64.2807 115.888C65.0733 116.83 64.6325 117.067 63.9829 117.975C63.7799 118.259 62.8194 119.683 62.5653 119.799C62.4798 118.351 62.4628 116.817 62.4392 115.363C62.422 114.312 62.4351 114.341 61.7532 113.87C61.3474 113.59 60.8521 113.129 60.3594 112.964C60.7958 113.948 61.004 113.86 60.3099 114.799C59.8976 115.357 59.5775 115.798 59.1592 116.387C58.7872 116.911 58.4322 117.375 58.0603 117.903C57.3417 118.922 57.5353 118.827 56.2695 118.595Z" fill="#201A18"/>
<path fill-rule="evenodd" clip-rule="evenodd" d="M107.375 122.702C107.408 122.725 107.455 122.737 107.485 122.748C108.133 122.986 108.165 122.843 108.387 123.268C109.525 125.446 109.314 129.918 113.104 128.505C115.835 127.487 114.507 124.909 113.666 122.467C113.025 120.605 113.715 121.121 114.022 120.495C113.592 120.588 113.239 120.733 112.821 120.871L112.007 121.182C111.805 121.313 111.938 121.203 111.792 121.377C112.868 121.284 112.907 121.544 113.204 122.431C113.884 124.46 115.118 126.694 113.659 127.685C112.026 128.795 111.464 127.096 111.066 125.929C110.771 125.065 109.938 123.036 109.963 122.213C110.349 121.873 110.538 121.984 110.628 121.63L107.375 122.702Z" fill="#201A18"/>
<path fill-rule="evenodd" clip-rule="evenodd" d="M62.7106 123.212C62.7408 123.229 62.7864 123.234 62.8115 123.24C64.4575 123.605 63.2903 123.42 64.3107 124.265C66.3309 125.938 69.0216 124.164 67.9194 121.769C67.6092 121.095 65.74 118.868 66.9979 118.246C67.7412 117.879 68.4417 118.492 68.6804 118.898C69.1585 119.712 68.9526 120.188 68.8634 121.079C69.2601 120.921 70.0276 119.288 70.0855 119.013C68.955 119.418 69.4628 118.998 68.6038 118.224C66.7818 116.583 64.0886 118.518 65.5084 121.075C65.8248 121.644 66.3222 122.266 66.5289 122.814C67.1785 124.536 64.9953 125.087 64.1709 123.408C63.7438 122.539 63.9648 121.936 64.116 121.061C63.6134 121.277 62.9446 122.738 62.7106 123.212Z" fill="#201A18"/>
<path fill-rule="evenodd" clip-rule="evenodd" d="M82.6813 131.154C83.1342 130.986 83.039 130.747 83.5682 130.893C83.8205 130.962 85.3732 132.097 86.7539 131.158C87.2672 130.808 87.7273 130.235 87.7501 129.429C87.7908 127.993 86.4222 127.322 85.3645 126.49C83.4245 124.962 85.5463 123.707 86.7801 124.947C87.0037 125.172 87.1983 125.411 87.3303 125.767L87.6465 126.682C87.9282 126.139 87.9381 125.093 87.9452 124.421L87.6824 124.625C87.3578 124.786 87.2676 124.711 86.9582 124.532C86.6549 124.357 86.4545 124.182 86.0096 124.088C85.0547 123.887 84.399 124.187 83.914 124.707C81.8698 126.9 85.7311 128.635 86.2616 129.454C87.1147 130.772 85.1788 132.046 83.796 130.298C83.3433 129.726 83.314 128.779 83.0184 128.491L82.6813 131.154Z" fill="#201A18"/>
<path fill-rule="evenodd" clip-rule="evenodd" d="M134.287 114.123C133.986 113.707 133.619 113.47 133.324 113.139C132.652 112.384 133.081 112.508 133.192 111.794C132.771 111.969 131.038 113.763 130.761 114.097C131.461 114.013 131.361 113.498 132.106 114.235C132.46 114.585 132.891 114.934 133.102 115.431C132.703 115.866 132.701 116.155 132.112 116.511C129.937 117.824 125.876 113.359 127.88 111.405C128.982 110.33 129.881 110.815 131.231 111.11C131.118 110.584 130.115 109.78 129.602 109.287L129.556 109.464C129.526 109.59 129.533 109.637 129.493 109.758C129.364 110.15 129.682 109.883 129.158 110.198C128.888 110.36 128.513 110.429 128.141 110.671C123.952 113.395 127.461 119.474 131.617 117.386C132.56 116.913 133.981 115.322 134.287 114.123Z" fill="#201A18"/>
<path fill-rule="evenodd" clip-rule="evenodd" d="M136.873 100.022C137.543 99.7367 137.236 99.0824 138.967 100.153C139.515 100.493 140.504 101.032 140.915 101.425C140.288 101.763 137.757 101.817 136.817 101.904C135.737 102.003 135.641 101.796 135.156 102.623C134.872 103.105 134.439 103.58 134.292 104.158C135.628 103.581 135.093 103.427 137.75 105.104C140.609 106.909 140.345 106.365 140.203 107.866C140.521 107.651 141.383 106.235 141.557 105.785C140.295 106.318 141.066 106.716 138.863 105.363C138.076 104.88 137.091 104.171 136.297 103.802C136.649 103.495 137.346 103.511 137.946 103.45C138.978 103.345 143.197 102.964 143.649 102.794C143.529 102.439 143.713 102.716 143.386 102.457C143.278 102.372 143.08 102.276 142.993 102.226C142.692 102.05 142.537 101.945 142.227 101.749C141.676 101.4 141.201 101.106 140.623 100.74C140.126 100.425 139.6 100.108 139.083 99.7875C138.303 99.3037 137.924 99.2666 138.123 98.1313C137.762 98.3466 138.097 98.0964 137.865 98.3354L136.873 100.022Z" fill="#201A18"/>
<path fill-rule="evenodd" clip-rule="evenodd" d="M134.985 110.625C134.606 110.318 133.96 108.969 133.812 108.336L136.173 109.144C135.975 109.465 135.226 110.387 134.985 110.625ZM135.389 113.7C135.76 113.63 135.867 113.348 136.228 112.906C136.518 112.553 136.842 112.356 136.875 111.956C136.58 112.084 136.327 112.53 135.839 112.252C135.581 112.105 135.212 111.449 135.18 111.202C135.14 110.899 136.426 109.476 136.699 109.259L138.212 109.731C138.221 110.195 138.09 110.336 137.945 110.648C138.497 110.438 138.784 109.831 139.119 109.448C139.427 109.095 140.081 108.468 140.113 108.095C138.812 108.435 138.145 107.994 136.299 107.428C135.047 107.043 133.525 106.481 132.303 106.242C132.54 107.117 133.618 109.012 134.066 109.906C134.623 111.018 135.57 112.302 135.389 113.7Z" fill="#201A18"/>
<path fill-rule="evenodd" clip-rule="evenodd" d="M117.093 121.4C117.558 121.84 118.491 122.545 119.015 122.943C118.698 123.427 117.843 123.75 117.244 123.969L117.093 121.4ZM116.585 127.024C117.008 126.955 118.383 126.24 118.612 125.937C117.469 125.952 117.264 126.149 117.309 124.432L119.394 123.344C121.462 124.301 120.301 124.786 120.167 125.203L123.045 123.732L122.458 123.485C121.389 123.12 117.64 119.481 116.461 118.94L116.955 125.329C117.023 126.599 116.805 126.321 116.585 127.024Z" fill="#201A18"/>
<path fill-rule="evenodd" clip-rule="evenodd" d="M70.1182 124.457C70.3443 124.109 71.5317 122.893 71.9327 122.715L71.9381 125.247L70.1182 124.457ZM69.0987 126.445C68.7267 126.028 68.7618 125.993 68.9075 125.662C69.013 125.422 69.5436 124.948 69.7311 124.79L71.9782 125.654C71.9857 127.761 72.0142 127.399 71.2122 127.429L74.0947 128.692C73.9022 128.244 73.8457 128.484 73.6991 127.928C73.6296 127.664 73.6168 127.223 73.6086 126.945L73.4906 120.686C73.1184 120.687 72.3017 121.661 71.9732 121.981L69.0966 124.83C68.3407 125.688 67.4434 125.941 67.4249 125.909C67.4088 125.881 67.36 125.932 67.3139 125.996L69.3843 126.754L69.0987 126.445Z" fill="#201A18"/>
<path fill-rule="evenodd" clip-rule="evenodd" d="M88.6655 124.581C89.7844 125.171 89.6068 124.445 89.2923 128.07C88.9189 132.373 89.0935 130.851 88.0823 131.581L91.5437 131.84C91.5152 131.817 91.4744 131.794 91.4518 131.78L90.7922 131.411C90.6385 130.604 91.1077 125.699 91.3523 125.054C91.6695 124.968 91.9819 124.995 92.1906 124.83C91.981 124.728 89.0365 124.363 88.6655 124.581Z" fill="#201A18"/>
<path fill-rule="evenodd" clip-rule="evenodd" d="M146.578 83.7459C146.971 84.0571 148.097 84.0244 148.714 84.0435C148.689 84.0126 148.647 83.9339 148.635 83.9556C148.628 83.9689 148.265 83.6689 148.511 83.1282C148.655 82.8113 148.807 82.6842 148.921 82.2856C149.545 80.1016 147.199 78.09 145.283 80.7504C144.953 81.209 144.551 81.9285 144.207 82.2883C142.951 83.601 141.621 81.5736 143.059 80.146C143.63 79.5793 144.148 79.5815 144.555 79.409C144.739 79.331 144.745 79.3223 144.823 79.2639C144.204 78.9774 143.162 78.9596 142.425 78.91C142.552 79.4865 142.784 79.1565 142.643 79.8391C142.565 80.2165 141.599 81.4435 142.378 82.9172C143.147 84.3714 144.783 84.2287 145.699 83.0347C146.164 82.4275 147.275 80.0604 148.279 80.8724C148.857 81.3403 148.663 82.2514 148.283 82.7552C147.601 83.6574 147.244 83.3067 146.578 83.7459Z" fill="#201A18"/>
<path fill-rule="evenodd" clip-rule="evenodd" d="M145.027 69.0297L142.545 69.0384C143.006 70.1812 143.059 68.8401 142.644 70.8609C142.118 73.4154 144.881 75.1064 146.343 72.7199C146.849 71.8939 147.531 69.3585 148.708 70.2402C149.414 70.7685 149.11 72.2564 148.263 72.776C147.991 72.9427 147.636 73.0087 147.351 73.3564L149.49 73.2847C149.174 72.9206 149.036 73.106 149.15 72.4585C149.211 72.115 150.023 70.6675 148.849 69.4819C147.854 68.4773 146.453 68.8698 145.627 70.5148C145.33 71.1039 145.095 71.7866 144.729 72.2283C143.321 73.9271 141.81 70.7035 144.137 69.5205C144.593 69.2888 144.747 69.3866 145.027 69.0297Z" fill="#201A18"/>
<path fill-rule="evenodd" clip-rule="evenodd" d="M146.461 56.9953C145.56 57.3144 141.592 58.644 140.808 58.5778L140.358 57.8523C140.416 59.3336 141.733 62.1258 142.017 63.7621L143.797 63.4685C144.241 63.3553 144.186 63.3193 144.271 63.2037C143.406 62.9328 142.792 63.1507 142.25 62.5197C141.905 62.1189 141.489 61.1409 141.581 60.35L146.358 58.7933C147.268 58.576 147.155 58.9419 147.53 59.5101C147.682 59.2544 146.8 56.4148 146.534 56.0316L146.461 56.9953Z" fill="#201A18"/>
<path fill-rule="evenodd" clip-rule="evenodd" d="M140.194 51.7017L142.593 51.6793C142.486 52.0082 141.274 53.3143 141.056 53.4647L140.194 51.7017ZM138.317 52.8257C138.575 52.2761 137.487 51.6142 139.687 51.6744C139.973 51.9785 140.605 53.3949 140.749 53.8663C139.607 55.645 139.469 54.7715 139.068 54.4047C139.109 54.7844 140.203 57.1644 140.434 57.4157C140.577 57.1465 140.458 56.9517 140.709 56.5096C141.043 55.9229 144.02 52.6457 144.68 51.7586C144.952 51.392 144.857 51.7081 144.897 51.2912L138.935 51.2679C137.746 51.2274 138.013 51.0591 137.329 50.7725C137.445 51.2349 138.023 52.5565 138.317 52.8257Z" fill="#201A18"/>
<path fill-rule="evenodd" clip-rule="evenodd" d="M37.4318 82.1969C37.3895 81.0875 37.5773 80.6521 38.6039 80.5127C39.6556 80.3699 40.1759 80.7873 40.2488 81.7539C39.9012 81.9759 39.4389 81.9728 38.9952 82.0246C38.4958 82.0828 37.9545 82.1571 37.4318 82.1969ZM37.4737 84.7855C37.9972 83.705 36.5216 83.9259 40.4554 83.4595C41.0835 83.385 41.6947 83.2987 42.3282 83.2232C43.6964 83.0603 43.3267 83.1258 43.8231 83.9702C43.8354 83.9471 43.8467 83.8807 43.8485 83.8961C43.8504 83.9118 43.8684 83.8348 43.8704 83.8191L43.8547 83.2389C43.7668 82.5428 43.6553 80.9293 43.4496 80.5593L43.2618 81.4293C42.6354 81.5975 41.4231 81.7835 40.7106 81.7673C40.3125 80.8388 40.6121 80.1806 39.8589 79.3698C39.2855 78.7526 38.2937 78.5834 37.5737 79.239C36.8919 79.86 36.9134 80.8471 37.0315 81.9419C37.0916 82.4997 37.2465 84.4643 37.4737 84.7855Z" fill="#201A18"/>
<path fill-rule="evenodd" clip-rule="evenodd" d="M40.7348 69.2713C41.0107 69.5551 40.8982 69.4613 41.7736 69.5798C42.2709 69.6472 42.6923 69.7364 43.1924 69.7053C42.655 68.4953 43.0289 68.9859 43.4038 67.8698C44.2084 65.475 41.7522 63.2902 39.8589 65.713C39.4073 66.2908 38.2587 68.647 37.2892 67.6246C36.6267 66.9261 37.1694 65.6701 38.1143 65.1988C38.4283 65.0422 38.8314 65.0151 39.0828 64.8221C38.6516 64.5483 37.6455 64.5479 37.0242 64.5224C37.2435 64.8983 37.395 64.9224 37.1816 65.3842C36.9107 65.9703 36.0609 67.2371 37.103 68.4315C39.0871 70.7056 40.9445 66.7736 41.5222 66.2568C42.676 65.2244 44.075 67.0116 42.5306 68.5103C41.8942 69.1278 41.5818 69.0244 40.7348 69.2713Z" fill="#201A18"/>
<path fill-rule="evenodd" clip-rule="evenodd" d="M36.4351 72.8489C36.4733 72.8186 36.4982 72.7291 36.5078 72.7493L36.8324 72.1449C37.2248 71.7198 39.2426 71.8993 39.8392 71.8994C41.2619 71.8997 42.565 71.9746 42.6853 73.4252C42.8601 75.5315 40.5774 75.0732 37.8407 75.0679C37.0117 75.0663 36.8826 75.0972 36.6642 74.6162L36.4363 77.5817C36.7389 77.3403 36.5011 76.9919 37.0174 76.7934C37.3688 76.6583 40.2967 76.7421 40.8413 76.7289C42.5075 76.6882 43.2308 75.7941 43.1922 74.0338C43.0953 69.6219 37.5779 72.5324 36.7228 71.0626L36.4654 70.5342L36.4351 72.8489Z" fill="#201A18"/>
<path fill-rule="evenodd" clip-rule="evenodd" d="M42.5551 59.8706C42.5421 60.2466 42.224 61.3912 41.9556 61.7416C41.8085 61.6636 40.4983 60.6166 40.3001 60.156L42.5551 59.8706ZM38.2374 58.8569C38.3906 59.1578 39.2156 59.8521 39.5303 60.1504C40.2699 60.8512 42.6931 62.9029 43.0967 63.4347C43.393 63.8251 43.3542 64.0837 43.6035 64.3751L44.2401 62.2039C43.8646 62.4357 43.9444 62.4859 43.7494 62.8583C42.9947 62.8925 42.6359 62.4867 42.3445 62.0832L42.8362 60.3639C43.0675 59.7105 43.5069 59.5132 44.5701 59.7223L44.7644 60.3865C44.772 60.4089 44.7826 60.4528 44.8006 60.4816L45.7189 57.3717C45.106 57.6534 45.6078 57.8015 44.1393 58.0292C42.642 58.2614 39.2798 58.5906 38.2374 58.8569Z" fill="#201A18"/>
<path fill-rule="evenodd" clip-rule="evenodd" d="M92.1094 21.6408C92.1724 21.3091 92.809 19.775 93.1658 19.4962L94.0543 21.6424L92.1094 21.6408ZM84.4083 18.2534C85.5865 18.0174 86.5136 18.1656 86.6593 19.3921C86.8234 20.7732 85.958 20.9994 84.7437 21.0837L84.4083 18.2534ZM87.0688 21.1067C87.6573 20.6402 88.2862 20.5294 88.3295 19.5048C88.3669 18.6186 87.7998 18.008 87.099 17.8141C86.4031 17.6216 82.3835 17.9737 81.8409 18.2598L82.7126 18.4525L83.4079 23.4988C83.5041 24.5866 83.3113 24.3132 82.5887 24.6395C82.8839 24.7853 85.7895 24.4415 86.0819 24.2357C85.3592 23.8862 85.1807 24.4928 85.008 23.2871C84.9318 22.7557 84.7833 21.943 84.8636 21.4571C85.5235 21.3704 85.8759 22.1312 86.2703 22.4994C86.7856 22.9805 87.2374 23.6008 87.6103 23.9012C88.0752 24.2759 89.0828 23.9175 89.7729 23.8756C90.431 23.8355 91.8878 24.128 92.308 23.7377L91.4959 23.5271C91.4055 22.8627 91.6851 22.4179 91.8684 22.0087L94.1204 22.0004C94.5627 22.2071 94.8101 22.9768 94.8186 23.4887L94.3639 23.7199C94.3358 23.734 94.299 23.7532 94.2732 23.7665L97.3708 23.8825C97.0844 23.4301 97.0747 23.7948 96.6999 23.2755L95.4424 20.6726C95.1602 20.0383 94.0644 17.4731 93.7469 17.1813C92.1071 19.2917 91.2019 25.4634 88.9986 23.1348C88.4315 22.5356 87.522 21.718 87.0688 21.1067Z" fill="#201A18"/>
<path fill-rule="evenodd" clip-rule="evenodd" d="M110.363 26.4291C110.352 25.8565 111.997 21.335 112.297 21.0233C114.132 21.6358 114.149 23.0133 113.508 24.6964C113.047 25.9061 111.91 27.6476 110.363 26.4291ZM108.597 25.8569L107.815 25.9431L109.622 26.6606C111.566 27.3604 114.346 28.1893 115.308 25.1305C115.913 23.2077 115.058 22.0344 113.955 21.3336C113.36 20.9555 110.516 19.8443 109.847 19.7857C110.523 20.6301 110.981 19.4802 109.843 22.6431C109.525 23.5271 109 25.1826 108.597 25.8569Z" fill="#1F1A17"/>
<path fill-rule="evenodd" clip-rule="evenodd" d="M75.625 22.3682C75.1015 19.0448 78.8448 18.3372 79.5726 23.2387C79.809 24.8303 78.9149 26.3809 77.3737 25.6773C76.4627 25.2614 75.8227 23.6237 75.625 22.3682ZM77.3826 19.3638C75.4063 19.7284 73.7342 20.8064 73.9294 23.117C74.0949 25.077 75.7875 26.5811 78.0396 26.202C83.1363 25.3441 81.5944 18.5868 77.3826 19.3638Z" fill="#1F1A17"/>
<path fill-rule="evenodd" clip-rule="evenodd" d="M47.9072 39.4257C48.8598 39.0006 48.5113 38.4107 50.9225 40.7925C52.9038 42.7497 53.2911 42.3254 52.7386 43.683C53.39 43.3378 56.0487 40.0272 56.7412 39.4038L55.8043 38.1486C55.5141 37.8084 55.7891 37.8741 55.3208 37.8176C55.9067 39.267 55.6606 40.1135 54.7729 41.0433C54.238 41.6035 53.9501 41.3371 53.4684 40.8588C53.1073 40.5002 52.5487 40.1734 52.2576 39.6735C53.016 38.6653 53.4964 39.3947 54.3953 39.5677C54.2447 39.2884 53.548 38.671 53.2145 38.376C52.9641 38.1544 52.7771 38.0317 52.5384 37.8067C52.1528 37.4432 52.3193 37.4082 51.791 37.2581C52.0978 37.993 52.7218 38.4689 51.9898 39.3681C51.5533 39.3049 51.3248 38.957 50.9825 38.6162C50.6223 38.2575 50.3522 38.118 49.9706 37.6815C50.1857 37.2299 50.6794 36.6986 51.1458 36.4151C52.1633 35.7966 52.3098 36.3633 53.1431 36.432C53.0095 36.1534 52.1406 35.3551 51.791 35.1454C51.4273 35.3333 48.1905 38.8834 47.9072 39.4257Z" fill="#201A18"/>
<path fill-rule="evenodd" clip-rule="evenodd" d="M70.0922 25.59C69.6524 25.1568 69.1084 23.7205 68.897 23.0291C70.5753 21.9536 72.0709 24.928 70.0922 25.59ZM66.4595 23.8471L67.3409 23.7156L69.4331 28.252C69.9582 29.4272 69.4556 29.1424 69.0108 29.696C69.4894 29.6364 70.7778 28.9769 71.4422 28.705C72.059 28.4526 72.0334 28.4965 72.2102 28.2033C71.2839 28.4224 71.2437 28.4166 70.8695 27.5628C70.6339 27.0253 70.3529 26.5093 70.2019 25.9524C73.6906 24.5421 72.5406 22.5832 71.5317 22.1791C70.3609 21.7101 68.1911 22.8917 67.0371 23.4158C66.6263 23.6023 66.6263 23.5317 66.4595 23.8471Z" fill="#201A18"/>
<path fill-rule="evenodd" clip-rule="evenodd" d="M45.6593 43.5329C46.0896 42.7198 46.7142 42.4507 47.6566 43.0619C48.6011 43.6744 48.438 44.1364 48.09 45.0618C47.562 44.9385 47.1699 44.5962 46.7576 44.3322C46.3399 44.0647 45.934 43.8627 45.6593 43.5329ZM43.9217 45.5656C45.0249 44.8979 44.1146 44.5393 47.1132 46.4653C49.4818 47.9866 49.7709 47.8448 49.3088 49.0286C49.7377 48.8107 51.0524 46.6468 51.2939 46.1317C50.5632 46.4982 50.7165 46.8863 49.7811 46.2929C49.3958 46.0485 48.5801 45.5939 48.3586 45.2759C48.6754 44.6712 49.3565 43.7706 49.2596 42.8112C49.1563 41.788 47.4957 39.8673 45.3199 43.2851C44.9122 43.9256 44.1638 44.8956 43.9217 45.5656Z" fill="#1F1A17"/>
<path fill-rule="evenodd" clip-rule="evenodd" d="M121.188 32.385C121.313 32.675 122.82 33.7812 123.1 33.9083C122.742 32.8972 122.14 33.3669 123.77 31.3523C124.168 30.8605 125.119 29.4023 125.541 29.2604L125.835 36.3043C126.234 36.2124 126.23 36.133 126.476 35.7994L129.144 32.3662C129.687 31.6633 129.706 31.4675 130.773 31.7451C130.545 31.3329 129.378 30.4392 128.996 30.3207C129.511 31.4213 129.834 30.8639 128.054 33.1464C127.927 33.3096 127.868 33.4011 127.726 33.572C127.49 33.8551 127.583 33.8433 127.306 33.9061L127.136 28.6934C126.511 28.3704 125.784 27.4967 125.141 27.3168C125.53 28.1309 125.805 28.2248 125.094 29.0638C124.669 29.5664 124.354 29.9907 123.94 30.5222C123.58 30.9831 123.248 31.4337 122.854 31.9291C121.93 33.0921 121.714 32.4607 121.188 32.385Z" fill="#201A18"/>
<path fill-rule="evenodd" clip-rule="evenodd" d="M133.373 44.4371C133.513 44.8041 133.742 45.1075 133.942 45.4164C134.153 45.7408 134.401 46.1994 134.738 46.4384C134.431 45.2484 134.438 45.3885 136.189 44.2675C136.902 43.811 137.795 43.1588 138.533 42.803L136.509 49.6991C137.129 49.5617 140.093 47.5365 140.988 46.9508C142.01 46.2821 141.858 46.4295 142.708 46.9114C142.581 46.4804 141.826 45.2356 141.429 45.0156C141.753 46.2997 141.384 46.2591 140.491 46.8284C139.916 47.1952 139.262 47.5913 138.73 47.9574C138.75 47.3732 139.593 44.9014 139.83 44.17C140.119 43.2755 140.375 43.1021 139.859 42.3676L139.125 41.2241C138.766 40.7699 139.113 41.0054 138.752 40.9787C139.322 42.1631 138.22 42.5068 136.681 43.5153C133.494 45.604 134.547 44.8785 133.373 44.4371Z" fill="#201A18"/>
<path fill-rule="evenodd" clip-rule="evenodd" d="M98.7305 17.5128C99.3118 17.9042 99.6066 17.9265 99.4991 18.8787C99.4276 19.5117 99.2809 20.2139 99.1793 20.8461C98.7462 23.5413 98.9925 23.4551 97.9197 23.7973C97.8953 23.8051 97.8507 23.8224 97.8312 23.8289C97.8121 23.8353 97.7707 23.8451 97.7451 23.8622L100.08 24.2786C99.4153 23.5298 98.9813 24.4642 99.3864 21.9211C99.5442 20.9304 99.689 19.9154 99.8452 18.9922C100.576 19.4845 102.732 23.975 103.707 24.9997L103.796 24.8309C103.804 24.8108 103.826 24.768 103.834 24.7425L103.944 24.2332C103.997 23.8959 104.039 23.6031 104.094 23.253C104.191 22.6458 104.285 22.0554 104.382 21.4397C104.966 17.7475 104.833 19.2356 105.722 18.4928C105.152 18.4186 103.94 18.0098 103.519 18.2598C104.318 18.8173 104.477 18.4487 104.243 19.9183C104.142 20.5564 104.073 21.6696 103.831 22.1988C102.99 21.4062 101.616 17.9809 100.867 17.7272C100.763 17.6921 99.0643 17.3451 98.7305 17.5128Z" fill="#201A18"/>
<path fill-rule="evenodd" clip-rule="evenodd" d="M62.6967 28.5561L64.675 29.7889C64.6217 29.8619 64.5885 29.8658 64.5777 29.9069L62.9574 30.8848L62.6967 28.5561ZM62.4315 33.8578C62.8733 33.7055 64.1692 32.964 64.3806 32.5883C63.3403 32.8393 62.9315 32.8751 63.102 31.3321L65.0857 30.0841C65.6118 30.3294 66.0153 30.6152 66.2834 30.9586C66.1596 31.8312 65.9543 31.112 65.9048 31.7653L68.6154 30.0872L65.2191 28.2353C64.6366 27.8609 62.5007 26.348 62.0316 26.2469L62.6973 31.876C62.8331 33.1013 62.7931 32.9169 62.4315 33.8578Z" fill="#201A18"/>
<path fill-rule="evenodd" clip-rule="evenodd" d="M119.422 26.3507L119.145 28.6389C118.718 28.4957 117.82 28.003 117.52 27.7216L119.422 26.3507ZM114.673 28.7176L116.589 29.8131C116.443 29.2717 115.941 29.44 116.171 28.7699C116.269 28.482 116.789 28.2085 116.995 27.9731L119.218 29.1304C119.206 30.5051 119.324 30.8206 118.143 30.5651C118.41 30.9002 120.651 32.1775 121.069 32.1593C120.203 31.1113 121.241 26.8926 121.118 24.6489C120.418 24.9504 118.801 26.2316 118.066 26.7668C117.555 27.1384 117.071 27.5026 116.549 27.8668C116.254 28.0723 116.002 28.276 115.731 28.4116L114.76 28.6881C114.74 28.6935 114.699 28.7019 114.673 28.7176Z" fill="#201A18"/>
<path fill-rule="evenodd" clip-rule="evenodd" d="M39.5116 55.2198C39.9323 55.537 40.6307 55.8145 41.1936 55.8657C40.9467 55.4305 40.62 55.5156 40.4101 54.9106C40.2125 54.3414 40.4745 53.8492 40.6039 53.3565C41.3116 53.4663 45.5308 55.1462 46.0553 55.467L46.0447 56.3792C46.2434 56.1608 45.9955 56.5497 46.2577 56.0619L47.3566 53.0658C47.3299 53.0909 47.2962 53.0972 47.2841 53.1484C47.2474 53.3049 46.9 53.9171 45.99 53.5869L41.3312 51.7498C41.4481 50.2372 42.5773 50.3331 42.9379 50.2619L43.3026 50.1313L41.726 49.5042L39.5116 55.2198Z" fill="#201A18"/>
<path fill-rule="evenodd" clip-rule="evenodd" d="M53.1706 33.4362C54.5852 32.923 53.9524 32.9998 56.0148 35.3249C56.4205 35.7822 56.8179 36.2973 57.2094 36.7454C58.1734 37.849 57.5974 37.5869 57.3108 38.3909C57.8445 38.0677 61.7168 34.8489 62.0057 34.4445C61.7913 34.0128 61.0931 32.7445 60.6538 32.5979C60.7618 33.3684 61.2573 34.0277 60.807 34.8679C60.5821 35.2876 59.7052 36.0853 59.1364 36.2335C58.7921 36.1898 56.4198 33.1941 55.8867 32.5887C55.1677 31.7721 55.5937 31.6754 56.0093 31.0658C55.5938 31.171 53.3004 33.154 53.1706 33.4362Z" fill="#201A18"/>
<path fill-rule="evenodd" clip-rule="evenodd" d="M132.885 40.1579C132.621 39.9693 132.38 39.723 132.172 39.473L131.719 38.9093C131.558 38.662 131.743 39.0374 131.563 38.6194L133.816 37.9968L132.885 40.1579ZM128.554 38.5412C128.69 39.0242 128.956 39.1507 129.259 39.5205C129.489 39.802 129.732 40.1524 130.062 40.2736C129.709 39.3272 129.576 38.9571 131.096 38.8121C132.499 40.256 133.176 40.4932 131.968 41.9373C131.546 41.9028 131.534 41.7995 131.193 41.6243C131.427 42.0734 132.908 43.8182 133.377 44.1022C133.12 42.9734 134.001 41.5297 134.456 40.5517C134.909 39.5777 135.749 37.964 135.995 37.0095C134.076 37.3104 130.167 39.145 128.554 38.5412Z" fill="#201A18"/>
<path fill-rule="evenodd" clip-rule="evenodd" d="M148.276 64.7107L143.16 65.5314C142.368 65.5982 142.415 65.4577 142.212 65.0378C142.058 64.7212 142.249 64.9605 142.035 64.7045C142.037 65.2356 142.363 67.9252 142.55 68.2445C142.856 67.6998 142.416 67.3673 143.294 67.1878C143.822 67.0798 144.477 67.0254 145.03 66.9462C145.954 66.814 147.654 66.4806 148.549 66.5655L148.888 67.3204C148.912 67.2899 148.924 67.2175 148.926 67.2336C148.928 67.2498 148.946 67.1675 148.948 67.1494L148.795 65.6936C148.707 65.0674 148.602 64.4202 148.518 63.8067L148.276 64.7107Z" fill="#201A18"/>
<path fill-rule="evenodd" clip-rule="evenodd" d="M142.799 78.0747C143.32 77.0726 142.501 77.1135 145.416 77.3094C146.543 77.3852 147.898 77.4302 148.947 77.6241C149.023 77.8028 149.032 77.8826 149.09 78.0607C149.103 78.0982 149.138 78.2142 149.152 78.2506L149.279 78.5251C149.323 77.8274 149.686 75.3646 149.398 74.9771C149.148 75.581 149.385 75.8379 148.53 75.8569C148.05 75.8675 147.329 75.7765 146.826 75.7399C145.685 75.6568 144.329 75.6507 143.268 75.4152L143.051 74.7994C142.946 74.5319 143.07 74.7247 142.928 74.537C142.887 75.26 142.517 77.6497 142.799 78.0747Z" fill="#201A18"/>
<path fill-rule="evenodd" clip-rule="evenodd" d="M70.583 103.686C70.0657 102.319 69.512 101.419 69.3427 99.6661C69.1467 97.6368 69.7951 96.8579 70.4462 95.5811C68.7067 95.9405 66.992 97.3895 67.5806 99.575C67.9919 101.102 69.6896 103.045 70.583 103.686Z" fill="#DA251D"/>
<path fill-rule="evenodd" clip-rule="evenodd" d="M66.2144 100.793C65.6615 98.4387 64.4573 96.2358 66.553 93.243C65.3716 93.3017 63.4131 94.64 63.6593 96.8043C63.8244 98.2547 65.4104 100.388 66.2144 100.793Z" fill="#DA251D"/>
<path fill-rule="evenodd" clip-rule="evenodd" d="M61.7394 96.9466C61.56 95.4903 61.0371 94.5816 61.3492 92.7889C61.5512 91.6288 62.2255 90.1511 62.8033 89.6509C61.2637 89.666 59.7379 91.1621 59.6987 92.7076C59.6556 94.4082 60.9597 96.237 61.7394 96.9466Z" fill="#DA251D"/>
<path fill-rule="evenodd" clip-rule="evenodd" d="M73.7602 103.746C74.7971 103.621 77.5609 102.127 78.2826 101.643C83.2893 98.2813 78.7981 95.1416 78.926 92.0897C79.0237 89.7587 81.4364 88.7076 81.8481 88.0889C80.3344 88.3428 78.1887 89.2676 77.3241 90.1053C74.3341 93.0023 79.266 96.6854 76.883 100.371C75.9353 101.837 75.4039 102.001 74.5601 102.904C74.256 103.23 74.0618 103.529 73.7602 103.746Z" fill="#1F1A17"/>
<path fill-rule="evenodd" clip-rule="evenodd" d="M73.1664 85.3932C72.2673 86.3998 70.3204 86.9391 68.469 86.7783C65.084 86.4843 61.2113 83.5863 58.7708 86.4925C57.9633 87.4542 57.2647 89.4356 57.1473 91.1001C57.9606 90.205 58.4441 88.6721 60.2748 87.746C62.0531 86.8464 63.7265 87.41 65.4599 87.9881C67.2615 88.589 68.9055 89.1875 70.9137 88.4402C71.8085 88.1073 72.329 87.6352 72.8382 87.1104C73.5901 86.3356 73.5524 85.941 74.1053 85.0998L74.1983 84.6211C73.6374 84.8762 73.74 85.1279 73.1664 85.3932Z" fill="#1F1A17"/>
<path fill-rule="evenodd" clip-rule="evenodd" d="M105.128 96.8824C105.128 96.41 105.738 95.087 106.045 94.7458C106.291 95.1984 106.921 96.3666 106.914 96.8928L105.128 96.8824ZM102.454 99.29L103.98 99.2919L104.558 97.9569C107.457 97.9053 107.404 97.6382 107.818 98.5677C108.219 99.4692 108.014 99.2927 109.703 99.2908L106.813 93.2202C104.655 93.2145 105.526 92.8463 103.894 96.1353C103.459 97.013 102.693 98.4542 102.454 99.29Z" fill="#1F1A17"/>
<path fill-rule="evenodd" clip-rule="evenodd" d="M86.5261 95.9698L86.0623 95.9293L86.0676 94.2737C89.7279 93.8924 89.3077 96.2773 86.5261 95.9698ZM84.5812 99.2441L86.0394 99.2959L86.0705 97.0212C87.0786 96.9306 88.2894 97.1264 89.1521 96.7028C90.6426 95.9711 90.8204 93.3523 87.9016 93.2379C87.1008 93.2065 85.3184 93.1333 84.6028 93.269L84.5812 99.2441Z" fill="#1F1A17"/>
<path fill-rule="evenodd" clip-rule="evenodd" d="M122.1 99.2934L123.569 99.2764C123.626 97.3714 123.415 97.3494 124.747 96.528C124.96 96.6862 124.811 96.5428 125.023 96.7882L125.799 97.8834C126.119 98.3235 126.477 98.8047 126.761 99.2741L128.633 99.2963C128.272 98.6291 127.74 98.088 127.235 97.4435C126.862 96.9677 126.084 96.0893 125.861 95.573C126.399 95.0065 128.126 93.7397 128.381 93.218C126.502 93.2126 126.633 93.0313 125.614 94.0718C125.276 94.4165 123.968 95.6233 123.597 95.8109L123.57 93.2662L122.143 93.2093L122.1 99.2934Z" fill="#1F1A17"/>
<path fill-rule="evenodd" clip-rule="evenodd" d="M95.5381 95.9188L95.5415 94.2732C99.325 93.8716 98.8281 96.4836 95.5381 95.9188ZM94.0568 99.2358L95.5131 99.3028L95.5444 97.0203C96.5469 96.9302 97.756 97.1236 98.6206 96.7104C100.08 96.0129 100.356 93.3544 97.3634 93.2376C96.6078 93.2081 94.7225 93.1289 94.0741 93.2775L94.0568 99.2358Z" fill="#1F1A17"/>
<path fill-rule="evenodd" clip-rule="evenodd" d="M112.472 94.2444L114.605 94.2524L114.647 99.2768L116.109 99.2812L116.12 94.2612L118.198 94.2454L118.284 93.23L112.532 93.2158L112.472 94.2444Z" fill="#201A18"/>
<path fill-rule="evenodd" clip-rule="evenodd" d="M102.366 91.5893C102.792 91.812 103.242 91.4601 103.53 91.1667L103.209 90.8517C102.549 91.3343 102.395 90.9288 102.366 91.5893Z" fill="#D9AE72"/>
<path fill-rule="evenodd" clip-rule="evenodd" d="M76.9282 75.0727C77.6281 75.1371 77.3831 75.3922 77.7119 75.8555C78.2938 75.6383 78.3451 75.5545 78.9835 75.9692C79.7439 76.4633 79.5698 75.9937 79.9249 76.9017C80.4576 76.749 81.0113 76.3752 81.6804 76.1627C82.3085 75.9633 83.0485 75.8111 83.7825 75.7899C85.8036 75.7318 86.3123 76.1399 87.7491 76.8052C87.8946 76.418 87.9732 76.1881 88.1489 75.9076C88.37 75.5545 88.4429 75.5698 88.5829 75.0475C88.3199 74.6149 88.2675 74.777 88.1858 74.4087C88.3859 74.2432 88.5937 74.1347 88.7443 74.0142C89.1549 73.6856 88.8566 73.8357 89.1762 73.5724C89.6012 73.2221 89.8125 73.2326 90.2653 72.8184C90.2528 72.1612 89.9834 72.1355 90.2406 71.398C90.4227 70.8756 90.2353 71.2163 90.596 70.8814C92.36 69.2435 92.1872 71.1632 93.1995 69.9267C92.5265 69.5212 92.569 70.0329 91.9245 69.2585C91.7171 69.0093 91.6456 68.9454 91.4321 68.7574C91.3256 68.6636 91.2496 68.603 91.1677 68.5217C91.1249 68.4791 91.0728 68.5094 91.0429 68.3819C91.0329 68.3392 91.0003 68.3341 90.9815 68.3082C91.4812 68.0835 91.3191 68.317 91.6226 67.9347C91.3899 67.4697 90.8685 67.3291 90.7093 66.7363C90.5313 66.0733 91.0842 65.9117 91.2296 65.4448C90.8299 65.0624 90.8385 65.4087 90.6615 64.9468C90.943 64.8269 91.4081 64.857 91.6782 64.6978C91.4016 64.1024 91.3738 64.4594 91.1043 63.9421C92.0117 63.9143 92.1397 64.0236 92.7213 64.1607C92.8915 63.8654 92.906 63.9656 93.0897 63.7018C92.6385 63.0263 91.5341 62.8215 90.6597 62.433C89.8863 62.0894 89.7328 60.9764 88.6426 60.6973C88.0082 61.0898 88.2751 61.64 87.8574 62.169C87.2273 62.9669 86.6572 62.8701 86.4278 62.9548C86.2746 63.6498 86.542 63.6636 86.1536 64.1998C85.5942 64.4313 85.5937 64.0934 85.0322 64.0022L83.9293 64.9535C83.91 64.9723 83.8859 65.0003 83.8678 65.0203L82.2219 66.7414C81.8559 67.098 81.6777 67.2793 80.9266 67.2157C79.3269 67.0801 76.6123 65.4026 74.9855 65.8661C74.8004 66.7085 75.5554 66.9411 75.6808 67.5846C75.863 68.5197 75.2549 69.0983 75.1194 69.3588C74.7398 70.0886 75.2488 70.7933 75.3084 71.1834C75.3645 71.5504 75.2258 71.9968 75.4195 72.32C75.6921 72.7746 75.4892 72.2278 76.0124 72.5412C75.9018 72.891 75.8811 72.8078 75.6132 73.008C76.5511 73.2984 75.8183 73.1288 76.5087 73.1024C76.4748 73.551 76.317 73.2731 76.3679 74.0352C76.8719 74.309 76.7701 73.6681 76.9282 75.0727Z" fill="#D5A664"/>
<path fill-rule="evenodd" clip-rule="evenodd" d="M58.4784 74.9787L58.5785 75.6336C59.0643 75.9008 58.8291 75.1233 59.1536 76.7873C59.7126 75.8149 59.1534 76.1005 58.8459 75.094C61.8159 75.0787 59.5996 75.0104 61.8669 76.7814C63.4811 78.0422 61.3527 77.542 64.7392 80.2593C66.4316 81.6173 65.3444 81.6728 66.3053 81.8232L66.3102 80.8691C67.1402 81.0607 66.7718 81.4532 67.7269 81.5162L67.9452 80.8872C68.5967 81.0376 68.0725 80.9942 68.5983 81.2335C69.2132 80.3289 69.0451 78.5176 69.079 77.6338C69.122 76.5138 69.3518 77.3297 69.4613 76.5249C69.3972 76.2294 68.389 76.0265 68.2626 75.0871C68.6913 75.1199 68.763 75.1944 69.0627 75.306C68.8658 74.8674 68.342 74.2512 67.9695 73.9166C67.5283 74.2495 67.91 74.0094 67.593 74.3693C67.7227 74.7724 67.9472 74.844 68.0153 74.9731L66.9799 74.9378C66.821 74.5555 66.8137 74.0798 66.5706 73.7061C66.1633 73.0802 65.9863 73.6476 65.9591 72.6847C65.4452 72.6303 64.9131 72.349 64.6261 72.043C64.5488 71.8499 64.999 71.0496 64.6547 69.9119C64.1835 69.1843 62.6039 67.8624 61.9051 67.4013C58.9038 65.4209 55.3474 64.8909 54.9956 61.2101C54.9582 60.8186 54.962 60.3567 54.9673 59.9605C54.9691 59.8231 54.9757 59.4673 55.0068 59.3481C55.0469 59.1946 55.0494 59.0865 55.2827 58.9107L55.0978 58.667C54.8477 59.6632 55.026 60.4447 54.8749 61.3977C54.2685 59.9537 53.7966 60.2913 52.1646 60.2995C51.7947 60.6749 51.1242 61.4528 50.9281 61.9586C51.341 62.4248 51.5713 62.4301 51.9867 62.8836C52.8668 63.8445 52.3529 62.7015 53.5852 64.2739C53.8771 64.6463 53.8141 64.4412 54.1278 64.7262C54.4649 65.0324 54.5052 65.6385 54.6651 66.1934C55.6697 66.4879 55.6481 66.2481 56.2479 67.0845C56.8218 67.8848 56.6454 68.1443 56.6292 69.1795C56.9153 69.729 57.3991 69.5331 57.9257 70.3904C58.3546 71.0885 58.4481 71.3419 58.9513 71.8541C60.9978 73.937 59.3774 73.8063 60.2377 74.9117L58.4784 74.9787Z" fill="#D5A664"/>
<path fill-rule="evenodd" clip-rule="evenodd" d="M120.06 75.0545C120.611 75.2248 120.507 75.6255 121.012 76.098C121.785 76.0205 122.67 75.2458 123.685 75.6535C123.616 76.4207 122.55 76.1259 121.908 76.1972L121.53 76.7505C120.146 76.3059 121.447 76.7012 120.273 76.7477C120.09 76.755 119.85 76.73 119.609 76.7472C119.866 77.5912 120.492 77.1846 121.099 77.0746C121.23 77.3014 121.437 77.7068 121.491 78.0595C121.561 78.524 121.427 78.7578 121.681 79.2105C122.031 79.1887 122.717 78.6514 122.836 78.4618C123.241 77.814 122.87 77.8759 123.567 77.2257C123.257 78.6515 123.344 77.2893 123.979 79.007C124.932 78.9792 124.741 78.7786 125.521 79.5136C128.886 79.3964 129.873 78.3086 131.826 76.7999C131.506 78.2737 129.823 80.1294 129.623 80.5458C130.497 80.5522 130.173 80.921 131.619 81.228L132.06 82.6677C132.343 82.8103 133.267 82.9855 133.45 83.7633C132.959 84.0519 133.081 83.7245 132.823 84.1316C133.24 84.3787 133.086 84.3758 133.765 84.4312L133.185 84.7673C134.003 85.3105 133.069 85.5759 133.005 86.9091C133.933 86.6067 133.552 86.4143 134.896 86.4146C135.323 85.8157 135.786 85.3455 135.801 84.5008L135.795 75.6535C135.56 75.0304 135.478 75.5779 135.235 75.0023C132.245 74.7818 132.994 73.7856 132.102 73.8381C131.843 73.8533 131.157 74.3433 130.567 74.5067C130.323 74.5745 130.293 74.5535 130.093 74.6596C129.561 74.9429 130.019 74.9834 128.856 74.9813L128.731 74.4991L127.077 74.5421C127.554 75.035 127.319 74.4245 127.459 75.0699L130.026 75.1555C129.829 75.4973 129.426 75.3672 128.856 75.4293C128.6 75.7682 128.727 75.8582 128.478 76.1548C128.462 76.1749 128.434 76.2003 128.416 76.219L127.984 76.6374C127.223 77.7862 127.441 76.9259 127.022 77.7827L126.582 77.5568C125.702 77.103 126.169 77.6053 125.814 76.948C125.154 75.7265 125.405 75.8587 125.245 75.5944C124.49 76.2109 125.22 76.2184 124.8 76.8152C124.69 76.2331 124.389 75.8885 124.396 75.0397C124.382 73.9825 124.832 73.2494 123.49 73.0509C122.462 72.8989 121.923 72.0423 121.51 71.9932C120.679 72.1076 120.416 72.4091 120.302 73.2049C119.853 73.2053 119.153 73.2916 118.817 73.4537C118.454 73.6291 118.302 74.1189 118.237 74.5596C118.685 74.5729 119.373 74.429 119.587 74.4799C120.163 74.6176 119.549 74.4037 120.06 75.0545Z" fill="#D5A665"/>
<path fill-rule="evenodd" clip-rule="evenodd" d="M95.2095 75.0406C95.0695 75.7585 94.1539 75.1911 94.3964 77.855L95.5674 77.9197C95.6299 78.3416 95.4812 79.6324 95.397 80.0476C95.3828 80.1175 95.2317 81.4296 95.6374 81.7134C96.1571 81.8693 96.6949 81.5931 97.4711 81.6066C97.3984 80.766 97.6725 80.222 97.7693 79.2655C97.9281 77.6954 97.1512 76.627 98.2318 76.4037C98.5706 76.3338 98.6608 76.3595 98.9759 76.3996C99.1773 77.0986 98.7133 77.1333 98.6543 77.9886C99.0691 78.3482 99.7146 78.6788 99.9691 79.1395L99.2408 79.5054C99.1278 80.4573 99.6431 80.5649 100.47 80.6429C100.622 80.4906 101.006 79.797 101.341 79.7682C101.706 79.7368 101.596 80.1361 102.13 80.2048C102.73 80.282 102.905 79.763 102.906 79.762C102.609 79.2895 101.482 78.8532 101.388 78.0575C101.277 77.1147 101.472 78.1142 101.615 77.2325C100.491 76.4931 100.841 76.36 100.463 75.6629C100.328 75.4149 100.352 75.4872 100.245 75.3777L99.9418 75.1102C100.638 75.0705 101.527 75.0558 102.222 75.0846L104.205 75.0975C105.563 75.0533 104.991 75.2127 105.609 75.3593C105.844 75.4152 105.955 75.3805 106.19 75.368C106.492 75.3519 107.074 75.3701 107.288 75.335C107.84 75.2447 107.315 75.1691 108.061 75.1253C110.071 75.0071 112.683 75.1536 114.794 75.1264C116.01 75.1108 115.532 75.2589 116.53 75.546L116.975 75.0558C116.894 74.8646 116.968 74.5368 116.071 74.7605C115.772 74.8351 115.617 74.9357 115.166 74.9751C114.585 75.0257 113.77 74.9849 113.169 74.9786V74.728C112.283 74.45 112.767 74.3092 111.53 74.3917L111.954 74.9647L99.8153 74.9066C99.9407 74.4674 99.818 74.7833 100.246 74.7566C100.831 74.7202 100.371 74.861 100.777 74.5992C101.845 73.9103 102.012 73.3011 102.556 73.1316C103.169 72.9407 102.821 73.1189 103.118 73.1555C103.477 73.1997 103.506 73.2353 103.758 73.0691C103.801 72.5587 103.313 72.4457 102.827 72.6371C101.946 72.9838 102.917 72.9775 101.71 72.9383C101.57 72.9338 100.365 72.9551 100.212 72.9754C99.4992 73.0701 99.6946 73.3855 99.4034 73.8677L97.9309 73.8266C97.6872 73.4718 97.7147 73.343 97.4985 73.0245C96.8683 72.0961 97.3288 70.9298 98.0259 70.7149C98.2566 70.6438 101.284 70.71 102.162 70.9732C103.498 71.3736 104.606 71.594 105.622 70.9688C106.333 70.5318 105.873 70.2757 106.69 69.7991C107.428 69.3694 107.624 68.2249 106.997 68.2951L105.864 68.9681C105.32 69.466 105.676 69.574 105.204 69.7949C104.847 69.9619 104.989 69.862 104.585 69.8728C103.5 69.9016 101.873 69.7904 100.891 69.4956C99.9213 69.2043 99.9004 68.9749 98.6024 68.9172C98.4669 69.2566 98.9717 69.5228 97.6183 69.9372C96.9366 70.1459 97.5018 69.9377 96.9712 70.4118C96.7869 70.5764 96.5717 70.6897 96.3375 70.7932C96.3426 71.2275 96.4712 71.1719 96.372 71.4702C96.195 72.0025 96.2191 71.1966 96.2167 71.8612C96.2153 72.2536 96.4432 72.6493 96.5228 73.0661C95.849 72.8608 95.7361 73.0423 95.3468 73.5224C94.8435 74.1429 95.2499 74.2233 95.2095 75.0406Z" fill="#D5A665"/>
<path fill-rule="evenodd" clip-rule="evenodd" d="M73.1665 85.3937C73.7401 85.1284 73.6374 84.8766 74.1984 84.6216L74.1054 85.1003C74.2971 85.0524 75.6447 85.0165 75.9345 85.0236C76.1265 85.2633 76.235 85.6231 76.6502 85.7832C77.9156 86.2711 78.0477 86.3449 78.9715 86.293C79.5519 86.2604 79.6777 86.4445 80.2223 86.5551C81.4206 86.7986 82.4337 86.4199 83.1613 86.4987C83.6337 86.5498 83.6534 86.8023 84.1612 86.9807C84.3956 87.063 84.4714 87.0625 84.7225 87.166C85.1394 87.338 84.6414 87.5236 85.3298 87.285C85.2972 86.6024 84.653 86.5882 85.5078 85.9745C85.4506 84.6118 84.6403 85.3552 83.5366 84.6176C82.9998 84.2589 82.7796 84.4967 82.2986 84.2347C82.0344 84.0908 81.6966 83.6204 81.4217 83.377C80.9196 83.34 80.9149 83.4584 80.561 83.4411C80.3961 83.433 79.9417 83.3059 79.6719 83.2558C78.6084 83.0583 79.0791 82.5724 77.9357 82.7765C77.5991 83.2589 78.1124 83.6955 76.6841 83.7138C76.0092 83.7224 75.484 83.3996 74.9251 83.2808L73.1506 82.826C72.1188 82.5407 72.4907 82.5457 72.0141 81.7039C70.2563 81.2246 70.4422 81.6187 69.5969 81.6463C68.1917 81.6922 68.7349 81.5771 68.5469 81.9126L67.5039 82.7748C67.0934 82.9235 67.287 82.8592 66.8353 82.7447C67.4547 83.6582 67.6619 83.2956 68.9718 83.3527C69.0143 83.4033 69.3832 83.7963 69.4021 83.8357C69.6492 84.3503 69.4644 83.8911 69.3563 84.4635C70.1358 84.5503 70.8476 84.3908 71.5151 84.6817C71.8934 84.8466 71.8833 84.9471 72.2396 85.0949C72.6177 85.2517 72.8607 85.1876 73.1665 85.3937Z" fill="#D5A664"/>
<path fill-rule="evenodd" clip-rule="evenodd" d="M103.993 89.25L103.914 90.8943C104.488 90.7054 104.611 90.5139 105.094 90.4006C106.794 90.0022 106.725 90.1003 107.98 88.1522C108.518 88.1368 108.56 88.3373 109.05 88.2592C109.729 88.1512 109.175 88.0264 109.943 87.864C110.941 87.6529 111.228 87.7447 111.553 86.8145C110.672 86.8316 111.174 86.9699 110.606 87.1783C109.968 87.4123 108.19 86.5952 107.292 87.33C106.858 87.6852 107.015 87.6694 106.547 87.832C105.993 88.025 106.076 87.9921 105.613 88.2639L103.993 89.25Z" fill="#D5A664"/>
<path fill-rule="evenodd" clip-rule="evenodd" d="M95.7517 87.7299C96.0107 87.8694 100.102 87.7156 100.852 87.7433C101.59 87.7706 102.234 87.2333 102.953 87.2196C104.096 87.1978 104.754 87.6077 104.752 86.1973C104.477 86.2057 104.459 86.1241 104.244 86.3814C104.237 86.3902 104.225 86.4315 104.22 86.4391C104.216 86.4468 104.214 86.481 104.205 86.4998C102.993 85.939 103.389 86.8978 102.325 86.5001C102.297 86.4895 102.266 86.4647 102.239 86.4553C101.501 86.205 101.644 87.2706 99.8563 86.8507C99.4006 86.7436 98.9068 86.8081 98.7041 86.7375C98.3552 86.616 98.2522 86.248 97.5438 86.5273C96.8686 86.7934 98.0115 86.5487 96.3679 86.8793C95.8728 86.9789 95.6731 87.2257 95.7517 87.7299Z" fill="#D5A866"/>
<path fill-rule="evenodd" clip-rule="evenodd" d="M112.231 68.4606C112.421 68.0793 112.744 68.2687 112.509 67.4932C112.195 67.5541 111.335 68.6596 111.328 68.6815C111.35 69.2452 111.31 69.6528 111.455 70.1365C111.692 70.926 111.5 70.3733 111.764 70.6867C112.347 71.3763 111.852 72.4566 113.605 72.9802C113.307 72.4067 113.139 72.5425 112.877 72.2095C112.622 71.8844 112.675 71.5409 112.625 71.0408C114.204 71.1598 113.867 71.3311 114.66 71.5512C114.418 71.0324 114.662 71.5641 114.259 71.0795C114.242 71.0594 114.222 71.0281 114.205 71.0081C113.785 70.5142 113.893 70.8233 113.409 70.4328C113.395 70.4216 113.358 70.406 113.349 70.3679C113.339 70.3296 113.308 70.3243 113.291 70.3C113.627 69.4377 114.146 70.4136 113.655 68.7004C112.011 69.3793 112.947 69.1657 112.749 69.6467C112.439 70.3995 112.501 70.2466 112.267 70.3099C111.832 70.4271 111.792 70.0794 111.683 69.802C112.111 69.4874 112.141 69.6173 112.611 69.1521L112.231 68.4606Z" fill="#D5A363"/>
<path fill-rule="evenodd" clip-rule="evenodd" d="M116.924 78.9351L117.936 79.0214C117.892 77.8238 117.465 78.2295 116.844 77.8227C116.201 77.4018 116.427 77.0586 115.161 77.3026L115.118 77.153C115.104 77.1082 115.089 77.0503 115.074 77.0123C115.021 76.8742 115.086 76.9148 114.955 76.7773C114.295 76.8752 114.598 77.1502 113.85 77.3577C113.117 77.5611 113.296 77.1615 112.671 76.9963C112.394 77.4632 112.515 77.5798 112.181 77.7699L112.197 78.6141L112.546 77.9662L112.781 78.1743C112.933 78.2585 112.771 78.2211 113.042 78.264C113.675 77.4907 113.53 78.0108 114.099 78.2366C114.341 78.3322 115.367 78.1615 115.783 78.1191C115.927 78.2583 115.993 78.3865 116.24 78.5567L116.835 78.8801C116.856 78.8924 116.897 78.9134 116.924 78.9351Z" fill="#D5A866"/>
<path fill-rule="evenodd" clip-rule="evenodd" d="M95.2592 88.591C95.3796 89.1803 95.2544 88.8862 95.6911 89.1573C95.7561 89.1976 95.9775 89.321 95.9951 89.3282C96.2385 89.427 95.9819 89.3785 96.3158 89.39C97.4496 89.4291 96.9738 89.361 97.482 90.2084C98.0748 90.3293 98.2573 90.439 98.926 90.308C99.0814 89.8703 99.1402 89.4712 98.8538 89.0986C98.4188 88.533 98.5738 89.2315 97.7651 88.8142C96.9826 88.4104 97.6698 88.648 96.7002 88.5121C96.3213 88.459 95.4903 88.3661 95.2592 88.591Z" fill="#D5A866"/>
<path fill-rule="evenodd" clip-rule="evenodd" d="M130.558 86.9923C131.515 86.9968 131.761 86.9592 132.349 86.4922C132.77 86.1576 133.123 85.8593 133.199 85.1155C132.842 84.7571 132.732 84.5641 132.049 84.5987C131.737 85.071 131.794 85.5086 131.452 85.8442C131.021 86.266 130.801 86.3129 130.558 86.9923Z" fill="#D5A866"/>
<path fill-rule="evenodd" clip-rule="evenodd" d="M111.305 78.1432C111.096 77.6784 111.301 78.1296 111.087 77.8477L110.874 77.5654C110.526 77.1689 109.701 77.1878 109.172 77.2794C108.105 77.4644 109.507 78.62 109.992 78.6956C110.41 78.7607 111.016 78.434 111.305 78.1432Z" fill="#D5A866"/>
<path fill-rule="evenodd" clip-rule="evenodd" d="M89.0747 87.2117L88.9401 87.8043C89.8691 87.6738 90.7742 87.3773 91.7568 87.4511L93.4646 87.5898C93.5455 87.5559 93.6767 87.5471 94.0677 87.6084L94.0082 86.7129C92.2681 87.0534 91.0586 87.4678 89.0747 87.2117Z" fill="#D6AA6A"/>
<path fill-rule="evenodd" clip-rule="evenodd" d="M124.194 82.7474C124.234 83.6987 124.026 84.2231 124.872 84.3275C125.205 83.9054 124.827 84.0459 125.245 83.7393C125.64 83.8465 125.311 83.7087 125.416 83.8593L125.494 84.0977C125.623 83.8344 125.726 83.1677 125.769 82.6006L124.194 82.7474Z" fill="#D6AA6A"/>
<path fill-rule="evenodd" clip-rule="evenodd" d="M54.1147 69.3183C54.7458 69.1897 54.9131 68.5819 54.6623 68.053C54.5877 67.8957 54.0422 67.1965 53.8887 66.9629C53.3998 67.3892 53.8529 67.2948 52.9347 67.3207C53.3659 67.7176 53.5374 68.0931 53.8207 68.5281C53.8684 68.6013 53.945 68.6971 53.9713 68.7491C54.0985 69.0002 54.0721 69.0737 54.1147 69.3183Z" fill="#D5A363"/>
<path fill-rule="evenodd" clip-rule="evenodd" d="M118.761 86.236L119.082 86.766C119.038 86.7577 118.979 86.6926 118.953 86.7304C118.868 86.8553 118.256 86.1108 118.143 87.1348C119.52 86.8808 118.955 86.9875 119.188 86.6573L119.487 86.3391C119.612 86.181 119.558 86.2257 119.674 86.0305C119.996 85.488 120.058 85.4463 120.178 84.7432L119.255 85.2269C118.881 85.5833 119.266 85.795 118.761 86.236Z" fill="#D7AB6E"/>
<path fill-rule="evenodd" clip-rule="evenodd" d="M108.372 86.428C109.154 86.414 108.326 86.2322 109.568 86.1631C109.884 86.1456 110.695 85.8515 110.493 85.4239C110.331 85.082 109.076 84.9087 108.483 86.1436C108.401 86.3158 108.414 86.2269 108.372 86.428Z" fill="#D6AA6A"/>
<path fill-rule="evenodd" clip-rule="evenodd" d="M102.167 74.582C102.676 74.5335 102.548 74.5594 102.835 74.344L103.084 74.6947C103.832 74.3239 103.212 74.6633 104.244 74.6977C104.166 73.9126 104.273 74.2138 103.74 74.0248L103.554 73.9509C103.554 73.9507 102.436 73.035 102.167 74.582Z" fill="#D69E61"/>
<path fill-rule="evenodd" clip-rule="evenodd" d="M72.1116 76.2515C72.1955 76.4131 72.2127 76.4817 72.3441 76.6381C72.5609 76.8962 72.4601 76.7861 72.7121 76.9399C73.1006 76.7094 73.6223 77.495 73.3973 75.9591C73.0105 75.751 72.353 75.7146 72.1116 76.2515Z" fill="#D6AA6A"/>
<path fill-rule="evenodd" clip-rule="evenodd" d="M86.9516 86.3202C86.953 86.1366 86.995 86.1902 86.7995 86.1853C86.0994 86.2017 86.1409 86.0779 85.5078 85.9745L85.4307 86.6092L86.061 86.9495C86.3036 87.1227 86.0037 86.9557 86.2771 87.1028L86.9124 86.8578L86.9516 86.3202Z" fill="#D5A866"/>
<path fill-rule="evenodd" clip-rule="evenodd" d="M56.8076 73.2097C56.816 72.8344 56.7744 72.4959 56.6575 72.1631C56.5231 71.7801 56.4762 71.7123 56.024 71.6592C55.5845 72.2859 55.8894 72.4167 55.9715 72.5835C56.2511 73.1509 56.0957 73.1765 56.8076 73.2097Z" fill="#D5A363"/>
<path fill-rule="evenodd" clip-rule="evenodd" d="M82.1628 83.9212C82.8498 84.1009 83.7173 84.4342 84.3584 83.9947C84.1982 83.4515 83.8573 83.7471 83.3789 83.6413C82.956 83.5478 82.274 83.2988 82.1628 83.9212Z" fill="#D6AA6A"/>
<path fill-rule="evenodd" clip-rule="evenodd" d="M127.616 72.5781C127.571 73.6905 127.79 73.6939 128.906 73.8161C128.829 73.116 128.2 72.7663 127.616 72.5781Z" fill="#D5A363"/>
<path fill-rule="evenodd" clip-rule="evenodd" d="M119.118 72.7139C119.876 72.9213 119.381 72.7638 119.582 72.6655C119.48 72.0772 119.789 72.3399 119.157 72.2305L117.346 72.2365C117.374 72.2667 117.406 72.3065 117.428 72.3274C117.45 72.3471 117.481 72.3888 117.508 72.4108C117.843 72.6903 118.075 72.6597 118.398 72.6652C118.768 72.2216 118.443 72.5294 119.118 72.7139Z" fill="#D69E61"/>
<path fill-rule="evenodd" clip-rule="evenodd" d="M101.46 81.6404L102.26 81.3278L102.347 80.547L101.449 80.3486C101.636 81.1987 101.646 80.7973 101.46 81.6404Z" fill="#D6AA6A"/>
<path fill-rule="evenodd" clip-rule="evenodd" d="M72.5822 64.1882C72.9003 63.657 72.4022 62.7591 71.9227 63.0348C71.2877 63.3998 72.2736 64.1358 72.5822 64.1882Z" fill="#D5A363"/>
<path fill-rule="evenodd" clip-rule="evenodd" d="M107.163 65.9672C107.517 65.9109 107.415 65.9443 107.636 65.7672C107.684 65.729 107.91 65.5068 107.991 65.4443C107.886 65.1172 107.778 64.9209 107.566 64.6807C106.899 64.8582 107.224 65.1111 107.163 65.9672Z" fill="#D5A363"/>
<path fill-rule="evenodd" clip-rule="evenodd" d="M50.5109 64.5737L51.1851 65.1983C51.3981 65.299 51.357 65.2334 51.6242 65.3746C51.9489 65.5461 51.6431 65.5736 52.1048 65.5149C51.9787 64.9293 51.4824 64.9787 51.2433 64.6319C51.2291 64.6112 51.2197 64.573 51.2072 64.551L51.044 64.2314L50.5109 64.5737Z" fill="#D59B5E"/>
<path fill-rule="evenodd" clip-rule="evenodd" d="M118.331 73.9524C118.419 73.7195 118.37 73.7778 118.374 73.5368C118.05 73.4134 117.542 73.1558 117.452 73.5471C117.354 73.9746 117.704 74.2354 118.024 74.3329C118.162 74.2095 118.216 74.2572 118.331 73.9524Z" fill="#D69E61"/>
<path fill-rule="evenodd" clip-rule="evenodd" d="M102.549 81.2571L103.454 80.9346L103.331 80.0039C102.958 80.1863 103.202 80.1491 102.742 80.285L102.549 81.2571Z" fill="#D7AB6E"/>
<path fill-rule="evenodd" clip-rule="evenodd" d="M113.194 68.1268C113.668 67.9565 113.581 68.1099 113.771 67.6883C113.905 67.3907 113.977 67.2467 113.885 66.8564C113.386 66.9409 113.656 67.0401 113.159 67.2557L113.194 68.1268Z" fill="#D59B5E"/>
<path fill-rule="evenodd" clip-rule="evenodd" d="M111.892 72.4762C111.829 72.4653 111.595 72.5143 111.531 72.526C111.675 73.1376 111.807 72.9086 112.062 73.4095C112.346 73.2506 112.242 73.3266 112.569 73.3074L112.707 73.2878C112.466 72.7508 112.699 73.2353 112.399 72.9131C112.009 72.4935 112.438 72.5696 111.892 72.4762Z" fill="#D59B5E"/>
<path fill-rule="evenodd" clip-rule="evenodd" d="M55.7055 71.2316C55.7611 70.5071 56.0014 70.0213 55.2769 69.9639C55.0869 70.2534 55.3994 70.5222 55.5215 70.827L54.9186 71.1885L55.7055 71.2316Z" fill="#D68954"/>
<path fill-rule="evenodd" clip-rule="evenodd" d="M106.314 86.9923C106.974 87.0145 107.344 87.0014 107.243 86.2996C106.704 86.2721 106.384 86.4519 106.314 86.9923Z" fill="#D7AB6E"/>
<path fill-rule="evenodd" clip-rule="evenodd" d="M100.647 81.9099L100.879 81.8468L100.696 80.9419C100.237 80.9194 100.338 80.9224 100.049 81.1315C100.203 81.3975 100.435 81.6562 100.647 81.9099Z" fill="#D7AB6E"/>
<path fill-rule="evenodd" clip-rule="evenodd" d="M88.8027 87.2182L88.1022 86.9893C87.6127 87.2505 87.9187 86.9063 87.7791 87.3562L88.5164 87.6823L88.8027 87.2182Z" fill="#D7AB6E"/>
<path fill-rule="evenodd" clip-rule="evenodd" d="M126.598 72.7903C126.758 73.1391 126.587 73.3799 127.187 73.148C127.561 73.0039 127.493 72.9497 127.507 72.5537L126.598 72.7903Z" fill="#D59B5E"/>
<path fill-rule="evenodd" clip-rule="evenodd" d="M94.8026 87.8682L95.1709 87.7723C95.5773 87.5952 95.3573 87.7612 95.5244 87.4812C95.3303 87.0539 95.4095 87.3532 94.8218 87.042L94.8026 87.8682Z" fill="#E1BE8E"/>
<path fill-rule="evenodd" clip-rule="evenodd" d="M132.466 87.5854C132.848 87.7687 132.729 87.8175 133.048 87.4813C133.007 87.2106 133.07 87.3339 132.932 87.138L132.59 86.8545C132.372 87.1151 132.286 87.1361 132.466 87.5854Z" fill="#D9AE72"/>
<path fill-rule="evenodd" clip-rule="evenodd" d="M58.3637 74.6216C58.2485 74.4009 58.0316 73.9772 57.8915 73.8213C57.5444 73.9793 57.661 73.9177 57.4773 74.2208C57.8593 74.5198 57.7722 74.5631 58.3637 74.6216Z" fill="#D6945A"/>
<path fill-rule="evenodd" clip-rule="evenodd" d="M67.4944 70.287L67.6891 70.5875L68.1651 70.2672C67.9407 69.8011 67.9746 69.8076 67.3455 69.7979C67.5759 70.133 67.5723 70.0669 67.4944 70.287Z" fill="#D6945A"/>
<path fill-rule="evenodd" clip-rule="evenodd" d="M104.728 87.2028C105.362 87.1553 105.602 87.0372 105.726 86.4902C105.48 86.6008 105.38 86.583 105.18 86.6893C104.747 86.9188 104.938 86.7895 104.728 87.2028Z" fill="#D9AE72"/>
<path fill-rule="evenodd" clip-rule="evenodd" d="M86.1759 83.6219C86.4503 83.8462 86.7722 83.8874 87.1739 83.6219C87.0715 83.5397 86.8895 83.3508 86.6304 83.3329C86.1859 83.3023 86.363 83.3034 86.1759 83.6219Z" fill="#D9AE72"/>
<path fill-rule="evenodd" clip-rule="evenodd" d="M111.052 72.7863C111.053 72.7854 111.422 72.7057 111.389 72.2945C111.356 71.8953 111.261 72.0331 111.052 71.9678C110.885 72.2451 110.943 72.524 111.052 72.7863Z" fill="#D68954"/>
<path fill-rule="evenodd" clip-rule="evenodd" d="M88.7805 77.7518L89.1221 78.2397L89.2829 77.4185C89.3224 77.3143 89.3322 77.398 89.3508 77.1904C89.0424 77.3078 88.9265 77.4392 88.7805 77.7518Z" fill="#DAB175"/>
<path fill-rule="evenodd" clip-rule="evenodd" d="M112.585 79.0329L113.22 78.9716C113.425 78.665 113 79.0093 113.522 78.65C113.064 78.4058 112.838 78.5639 112.585 79.0329Z" fill="#DEBA85"/>
<path fill-rule="evenodd" clip-rule="evenodd" d="M106.072 87.3466C106.225 87.1194 106.235 87.1598 106.135 86.6533C105.922 86.8089 105.914 86.4552 105.825 87.0036C105.756 87.4302 105.868 87.2386 106.072 87.3466Z" fill="#DBB47B"/>
<path fill-rule="evenodd" clip-rule="evenodd" d="M85.7821 77.7413L84.9999 77.4922L85.0984 77.9277C85.5876 77.9061 85.4234 77.9989 85.7821 77.7413Z" fill="#D9AE72"/>
<path fill-rule="evenodd" clip-rule="evenodd" d="M108.954 76.1445C108.962 75.6407 108.928 75.6757 108.68 75.4316C108.471 75.7667 108.582 75.9845 108.954 76.1445Z" fill="#DAB175"/>
<path fill-rule="evenodd" clip-rule="evenodd" d="M103.064 79.2182C102.968 78.7306 103.025 78.8421 102.522 78.7285C102.688 79.2133 102.562 79.1125 103.064 79.2182Z" fill="#DEBA85"/>
</g>
<defs>
<clipPath id="clip0_461_63175">
<rect width="126" height="126" fill="white" transform="translate(30 12)"/>
</clipPath>
</defs>
</svg>
