<svg width="186" height="150" viewBox="0 0 186 150" fill="none" xmlns="http://www.w3.org/2000/svg">
<path d="M84.6253 36.3944C80.9107 37.7436 77.436 39.5752 74.3872 41.6254C74.3202 41.3244 74.3188 41.0294 74.4058 40.6927C74.7251 39.4569 74.6013 38.2147 74.3836 37.1982C74.2299 36.4804 74.0128 35.8053 73.8166 35.2484C73.9207 35.2444 74.0306 35.2413 74.1463 35.2391C75.5094 35.2129 77.3969 35.3173 79.4155 35.5447C81.1819 35.7437 83.0071 36.0323 84.6253 36.3944Z" fill="#C41818"/>
<path d="M62.6789 96.6497C62.0011 92.2298 61.9017 87.7725 62.1115 83.9035C63.562 86.9823 65.6801 89.784 68.659 91.9874C69.3899 92.5558 70.2182 92.9951 70.9196 93.3672C71.0883 93.4567 71.2504 93.5427 71.4014 93.6252C71.4113 93.6307 71.4213 93.636 71.4314 93.6413L71.4571 93.6544C79.6671 97.7577 82.324 103.994 83.0478 108.249C82.4273 107.996 81.735 107.719 81.0448 107.484C80.1462 107.178 79.1317 106.9 78.1422 106.846C77.15 106.792 75.9851 106.954 75.019 107.753C73.3071 109.17 72.4155 111.251 71.8551 112.947C71.6455 113.581 71.4682 114.209 71.3146 114.765C66.3735 110.635 63.7848 103.861 62.6789 96.6497Z" fill="#C41818"/>
<path fill-rule="evenodd" clip-rule="evenodd" d="M65.8905 55.4432C63.5712 60.2257 61.7021 69.3961 63.5094 77.5206C64.6019 82.1066 67.0269 86.4 70.6925 89.283C71.1528 84.9557 72.6437 78.2528 76.3477 72.6071C81.1493 65.2885 89.8232 62.3195 93.5855 61.7159C94.3641 61.591 95.1257 62.0207 95.4215 62.7517C95.7172 63.4827 95.4686 64.3211 94.8221 64.7727C93.413 65.7571 91.5541 67.3259 90.442 68.8313C89.8741 69.6 89.6341 70.176 89.5931 70.5312C89.5704 70.7271 89.581 70.8409 89.8531 71.0384C92.2971 72.8122 94.2455 74.7015 95.4122 75.9762C97.3651 74.8509 98.9014 72.6912 100.04 70.0467C101.337 67.0376 101.969 63.7379 102.15 61.6238V57.7481C102.15 56.8139 102.907 56.0566 103.841 56.0566C104.775 56.0566 105.533 56.8139 105.533 57.7481V59.4596L113.263 57.2776C120.835 54.0134 123.332 50.4306 123.864 47.844C124.407 45.2059 123.041 43.0596 121.792 42.2554C118.992 40.4532 110.287 36.8959 96.139 37.4488C94.1962 37.5248 92.255 37.7958 90.3424 38.2284C84.529 39.5431 79.0314 42.3384 74.6536 45.5763C70.3728 48.7423 67.2465 52.6469 65.8905 55.4432ZM118.268 47.5994C118.268 48.845 117.274 49.8547 116.048 49.8547C114.823 49.8547 113.829 48.845 113.829 47.5994C113.829 46.3538 114.823 45.3441 116.048 45.3441C117.274 45.3441 118.268 46.3538 118.268 47.5994Z" fill="#C41818"/>
</svg>
