<svg width="186" height="150" viewBox="0 0 186 150" fill="none" xmlns="http://www.w3.org/2000/svg">
<path d="M92.9831 53.0814C82.5121 53.0814 73.7854 60.4839 71.6718 70.3328C71.4638 71.3025 71.308 72.2908 71.2248 73.2997C71.1508 74.1971 71.8851 74.9283 72.7835 74.9283H78.7271C79.6254 74.9283 80.3428 74.1951 80.4636 73.3028C80.6035 72.269 80.8722 71.2759 81.2407 70.3328C83.0801 65.6269 87.6295 62.2866 92.9831 62.2871C99.9597 62.2871 105.612 67.945 105.613 74.9283C105.613 81.9116 99.9597 87.5695 92.9831 87.57H40.184C39.1401 87.57 38.3654 88.5421 38.6307 89.5541C39.1857 91.6721 39.8529 93.7442 40.6425 95.7559C40.8827 96.3676 41.4765 96.7614 42.1324 96.7614H92.9831C105.033 96.7614 114.795 86.9904 114.795 74.9283C114.795 62.8666 105.033 53.0814 92.9831 53.0814Z" fill="url(#paint0_angular_824_93304)"/>
<path d="M92.9831 35.8442C72.9762 35.8442 56.4998 50.919 54.2224 70.3328C54.1074 71.3134 54.0212 72.3004 53.9748 73.2985C53.933 74.198 54.6646 74.9283 55.5629 74.9283H61.4923C62.3907 74.9283 63.1147 74.1976 63.1721 73.299C63.2361 72.297 63.354 71.3099 63.5052 70.3328C65.7191 56.0153 78.0588 45.0353 92.9831 45.0353C109.473 45.0353 122.833 58.4228 122.833 74.9283C122.833 91.4343 109.473 104.807 92.9831 104.807H48.1893C46.9118 104.807 46.1412 106.211 46.8723 107.261C48.4055 109.463 50.0895 111.553 51.9147 113.508C52.2173 113.833 52.642 114.013 53.085 114.013H92.9831C114.547 114.013 132.03 96.5131 132.029 74.9283C132.029 53.3439 114.547 35.8442 92.9831 35.8442Z" fill="url(#paint1_angular_824_93304)"/>
<path d="M92.9831 18.75C75.5022 18.75 59.8808 26.7192 49.5599 39.2372C48.45 40.5831 47.396 41.9855 46.4133 43.4318C46.3488 43.5266 46.2911 43.6233 46.2275 43.7181C45.3423 45.0376 44.5258 46.4032 43.7527 47.7987C43.6173 48.0447 43.4699 48.2802 43.3381 48.5285C42.6616 49.7939 42.0593 51.1023 41.479 52.4226C41.3073 52.8162 41.1265 53.2129 40.9641 53.611C40.5141 54.7014 40.1155 55.8091 39.7338 56.9325C39.493 57.6471 39.2454 58.3669 39.0331 59.0944C38.806 59.8636 38.6271 60.6456 38.4321 61.4281C38.1717 62.4868 37.9026 63.5387 37.703 64.6204C37.6115 65.1083 37.5671 65.6173 37.4884 66.1093C37.2732 67.475 37.0742 68.8503 36.9593 70.2471C36.9565 70.276 36.9469 70.3035 36.9446 70.3328C36.8652 71.3173 36.7926 72.3038 36.7514 73.2984C36.7141 74.1981 37.444 74.9283 38.3424 74.9283H44.2718C45.1701 74.9283 45.8955 74.1981 45.9281 73.2982C45.9641 72.3023 46.032 71.3155 46.1272 70.3328C48.4395 46.4655 68.532 27.7981 92.9831 27.7981C118.986 27.7981 140.068 48.9001 140.068 74.9283C140.068 100.957 118.986 122.059 92.9831 122.059H67.403C65.79 122.059 65.2188 124.068 66.6449 124.824C73.7066 128.563 81.6641 130.822 90.1084 131.25H92.9831C122.118 131.25 146.068 109.086 148.95 80.6838C149.137 78.8375 149.245 76.9665 149.25 75.0717C149.25 73.1274 149.142 71.1954 148.95 69.302C146.068 40.9002 122.118 18.75 92.9831 18.75Z" fill="url(#paint2_angular_824_93304)"/>
<defs>
<radialGradient id="paint0_angular_824_93304" cx="0" cy="0" r="1" gradientUnits="userSpaceOnUse" gradientTransform="translate(93.647 75.8152) rotate(89.1835) scale(57.071 56.9371)">
<stop offset="0.243627" stop-color="#003DAE"/>
<stop offset="0.251613" stop-color="#00FD6A"/>
<stop offset="0.506744" stop-color="#0096E1"/>
<stop offset="0.751688" stop-color="#0057F2"/>
<stop offset="0.999853" stop-color="#004BD0"/>
</radialGradient>
<radialGradient id="paint1_angular_824_93304" cx="0" cy="0" r="1" gradientUnits="userSpaceOnUse" gradientTransform="translate(93.647 75.8152) rotate(89.1835) scale(57.071 56.9371)">
<stop offset="0.243627" stop-color="#003DAE"/>
<stop offset="0.251613" stop-color="#00FD6A"/>
<stop offset="0.506744" stop-color="#0096E1"/>
<stop offset="0.751688" stop-color="#0057F2"/>
<stop offset="0.999853" stop-color="#004BD0"/>
</radialGradient>
<radialGradient id="paint2_angular_824_93304" cx="0" cy="0" r="1" gradientUnits="userSpaceOnUse" gradientTransform="translate(93.647 75.8152) rotate(89.1835) scale(57.071 56.9371)">
<stop offset="0.243627" stop-color="#003DAE"/>
<stop offset="0.251613" stop-color="#00FD6A"/>
<stop offset="0.506744" stop-color="#0096E1"/>
<stop offset="0.751688" stop-color="#0057F2"/>
<stop offset="0.999853" stop-color="#004BD0"/>
</radialGradient>
</defs>
</svg>
