<svg width="186" height="150" viewBox="0 0 186 150" fill="none" xmlns="http://www.w3.org/2000/svg">
<g clip-path="url(#clip0_475_99491)">
<path d="M168.696 65.7379H54.9759C51.8786 69.3189 48.8759 69.5001 48.8759 69.5001C48.4438 70.5507 47.3925 72.4283 49.2905 73.8155C50.1532 74.4462 51.2823 74.8935 53.8121 75.6771C53.9177 75.7098 54.0764 73.9166 55.4529 71.9968C56.8976 69.9812 59.4197 68.5205 62.7443 69.5713C65.6666 70.495 67.7743 71.7356 68.201 75.0354C68.8126 79.7669 65.0299 82.8643 65.0299 82.8643C65.8491 84.7348 66.0483 86.6376 65.7747 88.2583C65.5274 89.7226 64.4485 91.584 63.0405 93.0229H168.696V65.7379Z" fill="#E8413D"/>
<path fill-rule="evenodd" clip-rule="evenodd" d="M68.2009 75.0354C67.774 71.7356 65.6665 70.4948 62.7442 69.5711C59.4197 68.5203 56.8975 69.981 55.4528 71.9966C54.0763 73.9166 53.9176 75.7098 53.812 75.6771C51.2822 74.8933 50.1532 74.4462 49.2905 73.8155C47.3924 72.4283 48.4438 70.5507 48.8758 69.4999C48.8758 69.4999 51.8785 69.3187 54.9756 65.7379C55.0235 65.6826 55.0711 65.6292 55.1188 65.5723C62.0131 57.5337 60.882 40.2012 47.7219 41.6784C32.5362 43.3831 39.6729 66.5022 25.0545 69.5941C23.8339 69.8525 21.1506 69.2886 20.9982 70.5402C20.8787 71.5229 24.1278 71.5116 25.2993 71.4834C32.3712 71.3116 35.2763 66.533 37.2297 60.2985C39.3079 53.6651 40.5766 46.1187 46.2905 44.0442C49.747 42.789 52.7981 44.0719 54.4031 45.4634C57.4771 48.1294 57.5906 53.5489 56.2041 58.2917C55.3021 61.3762 53.7646 64.1695 51.9949 65.7379C51.6482 66.0449 51.2934 66.31 50.9319 66.5156C49.81 67.1542 48.6308 67.2688 47.4848 66.6495C46.4848 66.1081 45.5099 65.0082 44.6203 63.2066C46.2004 58.604 47.3798 53.6156 51.301 51.3778C51.8897 51.0422 52.5185 50.8685 53.1614 50.679C53.888 50.4652 55.5003 50.2617 55.3576 49.722C55.2693 49.3895 53.4367 49.5979 52.5854 49.6733C45.7474 50.2791 43.45 56.5718 41.9049 63.0415C40.8255 67.5615 40.4003 71.8878 38.1779 75.2717C37.0532 76.984 35.1553 78.6604 33.4057 79.5301C32.4739 79.993 31.5559 80.4382 30.0033 80.6249C29.2889 80.7107 27.8857 80.4394 27.9178 81.1859C27.9511 81.9603 29.3401 81.9712 30.0503 82.0706C33.2897 82.5247 36.3956 80.6386 38.1779 79.0572C41.4103 76.1891 43.0505 71.1467 43.9042 66.5186C44.3698 66.871 44.8274 67.3988 45.339 67.7056C46.0171 68.112 46.374 68.4985 47.2447 68.8842C46.5138 70.553 45.9452 72.4704 46.5289 73.8525C46.7205 74.3053 47.0585 74.6649 47.4848 74.9666C49.1254 76.1279 52.0985 76.4277 53.2886 77.8264L53.195 79.7669C50.7671 79.4461 48.933 79.6979 47.4848 80.329C42.4127 82.5392 42.0933 89.4184 37.7007 92.7783C36.7073 93.5382 36.0725 93.832 34.9633 94.2608C34.2842 94.5235 33.3434 96.0165 36.4751 94.9923C39.1814 94.1076 41.344 91.9518 42.9869 89.533C44.6167 87.1334 46.1159 84.7374 47.4848 83.2291C48.0498 82.6064 48.5931 82.1337 49.1136 81.8765C51.5481 80.6713 52.9611 81.8716 54.6057 81.3245C54.2225 76.6604 55.5525 71.6562 59.6523 71.0136C63.7057 70.3782 67.3153 73.1992 66.3333 78.1109C65.9033 80.2612 64.1086 81.8846 62.9429 82.6317C65.25 86.9833 62.8913 90.728 59.2654 93.0227C56.2764 94.9149 52.4263 95.8218 49.6196 95.27C47.7733 94.9069 43.9823 93.9037 44.3817 92.305C44.5612 91.5866 46.0094 91.377 47.4848 91.2533C48.0616 91.2053 48.6428 91.1697 49.1538 91.1223C50.3044 90.7985 49.1463 89.6566 50.3468 89.4665C53.6881 89.3837 58.5769 92.7397 61.0841 89.7026C56.3429 90.6843 53.2575 87.2568 48.4378 88.2834C47.7205 88.5062 47.5761 88.9816 47.4848 89.4841C47.4274 89.8018 47.3905 90.1298 47.2447 90.4122C45.0007 90.9096 42.6114 91.3055 42.4728 93.0149C42.2555 95.6908 45.0786 97.1811 48.4916 97.4154C52.1316 97.6661 56.4363 96.5467 58.2206 95.8536C59.8312 95.2283 60.8896 94.8367 62.063 93.9074C62.4014 93.6396 62.7285 93.3412 63.0402 93.0227C64.4484 91.584 65.5274 89.7226 65.7747 88.2581C66.0483 86.6376 65.849 84.7346 65.0296 82.8643C65.0296 82.8643 68.8125 79.7669 68.2009 75.0354Z" fill="#2B2727"/>
<path fill-rule="evenodd" clip-rule="evenodd" d="M50.2781 99.4205C46.7975 100.016 44.6331 100.494 40.6816 100.06C34.5787 99.3901 29.3529 96.6675 25.8515 92.7997C22.5561 89.1595 20.5976 83.2876 20.2825 77.6377C20.1895 75.9677 21.2167 73.588 20.0439 72.9064C19.3434 72.499 18.3788 72.8329 18.1349 73.3795C17.4623 74.6437 17.5568 77.4428 17.6576 78.8206C18.0682 84.4105 19.9694 89.6679 23.4176 93.6842C27.8291 98.8225 34.5569 101.999 41.6226 101.986C43.8891 101.982 47.6996 101.763 49.5726 100.913C50.399 100.538 50.9315 99.7939 50.2781 99.4205Z" fill="#2B2727"/>
<path fill-rule="evenodd" clip-rule="evenodd" d="M86.615 75.9813L88.0466 80.713H85.1833L86.615 75.9813ZM85.8989 73.6159L82.0814 85.6811H83.9186L84.9447 82.1324H88.5236C88.8001 83.3568 89.4783 85.6811 89.4783 85.6811H91.6255L87.8078 73.6159H85.8989ZM154.714 75.7182L156.023 80.713H153.398L154.714 75.7182ZM153.875 73.6159L150.057 85.6811H152.171L153.159 82.1324H156.354L157.437 85.6811H159.601L155.784 73.6159H153.875ZM136.368 75.7182L137.676 80.713H135.052L136.368 75.7182ZM135.529 73.6159L131.711 85.6811H133.825L134.813 82.1324H138.009L139.091 85.6811H141.255L137.438 73.6159H135.529ZM144.119 84.2618V75.0354C145.917 74.8234 146.962 75.4155 147.597 76.7068C147.96 77.4426 147.984 78.3673 148.017 79.2804C148.064 80.6195 147.93 81.9694 147.289 82.9584C146.608 84.0109 145.782 84.2193 144.119 84.2618ZM148.928 84.0694C149.959 82.437 149.82 80.6857 149.854 78.8085C149.887 77.0033 149.275 75.1559 147.955 74.2737C146.344 73.1974 142.226 73.6159 142.226 73.6159L142.21 85.6811C142.21 85.6811 145.415 85.8552 146.803 85.5753C147.801 85.3738 148.285 85.0876 148.928 84.0694ZM94.489 75.0354C95.8187 74.8998 96.8423 75.0785 97.3521 75.7447C97.8266 76.3657 97.8767 77.2099 97.3521 77.8741C96.7622 78.6208 95.9467 79.1617 94.489 79.0571V75.0354ZM92.3413 73.6196V85.6811H94.489L94.5163 80.452C94.5163 80.452 95.9362 80.3232 96.3212 80.631C97.7647 81.786 97.6008 84.0955 97.6008 85.6811H99.7381C99.7632 84.429 99.6681 82.5339 99.0281 81.0095C98.7232 80.2832 98.2895 79.8014 97.5683 79.4356C99.8645 78.7109 99.6435 75.7853 98.9623 74.8394C98.6708 74.4347 98.1093 73.7987 95.9931 73.6034L92.3413 73.6196ZM115.009 73.5874L115.22 82.7126C115.221 83.8351 116.107 85.7377 118.765 85.7308C121.143 85.7217 122.899 85.0872 122.899 82.8263L123.121 73.6159H120.974L120.959 82.6144C120.896 83.9649 120.276 84.3879 119.303 84.4982C118.334 84.6081 117.156 84.046 117.156 82.7775V73.6159L115.009 73.5874ZM101.647 85.6811H103.794V73.6161H101.647V85.6811ZM124.553 74.562C123.406 76.2145 123.959 77.7398 124.917 78.7111C126.588 80.4066 129.799 81.1095 129.564 82.8422C129.278 84.9469 126.079 84.3152 124.315 83.3151V85.4445C128.136 86.2376 131.954 85.494 131.554 81.8829C130.97 78.2394 125.77 77.8979 126.223 75.7447C126.847 74.017 129.515 75.1081 130.757 75.5083V73.6159C127.855 73.3329 125.564 73.1054 124.553 74.562ZM105.479 73.5385L105.464 85.6811H107.374V80.0032L111.191 80.0125V85.6811H113.339V73.6159H111.191V78.8206L107.374 78.8085L107.362 73.5549L105.479 73.5385ZM72.2986 76.928C73.3534 80.1314 79.2101 80.4154 78.9795 84.025C78.7888 87.0145 74.7733 86.6668 72.06 85.2077V87.5737C77.4615 89.3829 82.3387 86.8896 81.3654 81.8959C80.5846 77.8862 74.1434 77.6833 74.446 74.3254C74.6923 71.5933 78.5121 72.2195 80.6498 73.3795V71.2501C75.0643 69.4982 70.7286 72.1599 72.2986 76.928Z" fill="white"/>
<path d="M91.6996 108.553H90.4196V99.5154H91.6996V108.553ZM83.7786 106.557C84.6812 107.193 85.4174 107.51 85.9857 107.51C86.3766 107.51 86.6964 107.417 86.9453 107.231C87.2293 107.019 87.3716 106.714 87.3716 106.316C87.3716 105.739 87.0588 105.294 86.4333 104.981C85.8575 104.693 85.2782 104.409 84.6957 104.129C84.0698 103.655 83.7571 102.926 83.7571 101.943C83.7571 101.189 83.9706 100.576 84.3969 100.106C84.8233 99.6358 85.4203 99.4008 86.1885 99.4008C86.8705 99.4008 87.5137 99.6255 88.1183 100.074V101.536C87.4213 100.884 86.7601 100.558 86.1348 100.558C85.3672 100.558 84.9832 100.918 84.9832 101.638C84.9832 102.214 85.2995 102.663 85.9323 102.985C86.5226 103.265 87.1158 103.545 87.7131 103.824C88.3457 104.265 88.662 104.917 88.662 105.782C88.662 106.74 88.3633 107.481 87.7661 108.006C87.2761 108.447 86.7038 108.667 86.0493 108.667C85.175 108.667 84.4219 108.4 83.7892 107.866L83.7786 106.557ZM82.01 108.553H80.7299V99.5154H82.01V108.553ZM75.9296 103.354C76.7111 103.354 77.1024 102.867 77.1024 101.892C77.1024 101.587 77.0421 101.32 76.9209 101.091C76.765 100.795 76.5268 100.646 76.2066 100.646H75.0442V103.354H75.9296ZM77.0063 103.939C77.3687 104.091 77.7206 104.723 78.0622 105.833L78.9043 108.553H77.529L76.6867 105.795C76.4236 104.922 76.1001 104.486 75.7163 104.486H75.0442V108.553H73.765V99.5154H76.26C77.6889 99.5154 78.4035 100.307 78.4035 101.892C78.4035 102.502 78.2184 103.007 77.8488 103.405C77.5999 103.668 77.319 103.846 77.0063 103.939ZM71.9843 100.646H70.0225V108.553H68.7426V100.646H66.77V99.5154H71.9843V100.646ZM65.4162 99.5154V105.731C65.4162 106.68 65.1598 107.417 64.6482 107.943C64.1718 108.426 63.5287 108.667 62.7184 108.667C61.9009 108.667 61.2537 108.426 60.7779 107.943C60.2659 107.426 60.0099 106.689 60.0099 105.731V99.5154H61.2895V105.616C61.2895 106.879 61.8189 107.51 62.8781 107.51C63.9376 107.51 64.4668 106.879 64.4668 105.616V99.5154H65.4162ZM56.2783 108.553L53.431 101.638V108.553H52.4397V99.5154H53.9962L56.8216 106.43V99.5154H57.8135V108.553H56.2783Z" fill="#2B2727"/>
<path d="M166.489 105.159L165.529 101.434L164.57 105.159H166.489ZM164.293 106.24L163.707 108.553H162.704L165.029 99.5156H166.372L168.696 108.553H167.353L166.756 106.24H164.293ZM156.392 106.558C157.294 107.193 158.03 107.51 158.599 107.51C158.99 107.51 159.31 107.417 159.558 107.231C159.843 107.019 159.985 106.714 159.985 106.316C159.985 105.739 159.672 105.294 159.047 104.981C158.471 104.693 157.892 104.409 157.309 104.129C156.683 103.655 156.371 102.926 156.371 101.943C156.371 101.189 156.584 100.577 157.01 100.106C157.437 99.6358 158.034 99.4008 158.802 99.4008C159.484 99.4008 160.127 99.6255 160.732 100.074V101.536C160.035 100.884 159.374 100.558 158.748 100.558C157.98 100.558 157.597 100.918 157.597 101.638C157.597 102.214 157.913 102.663 158.546 102.985C159.136 103.265 159.729 103.545 160.326 103.824C160.959 104.265 161.275 104.917 161.275 105.782C161.275 106.74 160.977 107.481 160.38 108.006C159.889 108.447 159.317 108.667 158.663 108.667C157.789 108.667 157.035 108.4 156.402 107.866L156.392 106.558ZM154.451 103.862V107.904C153.598 108.413 152.737 108.667 151.871 108.667C150.805 108.667 150.019 108.337 149.514 107.676C148.953 106.939 148.672 105.723 148.672 104.028C148.672 102.341 148.953 101.13 149.514 100.392C150.019 99.7312 150.805 99.4008 151.871 99.4008C152.652 99.4008 153.547 99.5427 154.144 100.33C154.713 101.078 154.762 102.012 154.762 102.012L153.115 101.997C153.043 101.078 152.553 100.558 151.871 100.558C151.188 100.558 150.701 100.835 150.41 101.39C150.118 101.945 149.973 102.825 149.973 104.028C149.973 105.24 150.115 106.117 150.399 106.659C150.698 107.227 151.188 107.51 151.871 107.51C152.389 107.51 152.823 107.375 153.172 107.103V104.994H152.468V103.862H154.451ZM144.961 108.553L142.114 101.638V108.553H141.123V99.5156H142.68L145.505 106.43V99.5156H146.497V108.553H144.961ZM136.911 105.159L135.951 101.434L134.991 105.159H136.911ZM134.714 106.24L134.128 108.553H133.125L135.45 99.5156H136.794L139.118 108.553H137.775L137.177 106.24H134.714ZM128.935 107.422C129.874 107.422 130.343 106.969 130.343 106.061C130.343 105.011 129.92 104.486 129.074 104.486H128.146V107.422H128.935ZM128.935 103.354C129.717 103.354 130.108 102.867 130.108 101.892C130.108 101.587 130.048 101.32 129.927 101.091C129.77 100.795 129.532 100.646 129.212 100.646H128.146V103.354H128.935ZM126.867 108.553V99.5156H129.266C130.694 99.5156 131.409 100.307 131.409 101.892C131.409 103.07 130.944 103.748 130.012 103.926C130.445 103.985 130.804 104.167 131.089 104.472C131.459 104.863 131.644 105.392 131.644 106.061C131.644 107.723 130.741 108.553 128.935 108.553H126.867Z" fill="#2B2727"/>
<path d="M100.044 101.371V106.327C100.044 107.083 99.8402 107.671 99.4324 108.09C99.0523 108.474 98.5395 108.667 97.8937 108.667C97.2421 108.667 96.7261 108.474 96.3465 108.09C95.9386 107.677 95.7342 107.09 95.7342 106.327V101.371H96.7543V106.235C96.7543 107.241 97.1768 107.745 98.0211 107.745C98.8657 107.745 99.2878 107.241 99.2878 106.235V101.371H100.044Z" fill="#2B2727"/>
<path d="M104.838 108.576L102.569 103.064V108.576H101.778V101.371H103.019L105.272 106.884V101.371H106.062V108.576H104.838Z" fill="#2B2727"/>
<path d="M111.503 102.273H109.939V108.576H108.919V102.273H107.346V101.371H111.503V102.273Z" fill="#2B2727"/>
<path d="M117.063 101.371V106.327C117.063 107.083 116.858 107.671 116.45 108.09C116.07 108.474 115.558 108.667 114.912 108.667C114.26 108.667 113.744 108.474 113.364 108.09C112.957 107.677 112.752 107.09 112.752 106.327V101.371H113.773V106.235C113.773 107.241 114.195 107.745 115.039 107.745C115.884 107.745 116.306 107.241 116.306 106.235V101.371H117.063Z" fill="#2B2727"/>
<path d="M122.264 101.371H123.268L121.202 104.208L123.361 108.576H122.18L120.497 105.181L119.901 105.992V108.576H118.881V101.371H119.901V104.613L122.264 101.371Z" fill="#2B2727"/>
</g>
<defs>
<clipPath id="clip0_475_99491">
<rect width="152" height="68" fill="white" transform="translate(17 41)"/>
</clipPath>
</defs>
</svg>
