<svg width="186" height="150" viewBox="0 0 186 150" fill="none" xmlns="http://www.w3.org/2000/svg">
<path d="M162.231 75C162.231 93.2254 131.235 108 93 108C54.7649 108 23.7692 93.2254 23.7692 75C23.7692 56.7746 54.7649 42 93 42C131.235 42 162.231 56.7746 162.231 75Z" fill="#0B149E"/>
<path d="M18 59.3684H168V88.3158H18V59.3684Z" fill="white"/>
<path fill-rule="evenodd" clip-rule="evenodd" d="M17 58.3684H169V89.3158H17V58.3684ZM18 59.3684V88.3158H168V59.3684H18Z" fill="#0B149E"/>
<path d="M142.247 73.8924C142.247 72.1228 142.728 70.6274 143.692 69.4061C144.661 68.1793 145.954 67.5658 147.571 67.5658C149.351 67.5658 150.712 68.1199 151.653 69.2281C152.594 70.3362 153.064 71.891 153.064 73.8924C153.064 75.8939 152.571 77.4826 151.585 78.6586C150.605 79.8345 149.21 80.4225 147.402 80.4225C145.74 80.4225 144.464 79.8402 143.574 78.6755C142.689 77.5108 142.247 75.9165 142.247 73.8924ZM144.528 73.8924C144.528 75.3454 144.774 76.4705 145.264 77.2677C145.754 78.0649 146.467 78.4635 147.402 78.4635C148.5 78.4635 149.337 78.0734 149.912 77.2932C150.492 76.513 150.782 75.3794 150.782 73.8924C150.782 70.9807 149.712 69.5249 147.571 69.5249C146.591 69.5249 145.838 69.9206 145.314 70.7122C144.79 71.498 144.528 72.5581 144.528 73.8924Z" fill="black"/>
<path d="M129.79 80.2105H127.044V67.7948C128.796 67.7326 129.897 67.7015 130.348 67.7015C132.151 67.7015 133.579 68.233 134.633 69.2959C135.692 70.3532 136.221 71.7581 136.221 73.5108C136.221 77.9773 134.078 80.2105 129.79 80.2105ZM129.241 69.7199V78.2006C129.596 78.2345 129.979 78.2515 130.39 78.2515C131.5 78.2515 132.368 77.8472 132.993 77.0388C133.624 76.2303 133.94 75.0995 133.94 73.6465C133.94 70.9892 132.709 69.6606 130.247 69.6606C130.01 69.6606 129.675 69.6804 129.241 69.7199Z" fill="black"/>
<path d="M118.931 80.3801L112.922 72.5186V80.219H110.81V67.7863H111.866L117.714 75.2833V67.7863H119.827V80.3801H118.931Z" fill="black"/>
<path d="M101.362 80.2105V67.7863H103.559V80.2105H101.362Z" fill="black"/>
<path d="M86.353 80.2105V79.4981L91.5166 69.7454H86.4375V67.7863H94.5082V68.4987L89.3277 78.2515H94.6941V80.2105H86.353Z" fill="black"/>
<path d="M77.4967 80.2105V67.7863H79.6939V80.2105H77.4967Z" fill="black"/>
<path d="M70.2967 68.7955L69.3756 70.568C69.1164 70.3362 68.7164 70.1072 68.1755 69.8811C67.6347 69.6493 67.1698 69.5334 66.7811 69.5334C65.5642 69.5334 64.6035 69.9489 63.8993 70.78C63.195 71.6055 62.8429 72.7136 62.8429 74.1044C62.8429 75.4274 63.1866 76.4847 63.8739 77.2762C64.5669 78.0677 65.5078 78.4635 66.6966 78.4635C67.4797 78.4635 68.1248 78.2487 68.6319 77.819V75.3765H66.9163V73.4938H70.8291V79.0572C70.3052 79.4868 69.6291 79.8232 68.8009 80.0664C67.9783 80.3038 67.1586 80.4225 66.3416 80.4225C64.5669 80.4225 63.1584 79.8402 62.1161 78.6755C61.0795 77.5052 60.5611 75.9617 60.5611 74.0451C60.5611 72.1284 61.1274 70.5708 62.2598 69.3722C63.3922 68.1736 64.9162 67.5743 66.8318 67.5743C68.1896 67.5743 69.3446 67.9814 70.2967 68.7955Z" fill="black"/>
<path d="M44.7496 67.7863H46.9469V76.2076C46.9469 76.8748 47.1497 77.4176 47.5554 77.8359C47.961 78.2543 48.5188 78.4635 49.2287 78.4635C50.0231 78.4635 50.64 78.26 51.0794 77.8529C51.5245 77.4402 51.7471 76.8776 51.7471 76.1652V67.7863H53.9443V76.3349C53.9443 77.6126 53.5161 78.6133 52.6598 79.337C51.809 80.0607 50.671 80.4225 49.2456 80.4225C47.8089 80.4225 46.699 80.0692 45.9159 79.3625C45.1384 78.6557 44.7496 77.6437 44.7496 76.3264V67.7863Z" fill="black"/>
<path d="M30.6283 79.5236L31.4396 77.5476C32.3072 78.1582 33.1608 78.4635 34.0003 78.4635C35.2905 78.4635 35.9355 78.0112 35.9355 77.1066C35.9355 76.6826 35.7834 76.2783 35.4792 75.8939C35.175 75.5094 34.5468 75.0797 33.5946 74.6048C32.6481 74.1242 32.0086 73.7313 31.6762 73.426C31.3495 73.115 31.0959 72.7475 30.9156 72.3235C30.741 71.8995 30.6537 71.4302 30.6537 70.9157C30.6537 69.9546 31.003 69.1574 31.7016 68.5242C32.4058 67.8909 33.3073 67.5743 34.4059 67.5743C35.837 67.5743 36.8877 67.8429 37.5581 68.38L36.8905 70.2797C36.1187 69.7256 35.3045 69.4486 34.4482 69.4486C33.9411 69.4486 33.5467 69.5842 33.265 69.8556C32.989 70.1214 32.8509 70.4691 32.8509 70.8987C32.8509 71.6111 33.6369 72.3518 35.2088 73.1207C36.037 73.5278 36.6342 73.9037 37.0004 74.2486C37.3666 74.5878 37.6455 74.9864 37.837 75.4444C38.0286 75.8967 38.1244 76.4027 38.1244 76.9624C38.1244 77.9688 37.7272 78.7971 36.9328 79.4473C36.144 80.0975 35.0848 80.4225 33.7552 80.4225C32.6002 80.4225 31.5579 80.1229 30.6283 79.5236Z" fill="black"/>
</svg>
