<svg width="186" height="150" viewBox="0 0 186 150" fill="none" xmlns="http://www.w3.org/2000/svg">
<path fill-rule="evenodd" clip-rule="evenodd" d="M163.032 73.9271C163.032 71.2608 165.165 69.0994 167.795 69.0994C169.102 69.0994 170.286 69.633 171.147 70.497C172.008 69.633 173.192 69.0994 174.499 69.0994C177.129 69.0994 179.261 71.2608 179.261 73.9271V79.8277C179.261 80.6177 178.63 81.2582 177.85 81.2582C177.071 81.2582 176.439 80.6177 176.439 79.8277V73.9271C176.439 72.8409 175.57 71.9603 174.499 71.9603C173.427 71.9603 172.558 72.8409 172.558 73.9271V79.8277C172.558 80.6177 171.926 81.2582 171.147 81.2582C170.367 81.2582 169.736 80.6177 169.736 79.8277V73.9271C169.736 72.8409 168.867 71.9603 167.795 71.9603C166.724 71.9603 165.855 72.8409 165.855 73.9271V79.8277C165.855 80.6177 165.223 81.2582 164.444 81.2582C163.664 81.2582 163.032 80.6177 163.032 79.8277V73.9271Z" fill="var(--svg-stroke)"/>
<path d="M162.262 76.2643C162.305 75.9683 162.327 75.6655 162.327 75.3576C162.327 71.9013 159.563 69.0994 156.153 69.0994C152.743 69.0994 149.979 71.9013 149.979 75.3576C149.979 78.8139 152.743 81.6158 156.153 81.6158C156.732 81.6158 157.292 81.535 157.823 81.384L154.283 77.796L155.075 77.0639L154.666 76.6092L153.854 77.3603L151.625 75.1013L152.694 74.0177C153.005 74.2952 153.413 74.4636 153.859 74.4636C154.834 74.4636 155.623 73.663 155.623 72.6755C155.623 72.2227 155.457 71.8092 155.184 71.4941L156.37 70.2916L158.79 72.745L157.917 73.553L158.326 74.0077L159.22 73.1806L162.262 76.2643Z" fill="var(--svg-stroke)"/>
<path d="M155.582 75.74L156.918 74.5049L157.327 74.9595L155.992 76.1946L155.582 75.74Z" fill="var(--svg-stroke)"/>
<path fill-rule="evenodd" clip-rule="evenodd" d="M145.039 71.9603C143.286 71.9603 141.864 73.4012 141.864 75.1788C141.864 76.9563 143.286 78.3973 145.039 78.3973C145.741 78.3973 146.386 78.1681 146.911 77.7791C147.083 77.6515 147.242 77.5068 147.385 77.3474C147.911 76.7638 148.803 76.7225 149.379 77.255C149.955 77.7875 149.996 78.6923 149.47 79.2758C149.2 79.5757 148.901 79.848 148.577 80.0883C147.585 80.8236 146.36 81.2582 145.039 81.2582C141.727 81.2582 139.041 78.5363 139.041 75.1788C139.041 71.8212 141.727 69.0994 145.039 69.0994C146.82 69.0994 148.421 69.8877 149.517 71.1342C150.036 71.7238 149.985 72.6281 149.403 73.1538C148.821 73.6796 147.929 73.6277 147.41 73.0381C146.827 72.3746 145.982 71.9603 145.039 71.9603Z" fill="var(--svg-stroke)"/>
<path fill-rule="evenodd" clip-rule="evenodd" d="M134.631 79.8273C134.631 79.0373 135.263 78.3968 136.043 78.3968H136.395C137.175 78.3968 137.807 79.0373 137.807 79.8273V80.1849C137.807 80.9749 137.175 81.6153 136.395 81.6153H136.043C135.263 81.6153 134.631 80.9749 134.631 80.1849V79.8273Z" fill="var(--svg-stroke)"/>
<path d="M123.518 75.1788C123.518 73.4012 124.939 71.9603 126.693 71.9603C128.447 71.9603 129.868 73.4012 129.868 75.1788C129.868 75.3576 129.868 75.7152 129.868 75.894V79.8277C129.868 79.8277 129.875 80.0853 129.943 80.2888C130.133 80.8526 130.659 81.2582 131.28 81.2582C132.059 81.2582 132.691 80.6177 132.691 79.8277V75.5364C132.691 75.4971 132.689 75.4582 132.686 75.4197C132.689 75.3398 132.691 75.2594 132.691 75.1788C132.691 71.8212 130.006 69.0994 126.693 69.0994C123.381 69.0994 120.695 71.8212 120.695 75.1788C120.695 78.5363 123.381 81.2582 126.693 81.2582C127.437 81.2582 128.151 81.1202 128.81 80.8682V77.5778C128.732 77.6488 128.65 77.716 128.565 77.7791C128.04 78.1681 127.395 78.3973 126.693 78.3973C124.939 78.3973 123.518 76.9563 123.518 75.1788Z" fill="var(--svg-stroke)"/>
<path fill-rule="evenodd" clip-rule="evenodd" d="M116.285 66.5961C116.285 65.8061 116.917 65.1656 117.697 65.1656H118.049C118.829 65.1656 119.461 65.8061 119.461 66.5961V66.9537C119.461 67.7437 118.829 68.3841 118.049 68.3841H117.697C116.917 68.3841 116.285 67.7437 116.285 66.9537V66.5961Z" fill="var(--svg-stroke)"/>
<path fill-rule="evenodd" clip-rule="evenodd" d="M117.873 69.0994C118.652 69.0994 119.284 69.7398 119.284 70.5298V79.8277C119.284 82.5928 117.073 84.8343 114.345 84.8343H113.992C113.213 84.8343 112.581 84.1938 112.581 83.4038C112.581 82.6138 113.213 81.9734 113.992 81.9734H114.345C115.514 81.9734 116.462 81.0127 116.462 79.8277V70.5298C116.462 69.7398 117.094 69.0994 117.873 69.0994Z" fill="var(--svg-stroke)"/>
<path d="M105.525 75.1788C105.525 73.4012 106.946 71.9603 108.7 71.9603C110.454 71.9603 111.875 73.4012 111.875 75.1788C111.875 75.3576 111.875 75.7152 111.875 75.894V79.8277C111.875 79.8277 111.882 80.0853 111.95 80.2888C112.139 80.8526 112.666 81.2582 113.287 81.2582C114.066 81.2582 114.698 80.6177 114.698 79.8277V75.5364C114.698 75.4971 114.696 75.4582 114.693 75.4197C114.696 75.3398 114.698 75.2594 114.698 75.1788C114.698 71.8212 112.012 69.0994 108.7 69.0994C105.388 69.0994 102.702 71.8212 102.702 75.1788C102.702 78.5363 105.388 81.2582 108.7 81.2582C109.444 81.2582 110.158 81.1202 110.817 80.8682V77.5778C110.739 77.6488 110.657 77.716 110.572 77.7791C110.047 78.1681 109.402 78.3973 108.7 78.3973C106.946 78.3973 105.525 76.9563 105.525 75.1788Z" fill="var(--svg-stroke)"/>
<path fill-rule="evenodd" clip-rule="evenodd" d="M97.1843 71.7631C96.9573 71.8375 96.7676 72.0134 96.6802 72.2534C96.527 72.6742 96.7405 73.141 97.1563 73.2944L99.097 74.0104C99.2667 74.073 99.4174 74.1652 99.5455 74.2792C101.289 75.0581 102.157 77.0898 101.488 78.9285C100.884 80.5873 99.203 81.5779 97.4819 81.2895L97.1799 81.2389C97.1 81.2255 97.0228 81.2056 96.9488 81.1797C96.5312 81.1162 96.1394 81.0066 95.7696 80.8291C95.0568 80.4869 94.5852 79.9674 94.1899 79.4649C93.7039 78.8473 93.804 77.9472 94.4134 77.4547C95.0228 76.9622 95.9107 77.0636 96.3966 77.6813C96.7069 78.0757 96.8527 78.1835 96.9778 78.2436C97.1192 78.3115 97.4031 78.3956 98.1132 78.3943C98.2037 78.3941 98.2922 78.4026 98.378 78.4189C98.5863 78.3344 98.7577 78.1638 98.8399 77.9379C98.9963 77.5085 98.7784 77.032 98.354 76.8755L96.4288 76.1652C96.2602 76.103 96.1103 76.0116 95.9828 75.8987C94.2355 75.1288 93.3637 73.0991 94.0323 71.2628C94.6412 69.5907 96.3472 68.6036 98.0773 68.9224L98.1917 68.9435C98.2412 68.9526 98.2896 68.9642 98.3367 68.9782C98.8968 69.0527 99.3981 69.2004 99.8493 69.4291C100.546 69.782 101.012 70.2722 101.362 70.7443C101.829 71.3763 101.703 72.2729 101.079 72.7469C100.456 73.2209 99.5712 73.0928 99.1036 72.4608C98.9237 72.2177 98.7727 72.082 98.5871 71.9879C98.3919 71.889 98.0484 71.7813 97.4101 71.7813C97.3332 71.7813 97.2578 71.7751 97.1843 71.7631Z" fill="var(--svg-stroke)"/>
<path d="M83.2978 75.1788C83.2978 73.4012 84.7195 71.9603 86.4731 71.9603C88.2268 71.9603 89.6484 73.4012 89.6484 75.1788C89.6484 75.3576 89.6484 75.7152 89.6484 75.894V79.8277C89.6484 79.8277 89.655 80.0853 89.7233 80.2888C89.9126 80.8526 90.4394 81.2582 91.0596 81.2582C91.839 81.2582 92.4708 80.6177 92.4708 79.8277V75.5364C92.4708 75.4971 92.4693 75.4582 92.4662 75.4197C92.4693 75.3398 92.4708 75.2594 92.4708 75.1788C92.4708 71.8212 89.7856 69.0994 86.4731 69.0994C83.1607 69.0994 80.4754 71.8212 80.4754 75.1788C80.4754 78.5363 83.1607 81.2582 86.4731 81.2582C87.2174 81.2582 87.9311 81.1202 88.59 80.8682V77.5778C88.5117 77.6488 88.4298 77.716 88.3448 77.7791C87.8201 78.1681 87.1751 78.3973 86.4731 78.3973C84.7195 78.3973 83.2978 76.9563 83.2978 75.1788Z" fill="var(--svg-stroke)"/>
<path fill-rule="evenodd" clip-rule="evenodd" d="M70.9496 75.1788C70.9496 73.4012 72.3712 71.9603 74.1248 71.9603C75.8785 71.9603 77.3001 73.4012 77.3001 75.1788C77.3001 76.9563 75.8785 78.3973 74.1248 78.3973H71.6552V81.2582H74.1248C77.4373 81.2582 80.1226 78.5363 80.1226 75.1788C80.1226 71.8212 77.4373 69.0994 74.1248 69.0994C70.8124 69.0994 68.1271 71.8212 68.1271 75.1788V83.4038C68.1271 84.1938 68.7589 84.8343 69.5383 84.8343C70.3177 84.8343 70.9496 84.1938 70.9496 83.4038V75.1788Z" fill="var(--svg-stroke)"/>
<path d="M57.5429 75.1788C57.5429 73.4012 58.9645 71.9603 60.7182 71.9603C62.4718 71.9603 63.8934 73.4012 63.8934 75.1788C63.8934 75.3576 63.8934 75.7152 63.8934 75.894V79.8277C63.8934 79.8277 63.9 80.0853 63.9683 80.2888C64.1576 80.8526 64.6844 81.2582 65.3046 81.2582C66.084 81.2582 66.7159 80.6177 66.7159 79.8277V75.5364C66.7159 75.4971 66.7143 75.4582 66.7112 75.4197C66.7143 75.3398 66.7159 75.2594 66.7159 75.1788C66.7159 71.8212 64.0306 69.0994 60.7182 69.0994C57.4057 69.0994 54.7204 71.8212 54.7204 75.1788C54.7204 78.5363 57.4057 81.2582 60.7182 81.2582C61.4624 81.2582 62.1762 81.1202 62.835 80.8682V77.5778C62.7567 77.6488 62.6749 77.716 62.5898 77.7791C62.0651 78.1681 61.4201 78.3973 60.7182 78.3973C58.9645 78.3973 57.5429 76.9563 57.5429 75.1788Z" fill="var(--svg-stroke)"/>
<path fill-rule="evenodd" clip-rule="evenodd" d="M46.2531 65.1656C47.0325 65.1656 47.6644 65.8061 47.6644 66.5961V69.0994L52.6037 69.0994C53.3831 69.0994 54.0149 69.7398 54.0149 70.5298C54.0149 71.3198 53.3831 71.9603 52.6037 71.9603H47.6644V74.8212C47.6644 76.7962 49.2439 78.3973 51.1924 78.3973H52.9565C53.7359 78.3973 54.3677 79.0377 54.3677 79.8277C54.3677 80.6177 53.7359 81.2582 52.9565 81.2582H51.1924C47.6851 81.2582 44.8419 78.3762 44.8419 74.8212V66.5961C44.8419 65.8061 45.4737 65.1656 46.2531 65.1656Z" fill="var(--svg-stroke)"/>
<path fill-rule="evenodd" clip-rule="evenodd" d="M34.6689 76.4305H42.3722C43.0542 76.4305 43.6071 75.8702 43.6071 75.1789C43.6071 71.9201 41.0008 69.2783 37.7857 69.2783C34.5707 69.2783 31.9644 71.9201 31.9644 75.1789C31.9644 78.4377 34.5707 81.0795 37.7857 81.0795C39.4365 81.0795 40.9284 80.3814 41.9863 79.264C42.4585 78.7653 42.4424 77.973 41.9504 77.4943C41.4583 77.0157 40.6766 77.032 40.2044 77.5308C39.5929 78.1766 38.7364 78.5762 37.7857 78.5762C36.3707 78.5762 35.1605 77.6874 34.6689 76.4305ZM37.7857 71.7816C36.3707 71.7816 35.1605 72.6704 34.6689 73.9273H40.9026C40.4109 72.6704 39.2007 71.7816 37.7857 71.7816Z" fill="var(--svg-stroke)"/>
<path fill-rule="evenodd" clip-rule="evenodd" d="M23.3206 65.1656C24.1 65.1656 24.7318 65.8061 24.7318 66.5961L24.7318 79.8277C24.7318 80.6177 24.1 81.2582 23.3206 81.2582C22.5412 81.2582 21.9094 80.6177 21.9094 79.8277L21.9094 66.5961C21.9094 65.8061 22.5412 65.1656 23.3206 65.1656Z" fill="var(--svg-stroke)"/>
<path fill-rule="evenodd" clip-rule="evenodd" d="M30.669 70.1108C31.2202 70.6695 31.2202 71.5752 30.669 72.1338L24.9031 77.9783C24.3519 78.5369 23.4584 78.5369 22.9073 77.9783C22.3562 77.4197 22.3562 76.514 22.9073 75.9553L28.6733 70.1108C29.2244 69.5522 30.1179 69.5522 30.669 70.1108Z" fill="var(--svg-stroke)"/>
<path fill-rule="evenodd" clip-rule="evenodd" d="M31.1429 80.8392C30.5918 81.3978 29.6983 81.3978 29.1471 80.8392L25.498 77.1404C24.9469 76.5817 24.9469 75.676 25.498 75.1174C26.0491 74.5588 26.9427 74.5588 27.4938 75.1174L31.1429 78.8162C31.694 79.3749 31.694 80.2806 31.1429 80.8392Z" fill="var(--svg-stroke)"/>
<path fill-rule="evenodd" clip-rule="evenodd" d="M18.3812 69.457C19.1606 69.457 19.7924 70.0974 19.7924 70.8874V79.8277C19.7924 80.6177 19.1606 81.2582 18.3812 81.2582C17.6018 81.2582 16.97 80.6177 16.97 79.8277V70.8874C16.97 70.0974 17.6018 69.457 18.3812 69.457Z" fill="var(--svg-stroke)"/>
<path fill-rule="evenodd" clip-rule="evenodd" d="M16.97 66.5961C16.97 65.8061 17.6018 65.1656 18.3812 65.1656H18.734C19.5134 65.1656 20.1452 65.8061 20.1452 66.5961V66.9537C20.1452 67.7437 19.5134 68.3842 18.734 68.3842H18.3812C17.6018 68.3842 16.97 67.7437 16.97 66.9537V66.5961Z" fill="var(--svg-stroke)"/>
<path fill-rule="evenodd" clip-rule="evenodd" d="M8.14988 65.1656C8.92928 65.1656 9.56111 65.8061 9.56111 66.5961V69.0994L14.5004 69.0994C15.2798 69.0994 15.9116 69.7398 15.9116 70.5298C15.9116 71.3198 15.2798 71.9603 14.5004 71.9603H9.56111L9.56111 74.8212C9.56111 76.7962 11.1407 78.3973 13.0892 78.3973H14.8532C15.6326 78.3973 16.2644 79.0377 16.2644 79.8277C16.2644 80.6177 15.6326 81.2582 14.8532 81.2582H13.0892C9.58188 81.2582 6.73865 78.3762 6.73865 74.8212V66.5961C6.73865 65.8061 7.37048 65.1656 8.14988 65.1656Z" fill="var(--svg-stroke)"/>
<style><![CDATA[ :root{ --svg-stroke: #2B2727 } ]]></style>
</svg>
