<svg width="186" height="150" viewBox="0 0 186 150" fill="none" xmlns="http://www.w3.org/2000/svg">
<path d="M48.4771 54.7195V90.9773C48.5533 97.071 47.3345 101.337 44.897 103.927C41.9263 107.354 37.2798 109.03 30.8814 108.954L23.1119 108.04C20.522 107.43 18.2369 106.669 16.4087 105.602L17.0181 97.9089C20.8267 100.194 25.0162 101.337 29.4341 101.413C32.3287 101.413 34.4615 100.727 35.9849 99.3562C37.5083 97.9851 38.1939 95.5476 38.1177 91.9675V89.9109C35.604 91.8914 32.3287 92.9578 28.3677 93.1101C23.7974 93.1101 20.2935 91.8914 17.9322 89.3777C15.647 86.864 14.5044 83.5125 14.6568 79.2468V54.7195H25.0162V77.6472C24.8638 80.0847 25.3208 81.9128 26.3111 83.1316C27.3013 84.5027 28.9771 85.2644 31.2623 85.2644C33.6998 85.1882 35.5279 84.3503 36.5943 82.8269C37.6607 81.3035 38.1939 79.0945 38.1177 76.2761V54.7195H48.4771Z" fill="#435059"/>
<path d="M169.071 84.8835L168.69 90.9011C166.938 92.1199 164.653 92.8054 161.759 92.8816C158.331 92.8816 156.122 91.5105 155.055 88.7683C152.694 91.5867 149.266 93.0339 144.696 93.1101C140.583 93.1101 137.384 91.9675 134.946 89.8347C132.509 87.7019 131.29 84.5789 131.29 80.5417C131.29 76.4285 132.661 73.3054 135.327 71.0964C137.917 68.9636 141.497 67.8972 146.067 67.8972C149.038 67.9734 151.628 68.3542 153.837 69.116V68.1257C153.913 65.8406 153.456 64.0125 152.389 62.7937C151.171 61.575 148.962 60.8894 145.915 60.8132C142.106 60.8132 138.298 61.7273 134.641 63.5554V56.6238C138.298 55.0242 142.639 54.1863 147.591 54.1101C153.532 54.1101 157.95 55.405 160.845 58.071C163.13 60.2039 164.196 63.4031 164.196 67.6687V83.5886C164.196 85.1121 164.805 85.8738 166.024 85.8738C167.167 85.7976 168.157 85.4929 169.071 84.8835ZM153.837 79.8562V74.8289C152.389 74.2957 150.561 73.991 148.429 73.9148C143.858 74.2195 141.573 76.2761 141.649 80.0847C141.802 84.198 143.858 86.2546 147.667 86.2546C149.647 86.2546 151.171 85.6453 152.237 84.5027C153.304 83.4363 153.837 81.8367 153.837 79.8562Z" fill="#435059"/>
<path fill-rule="evenodd" clip-rule="evenodd" d="M75.317 49.7681C75.317 53.9279 75.2688 57.3797 75.2099 57.439C75.1509 57.4982 74.4166 57.0848 73.5777 56.5201C69.1528 53.5416 65.5679 53.0961 60.6539 54.9135C54.4841 57.1956 51.57 62.6187 51.3107 72.3013C51.1716 77.4985 51.5393 79.9859 53.0009 83.7398C53.8107 85.8192 55.31 87.3411 58.3815 89.2014C68.9227 95.5862 78.9115 95.0075 89.54 87.3962C90.3356 86.8265 90.4497 86.7928 90.6592 87.0645C90.7876 87.2308 91.69 87.9057 92.6646 88.5641C102.294 95.0681 113.098 95.165 122.651 88.8333C127.298 85.7532 128.708 82.9601 129.251 75.7664C130.007 65.7476 127.144 58.4276 121.353 55.5734C115.956 52.9135 111.373 53.3217 106.41 56.9046C105.609 57.483 104.916 57.9563 104.871 57.9563C104.826 57.9563 104.789 54.4123 104.789 50.0806V42.205H94.7165V70.1348L93.5507 71.5346C92.9096 72.3045 91.9651 73.4401 91.4522 74.0582C90.9392 74.6762 90.4503 75.1878 90.3658 75.1949C90.1903 75.2097 89.0011 73.9256 86.8666 71.4161L85.3898 69.6799V42.205H75.317V49.7681ZM61.5595 76.2172C61.4211 65.7176 62.5961 63.0031 67.7623 61.8878C68.7013 61.6851 70.7019 61.8312 71.4839 62.1595L71.6281 62.2199C71.9277 62.3449 72.1769 62.4489 72.4107 62.5803C73.566 63.2294 74.3459 64.5468 78.98 72.3741L79.4336 73.1403C80.5007 74.9425 82.0674 77.4102 82.9154 78.6242C83.7634 79.8384 84.4571 80.9126 84.4571 81.0117C84.4571 81.2811 79.3619 84.6212 77.6486 85.4749C74.3973 87.0951 71.7127 87.7602 67.8556 87.9016L64.9643 88.0077L64.0652 87.0397C62.0117 84.8289 61.6526 83.2782 61.5595 76.2172ZM110.26 61.5274C109.375 61.7033 108.509 62.1115 107.65 62.7571C107.063 63.1989 105.502 65.6666 101.162 73.0156C99.955 75.0584 98.3051 77.6606 97.4949 78.798C97.3697 78.974 97.2541 79.1357 97.1477 79.2845L97.1445 79.289C96.2821 80.4956 96.0275 80.8518 96.1137 81.0784C96.1498 81.1734 96.2457 81.2456 96.3818 81.3481C96.4221 81.3785 96.4661 81.4116 96.513 81.4488C101.662 85.5201 107.021 87.6775 112.531 87.8967L115.142 88.0008L115.82 87.4641C117.397 86.2152 118.586 83.6517 118.991 80.6265C119.283 78.4432 119.093 69.503 118.719 67.8686C117.828 63.97 116.069 62.1651 112.543 61.5308L112.488 61.5209C111.881 61.4116 111.594 61.3599 111.308 61.3653C111.051 61.3701 110.795 61.4209 110.31 61.5173L110.26 61.5274ZM61.4424 55.3255C60.6037 55.3024 63.7115 54.4918 65.2441 54.3337C69.9211 53.8512 75.1923 57.2983 80.5324 64.3319C82.4239 66.823 85.7444 70.9137 87.6749 73.1309C88.8804 74.5155 89.8666 75.7175 89.8666 75.8023C89.8666 76.1113 85.2881 80.4639 85.0167 80.4127C84.8628 80.3837 84.1391 79.5008 83.4084 78.4506C82.0469 76.4935 81.1493 75.037 76.7949 67.7175C72.6939 60.8242 70.0502 58.0295 66.1005 56.4127C65.0469 55.9814 62.3416 55.35 61.4424 55.3255ZM93.0843 83.9729C91.8277 85.2763 90.7993 86.4039 90.7993 86.4787C90.7993 86.69 92.3832 87.808 94.5811 89.1478C102.983 94.2694 112.766 94.2314 121.344 89.0439C122.396 88.4079 123.256 87.8193 123.256 87.7358C123.256 87.7193 123.258 87.704 123.26 87.6902C123.263 87.6684 123.265 87.6501 123.259 87.6363C123.225 87.5661 122.954 87.6106 121.308 87.8818C121.103 87.9157 120.876 87.9531 120.625 87.9942C116.689 88.6406 110.827 88.6072 108.139 87.9229C103.92 86.8492 101.269 85.512 96.6751 82.1431C95.608 81.3602 95.5992 81.3647 93.0843 83.9729ZM108.202 56.3133C110.016 55.2193 111.531 54.6328 113.09 54.4194C114.405 54.2398 115.582 54.3142 117.38 54.6911C119.188 55.0697 119.436 55.2685 118.298 55.4239C115.064 55.8651 111.317 57.6642 109.639 59.5806C109.383 59.8735 108.764 60.5772 108.264 61.1443C107.763 61.7113 107.153 62.4087 106.907 62.6939C106.394 63.2889 103.732 67.5778 101.992 70.6137C98.0823 77.4312 95.6251 80.8316 92.0825 84.3268C83.0156 93.2715 71.6437 95.4013 61.1381 90.1219C58.8477 88.971 56.76 87.5839 57.3179 87.5839C57.3821 87.5839 58.5412 87.7679 59.8938 87.9929C62.9087 88.4941 69.6193 88.5989 71.493 88.1738C75.4733 87.271 79.3256 85.4961 82.4525 83.1246C83.0428 82.6768 83.7481 82.1945 84.0201 82.0527C84.9949 81.5444 89.3042 77.3228 91.6419 74.586C94.6604 71.0525 95.8926 69.5595 97.7703 67.1609C103.335 60.0524 105.177 58.1367 108.202 56.3133Z" fill="#EA1B23"/>
<path d="M168.081 138.705L167.689 137.617H165.851L165.477 138.705H164.419L166.557 133.267H166.975L169.132 138.705H168.081ZM166.766 134.907L166.122 136.889H167.411L166.766 134.907Z" fill="#084FA4"/>
<path d="M163.202 138.705L161.77 136.489C161.626 136.487 161.425 136.478 161.166 136.464V138.705H160.177V133.34C160.231 133.34 160.437 133.331 160.796 133.314C161.155 133.295 161.444 133.285 161.664 133.285C163.026 133.285 163.708 133.812 163.708 134.867C163.708 135.184 163.614 135.474 163.426 135.735C163.238 135.996 163.001 136.181 162.715 136.288L164.301 138.705H163.202ZM161.166 134.168V135.658C161.342 135.673 161.476 135.68 161.569 135.68C161.967 135.68 162.257 135.624 162.44 135.512C162.626 135.399 162.719 135.181 162.719 134.856C162.719 134.592 162.62 134.408 162.422 134.303C162.224 134.198 161.913 134.146 161.488 134.146C161.386 134.146 161.278 134.153 161.166 134.168Z" fill="#084FA4"/>
<path d="M157.58 134.186V138.705H156.628V134.186H154.921V133.34H159.364V134.186H157.58Z" fill="#084FA4"/>
<path d="M151.116 138.408L151.467 137.555C151.843 137.819 152.213 137.951 152.577 137.951C153.136 137.951 153.416 137.755 153.416 137.365C153.416 137.182 153.35 137.007 153.218 136.841C153.086 136.675 152.814 136.489 152.401 136.284C151.991 136.077 151.714 135.907 151.57 135.775C151.428 135.641 151.318 135.482 151.24 135.299C151.165 135.116 151.127 134.913 151.127 134.691C151.127 134.276 151.278 133.932 151.581 133.659C151.886 133.385 152.277 133.248 152.753 133.248C153.373 133.248 153.828 133.364 154.119 133.596L153.829 134.417C153.495 134.177 153.142 134.058 152.771 134.058C152.551 134.058 152.38 134.116 152.258 134.234C152.139 134.348 152.079 134.498 152.079 134.684C152.079 134.992 152.419 135.311 153.101 135.643C153.459 135.819 153.718 135.982 153.877 136.13C154.036 136.277 154.156 136.449 154.24 136.647C154.323 136.842 154.364 137.061 154.364 137.302C154.364 137.737 154.192 138.095 153.848 138.375C153.506 138.656 153.047 138.797 152.471 138.797C151.97 138.797 151.519 138.667 151.116 138.408Z" fill="#084FA4"/>
<path d="M149.562 138.705L149.17 137.617H147.332L146.958 138.705H145.9L148.039 133.267H148.456L150.613 138.705H149.562ZM148.248 134.907L147.603 136.889H148.892L148.248 134.907Z" fill="#084FA4"/>
<path d="M143.083 133.798C142.941 133.749 142.809 133.724 142.687 133.724C142.475 133.724 142.299 133.805 142.16 133.966C142.023 134.127 141.955 134.331 141.955 134.578C141.955 134.644 141.961 134.712 141.973 134.783H142.771V135.369H141.973V138.705H141.277V135.369H140.706V134.783H141.277C141.277 134.282 141.4 133.889 141.647 133.604C141.894 133.318 142.219 133.175 142.625 133.175C142.827 133.175 143.045 133.212 143.277 133.285L143.083 133.798Z" fill="#084FA4"/>
<path d="M136.49 136.735C136.49 136.129 136.652 135.641 136.977 135.27C137.304 134.896 137.734 134.71 138.266 134.71C138.828 134.71 139.263 134.889 139.573 135.248C139.884 135.604 140.039 136.1 140.039 136.735C140.039 137.367 139.88 137.866 139.562 138.233C139.245 138.596 138.813 138.778 138.266 138.778C137.707 138.778 137.271 138.594 136.959 138.225C136.646 137.857 136.49 137.36 136.49 136.735ZM137.222 136.735C137.222 137.719 137.57 138.211 138.266 138.211C138.591 138.211 138.845 138.079 139.028 137.815C139.213 137.551 139.306 137.191 139.306 136.735C139.306 135.763 138.959 135.277 138.266 135.277C137.949 135.277 137.695 135.407 137.504 135.665C137.316 135.924 137.222 136.281 137.222 136.735Z" fill="#084FA4"/>
<path d="M133.324 135.453C133.173 135.348 133.021 135.296 132.867 135.296C132.62 135.296 132.404 135.409 132.219 135.636C132.035 135.863 131.944 136.137 131.944 136.456V138.705H131.248V134.783H131.944V135.409C132.198 134.943 132.575 134.71 133.075 134.71C133.2 134.71 133.379 134.732 133.614 134.776L133.324 135.453Z" fill="#084FA4"/>
<path d="M130.215 136.812H127.387C127.387 137.271 127.513 137.623 127.765 137.87C127.987 138.085 128.272 138.192 128.622 138.192C129.02 138.192 129.352 138.076 129.618 137.844L129.911 138.346C129.803 138.453 129.638 138.546 129.416 138.624C129.138 138.727 128.828 138.778 128.486 138.778C127.993 138.778 127.574 138.611 127.23 138.276C126.847 137.908 126.655 137.412 126.655 136.79C126.655 136.143 126.852 135.624 127.245 135.233C127.596 134.884 128.012 134.71 128.493 134.71C129.052 134.71 129.491 134.867 129.808 135.182C130.116 135.485 130.27 135.886 130.27 136.387C130.27 136.541 130.251 136.682 130.215 136.812ZM128.526 135.296C128.216 135.296 127.956 135.396 127.746 135.596C127.546 135.786 127.433 136.023 127.406 136.306H129.577C129.577 136.026 129.49 135.791 129.314 135.603C129.121 135.398 128.858 135.296 128.526 135.296Z" fill="#084FA4"/>
<path d="M123.135 138.423L122.89 138.778H122.542V133.175H123.238V135.072C123.303 134.982 123.427 134.899 123.607 134.823C123.791 134.747 123.97 134.71 124.146 134.71C124.683 134.71 125.117 134.895 125.449 135.266C125.784 135.637 125.951 136.106 125.951 136.672C125.951 137.327 125.784 137.842 125.449 138.218C125.115 138.591 124.662 138.778 124.091 138.778C123.905 138.778 123.722 138.744 123.542 138.676C123.363 138.605 123.228 138.521 123.135 138.423ZM123.238 135.603V137.866C123.238 137.905 123.324 137.97 123.498 138.06C123.671 138.148 123.803 138.192 123.893 138.192C124.367 138.192 124.706 138.079 124.911 137.852C125.116 137.625 125.219 137.244 125.219 136.709C125.219 136.265 125.099 135.918 124.86 135.669C124.621 135.42 124.298 135.296 123.893 135.296C123.808 135.296 123.688 135.332 123.534 135.405C123.383 135.479 123.284 135.545 123.238 135.603Z" fill="#084FA4"/>
<path d="M120.67 138.705V136.222C120.67 135.604 120.402 135.296 119.868 135.296C119.699 135.296 119.542 135.348 119.395 135.453C119.249 135.556 119.149 135.673 119.095 135.805V138.705H118.399V135.918C118.399 135.725 118.326 135.574 118.179 135.464C118.035 135.352 117.844 135.296 117.604 135.296C117.465 135.296 117.316 135.349 117.158 135.457C117.001 135.564 116.89 135.682 116.824 135.812V138.705H116.129V134.783H116.583L116.813 135.237C117.082 134.885 117.418 134.71 117.821 134.71C118.382 134.71 118.775 134.884 119 135.233C119.078 135.084 119.223 134.96 119.436 134.86C119.648 134.76 119.866 134.71 120.091 134.71C120.496 134.71 120.81 134.83 121.032 135.072C121.254 135.311 121.365 135.648 121.365 136.083V138.705H120.67Z" fill="#084FA4"/>
<path d="M115.15 136.812H112.323C112.323 137.271 112.449 137.623 112.7 137.87C112.922 138.085 113.208 138.192 113.557 138.192C113.955 138.192 114.287 138.076 114.553 137.844L114.846 138.346C114.739 138.453 114.574 138.546 114.352 138.624C114.073 138.727 113.763 138.778 113.422 138.778C112.928 138.778 112.51 138.611 112.166 138.276C111.782 137.908 111.591 137.412 111.591 136.79C111.591 136.143 111.787 135.624 112.18 135.233C112.532 134.884 112.948 134.71 113.429 134.71C113.988 134.71 114.426 134.867 114.744 135.182C115.051 135.485 115.205 135.886 115.205 136.387C115.205 136.541 115.187 136.682 115.15 136.812ZM113.462 135.296C113.152 135.296 112.892 135.396 112.682 135.596C112.482 135.786 112.368 136.023 112.341 136.306H114.513C114.513 136.026 114.425 135.791 114.249 135.603C114.056 135.398 113.794 135.296 113.462 135.296Z" fill="#084FA4"/>
<path d="M109.975 138.705V136.222C109.975 135.604 109.708 135.296 109.173 135.296C109.004 135.296 108.847 135.348 108.7 135.453C108.554 135.556 108.454 135.673 108.4 135.805V138.705H107.704V135.918C107.704 135.725 107.631 135.574 107.485 135.464C107.341 135.352 107.149 135.296 106.91 135.296C106.771 135.296 106.622 135.349 106.463 135.457C106.307 135.564 106.196 135.682 106.13 135.812V138.705H105.434V134.783H105.888L106.119 135.237C106.387 134.885 106.723 134.71 107.126 134.71C107.687 134.71 108.08 134.884 108.305 135.233C108.383 135.084 108.528 134.96 108.741 134.86C108.953 134.76 109.172 134.71 109.396 134.71C109.802 134.71 110.115 134.83 110.337 135.072C110.56 135.311 110.671 135.648 110.671 136.083V138.705H109.975Z" fill="#084FA4"/>
<path d="M171.357 126.744L171.32 127.366C171.149 127.476 170.917 127.537 170.649 127.537C170.112 127.55 169.819 127.318 169.745 126.842C169.379 127.354 168.842 127.598 168.134 127.598C167.499 127.598 166.999 127.427 166.608 127.086C166.218 126.756 166.022 126.268 166.01 125.633C166.01 125.023 166.205 124.534 166.62 124.168C167.023 123.802 167.621 123.619 168.415 123.607L169.672 123.765V123.436C169.672 122.996 169.587 122.667 169.391 122.447C169.172 122.191 168.793 122.056 168.256 122.032C167.634 122.056 167.072 122.191 166.572 122.435L166.547 121.727C167.023 121.507 167.621 121.373 168.354 121.348C169.184 121.348 169.794 121.556 170.209 121.983C170.502 122.313 170.649 122.789 170.649 123.424V126.341C170.624 126.695 170.734 126.866 170.978 126.854C171.113 126.854 171.235 126.817 171.357 126.744ZM169.672 125.328V124.425L168.512 124.278C167.438 124.339 166.926 124.779 166.987 125.584C166.987 126.036 167.121 126.365 167.365 126.585C167.597 126.805 167.89 126.915 168.256 126.915C168.757 126.915 169.123 126.768 169.355 126.475C169.574 126.195 169.672 125.816 169.672 125.328Z" fill="#435059"/>
<path d="M165.002 121.385V122.203L164.673 122.178C164.197 122.178 163.843 122.337 163.598 122.655C163.318 122.996 163.183 123.521 163.208 124.229V127.501H162.231V122.178H161.535V121.47H162.903L163.086 122.325C163.427 121.69 163.952 121.373 164.66 121.348L165.002 121.385Z" fill="#435059"/>
<path d="M160.772 126.634L160.76 127.342C160.43 127.513 160.039 127.598 159.6 127.598C159.063 127.598 158.648 127.427 158.379 127.11C158.147 126.842 158.037 126.402 158.062 125.792V122.178H157.171V121.446H158.062V119.871L159.038 119.542V121.446H160.491V122.178H159.038V125.767C159.038 126.158 159.099 126.439 159.221 126.61C159.344 126.805 159.551 126.89 159.856 126.878C160.222 126.878 160.528 126.793 160.772 126.634Z" fill="#435059"/>
<path d="M156.285 125.828C156.273 126.341 156.077 126.768 155.699 127.098C155.308 127.427 154.771 127.598 154.063 127.598C153.367 127.586 152.745 127.452 152.183 127.196L152.269 126.402C152.818 126.707 153.416 126.866 154.051 126.866C154.906 126.829 155.345 126.512 155.369 125.926C155.357 125.596 155.223 125.352 154.979 125.181C154.735 125.01 154.381 124.852 153.917 124.693C153.465 124.559 153.074 124.376 152.757 124.132C152.415 123.887 152.244 123.521 152.244 123.009C152.257 122.471 152.464 122.056 152.879 121.776C153.294 121.495 153.807 121.348 154.417 121.348C154.954 121.373 155.43 121.446 155.87 121.593V122.349C155.406 122.142 154.918 122.032 154.405 122.032C153.587 122.069 153.172 122.362 153.16 122.923C153.184 123.436 153.612 123.79 154.442 124.01C154.954 124.18 155.382 124.388 155.736 124.632C156.077 124.888 156.26 125.291 156.285 125.828Z" fill="#435059"/>
<path d="M148.295 119.591L151.151 127.501H150.101L149.454 125.694H146.219L145.634 127.501H144.62L147.037 120.335H146.305V119.591H148.295ZM146.464 124.962H149.222L147.965 121.361C147.88 121.177 147.819 120.933 147.782 120.628H147.77L147.635 121.361L146.464 124.962Z" fill="#435059"/>
<path d="M140.102 119.737C140.053 120.128 139.846 120.335 139.468 120.372C139.101 120.335 138.894 120.128 138.869 119.737C138.894 119.359 139.101 119.151 139.468 119.115C139.846 119.151 140.053 119.359 140.102 119.737ZM140.749 126.756L140.688 127.379C140.53 127.489 140.31 127.55 140.017 127.55C139.675 127.55 139.431 127.464 139.284 127.281C139.138 127.11 139.065 126.854 139.065 126.488V122.154H138.369V121.446H140.041V126.341C140.017 126.719 140.127 126.89 140.371 126.866L140.749 126.756Z" fill="#435059"/>
<path d="M137.556 126.634L137.544 127.342C137.215 127.513 136.824 127.598 136.385 127.598C135.847 127.598 135.432 127.427 135.164 127.11C134.932 126.842 134.822 126.402 134.846 125.792V122.178H133.955V121.446H134.846V119.871L135.823 119.542V121.446H137.276V122.178H135.823V125.767C135.823 126.158 135.884 126.439 136.006 126.61C136.128 126.805 136.336 126.89 136.641 126.878C137.007 126.878 137.312 126.793 137.556 126.634Z" fill="#435059"/>
<path d="M133.448 126.768L133.424 127.391C133.253 127.489 133.057 127.55 132.813 127.55C132.337 127.574 131.971 127.342 131.715 126.842L130.36 124.473H129.432V127.501H128.455V119.676H127.76V118.956H129.432V123.741H130.36L131.934 121.446H132.935L131.153 124.058L132.52 126.451C132.667 126.744 132.862 126.878 133.082 126.866C133.216 126.866 133.338 126.842 133.448 126.768Z" fill="#435059"/>
<path d="M127.045 126.744L127.008 127.366C126.837 127.476 126.605 127.537 126.337 127.537C125.8 127.55 125.507 127.318 125.433 126.842C125.067 127.354 124.53 127.598 123.822 127.598C123.187 127.598 122.687 127.427 122.296 127.086C121.906 126.756 121.71 126.268 121.698 125.633C121.698 125.023 121.893 124.534 122.308 124.168C122.711 123.802 123.309 123.619 124.103 123.607L125.36 123.765V123.436C125.36 122.996 125.275 122.667 125.079 122.447C124.86 122.191 124.481 122.056 123.944 122.032C123.322 122.056 122.76 122.191 122.26 122.435L122.235 121.727C122.711 121.507 123.309 121.373 124.042 121.348C124.872 121.348 125.482 121.556 125.897 121.983C126.19 122.313 126.337 122.789 126.337 123.424V126.341C126.312 126.695 126.422 126.866 126.666 126.854C126.801 126.854 126.923 126.817 127.045 126.744ZM125.36 125.328V124.425L124.2 124.278C123.126 124.339 122.614 124.779 122.675 125.584C122.675 126.036 122.809 126.365 123.053 126.585C123.285 126.805 123.578 126.915 123.944 126.915C124.445 126.915 124.811 126.768 125.043 126.475C125.262 126.195 125.36 125.816 125.36 125.328Z" fill="#435059"/>
<path d="M120.092 123.643V127.501H119.115V123.753C119.14 123.192 119.042 122.777 118.81 122.508C118.578 122.264 118.237 122.13 117.773 122.13C117.248 122.142 116.857 122.301 116.613 122.594C116.344 122.886 116.21 123.363 116.235 124.034V127.501H115.258V118.956H116.235V122.056C116.613 121.605 117.187 121.373 117.944 121.348C118.676 121.373 119.238 121.593 119.628 122.008C119.97 122.435 120.116 122.984 120.092 123.643Z" fill="#435059"/>
<path d="M113.628 125.242C113.615 126.073 113.347 126.658 112.834 127C112.309 127.354 111.577 127.525 110.625 127.501H108.22V120.323H107.524V119.591H110.49C111.296 119.566 111.931 119.713 112.407 120.006C112.92 120.372 113.188 120.872 113.188 121.531C113.188 122.398 112.846 122.984 112.163 123.277C113.115 123.472 113.603 124.119 113.628 125.242ZM112.163 121.629C112.163 121.19 112.004 120.848 111.662 120.579C111.394 120.396 110.967 120.311 110.381 120.323H109.282V123.07H110.393C111.052 123.082 111.528 122.96 111.797 122.716C112.041 122.484 112.163 122.117 112.163 121.629ZM112.517 125.218C112.517 124.754 112.395 124.388 112.126 124.144C111.76 123.851 111.211 123.717 110.466 123.741H109.282V126.768H110.442C111.223 126.781 111.76 126.658 112.065 126.402C112.37 126.158 112.517 125.767 112.517 125.218Z" fill="#435059"/>
<path d="M103.958 126.744L103.922 127.366C103.751 127.476 103.519 127.537 103.25 127.537C102.713 127.55 102.42 127.318 102.347 126.842C101.981 127.354 101.444 127.598 100.736 127.598C100.101 127.598 99.6003 127.427 99.2097 127.086C98.8191 126.756 98.6238 126.268 98.6116 125.633C98.6116 125.023 98.8069 124.534 99.2219 124.168C99.6248 123.802 100.223 123.619 101.016 123.607L102.274 123.765V123.436C102.274 122.996 102.188 122.667 101.993 122.447C101.773 122.191 101.395 122.056 100.858 122.032C100.235 122.056 99.6736 122.191 99.1731 122.435L99.1487 121.727C99.6248 121.507 100.223 121.373 100.955 121.348C101.785 121.348 102.396 121.556 102.811 121.983C103.104 122.313 103.25 122.789 103.25 123.424V126.341C103.226 126.695 103.336 126.866 103.58 126.854C103.714 126.854 103.836 126.817 103.958 126.744ZM102.274 125.328V124.425L101.114 124.278C100.04 124.339 99.5271 124.779 99.5881 125.584C99.5881 126.036 99.7224 126.365 99.9666 126.585C100.198 126.805 100.491 126.915 100.858 126.915C101.358 126.915 101.724 126.768 101.956 126.475C102.176 126.195 102.274 125.816 102.274 125.328Z" fill="#435059"/>
<path d="M97.03 123.631V127.501H96.0535V123.753C96.0779 123.167 95.9802 122.752 95.7483 122.496C95.5042 122.252 95.1746 122.117 94.7351 122.117C94.2468 122.117 93.8684 122.276 93.5999 122.569C93.3313 122.874 93.197 123.363 93.2214 124.022V127.501H92.2449V123.753C92.2693 123.167 92.1716 122.752 91.9519 122.496C91.72 122.252 91.3904 122.117 90.9509 122.117C90.4749 122.117 90.1086 122.276 89.8401 122.569C89.5715 122.874 89.4373 123.363 89.4617 124.022V127.501H88.4851V122.178H87.7893V121.446H89.1321L89.303 122.191C89.6936 121.654 90.2917 121.373 91.1096 121.348C91.4758 121.348 91.8298 121.434 92.1716 121.58C92.5134 121.727 92.782 121.971 92.9651 122.301C93.3435 121.69 93.9905 121.373 94.906 121.348C95.6384 121.373 96.2 121.593 96.5662 121.995C96.908 122.41 97.0544 122.948 97.03 123.631Z" fill="#435059"/>
<path d="M87.0378 121.385V122.203L86.7083 122.178C86.2322 122.178 85.8782 122.337 85.634 122.655C85.3533 122.996 85.219 123.521 85.2434 124.229V127.501H84.2668V122.178H83.571V121.47H84.9382L85.1213 122.325C85.4631 121.69 85.988 121.373 86.696 121.348L87.0378 121.385Z" fill="#435059"/>
<path d="M82.8074 126.744L82.7708 127.366C82.5999 127.476 82.3679 127.537 82.0994 127.537C81.5623 127.55 81.2693 127.318 81.196 126.842C80.8298 127.354 80.2927 127.598 79.5847 127.598C78.95 127.598 78.4495 127.427 78.0588 127.086C77.6682 126.756 77.4729 126.268 77.4607 125.633C77.4607 125.023 77.656 124.534 78.071 124.168C78.4739 123.802 79.072 123.619 79.8655 123.607L81.1228 123.765V123.436C81.1228 122.996 81.0374 122.667 80.842 122.447C80.6223 122.191 80.2439 122.056 79.7068 122.032C79.0842 122.056 78.5227 122.191 78.0222 122.435L77.9978 121.727C78.4739 121.507 79.072 121.373 79.8044 121.348C80.6345 121.348 81.2449 121.556 81.6599 121.983C81.9529 122.313 82.0994 122.789 82.0994 123.424V126.341C82.075 126.695 82.1848 126.866 82.429 126.854C82.5632 126.854 82.6853 126.817 82.8074 126.744ZM81.1228 125.328V124.425L79.9631 124.278C78.8889 124.339 78.3762 124.779 78.4373 125.584C78.4373 126.036 78.5715 126.365 78.8157 126.585C79.0476 126.805 79.3406 126.915 79.7068 126.915C80.2073 126.915 80.5735 126.768 80.8054 126.475C81.0251 126.195 81.1228 125.816 81.1228 125.328Z" fill="#435059"/>
<path d="M75.8547 123.643V127.501H74.8782V123.753C74.9026 123.192 74.8049 122.777 74.573 122.508C74.3411 122.264 73.9993 122.13 73.5354 122.13C73.0105 122.142 72.6199 122.301 72.3757 122.594C72.1072 122.886 71.9729 123.363 71.9973 124.034V127.501H71.0208V118.956H71.9973V122.056C72.3757 121.605 72.9495 121.373 73.7063 121.348C74.4387 121.373 75.0002 121.593 75.3909 122.008C75.7327 122.435 75.8792 122.984 75.8547 123.643Z" fill="#435059"/>
<path d="M69.4026 123.497C69.4026 125.169 68.9509 126.304 68.0476 126.89C67.4861 127.305 66.6682 127.501 65.594 127.501H63.3601V120.323H62.6643V119.591H65.3621C66.2898 119.591 67.0222 119.725 67.5837 119.993C68.1819 120.262 68.6335 120.665 68.9387 121.214C69.2439 121.776 69.4026 122.545 69.4026 123.497ZM68.2917 123.46C68.3162 121.971 67.8889 121.019 66.9856 120.616C66.595 120.433 66.0334 120.335 65.2766 120.323H64.4221V126.768H65.4475C66.3752 126.793 67.0833 126.573 67.5593 126.085C68.072 125.523 68.3162 124.656 68.2917 123.46Z" fill="#435059"/>
<path d="M58.5369 123.631V127.501H57.5603V123.753C57.5847 123.179 57.4871 122.764 57.2551 122.496C57.0232 122.252 56.6814 122.117 56.2175 122.117C55.6926 122.13 55.302 122.288 55.0579 122.581C54.7893 122.874 54.655 123.35 54.6794 124.022V127.501H53.7029V122.178H53.0071V121.446H54.3499L54.5208 122.203C54.887 121.641 55.5095 121.361 56.3884 121.348C57.1208 121.373 57.6824 121.58 58.073 121.995C58.4148 122.423 58.5613 122.972 58.5369 123.631Z" fill="#435059"/>
<path d="M52.2434 126.744L52.2068 127.366C52.0359 127.476 51.804 127.537 51.5354 127.537C50.9983 127.55 50.7053 127.318 50.6321 126.842C50.2659 127.354 49.7288 127.598 49.0208 127.598C48.386 127.598 47.8855 127.427 47.4949 127.086C47.1042 126.756 46.9089 126.268 46.8967 125.633C46.8967 125.023 47.092 124.534 47.5071 124.168C47.9099 123.802 48.5081 123.619 49.3015 123.607L50.5588 123.765V123.436C50.5588 122.996 50.4734 122.667 50.2781 122.447C50.0583 122.191 49.6799 122.056 49.1428 122.032C48.5203 122.056 47.9587 122.191 47.4583 122.435L47.4338 121.727C47.9099 121.507 48.5081 121.373 49.2405 121.348C50.0706 121.348 50.6809 121.556 51.0959 121.983C51.3889 122.313 51.5354 122.789 51.5354 123.424V126.341C51.511 126.695 51.6208 126.866 51.865 126.854C51.9993 126.854 52.1213 126.817 52.2434 126.744ZM50.5588 125.328V124.425L49.3992 124.278C48.325 124.339 47.8123 124.779 47.8733 125.584C47.8733 126.036 48.0076 126.365 48.2517 126.585C48.4836 126.805 48.7766 126.915 49.1428 126.915C49.6433 126.915 50.0095 126.768 50.2415 126.475C50.4612 126.195 50.5588 125.816 50.5588 125.328Z" fill="#435059"/>
<path d="M45.7058 125.828C45.6936 126.341 45.4983 126.768 45.1199 127.098C44.7292 127.427 44.1921 127.598 43.4841 127.598C42.7883 127.586 42.1658 127.452 41.6042 127.196L41.6897 126.402C42.239 126.707 42.8372 126.866 43.4719 126.866C44.3264 126.829 44.7659 126.512 44.7903 125.926C44.7781 125.596 44.6438 125.352 44.3997 125.181C44.1555 125.01 43.8015 124.852 43.3376 124.693C42.886 124.559 42.4954 124.376 42.178 124.132C41.8362 123.887 41.6653 123.521 41.6653 123.009C41.6775 122.471 41.885 122.056 42.3 121.776C42.7151 121.495 43.2278 121.348 43.8381 121.348C44.3752 121.373 44.8513 121.446 45.2908 121.593V122.349C44.8269 122.142 44.3386 122.032 43.8259 122.032C43.0081 122.069 42.593 122.362 42.5808 122.923C42.6052 123.436 43.0325 123.79 43.8625 124.01C44.3752 124.18 44.8025 124.388 45.1565 124.632C45.4983 124.888 45.6814 125.291 45.7058 125.828Z" fill="#435059"/>
<path d="M40.5354 126.744L40.4988 127.366C40.3279 127.476 40.0959 127.537 39.8274 127.537C39.2903 127.55 38.9973 127.318 38.9241 126.842C38.5579 127.354 38.0208 127.598 37.3127 127.598C36.678 127.598 36.1775 127.427 35.7869 127.086C35.3962 126.756 35.2009 126.268 35.1887 125.633C35.1887 125.023 35.384 124.534 35.7991 124.168C36.2019 123.802 36.8 123.619 37.5935 123.607L38.8508 123.765V123.436C38.8508 122.996 38.7654 122.667 38.5701 122.447C38.3503 122.191 37.9719 122.056 37.4348 122.032C36.8123 122.056 36.2507 122.191 35.7502 122.435L35.7258 121.727C36.2019 121.507 36.8 121.373 37.5325 121.348C38.3625 121.348 38.9729 121.556 39.3879 121.983C39.6809 122.313 39.8274 122.789 39.8274 123.424V126.341C39.803 126.695 39.9128 126.866 40.157 126.854C40.2913 126.854 40.4133 126.817 40.5354 126.744ZM38.8508 125.328V124.425L37.6912 124.278C36.6169 124.339 36.1042 124.779 36.1653 125.584C36.1653 126.036 36.2996 126.365 36.5437 126.585C36.7756 126.805 37.0686 126.915 37.4348 126.915C37.9353 126.915 38.3015 126.768 38.5334 126.475C38.7532 126.195 38.8508 125.816 38.8508 125.328Z" fill="#435059"/>
<path d="M33.6072 121.446V127.196C33.6072 127.733 33.5828 128.16 33.5217 128.477C33.4485 128.807 33.3264 129.088 33.1433 129.307C32.6062 129.893 31.8982 130.174 31.0193 130.137C30.2136 130.125 29.5544 129.979 29.0173 129.686L29.0417 128.929C29.6155 129.246 30.2502 129.405 30.946 129.405C31.532 129.417 31.9714 129.246 32.2888 128.905C32.533 128.648 32.655 128.123 32.6306 127.342V126.878C32.2644 127.342 31.6785 127.586 30.8972 127.598C30.1404 127.598 29.5789 127.379 29.2004 126.951C28.8464 126.536 28.6877 125.987 28.7244 125.303V121.446H29.7009V125.194C29.6643 125.78 29.7742 126.195 30.0183 126.451C30.2502 126.695 30.6042 126.817 31.0803 126.817C31.593 126.817 31.9836 126.671 32.2522 126.365C32.5208 126.073 32.655 125.596 32.6306 124.925V121.446H33.6072Z" fill="#435059"/>
<path d="M27.4602 126.744L27.4236 127.366C27.2527 127.476 27.0208 127.537 26.7522 127.537C26.2151 127.55 25.9221 127.318 25.8489 126.842C25.4827 127.354 24.9456 127.598 24.2375 127.598C23.6028 127.598 23.1023 127.427 22.7117 127.086C22.321 126.756 22.1257 126.268 22.1135 125.633C22.1135 125.023 22.3088 124.534 22.7239 124.168C23.1267 123.802 23.7249 123.619 24.5183 123.607L25.7756 123.765V123.436C25.7756 122.996 25.6902 122.667 25.4949 122.447C25.2751 122.191 24.8967 122.056 24.3596 122.032C23.7371 122.056 23.1755 122.191 22.675 122.435L22.6506 121.727C23.1267 121.507 23.7249 121.373 24.4573 121.348C25.2874 121.348 25.8977 121.556 26.3127 121.983C26.6057 122.313 26.7522 122.789 26.7522 123.424V126.341C26.7278 126.695 26.8376 126.866 27.0818 126.854C27.2161 126.854 27.3381 126.817 27.4602 126.744ZM25.7756 125.328V124.425L24.616 124.278C23.5417 124.339 23.0291 124.779 23.0901 125.584C23.0901 126.036 23.2244 126.365 23.4685 126.585C23.7004 126.805 23.9934 126.915 24.3596 126.915C24.8601 126.915 25.2263 126.768 25.4583 126.475C25.678 126.195 25.7756 125.816 25.7756 125.328Z" fill="#435059"/>
<path d="M20.2634 119.591H21.24L18.7131 124.742V127.501H17.6511V124.718L15.1121 119.591H16.2107L17.9563 123.118C18.115 123.436 18.2126 123.704 18.2493 123.912H18.2615C18.2981 123.717 18.3958 123.46 18.5422 123.155L20.2634 119.591Z" fill="#435059"/>
</svg>
