<svg width="128" height="128" viewBox="0 0 128 128" fill="none" xmlns="http://www.w3.org/2000/svg">
<g clip-path="url(#clip0_83_38226)">
<circle cx="70" cy="68" r="46.5" fill="#F9FAFC" stroke="#0057F2" stroke-width="3"/>
<path d="M75.741 59.1702L92.8448 54.1659C95.4528 53.475 98.1334 55.0053 98.8322 57.5839C99.531 60.1626 97.9833 62.8132 95.3754 63.5041L77.4592 68.4872V78.1253L85.0345 93.7485C86.3844 96.0605 85.5833 99.0168 83.2451 100.352C80.9069 101.686 77.917 100.894 76.567 98.5823L70.3636 84.902L62.3754 98.5822C61.0254 100.894 58.0355 101.686 55.6973 100.352C53.3591 99.0167 52.5579 96.0604 53.9079 93.7484L62.793 78.1253L62.7931 68.3371L44.6246 63.7599C42.0167 63.0689 40.469 60.4184 41.1678 57.8397C41.8666 55.261 44.5472 53.7308 47.1552 54.4217L65.1856 59.1702H75.741Z" fill="#F9FAFC" stroke="#2B2727" stroke-width="3" stroke-linejoin="round"/>
<path d="M80 45.5C80 50.7467 75.7467 55 70.5 55C65.2533 55 61 50.7467 61 45.5C61 40.2533 65.2533 36 70.5 36C75.7467 36 80 40.2533 80 45.5Z" fill="#F9FAFC" stroke="#2B2727" stroke-width="3" stroke-linejoin="round"/>
<circle cx="64" cy="64" r="46.5" fill="#F9FAFC" stroke="#2B2727" stroke-width="3"/>
<path d="M69.741 55.1702L86.8448 50.1659C89.4528 49.475 92.1334 51.0053 92.8322 53.5839C93.531 56.1626 91.9833 58.8132 89.3754 59.5041L71.4592 64.4872V74.1253L79.0345 89.7485C80.3844 92.0605 79.5833 95.0168 77.2451 96.3516C74.9069 97.6864 71.917 96.8943 70.567 94.5823L64.3636 80.902L56.3754 94.5822C55.0254 96.8942 52.0355 97.6864 49.6973 96.3515C47.3591 95.0167 46.5579 92.0604 47.9079 89.7484L56.793 74.1253L56.7931 64.3371L38.6246 59.7599C36.0167 59.0689 34.469 56.4184 35.1678 53.8397C35.8666 51.261 38.5472 49.7308 41.1552 50.4217L59.1856 55.1702H69.741Z" fill="#F9FAFC" stroke="#2B2727" stroke-width="3" stroke-linejoin="round"/>
<path d="M74 41.5C74 46.7467 69.7467 51 64.5 51C59.2533 51 55 46.7467 55 41.5C55 36.2533 59.2533 32 64.5 32C69.7467 32 74 36.2533 74 41.5Z" fill="#F9FAFC" stroke="#2B2727" stroke-width="3" stroke-linejoin="round"/>
</g>
<defs>
<clipPath id="clip0_83_38226">
<rect width="128" height="128" fill="white"/>
</clipPath>
</defs>
</svg>
