<svg width="128" height="128" viewBox="0 0 128 128" fill="none" xmlns="http://www.w3.org/2000/svg">
<g clip-path="url(#clip0_87_41430)">
<path d="M42 42C36.4 42.4 23 39.1667 18 38V71.5C22.1667 73.5 31.1 78.4 33.5 82C35.9 85.6 49.1667 96.1667 55.5 101C57.5 102.333 62 104.8 64 104C66 103.2 67.5 101.667 68 101C69.6667 101.667 73.5 102.6 75.5 101C77.5 99.4 79 97 78.5 95C81 96 85.5517 98.9224 88.5 94.5C90.5 91.5 90 89.5 89.5 88C92 89.5 98.6414 91.5379 101 88C103 85 99.1667 76.6667 98 74.5L87 58.5L60.5 39C56.6667 39.8333 47.6 41.6 42 42Z" fill="#F9FAFC"/>
<path d="M89.5 88C92 89.5 98.6414 91.5379 101 88C103 85 99.1667 76.6667 98 74.5L87 58.5L60.5 39C56.6667 39.8333 47.6 41.6 42 42C36.4 42.4 23 39.1667 18 38V71.5C22.1667 73.5 31.1 78.4 33.5 82C35.9 85.6 49.1667 96.1667 55.5 101C57.5 102.333 62 104.8 64 104C66 103.2 67.5 101.667 68 101M89.5 88C90 89.5 90.5 91.5 88.5 94.5C85.5517 98.9224 81 96 78.5 95M89.5 88C83.742 83.3936 77 80 70.5 75.5M78.5 95C79 97 77.5 99.4 75.5 101C73.5 102.6 69.6667 101.667 68 101M78.5 95L63 85M68 101L54.5 92" stroke="#0057F2" stroke-width="3" stroke-linecap="round" stroke-linejoin="round"/>
<path d="M98.9815 46.9652C105.599 49.1331 121 48.6104 121 48.6104V83.161L102.741 87C101.488 84.2579 102.741 80.4189 84.4815 70.5473C72.7537 64.2069 68.1914 53.1806 67.2963 48.6104H54.9444C53.6914 50.2557 50.3367 54.3951 46.3519 56.8368C39.5 61.0352 34.5 58 33.5 54.5L48.5 37.642L73.2037 31.0609C73.2037 31.0609 75.8889 30.5126 79.1111 32.7062C82.3333 34.8997 89.9507 44.0066 98.9815 46.9652Z" fill="#F9FAFC" stroke="#0057F2" stroke-width="3" stroke-linejoin="round"/>
<path d="M28 72.4999L21.5 80.9999C20 83 20.5 86 22 87C24.1311 88.4207 27 87.8333 28 86.5L34.7766 78.1801C36.3363 76.2213 38 72 35.5 69.9999C32.5002 68 29.5 70.4999 28 72.4999Z" fill="#F9FAFC"/>
<path d="M50.3852 92.6135L45 99C43.1679 101.16 43.968 103.309 45.1365 104.365C47.5001 106.5 49.5 106 51 104.365L57.1236 97.401C59.5 94.5 59.5 92.1315 56.9463 90.4374C54.8467 89.0447 52.5 90 50.3852 92.6135Z" fill="#F9FAFC"/>
<path d="M44.2616 85L36.5001 93.9999C35 95.5 35.103 98.9335 37.5 100.5C39.8969 102.066 43 101.358 45 99L50.3852 92.6135C53.3092 89 55.9083 85 52.0828 82.5C49.3834 80.7359 46.3774 82.6928 44.2616 85Z" fill="#F9FAFC"/>
<path d="M34.7766 78.1801L28 86.5C26.5 88.5 26.2876 92.3302 28.9999 94.4999C31.4999 96.4999 35 95.5 36.5001 93.9999L44.2616 85C46.3916 82.6773 49.0256 77.2221 45.7448 74.1003C41.5 70.5 36.3363 76.2213 34.7766 78.1801Z" fill="#F9FAFC"/>
<path d="M28 86.5C27 87.8333 24.1311 88.4207 22 87C20.5 86 20 83 21.5 80.9999L28 72.4999C29.5 70.4999 32.5002 68 35.5 69.9999C38 72 36.3363 76.2213 34.7766 78.1801M28 86.5L34.7766 78.1801M28 86.5C26.5 88.5 26.2876 92.3302 28.9999 94.4999C31.4999 96.4999 35 95.5 36.5001 93.9999M34.7766 78.1801C36.3363 76.2213 41.5 70.5 45.7448 74.1003C49.0256 77.2221 46.3916 82.6773 44.2616 85M50.3852 92.6135L45 99M50.3852 92.6135C52.5 90 54.8467 89.0447 56.9463 90.4374C59.5 92.1315 59.5 94.5 57.1236 97.401L51 104.365C49.5 106 47.5001 106.5 45.1365 104.365C43.968 103.309 43.1679 101.16 45 99M50.3852 92.6135C53.3092 89 55.9083 85 52.0828 82.5C49.3834 80.7359 46.3774 82.6928 44.2616 85M45 99C43 101.358 39.8969 102.066 37.5 100.5C35.103 98.9335 35 95.5 36.5001 93.9999M44.2616 85L36.5001 93.9999" stroke="#2B2727" stroke-width="3" stroke-linecap="round" stroke-linejoin="round"/>
<path d="M36 38C30.4 38.4 17 35.1667 12 34V67.5C16.1667 69.5 25.1 74.4 27.5 78C29.9 81.6 43.1667 92.1667 49.5 97C51.5 98.3333 56 100.8 58 100C60 99.2 61.5 97.6667 62 97C63.6667 97.6667 67.5 98.6 69.5 97C71.5 95.4 73 93 72.5 91C75 92 79.5517 94.9224 82.5 90.5C84.5 87.5 84 85.5 83.5 84C86 85.5 92.6414 87.5379 95 84C97 81 93.1667 72.6667 92 70.5L81 54.5L54.5 35C50.6667 35.8333 41.6 37.6 36 38Z" fill="#F9FAFC"/>
<path d="M83.5 84C86 85.5 92.6414 87.5379 95 84C97 81 93.1667 72.6667 92 70.5L81 54.5L54.5 35C50.6667 35.8333 41.6 37.6 36 38C30.4 38.4 17 35.1667 12 34V67.5C16.1667 69.5 25.1 74.4 27.5 78C29.9 81.6 43.1667 92.1667 49.5 97C51.5 98.3333 56 100.8 58 100C60 99.2 61.5 97.6667 62 97M83.5 84C84 85.5 84.5 87.5 82.5 90.5C79.5517 94.9224 75 92 72.5 91M83.5 84C77.742 79.3936 71 76 64.5 71.5M72.5 91C73 93 71.5 95.4 69.5 97C67.5 98.6 63.6667 97.6667 62 97M72.5 91L57 81M62 97L48.5 88" stroke="#2B2727" stroke-width="3" stroke-linecap="round" stroke-linejoin="round"/>
<path d="M92.9815 42.9652C99.5988 45.1331 115 44.6104 115 44.6104V79.161L96.7407 83C95.4876 80.2579 96.7407 76.4189 78.4815 66.5473C66.7537 60.2069 62.1914 49.1806 61.2963 44.6104H48.9444C47.6914 46.2557 44.3367 50.3951 40.3519 52.8368C33.5 57.0352 28.5 54 27.5 50.5L42.5 33.642L67.2037 27.0609C67.2037 27.0609 69.8889 26.5126 73.1111 28.7062C76.3333 30.8997 83.9507 40.0066 92.9815 42.9652Z" fill="#F9FAFC" stroke="#2B2727" stroke-width="3" stroke-linejoin="round"/>
<path d="M22 68.4999L15.5 76.9999C14 79 14.5 82 16 83C18.1311 84.4207 21 83.8333 22 82.5L28.7766 74.1801C30.3363 72.2213 32 68 29.5 65.9999C26.5002 64 23.5 66.4999 22 68.4999Z" fill="#F9FAFC"/>
<path d="M44.3852 88.6135L39 95C37.1679 97.1605 37.968 99.3089 39.1365 100.365C41.5001 102.5 43.5 102 45 100.365L51.1236 93.401C53.5 90.5 53.5 88.1315 50.9463 86.4374C48.8467 85.0447 46.5 86 44.3852 88.6135Z" fill="#F9FAFC"/>
<path d="M38.2616 81L30.5001 89.9999C29 91.5 29.103 94.9335 31.5 96.4999C33.8969 98.0663 37 97.3585 39 95L44.3852 88.6135C47.3092 85 49.9083 81 46.0828 78.5C43.3834 76.7359 40.3774 78.6928 38.2616 81Z" fill="#F9FAFC"/>
<path d="M28.7766 74.1801L22 82.5C20.5 84.5 20.2876 88.3302 22.9999 90.4999C25.4999 92.4999 29 91.5 30.5001 89.9999L38.2616 81C40.3916 78.6773 43.0256 73.2221 39.7448 70.1003C35.5 66.5 30.3363 72.2213 28.7766 74.1801Z" fill="#F9FAFC"/>
<path d="M22 82.5C21 83.8333 18.1311 84.4207 16 83C14.5 82 14 79 15.5 76.9999L22 68.4999C23.5 66.4999 26.5002 64 29.5 65.9999C32 68 30.3363 72.2213 28.7766 74.1801M22 82.5L28.7766 74.1801M22 82.5C20.5 84.5 20.2876 88.3302 22.9999 90.4999C25.4999 92.4999 29 91.5 30.5001 89.9999M28.7766 74.1801C30.3363 72.2213 35.5 66.5 39.7448 70.1003C43.0256 73.2221 40.3916 78.6773 38.2616 81M44.3852 88.6135L39 95M44.3852 88.6135C46.5 86 48.8467 85.0447 50.9463 86.4374C53.5 88.1315 53.5 90.5 51.1236 93.401L45 100.365C43.5 102 41.5001 102.5 39.1365 100.365C37.968 99.3089 37.1679 97.1605 39 95M44.3852 88.6135C47.3092 85 49.9083 81 46.0828 78.5C43.3834 76.7359 40.3774 78.6928 38.2616 81M39 95C37 97.3585 33.8969 98.0663 31.5 96.4999C29.103 94.9335 29 91.5 30.5001 89.9999M38.2616 81L30.5001 89.9999" stroke="#2B2727" stroke-width="3" stroke-linecap="round" stroke-linejoin="round"/>
</g>
<defs>
<clipPath id="clip0_87_41430">
<rect width="128" height="128" fill="white"/>
</clipPath>
</defs>
</svg>
