<svg width="128" height="128" viewBox="0 0 128 128" fill="none" xmlns="http://www.w3.org/2000/svg">
<g clip-path="url(#clip0_612_27996)">
<path d="M46.5977 32.1783C47.1209 32.1441 47.5884 31.8391 47.8304 31.3739C50.2434 26.7369 55.5823 23.9875 60.897 24.6646C61.4068 24.7296 61.9143 24.5291 62.242 24.1332C64.5782 21.3113 68.1592 19.5 72.1852 19.5C78.8717 19.5 84.3112 24.4892 84.8927 30.7851C84.9641 31.5579 85.6131 32.1486 86.3891 32.1472L86.4444 32.1471C86.4448 32.1471 86.4452 32.1471 86.4456 32.1471C94.2428 32.1477 100.5 38.3053 100.5 45.8235C100.5 53.3422 94.2422 59.5 86.4444 59.5H86.3648H86.2851H86.2054H86.1258H86.0462H85.9666H85.8871H85.8075H85.728H85.6485H85.569H85.4895H85.4101H85.3306H85.2512H85.1718H85.0924H85.0131H84.9338H84.8544H84.7751H84.6959H84.6166H84.5374H84.4581H84.3789H84.2997H84.2206H84.1414H84.0623H83.9832H83.9041H83.825H83.746H83.6669H83.5879H83.5089H83.43H83.351H83.2721H83.1931H83.1142H83.0353H82.9565H82.8776H82.7988H82.72H82.6412H82.5624H82.4837H82.4049H82.3262H82.2475H82.1688H82.0901H82.0115H81.9329H81.8542H81.7757H81.6971H81.6185H81.54H81.4614H81.3829H81.3045H81.226H81.1475H81.0691H80.9907H80.9123H80.8339H80.7555H80.6772H80.5989H80.5205H80.4422H80.364H80.2857H80.2075H80.1292H80.051H79.9729H79.8947H79.8165H79.7384H79.6603H79.5822H79.5041H79.426H79.3479H79.2699H79.1919H79.1139H79.0359H78.9579H78.88H78.802H78.7241H78.6462H78.5683H78.4905H78.4126H78.3348H78.257H78.1792H78.1014H78.0236H77.9459H77.8681H77.7904H77.7127H77.635H77.5574H77.4797H77.4021H77.3244H77.2468H77.1693H77.0917H77.0141H76.9366H76.8591H76.7816H76.7041H76.6266H76.5491H76.4717H76.3943H76.3168H76.2394H76.1621H76.0847H76.0074H75.93H75.8527H75.7754H75.6981H75.6208H75.5436H75.4664H75.3891H75.3119H75.2347H75.1575H75.0804H75.0032H74.9261H74.849H74.7719H74.6948H74.6177H74.5407H74.4636H74.3866H74.3096H74.2326H74.1556H74.0787H74.0017H73.9248H73.8479H73.771H73.6941H73.6172H73.5403H73.4635H73.3867H73.3098H73.233H73.1563H73.0795H73.0027H72.926H72.8493H72.7725H72.6958H72.6192H72.5425H72.4658H72.3892H72.3126H72.236H72.1594H72.0828H72.0062H71.9296H71.8531H71.7766H71.7001H71.6236H71.5471H71.4706H71.3941H71.3177H71.2413H71.1649H71.0885H71.0121H70.9357H70.8593H70.783H70.7066H70.6303H70.554H70.4777H70.4015H70.3252H70.2489H70.1727H70.0965H70.0203H69.9441H69.8679H69.7917H69.7156H69.6394H69.5633H69.4872H69.4111H69.335H69.2589H69.1828H69.1068H69.0307H68.9547H68.8787H68.8027H68.7267H68.6507H68.5748H68.4988H68.4229H68.347H68.2711H68.1952H68.1193H68.0434H67.9675H67.8917H67.8159H67.74H67.6642H67.5884H67.5126H67.4369H67.3611H67.2854H67.2096H67.1339H67.0582H66.9825H66.9068H66.8312H66.7555H66.6798H66.6042H66.5286H66.453H66.3774H66.3018H66.2262H66.1506H66.0751H65.9995H65.924H65.8485H65.773H65.6975H65.622H65.5465H65.4711H65.3956H65.3202H65.2448H65.1694H65.094H65.0186H64.9432H64.8678H64.7925H64.7171H64.6418H64.5665H64.4912H64.4159H64.3406H64.2653H64.19H64.1148H64.0395H63.9643H63.8891H63.8139H63.7387H63.6635H63.5883H63.5132H63.438H63.3629H63.2877H63.2126H63.1375H63.0624H62.9873H62.9122H62.8371H62.7621H62.687H62.612H62.537H62.462H62.387H62.312H62.237H62.162H62.087H62.0121H61.9371H61.8622H61.7873H61.7124H61.6375H61.5626H61.4877H61.4128H61.3379H61.2631H61.1883H61.1134H61.0386H60.9638H60.889H60.8142H60.7394H60.6646H60.5899H60.5151H60.4404H60.3656H60.2909H60.2162H60.1415H60.0668H59.9921H59.9174H59.8428H59.7681H59.6934H59.6188H59.5442H59.4695H59.3949H59.3203H59.2457H59.1712H59.0966H59.022H58.9475H58.8729H58.7984H58.7238H58.6493H58.5748H58.5003H58.4258H58.3513H58.2768H58.2024H58.1279H58.0535H57.979H57.9046H57.8302H57.7557H57.6813H57.6069H57.5325H57.4582H57.3838H57.3094H57.2351H57.1607H57.0864H57.012H56.9377H56.8634H56.7891H56.7148H56.6405H56.5662H56.492H56.4177H56.3434H56.2692H56.1949H56.1207H56.0465H55.9723H55.898H55.8238H55.7496H55.6755H55.6013H55.5271H55.4529H55.3788H55.3046H55.2305H55.1564H55.0822H55.0081H54.934H54.8599H54.7858H54.7117H54.6376H54.5636H54.4895H54.4154H54.3414H54.2673H54.1933H54.1193H54.0452H53.9712H53.8972H53.8232H53.7492H53.6752H53.6013H53.5273H53.4533H53.3793H53.3054H53.2314H53.1575H53.0836H53.0096H52.9357H52.8618H52.7879H52.714H52.6401H52.5662H52.4923H52.4185H52.3446H52.2707H52.1969H52.123H52.0492H51.9753H51.9015H51.8277H51.7539H51.6801H51.6063H51.5325H51.4587H51.3849H51.3111H51.2373H51.1636H51.0898H51.016H50.9423H50.8685H50.7948H50.7211H50.6473H50.5736H50.4999H50.4262H50.3525H50.2788H50.2051H50.1314H50.0577H49.984H49.9104H49.8367H49.763H49.6894H49.6157H49.5421H49.4684H49.3948H49.3212H49.2476H49.1739H49.1003H49.0267H48.9531H48.8795H48.8059H48.7323H48.6587H48.5852H48.5116H48.438H48.3645H48.2909H48.2173H48.1438H48.0702H47.9967H47.9232H47.8496H47.7761H47.7026H47.6291H47.5556C39.7578 59.5 33.5 53.3422 33.5 45.8235C33.5 38.615 39.2506 32.6587 46.5977 32.1783Z" fill="#F9FAFC" stroke="#0057F2" stroke-width="3" stroke-linejoin="round"/>
<g clip-path="url(#clip1_612_27996)">
<path d="M68.4968 33.9951C64.6621 33.9951 61.5041 36.8845 61.0676 40.6055C61.0456 40.7934 61.0291 40.9826 61.0202 41.1739C61.0122 41.3463 61.1524 41.4863 61.3246 41.4863L62.461 41.4863C62.6332 41.4863 62.772 41.3462 62.783 41.174C62.7952 40.9819 62.8179 40.7927 62.8468 40.6055C63.2712 37.8613 65.6363 35.7568 68.4968 35.7568C71.6573 35.7568 74.218 38.3227 74.218 41.4863C74.218 44.6499 71.6573 47.213 68.4968 47.213L59.9113 47.213C59.6664 47.213 59.5187 47.4821 59.6589 47.6834C59.9527 48.1055 60.2755 48.5061 60.6253 48.8808C60.6833 48.9429 60.7647 48.9775 60.8496 48.9775L68.4968 48.9775C72.6298 48.9775 75.9807 45.6234 75.9806 41.4863C75.9806 37.3493 72.6298 33.9951 68.4968 33.9951Z" fill="#2B2727"/>
<path d="M68.4968 30.7188C65.1462 30.7188 62.1522 32.2462 60.174 34.6455C58.7952 36.3175 57.9366 38.4281 57.7589 40.589C57.7583 40.5946 57.7565 40.5998 57.7561 40.6055C57.7408 40.7942 57.7269 40.9832 57.719 41.1739C57.7119 41.3463 57.8518 41.4863 58.024 41.4863H59.1604C59.3326 41.4863 59.4716 41.3463 59.4779 41.1738C59.4848 40.9829 59.4978 40.7938 59.5161 40.6055C59.9592 36.0309 63.8103 32.453 68.4968 32.453C73.4807 32.453 77.5213 36.4975 77.5213 41.4863C77.5213 46.4751 73.4807 50.5196 68.4968 50.5196L63.5939 50.5196C63.2848 50.5196 63.1753 50.9048 63.4486 51.0495C64.8021 51.7663 66.3273 52.1993 67.9458 52.2813H68.4968C74.0809 52.2813 78.6714 48.0331 79.2237 42.5894C79.2596 42.2355 79.2804 41.8769 79.2813 41.5137C79.2813 41.1411 79.2605 40.7708 79.2237 40.4079C78.6714 34.9642 74.0809 30.7188 68.4968 30.7188Z" fill="#2B2727"/>
<path d="M68.4968 37.2989C66.4898 37.2989 64.8172 38.7177 64.4121 40.6055C64.3722 40.7913 64.3424 40.9807 64.3264 41.1741C64.3122 41.3461 64.453 41.4863 64.6252 41.4863H65.7644C65.9365 41.4863 66.074 41.3457 66.0972 41.1747C66.124 40.9766 66.1755 40.7862 66.2461 40.6055C66.5987 39.7035 67.4707 39.0633 68.4968 39.0634C69.8339 39.0634 70.9173 40.1478 70.9174 41.4863C70.9174 42.8247 69.8339 43.9092 68.4968 43.9092L59.7983 43.9092C59.7317 43.6654 59.6699 43.4117 59.6 43.1687C59.5509 42.998 59.3978 42.8801 59.2421 42.8801H58.1154C57.9615 42.8801 57.8242 43.0596 57.8538 43.2296C57.9964 43.9905 58.1669 44.786 58.4744 45.4995C58.5225 45.611 58.6401 45.6709 58.7504 45.6709L68.4968 45.6709C70.8064 45.6709 72.6773 43.7982 72.6773 41.4863C72.6773 39.1744 70.8064 37.2989 68.4968 37.2989Z" fill="#2B2727"/>
</g>
<path d="M80 97.6837C80 98.9041 79.5155 99.8069 78.0475 100.124C77.1867 100.311 75.6069 99.8803 75.3628 98.66L74.1425 87.1891V112.816C74.1425 114.036 72.9222 115.5 71.2138 115.5C69.5053 115.5 68.285 113.792 68.285 112.816C68.285 113.792 67.3088 115.5 65.1122 115.5C63.8919 115.5 62.4275 114.28 62.4275 112.572V86.2128L59.9869 90.6059C59.4988 91.3381 58.0344 91.8262 56.8141 90.85L49.2482 83.2841C48.7601 82.5519 48.5276 81.2516 49.4923 80.1113C50.3384 79.2731 51.6888 79.3791 52.421 79.8672L57.7904 84.9925L60.475 80.1113C61.1726 78.9282 61.6954 78.4028 63.1597 78.4028H74.0038C76.5832 78.4028 78.2916 80.3553 78.4814 82.0638L80 97.6837Z" fill="#F9FAFC"/>
<path d="M68.285 112.816C68.285 113.792 69.5053 115.5 71.2138 115.5C72.9222 115.5 74.1425 114.036 74.1425 112.816V87.1891L75.3628 98.66C75.6069 99.8803 77.1867 100.311 78.0475 100.124C79.5155 99.8069 80 98.9041 80 97.6837L78.4814 82.0638C78.2916 80.3553 76.5832 78.4028 74.0038 78.4028H63.1597C61.6954 78.4028 61.1726 78.9282 60.475 80.1113L57.7904 84.9925L52.421 79.8672C51.6888 79.3791 50.3384 79.2731 49.4923 80.1113C48.5276 81.2516 48.7601 82.5519 49.2482 83.2841L56.8141 90.85C58.0344 91.8262 59.4988 91.3381 59.9869 90.6059L62.4275 86.2128V112.572C62.4275 114.28 63.8919 115.5 65.1122 115.5C67.3088 115.5 68.285 113.792 68.285 112.816ZM68.285 112.816V100.124" stroke="#0057F2" stroke-width="3" stroke-linecap="round" stroke-linejoin="round"/>
<path d="M63 69.5C63 72.5376 65.4624 75 68.5 75C71.5376 75 74 72.5376 74 69.5C74 66.4624 71.5376 64 68.5 64C65.4624 64 63 66.4624 63 69.5Z" fill="#F9FAFC" stroke="#2B2727" stroke-width="3" stroke-linecap="round" stroke-linejoin="round"/>
<path d="M40.5977 28.1783C41.1209 28.1441 41.5884 27.8391 41.8304 27.3739C44.2434 22.7369 49.5823 19.9875 54.897 20.6646C55.4068 20.7296 55.9143 20.5291 56.242 20.1332C58.5782 17.3113 62.1592 15.5 66.1852 15.5C72.8717 15.5 78.3112 20.4892 78.8927 26.7851C78.9641 27.5579 79.6131 28.1486 80.3891 28.1472L80.4444 28.1471C80.4448 28.1471 80.4452 28.1471 80.4456 28.1471C88.2428 28.1477 94.5 34.3053 94.5 41.8235C94.5 49.3422 88.2422 55.5 80.4444 55.5H80.3648H80.2851H80.2054H80.1258H80.0462H79.9666H79.8871H79.8075H79.728H79.6485H79.569H79.4895H79.4101H79.3306H79.2512H79.1718H79.0924H79.0131H78.9338H78.8544H78.7751H78.6959H78.6166H78.5374H78.4581H78.3789H78.2997H78.2206H78.1414H78.0623H77.9832H77.9041H77.825H77.746H77.6669H77.5879H77.5089H77.43H77.351H77.2721H77.1931H77.1142H77.0353H76.9565H76.8776H76.7988H76.72H76.6412H76.5624H76.4837H76.4049H76.3262H76.2475H76.1688H76.0901H76.0115H75.9329H75.8542H75.7757H75.6971H75.6185H75.54H75.4614H75.3829H75.3045H75.226H75.1475H75.0691H74.9907H74.9123H74.8339H74.7555H74.6772H74.5989H74.5205H74.4422H74.364H74.2857H74.2075H74.1292H74.051H73.9729H73.8947H73.8165H73.7384H73.6603H73.5822H73.5041H73.426H73.3479H73.2699H73.1919H73.1139H73.0359H72.9579H72.88H72.802H72.7241H72.6462H72.5683H72.4905H72.4126H72.3348H72.257H72.1792H72.1014H72.0236H71.9459H71.8681H71.7904H71.7127H71.635H71.5574H71.4797H71.4021H71.3244H71.2468H71.1693H71.0917H71.0141H70.9366H70.8591H70.7816H70.7041H70.6266H70.5491H70.4717H70.3943H70.3168H70.2394H70.1621H70.0847H70.0074H69.93H69.8527H69.7754H69.6981H69.6208H69.5436H69.4664H69.3891H69.3119H69.2347H69.1575H69.0804H69.0032H68.9261H68.849H68.7719H68.6948H68.6177H68.5407H68.4636H68.3866H68.3096H68.2326H68.1556H68.0787H68.0017H67.9248H67.8479H67.771H67.6941H67.6172H67.5403H67.4635H67.3867H67.3098H67.233H67.1563H67.0795H67.0027H66.926H66.8493H66.7725H66.6958H66.6192H66.5425H66.4658H66.3892H66.3126H66.236H66.1594H66.0828H66.0062H65.9296H65.8531H65.7766H65.7001H65.6236H65.5471H65.4706H65.3941H65.3177H65.2413H65.1649H65.0885H65.0121H64.9357H64.8593H64.783H64.7066H64.6303H64.554H64.4777H64.4015H64.3252H64.2489H64.1727H64.0965H64.0203H63.9441H63.8679H63.7917H63.7156H63.6394H63.5633H63.4872H63.4111H63.335H63.2589H63.1828H63.1068H63.0307H62.9547H62.8787H62.8027H62.7267H62.6507H62.5748H62.4988H62.4229H62.347H62.2711H62.1952H62.1193H62.0434H61.9675H61.8917H61.8159H61.74H61.6642H61.5884H61.5126H61.4369H61.3611H61.2854H61.2096H61.1339H61.0582H60.9825H60.9068H60.8312H60.7555H60.6798H60.6042H60.5286H60.453H60.3774H60.3018H60.2262H60.1506H60.0751H59.9995H59.924H59.8485H59.773H59.6975H59.622H59.5465H59.4711H59.3956H59.3202H59.2448H59.1694H59.094H59.0186H58.9432H58.8678H58.7925H58.7171H58.6418H58.5665H58.4912H58.4159H58.3406H58.2653H58.19H58.1148H58.0395H57.9643H57.8891H57.8139H57.7387H57.6635H57.5883H57.5132H57.438H57.3629H57.2877H57.2126H57.1375H57.0624H56.9873H56.9122H56.8371H56.7621H56.687H56.612H56.537H56.462H56.387H56.312H56.237H56.162H56.087H56.0121H55.9371H55.8622H55.7873H55.7124H55.6375H55.5626H55.4877H55.4128H55.3379H55.2631H55.1883H55.1134H55.0386H54.9638H54.889H54.8142H54.7394H54.6646H54.5899H54.5151H54.4404H54.3656H54.2909H54.2162H54.1415H54.0668H53.9921H53.9174H53.8428H53.7681H53.6934H53.6188H53.5442H53.4695H53.3949H53.3203H53.2457H53.1712H53.0966H53.022H52.9475H52.8729H52.7984H52.7238H52.6493H52.5748H52.5003H52.4258H52.3513H52.2768H52.2024H52.1279H52.0535H51.979H51.9046H51.8302H51.7557H51.6813H51.6069H51.5325H51.4582H51.3838H51.3094H51.2351H51.1607H51.0864H51.012H50.9377H50.8634H50.7891H50.7148H50.6405H50.5662H50.492H50.4177H50.3434H50.2692H50.1949H50.1207H50.0465H49.9723H49.898H49.8238H49.7496H49.6755H49.6013H49.5271H49.4529H49.3788H49.3046H49.2305H49.1564H49.0822H49.0081H48.934H48.8599H48.7858H48.7117H48.6376H48.5636H48.4895H48.4154H48.3414H48.2673H48.1933H48.1193H48.0452H47.9712H47.8972H47.8232H47.7492H47.6752H47.6013H47.5273H47.4533H47.3793H47.3054H47.2314H47.1575H47.0836H47.0096H46.9357H46.8618H46.7879H46.714H46.6401H46.5662H46.4923H46.4185H46.3446H46.2707H46.1969H46.123H46.0492H45.9753H45.9015H45.8277H45.7539H45.6801H45.6063H45.5325H45.4587H45.3849H45.3111H45.2373H45.1636H45.0898H45.016H44.9423H44.8685H44.7948H44.7211H44.6473H44.5736H44.4999H44.4262H44.3525H44.2788H44.2051H44.1314H44.0577H43.984H43.9104H43.8367H43.763H43.6894H43.6157H43.5421H43.4684H43.3948H43.3212H43.2476H43.1739H43.1003H43.0267H42.9531H42.8795H42.8059H42.7323H42.6587H42.5852H42.5116H42.438H42.3645H42.2909H42.2173H42.1438H42.0702H41.9967H41.9232H41.8496H41.7761H41.7026H41.6291H41.5556C33.7578 55.5 27.5 49.3422 27.5 41.8235C27.5 34.615 33.2506 28.6587 40.5977 28.1783Z" fill="#F9FAFC" stroke="#2B2727" stroke-width="3" stroke-linejoin="round"/>
<g clip-path="url(#clip2_612_27996)">
<path d="M62.4968 29.9951C58.6621 29.9951 55.5041 32.8845 55.0676 36.6055C55.0456 36.7934 55.0291 36.9826 55.0202 37.1739C55.0122 37.3463 55.1524 37.4863 55.3246 37.4863L56.461 37.4863C56.6332 37.4863 56.772 37.3462 56.783 37.174C56.7952 36.9819 56.8179 36.7927 56.8468 36.6055C57.2712 33.8613 59.6363 31.7568 62.4968 31.7568C65.6573 31.7568 68.218 34.3227 68.218 37.4863C68.218 40.6499 65.6573 43.213 62.4968 43.213L53.9113 43.213C53.6664 43.213 53.5187 43.4821 53.6589 43.6834C53.9527 44.1055 54.2755 44.5061 54.6253 44.8808C54.6833 44.9429 54.7647 44.9775 54.8496 44.9775L62.4968 44.9775C66.6298 44.9775 69.9807 41.6234 69.9806 37.4863C69.9806 33.3493 66.6298 29.9951 62.4968 29.9951Z" fill="#2B2727"/>
<path d="M62.4968 26.7188C59.1462 26.7188 56.1522 28.2462 54.174 30.6455C52.7952 32.3175 51.9366 34.4281 51.7589 36.589C51.7583 36.5946 51.7565 36.5998 51.7561 36.6055C51.7408 36.7942 51.7269 36.9832 51.719 37.1739C51.7119 37.3463 51.8518 37.4863 52.024 37.4863H53.1604C53.3326 37.4863 53.4716 37.3463 53.4779 37.1738C53.4848 36.9829 53.4978 36.7938 53.5161 36.6055C53.9592 32.0309 57.8103 28.453 62.4968 28.453C67.4807 28.453 71.5213 32.4975 71.5213 37.4863C71.5213 42.4751 67.4807 46.5196 62.4968 46.5196L57.5939 46.5196C57.2848 46.5196 57.1753 46.9048 57.4486 47.0495C58.8021 47.7663 60.3273 48.1993 61.9458 48.2813H62.4968C68.0809 48.2813 72.6714 44.0331 73.2237 38.5894C73.2596 38.2355 73.2804 37.8769 73.2813 37.5137C73.2813 37.1411 73.2605 36.7708 73.2237 36.4079C72.6714 30.9642 68.0809 26.7188 62.4968 26.7188Z" fill="#2B2727"/>
<path d="M62.4968 33.2989C60.4898 33.2989 58.8172 34.7177 58.4121 36.6055C58.3722 36.7913 58.3424 36.9807 58.3264 37.1741C58.3122 37.3461 58.453 37.4863 58.6252 37.4863H59.7644C59.9365 37.4863 60.074 37.3457 60.0972 37.1747C60.124 36.9766 60.1755 36.7862 60.2461 36.6055C60.5987 35.7035 61.4707 35.0633 62.4968 35.0634C63.8339 35.0634 64.9173 36.1478 64.9174 37.4863C64.9174 38.8247 63.8339 39.9092 62.4968 39.9092L53.7983 39.9092C53.7317 39.6654 53.6699 39.4117 53.6 39.1687C53.5509 38.998 53.3978 38.8801 53.2421 38.8801H52.1154C51.9615 38.8801 51.8242 39.0596 51.8538 39.2296C51.9964 39.9905 52.1669 40.786 52.4744 41.4995C52.5225 41.611 52.6401 41.6709 52.7504 41.6709L62.4968 41.6709C64.8064 41.6709 66.6773 39.7982 66.6773 37.4863C66.6773 35.1744 64.8064 33.2989 62.4968 33.2989Z" fill="#2B2727"/>
</g>
<path d="M74 93.6837C74 94.9041 73.5155 95.8069 72.0475 96.1244C71.1867 96.3105 69.6069 95.8803 69.3628 94.66L68.1425 83.1891V108.816C68.1425 110.036 66.9222 111.5 65.2138 111.5C63.5053 111.5 62.285 109.792 62.285 108.816C62.285 109.792 61.3088 111.5 59.1122 111.5C57.8919 111.5 56.4275 110.28 56.4275 108.572V82.2128L53.9869 86.6059C53.4988 87.3381 52.0344 87.8262 50.8141 86.85L43.2482 79.2841C42.7601 78.5519 42.5276 77.2516 43.4923 76.1113C44.3384 75.2731 45.6888 75.3791 46.421 75.8672L51.7904 80.9925L54.475 76.1113C55.1726 74.9282 55.6954 74.4028 57.1597 74.4028H68.0038C70.5832 74.4028 72.2916 76.3553 72.4814 78.0638L74 93.6837Z" fill="#F9FAFC"/>
<path d="M62.285 108.816C62.285 109.792 63.5053 111.5 65.2138 111.5C66.9222 111.5 68.1425 110.036 68.1425 108.816V83.1891L69.3628 94.66C69.6069 95.8803 71.1867 96.3105 72.0475 96.1244C73.5155 95.8069 74 94.9041 74 93.6837L72.4814 78.0638C72.2916 76.3553 70.5832 74.4028 68.0038 74.4028H57.1597C55.6954 74.4028 55.1726 74.9282 54.475 76.1113L51.7904 80.9925L46.421 75.8672C45.6888 75.3791 44.3384 75.2731 43.4923 76.1113C42.5276 77.2516 42.7601 78.5519 43.2482 79.2841L50.8141 86.85C52.0344 87.8262 53.4988 87.3381 53.9869 86.6059L56.4275 82.2128V108.572C56.4275 110.28 57.8919 111.5 59.1122 111.5C61.3088 111.5 62.285 109.792 62.285 108.816ZM62.285 108.816V96.1244" stroke="#2B2727" stroke-width="3" stroke-linecap="round" stroke-linejoin="round"/>
<path d="M57 65.5C57 68.5376 59.4624 71 62.5 71C65.5376 71 68 68.5376 68 65.5C68 62.4624 65.5376 60 62.5 60C59.4624 60 57 62.4624 57 65.5Z" fill="#F9FAFC" stroke="#2B2727" stroke-width="3" stroke-linecap="round" stroke-linejoin="round"/>
</g>
<defs>
<clipPath id="clip0_612_27996">
<rect width="128" height="128" fill="white"/>
</clipPath>
<clipPath id="clip1_612_27996">
<rect width="23" height="23" fill="white" transform="translate(57 30)"/>
</clipPath>
<clipPath id="clip2_612_27996">
<rect width="23" height="23" fill="white" transform="translate(51 26)"/>
</clipPath>
</defs>
</svg>
