<svg width="128" height="128" viewBox="0 0 128 128" fill="none" xmlns="http://www.w3.org/2000/svg">
<g clip-path="url(#clip0_500_41264)">
<path fill-rule="evenodd" clip-rule="evenodd" d="M99.8937 55.404C99.9641 54.5674 100 53.721 100 52.8662C100 36.3713 86.6282 22.9995 70.1333 22.9995C53.6384 22.9995 40.2667 36.3713 40.2667 52.8662C40.2667 53.6839 40.2995 54.4939 40.364 55.295C29.5791 59.7997 22 70.4478 22 82.8662C22 99.3611 35.3718 112.733 51.8667 112.733C58.6864 112.733 64.9723 110.447 70 106.6C75.0277 110.447 81.3136 112.733 88.1333 112.733C104.628 112.733 118 99.3611 118 82.8662C118 70.547 110.541 59.9698 99.8937 55.404Z" fill="#F9FAFC"/>
<path d="M99.8937 55.404L98.399 55.2783C98.3448 55.922 98.7088 56.5281 99.3025 56.7826L99.8937 55.404ZM40.364 55.295L40.9421 56.6791C41.5411 56.4289 41.9112 55.8217 41.8592 55.1746L40.364 55.295ZM70 106.6L70.9115 105.409C70.3736 104.997 69.6264 104.997 69.0885 105.409L70 106.6ZM98.5 52.8662C98.5 53.679 98.4659 54.4834 98.399 55.2783L101.388 55.5298C101.462 54.6514 101.5 53.763 101.5 52.8662H98.5ZM70.1333 24.4995C85.7998 24.4995 98.5 37.1997 98.5 52.8662H101.5C101.5 35.5428 87.4567 21.4995 70.1333 21.4995V24.4995ZM41.7667 52.8662C41.7667 37.1997 54.4669 24.4995 70.1333 24.4995V21.4995C52.81 21.4995 38.7667 35.5428 38.7667 52.8662H41.7667ZM41.8592 55.1746C41.7979 54.4135 41.7667 53.6437 41.7667 52.8662H38.7667C38.7667 53.7241 38.8011 54.5742 38.8688 55.4153L41.8592 55.1746ZM23.5 82.8662C23.5 71.0739 30.6959 60.9588 40.9421 56.6791L39.7859 53.9109C28.4622 58.6406 20.5 69.8218 20.5 82.8662H23.5ZM51.8667 111.233C36.2002 111.233 23.5 98.5326 23.5 82.8662H20.5C20.5 100.19 34.5433 114.233 51.8667 114.233V111.233ZM69.0885 105.409C64.3133 109.063 58.3455 111.233 51.8667 111.233V114.233C59.0273 114.233 65.6313 111.832 70.9115 107.791L69.0885 105.409ZM88.1333 111.233C81.6544 111.233 75.6867 109.063 70.9115 105.409L69.0885 107.791C74.3687 111.832 80.9727 114.233 88.1333 114.233V111.233ZM116.5 82.8662C116.5 98.5326 103.8 111.233 88.1333 111.233V114.233C105.457 114.233 119.5 100.19 119.5 82.8662H116.5ZM99.3025 56.7826C109.419 61.1204 116.5 71.168 116.5 82.8662H119.5C119.5 69.9259 111.664 58.8192 100.485 54.0254L99.3025 56.7826Z" fill="#0057F2"/>
<circle cx="51.8667" cy="82.8659" r="29.8667" stroke="#0057F2" stroke-width="3" stroke-linecap="round" stroke-linejoin="round" stroke-dasharray="6 6"/>
<circle cx="88.1333" cy="82.8659" r="29.8667" stroke="#0057F2" stroke-width="3" stroke-linecap="round" stroke-linejoin="round" stroke-dasharray="6 6"/>
<circle cx="70.1333" cy="52.8662" r="29.8667" stroke="#0057F2" stroke-width="3" stroke-linecap="round" stroke-linejoin="round" stroke-dasharray="6 6"/>
<path fill-rule="evenodd" clip-rule="evenodd" d="M93.8937 51.404C93.9641 50.5674 94 49.721 94 48.8662C94 32.3713 80.6282 18.9995 64.1333 18.9995C47.6384 18.9995 34.2667 32.3713 34.2667 48.8662C34.2667 49.6839 34.2995 50.4939 34.364 51.295C23.5791 55.7997 16 66.4478 16 78.8662C16 95.3611 29.3718 108.733 45.8667 108.733C52.6864 108.733 58.9723 106.447 64 102.6C69.0277 106.447 75.3136 108.733 82.1333 108.733C98.6282 108.733 112 95.3611 112 78.8662C112 66.547 104.541 55.9698 93.8937 51.404Z" fill="#F9FAFC"/>
<path d="M93.8937 51.404L92.399 51.2783C92.3448 51.922 92.7088 52.5281 93.3025 52.7826L93.8937 51.404ZM34.364 51.295L34.9421 52.6791C35.5411 52.4289 35.9112 51.8217 35.8592 51.1746L34.364 51.295ZM64 102.6L64.9115 101.409C64.3736 100.997 63.6264 100.997 63.0885 101.409L64 102.6ZM92.5 48.8662C92.5 49.679 92.4659 50.4834 92.399 51.2783L95.3884 51.5298C95.4623 50.6514 95.5 49.763 95.5 48.8662H92.5ZM64.1333 20.4995C79.7998 20.4995 92.5 33.1997 92.5 48.8662H95.5C95.5 31.5428 81.4567 17.4995 64.1333 17.4995V20.4995ZM35.7667 48.8662C35.7667 33.1997 48.4669 20.4995 64.1333 20.4995V17.4995C46.81 17.4995 32.7667 31.5428 32.7667 48.8662H35.7667ZM35.8592 51.1746C35.7979 50.4135 35.7667 49.6437 35.7667 48.8662H32.7667C32.7667 49.7241 32.8011 50.5742 32.8688 51.4153L35.8592 51.1746ZM17.5 78.8662C17.5 67.0739 24.6959 56.9588 34.9421 52.6791L33.7859 49.9109C22.4622 54.6406 14.5 65.8218 14.5 78.8662H17.5ZM45.8667 107.233C30.2002 107.233 17.5 94.5326 17.5 78.8662H14.5C14.5 96.1895 28.5433 110.233 45.8667 110.233V107.233ZM63.0885 101.409C58.3133 105.063 52.3455 107.233 45.8667 107.233V110.233C53.0273 110.233 59.6313 107.832 64.9115 103.791L63.0885 101.409ZM82.1333 107.233C75.6544 107.233 69.6867 105.063 64.9115 101.409L63.0885 103.791C68.3687 107.832 74.9727 110.233 82.1333 110.233V107.233ZM110.5 78.8662C110.5 94.5326 97.7998 107.233 82.1333 107.233V110.233C99.4567 110.233 113.5 96.1895 113.5 78.8662H110.5ZM93.3025 52.7826C103.419 57.1204 110.5 67.168 110.5 78.8662H113.5C113.5 65.9259 105.664 54.8192 94.4848 50.0254L93.3025 52.7826Z" fill="#2B2727"/>
<circle cx="45.8667" cy="78.8659" r="29.8667" stroke="#2B2727" stroke-width="3" stroke-linecap="round" stroke-linejoin="round" stroke-dasharray="6 6"/>
<circle cx="82.1333" cy="78.8659" r="29.8667" stroke="#2B2727" stroke-width="3" stroke-linecap="round" stroke-linejoin="round" stroke-dasharray="6 6"/>
<circle cx="64.1333" cy="48.8662" r="29.8667" stroke="#2B2727" stroke-width="3" stroke-linecap="round" stroke-linejoin="round" stroke-dasharray="6 6"/>
</g>
<defs>
<clipPath id="clip0_500_41264">
<rect width="128" height="128" fill="white"/>
</clipPath>
</defs>
</svg>
