<svg width="128" height="128" viewBox="0 0 128 128" fill="none" xmlns="http://www.w3.org/2000/svg">
<g clip-path="url(#clip0_96_46684)">
<path fill-rule="evenodd" clip-rule="evenodd" d="M16.2179 31.8771C15 34.8174 15 38.5449 15 46C15 53.4551 15 57.1826 16.2179 60.1229C17.8418 64.0434 20.9566 67.1582 24.8771 68.7821C27.8174 70 31.5449 70 39 70H40.0864C39.2497 72.5458 37.7142 75.4171 35 77.3767C43.4452 79.4506 49.6263 76.1867 52.5025 70H80C87.4551 70 91.1826 70 94.1229 68.7821C98.0434 67.1582 101.158 64.0434 102.782 60.1229C104 57.1826 104 53.4551 104 46C104 38.5449 104 34.8174 102.782 31.8771C101.158 27.9566 98.0434 24.8418 94.1229 23.2179C91.1826 22 87.4551 22 80 22H39C31.5449 22 27.8174 22 24.8771 23.2179C20.9566 24.8418 17.8418 27.9566 16.2179 31.8771Z" fill="#F9FAFC"/>
<path d="M16.2179 31.8771L14.8321 31.303H14.8321L16.2179 31.8771ZM16.2179 60.1229L14.8321 60.697H14.8321L16.2179 60.1229ZM24.8771 68.7821L24.303 70.1679H24.303L24.8771 68.7821ZM40.0864 70L41.5114 70.4683C41.6616 70.0113 41.5835 69.51 41.3014 69.1204C41.0193 68.7307 40.5674 68.5 40.0864 68.5V70ZM35 77.3767L34.122 76.1605C33.6479 76.5028 33.4159 77.0894 33.5276 77.6633C33.6394 78.2372 34.0744 78.694 34.6423 78.8334L35 77.3767ZM52.5025 70V68.5C51.9189 68.5 51.3883 68.8385 51.1423 69.3676L52.5025 70ZM94.1229 68.7821L94.697 70.1679L94.1229 68.7821ZM102.782 60.1229L104.168 60.697L102.782 60.1229ZM102.782 31.8771L104.168 31.303L102.782 31.8771ZM94.1229 23.2179L94.697 21.8321V21.8321L94.1229 23.2179ZM24.8771 23.2179L24.303 21.8321V21.8321L24.8771 23.2179ZM16.5 46C16.5 42.2519 16.5008 39.516 16.6488 37.3476C16.7958 35.1927 17.0831 33.708 17.6037 32.4511L14.8321 31.303C14.1348 32.9864 13.8132 34.8357 13.6557 37.1434C13.4992 39.4376 13.5 42.293 13.5 46H16.5ZM17.6037 59.5489C17.0831 58.292 16.7958 56.8073 16.6488 54.6524C16.5008 52.484 16.5 49.7481 16.5 46H13.5C13.5 49.707 13.4992 52.5624 13.6557 54.8566C13.8132 57.1643 14.1348 59.0136 14.8321 60.697L17.6037 59.5489ZM25.4511 67.3963C21.8982 65.9246 19.0754 63.1018 17.6037 59.5489L14.8321 60.697C16.6083 64.985 20.015 68.3917 24.303 70.1679L25.4511 67.3963ZM39 68.5C35.2519 68.5 32.516 68.4992 30.3476 68.3512C28.1927 68.2042 26.708 67.9169 25.4511 67.3963L24.303 70.1679C25.9864 70.8652 27.8357 71.1868 30.1434 71.3443C32.4376 71.5008 35.293 71.5 39 71.5V68.5ZM40.0864 68.5H39V71.5H40.0864V68.5ZM35.878 78.5928C38.9387 76.3831 40.6172 73.1891 41.5114 70.4683L38.6614 69.5317C37.8822 71.9024 36.4897 74.4511 34.122 76.1605L35.878 78.5928ZM51.1423 69.3676C49.8389 72.1712 47.821 74.2514 45.2249 75.4178C42.6242 76.5863 39.3187 76.8927 35.3577 75.92L34.6423 78.8334C39.1266 79.9346 43.1342 79.646 46.4544 78.1543C49.7792 76.6605 52.2899 74.0155 53.8627 70.6324L51.1423 69.3676ZM80 68.5H52.5025V71.5H80V68.5ZM93.5489 67.3963C92.292 67.9169 90.8073 68.2042 88.6524 68.3512C86.484 68.4992 83.7481 68.5 80 68.5V71.5C83.707 71.5 86.5624 71.5008 88.8566 71.3443C91.1643 71.1868 93.0135 70.8652 94.697 70.1679L93.5489 67.3963ZM101.396 59.5489C99.9246 63.1018 97.1018 65.9246 93.5489 67.3963L94.697 70.1679C98.9849 68.3917 102.392 64.985 104.168 60.697L101.396 59.5489ZM102.5 46C102.5 49.7481 102.499 52.484 102.351 54.6524C102.204 56.8073 101.917 58.292 101.396 59.5489L104.168 60.697C104.865 59.0136 105.187 57.1643 105.344 54.8566C105.501 52.5624 105.5 49.707 105.5 46H102.5ZM101.396 32.4511C101.917 33.708 102.204 35.1927 102.351 37.3476C102.499 39.516 102.5 42.2519 102.5 46H105.5C105.5 42.293 105.501 39.4376 105.344 37.1434C105.187 34.8357 104.865 32.9864 104.168 31.303L101.396 32.4511ZM93.5489 24.6037C97.1018 26.0754 99.9246 28.8982 101.396 32.4511L104.168 31.303C102.392 27.015 98.9849 23.6083 94.697 21.8321L93.5489 24.6037ZM80 23.5C83.7481 23.5 86.484 23.5008 88.6524 23.6488C90.8073 23.7958 92.292 24.0831 93.5489 24.6037L94.697 21.8321C93.0135 21.1348 91.1643 20.8132 88.8566 20.6557C86.5624 20.4992 83.707 20.5 80 20.5V23.5ZM39 23.5H80V20.5H39V23.5ZM25.4511 24.6037C26.708 24.0831 28.1927 23.7958 30.3476 23.6488C32.516 23.5008 35.2519 23.5 39 23.5V20.5C35.293 20.5 32.4376 20.4992 30.1434 20.6557C27.8357 20.8132 25.9864 21.1348 24.303 21.8321L25.4511 24.6037ZM17.6037 32.4511C19.0754 28.8982 21.8982 26.0754 25.4511 24.6037L24.303 21.8321C20.015 23.6083 16.6083 27.015 14.8321 31.303L17.6037 32.4511Z" fill="#0057F2"/>
<path fill-rule="evenodd" clip-rule="evenodd" d="M62.689 74.3554C62 76.6266 62 79.4177 62 85C62 90.5823 62 93.3734 62.689 95.6446C64.2402 100.758 68.2418 104.76 73.3554 106.311C75.6266 107 78.4177 107 84 107H97.0994C99.3153 112.567 104.692 116 111.5 116C110.181 113.362 109.558 109.907 109.264 106.928C111.094 106.847 112.442 106.676 113.645 106.311C118.758 104.76 122.76 100.758 124.311 95.6446C125 93.3734 125 90.5823 125 85C125 79.4177 125 76.6266 124.311 74.3554C122.76 69.2418 118.758 65.2402 113.645 63.689C111.373 63 108.582 63 103 63H84C78.4177 63 75.6266 63 73.3554 63.689C68.2418 65.2402 64.2402 69.2418 62.689 74.3554Z" fill="#F9FAFC"/>
<path d="M62.689 74.3554L61.2535 73.92L62.689 74.3554ZM62.689 95.6446L64.1244 95.2091L62.689 95.6446ZM73.3554 106.311L72.92 107.746L73.3554 106.311ZM97.0994 107L98.4931 106.445C98.2659 105.875 97.7137 105.5 97.0994 105.5V107ZM111.5 116V117.5C112.02 117.5 112.503 117.231 112.776 116.789C113.049 116.346 113.074 115.794 112.842 115.329L111.5 116ZM109.264 106.928L109.198 105.43C108.786 105.448 108.4 105.634 108.13 105.946C107.86 106.257 107.73 106.666 107.771 107.076L109.264 106.928ZM113.645 106.311L113.209 104.876L113.645 106.311ZM124.311 95.6446L125.746 96.08V96.08L124.311 95.6446ZM124.311 74.3554L125.746 73.92L124.311 74.3554ZM113.645 63.689L113.209 65.1244L113.645 63.689ZM73.3554 63.689L72.92 62.2535L73.3554 63.689ZM63.5 85C63.5 79.3086 63.5163 76.7955 64.1244 74.7909L61.2535 73.92C60.4837 76.4578 60.5 79.5269 60.5 85H63.5ZM64.1244 95.2091C63.5163 93.2045 63.5 90.6914 63.5 85H60.5C60.5 90.4731 60.4837 93.5422 61.2535 96.08L64.1244 95.2091ZM73.7909 104.876C69.1567 103.47 65.5301 99.8433 64.1244 95.2091L61.2535 96.08C62.9502 101.673 67.327 106.05 72.92 107.746L73.7909 104.876ZM84 105.5C78.3086 105.5 75.7955 105.484 73.7909 104.876L72.92 107.746C75.4578 108.516 78.5269 108.5 84 108.5V105.5ZM97.0994 105.5H84V108.5H97.0994V105.5ZM95.7058 107.555C98.1791 113.769 104.164 117.5 111.5 117.5V114.5C105.221 114.5 100.452 111.366 98.4931 106.445L95.7058 107.555ZM112.842 115.329C111.648 112.942 111.046 109.71 110.756 106.781L107.771 107.076C108.07 110.105 108.714 113.782 110.158 116.671L112.842 115.329ZM113.209 104.876C112.181 105.187 110.977 105.351 109.198 105.43L109.33 108.427C111.212 108.344 112.703 108.164 114.08 107.746L113.209 104.876ZM122.876 95.2091C121.47 99.8433 117.843 103.47 113.209 104.876L114.08 107.746C119.673 106.05 124.05 101.673 125.746 96.08L122.876 95.2091ZM123.5 85C123.5 90.6914 123.484 93.2045 122.876 95.2091L125.746 96.08C126.516 93.5422 126.5 90.4731 126.5 85H123.5ZM122.876 74.7909C123.484 76.7955 123.5 79.3086 123.5 85H126.5C126.5 79.5269 126.516 76.4578 125.746 73.92L122.876 74.7909ZM113.209 65.1244C117.843 66.5301 121.47 70.1567 122.876 74.7909L125.746 73.92C124.05 68.327 119.673 63.9502 114.08 62.2535L113.209 65.1244ZM103 64.5C108.691 64.5 111.205 64.5163 113.209 65.1244L114.08 62.2535C111.542 61.4837 108.473 61.5 103 61.5V64.5ZM84 64.5H103V61.5H84V64.5ZM73.7909 65.1244C75.7955 64.5163 78.3086 64.5 84 64.5V61.5C78.5269 61.5 75.4578 61.4837 72.92 62.2535L73.7909 65.1244ZM64.1244 74.7909C65.5301 70.1567 69.1567 66.5301 73.7909 65.1244L72.92 62.2535C67.327 63.9502 62.9502 68.327 61.2535 73.92L64.1244 74.7909Z" fill="#0057F2"/>
<path fill-rule="evenodd" clip-rule="evenodd" d="M10.2179 27.8771C9 30.8174 9 34.5449 9 42C9 49.4551 9 53.1826 10.2179 56.1229C11.8418 60.0434 14.9566 63.1582 18.8771 64.7821C21.8174 66 25.5449 66 33 66H34.0864C33.2497 68.5458 31.7142 71.4171 29 73.3767C37.4452 75.4506 43.6263 72.1867 46.5025 66H74C81.4551 66 85.1826 66 88.1229 64.7821C92.0434 63.1582 95.1582 60.0434 96.7821 56.1229C98 53.1826 98 49.4551 98 42C98 34.5449 98 30.8174 96.7821 27.8771C95.1582 23.9566 92.0434 20.8418 88.1229 19.2179C85.1826 18 81.4551 18 74 18H33C25.5449 18 21.8174 18 18.8771 19.2179C14.9566 20.8418 11.8418 23.9566 10.2179 27.8771Z" fill="#F9FAFC"/>
<path d="M10.2179 27.8771L8.83211 27.303H8.83211L10.2179 27.8771ZM10.2179 56.1229L8.83211 56.697H8.83211L10.2179 56.1229ZM18.8771 64.7821L18.303 66.1679H18.303L18.8771 64.7821ZM34.0864 66L35.5114 66.4683C35.6616 66.0113 35.5835 65.51 35.3014 65.1204C35.0193 64.7307 34.5674 64.5 34.0864 64.5V66ZM29 73.3767L28.122 72.1605C27.6479 72.5028 27.4159 73.0894 27.5276 73.6633C27.6394 74.2372 28.0744 74.694 28.6423 74.8334L29 73.3767ZM46.5025 66V64.5C45.9189 64.5 45.3883 64.8385 45.1423 65.3676L46.5025 66ZM88.1229 64.7821L88.697 66.1679L88.1229 64.7821ZM96.7821 56.1229L98.1679 56.697L96.7821 56.1229ZM96.7821 27.8771L98.1679 27.303L96.7821 27.8771ZM88.1229 19.2179L88.697 17.8321V17.8321L88.1229 19.2179ZM18.8771 19.2179L18.303 17.8321V17.8321L18.8771 19.2179ZM10.5 42C10.5 38.2519 10.5008 35.516 10.6488 33.3476C10.7958 31.1927 11.0831 29.708 11.6037 28.4511L8.83211 27.303C8.13482 28.9864 7.81317 30.8357 7.65572 33.1434C7.49919 35.4376 7.5 38.293 7.5 42H10.5ZM11.6037 55.5489C11.0831 54.292 10.7958 52.8073 10.6488 50.6524C10.5008 48.484 10.5 45.7481 10.5 42H7.5C7.5 45.707 7.49919 48.5624 7.65572 50.8566C7.81317 53.1643 8.13482 55.0136 8.83211 56.697L11.6037 55.5489ZM19.4511 63.3963C15.8982 61.9246 13.0754 59.1018 11.6037 55.5489L8.83211 56.697C10.6083 60.985 14.015 64.3917 18.303 66.1679L19.4511 63.3963ZM33 64.5C29.2519 64.5 26.516 64.4992 24.3476 64.3512C22.1927 64.2042 20.708 63.9169 19.4511 63.3963L18.303 66.1679C19.9864 66.8652 21.8357 67.1868 24.1434 67.3443C26.4376 67.5008 29.293 67.5 33 67.5V64.5ZM34.0864 64.5H33V67.5H34.0864V64.5ZM29.878 74.5928C32.9387 72.3831 34.6172 69.1891 35.5114 66.4683L32.6614 65.5317C31.8822 67.9024 30.4897 70.4511 28.122 72.1605L29.878 74.5928ZM45.1423 65.3676C43.8389 68.1712 41.821 70.2514 39.2249 71.4178C36.6242 72.5863 33.3187 72.8927 29.3577 71.92L28.6423 74.8334C33.1266 75.9346 37.1342 75.646 40.4544 74.1543C43.7792 72.6605 46.2899 70.0155 47.8627 66.6324L45.1423 65.3676ZM74 64.5H46.5025V67.5H74V64.5ZM87.5489 63.3963C86.292 63.9169 84.8073 64.2042 82.6524 64.3512C80.484 64.4992 77.7481 64.5 74 64.5V67.5C77.707 67.5 80.5624 67.5008 82.8566 67.3443C85.1643 67.1868 87.0135 66.8652 88.697 66.1679L87.5489 63.3963ZM95.3963 55.5489C93.9246 59.1018 91.1018 61.9246 87.5489 63.3963L88.697 66.1679C92.9849 64.3917 96.3918 60.985 98.1679 56.697L95.3963 55.5489ZM96.5 42C96.5 45.7481 96.4992 48.484 96.3512 50.6524C96.2042 52.8073 95.9169 54.292 95.3963 55.5489L98.1679 56.697C98.8652 55.0136 99.1868 53.1643 99.3443 50.8566C99.5008 48.5624 99.5 45.707 99.5 42H96.5ZM95.3963 28.4511C95.9169 29.708 96.2042 31.1927 96.3512 33.3476C96.4992 35.516 96.5 38.2519 96.5 42H99.5C99.5 38.293 99.5008 35.4376 99.3443 33.1434C99.1868 30.8357 98.8652 28.9864 98.1679 27.303L95.3963 28.4511ZM87.5489 20.6037C91.1018 22.0754 93.9246 24.8982 95.3963 28.4511L98.1679 27.303C96.3918 23.015 92.9849 19.6083 88.697 17.8321L87.5489 20.6037ZM74 19.5C77.7481 19.5 80.484 19.5008 82.6524 19.6488C84.8073 19.7958 86.292 20.0831 87.5489 20.6037L88.697 17.8321C87.0135 17.1348 85.1643 16.8132 82.8566 16.6557C80.5624 16.4992 77.707 16.5 74 16.5V19.5ZM33 19.5H74V16.5H33V19.5ZM19.4511 20.6037C20.708 20.0831 22.1927 19.7958 24.3476 19.6488C26.516 19.5008 29.2519 19.5 33 19.5V16.5C29.293 16.5 26.4376 16.4992 24.1434 16.6557C21.8357 16.8132 19.9864 17.1348 18.303 17.8321L19.4511 20.6037ZM11.6037 28.4511C13.0754 24.8982 15.8982 22.0754 19.4511 20.6037L18.303 17.8321C14.015 19.6083 10.6083 23.015 8.83211 27.303L11.6037 28.4511Z" fill="#2B2727"/>
<path fill-rule="evenodd" clip-rule="evenodd" d="M56.689 70.3554C56 72.6266 56 75.4177 56 81C56 86.5823 56 89.3734 56.689 91.6446C58.2402 96.7582 62.2418 100.76 67.3554 102.311C69.6266 103 72.4177 103 78 103H91.0994C93.3153 108.567 98.6925 112 105.5 112C104.181 109.362 103.558 105.907 103.264 102.928C105.094 102.847 106.442 102.676 107.645 102.311C112.758 100.76 116.76 96.7582 118.311 91.6446C119 89.3734 119 86.5823 119 81C119 75.4177 119 72.6266 118.311 70.3554C116.76 65.2418 112.758 61.2402 107.645 59.689C105.373 59 102.582 59 97 59H78C72.4177 59 69.6266 59 67.3554 59.689C62.2418 61.2402 58.2402 65.2418 56.689 70.3554Z" fill="#F9FAFC"/>
<path d="M56.689 70.3554L55.2535 69.92L56.689 70.3554ZM56.689 91.6446L58.1244 91.2091L56.689 91.6446ZM67.3554 102.311L66.92 103.746L67.3554 102.311ZM91.0994 103L92.4931 102.445C92.2659 101.875 91.7137 101.5 91.0994 101.5V103ZM105.5 112V113.5C106.02 113.5 106.503 113.231 106.776 112.789C107.049 112.346 107.074 111.794 106.842 111.329L105.5 112ZM103.264 102.928L103.198 101.43C102.786 101.448 102.4 101.634 102.13 101.946C101.86 102.257 101.73 102.666 101.771 103.076L103.264 102.928ZM107.645 102.311L107.209 100.876L107.645 102.311ZM118.311 91.6446L119.746 92.08V92.08L118.311 91.6446ZM118.311 70.3554L119.746 69.92L118.311 70.3554ZM107.645 59.689L107.209 61.1244L107.645 59.689ZM67.3554 59.689L66.92 58.2535L67.3554 59.689ZM57.5 81C57.5 75.3086 57.5163 72.7955 58.1244 70.7909L55.2535 69.92C54.4837 72.4578 54.5 75.5269 54.5 81H57.5ZM58.1244 91.2091C57.5163 89.2045 57.5 86.6914 57.5 81H54.5C54.5 86.4731 54.4837 89.5422 55.2535 92.08L58.1244 91.2091ZM67.7909 100.876C63.1567 99.4699 59.5301 95.8433 58.1244 91.2091L55.2535 92.08C56.9502 97.673 61.327 102.05 66.92 103.746L67.7909 100.876ZM78 101.5C72.3086 101.5 69.7955 101.484 67.7909 100.876L66.92 103.746C69.4578 104.516 72.5269 104.5 78 104.5V101.5ZM91.0994 101.5H78V104.5H91.0994V101.5ZM89.7058 103.555C92.1791 109.769 98.1644 113.5 105.5 113.5V110.5C99.2206 110.5 94.4515 107.366 92.4931 102.445L89.7058 103.555ZM106.842 111.329C105.648 108.942 105.046 105.71 104.756 102.781L101.771 103.076C102.07 106.105 102.714 109.782 104.158 112.671L106.842 111.329ZM107.209 100.876C106.181 101.187 104.977 101.351 103.198 101.43L103.33 104.427C105.212 104.344 106.703 104.164 108.08 103.746L107.209 100.876ZM116.876 91.2091C115.47 95.8433 111.843 99.4699 107.209 100.876L108.08 103.746C113.673 102.05 118.05 97.673 119.746 92.08L116.876 91.2091ZM117.5 81C117.5 86.6914 117.484 89.2045 116.876 91.2091L119.746 92.08C120.516 89.5422 120.5 86.4731 120.5 81H117.5ZM116.876 70.7909C117.484 72.7955 117.5 75.3086 117.5 81H120.5C120.5 75.5269 120.516 72.4578 119.746 69.92L116.876 70.7909ZM107.209 61.1244C111.843 62.5301 115.47 66.1567 116.876 70.7909L119.746 69.92C118.05 64.327 113.673 59.9502 108.08 58.2535L107.209 61.1244ZM97 60.5C102.691 60.5 105.205 60.5163 107.209 61.1244L108.08 58.2535C105.542 57.4837 102.473 57.5 97 57.5V60.5ZM78 60.5H97V57.5H78V60.5ZM67.7909 61.1244C69.7955 60.5163 72.3086 60.5 78 60.5V57.5C72.5269 57.5 69.4578 57.4837 66.92 58.2535L67.7909 61.1244ZM58.1244 70.7909C59.5301 66.1567 63.1567 62.5301 67.7909 61.1244L66.92 58.2535C61.327 59.9502 56.9502 64.327 55.2535 69.92L58.1244 70.7909Z" fill="#2B2727"/>
</g>
<defs>
<clipPath id="clip0_96_46684">
<rect width="128" height="128" fill="white"/>
</clipPath>
</defs>
</svg>
