<svg width="128" height="128" viewBox="0 0 128 128" fill="none" xmlns="http://www.w3.org/2000/svg">
<g clip-path="url(#clip0_83_32356)">
<path d="M40.0823 111.088C38.4033 111.384 37.2327 111.59 36.3083 111.676C35.4015 111.76 34.8639 111.715 34.4399 111.585C33.5311 111.307 32.7336 110.749 32.1617 109.99C31.8949 109.636 31.6682 109.146 31.4375 108.265C31.2024 107.367 30.9949 106.197 30.6988 104.518L19.2776 39.745C18.9816 38.066 18.7763 36.8954 18.6901 35.9711C18.6055 35.0642 18.6511 34.5266 18.7807 34.1026C19.0586 33.1939 19.617 32.3964 20.3759 31.8244C20.73 31.5576 21.2196 31.3309 22.1007 31.1002C22.9988 30.8651 24.169 30.6576 25.848 30.3615L61.7671 24.028C63.4461 23.732 64.6167 23.5268 65.541 23.4405C66.4479 23.3559 66.9855 23.4015 67.4095 23.5312C68.3183 23.809 69.1157 24.3674 69.6877 25.1264C69.9545 25.4804 70.1812 25.97 70.4119 26.8511C70.647 27.7492 70.8545 28.9194 71.1506 30.5984L82.5718 95.3713C82.8678 97.0503 83.0731 98.2209 83.1593 99.1452C83.2439 100.052 83.1983 100.59 83.0686 101.014C82.7908 101.922 82.2324 102.72 81.4734 103.292C81.1194 103.559 80.6298 103.785 79.7487 104.016C78.8506 104.251 77.6804 104.459 76.0014 104.755L40.0823 111.088Z" fill="#F9FAFC" stroke="#0057F2" stroke-width="3" stroke-linejoin="round"/>
<g clip-path="url(#clip1_83_32356)">
<path d="M46.107 65.4209C46.6648 68.0886 49.1342 69.8652 51.7863 69.6276C51.9202 69.6156 52.0542 69.5996 52.1886 69.5779C52.3097 69.5584 52.3867 69.4405 52.3617 69.3207L52.1963 68.5301C52.1713 68.4104 52.0537 68.3342 51.9323 68.3516C51.7969 68.371 51.662 68.3828 51.5275 68.3899C49.5567 68.4938 47.7486 67.1546 47.3325 65.1647C46.8728 62.966 48.2854 60.8113 50.4862 60.3511C52.687 59.891 54.8426 61.2996 55.3023 63.4982L56.5512 69.4709C56.5868 69.6412 56.7955 69.7049 56.9151 69.5781C57.166 69.3123 57.3977 69.0295 57.6075 68.7316C57.6423 68.6822 57.6545 68.6205 57.6421 68.5615L56.5298 63.2416C55.9286 60.3664 53.1078 58.5231 50.2298 59.1249C47.3518 59.7267 45.5058 62.5457 46.107 65.4209Z" fill="#2B2727"/>
<path d="M43.8277 65.8975C44.3151 68.2283 45.8132 70.0891 47.7701 71.1162C49.1338 71.8322 50.727 72.1225 52.2561 71.9318C52.2601 71.9314 52.264 71.9319 52.268 71.9314C52.4015 71.9145 52.535 71.8967 52.6688 71.8745C52.7898 71.8544 52.8668 71.7367 52.8418 71.6169L52.6764 70.8263C52.6514 70.7065 52.5338 70.6301 52.4129 70.6509C52.2791 70.6738 52.1457 70.6923 52.012 70.707C48.7651 71.0641 45.7159 68.9055 45.0342 65.6452C44.3092 62.1781 46.5351 58.7788 50.0057 58.0531C53.4763 57.3274 56.8777 59.5501 57.6026 63.0173L58.3158 66.428C58.3607 66.6431 58.6446 66.6632 58.7056 66.452C59.0074 65.4062 59.0867 64.2822 58.9083 63.1443L58.8281 62.761C58.0159 58.8763 54.3928 56.3008 50.5255 56.7084C50.2741 56.7349 50.0216 56.7726 49.7688 56.8248C49.5095 56.879 49.255 56.9473 49.0078 57.0257C45.3012 58.2018 43.0155 62.0128 43.8277 65.8975Z" fill="#2B2727"/>
<path d="M48.4054 64.9403C48.6973 66.3365 49.9276 67.2937 51.2998 67.301C51.4349 67.3017 51.571 67.2949 51.7079 67.2778C51.8296 67.2627 51.9066 67.1444 51.8815 67.0246L51.7158 66.2321C51.6908 66.1123 51.573 66.0371 51.4507 66.0459C51.3089 66.056 51.169 66.0479 51.033 66.0251C50.3543 65.911 49.782 65.3975 49.6328 64.6837C49.4383 63.7535 50.0352 62.842 50.9663 62.6473C51.8974 62.4526 52.8094 63.0486 53.004 63.9788L54.2693 70.0301C54.1093 70.1119 53.9418 70.1918 53.7829 70.2758C53.6714 70.3347 53.6116 70.4584 53.6342 70.5667L53.7981 71.3505C53.8205 71.4576 53.9653 71.527 54.0793 71.4816C54.5879 71.2718 55.1165 71.0374 55.5682 70.7197C55.6387 70.6701 55.6633 70.5796 55.6473 70.5028L54.2295 63.7225C53.8936 62.1158 52.3186 61.0867 50.7103 61.423C49.102 61.7592 48.0694 63.3336 48.4054 64.9403Z" fill="#2B2727"/>
</g>
<path d="M113.5 45V105.5H102.5V58C102.5 57.1716 101.828 56.5 101 56.5H38C37.1716 56.5 36.5 57.1716 36.5 58V105.5H26.5V44.5C26.5 44.012 26.5008 43.8403 26.5096 43.7057C26.6573 41.4523 28.4523 39.6573 30.7057 39.5096C30.8403 39.5008 31.012 39.5 31.5 39.5C31.988 39.5 32.1597 39.5008 32.2943 39.5096C34.5477 39.6573 36.3427 41.4523 36.4904 43.7057C36.4992 43.8403 36.5 44.012 36.5 44.5V46C36.5 46.8284 37.1716 47.5 38 47.5H101C101.828 47.5 102.5 46.8284 102.5 46V45C102.5 44.0235 102.503 43.6805 102.538 43.4126C102.804 41.3933 104.393 39.8043 106.413 39.5385C106.68 39.5032 107.023 39.5 108 39.5C108.977 39.5 109.32 39.5032 109.587 39.5385C111.607 39.8043 113.196 41.3933 113.462 43.4126C113.497 43.6805 113.5 44.0235 113.5 45Z" fill="#F9FAFC" stroke="#0057F2" stroke-width="3" stroke-linejoin="round"/>
<rect x="75.4758" y="110.963" width="68.7608" height="31.7931" rx="4.5" transform="rotate(-80 75.4758 110.963)" fill="#F9FAFC" stroke="#0057F2" stroke-width="3"/>
<path d="M83.2652 107.236C82.1774 107.044 81.4511 106.007 81.6429 104.919L81.8923 103.504C82.0841 102.416 83.1215 101.69 84.2092 101.882L85.6238 102.131C86.7116 102.323 87.438 103.36 87.2462 104.448L86.9967 105.863C86.8049 106.951 85.7676 107.677 84.6798 107.485L83.2652 107.236Z" stroke="#0057F2"/>
<path d="M84.587 99.7401C83.4992 99.5483 82.7729 98.511 82.9647 97.4232L83.2141 96.0086C83.4059 94.9208 84.4432 94.1945 85.531 94.3863L86.9456 94.6357C88.0334 94.8275 88.7597 95.8649 88.5679 96.9527L88.3185 98.3673C88.1267 99.455 87.0894 100.181 86.0016 99.9896L84.587 99.7401Z" stroke="#0057F2"/>
<path d="M85.9085 92.2449C84.8207 92.0531 84.0944 91.0157 84.2862 89.9279L84.5356 88.5133C84.7275 87.4256 85.7648 86.6992 86.8526 86.891L88.2672 87.1405C89.3549 87.3323 90.0813 88.3696 89.8895 89.4574L89.64 90.872C89.4482 91.9598 88.4109 92.6861 87.3231 92.4943L85.9085 92.2449Z" stroke="#0057F2"/>
<path d="M87.2302 84.7494C86.1424 84.5576 85.4161 83.5203 85.6079 82.4325L85.8573 81.0179C86.0491 79.9301 87.0864 79.2038 88.1742 79.3956L89.5888 79.645C90.6766 79.8369 91.4029 80.8742 91.2111 81.962L90.9617 83.3766C90.7699 84.4643 89.7326 85.1907 88.6448 84.9989L87.2302 84.7494Z" stroke="#0057F2"/>
<path d="M88.552 77.2541C87.4642 77.0623 86.7379 76.025 86.9297 74.9372L87.1791 73.5226C87.3709 72.4348 88.4082 71.7085 89.496 71.9003L90.9106 72.1497C91.9984 72.3416 92.7247 73.3789 92.5329 74.4667L92.2835 75.8813C92.0917 76.969 91.0544 77.6954 89.9666 77.5036L88.552 77.2541Z" stroke="#0057F2"/>
<path d="M89.8735 69.7586C88.7857 69.5668 88.0594 68.5295 88.2512 67.4417L88.5006 66.0271C88.6924 64.9393 89.7297 64.213 90.8175 64.4048L92.2321 64.6542C93.3199 64.846 94.0462 65.8833 93.8544 66.9711L93.605 68.3857C93.4132 69.4735 92.3759 70.1999 91.2881 70.008L89.8735 69.7586Z" stroke="#0057F2"/>
<path d="M91.1951 62.2636C90.1073 62.0718 89.3809 61.0345 89.5727 59.9467L89.8222 58.5321C90.014 57.4443 91.0513 56.7179 92.1391 56.9097L93.5537 57.1592C94.6415 57.351 95.3678 58.3883 95.176 59.4761L94.9266 60.8907C94.7348 61.9785 93.6975 62.7048 92.6097 62.513L91.1951 62.2636Z" stroke="#0057F2"/>
<path d="M92.5168 54.768C91.429 54.5762 90.7027 53.5389 90.8945 52.4511L91.1439 51.0365C91.3358 49.9487 92.3731 49.2224 93.4609 49.4142L94.8755 49.6636C95.9632 49.8554 96.6896 50.8928 96.4978 51.9805L96.2483 53.3951C96.0565 54.4829 95.0192 55.2093 93.9314 55.0175L92.5168 54.768Z" stroke="#0057F2"/>
<path d="M90.7607 108.557C89.6729 108.365 88.9466 107.328 89.1384 106.24L89.3878 104.825C89.5796 103.738 90.617 103.011 91.7047 103.203L93.1193 103.453C94.2071 103.644 94.9335 104.682 94.7417 105.769L94.4922 107.184C94.3004 108.272 93.2631 108.998 92.1753 108.806L90.7607 108.557Z" stroke="#0057F2"/>
<path d="M92.0823 101.062C90.9945 100.87 90.2682 99.8328 90.46 98.745L90.7094 97.3304C90.9012 96.2426 91.9385 95.5163 93.0263 95.7081L94.4409 95.9575C95.5287 96.1493 96.255 97.1867 96.0632 98.2744L95.8138 99.689C95.622 100.777 94.5847 101.503 93.4969 101.311L92.0823 101.062Z" stroke="#0057F2"/>
<path d="M93.4039 93.5665C92.3162 93.3747 91.5898 92.3374 91.7816 91.2496L92.0311 89.835C92.2229 88.7472 93.2602 88.0209 94.348 88.2127L95.7626 88.4621C96.8504 88.6539 97.5767 89.6912 97.3849 90.779L97.1355 92.1936C96.9437 93.2814 95.9063 94.0078 94.8185 93.8159L93.4039 93.5665Z" stroke="#0057F2"/>
<path d="M94.7256 86.0711C93.6378 85.8793 92.9115 84.842 93.1033 83.7542L93.3527 82.3396C93.5445 81.2518 94.5818 80.5255 95.6696 80.7173L97.0842 80.9667C98.172 81.1585 98.8984 82.1958 98.7065 83.2836L98.4571 84.6982C98.2653 85.786 97.228 86.5123 96.1402 86.3205L94.7256 86.0711Z" stroke="#0057F2"/>
<path d="M96.0473 78.5758C94.9595 78.384 94.2331 77.3467 94.425 76.2589L94.6744 74.8443C94.8662 73.7565 95.9035 73.0302 96.9913 73.222L98.4059 73.4714C99.4937 73.6632 100.22 74.7005 100.028 75.7883L99.7788 77.2029C99.587 78.2907 98.5497 79.017 97.4619 78.8252L96.0473 78.5758Z" stroke="#0057F2"/>
<path d="M97.3688 71.0804C96.281 70.8886 95.5547 69.8513 95.7465 68.7635L95.9959 67.3489C96.1877 66.2611 97.225 65.5348 98.3128 65.7266L99.7274 65.976C100.815 66.1678 101.542 67.2051 101.35 68.2929L101.1 69.7075C100.909 70.7953 99.8712 71.5216 98.7834 71.3298L97.3688 71.0804Z" stroke="#0057F2"/>
<path d="M98.6906 63.5849C97.6028 63.3931 96.8764 62.3557 97.0683 61.2679L97.3177 59.8533C97.5095 58.7656 98.5468 58.0392 99.6346 58.231L101.049 58.4805C102.137 58.6723 102.863 59.7096 102.672 60.7974L102.422 62.212C102.23 63.2998 101.193 64.0261 100.105 63.8343L98.6906 63.5849Z" stroke="#0057F2"/>
<path d="M100.012 56.0897C98.9242 55.8979 98.1979 54.8606 98.3897 53.7728L98.6391 52.3582C98.8309 51.2704 99.8682 50.5441 100.956 50.7359L102.371 50.9853C103.458 51.1771 104.185 52.2144 103.993 53.3022L103.744 54.7168C103.552 55.8046 102.514 56.5309 101.427 56.3391L100.012 56.0897Z" stroke="#0057F2"/>
<path d="M98.256 109.879C97.1682 109.687 96.4419 108.65 96.6337 107.562L96.8832 106.147C97.075 105.06 98.1123 104.333 99.2001 104.525L100.615 104.774C101.702 104.966 102.429 106.004 102.237 107.091L101.988 108.506C101.796 109.594 100.758 110.32 99.6706 110.128L98.256 109.879Z" stroke="#0057F2"/>
<path d="M99.5777 102.383C98.4899 102.192 97.7636 101.154 97.9554 100.066L104.813 61.175C105.005 60.0872 106.042 59.3609 107.13 59.5527L108.544 59.8021C109.632 59.9939 110.359 61.0313 110.167 62.119L103.309 101.01C103.117 102.098 102.08 102.825 100.992 102.633L99.5777 102.383Z" stroke="#0057F2"/>
<path d="M107.507 57.4113C106.419 57.2194 105.693 56.1821 105.885 55.0943L106.134 53.6797C106.326 52.592 107.364 51.8656 108.451 52.0574L109.866 52.3069C110.954 52.4987 111.68 53.536 111.488 54.6238L111.239 56.0384C111.047 57.1262 110.01 57.8525 108.922 57.6607L107.507 57.4113Z" stroke="#0057F2"/>
<path d="M59.5 78.988C59.5 76.723 59.5012 75.1145 59.604 73.8558C59.7054 72.6145 59.8982 71.846 60.2085 71.2371C60.8316 70.014 61.826 69.0196 63.0491 68.3964C63.658 68.0862 64.4265 67.8934 65.6678 67.792C66.9265 67.6892 68.535 67.688 70.8 67.688H76.1058C78.3707 67.688 79.9792 67.6892 81.238 67.792C82.4792 67.8934 83.2477 68.0862 83.8567 68.3964C85.0797 69.0196 86.0741 70.014 86.6973 71.2371C87.0076 71.846 87.2003 72.6145 87.3017 73.8558C87.4046 75.1145 87.4057 76.723 87.4057 78.988V104.275C87.4057 106.54 87.4046 108.148 87.3017 109.407C87.2003 110.648 87.0076 111.417 86.6973 112.026C86.0741 113.249 85.0797 114.243 83.8567 114.867C83.2477 115.177 82.4792 115.37 81.238 115.471C79.9792 115.574 78.3707 115.575 76.1057 115.575H70.8C68.535 115.575 66.9265 115.574 65.6678 115.471C64.4265 115.37 63.658 115.177 63.0491 114.867C61.826 114.243 60.8316 113.249 60.2085 112.026C59.8982 111.417 59.7054 110.648 59.604 109.407C59.5012 108.148 59.5 106.54 59.5 104.275L59.5 78.988Z" fill="#F9FAFC" stroke="#0057F2" stroke-width="3" stroke-linejoin="round"/>
<path d="M70 72.8779L76.7606 72.8779" stroke="#0057F2" stroke-width="3" stroke-linecap="round"/>
<path d="M68 111.692L78.6238 111.692" stroke="#0057F2" stroke-linecap="round"/>
<path d="M26.5 86.4C26.5 85.2551 26.5012 84.4867 26.5495 83.895C26.5964 83.3207 26.6802 83.0461 26.7725 82.865C27.0122 82.3946 27.3946 82.0122 27.865 81.7725C28.0461 81.6802 28.3207 81.5964 28.895 81.5495C29.4867 81.5012 30.2551 81.5 31.4 81.5H108.6C109.745 81.5 110.513 81.5012 111.105 81.5495C111.679 81.5964 111.954 81.6802 112.135 81.7725C112.605 82.0122 112.988 82.3946 113.228 82.865C113.32 83.0461 113.404 83.3207 113.45 83.895C113.499 84.4867 113.5 85.2551 113.5 86.4V105.2C113.5 107.465 113.499 109.073 113.396 110.332C113.295 111.573 113.102 112.342 112.792 112.951C112.168 114.174 111.174 115.168 109.951 115.792C109.342 116.102 108.573 116.295 107.332 116.396C106.073 116.499 104.465 116.5 102.2 116.5H37.8C35.535 116.5 33.9265 116.499 32.6678 116.396C31.4265 116.295 30.658 116.102 30.0491 115.792C28.826 115.168 27.8316 114.174 27.2085 112.951C26.8982 112.342 26.7054 111.573 26.604 110.332C26.5012 109.073 26.5 107.465 26.5 105.2V86.4Z" fill="#F9FAFC" stroke="#0057F2" stroke-width="3" stroke-linejoin="round"/>
<path d="M25 99.5H115" stroke="#0057F2"/>
<path d="M34.0823 107.088C32.4033 107.384 31.2327 107.59 30.3083 107.676C29.4015 107.76 28.8639 107.715 28.4399 107.585C27.5311 107.307 26.7336 106.749 26.1617 105.99C25.8949 105.636 25.6682 105.146 25.4375 104.265C25.2024 103.367 24.9949 102.197 24.6988 100.518L13.2776 35.745C12.9816 34.066 12.7763 32.8954 12.6901 31.9711C12.6055 31.0642 12.6511 30.5266 12.7807 30.1026C13.0586 29.1939 13.617 28.3964 14.3759 27.8244C14.73 27.5576 15.2196 27.3309 16.1007 27.1002C16.9988 26.8651 18.169 26.6576 19.848 26.3615L55.7671 20.028C57.4461 19.732 58.6167 19.5268 59.541 19.4405C60.4479 19.3559 60.9855 19.4015 61.4095 19.5312C62.3183 19.809 63.1157 20.3674 63.6877 21.1264C63.9545 21.4804 64.1812 21.97 64.4119 22.8511C64.647 23.7492 64.8545 24.9194 65.1506 26.5984L76.5718 91.3713C76.8678 93.0503 77.0731 94.2209 77.1593 95.1452C77.2439 96.0521 77.1983 96.5897 77.0686 97.0137C76.7908 97.9224 76.2324 98.7199 75.4734 99.2918C75.1194 99.5587 74.6298 99.7854 73.7487 100.016C72.8506 100.251 71.6804 100.459 70.0014 100.755L34.0823 107.088Z" fill="#F9FAFC" stroke="#2B2727" stroke-width="3" stroke-linejoin="round"/>
<g clip-path="url(#clip2_83_32356)">
<path d="M40.107 61.4209C40.6648 64.0886 43.1342 65.8652 45.7863 65.6276C45.9202 65.6156 46.0542 65.5996 46.1886 65.5779C46.3097 65.5584 46.3867 65.4405 46.3617 65.3207L46.1963 64.5301C46.1713 64.4104 46.0537 64.3342 45.9323 64.3516C45.7969 64.371 45.662 64.3828 45.5275 64.3899C43.5567 64.4938 41.7486 63.1546 41.3325 61.1647C40.8728 58.966 42.2854 56.8113 44.4862 56.3511C46.687 55.891 48.8426 57.2996 49.3023 59.4982L50.5512 65.4709C50.5868 65.6412 50.7955 65.7049 50.9151 65.5781C51.166 65.3123 51.3977 65.0295 51.6075 64.7316C51.6423 64.6822 51.6545 64.6205 51.6421 64.5615L50.5298 59.2416C49.9286 56.3664 47.1078 54.5231 44.2298 55.1249C41.3518 55.7267 39.5058 58.5457 40.107 61.4209Z" fill="#2B2727"/>
<path d="M37.8277 61.8975C38.3151 64.2283 39.8132 66.0891 41.7701 67.1162C43.1338 67.8322 44.727 68.1225 46.2561 67.9318C46.2601 67.9314 46.264 67.9319 46.268 67.9314C46.4015 67.9145 46.535 67.8967 46.6688 67.8745C46.7898 67.8544 46.8668 67.7367 46.8418 67.6169L46.6764 66.8263C46.6514 66.7065 46.5338 66.6301 46.4129 66.6509C46.2791 66.6738 46.1457 66.6923 46.012 66.707C42.7651 67.0641 39.7159 64.9055 39.0342 61.6452C38.3092 58.1781 40.5351 54.7788 44.0057 54.0531C47.4763 53.3274 50.8777 55.5501 51.6026 59.0173L52.3158 62.428C52.3607 62.6431 52.6446 62.6632 52.7056 62.452C53.0074 61.4062 53.0867 60.2822 52.9083 59.1443L52.8281 58.761C52.0159 54.8763 48.3928 52.3008 44.5255 52.7084C44.2741 52.7349 44.0216 52.7726 43.7688 52.8248C43.5095 52.879 43.255 52.9473 43.0078 53.0257C39.3012 54.2018 37.0155 58.0128 37.8277 61.8975Z" fill="#2B2727"/>
<path d="M42.4054 60.9403C42.6973 62.3365 43.9276 63.2937 45.2998 63.301C45.4349 63.3017 45.571 63.2949 45.7079 63.2778C45.8296 63.2627 45.9066 63.1444 45.8815 63.0246L45.7158 62.2321C45.6908 62.1123 45.573 62.0371 45.4507 62.0459C45.3089 62.056 45.169 62.0479 45.033 62.0251C44.3543 61.911 43.782 61.3975 43.6328 60.6837C43.4383 59.7535 44.0352 58.842 44.9663 58.6473C45.8974 58.4526 46.8094 59.0486 47.004 59.9788L48.2693 66.0301C48.1093 66.1119 47.9418 66.1918 47.7829 66.2758C47.6714 66.3347 47.6116 66.4584 47.6342 66.5667L47.7981 67.3505C47.8205 67.4576 47.9653 67.527 48.0793 67.4816C48.5879 67.2718 49.1165 67.0374 49.5682 66.7197C49.6387 66.6701 49.6633 66.5796 49.6473 66.5028L48.2295 59.7225C47.8936 58.1158 46.3186 57.0867 44.7103 57.423C43.102 57.7592 42.0694 59.3336 42.4054 60.9403Z" fill="#2B2727"/>
</g>
<path d="M107.5 41V101.5H96.5V54C96.5 53.1716 95.8284 52.5 95 52.5H32C31.1716 52.5 30.5 53.1716 30.5 54V101.5H20.5V40.5C20.5 40.012 20.5008 39.8403 20.5096 39.7057C20.6573 37.4523 22.4523 35.6573 24.7057 35.5096C24.8403 35.5008 25.012 35.5 25.5 35.5C25.988 35.5 26.1597 35.5008 26.2943 35.5096C28.5477 35.6573 30.3427 37.4523 30.4904 39.7057C30.4992 39.8403 30.5 40.012 30.5 40.5V42C30.5 42.8284 31.1716 43.5 32 43.5H95C95.8284 43.5 96.5 42.8284 96.5 42V41C96.5 40.0235 96.5032 39.6805 96.5385 39.4126C96.8043 37.3933 98.3933 35.8043 100.413 35.5385C100.68 35.5032 101.023 35.5 102 35.5C102.977 35.5 103.32 35.5032 103.587 35.5385C105.607 35.8043 107.196 37.3933 107.462 39.4126C107.497 39.6805 107.5 40.0235 107.5 41Z" fill="#F9FAFC" stroke="#2B2727" stroke-width="3" stroke-linejoin="round"/>
<rect x="69.4758" y="106.963" width="68.7608" height="31.7931" rx="4.5" transform="rotate(-80 69.4758 106.963)" fill="#F9FAFC" stroke="#2B2727" stroke-width="3"/>
<path d="M77.2652 103.236C76.1774 103.044 75.4511 102.007 75.6429 100.919L75.8923 99.5042C76.0841 98.4164 77.1215 97.6901 78.2092 97.8819L79.6238 98.1313C80.7116 98.3231 81.438 99.3604 81.2462 100.448L80.9967 101.863C80.8049 102.951 79.7676 103.677 78.6798 103.485L77.2652 103.236Z" stroke="#2B2727"/>
<path d="M78.587 95.7401C77.4992 95.5483 76.7729 94.511 76.9647 93.4232L77.2141 92.0086C77.4059 90.9208 78.4432 90.1945 79.531 90.3863L80.9456 90.6357C82.0334 90.8275 82.7597 91.8649 82.5679 92.9527L82.3185 94.3673C82.1267 95.455 81.0894 96.1814 80.0016 95.9896L78.587 95.7401Z" stroke="#2B2727"/>
<path d="M79.9085 88.2449C78.8207 88.0531 78.0944 87.0157 78.2862 85.9279L78.5356 84.5133C78.7275 83.4256 79.7648 82.6992 80.8526 82.891L82.2672 83.1405C83.3549 83.3323 84.0813 84.3696 83.8895 85.4574L83.64 86.872C83.4482 87.9598 82.4109 88.6861 81.3231 88.4943L79.9085 88.2449Z" stroke="#2B2727"/>
<path d="M81.2302 80.7494C80.1424 80.5576 79.4161 79.5203 79.6079 78.4325L79.8573 77.0179C80.0491 75.9301 81.0864 75.2038 82.1742 75.3956L83.5888 75.645C84.6766 75.8369 85.4029 76.8742 85.2111 77.962L84.9617 79.3766C84.7699 80.4643 83.7326 81.1907 82.6448 80.9989L81.2302 80.7494Z" stroke="#2B2727"/>
<path d="M82.552 73.2541C81.4642 73.0623 80.7379 72.025 80.9297 70.9372L81.1791 69.5226C81.3709 68.4348 82.4082 67.7085 83.496 67.9003L84.9106 68.1497C85.9984 68.3416 86.7247 69.3789 86.5329 70.4667L86.2835 71.8813C86.0917 72.969 85.0544 73.6954 83.9666 73.5036L82.552 73.2541Z" stroke="#2B2727"/>
<path d="M83.8735 65.7586C82.7857 65.5668 82.0594 64.5295 82.2512 63.4417L82.5006 62.0271C82.6924 60.9393 83.7297 60.213 84.8175 60.4048L86.2321 60.6542C87.3199 60.846 88.0462 61.8833 87.8544 62.9711L87.605 64.3857C87.4132 65.4735 86.3759 66.1999 85.2881 66.008L83.8735 65.7586Z" stroke="#2B2727"/>
<path d="M85.1951 58.2636C84.1073 58.0718 83.3809 57.0345 83.5727 55.9467L83.8222 54.5321C84.014 53.4443 85.0513 52.7179 86.1391 52.9097L87.5537 53.1592C88.6415 53.351 89.3678 54.3883 89.176 55.4761L88.9266 56.8907C88.7348 57.9785 87.6975 58.7048 86.6097 58.513L85.1951 58.2636Z" stroke="#2B2727"/>
<path d="M86.5168 50.768C85.429 50.5762 84.7027 49.5389 84.8945 48.4511L85.1439 47.0365C85.3358 45.9487 86.3731 45.2224 87.4609 45.4142L88.8755 45.6636C89.9632 45.8554 90.6896 46.8928 90.4978 47.9805L90.2483 49.3951C90.0565 50.4829 89.0192 51.2093 87.9314 51.0175L86.5168 50.768Z" stroke="#2B2727"/>
<path d="M84.7607 104.557C83.6729 104.365 82.9466 103.328 83.1384 102.24L83.3878 100.825C83.5796 99.7377 84.617 99.0113 85.7047 99.2031L87.1193 99.4526C88.2071 99.6444 88.9335 100.682 88.7417 101.769L88.4922 103.184C88.3004 104.272 87.2631 104.998 86.1753 104.806L84.7607 104.557Z" stroke="#2B2727"/>
<path d="M86.0823 97.0619C84.9945 96.8701 84.2682 95.8328 84.46 94.745L84.7094 93.3304C84.9012 92.2426 85.9385 91.5163 87.0263 91.7081L88.4409 91.9575C89.5287 92.1493 90.255 93.1867 90.0632 94.2744L89.8138 95.689C89.622 96.7768 88.5847 97.5032 87.4969 97.3114L86.0823 97.0619Z" stroke="#2B2727"/>
<path d="M87.4039 89.5665C86.3162 89.3747 85.5898 88.3374 85.7816 87.2496L86.0311 85.835C86.2229 84.7472 87.2602 84.0209 88.348 84.2127L89.7626 84.4621C90.8504 84.6539 91.5767 85.6912 91.3849 86.779L91.1355 88.1936C90.9437 89.2814 89.9063 90.0078 88.8185 89.8159L87.4039 89.5665Z" stroke="#2B2727"/>
<path d="M88.7256 82.0711C87.6378 81.8793 86.9115 80.842 87.1033 79.7542L87.3527 78.3396C87.5445 77.2518 88.5818 76.5255 89.6696 76.7173L91.0842 76.9667C92.172 77.1585 92.8984 78.1958 92.7065 79.2836L92.4571 80.6982C92.2653 81.786 91.228 82.5123 90.1402 82.3205L88.7256 82.0711Z" stroke="#2B2727"/>
<path d="M90.0473 74.5758C88.9595 74.384 88.2331 73.3467 88.425 72.2589L88.6744 70.8443C88.8662 69.7565 89.9035 69.0302 90.9913 69.222L92.4059 69.4714C93.4937 69.6632 94.22 70.7005 94.0282 71.7883L93.7788 73.2029C93.587 74.2907 92.5497 75.017 91.4619 74.8252L90.0473 74.5758Z" stroke="#2B2727"/>
<path d="M91.3688 67.0804C90.281 66.8886 89.5547 65.8513 89.7465 64.7635L89.9959 63.3489C90.1877 62.2611 91.225 61.5348 92.3128 61.7266L93.7274 61.976C94.8152 62.1678 95.5416 63.2051 95.3497 64.2929L95.1003 65.7075C94.9085 66.7953 93.8712 67.5216 92.7834 67.3298L91.3688 67.0804Z" stroke="#2B2727"/>
<path d="M92.6906 59.5849C91.6028 59.3931 90.8764 58.3557 91.0683 57.2679L91.3177 55.8533C91.5095 54.7656 92.5468 54.0392 93.6346 54.231L95.0492 54.4805C96.137 54.6723 96.8633 55.7096 96.6715 56.7974L96.4221 58.212C96.2303 59.2998 95.193 60.0261 94.1052 59.8343L92.6906 59.5849Z" stroke="#2B2727"/>
<path d="M94.012 52.0897C92.9242 51.8979 92.1979 50.8606 92.3897 49.7728L92.6391 48.3582C92.8309 47.2704 93.8682 46.5441 94.956 46.7359L96.3706 46.9853C97.4584 47.1771 98.1848 48.2144 97.9929 49.3022L97.7435 50.7168C97.5517 51.8046 96.5144 52.5309 95.4266 52.3391L94.012 52.0897Z" stroke="#2B2727"/>
<path d="M92.256 105.879C91.1682 105.687 90.4419 104.65 90.6337 103.562L90.8832 102.147C91.075 101.06 92.1123 100.333 93.2001 100.525L94.6147 100.774C95.7024 100.966 96.4288 102.004 96.237 103.091L95.9875 104.506C95.7957 105.594 94.7584 106.32 93.6706 106.128L92.256 105.879Z" stroke="#2B2727"/>
<path d="M93.5777 98.3833C92.4899 98.1915 91.7636 97.1542 91.9554 96.0664L98.813 57.175C99.0048 56.0872 100.042 55.3609 101.13 55.5527L102.544 55.8021C103.632 55.9939 104.359 57.0313 104.167 58.119L97.3092 97.0105C97.1174 98.0982 96.0801 98.8246 94.9923 98.6328L93.5777 98.3833Z" stroke="#2B2727"/>
<path d="M101.507 53.4113C100.419 53.2194 99.6932 52.1821 99.885 51.0943L100.134 49.6797C100.326 48.592 101.364 47.8656 102.451 48.0574L103.866 48.3069C104.954 48.4987 105.68 49.536 105.488 50.6238L105.239 52.0384C105.047 53.1262 104.01 53.8525 102.922 53.6607L101.507 53.4113Z" stroke="#2B2727"/>
<path d="M53.5 74.988C53.5 72.723 53.5012 71.1145 53.604 69.8558C53.7054 68.6145 53.8982 67.846 54.2085 67.2371C54.8316 66.014 55.826 65.0196 57.0491 64.3964C57.658 64.0862 58.4265 63.8934 59.6678 63.792C60.9265 63.6892 62.535 63.688 64.8 63.688H70.1058C72.3707 63.688 73.9792 63.6892 75.238 63.792C76.4792 63.8934 77.2477 64.0862 77.8567 64.3964C79.0797 65.0196 80.0741 66.014 80.6973 67.2371C81.0076 67.846 81.2003 68.6145 81.3017 69.8558C81.4046 71.1145 81.4057 72.723 81.4057 74.988V100.275C81.4057 102.54 81.4046 104.148 81.3017 105.407C81.2003 106.648 81.0076 107.417 80.6973 108.026C80.0741 109.249 79.0797 110.243 77.8567 110.867C77.2477 111.177 76.4792 111.37 75.238 111.471C73.9792 111.574 72.3707 111.575 70.1057 111.575H64.8C62.535 111.575 60.9265 111.574 59.6678 111.471C58.4265 111.37 57.658 111.177 57.0491 110.867C55.826 110.243 54.8316 109.249 54.2085 108.026C53.8982 107.417 53.7054 106.648 53.604 105.407C53.5012 104.148 53.5 102.54 53.5 100.275L53.5 74.988Z" fill="#F9FAFC" stroke="#2B2727" stroke-width="3" stroke-linejoin="round"/>
<path d="M64 68.8779L70.7606 68.8779" stroke="#2B2727" stroke-width="3" stroke-linecap="round"/>
<path d="M62 107.692L72.6238 107.692" stroke="#2B2727" stroke-linecap="round"/>
<path d="M20.5 82.4C20.5 81.2551 20.5012 80.4867 20.5495 79.895C20.5964 79.3207 20.6802 79.0461 20.7725 78.865C21.0122 78.3946 21.3946 78.0122 21.865 77.7725C22.0461 77.6802 22.3207 77.5964 22.895 77.5495C23.4867 77.5012 24.2551 77.5 25.4 77.5H102.6C103.745 77.5 104.513 77.5012 105.105 77.5495C105.679 77.5964 105.954 77.6802 106.135 77.7725C106.605 78.0122 106.988 78.3946 107.228 78.865C107.32 79.0461 107.404 79.3207 107.45 79.895C107.499 80.4867 107.5 81.2551 107.5 82.4V101.2C107.5 103.465 107.499 105.073 107.396 106.332C107.295 107.573 107.102 108.342 106.792 108.951C106.168 110.174 105.174 111.168 103.951 111.792C103.342 112.102 102.573 112.295 101.332 112.396C100.073 112.499 98.465 112.5 96.2 112.5H31.8C29.535 112.5 27.9265 112.499 26.6678 112.396C25.4265 112.295 24.658 112.102 24.0491 111.792C22.826 111.168 21.8316 110.174 21.2085 108.951C20.8982 108.342 20.7054 107.573 20.604 106.332C20.5012 105.073 20.5 103.465 20.5 101.2V82.4Z" fill="#F9FAFC" stroke="#2B2727" stroke-width="3" stroke-linejoin="round"/>
<path d="M19 95.5H109" stroke="#2B2727"/>
</g>
<defs>
<clipPath id="clip0_83_32356">
<rect width="128" height="128" fill="white"/>
</clipPath>
<clipPath id="clip1_83_32356">
<rect width="16.3465" height="16.3465" fill="white" transform="translate(45 74) rotate(-101.81)"/>
</clipPath>
<clipPath id="clip2_83_32356">
<rect width="16.3465" height="16.3465" fill="white" transform="translate(39 70) rotate(-101.81)"/>
</clipPath>
</defs>
</svg>
