<svg width="128" height="128" viewBox="0 0 128 128" fill="none" xmlns="http://www.w3.org/2000/svg">
<g clip-path="url(#clip0_83_32356)">
<path d="M40.0822 111.088C38.4032 111.384 37.2326 111.59 36.3082 111.676C35.4014 111.76 34.8638 111.715 34.4398 111.585C33.531 111.307 32.7335 110.749 32.1616 109.99C31.8948 109.636 31.6681 109.146 31.4374 108.265C31.2023 107.367 30.9947 106.197 30.6987 104.518L19.2775 39.745C18.9814 38.066 18.7762 36.8954 18.69 35.9711C18.6054 35.0642 18.651 34.5266 18.7806 34.1026C19.0585 33.1939 19.6169 32.3964 20.3758 31.8244C20.7299 31.5576 21.2195 31.3309 22.1006 31.1002C22.9987 30.8651 24.1689 30.6576 25.8479 30.3615L61.767 24.028C63.446 23.732 64.6166 23.5268 65.5409 23.4405C66.4478 23.3559 66.9854 23.4015 67.4094 23.5312C68.3181 23.809 69.1156 24.3674 69.6875 25.1264C69.9544 25.4804 70.1811 25.97 70.4118 26.8511C70.6469 27.7492 70.8544 28.9194 71.1504 30.5984L82.5716 95.3713C82.8677 97.0503 83.0729 98.2209 83.1591 99.1452C83.2437 100.052 83.1981 100.59 83.0685 101.014C82.7907 101.922 82.2323 102.72 81.4733 103.292C81.1192 103.559 80.6296 103.785 79.7486 104.016C78.8505 104.251 77.6803 104.459 76.0013 104.755L40.0822 111.088Z" fill="#F9FAFC" stroke="#0057F2" stroke-width="3" stroke-linejoin="round"/>
<g clip-path="url(#clip1_83_32356)">
<path d="M48.4053 64.9403C48.6973 66.3365 49.9276 67.2937 51.2997 67.301C51.4348 67.3017 51.5709 67.2949 51.7078 67.2778C51.8295 67.2627 51.9065 67.1444 51.8815 67.0246L51.7158 66.2321C51.6907 66.1123 51.573 66.0371 51.4506 66.0459C51.3089 66.056 51.169 66.0479 51.0329 66.0251C50.3542 65.911 49.782 65.3975 49.6328 64.6837C49.4383 63.7535 50.0351 62.842 50.9662 62.6473C51.8973 62.4526 52.8094 63.0486 53.0039 63.9788L54.476 71.0189C54.5051 71.1581 54.6563 71.2343 54.7838 71.1707C55.0507 71.0376 55.3084 70.8909 55.5547 70.7295C55.6295 70.6804 55.6655 70.5903 55.6472 70.5028L54.2295 63.7225C53.8935 62.1158 52.3185 61.0867 50.7102 61.423C49.102 61.7592 48.0694 63.3336 48.4053 64.9403Z" fill="#0057F2"/>
<path d="M46.107 65.4209C46.6648 68.0886 49.1341 69.8652 51.7862 69.6276C51.9202 69.6156 52.0542 69.5996 52.1885 69.5779C52.3096 69.5584 52.3866 69.4405 52.3616 69.3207L52.1963 68.5301C52.1712 68.4104 52.0536 68.3342 51.9322 68.3516C51.7968 68.371 51.6619 68.3828 51.5274 68.3899C49.5566 68.4938 47.7486 67.1546 47.3325 65.1647C46.8727 62.966 48.2853 60.8113 50.4861 60.3511C52.687 59.891 54.8425 61.2996 55.3023 63.4982L56.5511 69.4709C56.5867 69.6412 56.7954 69.7049 56.915 69.5781C57.1659 69.3123 57.3977 69.0295 57.6075 68.7316C57.6422 68.6822 57.6544 68.6205 57.6421 68.5615L56.5297 63.2416C55.9285 60.3664 53.1078 58.5231 50.2297 59.1249C47.3517 59.7267 45.5058 62.5457 46.107 65.4209Z" fill="#0057F2"/>
<path d="M43.8277 65.8975C44.315 68.2283 45.8132 70.0891 47.77 71.1162C47.9804 71.2267 48.1968 71.3281 48.417 71.4188C48.4315 71.4248 48.446 71.4298 48.4604 71.4356C48.661 71.5169 48.8659 71.5877 49.0735 71.6518C49.1101 71.6631 49.1456 71.6761 49.1823 71.6868C49.3699 71.7417 49.5612 71.7855 49.7534 71.8261C49.8107 71.838 49.8686 71.8511 49.9262 71.8616C50.0841 71.8912 50.243 71.9135 50.4034 71.9331C50.5054 71.9453 50.6083 71.9582 50.7112 71.9662C50.8201 71.9751 50.9293 71.9771 51.0391 71.9813C51.1875 71.9865 51.3353 71.9931 51.4851 71.9895C51.5527 71.9881 51.6218 71.9798 51.6896 71.9766C51.8777 71.9672 52.0666 71.9554 52.2561 71.9318C52.26 71.9314 52.2639 71.9319 52.2679 71.9314C52.4014 71.9145 52.535 71.8967 52.6687 71.8745C52.7897 71.8544 52.8667 71.7367 52.8417 71.6169L52.6764 70.8263C52.6513 70.7065 52.5338 70.6301 52.4129 70.6509C52.2791 70.6738 52.1456 70.6923 52.0119 70.707C48.7651 71.0641 45.7158 68.9055 45.0341 65.6452C44.3092 62.1781 46.5351 58.7788 50.0056 58.0531C53.4762 57.3274 56.8776 59.5501 57.6025 63.0173L58.3157 66.428C58.3607 66.6431 58.6446 66.6632 58.7055 66.452C59.0073 65.4062 59.0866 64.2822 58.9082 63.1443L58.8281 62.761C58.0158 58.8763 54.3928 56.3007 50.5254 56.7084C50.274 56.7349 50.0215 56.7726 49.7687 56.8248C49.5095 56.879 49.2549 56.9473 49.0078 57.0257C45.3011 58.2017 43.0154 62.0128 43.8277 65.8975Z" fill="#0057F2"/>
</g>
<path d="M113.5 45V105.5H102.5V58C102.5 57.1716 101.828 56.5 101 56.5H38C37.1716 56.5 36.5 57.1716 36.5 58V105.5H26.5V44.5C26.5 44.012 26.5008 43.8403 26.5096 43.7057C26.6573 41.4523 28.4523 39.6573 30.7057 39.5096C30.8403 39.5008 31.012 39.5 31.5 39.5C31.988 39.5 32.1597 39.5008 32.2943 39.5096C34.5477 39.6573 36.3427 41.4523 36.4904 43.7057C36.4992 43.8403 36.5 44.012 36.5 44.5V46C36.5 46.8284 37.1716 47.5 38 47.5H101C101.828 47.5 102.5 46.8284 102.5 46V45C102.5 44.0235 102.503 43.6805 102.538 43.4126C102.804 41.3933 104.393 39.8043 106.413 39.5385C106.68 39.5032 107.023 39.5 108 39.5C108.977 39.5 109.32 39.5032 109.587 39.5385C111.607 39.8043 113.196 41.3933 113.462 43.4126C113.497 43.6805 113.5 44.0235 113.5 45Z" fill="#F9FAFC" stroke="#0057F2" stroke-width="3" stroke-linejoin="round"/>
<rect x="75.4759" y="110.963" width="68.7608" height="31.7931" rx="4.5" transform="rotate(-80 75.4759 110.963)" fill="#F9FAFC" stroke="#0057F2" stroke-width="3"/>
<path d="M83.2653 107.236C82.1776 107.044 81.4512 106.007 81.643 104.919L81.8925 103.504C82.0843 102.416 83.1216 101.69 84.2094 101.882L85.624 102.131C86.7118 102.323 87.4381 103.36 87.2463 104.448L86.9969 105.863C86.805 106.951 85.7677 107.677 84.6799 107.485L83.2653 107.236Z" stroke="#0057F2"/>
<path d="M84.5871 99.7401C83.4993 99.5483 82.773 98.511 82.9648 97.4232L83.2142 96.0086C83.406 94.9208 84.4433 94.1945 85.5311 94.3863L86.9457 94.6357C88.0335 94.8275 88.7599 95.8649 88.5681 96.9527L88.3186 98.3673C88.1268 99.455 87.0895 100.181 86.0017 99.9896L84.5871 99.7401Z" stroke="#0057F2"/>
<path d="M85.9087 92.2449C84.8209 92.0531 84.0945 91.0157 84.2863 89.9279L84.5358 88.5133C84.7276 87.4256 85.7649 86.6992 86.8527 86.891L88.2673 87.1405C89.3551 87.3323 90.0814 88.3696 89.8896 89.4574L89.6402 90.872C89.4484 91.9598 88.411 92.6861 87.3233 92.4943L85.9087 92.2449Z" stroke="#0057F2"/>
<path d="M87.2303 84.7494C86.1425 84.5576 85.4162 83.5203 85.608 82.4325L85.8574 81.0179C86.0492 79.9301 87.0865 79.2038 88.1743 79.3956L89.5889 79.645C90.6767 79.8369 91.4031 80.8742 91.2113 81.962L90.9618 83.3766C90.77 84.4643 89.7327 85.1907 88.6449 84.9989L87.2303 84.7494Z" stroke="#0057F2"/>
<path d="M88.5521 77.2541C87.4643 77.0623 86.738 76.025 86.9298 74.9372L87.1792 73.5226C87.371 72.4348 88.4083 71.7085 89.4961 71.9003L90.9107 72.1497C91.9985 72.3416 92.7248 73.3789 92.533 74.4667L92.2836 75.8813C92.0918 76.969 91.0545 77.6954 89.9667 77.5036L88.5521 77.2541Z" stroke="#0057F2"/>
<path d="M89.8736 69.7586C88.7858 69.5668 88.0595 68.5295 88.2513 67.4417L88.5007 66.0271C88.6925 64.9393 89.7299 64.213 90.8176 64.4048L92.2322 64.6542C93.32 64.846 94.0464 65.8833 93.8546 66.9711L93.6051 68.3857C93.4133 69.4735 92.376 70.1999 91.2882 70.008L89.8736 69.7586Z" stroke="#0057F2"/>
<path d="M91.1952 62.2636C90.1074 62.0718 89.3811 61.0345 89.5729 59.9467L89.8223 58.5321C90.0141 57.4443 91.0514 56.7179 92.1392 56.9097L93.5538 57.1592C94.6416 57.351 95.3679 58.3883 95.1761 59.4761L94.9267 60.8907C94.7349 61.9785 93.6976 62.7048 92.6098 62.513L91.1952 62.2636Z" stroke="#0057F2"/>
<path d="M92.517 54.768C91.4292 54.5762 90.7028 53.5389 90.8946 52.4511L91.1441 51.0365C91.3359 49.9487 92.3732 49.2224 93.461 49.4142L94.8756 49.6636C95.9634 49.8554 96.6897 50.8928 96.4979 51.9805L96.2485 53.3951C96.0567 54.4829 95.0193 55.2093 93.9316 55.0175L92.517 54.768Z" stroke="#0057F2"/>
<path d="M90.7608 108.557C89.6731 108.365 88.9467 107.328 89.1385 106.24L89.388 104.825C89.5798 103.738 90.6171 103.011 91.7049 103.203L93.1195 103.453C94.2073 103.644 94.9336 104.682 94.7418 105.769L94.4924 107.184C94.3005 108.272 93.2632 108.998 92.1754 108.806L90.7608 108.557Z" stroke="#0057F2"/>
<path d="M92.0824 101.062C90.9946 100.87 90.2683 99.8328 90.4601 98.745L90.7095 97.3304C90.9013 96.2426 91.9386 95.5163 93.0264 95.7081L94.441 95.9575C95.5288 96.1493 96.2552 97.1867 96.0634 98.2744L95.8139 99.689C95.6221 100.777 94.5848 101.503 93.497 101.311L92.0824 101.062Z" stroke="#0057F2"/>
<path d="M93.4041 93.5665C92.3163 93.3747 91.5899 92.3374 91.7817 91.2496L92.0312 89.835C92.223 88.7472 93.2603 88.0209 94.3481 88.2127L95.7627 88.4621C96.8505 88.6539 97.5768 89.6912 97.385 90.779L97.1356 92.1936C96.9438 93.2814 95.9065 94.0078 94.8187 93.8159L93.4041 93.5665Z" stroke="#0057F2"/>
<path d="M94.7257 86.0711C93.6379 85.8793 92.9116 84.842 93.1034 83.7542L93.3528 82.3396C93.5446 81.2518 94.582 80.5255 95.6698 80.7173L97.0843 80.9667C98.1721 81.1585 98.8985 82.1958 98.7067 83.2836L98.4572 84.6982C98.2654 85.786 97.2281 86.5123 96.1403 86.3205L94.7257 86.0711Z" stroke="#0057F2"/>
<path d="M96.0474 78.5758C94.9596 78.384 94.2333 77.3467 94.4251 76.2589L94.6745 74.8443C94.8663 73.7565 95.9036 73.0302 96.9914 73.222L98.406 73.4714C99.4938 73.6632 100.22 74.7005 100.028 75.7883L99.7789 77.2029C99.5871 78.2907 98.5498 79.017 97.462 78.8252L96.0474 78.5758Z" stroke="#0057F2"/>
<path d="M97.3689 71.0804C96.2811 70.8886 95.5548 69.8513 95.7466 68.7635L95.996 67.3489C96.1878 66.2611 97.2252 65.5348 98.313 65.7266L99.7275 65.976C100.815 66.1678 101.542 67.2051 101.35 68.2929L101.1 69.7075C100.909 70.7953 99.8713 71.5216 98.7835 71.3298L97.3689 71.0804Z" stroke="#0057F2"/>
<path d="M98.6907 63.5849C97.6029 63.3931 96.8766 62.3557 97.0684 61.2679L97.3178 59.8533C97.5096 58.7656 98.5469 58.0392 99.6347 58.231L101.049 58.4805C102.137 58.6723 102.863 59.7096 102.672 60.7974L102.422 62.212C102.23 63.2998 101.193 64.0261 100.105 63.8343L98.6907 63.5849Z" stroke="#0057F2"/>
<path d="M100.012 56.0897C98.9243 55.8979 98.198 54.8606 98.3898 53.7728L98.6392 52.3582C98.831 51.2704 99.8684 50.5441 100.956 50.7359L102.371 50.9853C103.459 51.1771 104.185 52.2144 103.993 53.3022L103.744 54.7168C103.552 55.8046 102.515 56.5309 101.427 56.3391L100.012 56.0897Z" stroke="#0057F2"/>
<path d="M98.2562 109.879C97.1684 109.687 96.442 108.65 96.6338 107.562L96.8833 106.147C97.0751 105.06 98.1124 104.333 99.2002 104.525L100.615 104.774C101.703 104.966 102.429 106.004 102.237 107.091L101.988 108.506C101.796 109.594 100.759 110.32 99.6708 110.128L98.2562 109.879Z" stroke="#0057F2"/>
<path d="M99.5778 102.383C98.49 102.192 97.7637 101.154 97.9555 100.066L104.813 61.175C105.005 60.0872 106.042 59.3609 107.13 59.5527L108.545 59.8021C109.632 59.9939 110.359 61.0313 110.167 62.119L103.309 101.01C103.118 102.098 102.08 102.825 100.992 102.633L99.5778 102.383Z" stroke="#0057F2"/>
<path d="M107.507 57.4113C106.42 57.2194 105.693 56.1821 105.885 55.0943L106.135 53.6797C106.326 52.592 107.364 51.8656 108.451 52.0574L109.866 52.3069C110.954 52.4987 111.68 53.536 111.488 54.6238L111.239 56.0384C111.047 57.1262 110.01 57.8525 108.922 57.6607L107.507 57.4113Z" stroke="#0057F2"/>
<path d="M59.5 78.988C59.5 76.723 59.5012 75.1145 59.604 73.8558C59.7054 72.6145 59.8982 71.846 60.2085 71.2371C60.8316 70.014 61.826 69.0196 63.0491 68.3964C63.658 68.0862 64.4265 67.8934 65.6678 67.792C66.9265 67.6892 68.535 67.688 70.8 67.688H76.1058C78.3707 67.688 79.9792 67.6892 81.238 67.792C82.4792 67.8934 83.2477 68.0862 83.8567 68.3964C85.0797 69.0196 86.0741 70.014 86.6973 71.2371C87.0076 71.846 87.2003 72.6145 87.3017 73.8558C87.4046 75.1145 87.4057 76.723 87.4057 78.988V104.275C87.4057 106.54 87.4046 108.148 87.3017 109.407C87.2003 110.648 87.0076 111.417 86.6973 112.026C86.0741 113.249 85.0797 114.243 83.8567 114.867C83.2477 115.177 82.4792 115.37 81.238 115.471C79.9792 115.574 78.3707 115.575 76.1057 115.575H70.8C68.535 115.575 66.9265 115.574 65.6678 115.471C64.4265 115.37 63.658 115.177 63.0491 114.867C61.826 114.243 60.8316 113.249 60.2085 112.026C59.8982 111.417 59.7054 110.648 59.604 109.407C59.5012 108.148 59.5 106.54 59.5 104.275L59.5 78.988Z" fill="#F9FAFC" stroke="#0057F2" stroke-width="3" stroke-linejoin="round"/>
<path d="M70 72.8779L76.7606 72.8779" stroke="#0057F2" stroke-width="3" stroke-linecap="round"/>
<path d="M68 111.692L78.6238 111.692" stroke="#0057F2" stroke-linecap="round"/>
<path d="M26.5 86.4C26.5 85.2551 26.5012 84.4867 26.5495 83.895C26.5964 83.3207 26.6802 83.0461 26.7725 82.865C27.0122 82.3946 27.3946 82.0122 27.865 81.7725C28.0461 81.6802 28.3207 81.5964 28.895 81.5495C29.4867 81.5012 30.2551 81.5 31.4 81.5H108.6C109.745 81.5 110.513 81.5012 111.105 81.5495C111.679 81.5964 111.954 81.6802 112.135 81.7725C112.605 82.0122 112.988 82.3946 113.228 82.865C113.32 83.0461 113.404 83.3207 113.45 83.895C113.499 84.4867 113.5 85.2551 113.5 86.4V105.2C113.5 107.465 113.499 109.073 113.396 110.332C113.295 111.573 113.102 112.342 112.792 112.951C112.168 114.174 111.174 115.168 109.951 115.792C109.342 116.102 108.573 116.295 107.332 116.396C106.073 116.499 104.465 116.5 102.2 116.5H37.8C35.535 116.5 33.9265 116.499 32.6678 116.396C31.4265 116.295 30.658 116.102 30.0491 115.792C28.826 115.168 27.8316 114.174 27.2085 112.951C26.8982 112.342 26.7054 111.573 26.604 110.332C26.5012 109.073 26.5 107.465 26.5 105.2V86.4Z" fill="#F9FAFC" stroke="#0057F2" stroke-width="3" stroke-linejoin="round"/>
<path d="M25 99.5H115" stroke="#0057F2"/>
<path d="M34.0822 107.088C32.4032 107.384 31.2326 107.59 30.3082 107.676C29.4014 107.76 28.8638 107.715 28.4398 107.585C27.531 107.307 26.7335 106.749 26.1616 105.99C25.8948 105.636 25.6681 105.146 25.4374 104.265C25.2023 103.367 24.9947 102.197 24.6987 100.518L13.2775 35.745C12.9814 34.066 12.7762 32.8954 12.69 31.9711C12.6054 31.0642 12.651 30.5266 12.7806 30.1026C13.0585 29.1939 13.6169 28.3964 14.3758 27.8244C14.7299 27.5576 15.2195 27.3309 16.1006 27.1002C16.9987 26.8651 18.1689 26.6576 19.8479 26.3615L55.767 20.028C57.446 19.732 58.6166 19.5268 59.5409 19.4405C60.4478 19.3559 60.9854 19.4015 61.4094 19.5312C62.3181 19.809 63.1156 20.3674 63.6875 21.1264C63.9544 21.4804 64.1811 21.97 64.4118 22.8511C64.6469 23.7492 64.8544 24.9194 65.1504 26.5984L76.5716 91.3713C76.8677 93.0503 77.0729 94.2209 77.1591 95.1452C77.2437 96.0521 77.1981 96.5897 77.0685 97.0137C76.7907 97.9224 76.2323 98.7199 75.4733 99.2918C75.1192 99.5587 74.6296 99.7854 73.7486 100.016C72.8505 100.251 71.6803 100.459 70.0013 100.755L34.0822 107.088Z" fill="#F9FAFC" stroke="#2B2727" stroke-width="3" stroke-linejoin="round"/>
<g clip-path="url(#clip2_83_32356)">
<path d="M42.4053 60.9403C42.6973 62.3365 43.9276 63.2937 45.2997 63.301C45.4348 63.3017 45.5709 63.2949 45.7078 63.2778C45.8295 63.2627 45.9065 63.1444 45.8815 63.0246L45.7158 62.2321C45.6907 62.1123 45.573 62.0371 45.4506 62.0459C45.3089 62.056 45.169 62.0479 45.0329 62.0251C44.3542 61.911 43.782 61.3975 43.6328 60.6837C43.4383 59.7535 44.0351 58.842 44.9662 58.6473C45.8973 58.4526 46.8094 59.0486 47.0039 59.9788L48.476 67.0189C48.5051 67.1581 48.6563 67.2343 48.7838 67.1707C49.0507 67.0376 49.3084 66.8909 49.5547 66.7295C49.6295 66.6804 49.6655 66.5903 49.6472 66.5028L48.2295 59.7225C47.8935 58.1158 46.3185 57.0867 44.7102 57.423C43.102 57.7592 42.0694 59.3336 42.4053 60.9403Z" fill="#2B2727"/>
<path d="M40.107 61.4209C40.6648 64.0886 43.1341 65.8652 45.7862 65.6276C45.9202 65.6156 46.0542 65.5996 46.1885 65.5779C46.3096 65.5584 46.3866 65.4405 46.3616 65.3207L46.1963 64.5301C46.1712 64.4104 46.0536 64.3342 45.9322 64.3516C45.7968 64.371 45.6619 64.3828 45.5274 64.3899C43.5566 64.4938 41.7486 63.1546 41.3325 61.1647C40.8727 58.966 42.2853 56.8113 44.4861 56.3511C46.687 55.891 48.8425 57.2996 49.3023 59.4982L50.5511 65.4709C50.5867 65.6412 50.7954 65.7049 50.915 65.5781C51.1659 65.3123 51.3977 65.0295 51.6075 64.7316C51.6422 64.6822 51.6544 64.6205 51.6421 64.5615L50.5297 59.2416C49.9285 56.3664 47.1078 54.5231 44.2297 55.1249C41.3517 55.7267 39.5058 58.5457 40.107 61.4209Z" fill="#2B2727"/>
<path d="M37.8277 61.8975C38.315 64.2283 39.8132 66.0891 41.77 67.1162C41.9804 67.2267 42.1968 67.3281 42.417 67.4188C42.4315 67.4248 42.446 67.4298 42.4604 67.4356C42.661 67.5169 42.8659 67.5877 43.0735 67.6518C43.1101 67.6631 43.1456 67.6761 43.1823 67.6868C43.3699 67.7417 43.5612 67.7855 43.7534 67.8261C43.8107 67.838 43.8686 67.8511 43.9262 67.8616C44.0841 67.8912 44.243 67.9135 44.4034 67.9331C44.5054 67.9453 44.6083 67.9582 44.7112 67.9662C44.8201 67.9751 44.9293 67.9771 45.0391 67.9813C45.1875 67.9865 45.3353 67.9931 45.4851 67.9895C45.5527 67.9881 45.6218 67.9798 45.6896 67.9766C45.8777 67.9672 46.0666 67.9554 46.2561 67.9318C46.26 67.9314 46.2639 67.9319 46.2679 67.9314C46.4014 67.9145 46.535 67.8967 46.6687 67.8745C46.7897 67.8544 46.8667 67.7367 46.8417 67.6169L46.6764 66.8263C46.6513 66.7065 46.5338 66.6301 46.4129 66.6509C46.2791 66.6738 46.1456 66.6923 46.0119 66.707C42.7651 67.0641 39.7158 64.9055 39.0341 61.6452C38.3092 58.1781 40.5351 54.7788 44.0056 54.0531C47.4762 53.3274 50.8776 55.5501 51.6025 59.0173L52.3157 62.428C52.3607 62.6431 52.6446 62.6632 52.7055 62.452C53.0073 61.4062 53.0866 60.2822 52.9082 59.1443L52.8281 58.761C52.0158 54.8763 48.3928 52.3007 44.5254 52.7084C44.274 52.7349 44.0215 52.7726 43.7687 52.8248C43.5095 52.879 43.2549 52.9473 43.0078 53.0257C39.3011 54.2017 37.0154 58.0128 37.8277 61.8975Z" fill="#2B2727"/>
</g>
<path d="M107.5 41V101.5H96.5V54C96.5 53.1716 95.8284 52.5 95 52.5H32C31.1716 52.5 30.5 53.1716 30.5 54V101.5H20.5V40.5C20.5 40.012 20.5008 39.8403 20.5096 39.7057C20.6573 37.4523 22.4523 35.6573 24.7057 35.5096C24.8403 35.5008 25.012 35.5 25.5 35.5C25.988 35.5 26.1597 35.5008 26.2943 35.5096C28.5477 35.6573 30.3427 37.4523 30.4904 39.7057C30.4992 39.8403 30.5 40.012 30.5 40.5V42C30.5 42.8284 31.1716 43.5 32 43.5H95C95.8284 43.5 96.5 42.8284 96.5 42V41C96.5 40.0235 96.5032 39.6805 96.5385 39.4126C96.8043 37.3933 98.3933 35.8043 100.413 35.5385C100.68 35.5032 101.023 35.5 102 35.5C102.977 35.5 103.32 35.5032 103.587 35.5385C105.607 35.8043 107.196 37.3933 107.462 39.4126C107.497 39.6805 107.5 40.0235 107.5 41Z" fill="#F9FAFC" stroke="#2B2727" stroke-width="3" stroke-linejoin="round"/>
<rect x="69.4759" y="106.963" width="68.7608" height="31.7931" rx="4.5" transform="rotate(-80 69.4759 106.963)" fill="#F9FAFC" stroke="#2B2727" stroke-width="3"/>
<path d="M77.2653 103.236C76.1776 103.044 75.4512 102.007 75.643 100.919L75.8925 99.5042C76.0843 98.4164 77.1216 97.6901 78.2094 97.8819L79.624 98.1313C80.7118 98.3231 81.4381 99.3604 81.2463 100.448L80.9969 101.863C80.805 102.951 79.7677 103.677 78.6799 103.485L77.2653 103.236Z" stroke="#2B2727"/>
<path d="M78.5871 95.7401C77.4993 95.5483 76.773 94.511 76.9648 93.4232L77.2142 92.0086C77.406 90.9208 78.4433 90.1945 79.5311 90.3863L80.9457 90.6357C82.0335 90.8275 82.7599 91.8649 82.5681 92.9527L82.3186 94.3673C82.1268 95.455 81.0895 96.1814 80.0017 95.9896L78.5871 95.7401Z" stroke="#2B2727"/>
<path d="M79.9087 88.2449C78.8209 88.0531 78.0945 87.0157 78.2863 85.9279L78.5358 84.5133C78.7276 83.4256 79.7649 82.6992 80.8527 82.891L82.2673 83.1405C83.3551 83.3323 84.0814 84.3696 83.8896 85.4574L83.6402 86.872C83.4484 87.9598 82.411 88.6861 81.3233 88.4943L79.9087 88.2449Z" stroke="#2B2727"/>
<path d="M81.2303 80.7494C80.1425 80.5576 79.4162 79.5203 79.608 78.4325L79.8574 77.0179C80.0492 75.9301 81.0865 75.2038 82.1743 75.3956L83.5889 75.645C84.6767 75.8369 85.4031 76.8742 85.2113 77.962L84.9618 79.3766C84.77 80.4643 83.7327 81.1907 82.6449 80.9989L81.2303 80.7494Z" stroke="#2B2727"/>
<path d="M82.5521 73.2541C81.4643 73.0623 80.738 72.025 80.9298 70.9372L81.1792 69.5226C81.371 68.4348 82.4083 67.7085 83.4961 67.9003L84.9107 68.1497C85.9985 68.3416 86.7248 69.3789 86.533 70.4667L86.2836 71.8813C86.0918 72.969 85.0545 73.6954 83.9667 73.5036L82.5521 73.2541Z" stroke="#2B2727"/>
<path d="M83.8736 65.7586C82.7858 65.5668 82.0595 64.5295 82.2513 63.4417L82.5007 62.0271C82.6925 60.9393 83.7299 60.213 84.8176 60.4048L86.2322 60.6542C87.32 60.846 88.0464 61.8833 87.8546 62.9711L87.6051 64.3857C87.4133 65.4735 86.376 66.1999 85.2882 66.008L83.8736 65.7586Z" stroke="#2B2727"/>
<path d="M85.1952 58.2636C84.1074 58.0718 83.3811 57.0345 83.5729 55.9467L83.8223 54.5321C84.0141 53.4443 85.0514 52.7179 86.1392 52.9097L87.5538 53.1592C88.6416 53.351 89.3679 54.3883 89.1761 55.4761L88.9267 56.8907C88.7349 57.9785 87.6976 58.7048 86.6098 58.513L85.1952 58.2636Z" stroke="#2B2727"/>
<path d="M86.517 50.768C85.4292 50.5762 84.7028 49.5389 84.8946 48.4511L85.1441 47.0365C85.3359 45.9487 86.3732 45.2224 87.461 45.4142L88.8756 45.6636C89.9634 45.8554 90.6897 46.8928 90.4979 47.9805L90.2485 49.3951C90.0567 50.4829 89.0193 51.2093 87.9316 51.0175L86.517 50.768Z" stroke="#2B2727"/>
<path d="M84.7608 104.557C83.6731 104.365 82.9467 103.328 83.1385 102.24L83.388 100.825C83.5798 99.7377 84.6171 99.0113 85.7049 99.2031L87.1195 99.4526C88.2073 99.6444 88.9336 100.682 88.7418 101.769L88.4924 103.184C88.3005 104.272 87.2632 104.998 86.1754 104.806L84.7608 104.557Z" stroke="#2B2727"/>
<path d="M86.0824 97.0619C84.9946 96.8701 84.2683 95.8328 84.4601 94.745L84.7095 93.3304C84.9013 92.2426 85.9386 91.5163 87.0264 91.7081L88.441 91.9575C89.5288 92.1493 90.2552 93.1867 90.0634 94.2744L89.8139 95.689C89.6221 96.7768 88.5848 97.5032 87.497 97.3114L86.0824 97.0619Z" stroke="#2B2727"/>
<path d="M87.4041 89.5665C86.3163 89.3747 85.5899 88.3374 85.7817 87.2496L86.0312 85.835C86.223 84.7472 87.2603 84.0209 88.3481 84.2127L89.7627 84.4621C90.8505 84.6539 91.5768 85.6912 91.385 86.779L91.1356 88.1936C90.9438 89.2814 89.9065 90.0078 88.8187 89.8159L87.4041 89.5665Z" stroke="#2B2727"/>
<path d="M88.7257 82.0711C87.6379 81.8793 86.9116 80.842 87.1034 79.7542L87.3528 78.3396C87.5446 77.2518 88.582 76.5255 89.6698 76.7173L91.0843 76.9667C92.1721 77.1585 92.8985 78.1958 92.7067 79.2836L92.4572 80.6982C92.2654 81.786 91.2281 82.5123 90.1403 82.3205L88.7257 82.0711Z" stroke="#2B2727"/>
<path d="M90.0474 74.5758C88.9596 74.384 88.2333 73.3467 88.4251 72.2589L88.6745 70.8443C88.8663 69.7565 89.9036 69.0302 90.9914 69.222L92.406 69.4714C93.4938 69.6632 94.2201 70.7005 94.0283 71.7883L93.7789 73.2029C93.5871 74.2907 92.5498 75.017 91.462 74.8252L90.0474 74.5758Z" stroke="#2B2727"/>
<path d="M91.3689 67.0804C90.2811 66.8886 89.5548 65.8513 89.7466 64.7635L89.996 63.3489C90.1878 62.2611 91.2252 61.5348 92.313 61.7266L93.7275 61.976C94.8153 62.1678 95.5417 63.2051 95.3499 64.2929L95.1004 65.7075C94.9086 66.7953 93.8713 67.5216 92.7835 67.3298L91.3689 67.0804Z" stroke="#2B2727"/>
<path d="M92.6907 59.5849C91.6029 59.3931 90.8766 58.3557 91.0684 57.2679L91.3178 55.8533C91.5096 54.7656 92.5469 54.0392 93.6347 54.231L95.0493 54.4805C96.1371 54.6723 96.8634 55.7096 96.6716 56.7974L96.4222 58.212C96.2304 59.2998 95.1931 60.0261 94.1053 59.8343L92.6907 59.5849Z" stroke="#2B2727"/>
<path d="M94.0121 52.0897C92.9243 51.8979 92.198 50.8606 92.3898 49.7728L92.6392 48.3582C92.831 47.2704 93.8684 46.5441 94.9562 46.7359L96.3708 46.9853C97.4585 47.1771 98.1849 48.2144 97.9931 49.3022L97.7436 50.7168C97.5518 51.8046 96.5145 52.5309 95.4267 52.3391L94.0121 52.0897Z" stroke="#2B2727"/>
<path d="M92.2562 105.879C91.1684 105.687 90.442 104.65 90.6338 103.562L90.8833 102.147C91.0751 101.06 92.1124 100.333 93.2002 100.525L94.6148 100.774C95.7026 100.966 96.4289 102.004 96.2371 103.091L95.9877 104.506C95.7959 105.594 94.7585 106.32 93.6708 106.128L92.2562 105.879Z" stroke="#2B2727"/>
<path d="M93.5778 98.3833C92.49 98.1915 91.7637 97.1542 91.9555 96.0664L98.8131 57.175C99.0049 56.0872 100.042 55.3609 101.13 55.5527L102.545 55.8021C103.632 55.9939 104.359 57.0313 104.167 58.119L97.3093 97.0105C97.1175 98.0982 96.0802 98.8246 94.9924 98.6328L93.5778 98.3833Z" stroke="#2B2727"/>
<path d="M101.507 53.4113C100.42 53.2194 99.6933 52.1821 99.8851 51.0943L100.135 49.6797C100.326 48.592 101.364 47.8656 102.451 48.0574L103.866 48.3069C104.954 48.4987 105.68 49.536 105.488 50.6238L105.239 52.0384C105.047 53.1262 104.01 53.8525 102.922 53.6607L101.507 53.4113Z" stroke="#2B2727"/>
<path d="M53.5 74.988C53.5 72.723 53.5012 71.1145 53.604 69.8558C53.7054 68.6145 53.8982 67.846 54.2085 67.2371C54.8316 66.014 55.826 65.0196 57.0491 64.3964C57.658 64.0862 58.4265 63.8934 59.6678 63.792C60.9265 63.6892 62.535 63.688 64.8 63.688H70.1058C72.3707 63.688 73.9792 63.6892 75.238 63.792C76.4792 63.8934 77.2477 64.0862 77.8567 64.3964C79.0797 65.0196 80.0741 66.014 80.6973 67.2371C81.0076 67.846 81.2003 68.6145 81.3017 69.8558C81.4046 71.1145 81.4057 72.723 81.4057 74.988V100.275C81.4057 102.54 81.4046 104.148 81.3017 105.407C81.2003 106.648 81.0076 107.417 80.6973 108.026C80.0741 109.249 79.0797 110.243 77.8567 110.867C77.2477 111.177 76.4792 111.37 75.238 111.471C73.9792 111.574 72.3707 111.575 70.1057 111.575H64.8C62.535 111.575 60.9265 111.574 59.6678 111.471C58.4265 111.37 57.658 111.177 57.0491 110.867C55.826 110.243 54.8316 109.249 54.2085 108.026C53.8982 107.417 53.7054 106.648 53.604 105.407C53.5012 104.148 53.5 102.54 53.5 100.275L53.5 74.988Z" fill="#F9FAFC" stroke="#2B2727" stroke-width="3" stroke-linejoin="round"/>
<path d="M64 68.8779L70.7606 68.8779" stroke="#2B2727" stroke-width="3" stroke-linecap="round"/>
<path d="M62 107.692L72.6238 107.692" stroke="#2B2727" stroke-linecap="round"/>
<path d="M20.5 82.4C20.5 81.2551 20.5012 80.4867 20.5495 79.895C20.5964 79.3207 20.6802 79.0461 20.7725 78.865C21.0122 78.3946 21.3946 78.0122 21.865 77.7725C22.0461 77.6802 22.3207 77.5964 22.895 77.5495C23.4867 77.5012 24.2551 77.5 25.4 77.5H102.6C103.745 77.5 104.513 77.5012 105.105 77.5495C105.679 77.5964 105.954 77.6802 106.135 77.7725C106.605 78.0122 106.988 78.3946 107.228 78.865C107.32 79.0461 107.404 79.3207 107.45 79.895C107.499 80.4867 107.5 81.2551 107.5 82.4V101.2C107.5 103.465 107.499 105.073 107.396 106.332C107.295 107.573 107.102 108.342 106.792 108.951C106.168 110.174 105.174 111.168 103.951 111.792C103.342 112.102 102.573 112.295 101.332 112.396C100.073 112.499 98.465 112.5 96.2 112.5H31.8C29.535 112.5 27.9265 112.499 26.6678 112.396C25.4265 112.295 24.658 112.102 24.0491 111.792C22.826 111.168 21.8316 110.174 21.2085 108.951C20.8982 108.342 20.7054 107.573 20.604 106.332C20.5012 105.073 20.5 103.465 20.5 101.2V82.4Z" fill="#F9FAFC" stroke="#2B2727" stroke-width="3" stroke-linejoin="round"/>
<path d="M19 95.5H109" stroke="#2B2727"/>
</g>
<defs>
<clipPath id="clip0_83_32356">
<rect width="128" height="128" fill="white"/>
</clipPath>
<clipPath id="clip1_83_32356">
<rect width="16.3465" height="16.3465" fill="white" transform="translate(45 74) rotate(-101.81)"/>
</clipPath>
<clipPath id="clip2_83_32356">
<rect width="16.3465" height="16.3465" fill="white" transform="translate(39 70) rotate(-101.81)"/>
</clipPath>
</defs>
</svg>
