<svg width="128" height="128" viewBox="0 0 128 128" fill="none" xmlns="http://www.w3.org/2000/svg">
<g clip-path="url(#clip0_64_25186)">
<path d="M115 68C115 76.2529 112.778 83.987 108.9 90.6367C101.1 104.012 86.5999 113 70 113C53.3883 113 38.8789 103.999 31.0829 90.6081C27.2153 83.9648 25 76.2411 25 68C25 43.1472 45.1472 23 70 23C94.8528 23 115 43.1472 115 68Z" fill="#F9FAFC"/>
<path d="M115 68C115 43.1472 94.8528 23 70 23M115 68H111.17M115 68C115 76.2529 112.778 83.987 108.9 90.6367C101.1 104.012 86.5999 113 70 113C53.3883 113 38.8789 103.999 31.0829 90.6081C27.2153 83.9648 25 76.2411 25 68M25 68C25 43.1472 45.1472 23 70 23M25 68H28.8298M70 23V31.8298M108.971 45.5L105.654 47.4149M31.0289 90.5L34.3455 88.5851M92.5 29.0289L90.5851 32.3456M47.5 106.971L51.4149 100.654M31.0289 45.5L34.3456 47.4149M108.971 90.5L105.654 88.5851M47.5 29.0289L49.4149 32.3456M92.5 106.971L88.5851 100.654" stroke="#0057F2" stroke-width="3" stroke-linecap="round"/>
<path d="M59 100.2C59 98.4327 60.4071 97 62.1429 97H77.8571C79.5929 97 81 98.4327 81 100.2V101.8C81 103.567 79.5929 105 77.8571 105H62.1429C60.4071 105 59 103.567 59 101.8V100.2Z" fill="#F9FAFC"/>
<path d="M63.5294 101H65.5728M68.9783 101H71.0217M74.4272 101H76.4706M62.1429 105H77.8571C79.5929 105 81 103.567 81 101.8V100.2C81 98.4327 79.5929 97 77.8571 97H62.1429C60.4071 97 59 98.4327 59 100.2V101.8C59 103.567 60.4071 105 62.1429 105Z" stroke="#0057F2" stroke-width="2" stroke-linecap="round"/>
<path opacity="0.25" d="M57.7431 91C50.1489 86.8385 45 78.7705 45 69.5C45 55.969 55.969 45 69.5 45C83.031 45 94 55.969 94 69.5C94 78.4649 89.185 86.3051 82 90.5757" stroke="#0057F2" stroke-width="3" stroke-linecap="round"/>
<path d="M70 45C83.2548 45 94 55.9711 94 69.5047C94 74.0817 92.771 78.3656 90.6316 82.0311C88.4399 85.7862 85.2928 88.8924 81.5327 91" stroke="#0057F2" stroke-width="3" stroke-linecap="round"/>
<path d="M74 68C74 70.2091 72.2091 72 70 72C67.7908 72 66 70.2091 66 68C66 66.8954 66.4477 65.8954 67.1715 65.1716C67.8954 64.4477 68.8954 64 70 64C72.2091 64 74 65.7909 74 68Z" fill="#F9FAFC"/>
<path d="M78.5771 76.5771L72.8743 70.8744M45 43L67.1715 65.1716M67.1715 65.1716C66.4477 65.8954 66 66.8954 66 68C66 70.2091 67.7908 72 70 72C72.2091 72 74 70.2091 74 68C74 65.7909 72.2091 64 70 64C68.8954 64 67.8954 64.4477 67.1715 65.1716Z" stroke="#0057F2" stroke-width="4" stroke-linecap="round" stroke-linejoin="round"/>
<path d="M109 64C109 72.2529 106.778 79.987 102.9 86.6367C95.1005 100.012 80.5999 109 64 109C47.3883 109 32.8789 99.999 25.0829 86.6081C21.2153 79.9648 19 72.2411 19 64C19 39.1472 39.1472 19 64 19C88.8528 19 109 39.1472 109 64Z" fill="#F9FAFC"/>
<path d="M109 64C109 39.1472 88.8528 19 64 19M109 64H105.17M109 64C109 72.2529 106.778 79.987 102.9 86.6367C95.1005 100.012 80.5999 109 64 109C47.3883 109 32.8789 99.999 25.0829 86.6081C21.2153 79.9648 19 72.2411 19 64M19 64C19 39.1472 39.1472 19 64 19M19 64H22.8298M64 19V27.8298M102.971 41.5L99.6544 43.4149M25.0289 86.5L28.3455 84.5851M86.5 25.0289L84.5851 28.3456M41.5 102.971L45.4149 96.6545M25.0289 41.5L28.3456 43.4149M102.971 86.5L99.6545 84.5851M41.5 25.0289L43.4149 28.3456M86.5 102.971L82.5851 96.6545" stroke="#2B2727" stroke-width="3" stroke-linecap="round"/>
<path d="M53 96.2C53 94.4327 54.4071 93 56.1429 93H71.8571C73.5929 93 75 94.4327 75 96.2V97.8C75 99.5673 73.5929 101 71.8571 101H56.1429C54.4071 101 53 99.5673 53 97.8V96.2Z" fill="#F9FAFC"/>
<path d="M57.5294 97H59.5728M62.9783 97H65.0217M68.4272 97H70.4706M56.1429 101H71.8571C73.5929 101 75 99.5673 75 97.8V96.2C75 94.4327 73.5929 93 71.8571 93H56.1429C54.4071 93 53 94.4327 53 96.2V97.8C53 99.5673 54.4071 101 56.1429 101Z" stroke="#2B2727" stroke-width="2" stroke-linecap="round"/>
<path opacity="0.25" d="M51.7431 87C44.1489 82.8385 39 74.7705 39 65.5C39 51.969 49.969 41 63.5 41C77.031 41 88 51.969 88 65.5C88 74.4649 83.185 82.3051 76 86.5757" stroke="#2B2727" stroke-width="3" stroke-linecap="round"/>
<path d="M64 41C77.2548 41 88 51.9711 88 65.5047C88 70.0817 86.771 74.3656 84.6316 78.0311C82.4399 81.7862 79.2928 84.8924 75.5327 87" stroke="#2B2727" stroke-width="3" stroke-linecap="round"/>
<path d="M68 64C68 66.2091 66.2091 68 64 68C61.7908 68 60 66.2091 60 64C60 62.8954 60.4477 61.8954 61.1715 61.1716C61.8954 60.4477 62.8954 60 64 60C66.2091 60 68 61.7909 68 64Z" fill="#F9FAFC"/>
<path d="M72.5771 72.5771L66.8743 66.8744M39 39L61.1715 61.1716M61.1715 61.1716C60.4477 61.8954 60 62.8954 60 64C60 66.2091 61.7908 68 64 68C66.2091 68 68 66.2091 68 64C68 61.7909 66.2091 60 64 60C62.8954 60 61.8954 60.4477 61.1715 61.1716Z" stroke="#2B2727" stroke-width="4" stroke-linecap="round" stroke-linejoin="round"/>
</g>
<defs>
<clipPath id="clip0_64_25186">
<rect width="128" height="128" fill="white"/>
</clipPath>
</defs>
</svg>
