<svg width="128" height="128" viewBox="0 0 128 128" fill="none" xmlns="http://www.w3.org/2000/svg">
<g clip-path="url(#clip0_13_1956)">
<rect x="15.5" y="27.5" width="85" height="67" rx="10.5" fill="#F9FAFC" stroke="#0057F2" stroke-width="3" stroke-linecap="round" stroke-linejoin="round"/>
<rect x="24.5" y="36.5" width="34" height="23" rx="6.5" fill="#F9FAFC" stroke="#0057F2" stroke-width="3" stroke-linecap="round" stroke-linejoin="round"/>
<path d="M32 54V49.9795M38 54V44.4552M44 54V47.5243M50 54V42" stroke="#2B2727" stroke-width="2" stroke-linecap="round" stroke-linejoin="round"/>
<path d="M74.5 39.5H90M74.5 45.5H84.5M74.5 51.5H88.5M74.5 57.5H81.5" stroke="#2B2727" stroke-width="2" stroke-linecap="round" stroke-linejoin="round"/>
<mask id="path-5-inside-1_13_1956" fill="white">
<path d="M70 39.5C70 40.3284 69.3284 41 68.5 41C67.6716 41 67 40.3284 67 39.5C67 38.6716 67.6716 38 68.5 38C69.3284 38 70 38.6716 70 39.5Z"/>
<path d="M70 45.5C70 46.3284 69.3284 47 68.5 47C67.6716 47 67 46.3284 67 45.5C67 44.6716 67.6716 44 68.5 44C69.3284 44 70 44.6716 70 45.5Z"/>
<path d="M70 51.5C70 52.3284 69.3284 53 68.5 53C67.6716 53 67 52.3284 67 51.5C67 50.6716 67.6716 50 68.5 50C69.3284 50 70 50.6716 70 51.5Z"/>
<path d="M70 57.5C70 58.3284 69.3284 59 68.5 59C67.6716 59 67 58.3284 67 57.5C67 56.6716 67.6716 56 68.5 56C69.3284 56 70 56.6716 70 57.5Z"/>
</mask>
<path d="M70 39.5C70 40.3284 69.3284 41 68.5 41C67.6716 41 67 40.3284 67 39.5C67 38.6716 67.6716 38 68.5 38C69.3284 38 70 38.6716 70 39.5Z" fill="#2B2727"/>
<path d="M70 45.5C70 46.3284 69.3284 47 68.5 47C67.6716 47 67 46.3284 67 45.5C67 44.6716 67.6716 44 68.5 44C69.3284 44 70 44.6716 70 45.5Z" fill="#2B2727"/>
<path d="M70 51.5C70 52.3284 69.3284 53 68.5 53C67.6716 53 67 52.3284 67 51.5C67 50.6716 67.6716 50 68.5 50C69.3284 50 70 50.6716 70 51.5Z" fill="#2B2727"/>
<path d="M70 57.5C70 58.3284 69.3284 59 68.5 59C67.6716 59 67 58.3284 67 57.5C67 56.6716 67.6716 56 68.5 56C69.3284 56 70 56.6716 70 57.5Z" fill="#2B2727"/>
<path d="M67 39.5C67 38.6716 67.6716 38 68.5 38V44C70.9853 44 73 41.9853 73 39.5H67ZM68.5 38C69.3284 38 70 38.6716 70 39.5H64C64 41.9853 66.0147 44 68.5 44V38ZM70 39.5C70 40.3284 69.3284 41 68.5 41V35C66.0147 35 64 37.0147 64 39.5H70ZM68.5 41C67.6716 41 67 40.3284 67 39.5H73C73 37.0147 70.9853 35 68.5 35V41ZM67 45.5C67 44.6716 67.6716 44 68.5 44V50C70.9853 50 73 47.9853 73 45.5H67ZM68.5 44C69.3284 44 70 44.6716 70 45.5H64C64 47.9853 66.0147 50 68.5 50V44ZM70 45.5C70 46.3284 69.3284 47 68.5 47V41C66.0147 41 64 43.0147 64 45.5H70ZM68.5 47C67.6716 47 67 46.3284 67 45.5H73C73 43.0147 70.9853 41 68.5 41V47ZM67 51.5C67 50.6716 67.6716 50 68.5 50V56C70.9853 56 73 53.9853 73 51.5H67ZM68.5 50C69.3284 50 70 50.6716 70 51.5H64C64 53.9853 66.0147 56 68.5 56V50ZM70 51.5C70 52.3284 69.3284 53 68.5 53V47C66.0147 47 64 49.0147 64 51.5H70ZM68.5 53C67.6716 53 67 52.3284 67 51.5H73C73 49.0147 70.9853 47 68.5 47V53ZM67 57.5C67 56.6716 67.6716 56 68.5 56V62C70.9853 62 73 59.9853 73 57.5H67ZM68.5 56C69.3284 56 70 56.6716 70 57.5H64C64 59.9853 66.0147 62 68.5 62V56ZM70 57.5C70 58.3284 69.3284 59 68.5 59V53C66.0147 53 64 55.0147 64 57.5H70ZM68.5 59C67.6716 59 67 58.3284 67 57.5H73C73 55.0147 70.9853 53 68.5 53V59Z" fill="#2B2727" mask="url(#path-5-inside-1_13_1956)"/>
<path d="M29 81L36.296 76.7895L43.136 80.4737H51.8L58.184 78.8947L61.832 74.1579L70.952 78.3684L75.968 71L86 72.0526" stroke="#0057F2" stroke-width="2" stroke-linecap="round" stroke-linejoin="round"/>
<rect x="24.5" y="66.5" width="66" height="19" rx="6.5" stroke="#0057F2" stroke-width="3" stroke-linecap="round" stroke-linejoin="round"/>
<rect x="94.5" y="67.5" width="17" height="27" rx="6.5" stroke="#0057F2" stroke-width="3"/>
<rect x="88.5" y="83.5" width="30" height="30" rx="15" fill="#F9FAFC" stroke="#0057F2" stroke-width="3"/>
<rect x="99.6666" y="91.9783" width="7.66667" height="13.0435" rx="3.83333" stroke="#0057F2"/>
<rect x="97.5" y="89.5" width="12" height="18" rx="6" stroke="#0057F2"/>
<rect x="101.833" y="94.4565" width="3.33333" height="8.08696" rx="1.66667" stroke="#0057F2"/>
<rect x="99" y="97" width="2" height="2" fill="#F9FAFC"/>
<rect x="96" y="100" width="2" height="2" fill="#F9FAFC"/>
<rect x="103" y="104" width="2" height="2" fill="#F9FAFC"/>
<rect x="104" y="96" width="2" height="2" fill="#F9FAFC"/>
<rect x="102" y="89" width="2" height="2" fill="#F9FAFC"/>
<rect x="108" y="94" width="2" height="2" fill="#F9FAFC"/>
<rect x="104" y="106" width="2" height="2" fill="#F9FAFC"/>
<rect x="106" y="99" width="2" height="2" fill="#F9FAFC"/>
<rect x="9.5" y="23.5" width="85" height="67" rx="10.5" fill="#F9FAFC" stroke="#2B2727" stroke-width="3" stroke-linecap="round" stroke-linejoin="round"/>
<rect x="18.5" y="32.5" width="34" height="23" rx="6.5" fill="#F9FAFC" stroke="#2B2727" stroke-width="3" stroke-linecap="round" stroke-linejoin="round"/>
<path d="M26 50V45.9795M32 50V40.4552M38 50V43.5243M44 50V38" stroke="#2B2727" stroke-width="2" stroke-linecap="round" stroke-linejoin="round"/>
<path d="M68.5 35.5H84M68.5 41.5H78.5M68.5 47.5H82.5M68.5 53.5H75.5" stroke="#2B2727" stroke-width="2" stroke-linecap="round" stroke-linejoin="round"/>
<mask id="path-26-inside-2_13_1956" fill="white">
<path d="M64 35.5C64 36.3284 63.3284 37 62.5 37C61.6716 37 61 36.3284 61 35.5C61 34.6716 61.6716 34 62.5 34C63.3284 34 64 34.6716 64 35.5Z"/>
<path d="M64 41.5C64 42.3284 63.3284 43 62.5 43C61.6716 43 61 42.3284 61 41.5C61 40.6716 61.6716 40 62.5 40C63.3284 40 64 40.6716 64 41.5Z"/>
<path d="M64 47.5C64 48.3284 63.3284 49 62.5 49C61.6716 49 61 48.3284 61 47.5C61 46.6716 61.6716 46 62.5 46C63.3284 46 64 46.6716 64 47.5Z"/>
<path d="M64 53.5C64 54.3284 63.3284 55 62.5 55C61.6716 55 61 54.3284 61 53.5C61 52.6716 61.6716 52 62.5 52C63.3284 52 64 52.6716 64 53.5Z"/>
</mask>
<path d="M64 35.5C64 36.3284 63.3284 37 62.5 37C61.6716 37 61 36.3284 61 35.5C61 34.6716 61.6716 34 62.5 34C63.3284 34 64 34.6716 64 35.5Z" fill="#2B2727"/>
<path d="M64 41.5C64 42.3284 63.3284 43 62.5 43C61.6716 43 61 42.3284 61 41.5C61 40.6716 61.6716 40 62.5 40C63.3284 40 64 40.6716 64 41.5Z" fill="#2B2727"/>
<path d="M64 47.5C64 48.3284 63.3284 49 62.5 49C61.6716 49 61 48.3284 61 47.5C61 46.6716 61.6716 46 62.5 46C63.3284 46 64 46.6716 64 47.5Z" fill="#2B2727"/>
<path d="M64 53.5C64 54.3284 63.3284 55 62.5 55C61.6716 55 61 54.3284 61 53.5C61 52.6716 61.6716 52 62.5 52C63.3284 52 64 52.6716 64 53.5Z" fill="#2B2727"/>
<path d="M61 35.5C61 34.6716 61.6716 34 62.5 34V40C64.9853 40 67 37.9853 67 35.5H61ZM62.5 34C63.3284 34 64 34.6716 64 35.5H58C58 37.9853 60.0147 40 62.5 40V34ZM64 35.5C64 36.3284 63.3284 37 62.5 37V31C60.0147 31 58 33.0147 58 35.5H64ZM62.5 37C61.6716 37 61 36.3284 61 35.5H67C67 33.0147 64.9853 31 62.5 31V37ZM61 41.5C61 40.6716 61.6716 40 62.5 40V46C64.9853 46 67 43.9853 67 41.5H61ZM62.5 40C63.3284 40 64 40.6716 64 41.5H58C58 43.9853 60.0147 46 62.5 46V40ZM64 41.5C64 42.3284 63.3284 43 62.5 43V37C60.0147 37 58 39.0147 58 41.5H64ZM62.5 43C61.6716 43 61 42.3284 61 41.5H67C67 39.0147 64.9853 37 62.5 37V43ZM61 47.5C61 46.6716 61.6716 46 62.5 46V52C64.9853 52 67 49.9853 67 47.5H61ZM62.5 46C63.3284 46 64 46.6716 64 47.5H58C58 49.9853 60.0147 52 62.5 52V46ZM64 47.5C64 48.3284 63.3284 49 62.5 49V43C60.0147 43 58 45.0147 58 47.5H64ZM62.5 49C61.6716 49 61 48.3284 61 47.5H67C67 45.0147 64.9853 43 62.5 43V49ZM61 53.5C61 52.6716 61.6716 52 62.5 52V58C64.9853 58 67 55.9853 67 53.5H61ZM62.5 52C63.3284 52 64 52.6716 64 53.5H58C58 55.9853 60.0147 58 62.5 58V52ZM64 53.5C64 54.3284 63.3284 55 62.5 55V49C60.0147 49 58 51.0147 58 53.5H64ZM62.5 55C61.6716 55 61 54.3284 61 53.5H67C67 51.0147 64.9853 49 62.5 49V55Z" fill="#2B2727" mask="url(#path-26-inside-2_13_1956)"/>
<path d="M23 77L30.296 72.7895L37.136 76.4737H45.8L52.184 74.8947L55.832 70.1579L64.952 74.3684L69.968 67L80 68.0526" stroke="#2B2727" stroke-width="2" stroke-linecap="round" stroke-linejoin="round"/>
<rect x="18.5" y="62.5" width="66" height="19" rx="6.5" stroke="#2B2727" stroke-width="3" stroke-linecap="round" stroke-linejoin="round"/>
<rect x="88.5" y="63.5" width="17" height="27" rx="6.5" stroke="#2B2727" stroke-width="3"/>
<rect x="82.5" y="79.5" width="30" height="30" rx="15" fill="#F9FAFC" stroke="#2B2727" stroke-width="3"/>
<rect x="93.6666" y="87.9783" width="7.66667" height="13.0435" rx="3.83333" stroke="#2B2727"/>
<rect x="91.5" y="85.5" width="12" height="18" rx="6" stroke="#2B2727"/>
<rect x="95.8334" y="90.4565" width="3.33333" height="8.08696" rx="1.66667" stroke="#2B2727"/>
<rect x="93" y="93" width="2" height="2" fill="#F9FAFC"/>
<rect x="90" y="96" width="2" height="2" fill="#F9FAFC"/>
<rect x="97" y="100" width="2" height="2" fill="#F9FAFC"/>
<rect x="98" y="92" width="2" height="2" fill="#F9FAFC"/>
<rect x="96" y="85" width="2" height="2" fill="#F9FAFC"/>
<rect x="102" y="90" width="2" height="2" fill="#F9FAFC"/>
<rect x="98" y="102" width="2" height="2" fill="#F9FAFC"/>
<rect x="100" y="95" width="2" height="2" fill="#F9FAFC"/>
</g>
<defs>
<clipPath id="clip0_13_1956">
<rect width="128" height="128" fill="white"/>
</clipPath>
</defs>
</svg>
