<svg width="128" height="128" viewBox="0 0 128 128" fill="none" xmlns="http://www.w3.org/2000/svg">
<g clip-path="url(#clip0_1139_12941)">
<path d="M23 48C23 44.134 26.134 41 30 41H111C114.866 41 118 44.134 118 48V82C118 85.866 114.866 89 111 89H30C26.134 89 23 85.866 23 82V48Z" fill="#F9FAFC"/>
<path d="M34 51H106V80H34V51Z" fill="#F9FAFC"/>
<path d="M41 60H77M41 66H77M41 72H77M30 89H111C114.866 89 118 85.866 118 82V48C118 44.134 114.866 41 111 41H30C26.134 41 23 44.134 23 48V82C23 85.866 26.134 89 30 89ZM34 51H106V80H34V51Z" stroke="#0057F2" stroke-width="3" stroke-linecap="round"/>
<path d="M97.9794 60.0547C97.9659 59.8001 97.865 59.5601 97.6967 59.3817C97.5284 59.2034 97.3047 59.0995 97.0694 59.0905C96.5194 59.0526 94.7394 59.0255 94.2244 59.0255C95.1394 59.708 95.2644 60.9972 95.3544 63.3914C95.4044 64.8105 95.3544 69.783 95.3544 69.9997L95.3294 71.3539L90.5144 66.1322V64.5072L94.3444 68.6509C94.3544 67.8276 94.3644 66.7551 94.3644 65.7801C94.3644 64.8268 94.3494 63.9655 94.3244 63.5051C94.1794 60.8997 93.9544 59.6755 92.6994 59.1934C92.2662 59.0471 91.8128 58.983 91.3594 59.0039C90.8594 59.0039 87.4244 59.0039 86.9244 59.0309C86.6869 59.0378 86.4609 59.1435 86.2933 59.326C86.1258 59.5086 86.0295 59.754 86.0244 60.0114C85.9944 60.5422 85.9894 70.3951 86.0244 70.9368C86.0494 71.4676 86.4244 71.8684 86.9244 71.9009C87.4744 71.9334 89.2594 71.9389 89.7744 71.9389C88.8594 71.2564 88.7344 69.9672 88.6444 67.573C88.5944 66.1539 88.6444 61.1814 88.6444 60.9647L88.6694 59.6105L93.4844 64.8322V66.4572L89.6494 62.3189C89.6394 63.1422 89.6294 64.2147 89.6294 65.1897C89.6294 66.143 89.6444 67.0043 89.6694 67.4647C89.8144 70.0701 90.0394 71.2943 91.2944 71.7709C91.6794 71.9226 92.0394 71.9551 92.6344 71.9659C93.1344 71.9659 96.5694 71.9659 97.0644 71.9389C97.3037 71.9347 97.5322 71.8302 97.7019 71.6474C97.8716 71.4646 97.9693 71.2176 97.9744 70.9584C97.9994 70.4276 98.0044 60.5964 97.9744 60.0601L97.9794 60.0547Z" fill="#0057F2"/>
<path d="M17 44C17 40.134 20.134 37 24 37H105C108.866 37 112 40.134 112 44V78C112 81.866 108.866 85 105 85H24C20.134 85 17 81.866 17 78V44Z" fill="#F9FAFC"/>
<path d="M28 47H100V76H28V47Z" fill="#F9FAFC"/>
<path d="M35 56H71M35 62H71M35 68H71M24 85H105C108.866 85 112 81.866 112 78V44C112 40.134 108.866 37 105 37H24C20.134 37 17 40.134 17 44V78C17 81.866 20.134 85 24 85ZM28 47H100V76H28V47Z" stroke="#2B2727" stroke-width="3" stroke-linecap="round"/>
<path d="M91.9794 56.0547C91.9659 55.8001 91.865 55.5601 91.6967 55.3817C91.5284 55.2034 91.3047 55.0995 91.0694 55.0905C90.5194 55.0526 88.7394 55.0255 88.2244 55.0255C89.1394 55.708 89.2644 56.9972 89.3544 59.3914C89.4044 60.8105 89.3544 65.783 89.3544 65.9997L89.3294 67.3539L84.5144 62.1322V60.5072L88.3444 64.6509C88.3544 63.8276 88.3644 62.7551 88.3644 61.7801C88.3644 60.8268 88.3494 59.9655 88.3244 59.5051C88.1794 56.8997 87.9544 55.6755 86.6994 55.1934C86.2662 55.0471 85.8128 54.983 85.3594 55.0039C84.8594 55.0039 81.4244 55.0039 80.9244 55.0309C80.6869 55.0378 80.4609 55.1435 80.2933 55.326C80.1258 55.5086 80.0295 55.754 80.0244 56.0114C79.9944 56.5422 79.9894 66.3951 80.0244 66.9368C80.0494 67.4676 80.4244 67.8684 80.9244 67.9009C81.4744 67.9334 83.2594 67.9389 83.7744 67.9389C82.8594 67.2564 82.7344 65.9672 82.6444 63.573C82.5944 62.1539 82.6444 57.1814 82.6444 56.9647L82.6694 55.6105L87.4844 60.8322V62.4572L83.6494 58.3189C83.6394 59.1422 83.6294 60.2147 83.6294 61.1897C83.6294 62.143 83.6444 63.0043 83.6694 63.4647C83.8144 66.0701 84.0394 67.2943 85.2944 67.7709C85.6794 67.9226 86.0394 67.9551 86.6344 67.9659C87.1344 67.9659 90.5694 67.9659 91.0644 67.9389C91.3037 67.9347 91.5322 67.8302 91.7019 67.6474C91.8716 67.4646 91.9693 67.2176 91.9744 66.9584C91.9994 66.4276 92.0044 56.5964 91.9744 56.0601L91.9794 56.0547Z" fill="#2B2727"/>
</g>
<defs>
<clipPath id="clip0_1139_12941">
<rect width="128" height="128" fill="white"/>
</clipPath>
</defs>
</svg>
