<svg width="128" height="128" viewBox="0 0 128 128" fill="none" xmlns="http://www.w3.org/2000/svg">
<g clip-path="url(#clip0_83_38670)">
<path d="M74.1476 68.4489C75.1517 76.8426 73.2076 82.6236 69.6427 86.5264C66.0373 90.4736 60.5629 92.7328 54.0787 93.6141C47.805 94.4668 40.9152 92.5165 36.1791 88.4043C31.5086 84.3491 28.9146 78.1927 31.0721 70.3599C32.5068 65.1515 34.4058 61.8541 36.5581 58.117C37.0823 57.2067 37.6216 56.2703 38.1728 55.2738C40.9958 50.1709 43.9181 43.8175 46.2477 32.0263C46.6392 30.0449 48.7922 29.3172 50.0816 30.3802C61.6675 39.9309 72.3931 53.7809 74.1476 68.4489Z" fill="#F9FAFC" stroke="#0057F2" stroke-width="3" stroke-linejoin="round"/>
<path d="M53.9999 80.9999C53.9999 80.9999 54.9999 100.5 47.4558 109.133" stroke="#0057F2" stroke-width="3" stroke-linecap="round"/>
<path d="M108.665 92.6303C106.358 100.946 102.126 105.584 96.969 107.772C91.7405 109.99 85.2926 109.806 78.3915 107.891C71.6823 106.03 65.4923 101.244 62.3478 95.3458C59.2498 89.5344 59.092 82.6552 64.3452 76.1995C67.8493 71.8933 71.0634 69.5852 74.7049 66.9703C75.6257 66.309 76.5739 65.6282 77.5609 64.8904C82.461 61.228 87.9721 56.3804 95.0777 46.015C96.1774 44.4108 98.3686 44.545 99.1944 45.9793C107.255 59.9788 112.762 77.8641 108.665 92.6303Z" fill="#F9FAFC" stroke="#0057F2" stroke-width="3" stroke-linejoin="round"/>
<path d="M84 96.9999C84 96.9999 77 115 65.6002 119.697" stroke="#0057F2" stroke-width="3" stroke-linecap="round"/>
<path d="M68.1476 64.4489C69.1517 72.8426 67.2076 78.6236 63.6427 82.5264C60.0373 86.4736 54.5629 88.7328 48.0787 89.6141C41.805 90.4668 34.9152 88.5165 30.1791 84.4043C25.5086 80.3491 22.9146 74.1927 25.0721 66.3599C26.5068 61.1515 28.4058 57.8541 30.5581 54.117C31.0823 53.2067 31.6216 52.2703 32.1728 51.2738C34.9958 46.1709 37.9181 39.8175 40.2477 28.0263C40.6392 26.0449 42.7922 25.3172 44.0816 26.3802C55.6675 35.9309 66.3931 49.7809 68.1476 64.4489Z" fill="#F9FAFC" stroke="#2B2727" stroke-width="3" stroke-linejoin="round"/>
<path d="M47.9999 76.9999C47.9999 76.9999 48.9999 96.4999 41.4558 105.133" stroke="#2B2727" stroke-width="3" stroke-linecap="round"/>
<path d="M102.665 88.6303C100.358 96.946 96.1257 101.584 90.969 103.772C85.7405 105.99 79.2926 105.806 72.3915 103.891C65.6823 102.03 59.4923 97.2443 56.3478 91.3458C53.2498 85.5344 53.092 78.6552 58.3452 72.1995C61.8493 67.8933 65.0634 65.5852 68.7049 62.9703C69.6257 62.309 70.5739 61.6282 71.5609 60.8904C76.461 57.228 81.9721 52.3804 89.0777 42.015C90.1774 40.4108 92.3686 40.545 93.1944 41.9793C101.255 55.9788 106.762 73.8641 102.665 88.6303Z" fill="#F9FAFC" stroke="#2B2727" stroke-width="3" stroke-linejoin="round"/>
<path d="M78 92.9999C78 92.9999 71 111 59.6002 115.697" stroke="#2B2727" stroke-width="3" stroke-linecap="round"/>
</g>
<defs>
<clipPath id="clip0_83_38670">
<rect width="128" height="128" fill="white"/>
</clipPath>
</defs>
</svg>
