<svg width="128" height="128" viewBox="0 0 128 128" fill="none" xmlns="http://www.w3.org/2000/svg">
<g clip-path="url(#clip0_1139_12927)">
<path d="M30 34C30 30.6863 32.6863 28 36 28H105C108.314 28 111 30.6863 111 34V103C111 106.314 108.314 109 105 109H36C32.6863 109 30 106.314 30 103V34Z" fill="#F9FAFC"/>
<path d="M41 39H101V99H41V39Z" fill="#F9FAFC"/>
<path d="M50 48H75M50 76H81M50 54H75M50 82H91M50 88H85M36 109H105C108.314 109 111 106.314 111 103V34C111 30.6863 108.314 28 105 28H36C32.6863 28 30 30.6863 30 34V103C30 106.314 32.6863 109 36 109ZM41 39H101V99H41V39Z" stroke="#0057F2" stroke-width="3" stroke-linecap="round"/>
<path d="M24 30C24 26.6863 26.6863 24 30 24H99C102.314 24 105 26.6863 105 30V99C105 102.314 102.314 105 99 105H30C26.6863 105 24 102.314 24 99V30Z" fill="#F9FAFC"/>
<path d="M35 35H95V95H35V35Z" fill="#F9FAFC"/>
<path d="M44 44H69M44 72H75M44 50H69M44 78H85M44 84H79M30 105H99C102.314 105 105 102.314 105 99V30C105 26.6863 102.314 24 99 24H30C26.6863 24 24 26.6863 24 30V99C24 102.314 26.6863 105 30 105ZM35 35H95V95H35V35Z" stroke="#2B2727" stroke-width="3" stroke-linecap="round"/>
</g>
<defs>
<clipPath id="clip0_1139_12927">
<rect width="128" height="128" fill="white"/>
</clipPath>
</defs>
</svg>
