<svg width="128" height="128" viewBox="0 0 128 128" fill="none" xmlns="http://www.w3.org/2000/svg">
<g clip-path="url(#clip0_1139_12955)">
<path d="M9 21H67V115H9V21Z" fill="#F9FAFC"/>
<path d="M16 28H59V108H16V28Z" fill="#F9FAFC"/>
<path d="M73 21H131V115H73V21Z" fill="#F9FAFC"/>
<path d="M80 28H123V108H80V28Z" fill="#F9FAFC"/>
<path d="M9 21H67V115H9V21Z" stroke="#0057F2" stroke-width="3"/>
<path d="M16 28H59V108H16V28Z" stroke="#0057F2" stroke-width="3"/>
<path d="M73 21H131V115H73V21Z" stroke="#0057F2" stroke-width="3"/>
<path d="M80 28H123V108H80V28Z" stroke="#0057F2" stroke-width="3"/>
<path d="M109 43.5C109 47.6421 105.642 51 101.5 51C97.3579 51 94 47.6421 94 43.5C94 39.3579 97.3579 36 101.5 36C105.642 36 109 39.3579 109 43.5Z" stroke="#0057F2" stroke-width="2" stroke-linejoin="round"/>
<path d="M102 59L110.66 99.5H93.3397L102 59Z" stroke="#0057F2" stroke-width="2" stroke-linejoin="round"/>
<path d="M49 68.5C49 74.8513 43.8513 80 37.5 80C31.1487 80 26 74.8513 26 68.5C26 62.1487 31.1487 57 37.5 57C43.8513 57 49 62.1487 49 68.5Z" stroke="#0057F2" stroke-width="2" stroke-linejoin="round"/>
<path d="M33 38H41V51H33V38Z" stroke="#0057F2" stroke-width="2" stroke-linejoin="round"/>
<path d="M46 93L33.25 98.1962L33.25 87.8038L46 93Z" stroke="#0057F2" stroke-width="2" stroke-linejoin="round"/>
<path d="M3 17H61V111H3V17Z" fill="#F9FAFC"/>
<path d="M10 24H53V104H10V24Z" fill="#F9FAFC"/>
<path d="M67 17H125V111H67V17Z" fill="#F9FAFC"/>
<path d="M74 24H117V104H74V24Z" fill="#F9FAFC"/>
<path d="M3 17H61V111H3V17Z" stroke="#2B2727" stroke-width="3"/>
<path d="M10 24H53V104H10V24Z" stroke="#2B2727" stroke-width="3"/>
<path d="M67 17H125V111H67V17Z" stroke="#2B2727" stroke-width="3"/>
<path d="M74 24H117V104H74V24Z" stroke="#2B2727" stroke-width="3"/>
<path d="M103 39.5C103 43.6421 99.6421 47 95.5 47C91.3579 47 88 43.6421 88 39.5C88 35.3579 91.3579 32 95.5 32C99.6421 32 103 35.3579 103 39.5Z" stroke="#2B2727" stroke-width="2" stroke-linejoin="round"/>
<path d="M96 55L104.66 95.5H87.3397L96 55Z" stroke="#2B2727" stroke-width="2" stroke-linejoin="round"/>
<path d="M43 64.5C43 70.8513 37.8513 76 31.5 76C25.1487 76 20 70.8513 20 64.5C20 58.1487 25.1487 53 31.5 53C37.8513 53 43 58.1487 43 64.5Z" stroke="#2B2727" stroke-width="2" stroke-linejoin="round"/>
<path d="M27 34H35V47H27V34Z" stroke="#2B2727" stroke-width="2" stroke-linejoin="round"/>
<path d="M40 89L27.25 94.1962L27.25 83.8038L40 89Z" stroke="#2B2727" stroke-width="2" stroke-linejoin="round"/>
</g>
<defs>
<clipPath id="clip0_1139_12955">
<rect width="128" height="128" fill="white"/>
</clipPath>
</defs>
</svg>
