<svg width="128" height="128" viewBox="0 0 128 128" fill="none" xmlns="http://www.w3.org/2000/svg">
<g clip-path="url(#clip0_59_24227)">
<path d="M71 91C71 89.3431 72.3431 88 74 88H117V94H74C72.3431 94 71 92.6569 71 91Z" fill="#F9FAFC" stroke="#0057F2" stroke-width="3"/>
<path d="M72 68.0002H78V89.0002C78 90.6571 76.6569 92.0002 75 92.0002C73.3431 92.0002 72 90.6571 72 89.0002V68.0002Z" fill="#F9FAFC" stroke="#0057F2" stroke-width="3"/>
<circle cx="74.5" cy="68.5002" r="7.5" fill="#F9FAFC" stroke="#0057F2" stroke-width="3"/>
<circle cx="75" cy="91" r="6" fill="#F9FAFC" stroke="#0057F2" stroke-width="3"/>
<path d="M109 85.4C109 83.1598 109 82.0397 109.436 81.184C109.819 80.4314 110.431 79.8195 111.184 79.436C112.04 79 113.16 79 115.4 79H117.4C117.96 79 118.24 79 118.454 79.109C118.642 79.2049 118.795 79.3578 118.891 79.546C119 79.7599 119 80.0399 119 80.6V104.4C119 104.96 119 105.24 118.891 105.454C118.795 105.642 118.642 105.795 118.454 105.891C118.24 106 117.96 106 117.4 106H115.4C113.16 106 112.04 106 111.184 105.564C110.431 105.181 109.819 104.569 109.436 103.816C109 102.96 109 101.84 109 99.6V85.4Z" fill="#F9FAFC" stroke="#0057F2" stroke-width="3"/>
<path d="M25.9205 62.923C25.6768 61.5511 25.5549 60.8651 25.538 60.2752C25.4374 56.7529 27.6533 53.5794 30.9947 52.4606C31.5543 52.2732 32.2403 52.1514 33.6122 51.9076L39.1646 50.9211L42.4883 69.6282L36.9359 70.6147C35.5639 70.8584 34.878 70.9803 34.2881 70.9971C30.7657 71.0978 27.5923 68.8819 26.4735 65.5404C26.2861 64.9809 26.1643 64.2949 25.9205 62.923Z" fill="#F9FAFC" stroke="#0057F2" stroke-width="3"/>
<path d="M33.9246 55.5241C33.3367 52.2156 33.0428 50.5614 33.4622 49.1833C33.8311 47.9711 34.5742 46.9068 35.5852 46.1429C36.7345 45.2745 38.3887 44.9806 41.6972 44.3928L83.8373 36.9058C87.1458 36.318 88.8 36.0241 90.1781 36.4434C91.3903 36.8123 92.4546 37.5555 93.2185 38.5664C94.0868 39.7157 94.3808 41.3699 94.9686 44.6784L96.8578 55.3119C97.4457 58.6204 97.7396 60.2747 97.3202 61.6527C96.9513 62.8649 96.2082 63.9292 95.1972 64.6931C94.0479 65.5615 92.3937 65.8554 89.0852 66.4432L46.9451 73.9302C43.6366 74.5181 41.9824 74.812 40.6043 74.3926C39.3921 74.0237 38.3278 73.2806 37.5639 72.2696C36.6956 71.1203 36.4016 69.4661 35.8138 66.1576L33.9246 55.5241Z" fill="#F9FAFC" stroke="#0057F2" stroke-width="3"/>
<path d="M23.6496 45.6102C22.7483 43.683 22.2976 42.7194 22.3924 41.8787C22.4754 41.1421 22.8282 40.4623 23.3828 39.9704C24.0157 39.409 25.0631 39.2229 27.1579 38.8507L89.133 27.8396C90.7872 27.5457 91.6144 27.3988 92.3034 27.6085C92.9095 27.7929 93.4417 28.1645 93.8236 28.6699C94.2578 29.2446 94.4047 30.0717 94.6986 31.726L96.343 40.981C96.6369 42.6353 96.7839 43.4624 96.5742 44.1514C96.3897 44.7575 96.0182 45.2897 95.5127 45.6716C94.938 46.1058 94.1109 46.2528 92.4567 46.5467L32.9598 57.1175C31.6613 57.3482 31.012 57.4635 30.4292 57.3351C29.9148 57.2217 29.4394 56.975 29.0507 56.6196C28.6102 56.2169 28.3308 55.6196 27.7721 54.425L23.6496 45.6102Z" fill="#F9FAFC" stroke="#0057F2" stroke-width="3"/>
<g clip-path="url(#clip1_59_24227)">
<path d="M78.2704 35.1017C76.3005 35.4515 74.9419 37.2239 75.0571 39.1752C75.0629 39.2737 75.0717 39.3724 75.0845 39.4715C75.0962 39.5608 75.181 39.6199 75.2694 39.6042L75.8532 39.5005C75.9417 39.4848 76.0002 39.4002 75.9901 39.3107C75.9789 39.211 75.9732 39.1117 75.9711 39.0129C75.9387 37.5644 76.9617 36.2676 78.4311 36.0066C80.0547 35.7183 81.6042 36.8028 81.8928 38.428C82.1814 40.0531 81.0998 41.6034 79.4762 41.8918L75.0658 42.675C74.9401 42.6973 74.8887 42.849 74.9791 42.9396C75.1685 43.1296 75.3709 43.306 75.5848 43.4666C75.6203 43.4932 75.6652 43.5035 75.7088 43.4958L79.6372 42.7981C81.7603 42.4211 83.1757 40.3924 82.7983 38.2672C82.4209 36.142 80.3935 34.7247 78.2704 35.1017Z" fill="#2B2727"/>
<path d="M77.9715 33.4186C76.2503 33.7243 74.8516 34.7821 74.0543 36.195C73.4985 37.1798 73.25 38.3423 73.3559 39.4686C73.3561 39.4715 73.3556 39.4743 73.3559 39.4773C73.3653 39.5756 73.3754 39.674 73.3887 39.7726C73.4008 39.8619 73.4854 39.921 73.5739 39.9053L74.1577 39.8016C74.2461 39.7859 74.3048 39.7013 74.2923 39.6122C74.2784 39.5135 74.2678 39.4151 74.26 39.3167C74.0704 36.9263 75.7223 34.737 78.1297 34.3095C80.69 33.8548 83.1346 35.5639 83.5897 38.1266C84.0448 40.6894 82.3381 43.1357 79.7779 43.5903L77.2593 44.0376C77.1004 44.0658 77.0793 44.2737 77.233 44.3231C77.9936 44.5678 78.8166 44.6511 79.6555 44.5456L79.9386 44.4953C82.8072 43.9859 84.7778 41.3848 84.5649 38.538C84.551 38.3529 84.529 38.1668 84.4963 37.9802C84.4623 37.7887 84.4179 37.6004 84.3659 37.4174C83.5855 34.6713 80.8401 32.9092 77.9715 33.4186Z" fill="#2B2727"/>
<path d="M78.5718 36.7989C77.5408 36.982 76.811 37.8634 76.7751 38.8701C76.7716 38.9692 76.7735 39.0692 76.783 39.17C76.7914 39.2597 76.8765 39.3188 76.9649 39.3031L77.5501 39.1992C77.6386 39.1835 77.6964 39.0987 77.6927 39.0088C77.6884 38.9045 77.6975 38.802 77.7173 38.7027C77.8161 38.2072 78.2056 37.7988 78.7328 37.7053C79.4197 37.5833 80.0751 38.0415 80.1973 38.7291C80.3194 39.4166 79.8617 40.0726 79.1748 40.1946L74.7064 40.9881C74.65 40.8689 74.5951 40.7443 74.537 40.6258C74.4962 40.5426 74.4068 40.496 74.3268 40.5102L73.748 40.613C73.669 40.627 73.6148 40.7317 73.6455 40.8164C73.7882 41.1942 73.9484 41.5874 74.1714 41.9258C74.2063 41.9787 74.2721 41.9988 74.3288 41.9887L79.3355 41.0996C80.522 40.8889 81.3123 39.7562 81.1013 38.5685C80.8904 37.3809 79.7582 36.5882 78.5718 36.7989Z" fill="#2B2727"/>
</g>
<rect x="19" y="87" width="35" height="25" rx="6" fill="#F9FAFC" stroke="#0057F2" stroke-width="3" stroke-linecap="round" stroke-linejoin="round"/>
<path d="M27 105V101.315M33 105V96.2506M39 105V99.0639M45 105V94" stroke="#0057F2" stroke-width="2" stroke-linecap="round" stroke-linejoin="round"/>
<path d="M65 87C65 85.3431 66.3431 84 68 84H111V90H68C66.3431 90 65 88.6569 65 87Z" fill="#F9FAFC" stroke="#2B2727" stroke-width="3"/>
<path d="M66 64.0002H72V85.0002C72 86.6571 70.6569 88.0002 69 88.0002C67.3431 88.0002 66 86.6571 66 85.0002V64.0002Z" fill="#F9FAFC" stroke="#2B2727" stroke-width="3"/>
<circle cx="68.5" cy="64.5002" r="7.5" fill="#F9FAFC" stroke="#2B2727" stroke-width="3"/>
<circle cx="69" cy="87" r="6" fill="#F9FAFC" stroke="#2B2727" stroke-width="3"/>
<path d="M103 81.4C103 79.1598 103 78.0397 103.436 77.184C103.819 76.4314 104.431 75.8195 105.184 75.436C106.04 75 107.16 75 109.4 75H111.4C111.96 75 112.24 75 112.454 75.109C112.642 75.2049 112.795 75.3578 112.891 75.546C113 75.7599 113 76.0399 113 76.6V100.4C113 100.96 113 101.24 112.891 101.454C112.795 101.642 112.642 101.795 112.454 101.891C112.24 102 111.96 102 111.4 102H109.4C107.16 102 106.04 102 105.184 101.564C104.431 101.181 103.819 100.569 103.436 99.816C103 98.9603 103 97.8402 103 95.6V81.4Z" fill="#F9FAFC" stroke="#2B2727" stroke-width="3"/>
<path d="M19.9205 58.923C19.6768 57.5511 19.5549 56.8651 19.538 56.2752C19.4374 52.7529 21.6533 49.5794 24.9947 48.4606C25.5543 48.2732 26.2403 48.1514 27.6122 47.9076L33.1646 46.9211L36.4883 65.6282L30.9359 66.6147C29.5639 66.8584 28.878 66.9803 28.2881 66.9971C24.7657 67.0978 21.5923 64.8819 20.4735 61.5404C20.2861 60.9809 20.1643 60.2949 19.9205 58.923Z" fill="#F9FAFC" stroke="#2B2727" stroke-width="3"/>
<path d="M27.9246 51.5241C27.3367 48.2156 27.0428 46.5614 27.4622 45.1833C27.8311 43.9711 28.5742 42.9068 29.5852 42.1429C30.7345 41.2745 32.3887 40.9806 35.6972 40.3928L77.8373 32.9058C81.1458 32.318 82.8 32.0241 84.1781 32.4434C85.3903 32.8123 86.4546 33.5555 87.2185 34.5664C88.0868 35.7157 88.3808 37.3699 88.9686 40.6784L90.8578 51.3119C91.4457 54.6204 91.7396 56.2747 91.3202 57.6527C90.9513 58.8649 90.2082 59.9292 89.1972 60.6931C88.0479 61.5615 86.3937 61.8554 83.0852 62.4432L40.9451 69.9302C37.6366 70.5181 35.9824 70.812 34.6043 70.3926C33.3921 70.0237 32.3278 69.2806 31.5639 68.2696C30.6956 67.1203 30.4016 65.4661 29.8138 62.1576L27.9246 51.5241Z" fill="#F9FAFC" stroke="#2B2727" stroke-width="3"/>
<path d="M17.6496 41.6102C16.7483 39.683 16.2976 38.7194 16.3924 37.8787C16.4754 37.1421 16.8282 36.4623 17.3828 35.9704C18.0157 35.409 19.0631 35.2229 21.1579 34.8507L83.133 23.8396C84.7872 23.5457 85.6144 23.3988 86.3034 23.6085C86.9095 23.7929 87.4417 24.1645 87.8236 24.6699C88.2578 25.2446 88.4047 26.0717 88.6986 27.726L90.343 36.981C90.6369 38.6353 90.7839 39.4624 90.5742 40.1514C90.3897 40.7575 90.0182 41.2897 89.5127 41.6716C88.938 42.1058 88.1109 42.2528 86.4567 42.5467L26.9598 53.1175C25.6613 53.3482 25.012 53.4635 24.4292 53.3351C23.9148 53.2217 23.4394 52.975 23.0507 52.6196C22.6102 52.2169 22.3308 51.6196 21.7721 50.425L17.6496 41.6102Z" fill="#F9FAFC" stroke="#2B2727" stroke-width="3"/>
<g clip-path="url(#clip2_59_24227)">
<path d="M72.2704 31.1017C70.3005 31.4515 68.9419 33.2239 69.0571 35.1752C69.0629 35.2737 69.0717 35.3724 69.0845 35.4715C69.0962 35.5608 69.181 35.6199 69.2694 35.6042L69.8532 35.5005C69.9417 35.4848 70.0002 35.4002 69.9901 35.3107C69.9789 35.211 69.9732 35.1117 69.9711 35.0129C69.9387 33.5644 70.9617 32.2676 72.4311 32.0066C74.0547 31.7183 75.6042 32.8028 75.8928 34.428C76.1814 36.0531 75.0998 37.6034 73.4762 37.8918L69.0658 38.675C68.9401 38.6973 68.8887 38.849 68.9791 38.9396C69.1685 39.1296 69.3709 39.306 69.5848 39.4666C69.6203 39.4932 69.6652 39.5035 69.7088 39.4958L73.6372 38.7981C75.7603 38.4211 77.1757 36.3924 76.7983 34.2672C76.4209 32.142 74.3935 30.7247 72.2704 31.1017Z" fill="#2B2727"/>
<path d="M71.9715 29.4186C70.2503 29.7243 68.8516 30.7821 68.0543 32.195C67.4985 33.1798 67.25 34.3423 67.3559 35.4686C67.3561 35.4715 67.3556 35.4743 67.3559 35.4773C67.3653 35.5756 67.3754 35.674 67.3887 35.7726C67.4008 35.8619 67.4854 35.921 67.5739 35.9053L68.1577 35.8016C68.2461 35.7859 68.3048 35.7013 68.2923 35.6122C68.2784 35.5135 68.2678 35.4151 68.26 35.3167C68.0704 32.9263 69.7223 30.737 72.1297 30.3095C74.69 29.8548 77.1346 31.5639 77.5897 34.1266C78.0448 36.6894 76.3381 39.1357 73.7779 39.5903L71.2593 40.0376C71.1004 40.0658 71.0793 40.2737 71.233 40.3231C71.9936 40.5678 72.8166 40.6511 73.6555 40.5456L73.9386 40.4953C76.8072 39.9859 78.7778 37.3848 78.5649 34.538C78.551 34.3529 78.529 34.1668 78.4963 33.9802C78.4623 33.7887 78.4179 33.6004 78.3659 33.4174C77.5855 30.6713 74.8401 28.9092 71.9715 29.4186Z" fill="#2B2727"/>
<path d="M72.5718 32.7989C71.5408 32.982 70.811 33.8634 70.7751 34.8701C70.7716 34.9692 70.7735 35.0692 70.783 35.17C70.7914 35.2597 70.8765 35.3188 70.9649 35.3031L71.5501 35.1992C71.6386 35.1835 71.6964 35.0987 71.6927 35.0088C71.6884 34.9045 71.6975 34.802 71.7173 34.7027C71.8161 34.2072 72.2056 33.7988 72.7328 33.7053C73.4197 33.5833 74.0751 34.0415 74.1973 34.7291C74.3194 35.4166 73.8617 36.0726 73.1748 36.1946L68.7064 36.9881C68.65 36.8689 68.5951 36.7443 68.537 36.6258C68.4962 36.5426 68.4068 36.496 68.3268 36.5102L67.748 36.613C67.669 36.627 67.6148 36.7317 67.6455 36.8164C67.7882 37.1942 67.9484 37.5874 68.1714 37.9258C68.2063 37.9787 68.2721 37.9988 68.3288 37.9887L73.3355 37.0996C74.522 36.8889 75.3123 35.7562 75.1013 34.5685C74.8904 33.3809 73.7582 32.5882 72.5718 32.7989Z" fill="#2B2727"/>
</g>
<rect x="13" y="83" width="35" height="25" rx="6" fill="#F9FAFC" stroke="#2B2727" stroke-width="3" stroke-linecap="round" stroke-linejoin="round"/>
<path d="M21 101V97.3146M27 101V92.2506M33 101V95.0639M39 101V90" stroke="#2B2727" stroke-width="2" stroke-linecap="round" stroke-linejoin="round"/>
</g>
<defs>
<clipPath id="clip0_59_24227">
<rect width="128" height="128" fill="white"/>
</clipPath>
<clipPath id="clip1_59_24227">
<rect width="12" height="12" fill="white" transform="translate(72 34.0982) rotate(-10.07)"/>
</clipPath>
<clipPath id="clip2_59_24227">
<rect width="12" height="12" fill="white" transform="translate(66 30.0982) rotate(-10.07)"/>
</clipPath>
</defs>
</svg>
