<svg width="128" height="128" viewBox="0 0 128 128" fill="none" xmlns="http://www.w3.org/2000/svg">
<g clip-path="url(#clip0_9_114)">
<circle cx="71.1495" cy="42.3793" r="24.3793" fill="#F9FAFC" stroke="#0057F2" stroke-width="3" stroke-linecap="round" stroke-linejoin="round"/>
<path d="M34 91.4023C34 80.3566 42.9543 71.4023 54 71.4023H85.977C97.0227 71.4023 105.977 80.3566 105.977 91.4023V103.839C105.977 111.571 99.709 117.839 91.977 117.839H48C40.268 117.839 34 111.571 34 103.839V91.4023Z" fill="#F9FAFC" stroke="#0057F2" stroke-width="3" stroke-linecap="round" stroke-linejoin="round"/>
<path d="M58.335 93.266C58.335 90.0602 60.9338 87.4614 64.1396 87.4614H75.7488C78.9546 87.4614 81.5534 90.0602 81.5534 93.266V111.841C81.5534 115.047 78.9546 117.645 75.7488 117.645H64.1396C60.9338 117.645 58.335 115.047 58.335 111.841V93.266Z" fill="#F9FAFC"/>
<path d="M49.742 69.4672C48.0762 70.4289 47.5055 72.5589 48.4672 74.2247L58.5513 91.6909C59.2378 89.2505 61.4798 87.4614 64.1396 87.4614L64.1525 87.4614L54.4995 70.742C53.5378 69.0762 51.4078 68.5054 49.742 69.4672Z" fill="#F9FAFC"/>
<path d="M43.2874 105.649L46.1897 102.747H49.092M49.092 102.747H58.335M49.092 102.747V91.1379M64.1396 87.4614C60.9338 87.4614 58.335 90.0602 58.335 93.266V111.841C58.335 115.047 60.9338 117.645 64.1396 117.645H75.7488C78.9546 117.645 81.5534 115.047 81.5534 111.841V93.266C81.5534 90.0602 78.9546 87.4614 75.7488 87.4614H64.1396ZM64.1396 87.4614C61.4798 87.4614 59.2378 89.2505 58.5513 91.6909L48.4672 74.2247C47.5055 72.5589 48.0762 70.4289 49.742 69.4672C51.4078 68.5054 53.5378 69.0762 54.4995 70.742L64.1525 87.4614L64.1396 87.4614Z" stroke="#0057F2" stroke-width="3" stroke-linecap="round" stroke-linejoin="round"/>
<path d="M74.6322 107.391C74.6322 104.185 77.231 101.586 80.4368 101.586H82.7586C85.9644 101.586 88.5632 104.185 88.5632 107.391C88.5632 109.658 88.5632 110.929 88.5632 113.195C88.5632 116.401 85.9644 119 82.7586 119H80.4368C77.231 119 74.6322 116.401 74.6322 113.195V107.391Z" fill="#F9FAFC"/>
<path d="M97.2701 105.649L94.3678 102.747H91.4655M91.4655 102.747H86.242M91.4655 102.747V91.1379M80.4368 119H82.7586C85.9644 119 88.5632 116.401 88.5632 113.195C88.5632 110.929 88.5632 109.658 88.5632 107.391C88.5632 104.185 85.9644 101.586 82.7586 101.586H80.4368C77.231 101.586 74.6322 104.185 74.6322 107.391V113.195C74.6322 116.401 77.231 119 80.4368 119Z" stroke="#0057F2" stroke-width="3" stroke-linecap="round" stroke-linejoin="round"/>
<circle cx="65.1495" cy="38.3793" r="24.3793" fill="#F9FAFC" stroke="#2B2727" stroke-width="3" stroke-linecap="round" stroke-linejoin="round"/>
<path d="M28 87.4023C28 76.3566 36.9543 67.4023 48 67.4023H79.977C91.0227 67.4023 99.977 76.3566 99.977 87.4023V99.8391C99.977 107.571 93.709 113.839 85.977 113.839H42C34.268 113.839 28 107.571 28 99.8391V87.4023Z" fill="#F9FAFC" stroke="#2B2727" stroke-width="3" stroke-linecap="round" stroke-linejoin="round"/>
<path d="M52.335 89.266C52.335 86.0602 54.9338 83.4614 58.1396 83.4614H69.7488C72.9546 83.4614 75.5534 86.0602 75.5534 89.266V107.841C75.5534 111.047 72.9546 113.645 69.7488 113.645H58.1396C54.9338 113.645 52.335 111.047 52.335 107.841V89.266Z" fill="#F9FAFC"/>
<path d="M43.742 65.4672C42.0762 66.4289 41.5055 68.5589 42.4672 70.2247L52.5513 87.6909C53.2378 85.2505 55.4798 83.4614 58.1396 83.4614L58.1525 83.4614L48.4995 66.742C47.5378 65.0762 45.4078 64.5054 43.742 65.4672Z" fill="#F9FAFC"/>
<path d="M37.2874 101.649L40.1897 98.7471H43.092M43.092 98.7471H52.335M43.092 98.7471V87.1379M58.1396 83.4614C54.9338 83.4614 52.335 86.0602 52.335 89.266V107.841C52.335 111.047 54.9338 113.645 58.1396 113.645H69.7488C72.9546 113.645 75.5534 111.047 75.5534 107.841V89.266C75.5534 86.0602 72.9546 83.4614 69.7488 83.4614H58.1396ZM58.1396 83.4614C55.4798 83.4614 53.2378 85.2505 52.5513 87.6909L42.4672 70.2247C41.5055 68.5589 42.0762 66.4289 43.742 65.4672C45.4078 64.5054 47.5378 65.0762 48.4995 66.742L58.1525 83.4614L58.1396 83.4614Z" stroke="#2B2727" stroke-width="3" stroke-linecap="round" stroke-linejoin="round"/>
<path d="M68.6322 103.391C68.6322 100.185 71.231 97.5862 74.4368 97.5862H76.7586C79.9644 97.5862 82.5632 100.185 82.5632 103.391C82.5632 105.658 82.5632 106.929 82.5632 109.195C82.5632 112.401 79.9644 115 76.7586 115H74.4368C71.231 115 68.6322 112.401 68.6322 109.195V103.391Z" fill="#F9FAFC"/>
<path d="M91.2701 101.649L88.3678 98.7471H85.4655M85.4655 98.7471H80.242M85.4655 98.7471V87.1379M74.4368 115H76.7586C79.9644 115 82.5632 112.401 82.5632 109.195C82.5632 106.929 82.5632 105.658 82.5632 103.391C82.5632 100.185 79.9644 97.5862 76.7586 97.5862H74.4368C71.231 97.5862 68.6322 100.185 68.6322 103.391V109.195C68.6322 112.401 71.231 115 74.4368 115Z" stroke="#2B2727" stroke-width="3" stroke-linecap="round" stroke-linejoin="round"/>
</g>
<defs>
<clipPath id="clip0_9_114">
<rect width="128" height="128" fill="white"/>
</clipPath>
</defs>
</svg>
