<svg width="128" height="128" viewBox="0 0 128 128" fill="none" xmlns="http://www.w3.org/2000/svg">
<g clip-path="url(#clip0_461_66057)">
<path d="M38 53.8136L38 45.4658C38 42.667 38 41.2676 38.545 40.1981C39.0243 39.2573 39.7892 38.4924 40.73 38.013C41.7996 37.468 43.1997 37.468 46 37.468H60.0303C62.8292 37.468 64.2287 37.468 65.2979 38.0126C66.2385 38.4917 67.0033 39.2561 67.4829 40.1964C68.028 41.2653 68.0288 42.6648 68.0303 45.4637L68.0349 53.8102C68.0358 55.4555 68.0362 56.2781 67.7357 57.1061C67.4984 57.7599 66.977 58.5545 66.4717 59.0325C65.8318 59.6377 65.2061 59.9088 63.9548 60.451C60.978 61.7408 57.116 62.9714 53.3021 62.9714C49.4288 62.9714 45.2705 61.7022 42.1084 60.3908L42.1083 60.3908C40.8762 59.8798 40.2602 59.6244 39.6049 59.0183C39.0946 58.5463 38.5494 57.7299 38.3088 57.0777C38 56.2402 38 55.4314 38 53.8136Z" fill="#F9FAFC" stroke="#0057F2" stroke-width="3" stroke-linecap="round" stroke-linejoin="round"/>
<rect x="41.4005" y="59.6755" width="23.3668" height="16.1428" rx="5" fill="#F9FAFC" stroke="#0057F2" stroke-width="3" stroke-linecap="round" stroke-linejoin="round"/>
<path d="M68.059 40.3078C68.059 48.7621 61.3301 55.6157 53.0295 55.6157C44.7289 55.6157 38 48.7621 38 40.3078C38 31.8536 44.7289 25 53.0295 25C61.3301 25 68.059 31.8536 68.059 40.3078Z" fill="#F9FAFC"/>
<path d="M68.059 40.3078C68.059 48.7621 61.3301 55.6157 53.0295 55.6157C44.7289 55.6157 38 48.7621 38 40.3078M68.059 40.3078C68.059 31.8536 61.3301 25 53.0295 25C44.7289 25 38 31.8536 38 40.3078M68.059 40.3078C64.5379 40.7257 60.3863 40.9756 56.4191 39.2753C52.6529 37.6612 49.5732 33.7685 49.133 32.2365C48.6877 33.931 47.5057 36.2096 45.5704 37.7438C42.8985 39.8619 39.336 40.3078 38 40.3078" stroke="#0057F2" stroke-width="3" stroke-linecap="round" stroke-linejoin="round"/>
<ellipse cx="86.3547" cy="40.3225" rx="15.0439" ry="15.3225" fill="#F9FAFC" stroke="#0057F2" stroke-width="3" stroke-linecap="round" stroke-linejoin="round"/>
<rect x="73.5394" y="59.7115" width="25.0732" height="16.1583" rx="5" fill="#F9FAFC" stroke="#0057F2" stroke-width="3" stroke-linecap="round" stroke-linejoin="round"/>
<path d="M87.8598 61L84.4011 69.5535C84.2562 69.9119 84.1837 70.0911 84.1782 70.2697C84.1734 70.4276 84.206 70.5843 84.2734 70.7271C84.3497 70.8887 84.4876 71.0241 84.7635 71.295L85.379 71.8994C85.7721 72.2853 85.9686 72.4783 86.1945 72.5508C86.3932 72.6145 86.6068 72.6145 86.8055 72.5508C87.0313 72.4783 87.2279 72.2853 87.6209 71.8994L88.2365 71.295C88.5124 71.0241 88.6503 70.8887 88.7266 70.7271C88.794 70.5843 88.8266 70.4276 88.8218 70.2697C88.8163 70.0911 88.7438 69.9119 88.5989 69.5535L85.1402 61" stroke="#0057F2" stroke-width="2" stroke-linecap="round" stroke-linejoin="round"/>
<path d="M101.5 104.5L73.0001 115.001C71.5001 115.5 69.5001 115.5 67.5001 115L48.5001 109.5C45.1324 108.167 43.0001 106.5 43.0001 103.5L43.0001 108.5C43.0001 109.5 42.0001 110.5 40.5001 110.5L35.0001 110.5C33.0001 110.5 32.0001 109.5 32.0001 107.5L32.0001 85.5C32.0001 84 33.5001 83.001 35.0001 83C36.5001 82.999 39.5001 83.0019 40.5001 83.001C41.5001 83 43.0001 84 43.0001 85.501L43.0001 88.5C43.0001 84.501 49 83.5001 53.0001 83.9992C56.6911 84.4598 58.5453 85.2837 60.1662 86.9273C61.1052 87.8795 62.2019 88.6873 63.4941 89.0319L76.5001 92.5002C76.9277 92.5857 77.3151 92.759 77.6603 93L90.5001 88.5C92.5001 88 95.5001 88.5 96.5001 90.5C97.5001 92.5 97.0001 95.366 95.2672 96L98.0001 95.0002C101 94.0006 103.2 96.0006 104 98.0006C105 100.501 104 103.501 101.5 104.5Z" fill="#F9FAFC"/>
<path d="M73.5001 102.5L64.5001 100.501M73.5001 102.5C76.5001 103 79.0001 101 79.5001 99.0002C80.0182 96.9277 79.3337 94.1682 77.6603 93M73.5001 102.5C74.9366 102.756 75.7491 102.879 77.5001 102.5L95.2672 96M43.0001 88.5C43.0001 84.501 49 83.5001 53.0001 83.9992C56.6911 84.4598 58.5453 85.2837 60.1662 86.9273C61.1052 87.8795 62.2019 88.6873 63.4941 89.0319L76.5001 92.5002C76.9277 92.5857 77.3151 92.759 77.6603 93M43.0001 88.5L43.0001 103.5M43.0001 88.5C43.0001 88.5 43.0001 87.0019 43.0001 85.501C43.0001 84 41.5001 83 40.5001 83.001C39.5001 83.0019 36.5001 82.999 35.0001 83C33.5001 83.001 32.0001 84 32.0001 85.5C32.0001 87 32.0001 105.5 32.0001 107.5C32.0001 109.5 33.0001 110.5 35.0001 110.5C37.0001 110.5 39.0001 110.5 40.5001 110.5C42.0001 110.5 43.0001 109.5 43.0001 108.5C43.0001 107.5 43.0001 103.5 43.0001 103.5M43.0001 103.5C43.0001 106.5 45.1324 108.167 48.5001 109.5L67.5001 115C69.5001 115.5 71.5001 115.5 73.0001 115.001L101.5 104.5C104 103.501 105 100.501 104 98.0006C103.2 96.0006 101 94.0006 98.0001 95.0002L95.2672 96M95.2672 96C97.0001 95.366 97.5001 92.5 96.5001 90.5C95.5001 88.5 92.5001 88 90.5001 88.5L77.6603 93" stroke="#0057F2" stroke-width="3" stroke-linecap="round" stroke-linejoin="round"/>
<path d="M32 49.8136L32 41.4658C32 38.667 32 37.2676 32.545 36.1981C33.0243 35.2573 33.7892 34.4924 34.73 34.013C35.7996 33.468 37.1997 33.468 40 33.468H54.0303C56.8292 33.468 58.2287 33.468 59.2979 34.0126C60.2385 34.4917 61.0033 35.2561 61.4829 36.1964C62.028 37.2653 62.0288 38.6648 62.0303 41.4637L62.0349 49.8102C62.0358 51.4555 62.0362 52.2781 61.7357 53.1061C61.4984 53.7599 60.977 54.5545 60.4717 55.0325C59.8318 55.6377 59.2061 55.9088 57.9548 56.451C54.978 57.7408 51.116 58.9714 47.3021 58.9714C43.4288 58.9714 39.2705 57.7022 36.1084 56.3908L36.1083 56.3908C34.8762 55.8798 34.2602 55.6244 33.6049 55.0183C33.0946 54.5463 32.5494 53.7299 32.3088 53.0777C32 52.2402 32 51.4314 32 49.8136Z" fill="#F9FAFC" stroke="#2B2727" stroke-width="3" stroke-linecap="round" stroke-linejoin="round"/>
<rect x="35.4005" y="55.6755" width="23.3668" height="16.1428" rx="5" fill="#F9FAFC" stroke="#2B2727" stroke-width="3" stroke-linecap="round" stroke-linejoin="round"/>
<path d="M62.059 36.3078C62.059 44.7621 55.3301 51.6157 47.0295 51.6157C38.7289 51.6157 32 44.7621 32 36.3078C32 27.8536 38.7289 21 47.0295 21C55.3301 21 62.059 27.8536 62.059 36.3078Z" fill="#F9FAFC"/>
<path d="M62.059 36.3078C62.059 44.7621 55.3301 51.6157 47.0295 51.6157C38.7289 51.6157 32 44.7621 32 36.3078M62.059 36.3078C62.059 27.8536 55.3301 21 47.0295 21C38.7289 21 32 27.8536 32 36.3078M62.059 36.3078C58.5379 36.7257 54.3863 36.9756 50.4191 35.2753C46.6529 33.6612 43.5732 29.7685 43.133 28.2365C42.6877 29.931 41.5057 32.2096 39.5704 33.7438C36.8985 35.8619 33.336 36.3078 32 36.3078" stroke="#2B2727" stroke-width="3" stroke-linecap="round" stroke-linejoin="round"/>
<ellipse cx="80.3547" cy="36.3225" rx="15.0439" ry="15.3225" fill="#F9FAFC" stroke="#2B2727" stroke-width="3" stroke-linecap="round" stroke-linejoin="round"/>
<rect x="67.5394" y="55.7115" width="25.0732" height="16.1583" rx="5" fill="#F9FAFC" stroke="#2B2727" stroke-width="3" stroke-linecap="round" stroke-linejoin="round"/>
<path d="M81.8598 57L78.4011 65.5535C78.2562 65.9119 78.1837 66.0911 78.1782 66.2697C78.1734 66.4276 78.206 66.5843 78.2734 66.7271C78.3497 66.8887 78.4876 67.0241 78.7635 67.295L79.379 67.8994C79.7721 68.2853 79.9686 68.4783 80.1945 68.5508C80.3932 68.6145 80.6068 68.6145 80.8055 68.5508C81.0313 68.4783 81.2279 68.2853 81.6209 67.8994L82.2365 67.295C82.5124 67.0241 82.6503 66.8887 82.7266 66.7271C82.794 66.5843 82.8266 66.4276 82.8218 66.2697C82.8163 66.0911 82.7438 65.9119 82.5989 65.5535L79.1402 57" stroke="#2B2727" stroke-width="2" stroke-linecap="round" stroke-linejoin="round"/>
<path d="M95.5002 100.5L67.0001 111.001C65.5001 111.5 63.5001 111.5 61.5001 111L42.5001 105.5C39.1324 104.167 37.0001 102.5 37.0001 99.5002L37.0001 104.5C37.0001 105.5 36.0001 106.5 34.5001 106.5L29.0001 106.5C27.0001 106.5 26.0001 105.5 26.0001 103.5L26.0001 81.5C26.0001 80 27.5001 79.001 29.0001 79C30.5001 78.999 33.5001 79.0019 34.5001 79.001C35.5001 79 37.0001 80 37.0001 81.501L37.0001 84.5C37.0001 80.501 43 79.5001 47.0001 79.9992C50.6911 80.4598 52.5453 81.2837 54.1662 82.9273C55.1052 83.8795 56.2019 84.6873 57.4941 85.0319L70.5001 88.5002C70.9277 88.5857 71.3151 88.759 71.6603 89L84.5001 84.5C86.5001 84 89.5001 84.5 90.5001 86.5C91.5001 88.5 91.0001 91.366 89.2672 92L92.0001 91.0002C95.0001 90.0006 97.2001 92.0006 98.0001 94.0006C99.0001 96.501 98 99.5006 95.5002 100.5Z" fill="#F9FAFC"/>
<path d="M67.5001 98.5001L58.5001 96.5006M67.5001 98.5001C70.5001 99.0001 73.0001 97.0001 73.5001 95.0002C74.0182 92.9277 73.3337 90.1682 71.6603 89M67.5001 98.5001C68.9366 98.7561 69.7491 98.8794 71.5001 98.5001L89.2672 92M37.0001 84.5C37.0001 80.501 43 79.5001 47.0001 79.9992C50.6911 80.4598 52.5453 81.2837 54.1662 82.9273C55.1052 83.8795 56.2019 84.6873 57.4941 85.0319L70.5001 88.5002C70.9277 88.5857 71.3151 88.759 71.6603 89M37.0001 84.5L37.0001 99.5002M37.0001 84.5C37.0001 84.5 37.0001 83.0019 37.0001 81.501C37.0001 80 35.5001 79 34.5001 79.001C33.5001 79.0019 30.5001 78.999 29.0001 79C27.5001 79.001 26.0001 80 26.0001 81.5C26.0001 83 26.0001 101.5 26.0001 103.5C26.0001 105.5 27.0001 106.5 29.0001 106.5C31.0001 106.5 33.0001 106.5 34.5001 106.5C36.0001 106.5 37.0001 105.5 37.0001 104.5C37.0001 103.5 37.0001 99.5002 37.0001 99.5002M37.0001 99.5002C37.0001 102.5 39.1324 104.167 42.5001 105.5L61.5001 111C63.5001 111.5 65.5001 111.5 67.0001 111.001L95.5002 100.5C98 99.5006 99.0001 96.501 98.0001 94.0006C97.2001 92.0006 95.0001 90.0006 92.0001 91.0002L89.2672 92M89.2672 92C91.0001 91.366 91.5001 88.5 90.5001 86.5C89.5001 84.5 86.5001 84 84.5001 84.5L71.6603 89" stroke="#2B2727" stroke-width="3" stroke-linecap="round" stroke-linejoin="round"/>
</g>
<defs>
<clipPath id="clip0_461_66057">
<rect width="128" height="128" fill="white"/>
</clipPath>
</defs>
</svg>
