<svg width="128" height="128" viewBox="0 0 128 128" fill="none" xmlns="http://www.w3.org/2000/svg">
<g clip-path="url(#clip0_500_41263)">
<rect x="23.5" y="28.5" width="85" height="67" rx="10.5" fill="#F9FAFC" stroke="#0057F2" stroke-width="3"/>
<path d="M34.917 42.5H53.0003M45 52.5H63.0833M67 62.5H85.0833M37.667 72.5H55.7503M58.75 79.5H76.8333M81.667 87.5H95.167" stroke="#0057F2" stroke-width="3" stroke-linecap="round"/>
<path d="M31.5 37V88M41.5 37V88M51.5 37V88M61.5 37V88M71.5 37V88M81.5 37V88M91.5 37V88M101.5 37V88" stroke="#2B2727" stroke-width="0.5" stroke-linecap="round"/>
<path d="M102 37.8574L31 37.8574M102 47.7146L31 47.7146M102 57.5717L31 57.5717M102 67.4288L31 67.4288M102 77.286L31 77.286M102 87.1431L31 87.1431" stroke="#2B2727" stroke-width="0.5" stroke-linecap="round"/>
<rect x="48.5" y="75.5" width="68.7608" height="31.7931" rx="4.5" fill="#F9FAFC" stroke="#0057F2" stroke-width="3"/>
<rect x="54.0234" y="81.0239" width="4.43642" height="4.43642" rx="1.5" stroke="#0057F2"/>
<rect x="61.6346" y="81.0239" width="4.43642" height="4.43642" rx="1.5" stroke="#0057F2"/>
<rect x="69.2455" y="81.0239" width="4.43642" height="4.43642" rx="1.5" stroke="#0057F2"/>
<rect x="76.8566" y="81.0239" width="4.43642" height="4.43642" rx="1.5" stroke="#0057F2"/>
<rect x="84.4675" y="81.0239" width="4.43642" height="4.43642" rx="1.5" stroke="#0057F2"/>
<rect x="92.0786" y="81.0239" width="4.43642" height="4.43642" rx="1.5" stroke="#0057F2"/>
<rect x="99.6893" y="81.0239" width="4.43642" height="4.43642" rx="1.5" stroke="#0057F2"/>
<rect x="107.3" y="81.0239" width="4.43642" height="4.43642" rx="1.5" stroke="#0057F2"/>
<rect x="54.0238" y="88.635" width="4.43642" height="4.43642" rx="1.5" stroke="#0057F2"/>
<rect x="61.6344" y="88.6348" width="4.43642" height="4.43642" rx="1.5" stroke="#0057F2"/>
<rect x="69.2455" y="88.635" width="4.43642" height="4.43642" rx="1.5" stroke="#0057F2"/>
<rect x="76.8566" y="88.635" width="4.43642" height="4.43642" rx="1.5" stroke="#0057F2"/>
<rect x="84.4674" y="88.635" width="4.43642" height="4.43642" rx="1.5" stroke="#0057F2"/>
<rect x="92.0785" y="88.6348" width="4.43642" height="4.43642" rx="1.5" stroke="#0057F2"/>
<rect x="99.6897" y="88.635" width="4.43642" height="4.43642" rx="1.5" stroke="#0057F2"/>
<rect x="107.3" y="88.6348" width="4.43642" height="4.43642" rx="1.5" stroke="#0057F2"/>
<rect x="54.0234" y="96.2458" width="4.43642" height="4.43642" rx="1.5" stroke="#0057F2"/>
<rect x="61.6346" y="96.2458" width="42.4914" height="4.43642" rx="1.5" stroke="#0057F2"/>
<rect x="107.3" y="96.2456" width="4.43642" height="4.43642" rx="1.5" stroke="#0057F2"/>
<rect x="17.5" y="24.5" width="85" height="67" rx="10.5" fill="#F9FAFC" stroke="#2B2727" stroke-width="3"/>
<path d="M28.917 38.5H47.0003M39 48.5H57.0833M61 58.5H79.0833M31.667 68.5H49.7503M52.75 75.5H70.8333M75.667 83.5H89.167" stroke="#2B2727" stroke-width="3" stroke-linecap="round"/>
<path d="M25.5 33V84M35.5 33V84M45.5 33V84M55.5 33V84M65.5 33V84M75.5 33V84M85.5 33V84M95.5 33V84" stroke="#2B2727" stroke-width="0.5" stroke-linecap="round"/>
<path d="M96 33.8574L25 33.8574M96 43.7146L25 43.7146M96 53.5717L25 53.5717M96 63.4288L25 63.4288M96 73.286L25 73.286M96 83.1431L25 83.1431" stroke="#2B2727" stroke-width="0.5" stroke-linecap="round"/>
<rect x="42.5" y="71.5" width="68.7608" height="31.7931" rx="4.5" fill="#F9FAFC" stroke="#2B2727" stroke-width="3"/>
<rect x="48.0234" y="77.0239" width="4.43642" height="4.43642" rx="1.5" stroke="#2B2727"/>
<rect x="55.6346" y="77.0239" width="4.43642" height="4.43642" rx="1.5" stroke="#2B2727"/>
<rect x="63.2455" y="77.0239" width="4.43642" height="4.43642" rx="1.5" stroke="#2B2727"/>
<rect x="70.8566" y="77.0239" width="4.43642" height="4.43642" rx="1.5" stroke="#2B2727"/>
<rect x="78.4675" y="77.0239" width="4.43642" height="4.43642" rx="1.5" stroke="#2B2727"/>
<rect x="86.0786" y="77.0239" width="4.43642" height="4.43642" rx="1.5" stroke="#2B2727"/>
<rect x="93.6893" y="77.0239" width="4.43642" height="4.43642" rx="1.5" stroke="#2B2727"/>
<rect x="101.3" y="77.0239" width="4.43642" height="4.43642" rx="1.5" stroke="#2B2727"/>
<rect x="48.0238" y="84.635" width="4.43642" height="4.43642" rx="1.5" stroke="#2B2727"/>
<rect x="55.6344" y="84.6348" width="4.43642" height="4.43642" rx="1.5" stroke="#2B2727"/>
<rect x="63.2455" y="84.635" width="4.43642" height="4.43642" rx="1.5" stroke="#2B2727"/>
<rect x="70.8566" y="84.635" width="4.43642" height="4.43642" rx="1.5" stroke="#2B2727"/>
<rect x="78.4674" y="84.635" width="4.43642" height="4.43642" rx="1.5" stroke="#2B2727"/>
<rect x="86.0785" y="84.6348" width="4.43642" height="4.43642" rx="1.5" stroke="#2B2727"/>
<rect x="93.6897" y="84.635" width="4.43642" height="4.43642" rx="1.5" stroke="#2B2727"/>
<rect x="101.3" y="84.6348" width="4.43642" height="4.43642" rx="1.5" stroke="#2B2727"/>
<rect x="48.0234" y="92.2458" width="4.43642" height="4.43642" rx="1.5" stroke="#2B2727"/>
<rect x="55.6346" y="92.2458" width="42.4914" height="4.43642" rx="1.5" stroke="#2B2727"/>
<rect x="101.3" y="92.2456" width="4.43642" height="4.43642" rx="1.5" stroke="#2B2727"/>
</g>
<defs>
<clipPath id="clip0_500_41263">
<rect width="128" height="128" fill="white"/>
</clipPath>
</defs>
</svg>
