<svg width="128" height="128" viewBox="0 0 128 128" fill="none" xmlns="http://www.w3.org/2000/svg">
<g clip-path="url(#clip0_401_69515)">
<path d="M37.9995 40.5C63.3475 36.415 77.3552 36.4482 101.999 40.5112" stroke="#0057F2" stroke-width="3"/>
<path d="M48 109.6C48 106.24 48 104.56 48.654 103.276C49.2292 102.147 50.1471 101.229 51.2761 100.654C52.5595 100 54.2397 100 57.6 100H82.4C85.7603 100 87.4405 100 88.7239 100.654C89.8529 101.229 90.7708 102.147 91.346 103.276C92 104.56 92 106.24 92 109.6V109.8C92 110.92 92 111.48 91.782 111.908C91.5903 112.284 91.2843 112.59 90.908 112.782C90.4802 113 89.9201 113 88.8 113H51.2C50.0799 113 49.5198 113 49.092 112.782C48.7157 112.59 48.4097 112.284 48.218 111.908C48 111.48 48 110.92 48 109.8V109.6Z" fill="#F9FAFC"/>
<path d="M78 38C78 40.9611 76.3912 43.5465 74 44.9297C72.8233 45.6104 71.4571 46 70 46C68.5429 46 67.1767 45.6104 66 44.9297C63.6088 43.5465 62 40.9611 62 38C62 33.5817 65.5817 30 70 30C74.4183 30 78 33.5817 78 38Z" fill="#F9FAFC"/>
<path d="M72 100C73.1046 100 74 99.1046 74 98V44.9297C72.8233 45.6104 71.4571 46 70 46C68.5429 46 67.1767 45.6104 66 44.9297V98C66 99.1046 66.8954 100 68 100H72Z" fill="#F9FAFC"/>
<path d="M72 30.252V28C72 26.8954 71.1046 26 70 26C68.8954 26 68 26.8954 68 28V30.252C68.6392 30.0875 69.3094 30 70 30C70.6906 30 71.3608 30.0875 72 30.252Z" fill="#F9FAFC"/>
<path d="M68 30.252C68 28.2994 68 29.9526 68 28M68 30.252V28M68 30.252C68.6392 30.0875 69.3094 30 70 30M68 28C68 26.8954 68.8954 26 70 26C71.1046 26 72 26.8954 72 28V30.252C71.3608 30.0875 70.6906 30 70 30M70 30C65.5817 30 62 33.5817 62 38C62 40.9611 63.6088 43.5465 66 44.9297M70 30C74.4183 30 78 33.5817 78 38C78 40.9611 76.3912 43.5465 74 44.9297M74 44.9297V98C74 99.1046 73.1046 100 72 100H68C66.8954 100 66 99.1046 66 98V44.9297M74 44.9297C72.8233 45.6104 71.4571 46 70 46C68.5429 46 67.1767 45.6104 66 44.9297M51.2 113H88.8C89.9201 113 90.4802 113 90.908 112.782C91.2843 112.59 91.5903 112.284 91.782 111.908C92 111.48 92 110.92 92 109.8V109.6C92 106.24 92 104.56 91.346 103.276C90.7708 102.147 89.8529 101.229 88.7239 100.654C87.4405 100 85.7603 100 82.4 100H57.6C54.2397 100 52.5595 100 51.2761 100.654C50.1471 101.229 49.2292 102.147 48.654 103.276C48 104.56 48 106.24 48 109.6V109.8C48 110.92 48 111.48 48.218 111.908C48.4097 112.284 48.7157 112.59 49.092 112.782C49.5198 113 50.0799 113 51.2 113Z" stroke="#0057F2" stroke-width="3"/>
<path d="M52.0057 77.4716H23.4488L37.7273 39.8284L52.0057 77.4716Z" stroke="#0057F2" stroke-width="2" stroke-linecap="round" stroke-linejoin="round"/>
<path d="M22 78C22 81.3137 24.6863 84 28 84H48C51.3137 84 54 81.3137 54 78V75C54 74.4477 53.5523 74 53 74H23C22.4477 74 22 74.4477 22 75V78Z" fill="#F9FAFC"/>
<path d="M42 40C42 42.2091 40.2091 44 38 44C35.7909 44 34 42.2091 34 40C34 37.7909 35.7909 36 38 36C40.2091 36 42 37.7909 42 40Z" fill="#F9FAFC"/>
<path d="M22 78C22 81.3137 24.6863 84 28 84H48C51.3137 84 54 81.3137 54 78V75C54 74.4477 53.5523 74 53 74H23C22.4477 74 22 74.4477 22 75V78Z" stroke="#0057F2" stroke-width="3" stroke-linecap="round" stroke-linejoin="round"/>
<path d="M42 40C42 42.2091 40.2091 44 38 44C35.7909 44 34 42.2091 34 40C34 37.7909 35.7909 36 38 36C40.2091 36 42 37.7909 42 40Z" stroke="#0057F2" stroke-width="3" stroke-linecap="round" stroke-linejoin="round"/>
<path d="M116.006 77.4716H87.4488L101.727 39.8284L116.006 77.4716Z" stroke="#0057F2" stroke-width="2" stroke-linecap="round" stroke-linejoin="round"/>
<path d="M86 78C86 81.3137 88.6863 84 92 84H112C115.314 84 118 81.3137 118 78V75C118 74.4477 117.552 74 117 74H87C86.4477 74 86 74.4477 86 75V78Z" fill="#F9FAFC"/>
<path d="M106 40C106 42.2091 104.209 44 102 44C99.7909 44 98 42.2091 98 40C98 37.7909 99.7909 36 102 36C104.209 36 106 37.7909 106 40Z" fill="#F9FAFC"/>
<path d="M86 78C86 81.3137 88.6863 84 92 84H112C115.314 84 118 81.3137 118 78V75C118 74.4477 117.552 74 117 74H87C86.4477 74 86 74.4477 86 75V78Z" stroke="#0057F2" stroke-width="3" stroke-linecap="round" stroke-linejoin="round"/>
<path d="M106 40C106 42.2091 104.209 44 102 44C99.7909 44 98 42.2091 98 40C98 37.7909 99.7909 36 102 36C104.209 36 106 37.7909 106 40Z" stroke="#0057F2" stroke-width="3" stroke-linecap="round" stroke-linejoin="round"/>
<path d="M31.9995 36.5C57.3475 32.415 71.3552 32.4482 95.9993 36.5112" stroke="#2B2727" stroke-width="3"/>
<path d="M42 105.6C42 102.24 42 100.56 42.654 99.2761C43.2292 98.1471 44.1471 97.2292 45.2761 96.654C46.5595 96 48.2397 96 51.6 96H76.4C79.7603 96 81.4405 96 82.7239 96.654C83.8529 97.2292 84.7708 98.1471 85.346 99.2761C86 100.56 86 102.24 86 105.6V105.8C86 106.92 86 107.48 85.782 107.908C85.5903 108.284 85.2843 108.59 84.908 108.782C84.4802 109 83.9201 109 82.8 109H45.2C44.0799 109 43.5198 109 43.092 108.782C42.7157 108.59 42.4097 108.284 42.218 107.908C42 107.48 42 106.92 42 105.8V105.6Z" fill="#F9FAFC"/>
<path d="M72 34C72 36.9611 70.3912 39.5465 68 40.9297C66.8233 41.6104 65.4571 42 64 42C62.5429 42 61.1767 41.6104 60 40.9297C57.6088 39.5465 56 36.9611 56 34C56 29.5817 59.5817 26 64 26C68.4183 26 72 29.5817 72 34Z" fill="#F9FAFC"/>
<path d="M66 96C67.1046 96 68 95.1046 68 94V40.9297C66.8233 41.6104 65.4571 42 64 42C62.5429 42 61.1767 41.6104 60 40.9297V94C60 95.1046 60.8954 96 62 96H66Z" fill="#F9FAFC"/>
<path d="M66 26.252V24C66 22.8954 65.1046 22 64 22C62.8954 22 62 22.8954 62 24V26.252C62.6392 26.0875 63.3094 26 64 26C64.6906 26 65.3608 26.0875 66 26.252Z" fill="#F9FAFC"/>
<path d="M62 26.252C62 24.2994 62 25.9526 62 24M62 26.252V24M62 26.252C62.6392 26.0875 63.3094 26 64 26M62 24C62 22.8954 62.8954 22 64 22C65.1046 22 66 22.8954 66 24V26.252C65.3608 26.0875 64.6906 26 64 26M64 26C59.5817 26 56 29.5817 56 34C56 36.9611 57.6088 39.5465 60 40.9297M64 26C68.4183 26 72 29.5817 72 34C72 36.9611 70.3912 39.5465 68 40.9297M68 40.9297V94C68 95.1046 67.1046 96 66 96H62C60.8954 96 60 95.1046 60 94V40.9297M68 40.9297C66.8233 41.6104 65.4571 42 64 42C62.5429 42 61.1767 41.6104 60 40.9297M45.2 109H82.8C83.9201 109 84.4802 109 84.908 108.782C85.2843 108.59 85.5903 108.284 85.782 107.908C86 107.48 86 106.92 86 105.8V105.6C86 102.24 86 100.56 85.346 99.2761C84.7708 98.1471 83.8529 97.2292 82.7239 96.654C81.4405 96 79.7603 96 76.4 96H51.6C48.2397 96 46.5595 96 45.2761 96.654C44.1471 97.2292 43.2292 98.1471 42.654 99.2761C42 100.56 42 102.24 42 105.6V105.8C42 106.92 42 107.48 42.218 107.908C42.4097 108.284 42.7157 108.59 43.092 108.782C43.5198 109 44.0799 109 45.2 109Z" stroke="#2B2727" stroke-width="3"/>
<path d="M46.0057 73.4716H17.4488L31.7273 35.8284L46.0057 73.4716Z" stroke="#2B2727" stroke-width="2" stroke-linecap="round" stroke-linejoin="round"/>
<path d="M16 74C16 77.3137 18.6863 80 22 80H42C45.3137 80 48 77.3137 48 74V71C48 70.4477 47.5523 70 47 70H17C16.4477 70 16 70.4477 16 71V74Z" fill="#F9FAFC"/>
<path d="M36 36C36 38.2091 34.2091 40 32 40C29.7909 40 28 38.2091 28 36C28 33.7909 29.7909 32 32 32C34.2091 32 36 33.7909 36 36Z" fill="#F9FAFC"/>
<path d="M16 74C16 77.3137 18.6863 80 22 80H42C45.3137 80 48 77.3137 48 74V71C48 70.4477 47.5523 70 47 70H17C16.4477 70 16 70.4477 16 71V74Z" stroke="#2B2727" stroke-width="3" stroke-linecap="round" stroke-linejoin="round"/>
<path d="M36 36C36 38.2091 34.2091 40 32 40C29.7909 40 28 38.2091 28 36C28 33.7909 29.7909 32 32 32C34.2091 32 36 33.7909 36 36Z" stroke="#2B2727" stroke-width="3" stroke-linecap="round" stroke-linejoin="round"/>
<path d="M110.006 73.4716H81.4488L95.7273 35.8284L110.006 73.4716Z" stroke="#2B2727" stroke-width="2" stroke-linecap="round" stroke-linejoin="round"/>
<path d="M80 74C80 77.3137 82.6863 80 86 80H106C109.314 80 112 77.3137 112 74V71C112 70.4477 111.552 70 111 70H81C80.4477 70 80 70.4477 80 71V74Z" fill="#F9FAFC"/>
<path d="M100 36C100 38.2091 98.2091 40 96 40C93.7909 40 92 38.2091 92 36C92 33.7909 93.7909 32 96 32C98.2091 32 100 33.7909 100 36Z" fill="#F9FAFC"/>
<path d="M80 74C80 77.3137 82.6863 80 86 80H106C109.314 80 112 77.3137 112 74V71C112 70.4477 111.552 70 111 70H81C80.4477 70 80 70.4477 80 71V74Z" stroke="#2B2727" stroke-width="3" stroke-linecap="round" stroke-linejoin="round"/>
<path d="M100 36C100 38.2091 98.2091 40 96 40C93.7909 40 92 38.2091 92 36C92 33.7909 93.7909 32 96 32C98.2091 32 100 33.7909 100 36Z" stroke="#2B2727" stroke-width="3" stroke-linecap="round" stroke-linejoin="round"/>
</g>
<defs>
<clipPath id="clip0_401_69515">
<rect width="128" height="128" fill="white"/>
</clipPath>
</defs>
</svg>
