<svg width="128" height="128" viewBox="0 0 128 128" fill="none" xmlns="http://www.w3.org/2000/svg">
<g clip-path="url(#clip0_499_32038)">
<path d="M42.0398 90.0487H53.6947V124.5H42.0398V90.0487Z" fill="#F9FAFC" stroke="#0057F2" stroke-width="3"/>
<path d="M21 47C21 39.8203 26.8203 34 34 34H60.9204C68.1001 34 73.9204 39.8203 73.9204 47V91.0177C73.9204 98.1974 68.1001 104.018 60.9204 104.018H34C26.8203 104.018 21 98.1974 21 91.0177V47Z" fill="#F9FAFC"/>
<path d="M26.6991 49.5133C26.6991 44.5427 30.7286 40.5133 35.6991 40.5133H59.2212C64.1918 40.5133 68.2212 44.5427 68.2212 49.5133V81.177C68.2212 86.1476 64.1918 90.177 59.2212 90.177H35.6991C30.7286 90.177 26.6991 86.1476 26.6991 81.177V49.5133Z" fill="#F9FAFC"/>
<path d="M21 47C21 39.8203 26.8203 34 34 34H60.9204C68.1001 34 73.9204 39.8203 73.9204 47V91.0177C73.9204 98.1974 68.1001 104.018 60.9204 104.018H34C26.8203 104.018 21 98.1974 21 91.0177V47Z" stroke="#0057F2" stroke-width="3"/>
<path d="M26.6991 49.5133C26.6991 44.5427 30.7286 40.5133 35.6991 40.5133H59.2212C64.1918 40.5133 68.2212 44.5427 68.2212 49.5133V81.177C68.2212 86.1476 64.1918 90.177 59.2212 90.177H35.6991C30.7286 90.177 26.6991 86.1476 26.6991 81.177V49.5133Z" stroke="#0057F2" stroke-width="3"/>
<g clip-path="url(#clip1_499_32038)">
<path d="M47.8644 58.5622C44.6067 58.5622 41.9238 61.0168 41.5529 64.178C41.5342 64.3377 41.5202 64.4984 41.5126 64.6609C41.5058 64.8074 41.6249 64.9263 41.7712 64.9263H42.7367C42.883 64.9263 43.0009 64.8073 43.0102 64.661C43.0207 64.4978 43.0399 64.3371 43.0645 64.178C43.425 61.8467 45.4343 60.0588 47.8644 60.0588C50.5495 60.0588 52.725 62.2387 52.725 64.9263C52.725 67.614 50.5495 69.7915 47.8644 69.7915H40.5706C40.3626 69.7915 40.2371 70.0201 40.3561 70.1911C40.6058 70.5497 40.88 70.89 41.1772 71.2084C41.2265 71.2612 41.2956 71.2905 41.3677 71.2905H47.8644C51.3757 71.2905 54.2225 68.441 54.2224 64.9263C54.2224 61.4117 51.3757 58.5622 47.8644 58.5622Z" fill="#2B2727"/>
<path d="M47.8644 55.7787C45.018 55.7787 42.4743 57.0763 40.7937 59.1146C39.6224 60.5352 38.8929 62.3282 38.742 64.1641C38.7415 64.1688 38.74 64.1732 38.7396 64.178C38.7266 64.3383 38.7148 64.4989 38.7081 64.6609C38.702 64.8074 38.8209 64.9263 38.9672 64.9263H39.9327C40.079 64.9263 40.1971 64.8074 40.2024 64.6609C40.2082 64.4987 40.2193 64.338 40.2348 64.178C40.6113 60.2917 43.883 57.252 47.8644 57.252C52.0986 57.252 55.5313 60.6881 55.5313 64.9263C55.5313 69.1646 52.0986 72.6007 47.8644 72.6006H43.6992C43.4365 72.6006 43.3435 72.9279 43.5757 73.0509C44.7256 73.6598 46.0213 74.0276 47.3963 74.0973H47.8644C52.6085 74.0973 56.5084 70.4882 56.9776 65.8635C57.0081 65.5629 57.0257 65.2582 57.0265 64.9497C57.0265 64.6331 57.0089 64.3185 56.9776 64.0102C56.5084 59.3854 52.6085 55.7787 47.8644 55.7787Z" fill="#2B2727"/>
<path d="M47.8644 61.3689C46.1594 61.3689 44.7384 62.5743 44.3943 64.178C44.3604 64.3359 44.335 64.4968 44.3215 64.6611C44.3094 64.8073 44.429 64.9263 44.5753 64.9263H45.5431C45.6894 64.9263 45.8062 64.8069 45.8258 64.6616C45.8486 64.4933 45.8924 64.3316 45.9524 64.178C46.2519 63.4117 46.9927 62.8678 47.8644 62.8679C49.0004 62.8679 49.9208 63.7892 49.9209 64.9263C49.9209 66.0634 49.0004 66.9847 47.8644 66.9848H40.4746C40.418 66.7776 40.3655 66.5621 40.3061 66.3556C40.2644 66.2106 40.1344 66.1105 40.0021 66.1105H39.0448C38.9141 66.1105 38.7975 66.263 38.8226 66.4074C38.9438 67.0538 39.0886 67.7297 39.3499 68.3358C39.3907 68.4305 39.4906 68.4814 39.5843 68.4814H47.8644C49.8266 68.4814 51.4161 66.8904 51.4161 64.9263C51.4161 62.9623 49.8266 61.3689 47.8644 61.3689Z" fill="#2B2727"/>
</g>
<path d="M30.7699 122.673C30.7699 120.463 32.5608 118.673 34.7699 118.673H60.9646C63.1737 118.673 64.9646 120.463 64.9646 122.673V124C64.9646 125.105 64.0692 126 62.9646 126H32.7699C31.6653 126 30.7699 125.105 30.7699 124V122.673Z" fill="#F9FAFC" stroke="#0057F2" stroke-width="3"/>
<path d="M40.5398 95.876C40.5398 96.3257 40.1753 96.6902 39.7257 96.6902C39.276 96.6902 38.9115 96.3257 38.9115 95.876C38.9115 95.4264 39.276 95.0619 39.7257 95.0619C40.1753 95.0619 40.5398 95.4264 40.5398 95.876Z" fill="#0057F2"/>
<path d="M47.8673 95.876C47.8673 96.3257 47.5027 96.6902 47.0531 96.6902C46.6034 96.6902 46.2389 96.3257 46.2389 95.876C46.2389 95.4264 46.6034 95.0619 47.0531 95.0619C47.5027 95.0619 47.8673 95.4264 47.8673 95.876Z" fill="#0057F2"/>
<path d="M56.0088 95.876C56.0088 96.3257 55.6443 96.6902 55.1947 96.6902C54.745 96.6902 54.3805 96.3257 54.3805 95.876C54.3805 95.4264 54.745 95.0619 55.1947 95.0619C55.6443 95.0619 56.0088 95.4264 56.0088 95.876Z" fill="#0057F2"/>
<path d="M40.5398 95.876C40.5398 96.3257 40.1753 96.6902 39.7257 96.6902C39.276 96.6902 38.9115 96.3257 38.9115 95.876C38.9115 95.4264 39.276 95.0619 39.7257 95.0619C40.1753 95.0619 40.5398 95.4264 40.5398 95.876Z" stroke="#0057F2" stroke-width="3"/>
<path d="M47.8673 95.876C47.8673 96.3257 47.5027 96.6902 47.0531 96.6902C46.6034 96.6902 46.2389 96.3257 46.2389 95.876C46.2389 95.4264 46.6034 95.0619 47.0531 95.0619C47.5027 95.0619 47.8673 95.4264 47.8673 95.876Z" stroke="#0057F2" stroke-width="3"/>
<path d="M56.0088 95.876C56.0088 96.3257 55.6443 96.6902 55.1947 96.6902C54.745 96.6902 54.3805 96.3257 54.3805 95.876C54.3805 95.4264 54.745 95.0619 55.1947 95.0619C55.6443 95.0619 56.0088 95.4264 56.0088 95.876Z" stroke="#0057F2" stroke-width="3"/>
<circle cx="13" cy="13" r="11.5" transform="matrix(-1 0 0 1 109.5 20)" fill="#F9FAFC" stroke="#0057F2" stroke-width="3"/>
<path d="M119 89C119 91.5 118.007 93.3496 115 94C113.236 94.3814 110 93.5 109.5 91L107 67.5V120C107 122.5 104.5 125.5 101 125.5C97.5 125.5 95 122 95 120C95 122 93 125.5 88.5 125.5C86 125.5 83 123 83 119.5V65.5L78 74.5C77 76 74 77 71.5 75L56 59.5C55 58 54.5238 55.3362 56.5 53C58.2334 51.2828 61 51.5 62.5 52.5L73.5 63L79 53C80.429 50.5763 81.5 49.5 84.5 49.5H106.716C112 49.5 115.5 53.5 115.889 57L119 89Z" fill="#F9FAFC"/>
<path d="M95 120C95 122 93 125.5 88.5 125.5C86 125.5 83 123 83 119.5V65.5L78 74.5C77 76 74 77 71.5 75L56 59.5C55 58 54.5238 55.3362 56.5 53C58.2334 51.2828 61 51.5 62.5 52.5L73.5 63L79 53C80.429 50.5763 81.5 49.5 84.5 49.5H106.716C112 49.5 115.5 53.5 115.889 57L119 89C119 91.5 118.007 93.3496 115 94C113.236 94.3814 110 93.5 109.5 91L107 67.5V120C107 122.5 104.5 125.5 101 125.5C97.5 125.5 95 122 95 120ZM95 120V93.5" stroke="#0057F2" stroke-width="3" stroke-linecap="round" stroke-linejoin="round"/>
<path d="M36.0398 86.0487H47.6947V120.5H36.0398V86.0487Z" fill="#F9FAFC" stroke="#2B2727" stroke-width="3"/>
<path d="M15 43C15 35.8203 20.8203 30 28 30H54.9204C62.1001 30 67.9204 35.8203 67.9204 43V87.0177C67.9204 94.1974 62.1001 100.018 54.9204 100.018H28C20.8203 100.018 15 94.1974 15 87.0177V43Z" fill="#F9FAFC"/>
<path d="M20.6991 45.5133C20.6991 40.5427 24.7286 36.5133 29.6991 36.5133H53.2212C58.1918 36.5133 62.2212 40.5427 62.2212 45.5133V77.177C62.2212 82.1476 58.1918 86.177 53.2212 86.177H29.6991C24.7286 86.177 20.6991 82.1476 20.6991 77.177V45.5133Z" fill="#F9FAFC"/>
<path d="M15 43C15 35.8203 20.8203 30 28 30H54.9204C62.1001 30 67.9204 35.8203 67.9204 43V87.0177C67.9204 94.1974 62.1001 100.018 54.9204 100.018H28C20.8203 100.018 15 94.1974 15 87.0177V43Z" stroke="#2B2727" stroke-width="3"/>
<path d="M20.6991 45.5133C20.6991 40.5427 24.7286 36.5133 29.6991 36.5133H53.2212C58.1918 36.5133 62.2212 40.5427 62.2212 45.5133V77.177C62.2212 82.1476 58.1918 86.177 53.2212 86.177H29.6991C24.7286 86.177 20.6991 82.1476 20.6991 77.177V45.5133Z" stroke="#2B2727" stroke-width="3"/>
<g clip-path="url(#clip2_499_32038)">
<path d="M41.8644 54.5622C38.6067 54.5622 35.9238 57.0168 35.5529 60.178C35.5342 60.3377 35.5202 60.4984 35.5126 60.6609C35.5058 60.8074 35.6249 60.9263 35.7712 60.9263H36.7367C36.883 60.9263 37.0009 60.8073 37.0102 60.661C37.0207 60.4978 37.0399 60.3371 37.0645 60.178C37.425 57.8467 39.4343 56.0588 41.8644 56.0588C44.5495 56.0588 46.725 58.2387 46.725 60.9263C46.725 63.614 44.5495 65.7915 41.8644 65.7915H34.5706C34.3626 65.7915 34.2371 66.0201 34.3561 66.1911C34.6058 66.5497 34.88 66.89 35.1772 67.2084C35.2265 67.2612 35.2956 67.2905 35.3677 67.2905H41.8644C45.3757 67.2905 48.2225 64.441 48.2224 60.9263C48.2224 57.4117 45.3757 54.5622 41.8644 54.5622Z" fill="#2B2727"/>
<path d="M41.8644 51.7787C39.018 51.7787 36.4743 53.0763 34.7937 55.1146C33.6224 56.5352 32.8929 58.3282 32.742 60.1641C32.7415 60.1688 32.74 60.1732 32.7396 60.178C32.7266 60.3383 32.7148 60.4989 32.7081 60.6609C32.702 60.8074 32.8209 60.9263 32.9672 60.9263H33.9327C34.079 60.9263 34.1971 60.8074 34.2024 60.6609C34.2082 60.4987 34.2193 60.338 34.2348 60.178C34.6113 56.2917 37.883 53.252 41.8644 53.252C46.0986 53.252 49.5313 56.6881 49.5313 60.9263C49.5313 65.1646 46.0986 68.6007 41.8644 68.6006H37.6992C37.4365 68.6006 37.3435 68.9279 37.5757 69.0509C38.7256 69.6598 40.0213 70.0276 41.3963 70.0973H41.8644C46.6085 70.0973 50.5084 66.4882 50.9776 61.8635C51.0081 61.5629 51.0257 61.2582 51.0265 60.9497C51.0265 60.6331 51.0089 60.3185 50.9776 60.0102C50.5084 55.3854 46.6085 51.7787 41.8644 51.7787Z" fill="#2B2727"/>
<path d="M41.8644 57.3689C40.1594 57.3689 38.7384 58.5743 38.3943 60.178C38.3604 60.3359 38.335 60.4968 38.3215 60.6611C38.3094 60.8073 38.429 60.9263 38.5753 60.9263H39.5431C39.6894 60.9263 39.8062 60.8069 39.8258 60.6616C39.8486 60.4933 39.8924 60.3316 39.9524 60.178C40.2519 59.4117 40.9927 58.8678 41.8644 58.8679C43.0004 58.8679 43.9208 59.7892 43.9209 60.9263C43.9209 62.0634 43.0004 62.9847 41.8644 62.9848H34.4746C34.418 62.7776 34.3655 62.5621 34.3061 62.3556C34.2644 62.2106 34.1344 62.1105 34.0021 62.1105H33.0448C32.9141 62.1105 32.7975 62.263 32.8226 62.4074C32.9438 63.0538 33.0886 63.7297 33.3499 64.3358C33.3907 64.4305 33.4906 64.4814 33.5843 64.4814H41.8644C43.8266 64.4814 45.4161 62.8904 45.4161 60.9263C45.4161 58.9623 43.8266 57.3689 41.8644 57.3689Z" fill="#2B2727"/>
</g>
<path d="M24.7699 118.673C24.7699 116.463 26.5608 114.673 28.7699 114.673H54.9646C57.1737 114.673 58.9646 116.463 58.9646 118.673V120C58.9646 121.105 58.0692 122 56.9646 122H26.7699C25.6653 122 24.7699 121.105 24.7699 120V118.673Z" fill="#F9FAFC" stroke="#2B2727" stroke-width="3"/>
<path d="M34.5398 91.876C34.5398 92.3257 34.1753 92.6902 33.7257 92.6902C33.276 92.6902 32.9115 92.3257 32.9115 91.876C32.9115 91.4264 33.276 91.0619 33.7257 91.0619C34.1753 91.0619 34.5398 91.4264 34.5398 91.876Z" fill="#2B2727"/>
<path d="M41.8673 91.876C41.8673 92.3257 41.5027 92.6902 41.0531 92.6902C40.6034 92.6902 40.2389 92.3257 40.2389 91.876C40.2389 91.4264 40.6034 91.0619 41.0531 91.0619C41.5027 91.0619 41.8673 91.4264 41.8673 91.876Z" fill="#2B2727"/>
<path d="M50.0088 91.876C50.0088 92.3257 49.6443 92.6902 49.1947 92.6902C48.745 92.6902 48.3805 92.3257 48.3805 91.876C48.3805 91.4264 48.745 91.0619 49.1947 91.0619C49.6443 91.0619 50.0088 91.4264 50.0088 91.876Z" fill="#2B2727"/>
<path d="M34.5398 91.876C34.5398 92.3257 34.1753 92.6902 33.7257 92.6902C33.276 92.6902 32.9115 92.3257 32.9115 91.876C32.9115 91.4264 33.276 91.0619 33.7257 91.0619C34.1753 91.0619 34.5398 91.4264 34.5398 91.876Z" stroke="#2B2727" stroke-width="3"/>
<path d="M41.8673 91.876C41.8673 92.3257 41.5027 92.6902 41.0531 92.6902C40.6034 92.6902 40.2389 92.3257 40.2389 91.876C40.2389 91.4264 40.6034 91.0619 41.0531 91.0619C41.5027 91.0619 41.8673 91.4264 41.8673 91.876Z" stroke="#2B2727" stroke-width="3"/>
<path d="M50.0088 91.876C50.0088 92.3257 49.6443 92.6902 49.1947 92.6902C48.745 92.6902 48.3805 92.3257 48.3805 91.876C48.3805 91.4264 48.745 91.0619 49.1947 91.0619C49.6443 91.0619 50.0088 91.4264 50.0088 91.876Z" stroke="#2B2727" stroke-width="3"/>
<circle cx="13" cy="13" r="11.5" transform="matrix(-1 0 0 1 103.5 16)" fill="#F9FAFC" stroke="#2B2727" stroke-width="3"/>
<path d="M113 85C113 87.5 112.007 89.3496 109 90C107.236 90.3814 104 89.5 103.5 87L101 63.5V116C101 118.5 98.5 121.5 95 121.5C91.5 121.5 89 118 89 116C89 118 87 121.5 82.5 121.5C80 121.5 77 119 77 115.5V61.5L72 70.5C71 72 68 73 65.5 71L50 55.5C49 54 48.5238 51.3362 50.5 49C52.2334 47.2828 55 47.5 56.5 48.5L67.5 59L73 49C74.429 46.5763 75.5 45.5 78.5 45.5H100.716C106 45.5 109.5 49.5 109.889 53L113 85Z" fill="#F9FAFC"/>
<path d="M89 116C89 118 87 121.5 82.5 121.5C80 121.5 77 119 77 115.5V61.5L72 70.5C71 72 68 73 65.5 71L50 55.5C49 54 48.5238 51.3362 50.5 49C52.2334 47.2828 55 47.5 56.5 48.5L67.5 59L73 49C74.429 46.5763 75.5 45.5 78.5 45.5H100.716C106 45.5 109.5 49.5 109.889 53L113 85C113 87.5 112.007 89.3496 109 90C107.236 90.3814 104 89.5 103.5 87L101 63.5V116C101 118.5 98.5 121.5 95 121.5C91.5 121.5 89 118 89 116ZM89 116V89.5" stroke="#2B2727" stroke-width="3" stroke-linecap="round" stroke-linejoin="round"/>
</g>
<defs>
<clipPath id="clip0_499_32038">
<rect width="128" height="128" fill="white"/>
</clipPath>
<clipPath id="clip1_499_32038">
<rect width="19.5398" height="19.5398" fill="white" transform="translate(38.0973 55.1681)"/>
</clipPath>
<clipPath id="clip2_499_32038">
<rect width="19.5398" height="19.5398" fill="white" transform="translate(32.0973 51.1681)"/>
</clipPath>
</defs>
</svg>
