<svg width="128" height="128" viewBox="0 0 128 128" fill="none" xmlns="http://www.w3.org/2000/svg">
<g clip-path="url(#clip0_499_32038)">
<path d="M42.0398 90.0487H53.6947V124.5H42.0398V90.0487Z" fill="#F9FAFC" stroke="#0057F2" stroke-width="3"/>
<path d="M21 47C21 39.8203 26.8203 34 34 34H60.9204C68.1001 34 73.9204 39.8203 73.9204 47V91.0177C73.9204 98.1974 68.1001 104.018 60.9204 104.018H34C26.8203 104.018 21 98.1974 21 91.0177V47Z" fill="#F9FAFC"/>
<path d="M26.6991 49.5133C26.6991 44.5427 30.7286 40.5133 35.6991 40.5133H59.2212C64.1918 40.5133 68.2212 44.5427 68.2212 49.5133V81.177C68.2212 86.1476 64.1918 90.177 59.2212 90.177H35.6991C30.7286 90.177 26.6991 86.1476 26.6991 81.177V49.5133Z" fill="#F9FAFC"/>
<path d="M21 47C21 39.8203 26.8203 34 34 34H60.9204C68.1001 34 73.9204 39.8203 73.9204 47V91.0177C73.9204 98.1974 68.1001 104.018 60.9204 104.018H34C26.8203 104.018 21 98.1974 21 91.0177V47Z" stroke="#0057F2" stroke-width="3"/>
<path d="M26.6991 49.5133C26.6991 44.5427 30.7286 40.5133 35.6991 40.5133H59.2212C64.1918 40.5133 68.2212 44.5427 68.2212 49.5133V81.177C68.2212 86.1476 64.1918 90.177 59.2212 90.177H35.6991C30.7286 90.177 26.6991 86.1476 26.6991 81.177V49.5133Z" stroke="#0057F2" stroke-width="3"/>
<g clip-path="url(#clip1_499_32038)">
<path d="M47.8645 61.3689C46.1595 61.3689 44.7385 62.5743 44.3943 64.178C44.3605 64.3359 44.3351 64.4968 44.3215 64.6611C44.3095 64.8073 44.4291 64.9263 44.5753 64.9263H45.5432C45.6894 64.9263 45.8062 64.8069 45.8259 64.6616C45.8487 64.4933 45.8924 64.3316 45.9524 64.178C46.252 63.4117 46.9928 62.8678 47.8645 62.8679C49.0005 62.8679 49.9209 63.7892 49.921 64.9263C49.921 66.0634 49.0005 66.9847 47.8645 66.9848H39.2671C39.0971 66.9848 38.971 67.1431 39.0142 67.3078C39.1046 67.6527 39.2132 67.9901 39.3418 68.3177C39.3809 68.4173 39.4776 68.4814 39.5844 68.4814H47.8645C49.8266 68.4814 51.4161 66.8904 51.4161 64.9263C51.4161 62.9623 49.8266 61.3689 47.8645 61.3689Z" fill="#0057F2"/>
<path d="M47.8645 58.5622C44.6067 58.5622 41.9238 61.0168 41.553 64.178C41.5343 64.3377 41.5202 64.4984 41.5127 64.6609C41.5059 64.8074 41.625 64.9263 41.7713 64.9263H42.7368C42.8831 64.9263 43.001 64.8073 43.0103 64.661C43.0207 64.4978 43.0399 64.3371 43.0646 64.178C43.425 61.8467 45.4343 60.0588 47.8645 60.0588C50.5495 60.0588 52.725 62.2387 52.725 64.9263C52.725 67.614 50.5495 69.7915 47.8645 69.7915H40.5706C40.3626 69.7915 40.2371 70.0201 40.3562 70.1911C40.6058 70.5497 40.88 70.89 41.1772 71.2084C41.2265 71.2612 41.2957 71.2905 41.3678 71.2905H47.8645C51.3757 71.2905 54.2226 68.441 54.2225 64.9263C54.2225 61.4117 51.3757 58.5622 47.8645 58.5622Z" fill="#0057F2"/>
<path d="M47.8645 55.7787C45.018 55.7787 42.4744 57.0763 40.7938 59.1146C40.6131 59.3338 40.4414 59.5622 40.2814 59.7977C40.2709 59.8131 40.2615 59.8289 40.2512 59.8443C40.107 60.0591 39.9741 60.2815 39.8482 60.5087C39.8262 60.5488 39.8022 60.5871 39.7807 60.6276C39.6705 60.8336 39.5725 61.0467 39.478 61.2617C39.45 61.3257 39.4206 61.3903 39.3941 61.4552C39.3209 61.6327 39.256 61.8131 39.1938 61.996C39.1546 62.1124 39.1143 62.2296 39.0797 62.348C39.0427 62.4733 39.0136 62.6006 38.9818 62.728C38.9394 62.9004 38.8956 63.0717 38.8631 63.2478C38.8482 63.3273 38.841 63.4102 38.8282 63.4903C38.7931 63.7127 38.7607 63.9366 38.742 64.1641C38.7416 64.1688 38.74 64.1732 38.7396 64.178C38.7267 64.3383 38.7149 64.4989 38.7082 64.6609C38.7021 64.8074 38.821 64.9263 38.9672 64.9263H39.9327C40.079 64.9263 40.1971 64.8074 40.2024 64.6609C40.2083 64.4987 40.2194 64.338 40.2349 64.178C40.6114 60.2917 43.8831 57.252 47.8645 57.252C52.0986 57.252 55.5314 60.6881 55.5314 64.9263C55.5314 69.1646 52.0986 72.6007 47.8645 72.6006H43.6992C43.4366 72.6006 43.3436 72.9279 43.5758 73.0509C44.7257 73.6598 46.0214 74.0276 47.3964 74.0973H47.8645C52.6085 74.0973 56.5084 70.4882 56.9776 65.8635C57.0081 65.5629 57.0258 65.2582 57.0265 64.9497C57.0265 64.6331 57.0089 64.3185 56.9776 64.0102C56.5084 59.3854 52.6085 55.7787 47.8645 55.7787Z" fill="#0057F2"/>
</g>
<path d="M30.7699 122.673C30.7699 120.463 32.5608 118.673 34.7699 118.673H60.9646C63.1737 118.673 64.9646 120.463 64.9646 122.673V124C64.9646 125.105 64.0692 126 62.9646 126H32.7699C31.6653 126 30.7699 125.105 30.7699 124V122.673Z" fill="#F9FAFC" stroke="#0057F2" stroke-width="3"/>
<path d="M40.5398 95.876C40.5398 96.3257 40.1753 96.6902 39.7257 96.6902C39.276 96.6902 38.9115 96.3257 38.9115 95.876C38.9115 95.4264 39.276 95.0619 39.7257 95.0619C40.1753 95.0619 40.5398 95.4264 40.5398 95.876Z" fill="#0057F2"/>
<path d="M47.8673 95.876C47.8673 96.3257 47.5027 96.6902 47.0531 96.6902C46.6034 96.6902 46.2389 96.3257 46.2389 95.876C46.2389 95.4264 46.6034 95.0619 47.0531 95.0619C47.5027 95.0619 47.8673 95.4264 47.8673 95.876Z" fill="#0057F2"/>
<path d="M56.0088 95.876C56.0088 96.3257 55.6443 96.6902 55.1947 96.6902C54.745 96.6902 54.3805 96.3257 54.3805 95.876C54.3805 95.4264 54.745 95.0619 55.1947 95.0619C55.6443 95.0619 56.0088 95.4264 56.0088 95.876Z" fill="#0057F2"/>
<path d="M40.5398 95.876C40.5398 96.3257 40.1753 96.6902 39.7257 96.6902C39.276 96.6902 38.9115 96.3257 38.9115 95.876C38.9115 95.4264 39.276 95.0619 39.7257 95.0619C40.1753 95.0619 40.5398 95.4264 40.5398 95.876Z" stroke="#0057F2" stroke-width="3"/>
<path d="M47.8673 95.876C47.8673 96.3257 47.5027 96.6902 47.0531 96.6902C46.6034 96.6902 46.2389 96.3257 46.2389 95.876C46.2389 95.4264 46.6034 95.0619 47.0531 95.0619C47.5027 95.0619 47.8673 95.4264 47.8673 95.876Z" stroke="#0057F2" stroke-width="3"/>
<path d="M56.0088 95.876C56.0088 96.3257 55.6443 96.6902 55.1947 96.6902C54.745 96.6902 54.3805 96.3257 54.3805 95.876C54.3805 95.4264 54.745 95.0619 55.1947 95.0619C55.6443 95.0619 56.0088 95.4264 56.0088 95.876Z" stroke="#0057F2" stroke-width="3"/>
<circle cx="13" cy="13" r="11.5" transform="matrix(-1 0 0 1 109.5 20)" fill="#F9FAFC" stroke="#0057F2" stroke-width="3"/>
<path d="M119 89C119 91.5 118.007 93.3496 115 94C113.236 94.3814 110 93.5 109.5 91L107 67.5V120C107 122.5 104.5 125.5 101 125.5C97.5 125.5 95 122 95 120C95 122 93 125.5 88.5 125.5C86 125.5 83 123 83 119.5V65.5L78 74.5C77 76 74 77 71.5 75L56 59.5C55 58 54.5238 55.3362 56.5 53C58.2334 51.2828 61 51.5 62.5 52.5L73.5 63L79 53C80.429 50.5763 81.5 49.5 84.5 49.5H106.716C112 49.5 115.5 53.5 115.889 57L119 89Z" fill="#F9FAFC"/>
<path d="M95 120C95 122 93 125.5 88.5 125.5C86 125.5 83 123 83 119.5V65.5L78 74.5C77 76 74 77 71.5 75L56 59.5C55 58 54.5238 55.3362 56.5 53C58.2334 51.2828 61 51.5 62.5 52.5L73.5 63L79 53C80.429 50.5763 81.5 49.5 84.5 49.5H106.716C112 49.5 115.5 53.5 115.889 57L119 89C119 91.5 118.007 93.3496 115 94C113.236 94.3814 110 93.5 109.5 91L107 67.5V120C107 122.5 104.5 125.5 101 125.5C97.5 125.5 95 122 95 120ZM95 120V93.5" stroke="#0057F2" stroke-width="3" stroke-linecap="round" stroke-linejoin="round"/>
<path d="M36.0398 86.0487H47.6947V120.5H36.0398V86.0487Z" fill="#F9FAFC" stroke="#2B2727" stroke-width="3"/>
<path d="M15 43C15 35.8203 20.8203 30 28 30H54.9204C62.1001 30 67.9204 35.8203 67.9204 43V87.0177C67.9204 94.1974 62.1001 100.018 54.9204 100.018H28C20.8203 100.018 15 94.1974 15 87.0177V43Z" fill="#F9FAFC"/>
<path d="M20.6991 45.5133C20.6991 40.5427 24.7286 36.5133 29.6991 36.5133H53.2212C58.1918 36.5133 62.2212 40.5427 62.2212 45.5133V77.177C62.2212 82.1476 58.1918 86.177 53.2212 86.177H29.6991C24.7286 86.177 20.6991 82.1476 20.6991 77.177V45.5133Z" fill="#F9FAFC"/>
<path d="M15 43C15 35.8203 20.8203 30 28 30H54.9204C62.1001 30 67.9204 35.8203 67.9204 43V87.0177C67.9204 94.1974 62.1001 100.018 54.9204 100.018H28C20.8203 100.018 15 94.1974 15 87.0177V43Z" stroke="#2B2727" stroke-width="3"/>
<path d="M20.6991 45.5133C20.6991 40.5427 24.7286 36.5133 29.6991 36.5133H53.2212C58.1918 36.5133 62.2212 40.5427 62.2212 45.5133V77.177C62.2212 82.1476 58.1918 86.177 53.2212 86.177H29.6991C24.7286 86.177 20.6991 82.1476 20.6991 77.177V45.5133Z" stroke="#2B2727" stroke-width="3"/>
<g clip-path="url(#clip2_499_32038)">
<path d="M41.8645 57.3689C40.1595 57.3689 38.7385 58.5743 38.3943 60.178C38.3605 60.3359 38.3351 60.4968 38.3215 60.6611C38.3095 60.8073 38.4291 60.9263 38.5753 60.9263H39.5432C39.6894 60.9263 39.8062 60.8069 39.8259 60.6616C39.8487 60.4933 39.8924 60.3316 39.9524 60.178C40.252 59.4117 40.9928 58.8678 41.8645 58.8679C43.0005 58.8679 43.9209 59.7892 43.921 60.9263C43.921 62.0634 43.0005 62.9847 41.8645 62.9848H33.2671C33.0971 62.9848 32.971 63.1431 33.0142 63.3078C33.1046 63.6527 33.2132 63.9901 33.3418 64.3177C33.3809 64.4173 33.4776 64.4814 33.5844 64.4814H41.8645C43.8266 64.4814 45.4161 62.8904 45.4161 60.9263C45.4161 58.9623 43.8266 57.3689 41.8645 57.3689Z" fill="#2B2727"/>
<path d="M41.8645 54.5622C38.6067 54.5622 35.9238 57.0168 35.553 60.178C35.5343 60.3377 35.5202 60.4984 35.5127 60.6609C35.5059 60.8074 35.625 60.9263 35.7713 60.9263H36.7368C36.8831 60.9263 37.001 60.8073 37.0103 60.661C37.0207 60.4978 37.0399 60.3371 37.0646 60.178C37.425 57.8467 39.4343 56.0588 41.8645 56.0588C44.5495 56.0588 46.725 58.2387 46.725 60.9263C46.725 63.614 44.5495 65.7915 41.8645 65.7915H34.5706C34.3626 65.7915 34.2371 66.0201 34.3562 66.1911C34.6058 66.5497 34.88 66.89 35.1772 67.2084C35.2265 67.2612 35.2957 67.2905 35.3678 67.2905H41.8645C45.3757 67.2905 48.2226 64.441 48.2225 60.9263C48.2225 57.4117 45.3757 54.5622 41.8645 54.5622Z" fill="#2B2727"/>
<path d="M41.8645 51.7787C39.018 51.7787 36.4744 53.0763 34.7938 55.1146C34.6131 55.3338 34.4414 55.5622 34.2814 55.7977C34.2709 55.8131 34.2615 55.8289 34.2512 55.8443C34.107 56.0591 33.9741 56.2815 33.8482 56.5087C33.8262 56.5488 33.8022 56.5871 33.7807 56.6276C33.6705 56.8336 33.5725 57.0467 33.478 57.2617C33.45 57.3257 33.4206 57.3903 33.3941 57.4552C33.3209 57.6327 33.256 57.8131 33.1938 57.996C33.1546 58.1124 33.1143 58.2296 33.0797 58.348C33.0427 58.4733 33.0136 58.6006 32.9818 58.728C32.9394 58.9004 32.8956 59.0717 32.8631 59.2478C32.8482 59.3273 32.841 59.4102 32.8282 59.4903C32.7931 59.7127 32.7607 59.9366 32.742 60.1641C32.7416 60.1688 32.74 60.1732 32.7396 60.178C32.7267 60.3383 32.7149 60.4989 32.7082 60.6609C32.7021 60.8074 32.821 60.9263 32.9672 60.9263H33.9327C34.079 60.9263 34.1971 60.8074 34.2024 60.6609C34.2083 60.4987 34.2194 60.338 34.2349 60.178C34.6114 56.2917 37.8831 53.252 41.8645 53.252C46.0986 53.252 49.5314 56.6881 49.5314 60.9263C49.5314 65.1646 46.0986 68.6007 41.8645 68.6006H37.6992C37.4366 68.6006 37.3436 68.9279 37.5758 69.0509C38.7257 69.6598 40.0214 70.0276 41.3964 70.0973H41.8645C46.6085 70.0973 50.5084 66.4882 50.9776 61.8635C51.0081 61.5629 51.0258 61.2582 51.0265 60.9497C51.0265 60.6331 51.0089 60.3185 50.9776 60.0102C50.5084 55.3854 46.6085 51.7787 41.8645 51.7787Z" fill="#2B2727"/>
</g>
<path d="M24.7699 118.673C24.7699 116.463 26.5608 114.673 28.7699 114.673H54.9646C57.1737 114.673 58.9646 116.463 58.9646 118.673V120C58.9646 121.105 58.0692 122 56.9646 122H26.7699C25.6653 122 24.7699 121.105 24.7699 120V118.673Z" fill="#F9FAFC" stroke="#2B2727" stroke-width="3"/>
<path d="M34.5398 91.876C34.5398 92.3257 34.1753 92.6902 33.7257 92.6902C33.276 92.6902 32.9115 92.3257 32.9115 91.876C32.9115 91.4264 33.276 91.0619 33.7257 91.0619C34.1753 91.0619 34.5398 91.4264 34.5398 91.876Z" fill="#2B2727"/>
<path d="M41.8673 91.876C41.8673 92.3257 41.5027 92.6902 41.0531 92.6902C40.6034 92.6902 40.2389 92.3257 40.2389 91.876C40.2389 91.4264 40.6034 91.0619 41.0531 91.0619C41.5027 91.0619 41.8673 91.4264 41.8673 91.876Z" fill="#2B2727"/>
<path d="M50.0088 91.876C50.0088 92.3257 49.6443 92.6902 49.1947 92.6902C48.745 92.6902 48.3805 92.3257 48.3805 91.876C48.3805 91.4264 48.745 91.0619 49.1947 91.0619C49.6443 91.0619 50.0088 91.4264 50.0088 91.876Z" fill="#2B2727"/>
<path d="M34.5398 91.876C34.5398 92.3257 34.1753 92.6902 33.7257 92.6902C33.276 92.6902 32.9115 92.3257 32.9115 91.876C32.9115 91.4264 33.276 91.0619 33.7257 91.0619C34.1753 91.0619 34.5398 91.4264 34.5398 91.876Z" stroke="#2B2727" stroke-width="3"/>
<path d="M41.8673 91.876C41.8673 92.3257 41.5027 92.6902 41.0531 92.6902C40.6034 92.6902 40.2389 92.3257 40.2389 91.876C40.2389 91.4264 40.6034 91.0619 41.0531 91.0619C41.5027 91.0619 41.8673 91.4264 41.8673 91.876Z" stroke="#2B2727" stroke-width="3"/>
<path d="M50.0088 91.876C50.0088 92.3257 49.6443 92.6902 49.1947 92.6902C48.745 92.6902 48.3805 92.3257 48.3805 91.876C48.3805 91.4264 48.745 91.0619 49.1947 91.0619C49.6443 91.0619 50.0088 91.4264 50.0088 91.876Z" stroke="#2B2727" stroke-width="3"/>
<circle cx="13" cy="13" r="11.5" transform="matrix(-1 0 0 1 103.5 16)" fill="#F9FAFC" stroke="#2B2727" stroke-width="3"/>
<path d="M113 85C113 87.5 112.007 89.3496 109 90C107.236 90.3814 104 89.5 103.5 87L101 63.5V116C101 118.5 98.5 121.5 95 121.5C91.5 121.5 89 118 89 116C89 118 87 121.5 82.5 121.5C80 121.5 77 119 77 115.5V61.5L72 70.5C71 72 68 73 65.5 71L50 55.5C49 54 48.5238 51.3362 50.5 49C52.2334 47.2828 55 47.5 56.5 48.5L67.5 59L73 49C74.429 46.5763 75.5 45.5 78.5 45.5H100.716C106 45.5 109.5 49.5 109.889 53L113 85Z" fill="#F9FAFC"/>
<path d="M89 116C89 118 87 121.5 82.5 121.5C80 121.5 77 119 77 115.5V61.5L72 70.5C71 72 68 73 65.5 71L50 55.5C49 54 48.5238 51.3362 50.5 49C52.2334 47.2828 55 47.5 56.5 48.5L67.5 59L73 49C74.429 46.5763 75.5 45.5 78.5 45.5H100.716C106 45.5 109.5 49.5 109.889 53L113 85C113 87.5 112.007 89.3496 109 90C107.236 90.3814 104 89.5 103.5 87L101 63.5V116C101 118.5 98.5 121.5 95 121.5C91.5 121.5 89 118 89 116ZM89 116V89.5" stroke="#2B2727" stroke-width="3" stroke-linecap="round" stroke-linejoin="round"/>
</g>
<defs>
<clipPath id="clip0_499_32038">
<rect width="128" height="128" fill="white"/>
</clipPath>
<clipPath id="clip1_499_32038">
<rect width="19.5398" height="19.5398" fill="white" transform="translate(38.0974 55.1681)"/>
</clipPath>
<clipPath id="clip2_499_32038">
<rect width="19.5398" height="19.5398" fill="white" transform="translate(32.0974 51.1681)"/>
</clipPath>
</defs>
</svg>
