<svg width="128" height="128" viewBox="0 0 128 128" fill="none" xmlns="http://www.w3.org/2000/svg">
<g clip-path="url(#clip0_499_32458)">
<path d="M16.0001 42C16.0001 37.5817 19.5818 34 24.0001 34H105C109.418 34 113 37.5817 113 42V84C113 88.4183 109.418 92 105 92H24.0001C19.5818 92 16.0001 88.4183 16.0001 84V42Z" fill="#F9FAFC" stroke="#0057F2" stroke-width="3"/>
<g clip-path="url(#clip1_499_32458)">
<path d="M64.9978 60.0775C63.6016 60.0775 62.438 61.0645 62.1562 62.3777C62.1285 62.507 62.1077 62.6388 62.0966 62.7733C62.0868 62.893 62.1847 62.9904 62.3045 62.9904H63.0969C63.2167 62.9904 63.3124 62.8927 63.3285 62.7737C63.3471 62.6359 63.383 62.5035 63.4321 62.3777C63.6773 61.7503 64.2839 61.3049 64.9978 61.3049C65.928 61.3049 66.6816 62.0593 66.6817 62.9904C66.6817 63.9215 65.928 64.6759 64.9978 64.676H57.9579C57.8187 64.676 57.7154 64.8056 57.7508 64.9405C57.8248 65.2229 57.9137 65.4992 58.019 65.7674C58.051 65.849 58.1302 65.9015 58.2176 65.9015H64.9978C66.6044 65.9015 67.906 64.5987 67.906 62.9904C67.906 61.3822 66.6044 60.0775 64.9978 60.0775Z" fill="#0057F2"/>
<path d="M64.9978 57.7792C62.3302 57.7792 60.1333 59.7892 59.8297 62.3777C59.8143 62.5085 59.8028 62.64 59.7966 62.7731C59.7911 62.8931 59.8886 62.9904 60.0084 62.9904H60.799C60.9188 62.9904 61.0153 62.893 61.0229 62.7732C61.0315 62.6396 61.0472 62.508 61.0674 62.3777C61.3625 60.4687 63.0078 59.0047 64.9978 59.0047C67.1964 59.0047 68.9778 60.7897 68.9778 62.9904C68.9778 65.1912 67.1964 66.9743 64.9978 66.9743H59.0252C58.8549 66.9743 58.7522 67.1615 58.8496 67.3015C59.0541 67.5951 59.2786 67.8738 59.522 68.1344C59.5623 68.1777 59.6189 68.2017 59.678 68.2017L64.9978 68.2017C67.8729 68.2017 70.204 65.8684 70.2039 62.9904C70.2039 60.1125 67.8729 57.7792 64.9978 57.7792Z" fill="#0057F2"/>
<path d="M64.9978 55.5C62.667 55.5 60.5841 56.5626 59.208 58.2316C59.06 58.4111 58.9195 58.5981 58.7884 58.7909C58.7798 58.8036 58.7721 58.8164 58.7637 58.8291C58.6456 59.005 58.5368 59.1871 58.4337 59.3732C58.4156 59.406 58.396 59.4374 58.3784 59.4705C58.2882 59.6392 58.2079 59.8136 58.1305 59.9897C58.1076 60.0422 58.0835 60.0951 58.0619 60.1481C58.0019 60.2935 57.9487 60.4412 57.8978 60.591C57.8657 60.6863 57.8327 60.7822 57.8044 60.8793C57.7741 60.9818 57.7503 61.0861 57.7243 61.1904C57.6896 61.3316 57.6537 61.4718 57.6271 61.616C57.6149 61.6811 57.6089 61.749 57.5984 61.8146C57.5698 61.9967 57.5432 62.18 57.5279 62.3663C57.5275 62.3701 57.5263 62.3738 57.526 62.3777C57.5154 62.509 57.5057 62.6405 57.5002 62.7731C57.4952 62.8931 57.5925 62.9904 57.7123 62.9904H58.5029C58.6227 62.9904 58.7194 62.8931 58.7237 62.7731C58.7285 62.6403 58.7376 62.5087 58.7503 62.3777C59.0586 59.1954 61.7376 56.7064 64.9978 56.7064C68.4648 56.7064 71.2757 59.52 71.2757 62.9904C71.2757 66.4609 68.4648 69.2745 64.9978 69.2745H61.5871C61.372 69.2745 61.2958 69.5425 61.486 69.6432C62.4275 70.1418 63.4885 70.443 64.6145 70.5H64.9978C68.8824 70.5 72.0758 67.5448 72.46 63.7578C72.4849 63.5117 72.4994 63.2622 72.5 63.0096C72.5 62.7503 72.4856 62.4927 72.46 62.2403C72.0758 58.4534 68.8824 55.5 64.9978 55.5Z" fill="#0057F2"/>
</g>
<circle cx="8.07109" cy="8.07109" r="6.57109" transform="matrix(-1 0 0 1 118.102 57)" fill="#F9FAFC" stroke="#0057F2" stroke-width="3"/>
<path d="M124 99.8389C124 101.391 123.384 102.539 121.517 102.943C120.422 103.18 118.412 102.633 118.102 101.081L116.55 86.4905V119.085C116.55 120.637 114.998 122.5 112.825 122.5C110.652 122.5 109.1 120.327 109.1 119.085C109.1 120.327 107.858 122.5 105.064 122.5C103.512 122.5 101.649 120.948 101.649 118.775V85.2488L98.545 90.8365C97.9242 91.7678 96.0616 92.3886 94.5095 91.1469L84.8863 81.5237C84.2654 80.5924 83.9698 78.9386 85.1967 77.4882C86.2729 76.4221 87.9905 76.5569 88.9218 77.1777L95.7512 83.6967L99.1659 77.4882C100.053 75.9834 100.718 75.3152 102.581 75.3152H116.373C119.654 75.3152 121.827 77.7986 122.068 79.9716L124 99.8389Z" fill="#F9FAFC"/>
<path d="M109.1 119.085C109.1 120.327 107.858 122.5 105.064 122.5C103.512 122.5 101.649 120.948 101.649 118.775V85.2488L98.545 90.8365C97.9242 91.7678 96.0616 92.3886 94.5095 91.1469L84.8863 81.5237C84.2654 80.5924 83.9698 78.9386 85.1967 77.4882C86.2729 76.4221 87.9905 76.5569 88.9218 77.1777L95.7512 83.6967L99.1659 77.4882C100.053 75.9834 100.718 75.3152 102.581 75.3152H116.373C119.654 75.3152 121.827 77.7986 122.068 79.9716L124 99.8389C124 101.391 123.384 102.539 121.517 102.943C120.422 103.18 118.412 102.633 118.102 101.081L116.55 86.4905V119.085C116.55 120.637 114.998 122.5 112.825 122.5C110.652 122.5 109.1 120.327 109.1 119.085ZM109.1 119.085V102.633" stroke="#0057F2" stroke-width="3" stroke-linecap="round" stroke-linejoin="round"/>
<path d="M10.0001 38C10.0001 33.5817 13.5818 30 18.0001 30H99.0001C103.418 30 107 33.5817 107 38V80C107 84.4183 103.418 88 99.0001 88H18.0001C13.5818 88 10.0001 84.4183 10.0001 80V38Z" fill="#F9FAFC" stroke="#2B2727" stroke-width="3"/>
<g clip-path="url(#clip2_499_32458)">
<path d="M58.9978 56.0775C57.6016 56.0775 56.438 57.0645 56.1562 58.3777C56.1285 58.507 56.1077 58.6388 56.0966 58.7733C56.0868 58.893 56.1847 58.9904 56.3045 58.9904H57.0969C57.2167 58.9904 57.3124 58.8927 57.3285 58.7737C57.3471 58.6359 57.383 58.5035 57.4321 58.3777C57.6773 57.7503 58.2839 57.3049 58.9978 57.3049C59.928 57.3049 60.6816 58.0593 60.6817 58.9904C60.6817 59.9215 59.928 60.6759 58.9978 60.676H51.9579C51.8187 60.676 51.7154 60.8056 51.7508 60.9405C51.8248 61.2229 51.9137 61.4992 52.019 61.7674C52.051 61.849 52.1302 61.9015 52.2176 61.9015H58.9978C60.6044 61.9015 61.906 60.5987 61.906 58.9904C61.906 57.3822 60.6044 56.0775 58.9978 56.0775Z" fill="#2B2727"/>
<path d="M58.9978 53.7792C56.3302 53.7792 54.1333 55.7892 53.8297 58.3777C53.8143 58.5085 53.8028 58.64 53.7966 58.7731C53.7911 58.8931 53.8886 58.9904 54.0084 58.9904H54.799C54.9188 58.9904 55.0153 58.893 55.0229 58.7732C55.0315 58.6396 55.0472 58.508 55.0674 58.3777C55.3625 56.4687 57.0078 55.0047 58.9978 55.0047C61.1964 55.0047 62.9778 56.7897 62.9778 58.9904C62.9778 61.1912 61.1964 62.9743 58.9978 62.9743L53.0252 62.9743C52.8549 62.9743 52.7522 63.1615 52.8496 63.3015C53.0541 63.5951 53.2786 63.8738 53.522 64.1344C53.5623 64.1777 53.6189 64.2017 53.678 64.2017L58.9978 64.2017C61.8729 64.2017 64.204 61.8684 64.2039 58.9904C64.2039 56.1125 61.8729 53.7792 58.9978 53.7792Z" fill="#2B2727"/>
<path d="M58.9978 51.5C56.667 51.5 54.5841 52.5626 53.208 54.2316C53.06 54.4111 52.9195 54.5981 52.7884 54.7909C52.7798 54.8036 52.7721 54.8164 52.7637 54.8291C52.6456 55.005 52.5368 55.1871 52.4337 55.3732C52.4156 55.406 52.396 55.4374 52.3784 55.4705C52.2882 55.6392 52.2079 55.8136 52.1305 55.9897C52.1076 56.0422 52.0835 56.0951 52.0619 56.1481C52.0019 56.2935 51.9487 56.4412 51.8978 56.591C51.8657 56.6863 51.8327 56.7822 51.8044 56.8793C51.7741 56.9818 51.7503 57.0861 51.7243 57.1904C51.6896 57.3316 51.6537 57.4718 51.6271 57.616C51.6149 57.6811 51.6089 57.749 51.5984 57.8146C51.5698 57.9967 51.5432 58.18 51.5279 58.3663C51.5275 58.3701 51.5263 58.3738 51.526 58.3777C51.5154 58.509 51.5057 58.6405 51.5002 58.7731C51.4952 58.8931 51.5925 58.9904 51.7123 58.9904H52.5029C52.6227 58.9904 52.7194 58.8931 52.7237 58.7731C52.7285 58.6403 52.7376 58.5087 52.7503 58.3777C53.0586 55.1954 55.7376 52.7064 58.9978 52.7064C62.4648 52.7064 65.2757 55.52 65.2757 58.9904C65.2757 62.4609 62.4648 65.2745 58.9978 65.2745H55.5871C55.372 65.2745 55.2958 65.5425 55.486 65.6432C56.4275 66.1418 57.4885 66.443 58.6145 66.5H58.9978C62.8824 66.5 66.0758 63.5448 66.46 59.7578C66.4849 59.5117 66.4994 59.2622 66.5 59.0096C66.5 58.7503 66.4856 58.4927 66.46 58.2403C66.0758 54.4534 62.8824 51.5 58.9978 51.5Z" fill="#2B2727"/>
</g>
<circle cx="8.07109" cy="8.07109" r="6.57109" transform="matrix(-1 0 0 1 112.102 53)" fill="#F9FAFC" stroke="#2B2727" stroke-width="3"/>
<path d="M118 95.8389C118 97.391 117.384 98.5393 115.517 98.9431C114.422 99.18 112.412 98.6327 112.102 97.0806L110.55 82.4905V115.085C110.55 116.637 108.998 118.5 106.825 118.5C104.652 118.5 103.1 116.327 103.1 115.085C103.1 116.327 101.858 118.5 99.064 118.5C97.5118 118.5 95.6493 116.948 95.6493 114.775V81.2488L92.545 86.8365C91.9242 87.7678 90.0616 88.3886 88.5095 87.1469L78.8863 77.5237C78.2654 76.5924 77.9698 74.9386 79.1967 73.4882C80.2729 72.4221 81.9905 72.5569 82.9218 73.1777L89.7512 79.6967L93.1659 73.4882C94.0531 71.9834 94.718 71.3152 96.5806 71.3152H110.373C113.654 71.3152 115.827 73.7986 116.068 75.9716L118 95.8389Z" fill="#F9FAFC"/>
<path d="M103.1 115.085C103.1 116.327 101.858 118.5 99.064 118.5C97.5118 118.5 95.6493 116.948 95.6493 114.775V81.2488L92.545 86.8365C91.9242 87.7678 90.0616 88.3886 88.5095 87.1469L78.8863 77.5237C78.2654 76.5924 77.9698 74.9386 79.1967 73.4882C80.2729 72.4221 81.9905 72.5569 82.9218 73.1777L89.7512 79.6967L93.1659 73.4882C94.0531 71.9834 94.718 71.3152 96.5806 71.3152H110.373C113.654 71.3152 115.827 73.7986 116.068 75.9716L118 95.8389C118 97.391 117.384 98.5393 115.517 98.9431C114.422 99.18 112.412 98.6327 112.102 97.0806L110.55 82.4905V115.085C110.55 116.637 108.998 118.5 106.825 118.5C104.652 118.5 103.1 116.327 103.1 115.085ZM103.1 115.085V98.6327" stroke="#2B2727" stroke-width="3" stroke-linecap="round" stroke-linejoin="round"/>
</g>
<defs>
<clipPath id="clip0_499_32458">
<rect width="128" height="128" fill="white"/>
</clipPath>
<clipPath id="clip1_499_32458">
<rect width="16" height="16" fill="white" transform="translate(57 55)"/>
</clipPath>
<clipPath id="clip2_499_32458">
<rect width="16" height="16" fill="white" transform="translate(51 51)"/>
</clipPath>
</defs>
</svg>
