<svg width="128" height="128" viewBox="0 0 128 128" fill="none" xmlns="http://www.w3.org/2000/svg">
<g clip-path="url(#clip0_64_29176)">
<path d="M67.7356 31.2704C69.2129 30.4771 70.9895 30.4771 72.4668 31.2704L115.798 54.5407C119.31 56.427 119.31 61.4643 115.798 63.3506L72.2645 86.7296C70.7871 87.5229 69.0105 87.5229 67.5332 86.7296L24.2024 63.4593C20.6899 61.573 20.6899 56.5357 24.2024 54.6494L67.7356 31.2704Z" fill="#F9FAFC"/>
<path d="M101 81.418V71.2975L72.2645 86.7296C70.7871 87.5229 69.0105 87.5229 67.5332 86.7296L39 71.4062V81.1965C39 87.9385 42.3229 94.3767 48.2634 97.5649C64.7737 106.426 76.5326 106.202 92.0149 97.6001C97.8017 94.385 101 88.0379 101 81.418Z" fill="#F9FAFC"/>
<path d="M72.2645 86.7296L115.798 63.3506C119.31 61.4643 119.31 56.427 115.798 54.5407L72.4668 31.2704C70.9895 30.4771 69.2129 30.4771 67.7356 31.2704L24.2024 54.6494C20.6899 56.5357 20.6899 61.573 24.2024 63.4593L67.5332 86.7296M72.2645 86.7296C70.7871 87.523 69.0105 87.523 67.5332 86.7296M72.2645 86.7296L101 71.2975V81.418C101 88.0379 97.8017 94.385 92.0149 97.6001C76.5326 106.202 64.7737 106.426 48.2634 97.5649C42.3229 94.3767 39 87.9385 39 81.1965V71.4062L67.5332 86.7296" stroke="#0057F2" stroke-width="3"/>
<path d="M72.2645 86.7296L115.798 63.3506C119.31 61.4643 119.31 56.427 115.798 54.5407L94.1322 42.9056L72.4668 31.2704C70.9895 30.4771 69.2129 30.4771 67.7356 31.2704L56.8523 37.1152M72.2645 86.7296C70.7871 87.523 69.0105 87.523 67.5332 86.7296M72.2645 86.7296L101 71.2975C100.166 74.4664 100.336 76.8422 101 81.418C102.36 87.7287 98.4748 94.232 92.0149 97.6001C76.3959 104.146 64.6363 104.359 48.2634 97.5649C41.8832 94.312 38.2262 87.8246 39 81.1965C39.4443 75.8335 39.5164 73.441 39 71.4062L67.5332 86.7296M67.5332 86.7296L56.7005 80.912L45.8678 75.0945L24.2024 63.4593C20.6899 61.573 20.6899 56.5357 24.2024 54.6494L45.969 42.9599" stroke="#0057F2" stroke-width="3" stroke-linecap="round" stroke-linejoin="round"/>
<path d="M81.4299 114.868L85.6333 108.12L89.8368 114.868C90.5291 115.979 90.4207 117.411 89.5688 118.406L87.9117 120.34C86.7144 121.738 84.5523 121.738 83.355 120.34L81.6978 118.406C80.846 117.411 80.7375 115.979 81.4299 114.868Z" fill="#F9FAFC"/>
<path d="M68 58L85.4681 78.3795C85.8164 78.7858 86.0511 79.278 86.1393 79.8058C87.624 88.6966 87.04 95.6118 85.6333 108.12M85.6333 108.12L81.4299 114.868C80.7375 115.979 80.846 117.411 81.6978 118.406L83.355 120.34C84.5523 121.738 86.7144 121.738 87.9117 120.34L89.5688 118.406C90.4207 117.411 90.5291 115.979 89.8368 114.868L85.6333 108.12Z" stroke="#0057F2" stroke-width="3" stroke-linecap="round" stroke-linejoin="round"/>
<path d="M61.7356 27.2704C63.2129 26.4771 64.9895 26.4771 66.4668 27.2704L109.798 50.5407C113.31 52.427 113.31 57.4643 109.798 59.3506L66.2645 82.7296C64.7871 83.5229 63.0105 83.5229 61.5332 82.7296L18.2024 59.4593C14.6899 57.573 14.6899 52.5357 18.2024 50.6494L61.7356 27.2704Z" fill="#F9FAFC"/>
<path d="M95 77.418V67.2975L66.2645 82.7296C64.7871 83.5229 63.0105 83.5229 61.5332 82.7296L33 67.4062V77.1965C33 83.9385 36.3229 90.3767 42.2634 93.5649C58.7737 102.426 70.5326 102.202 86.0149 93.6001C91.8017 90.385 95 84.0379 95 77.418Z" fill="#F9FAFC"/>
<path d="M66.2645 82.7296L109.798 59.3506C113.31 57.4643 113.31 52.427 109.798 50.5407L88.1322 38.9056L66.4668 27.2704C64.9895 26.4771 63.2129 26.4771 61.7356 27.2704L50.8523 33.1152M66.2645 82.7296C64.7871 83.523 63.0105 83.523 61.5332 82.7296M66.2645 82.7296L95 67.2975C94.1662 70.4664 94.3363 72.8422 95 77.418C96.3596 83.7287 92.4748 90.232 86.0149 93.6001C70.3959 100.146 58.6363 100.359 42.2634 93.5649C35.8832 90.312 32.2262 83.8246 33 77.1965C33.4443 71.8335 33.5164 69.441 33 67.4062L61.5332 82.7296M61.5332 82.7296L50.7005 76.912L39.8678 71.0945L18.2024 59.4593C14.6899 57.573 14.6899 52.5357 18.2024 50.6494L39.969 38.9599" stroke="#2B2727" stroke-width="3" stroke-linecap="round" stroke-linejoin="round"/>
<path d="M75.4299 110.868L79.6333 104.12L83.8368 110.868C84.5291 111.979 84.4207 113.411 83.5688 114.406L81.9117 116.34C80.7144 117.738 78.5523 117.738 77.355 116.34L75.6978 114.406C74.846 113.411 74.7375 111.979 75.4299 110.868Z" fill="#F9FAFC"/>
<path d="M62 54L79.4681 74.3795C79.8164 74.7858 80.0511 75.278 80.1393 75.8058C81.624 84.6966 81.04 91.6118 79.6333 104.12M79.6333 104.12L75.4299 110.868C74.7375 111.979 74.846 113.411 75.6978 114.406L77.355 116.34C78.5523 117.738 80.7144 117.738 81.9117 116.34L83.5688 114.406C84.4207 113.411 84.5291 111.979 83.8368 110.868L79.6333 104.12Z" stroke="#2B2727" stroke-width="3" stroke-linecap="round" stroke-linejoin="round"/>
</g>
<defs>
<clipPath id="clip0_64_29176">
<rect width="128" height="128" fill="white"/>
</clipPath>
</defs>
</svg>
