<svg width="128" height="128" viewBox="0 0 128 128" fill="none" xmlns="http://www.w3.org/2000/svg">
<g clip-path="url(#clip0_64_27853)">
<path d="M25 33.5217C25 29.1387 25 26.9472 25.8477 25.2731C26.5934 23.8005 27.7833 22.6033 29.2467 21.853C30.9105 21 33.0885 21 37.4444 21H82.5556C86.9115 21 89.0895 21 90.7533 21.853C92.2167 22.6033 93.4066 23.8005 94.1523 25.2731C95 26.9472 95 29.1387 95 33.5217V98.4783C95 102.861 95 105.053 94.1523 106.727C93.4066 108.199 92.2167 109.397 90.7533 110.147C89.0895 111 86.9115 111 82.5556 111H37.4444C33.0885 111 30.9105 111 29.2467 110.147C27.7833 109.397 26.5934 108.199 25.8477 106.727C25 105.053 25 102.861 25 98.4783V33.5217Z" fill="#F9FAFC" stroke="#0057F2" stroke-width="3" stroke-linejoin="round"/>
<path d="M54 107H65" stroke="#0057F2" stroke-linecap="round"/>
<g clip-path="url(#clip1_64_27853)">
<path d="M59.9966 61.6163C57.9024 61.6163 56.1571 63.0968 55.7344 65.0666C55.6928 65.2605 55.6616 65.4582 55.645 65.6599C55.6302 65.8394 55.777 65.9857 55.9567 65.9857H57.1454C57.3251 65.9857 57.4686 65.839 57.4927 65.6606C57.5207 65.4538 57.5744 65.2552 57.6481 65.0666C58.016 64.1254 58.9259 63.4573 59.9966 63.4574C61.3919 63.4574 62.5224 64.589 62.5225 65.9857C62.5225 67.3823 61.3919 68.5139 59.9966 68.514H49.4368C49.228 68.514 49.0731 68.7084 49.1261 68.9108C49.2371 69.3344 49.3706 69.7488 49.5285 70.1512C49.5765 70.2735 49.6953 70.3523 49.8265 70.3523H59.9966C62.4066 70.3523 64.3589 68.3981 64.3589 65.9857C64.3589 63.5733 62.4066 61.6163 59.9966 61.6163Z" fill="#2B2727"/>
<path d="M59.9966 58.1688C55.9952 58.1688 52.7 61.1838 52.2445 65.0666C52.2215 65.2627 52.2042 65.4601 52.195 65.6597C52.1866 65.8396 52.3329 65.9857 52.5126 65.9857H53.6985C53.8781 65.9857 54.0229 65.8395 54.0344 65.6598C54.0472 65.4594 54.0708 65.262 54.101 65.0666C54.5438 62.2031 57.0118 60.0071 59.9966 60.0071C63.2945 60.0071 65.9666 62.6846 65.9666 65.9857C65.9666 69.2869 63.2945 71.9614 59.9966 71.9614H51.0379C50.7824 71.9614 50.6282 72.2422 50.7745 72.4522C51.0811 72.8926 51.4179 73.3107 51.7829 73.7017C51.8435 73.7665 51.9284 73.8026 52.017 73.8026H59.9966C64.3093 73.8026 67.806 70.3026 67.8059 65.9857C67.8059 61.6688 64.3093 58.1688 59.9966 58.1688Z" fill="#2B2727"/>
<path d="M59.9966 54.75C56.5004 54.75 53.3762 56.3438 51.312 58.8474C51.09 59.1166 50.8792 59.3971 50.6827 59.6864C50.6698 59.7053 50.6582 59.7247 50.6455 59.7436C50.4685 60.0075 50.3052 60.2806 50.1505 60.5597C50.1235 60.6089 50.094 60.656 50.0676 60.7057C49.9323 60.9588 49.8119 61.2205 49.6958 61.4845C49.6615 61.5632 49.6253 61.6426 49.5928 61.7222C49.5028 61.9403 49.4231 62.1618 49.3468 62.3865C49.2986 62.5294 49.2491 62.6734 49.2066 62.8189C49.1612 62.9727 49.1254 63.1291 49.0864 63.2856C49.0343 63.4974 48.9805 63.7077 48.9406 63.9241C48.9223 64.0217 48.9134 64.1235 48.8977 64.2219C48.8546 64.495 48.8148 64.7701 48.7919 65.0494C48.7913 65.0552 48.7894 65.0607 48.7889 65.0666C48.773 65.2635 48.7585 65.4608 48.7503 65.6597C48.7428 65.8396 48.8888 65.9857 49.0685 65.9857H50.2544C50.434 65.9857 50.5791 65.8396 50.5856 65.6596C50.5928 65.4605 50.6064 65.2631 50.6254 65.0666C51.0879 60.2931 55.1064 56.5596 59.9966 56.5596C65.1973 56.5596 69.4136 60.78 69.4136 65.9857C69.4136 71.1914 65.1973 75.4118 59.9966 75.4117H54.8806C54.558 75.4117 54.4438 75.8137 54.729 75.9647C56.1413 76.7127 57.7328 77.1645 59.4217 77.25H59.9966C65.8236 77.25 70.6136 72.8171 71.19 67.1368C71.2274 66.7675 71.2491 66.3933 71.25 66.0143C71.25 65.6255 71.2284 65.2391 71.19 64.8604C70.6136 59.18 65.8236 54.75 59.9966 54.75Z" fill="#2B2727"/>
</g>
<path d="M85 74.3429C85 70.0225 85 67.8622 85.8175 66.2121C86.5365 64.7605 87.6839 63.5804 89.0951 62.8408C90.6994 62 92.7996 62 97 62H103C107.2 62 109.301 62 110.905 62.8408C112.316 63.5804 113.463 64.7605 114.183 66.2121C115 67.8622 115 70.0225 115 74.3429V103.657C115 107.978 115 110.138 114.183 111.788C113.463 113.239 112.316 114.42 110.905 115.159C109.301 116 107.2 116 103 116H97C92.7996 116 90.6994 116 89.0951 115.159C87.6839 114.42 86.5365 113.239 85.8175 111.788C85 110.138 85 107.978 85 103.657V74.3429Z" fill="#F9FAFC" stroke="#0057F2" stroke-width="3" stroke-linejoin="round"/>
<g clip-path="url(#clip2_64_27853)">
<path d="M100.498 87.4908C99.5386 87.4908 98.7387 88.1694 98.5449 89.0722C98.5259 89.1611 98.5116 89.2517 98.5039 89.3441C98.4972 89.4264 98.5645 89.4934 98.6468 89.4934H99.1916C99.274 89.4934 99.3398 89.4262 99.3508 89.3444C99.3637 89.2497 99.3883 89.1586 99.4221 89.0722C99.5907 88.6408 100.008 88.3346 100.498 88.3346C101.138 88.3346 101.656 88.8533 101.656 89.4934C101.656 90.1336 101.138 90.6522 100.498 90.6522H95.6585C95.5628 90.6522 95.4918 90.7414 95.5161 90.8341C95.567 91.0283 95.6282 91.2182 95.7006 91.4026C95.7226 91.4587 95.777 91.4948 95.8371 91.4948H100.498C101.603 91.4948 102.498 90.5991 102.498 89.4934C102.498 88.3878 101.603 87.4908 100.498 87.4908Z" fill="#2B2727"/>
<path d="M100.498 85.9107C98.6645 85.9107 97.1542 87.2926 96.9454 89.0722C96.9348 89.1621 96.9269 89.2525 96.9227 89.344C96.9189 89.4265 96.9859 89.4934 97.0683 89.4934H97.6118C97.6941 89.4934 97.7605 89.4264 97.7658 89.3441C97.7716 89.2522 97.7824 89.1617 97.7963 89.0722C97.9992 87.7597 99.1304 86.7532 100.498 86.7532C102.01 86.7532 103.235 87.9804 103.235 89.4934C103.235 91.0065 102.01 92.2323 100.498 92.2323H96.3924C96.2752 92.2323 96.2046 92.361 96.2716 92.4573C96.4122 92.6591 96.5665 92.8507 96.7338 93.0299C96.7616 93.0597 96.8005 93.0762 96.8411 93.0762H100.498C102.475 93.0762 104.078 91.472 104.078 89.4934C104.078 87.5149 102.475 85.9107 100.498 85.9107Z" fill="#2B2727"/>
<path d="M100.498 84.3438C98.896 84.3438 97.4641 85.0743 96.518 86.2217C96.4163 86.3451 96.3196 86.4737 96.2296 86.6062C96.2236 86.6149 96.2184 86.6238 96.2125 86.6325C96.1314 86.7534 96.0565 86.8786 95.9857 87.0065C95.9732 87.0291 95.9597 87.0507 95.9477 87.0734C95.8856 87.1894 95.8304 87.3094 95.7772 87.4304C95.7615 87.4665 95.7449 87.5028 95.73 87.5393C95.6888 87.6393 95.6523 87.7408 95.6173 87.8438C95.5952 87.9093 95.5725 87.9753 95.553 88.042C95.5322 88.1125 95.5158 88.1842 95.4979 88.2559C95.4741 88.353 95.4494 88.4494 95.4311 88.5485C95.4227 88.5933 95.4186 88.6399 95.4114 88.685C95.3917 88.8102 95.3735 88.9363 95.3629 89.0643C95.3627 89.067 95.3618 89.0695 95.3616 89.0722C95.3543 89.1624 95.3477 89.2528 95.3439 89.344C95.3405 89.4265 95.4074 89.4934 95.4897 89.4934H96.0332C96.1156 89.4934 96.1821 89.4265 96.1851 89.344C96.1884 89.2527 96.1946 89.1623 96.2033 89.0722C96.4153 86.8843 98.2571 85.1732 100.498 85.1732C102.882 85.1732 104.815 87.1075 104.815 89.4934C104.815 91.8794 102.882 93.8137 100.498 93.8137H98.1536C98.0057 93.8137 97.9534 93.9979 98.0841 94.0672C98.7314 94.41 99.4609 94.617 100.235 94.6562H100.498C103.169 94.6562 105.365 92.6245 105.629 90.021C105.646 89.8518 105.656 89.6803 105.656 89.5066C105.656 89.3283 105.646 89.1512 105.629 88.9777C105.365 86.3742 103.169 84.3438 100.498 84.3438Z" fill="#2B2727"/>
</g>
<path d="M96 68.1373H103" stroke="#0057F2" stroke-width="3" stroke-linecap="round"/>
<path d="M94 111.51H105" stroke="#0057F2" stroke-linecap="round"/>
<path d="M19 29.5217C19 25.1387 19 22.9472 19.8477 21.2731C20.5934 19.8005 21.7833 18.6033 23.2467 17.853C24.9105 17 27.0885 17 31.4444 17H76.5556C80.9115 17 83.0895 17 84.7533 17.853C86.2167 18.6033 87.4066 19.8005 88.1523 21.2731C89 22.9472 89 25.1387 89 29.5217V94.4783C89 98.8613 89 101.053 88.1523 102.727C87.4066 104.199 86.2167 105.397 84.7533 106.147C83.0895 107 80.9115 107 76.5556 107H31.4444C27.0885 107 24.9105 107 23.2467 106.147C21.7833 105.397 20.5934 104.199 19.8477 102.727C19 101.053 19 98.8613 19 94.4783V29.5217Z" fill="#F9FAFC" stroke="#2B2727" stroke-width="3" stroke-linejoin="round"/>
<path d="M48 103H59" stroke="#2B2727" stroke-linecap="round"/>
<g clip-path="url(#clip3_64_27853)">
<path d="M53.9966 57.6163C51.9024 57.6163 50.1571 59.0968 49.7344 61.0666C49.6928 61.2605 49.6616 61.4582 49.645 61.6599C49.6302 61.8394 49.777 61.9857 49.9567 61.9857H51.1454C51.3251 61.9857 51.4686 61.839 51.4927 61.6606C51.5207 61.4538 51.5744 61.2552 51.6481 61.0666C52.016 60.1254 52.9259 59.4573 53.9966 59.4574C55.3919 59.4574 56.5224 60.589 56.5225 61.9857C56.5225 63.3823 55.3919 64.5139 53.9966 64.514H43.4368C43.228 64.514 43.0731 64.7084 43.1261 64.9108C43.2371 65.3344 43.3706 65.7488 43.5285 66.1512C43.5765 66.2735 43.6953 66.3523 43.8265 66.3523H53.9966C56.4066 66.3523 58.3589 64.3981 58.3589 61.9857C58.3589 59.5733 56.4066 57.6163 53.9966 57.6163Z" fill="#2B2727"/>
<path d="M53.9966 54.1688C49.9952 54.1688 46.7 57.1838 46.2445 61.0666C46.2215 61.2627 46.2042 61.4601 46.195 61.6597C46.1866 61.8396 46.3329 61.9857 46.5126 61.9857H47.6985C47.8781 61.9857 48.0229 61.8395 48.0344 61.6598C48.0472 61.4594 48.0708 61.262 48.101 61.0666C48.5438 58.2031 51.0118 56.0071 53.9966 56.0071C57.2945 56.0071 59.9666 58.6846 59.9666 61.9857C59.9666 65.2869 57.2945 67.9614 53.9966 67.9614H45.0379C44.7824 67.9614 44.6282 68.2422 44.7745 68.4522C45.0811 68.8926 45.4179 69.3107 45.7829 69.7017C45.8435 69.7665 45.9284 69.8026 46.017 69.8026H53.9966C58.3093 69.8026 61.806 66.3026 61.8059 61.9857C61.8059 57.6688 58.3093 54.1688 53.9966 54.1688Z" fill="#2B2727"/>
<path d="M53.9966 50.75C50.5004 50.75 47.3762 52.3438 45.312 54.8474C45.09 55.1166 44.8792 55.3971 44.6827 55.6864C44.6698 55.7053 44.6582 55.7247 44.6455 55.7436C44.4685 56.0075 44.3052 56.2806 44.1505 56.5597C44.1235 56.6089 44.094 56.656 44.0676 56.7057C43.9323 56.9588 43.8119 57.2205 43.6958 57.4845C43.6615 57.5632 43.6253 57.6426 43.5928 57.7222C43.5028 57.9403 43.4231 58.1618 43.3468 58.3865C43.2986 58.5294 43.2491 58.6734 43.2066 58.8189C43.1612 58.9727 43.1254 59.1291 43.0864 59.2856C43.0343 59.4974 42.9805 59.7077 42.9406 59.9241C42.9223 60.0217 42.9134 60.1235 42.8977 60.2219C42.8546 60.495 42.8148 60.7701 42.7919 61.0494C42.7913 61.0552 42.7894 61.0607 42.7889 61.0666C42.773 61.2635 42.7585 61.4608 42.7503 61.6597C42.7428 61.8396 42.8888 61.9857 43.0685 61.9857H44.2544C44.434 61.9857 44.5791 61.8396 44.5856 61.6596C44.5928 61.4605 44.6064 61.2631 44.6254 61.0666C45.0879 56.2931 49.1064 52.5596 53.9966 52.5596C59.1973 52.5596 63.4136 56.78 63.4136 61.9857C63.4136 67.1914 59.1973 71.4118 53.9966 71.4117H48.8806C48.558 71.4117 48.4438 71.8137 48.729 71.9647C50.1413 72.7127 51.7328 73.1645 53.4217 73.25H53.9966C59.8236 73.25 64.6136 68.8171 65.19 63.1368C65.2274 62.7675 65.2491 62.3933 65.25 62.0143C65.25 61.6255 65.2284 61.2391 65.19 60.8604C64.6136 55.18 59.8236 50.75 53.9966 50.75Z" fill="#2B2727"/>
</g>
<path d="M79 70.3429C79 66.0225 79 63.8622 79.8175 62.2121C80.5365 60.7605 81.6839 59.5804 83.0951 58.8408C84.6994 58 86.7996 58 91 58H97C101.2 58 103.301 58 104.905 58.8408C106.316 59.5804 107.463 60.7605 108.183 62.2121C109 63.8622 109 66.0225 109 70.3429V99.6571C109 103.978 109 106.138 108.183 107.788C107.463 109.239 106.316 110.42 104.905 111.159C103.301 112 101.2 112 97 112H91C86.7996 112 84.6994 112 83.0951 111.159C81.6839 110.42 80.5365 109.239 79.8175 107.788C79 106.138 79 103.978 79 99.6571V70.3429Z" fill="#F9FAFC" stroke="#2B2727" stroke-width="3" stroke-linejoin="round"/>
<g clip-path="url(#clip4_64_27853)">
<path d="M94.4985 83.4908C93.5386 83.4908 92.7387 84.1694 92.5449 85.0722C92.5259 85.1611 92.5116 85.2517 92.5039 85.3441C92.4972 85.4264 92.5645 85.4934 92.6468 85.4934H93.1916C93.274 85.4934 93.3398 85.4262 93.3508 85.3444C93.3637 85.2497 93.3883 85.1586 93.4221 85.0722C93.5907 84.6408 94.0077 84.3346 94.4985 84.3346C95.138 84.3346 95.6561 84.8533 95.6562 85.4934C95.6562 86.1336 95.138 86.6522 94.4985 86.6522H89.6585C89.5628 86.6522 89.4918 86.7414 89.5161 86.8341C89.567 87.0283 89.6282 87.2182 89.7006 87.4026C89.7226 87.4587 89.777 87.4948 89.8371 87.4948H94.4985C95.603 87.4948 96.4979 86.5991 96.4979 85.4934C96.4979 84.3878 95.603 83.4908 94.4985 83.4908Z" fill="#2B2727"/>
<path d="M94.4985 81.9107C92.6645 81.9107 91.1542 83.2926 90.9454 85.0722C90.9348 85.1621 90.9269 85.2525 90.9227 85.344C90.9189 85.4265 90.9859 85.4934 91.0683 85.4934H91.6118C91.6941 85.4934 91.7605 85.4264 91.7658 85.3441C91.7716 85.2522 91.7824 85.1617 91.7963 85.0722C91.9992 83.7597 93.1304 82.7532 94.4985 82.7532C96.01 82.7532 97.2347 83.9804 97.2347 85.4934C97.2347 87.0065 96.01 88.2323 94.4985 88.2323H90.3924C90.2752 88.2323 90.2046 88.361 90.2716 88.4573C90.4122 88.6591 90.5665 88.8507 90.7338 89.0299C90.7616 89.0597 90.8005 89.0762 90.8411 89.0762H94.4985C96.4751 89.0762 98.0777 87.472 98.0777 85.4934C98.0777 83.5149 96.4751 81.9107 94.4985 81.9107Z" fill="#2B2727"/>
<path d="M94.4985 80.3438C92.896 80.3438 91.4641 81.0743 90.518 82.2217C90.4163 82.3451 90.3196 82.4737 90.2296 82.6062C90.2236 82.6149 90.2184 82.6238 90.2125 82.6325C90.1314 82.7534 90.0565 82.8786 89.9857 83.0065C89.9732 83.0291 89.9597 83.0507 89.9477 83.0734C89.8856 83.1894 89.8304 83.3094 89.7772 83.4304C89.7615 83.4665 89.7449 83.5028 89.73 83.5393C89.6888 83.6393 89.6523 83.7408 89.6173 83.8438C89.5952 83.9093 89.5725 83.9753 89.553 84.042C89.5322 84.1125 89.5158 84.1842 89.4979 84.2559C89.4741 84.353 89.4494 84.4494 89.4311 84.5485C89.4227 84.5933 89.4186 84.6399 89.4114 84.685C89.3917 84.8102 89.3735 84.9363 89.3629 85.0643C89.3627 85.067 89.3618 85.0695 89.3616 85.0722C89.3543 85.1624 89.3477 85.2528 89.3439 85.344C89.3405 85.4265 89.4074 85.4934 89.4897 85.4934H90.0332C90.1156 85.4934 90.1821 85.4265 90.1851 85.344C90.1884 85.2527 90.1946 85.1623 90.2033 85.0722C90.4153 82.8843 92.2571 81.1732 94.4985 81.1732C96.8821 81.1732 98.8146 83.1075 98.8146 85.4934C98.8146 87.8794 96.8821 89.8137 94.4985 89.8137H92.1536C92.0057 89.8137 91.9534 89.9979 92.0841 90.0672C92.7314 90.41 93.4609 90.617 94.2349 90.6562H94.4985C97.1691 90.6562 99.3646 88.6245 99.6287 86.021C99.6459 85.8518 99.6558 85.6803 99.6563 85.5066C99.6563 85.3283 99.6463 85.1512 99.6287 84.9777C99.3646 82.3742 97.1691 80.3438 94.4985 80.3438Z" fill="#2B2727"/>
</g>
<path d="M90 64.1373H97" stroke="#2B2727" stroke-width="3" stroke-linecap="round"/>
<path d="M88 107.51H99" stroke="#2B2727" stroke-linecap="round"/>
</g>
<defs>
<clipPath id="clip0_64_27853">
<rect width="128" height="128" fill="white"/>
</clipPath>
<clipPath id="clip1_64_27853">
<rect width="24" height="24" fill="white" transform="translate(48 54)"/>
</clipPath>
<clipPath id="clip2_64_27853">
<rect width="11" height="11" fill="white" transform="translate(95 84)"/>
</clipPath>
<clipPath id="clip3_64_27853">
<rect width="24" height="24" fill="white" transform="translate(42 50)"/>
</clipPath>
<clipPath id="clip4_64_27853">
<rect width="11" height="11" fill="white" transform="translate(89 80)"/>
</clipPath>
</defs>
</svg>
