<svg width="128" height="128" viewBox="0 0 128 128" fill="none" xmlns="http://www.w3.org/2000/svg">
<g clip-path="url(#clip0_64_29421)">
<rect x="19.5" y="93.5" width="56" height="85" rx="6.5" transform="rotate(-90 19.5 93.5)" fill="#F9FAFC" stroke="#0057F2" stroke-width="3" stroke-linejoin="round"/>
<rect x="18" y="47" width="88" height="12" fill="#0057F2"/>
<path d="M26 71H61" stroke="#0057F2" stroke-width="2" stroke-linecap="round"/>
<path d="M26 79H51" stroke="#0057F2" stroke-width="2" stroke-linecap="round"/>
<g clip-path="url(#clip1_64_29421)">
<path d="M91.9983 79.8081C90.9512 79.8081 90.0785 80.5484 89.8672 81.5333C89.8464 81.6303 89.8308 81.7291 89.8225 81.83C89.8151 81.9197 89.8885 81.9928 89.9783 81.9928H90.5727C90.6625 81.9928 90.7343 81.9195 90.7464 81.8303C90.7604 81.7269 90.7872 81.6276 90.8241 81.5333C91.008 81.0627 91.463 80.7287 91.9983 80.7287C92.696 80.7287 93.2612 81.2945 93.2613 81.9928C93.2613 82.6912 92.696 83.257 91.9983 83.257H86.7184C86.614 83.257 86.5365 83.3542 86.5631 83.4554C86.6186 83.6672 86.6853 83.8744 86.7643 84.0756C86.7883 84.1368 86.8477 84.1761 86.9132 84.1761H91.9983C93.2033 84.1761 94.1795 83.199 94.1795 81.9928C94.1795 80.7867 93.2033 79.8081 91.9983 79.8081Z" fill="#2B2727"/>
<path d="M91.9983 78.0844C89.9976 78.0844 88.35 79.5919 88.1222 81.5333C88.1107 81.6313 88.1021 81.73 88.0975 81.8298C88.0933 81.9198 88.1665 81.9928 88.2563 81.9928H88.8492C88.9391 81.9928 89.0115 81.9198 89.0172 81.8299C89.0236 81.7297 89.0354 81.631 89.0505 81.5333C89.2719 80.1015 90.5059 79.0035 91.9983 79.0035C93.6473 79.0035 94.9833 80.3423 94.9833 81.9928C94.9833 83.6434 93.6473 84.9807 91.9983 84.9807H87.5189C87.3912 84.9807 87.3141 85.1211 87.3872 85.2261C87.5405 85.4463 87.7089 85.6553 87.8915 85.8508C87.9217 85.8833 87.9642 85.9013 88.0085 85.9013H91.9983C94.1547 85.9013 95.903 84.1513 95.9029 81.9928C95.9029 79.8344 94.1547 78.0844 91.9983 78.0844Z" fill="#2B2727"/>
<path d="M91.9983 76.375C90.2502 76.375 88.6881 77.1719 87.656 78.4237C87.545 78.5583 87.4396 78.6985 87.3413 78.8432C87.3349 78.8527 87.3291 78.8623 87.3227 78.8718C87.2342 79.0038 87.1526 79.1403 87.0753 79.2799C87.0617 79.3045 87.047 79.328 87.0338 79.3529C86.9662 79.4794 86.9059 79.6102 86.8479 79.7423C86.8307 79.7816 86.8127 79.8213 86.7964 79.8611C86.7514 79.9701 86.7115 80.0809 86.6734 80.1932C86.6493 80.2647 86.6245 80.3367 86.6033 80.4094C86.5806 80.4864 86.5627 80.5646 86.5432 80.6428C86.5172 80.7487 86.4903 80.8539 86.4703 80.962C86.4611 81.0108 86.4567 81.0617 86.4488 81.1109C86.4273 81.2475 86.4074 81.385 86.3959 81.5247C86.3957 81.5276 86.3947 81.5303 86.3945 81.5333C86.3865 81.6317 86.3793 81.7304 86.3751 81.8298C86.3714 81.9198 86.4444 81.9928 86.5342 81.9928H87.1272C87.217 81.9928 87.2896 81.9198 87.2928 81.8298C87.2964 81.7302 87.3032 81.6316 87.3127 81.5333C87.5439 79.1466 89.5532 77.2798 91.9983 77.2798C94.5986 77.2798 96.7068 79.39 96.7068 81.9928C96.7068 84.5957 94.5986 86.7059 91.9983 86.7059H89.4403C89.279 86.7059 89.2219 86.9068 89.3645 86.9824C90.0707 87.3563 90.8664 87.5822 91.7108 87.625H91.9983C94.9118 87.625 97.3068 85.4086 97.595 82.5684C97.6137 82.3838 97.6245 82.1967 97.625 82.0072C97.625 81.8127 97.6142 81.6195 97.595 81.4302C97.3068 78.59 94.9118 76.375 91.9983 76.375Z" fill="#2B2727"/>
</g>
<rect x="95.5" y="64.5" width="17" height="27" rx="6.5" stroke="#0057F2" stroke-width="3"/>
<rect x="89.5" y="80.5" width="30" height="30" rx="15" fill="#F9FAFC" stroke="#0057F2" stroke-width="3"/>
<path d="M99.0016 93.4758C99.3517 93.4527 99.664 93.2478 99.8247 92.9358C100.364 91.8879 101.57 91.2575 102.767 91.4116C103.109 91.4556 103.45 91.3203 103.668 91.0535C104.194 90.4118 105 90 105.907 90C107.416 90 108.636 91.1368 108.766 92.5596C108.813 93.0752 109.246 93.4695 109.764 93.4686L109.778 93.4686C109.778 93.4686 109.778 93.4686 109.779 93.4686C111.571 93.469 113 94.898 113 96.6308C113 98.3639 111.571 99.7931 109.778 99.7931H109.756H109.735H109.713H109.691H109.67H109.648H109.626H109.605H109.583H109.562H109.54H109.519H109.497H109.475H109.454H109.432H109.411H109.389H109.368H109.346H109.325H109.303H109.282H109.26H109.239H109.217H109.196H109.174H109.153H109.131H109.11H109.088H109.067H109.045H109.024H109.002H108.981H108.96H108.938H108.917H108.895H108.874H108.852H108.831H108.81H108.788H108.767H108.745H108.724H108.703H108.681H108.66H108.639H108.617H108.596H108.575H108.553H108.532H108.511H108.489H108.468H108.447H108.425H108.404H108.383H108.361H108.34H108.319H108.297H108.276H108.255H108.234H108.212H108.191H108.17H108.149H108.127H108.106H108.085H108.064H108.042H108.021H108H107.979H107.958H107.936H107.915H107.894H107.873H107.852H107.83H107.809H107.788H107.767H107.746H107.725H107.703H107.682H107.661H107.64H107.619H107.598H107.577H107.555H107.534H107.513H107.492H107.471H107.45H107.429H107.408H107.387H107.366H107.344H107.323H107.302H107.281H107.26H107.239H107.218H107.197H107.176H107.155H107.134H107.113H107.092H107.071H107.05H107.029H107.008H106.987H106.966H106.945H106.924H106.903H106.882H106.861H106.84H106.819H106.798H106.777H106.756H106.735H106.714H106.693H106.672H106.651H106.63H106.61H106.589H106.568H106.547H106.526H106.505H106.484H106.463H106.442H106.421H106.4H106.38H106.359H106.338H106.317H106.296H106.275H106.254H106.234H106.213H106.192H106.171H106.15H106.129H106.108H106.088H106.067H106.046H106.025H106.004H105.984H105.963H105.942H105.921H105.9H105.88H105.859H105.838H105.817H105.796H105.776H105.755H105.734H105.713H105.693H105.672H105.651H105.63H105.61H105.589H105.568H105.548H105.527H105.506H105.485H105.465H105.444H105.423H105.403H105.382H105.361H105.34H105.32H105.299H105.278H105.258H105.237H105.216H105.196H105.175H105.154H105.134H105.113H105.092H105.072H105.051H105.031H105.01H104.989H104.969H104.948H104.927H104.907H104.886H104.866H104.845H104.824H104.804H104.783H104.763H104.742H104.721H104.701H104.68H104.66H104.639H104.619H104.598H104.577H104.557H104.536H104.516H104.495H104.475H104.454H104.434H104.413H104.393H104.372H104.352H104.331H104.31H104.29H104.269H104.249H104.228H104.208H104.187H104.167H104.146H104.126H104.105H104.085H104.065H104.044H104.024H104.003H103.983H103.962H103.942H103.921H103.901H103.88H103.86H103.839H103.819H103.799H103.778H103.758H103.737H103.717H103.696H103.676H103.656H103.635H103.615H103.594H103.574H103.554H103.533H103.513H103.492H103.472H103.452H103.431H103.411H103.39H103.37H103.35H103.329H103.309H103.289H103.268H103.248H103.228H103.207H103.187H103.166H103.146H103.126H103.105H103.085H103.065H103.044H103.024H103.004H102.983H102.963H102.943H102.923H102.902H102.882H102.862H102.841H102.821H102.801H102.78H102.76H102.74H102.72H102.699H102.679H102.659H102.638H102.618H102.598H102.578H102.557H102.537H102.517H102.497H102.476H102.456H102.436H102.416H102.395H102.375H102.355H102.335H102.314H102.294H102.274H102.254H102.233H102.213H102.193H102.173H102.153H102.132H102.112H102.092H102.072H102.051H102.031H102.011H101.991H101.971H101.95H101.93H101.91H101.89H101.87H101.85H101.829H101.809H101.789H101.769H101.749H101.728H101.708H101.688H101.668H101.648H101.628H101.608H101.587H101.567H101.547H101.527H101.507H101.487H101.466H101.446H101.426H101.406H101.386H101.366H101.346H101.326H101.305H101.285H101.265H101.245H101.225H101.205H101.185H101.165H101.145H101.124H101.104H101.084H101.064H101.044H101.024H101.004H100.984H100.964H100.944H100.923H100.903H100.883H100.863H100.843H100.823H100.803H100.783H100.763H100.743H100.723H100.703H100.683H100.662H100.642H100.622H100.602H100.582H100.562H100.542H100.522H100.502H100.482H100.462H100.442H100.422H100.402H100.382H100.362H100.342H100.322H100.302H100.282H100.262H100.242H100.222H100.202H100.182H100.161H100.141H100.121H100.101H100.081H100.061H100.041H100.021H100.001H99.9814H99.9614H99.9414H99.9214H99.9014H99.8814H99.8614H99.8414H99.8214H99.8014H99.7814H99.7614H99.7414H99.7214H99.7015H99.6815H99.6615H99.6415H99.6215H99.6016H99.5816H99.5616H99.5416H99.5217H99.5017H99.4817H99.4617H99.4418H99.4218H99.4018H99.3819H99.3619H99.342H99.322H99.302H99.2821H99.2621H99.2422H99.2222C97.4291 99.7931 96 98.3639 96 96.6308C96 94.9694 97.3131 93.5874 99.0016 93.4758Z" fill="#F9FAFC" stroke="#0057F2" stroke-width="2" stroke-linejoin="round"/>
<rect x="13.5" y="89.5" width="56" height="85" rx="6.5" transform="rotate(-90 13.5 89.5)" fill="#F9FAFC" stroke="#2B2727" stroke-width="3" stroke-linejoin="round"/>
<rect x="12" y="43" width="88" height="12" fill="#2B2727"/>
<path d="M20 67H55" stroke="#2B2727" stroke-width="2" stroke-linecap="round"/>
<path d="M20 75H45" stroke="#2B2727" stroke-width="2" stroke-linecap="round"/>
<g clip-path="url(#clip2_64_29421)">
<path d="M85.9983 75.8081C84.9512 75.8081 84.0785 76.5484 83.8672 77.5333C83.8464 77.6303 83.8308 77.7291 83.8225 77.83C83.8151 77.9197 83.8885 77.9928 83.9783 77.9928H84.5727C84.6625 77.9928 84.7343 77.9195 84.7464 77.8303C84.7604 77.7269 84.7872 77.6276 84.8241 77.5333C85.008 77.0627 85.463 76.7287 85.9983 76.7287C86.696 76.7287 87.2612 77.2945 87.2613 77.9928C87.2613 78.6912 86.696 79.257 85.9983 79.257H80.7184C80.614 79.257 80.5365 79.3542 80.5631 79.4554C80.6186 79.6672 80.6853 79.8744 80.7643 80.0756C80.7883 80.1368 80.8477 80.1761 80.9132 80.1761H85.9983C87.2033 80.1761 88.1795 79.199 88.1795 77.9928C88.1795 76.7867 87.2033 75.8081 85.9983 75.8081Z" fill="#2B2727"/>
<path d="M85.9983 74.0844C83.9976 74.0844 82.35 75.5919 82.1222 77.5333C82.1107 77.6313 82.1021 77.73 82.0975 77.8298C82.0933 77.9198 82.1665 77.9928 82.2563 77.9928H82.8492C82.9391 77.9928 83.0115 77.9198 83.0172 77.8299C83.0236 77.7297 83.0354 77.631 83.0505 77.5333C83.2719 76.1015 84.5059 75.0035 85.9983 75.0035C87.6473 75.0035 88.9833 76.3423 88.9833 77.9928C88.9833 79.6434 87.6473 80.9807 85.9983 80.9807H81.5189C81.3912 80.9807 81.3141 81.1211 81.3872 81.2261C81.5405 81.4463 81.7089 81.6553 81.8915 81.8508C81.9217 81.8833 81.9642 81.9013 82.0085 81.9013H85.9983C88.1547 81.9013 89.903 80.1513 89.9029 77.9928C89.9029 75.8344 88.1547 74.0844 85.9983 74.0844Z" fill="#2B2727"/>
<path d="M85.9983 72.375C84.2502 72.375 82.6881 73.1719 81.656 74.4237C81.545 74.5583 81.4396 74.6985 81.3413 74.8432C81.3349 74.8527 81.3291 74.8623 81.3227 74.8718C81.2342 75.0038 81.1526 75.1403 81.0753 75.2799C81.0617 75.3045 81.047 75.328 81.0338 75.3529C80.9662 75.4794 80.9059 75.6102 80.8479 75.7423C80.8307 75.7816 80.8127 75.8213 80.7964 75.8611C80.7514 75.9701 80.7115 76.0809 80.6734 76.1932C80.6493 76.2647 80.6245 76.3367 80.6033 76.4094C80.5806 76.4864 80.5627 76.5646 80.5432 76.6428C80.5172 76.7487 80.4903 76.8539 80.4703 76.962C80.4611 77.0108 80.4567 77.0617 80.4488 77.1109C80.4273 77.2475 80.4074 77.385 80.3959 77.5247C80.3957 77.5276 80.3947 77.5303 80.3945 77.5333C80.3865 77.6317 80.3793 77.7304 80.3751 77.8298C80.3714 77.9198 80.4444 77.9928 80.5342 77.9928H81.1272C81.217 77.9928 81.2896 77.9198 81.2928 77.8298C81.2964 77.7302 81.3032 77.6316 81.3127 77.5333C81.5439 75.1466 83.5532 73.2798 85.9983 73.2798C88.5986 73.2798 90.7068 75.39 90.7068 77.9928C90.7068 80.5957 88.5986 82.7059 85.9983 82.7059H83.4403C83.279 82.7059 83.2219 82.9068 83.3645 82.9824C84.0707 83.3563 84.8664 83.5822 85.7108 83.625H85.9983C88.9118 83.625 91.3068 81.4086 91.595 78.5684C91.6137 78.3838 91.6245 78.1967 91.625 78.0072C91.625 77.8127 91.6142 77.6195 91.595 77.4302C91.3068 74.59 88.9118 72.375 85.9983 72.375Z" fill="#2B2727"/>
</g>
<rect x="89.5" y="60.5" width="17" height="27" rx="6.5" stroke="#2B2727" stroke-width="3"/>
<rect x="83.5" y="76.5" width="30" height="30" rx="15" fill="#F9FAFC" stroke="#2B2727" stroke-width="3"/>
<path d="M93.0016 89.4758C93.3517 89.4527 93.664 89.2478 93.8247 88.9358C94.3644 87.8879 95.5702 87.2575 96.7673 87.4116C97.1093 87.4556 97.4499 87.3203 97.6684 87.0535C98.1942 86.4118 98.9997 86 99.9074 86C101.416 86 102.636 87.1368 102.766 88.5596C102.813 89.0752 103.246 89.4695 103.764 89.4686L103.778 89.4686C103.778 89.4686 103.778 89.4686 103.779 89.4686C105.571 89.469 107 90.898 107 92.6308C107 94.3639 105.571 95.7931 103.778 95.7931H103.756H103.735H103.713H103.691H103.67H103.648H103.626H103.605H103.583H103.562H103.54H103.519H103.497H103.475H103.454H103.432H103.411H103.389H103.368H103.346H103.325H103.303H103.282H103.26H103.239H103.217H103.196H103.174H103.153H103.131H103.11H103.088H103.067H103.045H103.024H103.002H102.981H102.96H102.938H102.917H102.895H102.874H102.852H102.831H102.81H102.788H102.767H102.745H102.724H102.703H102.681H102.66H102.639H102.617H102.596H102.575H102.553H102.532H102.511H102.489H102.468H102.447H102.425H102.404H102.383H102.361H102.34H102.319H102.297H102.276H102.255H102.234H102.212H102.191H102.17H102.149H102.127H102.106H102.085H102.064H102.042H102.021H102H101.979H101.958H101.936H101.915H101.894H101.873H101.852H101.83H101.809H101.788H101.767H101.746H101.725H101.703H101.682H101.661H101.64H101.619H101.598H101.577H101.555H101.534H101.513H101.492H101.471H101.45H101.429H101.408H101.387H101.366H101.344H101.323H101.302H101.281H101.26H101.239H101.218H101.197H101.176H101.155H101.134H101.113H101.092H101.071H101.05H101.029H101.008H100.987H100.966H100.945H100.924H100.903H100.882H100.861H100.84H100.819H100.798H100.777H100.756H100.735H100.714H100.693H100.672H100.651H100.63H100.61H100.589H100.568H100.547H100.526H100.505H100.484H100.463H100.442H100.421H100.4H100.38H100.359H100.338H100.317H100.296H100.275H100.254H100.234H100.213H100.192H100.171H100.15H100.129H100.108H100.088H100.067H100.046H100.025H100.004H99.9836H99.9628H99.942H99.9212H99.9004H99.8796H99.8588H99.838H99.8173H99.7965H99.7757H99.755H99.7342H99.7134H99.6927H99.6719H99.6512H99.6305H99.6097H99.589H99.5683H99.5475H99.5268H99.5061H99.4854H99.4647H99.444H99.4233H99.4026H99.3819H99.3612H99.3405H99.3198H99.2991H99.2784H99.2578H99.2371H99.2164H99.1957H99.1751H99.1544H99.1338H99.1131H99.0925H99.0718H99.0512H99.0306H99.0099H98.9893H98.9687H98.9481H98.9274H98.9068H98.8862H98.8656H98.845H98.8244H98.8038H98.7832H98.7626H98.742H98.7214H98.7009H98.6803H98.6597H98.6391H98.6186H98.598H98.5775H98.5569H98.5363H98.5158H98.4953H98.4747H98.4542H98.4336H98.4131H98.3926H98.372H98.3515H98.331H98.3105H98.29H98.2695H98.249H98.2284H98.2079H98.1874H98.167H98.1465H98.126H98.1055H98.085H98.0645H98.0441H98.0236H98.0031H97.9826H97.9622H97.9417H97.9213H97.9008H97.8804H97.8599H97.8395H97.819H97.7986H97.7782H97.7577H97.7373H97.7169H97.6964H97.676H97.6556H97.6352H97.6148H97.5944H97.574H97.5536H97.5332H97.5128H97.4924H97.472H97.4516H97.4312H97.4108H97.3905H97.3701H97.3497H97.3293H97.309H97.2886H97.2682H97.2479H97.2275H97.2072H97.1868H97.1665H97.1461H97.1258H97.1055H97.0851H97.0648H97.0445H97.0241H97.0038H96.9835H96.9632H96.9428H96.9225H96.9022H96.8819H96.8616H96.8413H96.821H96.8007H96.7804H96.7601H96.7398H96.7195H96.6992H96.679H96.6587H96.6384H96.6181H96.5979H96.5776H96.5573H96.5371H96.5168H96.4965H96.4763H96.456H96.4358H96.4155H96.3953H96.375H96.3548H96.3345H96.3143H96.2941H96.2738H96.2536H96.2334H96.2132H96.1929H96.1727H96.1525H96.1323H96.1121H96.0919H96.0717H96.0514H96.0312H96.011H95.9908H95.9706H95.9505H95.9303H95.9101H95.8899H95.8697H95.8495H95.8293H95.8092H95.789H95.7688H95.7486H95.7285H95.7083H95.6881H95.668H95.6478H95.6277H95.6075H95.5873H95.5672H95.547H95.5269H95.5068H95.4866H95.4665H95.4463H95.4262H95.4061H95.3859H95.3658H95.3457H95.3255H95.3054H95.2853H95.2652H95.2451H95.2249H95.2048H95.1847H95.1646H95.1445H95.1244H95.1043H95.0842H95.0641H95.044H95.0239H95.0038H94.9837H94.9636H94.9435H94.9234H94.9034H94.8833H94.8632H94.8431H94.823H94.803H94.7829H94.7628H94.7428H94.7227H94.7026H94.6826H94.6625H94.6424H94.6224H94.6023H94.5823H94.5622H94.5422H94.5221H94.5021H94.482H94.462H94.4419H94.4219H94.4018H94.3818H94.3618H94.3417H94.3217H94.3017H94.2816H94.2616H94.2416H94.2216H94.2015H94.1815H94.1615H94.1415H94.1215H94.1014H94.0814H94.0614H94.0414H94.0214H94.0014H93.9814H93.9614H93.9414H93.9214H93.9014H93.8814H93.8614H93.8414H93.8214H93.8014H93.7814H93.7614H93.7414H93.7214H93.7015H93.6815H93.6615H93.6415H93.6215H93.6016H93.5816H93.5616H93.5416H93.5217H93.5017H93.4817H93.4617H93.4418H93.4218H93.4018H93.3819H93.3619H93.342H93.322H93.302H93.2821H93.2621H93.2422H93.2222C91.4291 95.7931 90 94.3639 90 92.6308C90 90.9694 91.3131 89.5874 93.0016 89.4758Z" fill="#F9FAFC" stroke="#2B2727" stroke-width="2" stroke-linejoin="round"/>
</g>
<defs>
<clipPath id="clip0_64_29421">
<rect width="128" height="128" fill="white"/>
</clipPath>
<clipPath id="clip1_64_29421">
<rect width="12" height="12" fill="white" transform="translate(86 76)"/>
</clipPath>
<clipPath id="clip2_64_29421">
<rect width="12" height="12" fill="white" transform="translate(80 72)"/>
</clipPath>
</defs>
</svg>
