<svg width="128" height="128" viewBox="0 0 128 128" fill="none" xmlns="http://www.w3.org/2000/svg">
<g clip-path="url(#clip0_420_17951)">
<path d="M115 68C115 92.8528 94.8528 113 70 113C45.1472 113 25 92.8528 25 68C25 43.1472 45.1472 23 70 23C94.8528 23 115 43.1472 115 68Z" fill="#F9FAFC"/>
<path d="M47 43.9999L70 66.9999M70 66.9999L93 89.9999M70 66.9999L47 89.9999M70 66.9999L93 43.9999M115 68C115 92.8528 94.8528 113 70 113C45.1472 113 25 92.8528 25 68C25 43.1472 45.1472 23 70 23C94.8528 23 115 43.1472 115 68Z" stroke="#0057F2" stroke-width="3" stroke-linecap="round" stroke-linejoin="round"/>
<path d="M109 64C109 88.8528 88.8528 109 64 109C39.1472 109 19 88.8528 19 64C19 39.1472 39.1472 19 64 19C88.8528 19 109 39.1472 109 64Z" fill="#F9FAFC"/>
<path d="M41 39.9999L64 62.9999M64 62.9999L87 85.9999M64 62.9999L41 85.9999M64 62.9999L87 39.9999M109 64C109 88.8528 88.8528 109 64 109C39.1472 109 19 88.8528 19 64C19 39.1472 39.1472 19 64 19C88.8528 19 109 39.1472 109 64Z" stroke="#2B2727" stroke-width="3" stroke-linecap="round" stroke-linejoin="round"/>
</g>
<defs>
<clipPath id="clip0_420_17951">
<rect width="128" height="128" fill="white"/>
</clipPath>
</defs>
</svg>
