<svg width="128" height="128" viewBox="0 0 128 128" fill="none" xmlns="http://www.w3.org/2000/svg">
<g clip-path="url(#clip0_13_1555)">
<rect x="15.5" y="34.5" width="85" height="67" rx="10.5" fill="#F9FAFC" stroke="#0057F2" stroke-width="3"/>
<path d="M32.917 46.5H51.0003M43 54.5H61.0833M65 62.5H83.0833M35.667 75.5H53.7503M56.75 83.5H74.8333M79.667 91.5H93.167" stroke="#0057F2" stroke-width="3" stroke-linecap="round"/>
<path d="M25.25 46.5C25.25 47.3284 24.5784 48 23.75 48C22.9216 48 22.25 47.3284 22.25 46.5C22.25 45.6716 22.9216 45 23.75 45C24.5784 45 25.25 45.6716 25.25 46.5Z" fill="#0057F2"/>
<path d="M25.25 54.5C25.25 55.3284 24.5784 56 23.75 56C22.9216 56 22.25 55.3284 22.25 54.5C22.25 53.6716 22.9216 53 23.75 53C24.5784 53 25.25 53.6716 25.25 54.5Z" fill="#0057F2"/>
<path d="M25.25 62.5C25.25 63.3284 24.5784 64 23.75 64C22.9216 64 22.25 63.3284 22.25 62.5C22.25 61.6716 22.9216 61 23.75 61C24.5784 61 25.25 61.6716 25.25 62.5Z" fill="#0057F2"/>
<path d="M25.25 75.5C25.25 76.3284 24.5784 77 23.75 77C22.9216 77 22.25 76.3284 22.25 75.5C22.25 74.6716 22.9216 74 23.75 74C24.5784 74 25.25 74.6716 25.25 75.5Z" fill="#0057F2"/>
<path d="M25.25 83.5C25.25 84.3284 24.5784 85 23.75 85C22.9216 85 22.25 84.3284 22.25 83.5C22.25 82.6716 22.9216 82 23.75 82C24.5784 82 25.25 82.6716 25.25 83.5Z" fill="#0057F2"/>
<path d="M25.25 91.5C25.25 92.3284 24.5784 93 23.75 93C22.9216 93 22.25 92.3284 22.25 91.5C22.25 90.6716 22.9216 90 23.75 90C24.5784 90 25.25 90.6716 25.25 91.5Z" fill="#0057F2"/>
<circle cx="100" cy="90" r="24.5" fill="#F9FAFC" stroke="#0057F2" stroke-width="3"/>
<path d="M99.5438 70.386V74.9474M99.5438 105.053V109.614M109.351 73.0138L108.439 74.5939M90.6491 105.406L89.7368 106.986M116.53 80.193L114.95 81.1053M84.1377 98.8947L82.5576 99.807M116.53 99.8071L114.95 98.8948M84.1377 81.1053L82.5576 80.193M109.351 106.986L108.439 105.406M90.6491 74.5939L89.7368 73.0138M79.9298 90H84.4912M114.596 90H119.158" stroke="#0057F2" stroke-width="2" stroke-linecap="round"/>
<path d="M90.6337 88.3818L99.5439 90.4561L112.206 77.6218" stroke="#0057F2" stroke-width="3" stroke-linecap="round" stroke-linejoin="round"/>
<rect x="9.5" y="30.5" width="85" height="67" rx="10.5" fill="#F9FAFC" stroke="#2B2727" stroke-width="3"/>
<path d="M26.917 42.5H45.0003M37 50.5H55.0833M59 58.5H77.0833M29.667 71.5H47.7503M50.75 79.5H68.8333M73.667 87.5H87.167" stroke="#2B2727" stroke-width="3" stroke-linecap="round"/>
<path d="M19.25 42.5C19.25 43.3284 18.5784 44 17.75 44C16.9216 44 16.25 43.3284 16.25 42.5C16.25 41.6716 16.9216 41 17.75 41C18.5784 41 19.25 41.6716 19.25 42.5Z" fill="#2B2727"/>
<path d="M19.25 50.5C19.25 51.3284 18.5784 52 17.75 52C16.9216 52 16.25 51.3284 16.25 50.5C16.25 49.6716 16.9216 49 17.75 49C18.5784 49 19.25 49.6716 19.25 50.5Z" fill="#2B2727"/>
<path d="M19.25 58.5C19.25 59.3284 18.5784 60 17.75 60C16.9216 60 16.25 59.3284 16.25 58.5C16.25 57.6716 16.9216 57 17.75 57C18.5784 57 19.25 57.6716 19.25 58.5Z" fill="#2B2727"/>
<path d="M19.25 71.5C19.25 72.3284 18.5784 73 17.75 73C16.9216 73 16.25 72.3284 16.25 71.5C16.25 70.6716 16.9216 70 17.75 70C18.5784 70 19.25 70.6716 19.25 71.5Z" fill="#2B2727"/>
<path d="M19.25 79.5C19.25 80.3284 18.5784 81 17.75 81C16.9216 81 16.25 80.3284 16.25 79.5C16.25 78.6716 16.9216 78 17.75 78C18.5784 78 19.25 78.6716 19.25 79.5Z" fill="#2B2727"/>
<path d="M19.25 87.5C19.25 88.3284 18.5784 89 17.75 89C16.9216 89 16.25 88.3284 16.25 87.5C16.25 86.6716 16.9216 86 17.75 86C18.5784 86 19.25 86.6716 19.25 87.5Z" fill="#2B2727"/>
<circle cx="94" cy="86" r="24.5" fill="#F9FAFC" stroke="#2B2727" stroke-width="3"/>
<path d="M93.5438 66.386V70.9474M93.5438 101.053V105.614M103.351 69.0138L102.439 70.5939M84.6491 101.406L83.7368 102.986M110.53 76.193L108.95 77.1053M78.1377 94.8947L76.5576 95.807M110.53 95.8071L108.95 94.8948M78.1377 77.1053L76.5576 76.193M103.351 102.986L102.439 101.406M84.6491 70.5939L83.7368 69.0138M73.9298 86H78.4912M108.596 86H113.158" stroke="#2B2727" stroke-width="2" stroke-linecap="round"/>
<path d="M84.6337 84.3818L93.5439 86.4561L106.206 73.6218" stroke="#2B2727" stroke-width="3" stroke-linecap="round" stroke-linejoin="round"/>
</g>
<defs>
<clipPath id="clip0_13_1555">
<rect width="128" height="128" fill="white"/>
</clipPath>
</defs>
</svg>
