<svg width="128" height="128" viewBox="0 0 128 128" fill="none" xmlns="http://www.w3.org/2000/svg">
<g clip-path="url(#clip0_461_64658)">
<path d="M39.1311 106.892C39.1311 106.063 38.4595 105.392 37.6311 105.392H35.6863C34.4323 105.392 33.7319 103.945 34.5099 102.961L41.4951 94.1324C42.0957 93.3733 43.2473 93.3733 43.8478 94.1324L50.8331 102.961C51.6111 103.945 50.9107 105.392 49.6567 105.392H47.8146C46.9861 105.392 46.3146 106.063 46.3146 106.892V113C46.3146 114.933 44.7475 116.5 42.8145 116.5H42.6311C40.6981 116.5 39.1311 114.933 39.1311 113V106.892ZM66.9042 97.6341C66.9042 96.8057 66.2326 96.1341 65.4042 96.1341H63.4594C62.2054 96.1341 61.5049 94.6868 62.283 93.7034L69.2682 84.8745C69.8688 84.1155 71.0204 84.1155 71.6209 84.8745L78.6062 93.7034C79.3842 94.6868 78.6838 96.1341 77.4298 96.1341H75.5876C74.7592 96.1341 74.0876 96.8057 74.0876 97.6341V113C74.0876 114.933 72.5206 116.5 70.5876 116.5H70.4042C68.4712 116.5 66.9042 114.933 66.9042 113V97.6341ZM94.6773 88.3767C94.6773 87.5483 94.0057 86.8767 93.1773 86.8767H91.2325C89.9785 86.8767 89.2781 85.4294 90.0562 84.446L97.0414 75.6171C97.642 74.8581 98.7935 74.8581 99.3941 75.6171L106.379 84.446C107.157 85.4294 106.457 86.8767 105.203 86.8767H103.361C102.532 86.8767 101.861 87.5483 101.861 88.3767V113C101.861 114.933 100.294 116.5 98.3608 116.5H98.1773C96.2443 116.5 94.6773 114.933 94.6773 113V88.3767Z" fill="#F9FAFC" stroke="#0057F2" stroke-width="3" stroke-linejoin="round"/>
<path d="M80 28C80 32.4183 76.4183 36 72 36C67.5817 36 64 32.4183 64 28C64 23.5817 67.5817 20 72 20C76.4183 20 80 23.5817 80 28Z" fill="#F9FAFC"/>
<path d="M51.3215 58.0188C50.2169 56.1056 50.8724 53.6593 52.7856 52.5547L89.5634 31.321C91.4765 30.2165 93.9229 30.872 95.0275 32.7851C96.132 34.6983 95.4765 37.1447 93.5634 38.2492L78 47.2347V55.9373L90.3118 48.8291C92.225 47.7245 94.6713 48.38 95.7759 50.2932C95.9177 50.5388 96.0305 50.7932 96.1153 51.0524C96.2448 51.446 96.3149 51.8666 96.3149 52.3035V65.408C96.3149 67.6171 94.524 69.408 92.3149 69.408C90.1057 69.408 88.3149 67.6172 88.3149 65.408V59.2196L57.534 76.991C55.6209 78.0955 53.1745 77.44 52.0699 75.5269C50.9654 73.6137 51.6209 71.1673 53.534 70.0628L70 60.5561V51.8535L56.7856 59.4829C54.8724 60.5875 52.426 59.932 51.3215 58.0188Z" fill="#F9FAFC"/>
<path d="M80 28C80 32.4183 76.4183 36 72 36C67.5817 36 64 32.4183 64 28C64 23.5817 67.5817 20 72 20C76.4183 20 80 23.5817 80 28Z" stroke="#0057F2" stroke-width="3"/>
<path d="M51.3215 58.0188C50.2169 56.1056 50.8724 53.6593 52.7856 52.5547L89.5634 31.321C91.4765 30.2165 93.9229 30.872 95.0275 32.7851C96.132 34.6983 95.4765 37.1447 93.5634 38.2492L78 47.2347V55.9373L90.3118 48.8291C92.225 47.7245 94.6713 48.38 95.7759 50.2932C95.9177 50.5388 96.0305 50.7932 96.1153 51.0524C96.2448 51.446 96.3149 51.8666 96.3149 52.3035V65.408C96.3149 67.6171 94.524 69.408 92.3149 69.408C90.1057 69.408 88.3149 67.6172 88.3149 65.408V59.2196L57.534 76.991C55.6209 78.0955 53.1745 77.44 52.0699 75.5269C50.9654 73.6137 51.6209 71.1673 53.534 70.0628L70 60.5561V51.8535L56.7856 59.4829C54.8724 60.5875 52.426 59.932 51.3215 58.0188Z" stroke="#0057F2" stroke-width="3"/>
<path d="M30.701 66.7503C30.2868 66.0328 30.5326 65.1154 31.25 64.7012L38.1782 60.7012C38.8956 60.287 39.813 60.5328 40.2272 61.2503C40.6415 61.9677 40.3956 62.8851 39.6782 63.2993L32.75 67.2993C32.0326 67.7135 31.1152 67.4677 30.701 66.7503Z" fill="#0057F2"/>
<path d="M33.701 86.7502C33.2868 86.0328 33.5326 85.1154 34.25 84.7012L41.1782 80.7012C41.8956 80.287 42.813 80.5328 43.2272 81.2502C43.6415 81.9677 43.3956 82.8851 42.6782 83.2993L35.75 87.2993C35.0326 87.7135 34.1152 87.4677 33.701 86.7502Z" fill="#0057F2"/>
<path d="M29.25 76.7012C28.5326 77.1154 28.2868 78.0328 28.701 78.7502C29.1152 79.4677 30.0326 79.7135 30.75 79.2993L44.6064 71.2993C45.3239 70.8851 45.5697 69.9677 45.1555 69.2502C44.7412 68.5328 43.8239 68.287 43.1064 68.7012L29.25 76.7012Z" fill="#0057F2"/>
<path d="M33.1311 102.892C33.1311 102.063 32.4595 101.392 31.6311 101.392H29.6863C28.4323 101.392 27.7319 99.9446 28.5099 98.9612L35.4951 90.1324C36.0957 89.3733 37.2473 89.3733 37.8478 90.1324L44.8331 98.9612C45.6111 99.9446 44.9107 101.392 43.6567 101.392H41.8146C40.9861 101.392 40.3146 102.063 40.3146 102.892V109C40.3146 110.933 38.7475 112.5 36.8145 112.5H36.6311C34.6981 112.5 33.1311 110.933 33.1311 109V102.892ZM60.9042 93.6341C60.9042 92.8057 60.2326 92.1341 59.4042 92.1341H57.4594C56.2054 92.1341 55.5049 90.6868 56.283 89.7034L63.2682 80.8745C63.8688 80.1155 65.0204 80.1155 65.6209 80.8745L72.6062 89.7034C73.3842 90.6868 72.6838 92.1341 71.4298 92.1341H69.5876C68.7592 92.1341 68.0876 92.8057 68.0876 93.6341V109C68.0876 110.933 66.5206 112.5 64.5876 112.5H64.4042C62.4712 112.5 60.9042 110.933 60.9042 109V93.6341ZM88.6773 84.3767C88.6773 83.5483 88.0057 82.8767 87.1773 82.8767H85.2325C83.9785 82.8767 83.2781 81.4294 84.0562 80.446L91.0414 71.6171C91.642 70.8581 92.7935 70.8581 93.3941 71.6171L100.379 80.446C101.157 81.4294 100.457 82.8767 99.203 82.8767H97.3608C96.5324 82.8767 95.8608 83.5483 95.8608 84.3767V109C95.8608 110.933 94.2938 112.5 92.3608 112.5H92.1773C90.2443 112.5 88.6773 110.933 88.6773 109V84.3767Z" fill="#F9FAFC" stroke="#2B2727" stroke-width="3" stroke-linejoin="round"/>
<path d="M74 24C74 28.4183 70.4183 32 66 32C61.5817 32 58 28.4183 58 24C58 19.5817 61.5817 16 66 16C70.4183 16 74 19.5817 74 24Z" fill="#F9FAFC"/>
<path d="M45.3215 54.0188C44.2169 52.1056 44.8724 49.6593 46.7856 48.5547L83.5634 27.321C85.4765 26.2165 87.9229 26.872 89.0275 28.7851C90.132 30.6983 89.4765 33.1447 87.5634 34.2492L72 43.2347V51.9373L84.3118 44.8291C86.225 43.7245 88.6713 44.38 89.7759 46.2932C89.9177 46.5388 90.0305 46.7932 90.1153 47.0524C90.2448 47.446 90.3149 47.8666 90.3149 48.3035V61.408C90.3149 63.6171 88.524 65.408 86.3149 65.408C84.1057 65.408 82.3149 63.6172 82.3149 61.408V55.2196L51.534 72.991C49.6209 74.0955 47.1745 73.44 46.0699 71.5269C44.9654 69.6137 45.6209 67.1673 47.534 66.0628L64 56.5561V47.8535L50.7856 55.4829C48.8724 56.5875 46.426 55.932 45.3215 54.0188Z" fill="#F9FAFC"/>
<path d="M74 24C74 28.4183 70.4183 32 66 32C61.5817 32 58 28.4183 58 24C58 19.5817 61.5817 16 66 16C70.4183 16 74 19.5817 74 24Z" stroke="#2B2727" stroke-width="3"/>
<path d="M45.3215 54.0188C44.2169 52.1056 44.8724 49.6593 46.7856 48.5547L83.5634 27.321C85.4765 26.2165 87.9229 26.872 89.0275 28.7851C90.132 30.6983 89.4765 33.1447 87.5634 34.2492L72 43.2347V51.9373L84.3118 44.8291C86.225 43.7245 88.6713 44.38 89.7759 46.2932C89.9177 46.5388 90.0305 46.7932 90.1153 47.0524C90.2448 47.446 90.3149 47.8666 90.3149 48.3035V61.408C90.3149 63.6171 88.524 65.408 86.3149 65.408C84.1057 65.408 82.3149 63.6172 82.3149 61.408V55.2196L51.534 72.991C49.6209 74.0955 47.1745 73.44 46.0699 71.5269C44.9654 69.6137 45.6209 67.1673 47.534 66.0628L64 56.5561V47.8535L50.7856 55.4829C48.8724 56.5875 46.426 55.932 45.3215 54.0188Z" stroke="#2B2727" stroke-width="3"/>
<path d="M24.701 62.7503C24.2868 62.0328 24.5326 61.1154 25.25 60.7012L32.1782 56.7012C32.8956 56.287 33.813 56.5328 34.2272 57.2503C34.6415 57.9677 34.3956 58.8851 33.6782 59.2993L26.75 63.2993C26.0326 63.7135 25.1152 63.4677 24.701 62.7503Z" fill="#2B2727"/>
<path d="M27.701 82.7502C27.2868 82.0328 27.5326 81.1154 28.25 80.7012L35.1782 76.7012C35.8956 76.287 36.813 76.5328 37.2272 77.2502C37.6415 77.9677 37.3956 78.8851 36.6782 79.2993L29.75 83.2993C29.0326 83.7135 28.1152 83.4677 27.701 82.7502Z" fill="#2B2727"/>
<path d="M23.25 72.7012C22.5326 73.1154 22.2868 74.0328 22.701 74.7502C23.1152 75.4677 24.0326 75.7135 24.75 75.2993L38.6064 67.2993C39.3239 66.8851 39.5697 65.9677 39.1555 65.2502C38.7412 64.5328 37.8239 64.287 37.1064 64.7012L23.25 72.7012Z" fill="#2B2727"/>
</g>
<defs>
<clipPath id="clip0_461_64658">
<rect width="128" height="128" fill="white"/>
</clipPath>
</defs>
</svg>
