<svg width="128" height="128" viewBox="0 0 128 128" fill="none" xmlns="http://www.w3.org/2000/svg">
<g clip-path="url(#clip0_83_36168)">
<path d="M55.2429 25.7448C53.9496 22.1674 49.8662 20.4698 46.4179 22.076C42.9697 23.6822 41.6418 27.9003 43.5481 31.1922L50.4461 43.1035C47.3232 46.6305 45.7803 51.497 46.6619 56.4967C48.1964 65.199 56.4949 71.0097 65.1972 69.4753C73.8995 67.9408 79.7102 59.6423 78.1757 50.94C77.5452 47.3642 75.7727 44.2767 73.2994 41.9863L76.4852 26.8525C77.2962 22.9997 74.6179 19.2842 70.7063 18.8357C66.7947 18.3872 63.3449 21.4001 63.2629 25.3365L63.0048 37.7258C61.9054 37.6866 60.7853 37.7609 59.6584 37.9583L55.2429 25.7448Z" fill="#F9FAFC" stroke="#0057F2" stroke-width="3" stroke-linejoin="round"/>
<path d="M15.2297 61.6457C15.2297 58.1103 18.2741 56.3422 21.7953 56.6581C31.5866 57.5365 50.2995 59.0391 63.7297 59.0391C77.16 59.0391 95.8729 57.5365 105.664 56.6581C109.185 56.3422 112.23 58.1103 112.23 61.6457C112.23 64.7087 109.924 66.2705 106.874 66.5487C102.321 66.9639 95.3308 67.5622 87.7399 68.0683C79.6798 68.6057 70.9429 69.0391 63.7297 69.0391C55.7812 69.0391 45.9823 68.5128 37.2777 67.901C30.6437 67.4348 24.6453 66.919 20.5858 66.5487C17.5354 66.2705 15.2297 64.7087 15.2297 61.6457Z" fill="#F9FAFC"/>
<path d="M40.8863 118.039H84.1137C88.8633 118.039 92.567 113.925 92.0697 109.202L87.7399 68.0683C79.6798 68.6057 70.9429 69.0391 63.7297 69.0391C55.7812 69.0391 45.9823 68.5128 37.2777 67.901L32.9303 109.202C32.4331 113.925 36.1367 118.039 40.8863 118.039Z" fill="#F9FAFC"/>
<path d="M37.2777 67.901C45.9823 68.5128 55.7812 69.0391 63.7297 69.0391C70.9429 69.0391 79.6798 68.6057 87.7399 68.0683M37.2777 67.901C30.6437 67.4348 24.6453 66.919 20.5858 66.5487C17.5354 66.2705 15.2297 64.7087 15.2297 61.6457C15.2297 58.1103 18.2741 56.3422 21.7953 56.6581C31.5866 57.5365 50.2995 59.0391 63.7297 59.0391C77.16 59.0391 95.8729 57.5365 105.664 56.6581C109.185 56.3422 112.23 58.1103 112.23 61.6457C112.23 64.7087 109.924 66.2705 106.874 66.5487C102.321 66.9639 95.3308 67.5622 87.7399 68.0683M37.2777 67.901L32.9303 109.202C32.433 113.925 36.1367 118.039 40.8863 118.039H84.1137C88.8633 118.039 92.567 113.925 92.0697 109.202L87.7399 68.0683" stroke="#0057F2" stroke-width="3"/>
<path d="M61.2513 80.8595C61.6238 79.7657 63.2456 79.7657 63.6181 80.8595L65.2284 85.588C65.395 86.0772 65.8727 86.4084 66.4118 86.4084H71.6227C72.8281 86.4084 73.3293 87.8801 72.3541 88.5561L68.1384 91.4785C67.7023 91.7808 67.5198 92.3167 67.6864 92.8059L69.2966 97.5344C69.6691 98.6282 68.357 99.5377 67.3818 98.8617L63.1661 95.9394C62.73 95.637 62.1394 95.637 61.7033 95.9394L57.4876 98.8617C56.5124 99.5378 55.2003 98.6282 55.5728 97.5344L57.183 92.8059C57.3496 92.3167 57.1671 91.7808 56.731 91.4785L52.5153 88.5561C51.5401 87.8801 52.0413 86.4084 53.2467 86.4084H58.4576C58.9967 86.4084 59.4744 86.0772 59.641 85.588L61.2513 80.8595Z" fill="#F9FAFC" stroke="#0057F2" stroke-width="2" stroke-linejoin="round"/>
<path d="M84.0352 37.193C83.4635 35.0592 84.7298 32.8658 86.8637 32.2941L87.8296 32.0352C89.9635 31.4635 92.1568 32.7298 92.7286 34.8637L112.14 107.308C112.712 109.442 111.445 111.635 109.312 112.207L108.346 112.466C106.212 113.038 104.018 111.771 103.447 109.637L84.0352 37.193Z" fill="#F9FAFC"/>
<path d="M89.2116 56.5116L97.905 54.1822M108.346 112.466L109.312 112.207C111.445 111.635 112.712 109.442 112.14 107.308L92.7286 34.8637C92.1568 32.7298 89.9635 31.4635 87.8296 32.0352L86.8637 32.2941C84.7298 32.8658 83.4635 35.0592 84.0352 37.193L103.447 109.637C104.018 111.771 106.212 113.038 108.346 112.466Z" stroke="#0057F2" stroke-width="3"/>
<path d="M49.2429 21.7448C47.9496 18.1674 43.8662 16.4698 40.4179 18.076C36.9697 19.6822 35.6418 23.9003 37.5481 27.1922L44.4461 39.1035C41.3232 42.6305 39.7803 47.497 40.6619 52.4967C42.1964 61.199 50.4949 67.0097 59.1972 65.4753C67.8995 63.9408 73.7102 55.6423 72.1757 46.94C71.5452 43.3642 69.7727 40.2767 67.2994 37.9863L70.4852 22.8525C71.2962 18.9997 68.6179 15.2842 64.7063 14.8357C60.7947 14.3872 57.3449 17.4001 57.2629 21.3365L57.0048 33.7258C55.9054 33.6866 54.7853 33.7609 53.6584 33.9583L49.2429 21.7448Z" fill="#F9FAFC" stroke="#2B2727" stroke-width="3" stroke-linejoin="round"/>
<path d="M9.22974 57.6457C9.22974 54.1103 12.2741 52.3422 15.7953 52.6581C25.5866 53.5365 44.2995 55.0391 57.7297 55.0391C71.16 55.0391 89.8729 53.5365 99.6642 52.6581C103.185 52.3422 106.23 54.1103 106.23 57.6457C106.23 60.7087 103.924 62.2705 100.874 62.5487C96.3214 62.9639 89.3308 63.5622 81.7399 64.0683C73.6798 64.6057 64.9429 65.0391 57.7297 65.0391C49.7812 65.0391 39.9823 64.5128 31.2777 63.901C24.6437 63.4348 18.6453 62.919 14.5858 62.5487C11.5354 62.2705 9.22974 60.7087 9.22974 57.6457Z" fill="#F9FAFC"/>
<path d="M34.8863 114.039H78.1137C82.8633 114.039 86.567 109.925 86.0697 105.202L81.7399 64.0683C73.6798 64.6057 64.9429 65.0391 57.7297 65.0391C49.7812 65.0391 39.9823 64.5128 31.2777 63.901L26.9303 105.202C26.4331 109.925 30.1367 114.039 34.8863 114.039Z" fill="#F9FAFC"/>
<path d="M31.2777 63.901C39.9823 64.5128 49.7812 65.0391 57.7297 65.0391C64.9429 65.0391 73.6798 64.6057 81.7399 64.0683M31.2777 63.901C24.6437 63.4348 18.6453 62.919 14.5858 62.5487C11.5354 62.2705 9.22974 60.7087 9.22974 57.6457C9.22974 54.1103 12.2741 52.3422 15.7953 52.6581C25.5866 53.5365 44.2995 55.0391 57.7297 55.0391C71.16 55.0391 89.8729 53.5365 99.6642 52.6581C103.185 52.3422 106.23 54.1103 106.23 57.6457C106.23 60.7087 103.924 62.2705 100.874 62.5487C96.3214 62.9639 89.3308 63.5622 81.7399 64.0683M31.2777 63.901L26.9303 105.202C26.433 109.925 30.1367 114.039 34.8863 114.039H78.1137C82.8633 114.039 86.567 109.925 86.0697 105.202L81.7399 64.0683" stroke="#2B2727" stroke-width="3"/>
<path d="M55.2513 76.8595C55.6238 75.7657 57.2456 75.7657 57.6181 76.8595L59.2284 81.588C59.395 82.0772 59.8727 82.4084 60.4118 82.4084H65.6227C66.8281 82.4084 67.3293 83.8801 66.3541 84.5561L62.1384 87.4785C61.7023 87.7808 61.5198 88.3167 61.6864 88.8059L63.2966 93.5344C63.6691 94.6282 62.357 95.5377 61.3818 94.8617L57.1661 91.9394C56.73 91.637 56.1394 91.637 55.7033 91.9394L51.4876 94.8617C50.5124 95.5378 49.2003 94.6282 49.5728 93.5344L51.183 88.8059C51.3496 88.3167 51.1671 87.7808 50.731 87.4785L46.5153 84.5561C45.5401 83.8801 46.0413 82.4084 47.2467 82.4084H52.4576C52.9967 82.4084 53.4744 82.0772 53.641 81.588L55.2513 76.8595Z" fill="#F9FAFC" stroke="#2B2727" stroke-width="2" stroke-linejoin="round"/>
<path d="M78.0352 33.193C77.4635 31.0592 78.7298 28.8658 80.8637 28.2941L81.8296 28.0352C83.9635 27.4635 86.1568 28.7298 86.7286 30.8637L106.14 103.308C106.712 105.442 105.445 107.635 103.312 108.207L102.346 108.466C100.212 109.038 98.0184 107.771 97.4467 105.637L78.0352 33.193Z" fill="#F9FAFC"/>
<path d="M83.2116 52.5116L91.905 50.1822M102.346 108.466L103.312 108.207C105.445 107.635 106.712 105.442 106.14 103.308L86.7286 30.8637C86.1568 28.7298 83.9635 27.4635 81.8296 28.0352L80.8637 28.2941C78.7298 28.8658 77.4635 31.0592 78.0352 33.193L97.4467 105.637C98.0184 107.771 100.212 109.038 102.346 108.466Z" stroke="#2B2727" stroke-width="3"/>
</g>
<defs>
<clipPath id="clip0_83_36168">
<rect width="128" height="128" fill="white"/>
</clipPath>
</defs>
</svg>
