<svg width="128" height="128" viewBox="0 0 128 128" fill="none" xmlns="http://www.w3.org/2000/svg">
<g clip-path="url(#clip0_583_26377)">
<path fill-rule="evenodd" clip-rule="evenodd" d="M70 14C58.9543 14 50 22.9543 50 34V53C50 61.7568 55.6278 69.1992 63.4639 71.9076C60.6101 69.8671 58.75 66.5258 58.75 62.75V33.25C58.75 27.0368 63.7868 22 70 22C76.2132 22 81.25 27.0368 81.25 33.25V62.75C81.25 66.5258 79.3899 69.8671 76.5361 71.9076C84.3722 69.1992 90 61.7568 90 53V34C90 22.9543 81.0457 14 70 14Z" fill="#F9FAFC"/>
<path d="M63.4639 71.9076L62.9739 73.3253L64.3364 70.6874L63.4639 71.9076ZM76.5361 71.9076L75.6636 70.6874L77.0261 73.3253L76.5361 71.9076ZM51.5 34C51.5 23.7827 59.7827 15.5 70 15.5V12.5C58.1259 12.5 48.5 22.1259 48.5 34H51.5ZM51.5 53V34H48.5V53H51.5ZM63.9539 70.4899C56.7036 67.984 51.5 61.0977 51.5 53H48.5C48.5 62.4159 54.552 70.4145 62.9739 73.3253L63.9539 70.4899ZM64.3364 70.6874C61.8595 68.9164 60.25 66.0212 60.25 62.75H57.25C57.25 67.0304 59.3607 70.8178 62.5915 73.1278L64.3364 70.6874ZM60.25 62.75V33.25H57.25V62.75H60.25ZM60.25 33.25C60.25 27.8652 64.6152 23.5 70 23.5V20.5C62.9584 20.5 57.25 26.2084 57.25 33.25H60.25ZM70 23.5C75.3848 23.5 79.75 27.8652 79.75 33.25H82.75C82.75 26.2084 77.0416 20.5 70 20.5V23.5ZM79.75 33.25V62.75H82.75V33.25H79.75ZM79.75 62.75C79.75 66.0212 78.1405 68.9164 75.6636 70.6874L77.4085 73.1278C80.6393 70.8178 82.75 67.0304 82.75 62.75H79.75ZM88.5 53C88.5 61.0977 83.2964 67.984 76.0461 70.4899L77.0261 73.3253C85.448 70.4145 91.5 62.4159 91.5 53H88.5ZM88.5 34V53H91.5V34H88.5ZM70 15.5C80.2173 15.5 88.5 23.7827 88.5 34H91.5C91.5 22.1259 81.8741 12.5 70 12.5V15.5Z" fill="#0057F2"/>
<path d="M70 46.5L38 51.5C38 100.833 38 113 70 122C102 113 102 100.333 102 51.5L70 46.5Z" fill="#F9FAFC" stroke="#0057F2" stroke-width="3" stroke-linejoin="round"/>
<path fill-rule="evenodd" clip-rule="evenodd" d="M72.7693 85.2329C75.4757 84.1374 77.3848 81.484 77.3848 78.3848C77.3848 74.3063 74.0785 71 69.9999 71C65.9214 71 62.6151 74.3063 62.6151 78.3848C62.6151 81.4841 64.5243 84.1374 67.2306 85.2329V92.2308C67.2306 93.7603 68.4705 95.0001 70 95.0001C71.5294 95.0001 72.7693 93.7603 72.7693 92.2308V85.2329Z" fill="#0057F2"/>
<path d="M72.7693 85.2329L72.2064 83.8425L71.2693 84.2218V85.2329H72.7693ZM67.2306 85.2329H68.7306V84.2218L67.7935 83.8425L67.2306 85.2329ZM75.8848 78.3848C75.8848 80.8522 74.3659 82.9683 72.2064 83.8425L73.3321 86.6233C76.5854 85.3064 78.8848 82.1159 78.8848 78.3848H75.8848ZM69.9999 72.5C73.2501 72.5 75.8848 75.1347 75.8848 78.3848H78.8848C78.8848 73.4779 74.9069 69.5 69.9999 69.5V72.5ZM64.1151 78.3848C64.1151 75.1347 66.7498 72.5 69.9999 72.5V69.5C65.093 69.5 61.1151 73.4779 61.1151 78.3848H64.1151ZM67.7935 83.8425C65.634 82.9684 64.1151 80.8522 64.1151 78.3848H61.1151C61.1151 82.1159 63.4145 85.3064 66.6678 86.6233L67.7935 83.8425ZM68.7306 92.2308V85.2329H65.7306V92.2308H68.7306ZM70 93.5001C69.2989 93.5001 68.7306 92.9319 68.7306 92.2308H65.7306C65.7306 94.5887 67.6421 96.5001 70 96.5001V93.5001ZM71.2693 92.2308C71.2693 92.9319 70.701 93.5001 70 93.5001V96.5001C72.3578 96.5001 74.2693 94.5887 74.2693 92.2308H71.2693ZM71.2693 85.2329V92.2308H74.2693V85.2329H71.2693Z" fill="#0057F2"/>
<path fill-rule="evenodd" clip-rule="evenodd" d="M64 10C52.9543 10 44 18.9543 44 30V49C44 57.7568 49.6278 65.1992 57.4639 67.9076C54.6101 65.8671 52.75 62.5258 52.75 58.75V29.25C52.75 23.0368 57.7868 18 64 18C70.2132 18 75.25 23.0368 75.25 29.25V58.75C75.25 62.5258 73.3899 65.8671 70.5361 67.9076C78.3722 65.1992 84 57.7568 84 49V30C84 18.9543 75.0457 10 64 10Z" fill="#F9FAFC"/>
<path d="M57.4639 67.9076L56.9739 69.3253L58.3364 66.6874L57.4639 67.9076ZM70.5361 67.9076L69.6636 66.6874L71.0261 69.3253L70.5361 67.9076ZM45.5 30C45.5 19.7827 53.7827 11.5 64 11.5V8.5C52.1259 8.5 42.5 18.1259 42.5 30H45.5ZM45.5 49V30H42.5V49H45.5ZM57.9539 66.4899C50.7036 63.984 45.5 57.0977 45.5 49H42.5C42.5 58.4159 48.552 66.4145 56.9739 69.3253L57.9539 66.4899ZM58.3364 66.6874C55.8595 64.9164 54.25 62.0212 54.25 58.75H51.25C51.25 63.0304 53.3607 66.8178 56.5915 69.1278L58.3364 66.6874ZM54.25 58.75V29.25H51.25V58.75H54.25ZM54.25 29.25C54.25 23.8652 58.6152 19.5 64 19.5V16.5C56.9584 16.5 51.25 22.2084 51.25 29.25H54.25ZM64 19.5C69.3848 19.5 73.75 23.8652 73.75 29.25H76.75C76.75 22.2084 71.0416 16.5 64 16.5V19.5ZM73.75 29.25V58.75H76.75V29.25H73.75ZM73.75 58.75C73.75 62.0212 72.1405 64.9164 69.6636 66.6874L71.4085 69.1278C74.6393 66.8178 76.75 63.0304 76.75 58.75H73.75ZM82.5 49C82.5 57.0977 77.2964 63.984 70.0461 66.4899L71.0261 69.3253C79.448 66.4145 85.5 58.4159 85.5 49H82.5ZM82.5 30V49H85.5V30H82.5ZM64 11.5C74.2173 11.5 82.5 19.7827 82.5 30H85.5C85.5 18.1259 75.8741 8.5 64 8.5V11.5Z" fill="#2B2727"/>
<path d="M64 42.5L32 47.5C32 96.8333 32 109 64 118C96 109 96 96.3333 96 47.5L64 42.5Z" fill="#F9FAFC" stroke="#2B2727" stroke-width="3" stroke-linejoin="round"/>
<path fill-rule="evenodd" clip-rule="evenodd" d="M66.7693 81.2329C69.4757 80.1374 71.3848 77.484 71.3848 74.3848C71.3848 70.3063 68.0785 67 63.9999 67C59.9214 67 56.6151 70.3063 56.6151 74.3848C56.6151 77.4841 58.5243 80.1374 61.2306 81.2329V88.2308C61.2306 89.7603 62.4705 91.0001 64 91.0001C65.5294 91.0001 66.7693 89.7603 66.7693 88.2308V81.2329Z" fill="#F9FAFC"/>
<path d="M66.7693 81.2329L66.2064 79.8425L65.2693 80.2218V81.2329H66.7693ZM61.2306 81.2329H62.7306V80.2218L61.7935 79.8425L61.2306 81.2329ZM69.8848 74.3848C69.8848 76.8522 68.3659 78.9683 66.2064 79.8425L67.3321 82.6233C70.5854 81.3064 72.8848 78.1159 72.8848 74.3848H69.8848ZM63.9999 68.5C67.2501 68.5 69.8848 71.1347 69.8848 74.3848H72.8848C72.8848 69.4779 68.9069 65.5 63.9999 65.5V68.5ZM58.1151 74.3848C58.1151 71.1347 60.7498 68.5 63.9999 68.5V65.5C59.093 65.5 55.1151 69.4779 55.1151 74.3848H58.1151ZM61.7935 79.8425C59.634 78.9684 58.1151 76.8522 58.1151 74.3848H55.1151C55.1151 78.1159 57.4145 81.3064 60.6678 82.6233L61.7935 79.8425ZM62.7306 88.2308V81.2329H59.7306V88.2308H62.7306ZM64 89.5001C63.2989 89.5001 62.7306 88.9319 62.7306 88.2308H59.7306C59.7306 90.5887 61.6421 92.5001 64 92.5001V89.5001ZM65.2693 88.2308C65.2693 88.9319 64.701 89.5001 64 89.5001V92.5001C66.3578 92.5001 68.2693 90.5887 68.2693 88.2308H65.2693ZM65.2693 81.2329V88.2308H68.2693V81.2329H65.2693Z" fill="#2B2727"/>
</g>
<defs>
<clipPath id="clip0_583_26377">
<rect width="128" height="128" fill="white"/>
</clipPath>
</defs>
</svg>
