<svg width="128" height="128" viewBox="0 0 128 128" fill="none" xmlns="http://www.w3.org/2000/svg">
<g clip-path="url(#clip0_499_32504)">
<path d="M36.5 33.133C36.5 30.868 36.5012 29.2595 36.604 28.0008C36.7054 26.7595 36.8982 25.991 37.2085 25.3821C37.8316 24.159 38.826 23.1646 40.0491 22.5415C40.658 22.2312 41.4265 22.0384 42.6678 21.937C43.9265 21.8342 45.535 21.833 47.8 21.833H82.2C84.465 21.833 86.0735 21.8342 87.3322 21.937C88.5735 22.0384 89.342 22.2312 89.9509 22.5415C91.174 23.1646 92.1684 24.159 92.7915 25.3821C93.1018 25.991 93.2946 26.7595 93.396 28.0008C93.4988 29.2595 93.5 30.868 93.5 33.133V84.1997C93.5 86.4646 93.4988 88.0731 93.396 89.3319C93.2946 90.5732 93.1018 91.3417 92.7915 91.9506C92.1684 93.1737 91.174 94.168 89.9509 94.7912C89.342 95.1015 88.5735 95.2942 87.3322 95.3957C86.0735 95.4985 84.465 95.4997 82.2 95.4997H47.8C45.535 95.4997 43.9265 95.4985 42.6678 95.3957C41.4265 95.2942 40.658 95.1015 40.0491 94.7912C38.826 94.168 37.8316 93.1737 37.2085 91.9506C36.8982 91.3417 36.7054 90.5732 36.604 89.3319C36.5012 88.0731 36.5 86.4646 36.5 84.1997V33.133Z" fill="#F9FAFC" stroke="#0057F2" stroke-width="3" stroke-linejoin="round"/>
<g clip-path="url(#clip1_499_32504)">
<path d="M64.9966 54.6163C62.9024 54.6163 61.1571 56.0968 60.7344 58.0666C60.6928 58.2605 60.6616 58.4582 60.645 58.6599C60.6302 58.8394 60.777 58.9857 60.9567 58.9857H62.1454C62.3251 58.9857 62.4686 58.839 62.4927 58.6606C62.5207 58.4538 62.5744 58.2552 62.6481 58.0666C63.016 57.1254 63.9259 56.4573 64.9966 56.4574C66.3919 56.4574 67.5224 57.589 67.5225 58.9857C67.5225 60.3823 66.3919 61.5139 64.9966 61.514H54.4368C54.228 61.514 54.0731 61.7084 54.1261 61.9108C54.2371 62.3344 54.3706 62.7488 54.5285 63.1512C54.5765 63.2735 54.6953 63.3523 54.8265 63.3523H64.9966C67.4066 63.3523 69.3589 61.3981 69.3589 58.9857C69.3589 56.5733 67.4066 54.6163 64.9966 54.6163Z" fill="#2B2727"/>
<path d="M64.9966 51.1688C60.9952 51.1688 57.7 54.1838 57.2445 58.0666C57.2215 58.2627 57.2042 58.4601 57.195 58.6597C57.1866 58.8396 57.3329 58.9857 57.5126 58.9857H58.6985C58.8781 58.9857 59.0229 58.8395 59.0344 58.6598C59.0472 58.4594 59.0708 58.262 59.101 58.0666C59.5438 55.2031 62.0118 53.0071 64.9966 53.0071C68.2945 53.0071 70.9666 55.6846 70.9666 58.9857C70.9666 62.2869 68.2945 64.9614 64.9966 64.9614H56.0379C55.7824 64.9614 55.6282 65.2422 55.7745 65.4522C56.0811 65.8926 56.4179 66.3107 56.7829 66.7017C56.8435 66.7665 56.9284 66.8026 57.017 66.8026H64.9966C69.3093 66.8026 72.806 63.3026 72.8059 58.9857C72.8059 54.6688 69.3093 51.1688 64.9966 51.1688Z" fill="#2B2727"/>
<path d="M64.9966 47.75C61.5004 47.75 58.3762 49.3438 56.312 51.8474C56.09 52.1166 55.8792 52.3971 55.6827 52.6864C55.6698 52.7053 55.6582 52.7247 55.6455 52.7436C55.4685 53.0075 55.3052 53.2806 55.1505 53.5597C55.1235 53.6089 55.094 53.656 55.0676 53.7057C54.9323 53.9588 54.8119 54.2205 54.6958 54.4845C54.6615 54.5632 54.6253 54.6426 54.5928 54.7222C54.5028 54.9403 54.4231 55.1618 54.3468 55.3865C54.2986 55.5294 54.2491 55.6734 54.2066 55.8189C54.1612 55.9727 54.1254 56.1291 54.0864 56.2856C54.0343 56.4974 53.9805 56.7077 53.9406 56.9241C53.9223 57.0217 53.9134 57.1235 53.8977 57.2219C53.8546 57.495 53.8148 57.7701 53.7919 58.0494C53.7913 58.0552 53.7894 58.0607 53.7889 58.0666C53.773 58.2635 53.7585 58.4608 53.7503 58.6597C53.7428 58.8396 53.8888 58.9857 54.0685 58.9857H55.2544C55.434 58.9857 55.5791 58.8396 55.5856 58.6596C55.5928 58.4605 55.6064 58.2631 55.6254 58.0666C56.0879 53.2931 60.1064 49.5596 64.9966 49.5596C70.1973 49.5596 74.4136 53.78 74.4136 58.9857C74.4136 64.1914 70.1973 68.4118 64.9966 68.4117H59.8806C59.558 68.4117 59.4438 68.8137 59.729 68.9647C61.1413 69.7127 62.7328 70.1645 64.4217 70.25H64.9966C70.8236 70.25 75.6136 65.8171 76.19 60.1368C76.2274 59.7675 76.2491 59.3933 76.25 59.0143C76.25 58.6255 76.2284 58.2391 76.19 57.8604C75.6136 52.18 70.8236 47.75 64.9966 47.75Z" fill="#2B2727"/>
</g>
<path d="M60 91.8328H69.1667" stroke="#0057F2" stroke-linecap="round"/>
<path d="M102.672 61.3134L103.172 87.166C103.156 88.5118 102.598 90.1205 101.638 91.5899L91.9166 105.34C89.905 107.677 87.97 108.927 85.5569 108.091L89.5786 109.485C90.3831 109.764 90.9086 110.847 90.4903 112.054L88.9569 116.478C88.3992 118.086 87.3161 118.612 85.7073 118.054L68.0111 111.92C66.8045 111.502 66.4192 110.017 66.8366 108.81C67.254 107.603 68.0928 105.191 68.3709 104.386C68.6489 103.582 69.8715 102.654 71.0788 103.073L73.4912 103.909C70.2744 102.794 71.1422 97.6885 72.659 94.6101C73.985 91.9187 75.1137 90.6447 76.7375 89.7991C77.9236 89.1814 79.056 88.4259 79.8048 87.3179L86.049 78.0773C86.237 77.7572 86.4844 77.4939 86.7746 77.2834C88.1808 76.263 90.5913 76.4819 92.1139 77.4765C93.5832 78.4362 94.4949 81.0048 93.2563 83.2785C93.8627 82.1944 94.1884 81.5753 94.3715 80.061L94.0967 63.9572L94.0544 61.4802C94.0868 58.7883 96.309 57.5763 98.1408 57.4904C100.431 57.3832 102.565 59.0239 102.672 61.3134Z" fill="#F9FAFC"/>
<path d="M93.2563 83.2785L89.1386 89.9605M93.2563 83.2785C94.4949 81.0048 93.5832 78.4362 92.1139 77.4765C90.5913 76.4819 88.1808 76.263 86.7746 77.2834C86.4844 77.4939 86.237 77.7572 86.049 78.0773L79.8048 87.3179C79.056 88.4259 77.9236 89.1814 76.7375 89.7991C75.1137 90.6447 73.985 91.9187 72.659 94.6101C71.1422 97.6885 70.2744 102.794 73.4912 103.909M93.2563 83.2785C93.8627 82.1944 94.1884 81.5753 94.3715 80.061L94.0967 63.9572L94.0544 61.4802C94.0868 58.7883 96.309 57.5763 98.1408 57.4904C100.431 57.3832 102.565 59.0239 102.672 61.3134L103.172 87.166C103.156 88.5118 102.598 90.1205 101.638 91.5899L91.9166 105.34C89.905 107.677 87.97 108.927 85.5569 108.091M73.4912 103.909L85.5569 108.091M73.4912 103.909C73.4912 103.909 72.2862 103.491 71.0788 103.073C69.8715 102.654 68.6489 103.582 68.3709 104.386C68.0928 105.191 67.254 107.603 66.8366 108.81C66.4192 110.017 66.8045 111.502 68.0111 111.92C69.2177 112.339 84.0986 117.497 85.7073 118.054C87.3161 118.612 88.3992 118.086 88.9569 116.478C89.5145 114.869 90.0721 113.26 90.4903 112.054C90.9086 110.847 90.3831 109.764 89.5786 109.485C88.7741 109.206 85.5569 108.091 85.5569 108.091" stroke="#0057F2" stroke-width="3" stroke-linecap="round" stroke-linejoin="round"/>
<path d="M30.5 29.133C30.5 26.868 30.5012 25.2595 30.604 24.0008C30.7054 22.7595 30.8982 21.991 31.2085 21.3821C31.8316 20.159 32.826 19.1646 34.0491 18.5415C34.658 18.2312 35.4265 18.0384 36.6678 17.937C37.9265 17.8342 39.535 17.833 41.8 17.833H76.2C78.465 17.833 80.0735 17.8342 81.3322 17.937C82.5735 18.0384 83.342 18.2312 83.9509 18.5415C85.174 19.1646 86.1684 20.159 86.7915 21.3821C87.1018 21.991 87.2946 22.7595 87.396 24.0008C87.4988 25.2595 87.5 26.868 87.5 29.133V80.1997C87.5 82.4646 87.4988 84.0731 87.396 85.3319C87.2946 86.5732 87.1018 87.3417 86.7915 87.9506C86.1684 89.1737 85.174 90.168 83.9509 90.7912C83.342 91.1015 82.5735 91.2942 81.3322 91.3957C80.0735 91.4985 78.465 91.4997 76.2 91.4997H41.8C39.535 91.4997 37.9265 91.4985 36.6678 91.3957C35.4265 91.2942 34.658 91.1015 34.0491 90.7912C32.826 90.168 31.8316 89.1737 31.2085 87.9506C30.8982 87.3417 30.7054 86.5732 30.604 85.3319C30.5012 84.0731 30.5 82.4646 30.5 80.1997V29.133Z" fill="#F9FAFC" stroke="#2B2727" stroke-width="3" stroke-linejoin="round"/>
<g clip-path="url(#clip2_499_32504)">
<path d="M58.9966 50.6163C56.9024 50.6163 55.1571 52.0968 54.7344 54.0666C54.6928 54.2605 54.6616 54.4582 54.645 54.6599C54.6302 54.8394 54.777 54.9857 54.9567 54.9857H56.1454C56.3251 54.9857 56.4686 54.839 56.4927 54.6606C56.5207 54.4538 56.5744 54.2552 56.6481 54.0666C57.016 53.1254 57.9259 52.4573 58.9966 52.4574C60.3919 52.4574 61.5224 53.589 61.5225 54.9857C61.5225 56.3823 60.3919 57.5139 58.9966 57.514H48.4368C48.228 57.514 48.0731 57.7084 48.1261 57.9108C48.2371 58.3344 48.3706 58.7488 48.5285 59.1512C48.5765 59.2735 48.6953 59.3523 48.8265 59.3523H58.9966C61.4066 59.3523 63.3589 57.3981 63.3589 54.9857C63.3589 52.5733 61.4066 50.6163 58.9966 50.6163Z" fill="#2B2727"/>
<path d="M58.9966 47.1688C54.9952 47.1688 51.7 50.1838 51.2445 54.0666C51.2215 54.2627 51.2042 54.4601 51.195 54.6597C51.1866 54.8396 51.3329 54.9857 51.5126 54.9857H52.6985C52.8781 54.9857 53.0229 54.8395 53.0344 54.6598C53.0472 54.4594 53.0708 54.262 53.101 54.0666C53.5438 51.2031 56.0118 49.0071 58.9966 49.0071C62.2945 49.0071 64.9666 51.6846 64.9666 54.9857C64.9666 58.2869 62.2945 60.9614 58.9966 60.9614H50.0379C49.7824 60.9614 49.6282 61.2422 49.7745 61.4522C50.0811 61.8926 50.4179 62.3107 50.7829 62.7017C50.8435 62.7665 50.9284 62.8026 51.017 62.8026H58.9966C63.3093 62.8026 66.806 59.3026 66.8059 54.9857C66.8059 50.6688 63.3093 47.1688 58.9966 47.1688Z" fill="#2B2727"/>
<path d="M58.9966 43.75C55.5004 43.75 52.3762 45.3438 50.312 47.8474C50.09 48.1166 49.8792 48.3971 49.6827 48.6864C49.6698 48.7053 49.6582 48.7247 49.6455 48.7436C49.4685 49.0075 49.3052 49.2806 49.1505 49.5597C49.1235 49.6089 49.094 49.656 49.0676 49.7057C48.9323 49.9588 48.8119 50.2205 48.6958 50.4845C48.6615 50.5632 48.6253 50.6426 48.5928 50.7222C48.5028 50.9403 48.4231 51.1618 48.3468 51.3865C48.2986 51.5294 48.2491 51.6734 48.2066 51.8189C48.1612 51.9727 48.1254 52.1291 48.0864 52.2856C48.0343 52.4974 47.9805 52.7077 47.9406 52.9241C47.9223 53.0217 47.9134 53.1235 47.8977 53.2219C47.8546 53.495 47.8148 53.7701 47.7919 54.0494C47.7913 54.0552 47.7894 54.0607 47.7889 54.0666C47.773 54.2635 47.7585 54.4608 47.7503 54.6597C47.7428 54.8396 47.8888 54.9857 48.0685 54.9857H49.2544C49.434 54.9857 49.5791 54.8396 49.5856 54.6596C49.5928 54.4605 49.6064 54.2631 49.6254 54.0666C50.0879 49.2931 54.1064 45.5596 58.9966 45.5596C64.1973 45.5596 68.4136 49.78 68.4136 54.9857C68.4136 60.1914 64.1973 64.4118 58.9966 64.4117H53.8806C53.558 64.4117 53.4438 64.8137 53.729 64.9647C55.1413 65.7127 56.7328 66.1645 58.4217 66.25H58.9966C64.8236 66.25 69.6136 61.8171 70.19 56.1368C70.2274 55.7675 70.2491 55.3933 70.25 55.0143C70.25 54.6255 70.2284 54.2391 70.19 53.8604C69.6136 48.18 64.8236 43.75 58.9966 43.75Z" fill="#2B2727"/>
</g>
<path d="M54 87.8328H63.1667" stroke="#2B2727" stroke-linecap="round"/>
<path d="M96.6719 57.3134L97.172 83.166C97.1555 84.5118 96.5976 86.1205 95.6379 87.5899L85.9166 101.34C83.905 103.677 81.97 104.927 79.5569 104.091L83.5786 105.485C84.3831 105.764 84.9086 106.847 84.4903 108.054L82.9569 112.478C82.3992 114.086 81.3161 114.612 79.7073 114.054L62.0111 107.92C60.8045 107.502 60.4192 106.017 60.8366 104.81C61.254 103.603 62.0928 101.191 62.3709 100.386C62.6489 99.5818 63.8715 98.6541 65.0788 99.0726L67.4912 99.9087C64.2744 98.7938 65.1422 93.6885 66.659 90.6101C67.985 87.9187 69.1137 86.6447 70.7375 85.7991C71.9236 85.1814 73.056 84.4259 73.8048 83.3179L80.049 74.0773C80.237 73.7572 80.4844 73.4939 80.7746 73.2834C82.1808 72.263 84.5913 72.4819 86.1139 73.4765C87.5832 74.4362 88.4949 77.0048 87.2563 79.2785C87.8627 78.1944 88.1884 77.5753 88.3715 76.061L88.0967 59.9572L88.0544 57.4802C88.0868 54.7883 90.309 53.5763 92.1408 53.4904C94.4309 53.3832 96.5648 55.0239 96.6719 57.3134Z" fill="#F9FAFC"/>
<path d="M87.2563 79.2785L83.1386 85.9605M87.2563 79.2785C88.4949 77.0048 87.5832 74.4362 86.1139 73.4765C84.5913 72.4819 82.1808 72.263 80.7746 73.2834C80.4844 73.4939 80.237 73.7572 80.049 74.0773L73.8048 83.3179C73.056 84.4259 71.9236 85.1814 70.7375 85.7991C69.1137 86.6447 67.985 87.9187 66.659 90.6101C65.1422 93.6885 64.2744 98.7938 67.4912 99.9087M87.2563 79.2785C87.8627 78.1944 88.1884 77.5753 88.3715 76.061L88.0967 59.9572L88.0544 57.4802C88.0868 54.7883 90.309 53.5763 92.1408 53.4904C94.4309 53.3832 96.5648 55.0239 96.6719 57.3134L97.172 83.166C97.1555 84.5118 96.5976 86.1205 95.6379 87.5899L85.9166 101.34C83.905 103.677 81.97 104.927 79.5569 104.091M67.4912 99.9087L79.5569 104.091M67.4912 99.9087C67.4912 99.9087 66.2862 99.4911 65.0788 99.0726C63.8715 98.6541 62.6489 99.5818 62.3709 100.386C62.0928 101.191 61.254 103.603 60.8366 104.81C60.4192 106.017 60.8045 107.502 62.0111 107.92C63.2177 108.339 78.0986 113.497 79.7073 114.054C81.3161 114.612 82.3992 114.086 82.9569 112.478C83.5145 110.869 84.0721 109.26 84.4903 108.054C84.9086 106.847 84.3831 105.764 83.5786 105.485C82.7741 105.206 79.5569 104.091 79.5569 104.091" stroke="#2B2727" stroke-width="3" stroke-linecap="round" stroke-linejoin="round"/>
</g>
<defs>
<clipPath id="clip0_499_32504">
<rect width="128" height="128" fill="white"/>
</clipPath>
<clipPath id="clip1_499_32504">
<rect width="24" height="24" fill="white" transform="translate(53 47)"/>
</clipPath>
<clipPath id="clip2_499_32504">
<rect width="24" height="24" fill="white" transform="translate(47 43)"/>
</clipPath>
</defs>
</svg>
