<svg width="128" height="128" viewBox="0 0 128 128" fill="none" xmlns="http://www.w3.org/2000/svg">
<g clip-path="url(#clip0_500_41262)">
<rect x="68.0618" y="29.5" width="48.5245" height="33.2064" rx="6.5" fill="#F9FAFC" stroke="#0057F2" stroke-width="3" stroke-linecap="round" stroke-linejoin="round"/>
<path d="M79.0947 54.458V48.8593M87.45 54.458V41.1664M95.8054 54.458V45.4402M104.161 54.458V37.7473" stroke="#0057F2" stroke-width="3" stroke-linecap="round" stroke-linejoin="round"/>
<rect x="23.5" y="72.6699" width="93.0862" height="34.5989" rx="6.5" fill="#F9FAFC" stroke="#0057F2" stroke-width="3" stroke-linecap="round" stroke-linejoin="round"/>
<path d="M30.3553 98.5143L40.1032 86.8209L50.0405 97.6148L60.2953 92.5327L70.9956 94.9164L76.0757 86.8209L88.7758 94.0169L98.5905 84.842L109.731 83.2229" stroke="#0057F2" stroke-width="3" stroke-linecap="round" stroke-linejoin="round"/>
<path d="M40.1032 29.3921C30.8742 29.3921 23.3926 37.0759 23.3926 46.5545C23.3926 51.624 25.5327 56.1801 28.9357 59.3218C29.3591 59.7127 29.5708 59.9082 30.3496 60.356C30.8458 60.6413 32.0051 61.0946 32.5632 61.2216C33.4392 61.4208 34.0472 61.4208 35.2634 61.4208H44.9431C46.1592 61.4208 46.7673 61.4208 47.6433 61.2216C48.2014 61.0946 49.3606 60.6413 49.8568 60.356C50.6356 59.9082 50.8473 59.7127 51.2707 59.3218C54.6737 56.1801 56.8139 51.624 56.8139 46.5545C56.8139 37.0759 49.3323 29.3921 40.1032 29.3921Z" fill="#F9FAFC"/>
<path d="M31.7479 61.4208C26.7531 58.4534 23.3926 52.907 23.3926 46.5545C23.3926 37.0759 30.8742 29.3921 40.1032 29.3921C49.3323 29.3921 56.8139 37.0759 56.8139 46.5545C56.8139 52.907 53.4534 58.4534 48.4585 61.4208" stroke="#0057F2" stroke-width="3" stroke-linecap="round" stroke-linejoin="round"/>
<path d="M40.1031 47.4956L31.7478 41.9254" stroke="#0057F2" stroke-width="3" stroke-linecap="round"/>
<rect x="62.0618" y="25.5" width="48.5245" height="33.2064" rx="6.5" fill="#F9FAFC" stroke="#2B2727" stroke-width="3" stroke-linecap="round" stroke-linejoin="round"/>
<path d="M73.0947 50.458V44.8593M81.45 50.458V37.1664M89.8054 50.458V41.4402M98.1607 50.458V33.7473" stroke="#2B2727" stroke-width="3" stroke-linecap="round" stroke-linejoin="round"/>
<rect x="17.5" y="68.6699" width="93.0862" height="34.5989" rx="6.5" fill="#F9FAFC" stroke="#2B2727" stroke-width="3" stroke-linecap="round" stroke-linejoin="round"/>
<path d="M24.3553 94.5143L34.1032 82.8209L44.0405 93.6148L54.2953 88.5327L64.9956 90.9164L70.0757 82.8209L82.7758 90.0169L92.5905 80.842L103.731 79.2229" stroke="#2B2727" stroke-width="3" stroke-linecap="round" stroke-linejoin="round"/>
<path d="M34.1032 25.3921C24.8742 25.3921 17.3926 33.0759 17.3926 42.5545C17.3926 47.624 19.5327 52.1801 22.9357 55.3218C23.3591 55.7127 23.5708 55.9082 24.3496 56.356C24.8458 56.6413 26.0051 57.0946 26.5632 57.2216C27.4392 57.4208 28.0472 57.4208 29.2634 57.4208H38.9431C40.1592 57.4208 40.7673 57.4208 41.6433 57.2216C42.2014 57.0946 43.3606 56.6413 43.8568 56.356C44.6356 55.9082 44.8473 55.7127 45.2707 55.3218C48.6737 52.1801 50.8139 47.624 50.8139 42.5545C50.8139 33.0759 43.3323 25.3921 34.1032 25.3921Z" fill="#F9FAFC"/>
<path d="M25.7479 57.4208C20.7531 54.4534 17.3926 48.907 17.3926 42.5545C17.3926 33.0759 24.8742 25.3921 34.1032 25.3921C43.3323 25.3921 50.8139 33.0759 50.8139 42.5545C50.8139 48.907 47.4534 54.4534 42.4585 57.4208" stroke="#2B2727" stroke-width="3" stroke-linecap="round" stroke-linejoin="round"/>
<path d="M34.1031 43.4956L25.7478 37.9254" stroke="#2B2727" stroke-width="3" stroke-linecap="round"/>
</g>
<defs>
<clipPath id="clip0_500_41262">
<rect width="128" height="128" fill="white"/>
</clipPath>
</defs>
</svg>
