<svg width="128" height="128" viewBox="0 0 128 128" fill="none" xmlns="http://www.w3.org/2000/svg">
<g clip-path="url(#clip0_64_25570)">
<path d="M17 35.1172V87.6172C17 92.4497 20.426 96.3672 24.6522 96.3672H57.5L75 26.3672H24.6522C20.426 26.3672 17 30.2847 17 35.1172Z" fill="#F9FAFC"/>
<path d="M75 26.3672H24.6522C20.426 26.3672 17 30.2847 17 35.1172V87.6172C17 92.4497 20.426 96.3672 24.6522 96.3672H57.5" stroke="#0057F2" stroke-width="3" stroke-linecap="round" stroke-linejoin="round"/>
<g clip-path="url(#clip1_64_25570)">
<rect width="12" height="12" transform="translate(26 34)" fill="#F9FAFC"/>
<path d="M31.9983 36.0844C29.9976 36.0844 28.35 37.5919 28.1222 39.5333C28.1107 39.6313 28.1021 39.73 28.0975 39.8298C28.0933 39.9198 28.1665 39.9928 28.2563 39.9928H28.8492C28.9391 39.9928 29.0115 39.9198 29.0172 39.8299C29.0236 39.7297 29.0354 39.631 29.0505 39.5333C29.2719 38.1015 30.5059 37.0035 31.9983 37.0035C33.6473 37.0035 34.9833 38.3423 34.9833 39.9928C34.9833 41.6434 33.6473 42.9807 31.9983 42.9807H27.5189C27.3912 42.9807 27.3141 43.1211 27.3872 43.2261C27.5405 43.4463 27.7089 43.6553 27.8915 43.8508C27.9217 43.8833 27.9642 43.9013 28.0085 43.9013H31.9983C34.1547 43.9013 35.903 42.1513 35.9029 39.9928C35.9029 37.8344 34.1547 36.0844 31.9983 36.0844Z" fill="#2B2727"/>
<path d="M31.9983 34.375C30.2502 34.375 28.6881 35.1719 27.656 36.4237C26.9366 37.2961 26.4887 38.3973 26.3959 39.5247C26.3957 39.5276 26.3947 39.5303 26.3945 39.5333C26.3865 39.6317 26.3793 39.7304 26.3751 39.8298C26.3714 39.9198 26.4444 39.9928 26.5342 39.9928H27.1272C27.217 39.9928 27.2896 39.9198 27.2928 39.8298C27.2964 39.7302 27.3032 39.6316 27.3127 39.5333C27.5439 37.1466 29.5532 35.2798 31.9983 35.2798C34.5986 35.2798 36.7068 37.39 36.7068 39.9928C36.7068 42.5957 34.5986 44.7059 31.9983 44.7059H29.4403C29.279 44.7059 29.2219 44.9068 29.3645 44.9824C30.0707 45.3563 30.8664 45.5822 31.7108 45.625H31.9983C34.9118 45.625 37.3068 43.4086 37.595 40.5684C37.6137 40.3838 37.6245 40.1967 37.625 40.0072C37.625 39.8127 37.6142 39.6195 37.595 39.4302C37.3068 36.59 34.9118 34.375 31.9983 34.375Z" fill="#2B2727"/>
<path d="M31.9983 37.8081C30.9512 37.8081 30.0785 38.5484 29.8672 39.5333C29.8464 39.6303 29.8308 39.7291 29.8225 39.83C29.8151 39.9197 29.8885 39.9928 29.9783 39.9928H30.5727C30.6625 39.9928 30.7343 39.9195 30.7464 39.8303C30.7604 39.7269 30.7872 39.6276 30.8241 39.5333C31.008 39.0627 31.463 38.7287 31.9983 38.7287C32.696 38.7287 33.2612 39.2945 33.2613 39.9928C33.2613 40.6912 32.696 41.257 31.9983 41.257H27.46C27.4253 41.1298 27.393 40.9974 27.3565 40.8706C27.3309 40.7816 27.251 40.7201 27.1698 40.7201H26.5819C26.5017 40.7201 26.43 40.8137 26.4455 40.9024C26.5199 41.2994 26.6088 41.7145 26.7693 42.0867C26.7943 42.1449 26.8557 42.1761 26.9132 42.1761H31.9983C33.2033 42.1761 34.1795 41.199 34.1795 39.9928C34.1795 38.7867 33.2033 37.8081 31.9983 37.8081Z" fill="#2B2727"/>
</g>
<path d="M49.2596 40.3672H61.3173M69.3558 40.3672H71.3943" stroke="#0057F2" stroke-width="2" stroke-linecap="round"/>
<path d="M27 74.4C27 72.1598 27 71.0397 27.436 70.184C27.8195 69.4314 28.4314 68.8195 29.184 68.436C30.0397 68 31.1598 68 33.4 68H41.6C43.8402 68 44.9603 68 45.816 68.436C46.5686 68.8195 47.1805 69.4314 47.564 70.184C48 71.0397 48 72.1598 48 74.4V79.6C48 81.8402 48 82.9603 47.564 83.816C47.1805 84.5686 46.5686 85.1805 45.816 85.564C44.9603 86 43.8402 86 41.6 86H33.4C31.1598 86 30.0397 86 29.184 85.564C28.4314 85.1805 27.8195 84.5686 27.436 83.816C27 82.9603 27 81.8402 27 79.6V74.4Z" fill="#F9FAFC"/>
<path d="M69.5 48H33.4C31.1598 48 30.0397 48 29.184 48.436C28.4314 48.8195 27.8195 49.4314 27.436 50.184C27 51.0397 27 52.1598 27 54.4V57.6C27 59.8402 27 60.9603 27.436 61.816C27.8195 62.5686 28.4314 63.1805 29.184 63.564C30.0397 64 31.1598 64 33.4 64H65.5M64.5 68H58.4C56.1598 68 55.0397 68 54.184 68.436C53.4314 68.8195 52.8195 69.4314 52.436 70.184C52 71.0397 52 72.1598 52 74.4V79.6C52 81.8402 52 82.9603 52.436 83.816C52.8195 84.5686 53.4314 85.1805 54.184 85.564C55.0397 86 56.1598 86 58.4 86H60M33.4 86H41.6C43.8402 86 44.9603 86 45.816 85.564C46.5686 85.1805 47.1805 84.5686 47.564 83.816C48 82.9603 48 81.8402 48 79.6V74.4C48 72.1598 48 71.0397 47.564 70.184C47.1805 69.4314 46.5686 68.8195 45.816 68.436C44.9603 68 43.8402 68 41.6 68H33.4C31.1598 68 30.0397 68 29.184 68.436C28.4314 68.8195 27.8195 69.4314 27.436 70.184C27 71.0397 27 72.1598 27 74.4V79.6C27 81.8402 27 82.9603 27.436 83.816C27.8195 84.5686 28.4314 85.1805 29.184 85.564C30.0397 86 31.1598 86 33.4 86Z" stroke="#0057F2" stroke-width="2" stroke-linecap="round" stroke-linejoin="round"/>
<path d="M119 47.25V96.75C119 101.306 115.73 105 111.696 105H65.5909L81.2955 39H111.696C115.73 39 119 42.6937 119 47.25Z" fill="#F9FAFC"/>
<path d="M81.2955 39H111.696C115.73 39 119 42.6937 119 47.25V96.75C119 101.306 115.73 105 111.696 105H65.5909" stroke="#0057F2" stroke-width="3" stroke-linecap="round" stroke-linejoin="round"/>
<path d="M85.3558 51.3672H93.3943M101.433 51.3672H109.471" stroke="#0057F2" stroke-width="2" stroke-linecap="round"/>
<path d="M76.2692 59H102.928C105.054 59 106.116 59 106.928 59.4103C107.642 59.7713 108.223 60.3472 108.586 61.0556C109 61.8609 109 62.9151 109 65.0235V68.9765C109 71.0849 109 72.1391 108.586 72.9444C108.223 73.6528 107.642 74.2287 106.928 74.5897C106.116 75 105.054 75 102.928 75H72" stroke="#0057F2" stroke-width="2" stroke-linecap="round" stroke-linejoin="round"/>
<path d="M88.6088 85.0632C88.6088 82.9409 88.6088 81.8797 89.0321 81.0691C89.4045 80.3561 89.9987 79.7763 90.7295 79.413C91.5604 79 92.648 79 94.8233 79H102.786C104.961 79 106.049 79 106.879 79.413C107.61 79.7763 108.204 80.3561 108.577 81.0691C109 81.8797 109 82.9409 109 85.0632V90.9368C109 93.0591 109 94.1203 108.577 94.9309C108.204 95.6439 107.61 96.2237 106.879 96.587C106.049 97 104.961 97 102.786 97H94.8233C92.648 97 91.5604 97 90.7295 96.587C89.9987 96.2237 89.4045 95.6439 89.0321 94.9309C88.6088 94.1203 88.6088 93.0591 88.6088 90.9368V85.0632Z" fill="#F9FAFC"/>
<path d="M67.4252 96.587C68.256 97 69.3437 97 71.5189 97H79.4812C81.6565 97 82.7442 97 83.575 96.587C84.3058 96.2237 84.9 95.6439 85.2724 94.9309C85.6957 94.1203 85.6957 93.0591 85.6957 90.9368V85.0632C85.6957 82.9409 85.6957 81.8797 85.2724 81.0691C84.9 80.3561 84.3058 79.7763 83.575 79.413C82.7442 79 81.6565 79 79.4812 79H71.5189M94.8233 97H102.786C104.961 97 106.049 97 106.879 96.587C107.61 96.2237 108.204 95.6439 108.577 94.9309C109 94.1203 109 93.0591 109 90.9368V85.0632C109 82.9409 109 81.8797 108.577 81.0691C108.204 80.3561 107.61 79.7763 106.879 79.413C106.049 79 104.961 79 102.786 79H94.8233C92.648 79 91.5604 79 90.7295 79.413C89.9987 79.7763 89.4045 80.3561 89.0321 81.0691C88.6088 81.8797 88.6088 82.9409 88.6088 85.0632V90.9368C88.6088 93.0591 88.6088 94.1203 89.0321 94.9309C89.4045 95.6439 89.9987 96.2237 90.7295 96.587C91.5604 97 92.648 97 94.8233 97Z" stroke="#0057F2" stroke-width="2" stroke-linecap="round" stroke-linejoin="round"/>
<path d="M58 116L83 12" stroke="#0057F2" stroke-width="3" stroke-linecap="round"/>
<path d="M11 31.1172V83.6172C11 88.4497 14.426 92.3672 18.6522 92.3672H51.5L69 22.3672H18.6522C14.426 22.3672 11 26.2847 11 31.1172Z" fill="#F9FAFC"/>
<path d="M69 22.3672H18.6522C14.426 22.3672 11 26.2847 11 31.1172V83.6172C11 88.4497 14.426 92.3672 18.6522 92.3672H51.5" stroke="#2B2727" stroke-width="3" stroke-linecap="round" stroke-linejoin="round"/>
<g clip-path="url(#clip2_64_25570)">
<rect width="12" height="12" transform="translate(20 30)" fill="#F9FAFC"/>
<path d="M25.9983 32.0844C23.9976 32.0844 22.35 33.5919 22.1222 35.5333C22.1107 35.6313 22.1021 35.73 22.0975 35.8298C22.0933 35.9198 22.1665 35.9928 22.2563 35.9928H22.8492C22.9391 35.9928 23.0115 35.9198 23.0172 35.8299C23.0236 35.7297 23.0354 35.631 23.0505 35.5333C23.2719 34.1015 24.5059 33.0035 25.9983 33.0035C27.6473 33.0035 28.9833 34.3423 28.9833 35.9928C28.9833 37.6434 27.6473 38.9807 25.9983 38.9807H21.5189C21.3912 38.9807 21.3141 39.1211 21.3872 39.2261C21.5405 39.4463 21.7089 39.6553 21.8915 39.8508C21.9217 39.8833 21.9642 39.9013 22.0085 39.9013H25.9983C28.1547 39.9013 29.903 38.1513 29.9029 35.9928C29.9029 33.8344 28.1547 32.0844 25.9983 32.0844Z" fill="#2B2727"/>
<path d="M25.9983 30.375C24.2502 30.375 22.6881 31.1719 21.656 32.4237C20.9366 33.2961 20.4887 34.3973 20.3959 35.5247C20.3957 35.5276 20.3947 35.5303 20.3945 35.5333C20.3865 35.6317 20.3793 35.7304 20.3751 35.8298C20.3714 35.9198 20.4444 35.9928 20.5342 35.9928H21.1272C21.217 35.9928 21.2896 35.9198 21.2928 35.8298C21.2964 35.7302 21.3032 35.6316 21.3127 35.5333C21.5439 33.1466 23.5532 31.2798 25.9983 31.2798C28.5986 31.2798 30.7068 33.39 30.7068 35.9928C30.7068 38.5957 28.5986 40.7059 25.9983 40.7059H23.4403C23.279 40.7059 23.2219 40.9068 23.3645 40.9824C24.0707 41.3563 24.8664 41.5822 25.7108 41.625H25.9983C28.9118 41.625 31.3068 39.4086 31.595 36.5684C31.6137 36.3838 31.6245 36.1967 31.625 36.0072C31.625 35.8127 31.6142 35.6195 31.595 35.4302C31.3068 32.59 28.9118 30.375 25.9983 30.375Z" fill="#2B2727"/>
<path d="M25.9983 33.8081C24.9512 33.8081 24.0785 34.5484 23.8672 35.5333C23.8464 35.6303 23.8308 35.7291 23.8225 35.83C23.8151 35.9197 23.8885 35.9928 23.9783 35.9928H24.5727C24.6625 35.9928 24.7343 35.9195 24.7464 35.8303C24.7604 35.7269 24.7872 35.6276 24.8241 35.5333C25.008 35.0627 25.463 34.7287 25.9983 34.7287C26.696 34.7287 27.2612 35.2945 27.2613 35.9928C27.2613 36.6912 26.696 37.257 25.9983 37.257H21.46C21.4253 37.1298 21.393 36.9974 21.3565 36.8706C21.3309 36.7816 21.251 36.7201 21.1698 36.7201H20.5819C20.5017 36.7201 20.43 36.8137 20.4455 36.9024C20.5199 37.2994 20.6088 37.7145 20.7693 38.0867C20.7943 38.1449 20.8557 38.1761 20.9132 38.1761H25.9983C27.2033 38.1761 28.1795 37.199 28.1795 35.9928C28.1795 34.7867 27.2033 33.8081 25.9983 33.8081Z" fill="#2B2727"/>
</g>
<path d="M43.2596 36.3672H55.3173M63.3558 36.3672H65.3943" stroke="#2B2727" stroke-width="2" stroke-linecap="round"/>
<path d="M21 70.4C21 68.1598 21 67.0397 21.436 66.184C21.8195 65.4314 22.4314 64.8195 23.184 64.436C24.0397 64 25.1598 64 27.4 64H35.6C37.8402 64 38.9603 64 39.816 64.436C40.5686 64.8195 41.1805 65.4314 41.564 66.184C42 67.0397 42 68.1598 42 70.4V75.6C42 77.8402 42 78.9603 41.564 79.816C41.1805 80.5686 40.5686 81.1805 39.816 81.564C38.9603 82 37.8402 82 35.6 82H27.4C25.1598 82 24.0397 82 23.184 81.564C22.4314 81.1805 21.8195 80.5686 21.436 79.816C21 78.9603 21 77.8402 21 75.6V70.4Z" fill="#F9FAFC"/>
<path d="M63.5 44H27.4C25.1598 44 24.0397 44 23.184 44.436C22.4314 44.8195 21.8195 45.4314 21.436 46.184C21 47.0397 21 48.1598 21 50.4V53.6C21 55.8402 21 56.9603 21.436 57.816C21.8195 58.5686 22.4314 59.1805 23.184 59.564C24.0397 60 25.1598 60 27.4 60H59.5M58.5 64H52.4C50.1598 64 49.0397 64 48.184 64.436C47.4314 64.8195 46.8195 65.4314 46.436 66.184C46 67.0397 46 68.1598 46 70.4V75.6C46 77.8402 46 78.9603 46.436 79.816C46.8195 80.5686 47.4314 81.1805 48.184 81.564C49.0397 82 50.1598 82 52.4 82H54M27.4 82H35.6C37.8402 82 38.9603 82 39.816 81.564C40.5686 81.1805 41.1805 80.5686 41.564 79.816C42 78.9603 42 77.8402 42 75.6V70.4C42 68.1598 42 67.0397 41.564 66.184C41.1805 65.4314 40.5686 64.8195 39.816 64.436C38.9603 64 37.8402 64 35.6 64H27.4C25.1598 64 24.0397 64 23.184 64.436C22.4314 64.8195 21.8195 65.4314 21.436 66.184C21 67.0397 21 68.1598 21 70.4V75.6C21 77.8402 21 78.9603 21.436 79.816C21.8195 80.5686 22.4314 81.1805 23.184 81.564C24.0397 82 25.1598 82 27.4 82Z" stroke="#2B2727" stroke-width="2" stroke-linecap="round" stroke-linejoin="round"/>
<path d="M113 43.25V92.75C113 97.3064 109.73 101 105.696 101H59.5909L75.2955 35H105.696C109.73 35 113 38.6937 113 43.25Z" fill="#F9FAFC"/>
<path d="M75.2955 35H105.696C109.73 35 113 38.6937 113 43.25V92.75C113 97.3063 109.73 101 105.696 101H59.5909" stroke="#2B2727" stroke-width="3" stroke-linecap="round" stroke-linejoin="round"/>
<path d="M79.3558 47.3672H87.3943M95.4328 47.3672H103.471" stroke="#2B2727" stroke-width="2" stroke-linecap="round"/>
<path d="M70.2692 55H96.9282C99.0535 55 100.116 55 100.928 55.4103C101.642 55.7713 102.223 56.3472 102.586 57.0556C103 57.8609 103 58.9151 103 61.0235V64.9765C103 67.0849 103 68.1391 102.586 68.9444C102.223 69.6528 101.642 70.2287 100.928 70.5897C100.116 71 99.0535 71 96.9282 71H66" stroke="#2B2727" stroke-width="2" stroke-linecap="round" stroke-linejoin="round"/>
<path d="M82.6088 81.0632C82.6088 78.9409 82.6088 77.8797 83.0321 77.0691C83.4045 76.3561 83.9987 75.7763 84.7295 75.413C85.5604 75 86.648 75 88.8233 75H96.7856C98.9609 75 100.049 75 100.879 75.413C101.61 75.7763 102.204 76.3561 102.577 77.0691C103 77.8797 103 78.9409 103 81.0632V86.9368C103 89.0591 103 90.1203 102.577 90.9309C102.204 91.6439 101.61 92.2237 100.879 92.587C100.049 93 98.9609 93 96.7856 93H88.8233C86.648 93 85.5604 93 84.7295 92.587C83.9987 92.2237 83.4045 91.6439 83.0321 90.9309C82.6088 90.1203 82.6088 89.0591 82.6088 86.9368V81.0632Z" fill="#F9FAFC"/>
<path d="M61.4252 92.587C62.256 93 63.3437 93 65.5189 93H73.4812C75.6565 93 76.7442 93 77.575 92.587C78.3058 92.2237 78.9 91.6439 79.2724 90.9309C79.6957 90.1203 79.6957 89.0591 79.6957 86.9368V81.0632C79.6957 78.9409 79.6957 77.8797 79.2724 77.0691C78.9 76.3561 78.3058 75.7763 77.575 75.413C76.7442 75 75.6565 75 73.4812 75H65.5189M88.8233 93H96.7856C98.9609 93 100.049 93 100.879 92.587C101.61 92.2237 102.204 91.6439 102.577 90.9309C103 90.1203 103 89.0591 103 86.9368V81.0632C103 78.9409 103 77.8797 102.577 77.0691C102.204 76.3561 101.61 75.7763 100.879 75.413C100.049 75 98.9609 75 96.7856 75H88.8233C86.648 75 85.5604 75 84.7295 75.413C83.9987 75.7763 83.4045 76.3561 83.0321 77.0691C82.6088 77.8797 82.6088 78.9409 82.6088 81.0632V86.9368C82.6088 89.0591 82.6088 90.1203 83.0321 90.9309C83.4045 91.6439 83.9987 92.2237 84.7295 92.587C85.5604 93 86.648 93 88.8233 93Z" stroke="#2B2727" stroke-width="2" stroke-linecap="round" stroke-linejoin="round"/>
<path d="M52 112L77 8.00001" stroke="#2B2727" stroke-width="3" stroke-linecap="round"/>
</g>
<defs>
<clipPath id="clip0_64_25570">
<rect width="128" height="128" fill="white"/>
</clipPath>
<clipPath id="clip1_64_25570">
<rect width="12" height="12" fill="white" transform="translate(26 34)"/>
</clipPath>
<clipPath id="clip2_64_25570">
<rect width="12" height="12" fill="white" transform="translate(20 30)"/>
</clipPath>
</defs>
</svg>
