<svg width="196" height="69" viewBox="0 0 196 69" fill="none" xmlns="http://www.w3.org/2000/svg">
<path d="M35.5107 21.0566C29.0884 21.0566 23.736 25.5968 22.4397 31.6374C22.3122 32.2322 22.2166 32.8383 22.1655 33.4572C22.1202 34.0076 22.5705 34.456 23.1215 34.456H26.7669C27.3179 34.456 27.7579 34.0063 27.832 33.4591C27.9178 32.825 28.0826 32.2159 28.3086 31.6374C29.4368 28.7511 32.2271 26.7025 35.5107 26.7027C39.7896 26.7027 43.2564 30.1729 43.2567 34.456C43.2567 38.7391 39.7896 42.2093 35.5107 42.2096H3.1272C2.48695 42.2096 2.0118 42.8058 2.17447 43.4265C2.51492 44.7255 2.92409 45.9965 3.40842 47.2303C3.55569 47.6054 3.91995 47.847 4.32218 47.847H35.5107C42.9013 47.847 48.8884 41.8541 48.8884 34.456C48.8884 27.0582 42.9013 21.0566 35.5107 21.0566Z" fill="#003DAE"/>
<path d="M35.5107 10.4845C23.2397 10.4845 13.1342 19.7303 11.7374 31.6374C11.6669 32.2389 11.614 32.8442 11.5856 33.4564C11.5599 34.0081 12.0086 34.456 12.5596 34.456H16.1963C16.7473 34.456 17.1914 34.0079 17.2266 33.4567C17.2658 32.8422 17.3381 32.2367 17.4309 31.6374C18.7887 22.856 26.3571 16.1216 35.5107 16.1216C45.6243 16.1216 53.8187 24.3326 53.8187 34.456C53.8187 44.5797 45.6243 52.7817 35.5107 52.7817H8.03712C7.25358 52.7817 6.78091 53.6427 7.22932 54.2868C8.16969 55.6374 9.20254 56.9194 10.322 58.1185C10.5076 58.3173 10.7681 58.4279 11.0398 58.4279H35.5107C48.7363 58.4279 59.4593 47.6947 59.4591 34.456C59.4591 21.2176 48.7363 10.4845 35.5107 10.4845Z" fill="#003DAE"/>
<path d="M35.5107 0C24.789 0 15.2079 4.88777 8.87774 12.5655C4.46566 17.9161 1.71806 24.67 1.14935 31.5849C1.14767 31.6026 1.14177 31.6195 1.14037 31.6374C1.09163 32.2413 1.04713 32.8463 1.02184 33.4563C0.998955 34.0081 1.44668 34.456 1.99767 34.456H5.63436C6.18535 34.456 6.63026 34.0082 6.65021 33.4562C6.6723 32.8454 6.71396 32.2402 6.77237 31.6374C8.19055 16.9989 20.514 5.54949 35.5107 5.54949C51.4592 5.54949 64.3893 18.492 64.3893 34.456C64.3893 50.4203 51.4592 63.3628 35.5107 63.3626H19.8215C18.8322 63.3626 18.4819 64.5953 19.3566 65.0585C23.6877 67.3522 28.5683 68.7377 33.7475 69H35.5107C53.3799 69 68.0695 55.4058 69.8369 37.9861C69.9517 36.8537 70.0182 35.7061 70.021 34.544C70.021 33.3515 69.9548 32.1665 69.8369 31.0052C68.0695 13.5854 53.3799 0 35.5107 0Z" fill="#003DAE"/>
<path d="M85.0692 25.9472C88.4262 23.3981 93.4503 23.6818 97.0128 25.6621C97.0972 25.709 97.1484 25.7982 97.1484 25.8947V29.419C97.1484 29.6166 96.9424 29.7476 96.7602 29.6708C95.3326 29.0689 93.7327 28.768 91.9607 28.768C89.3813 28.768 88.0918 29.3974 88.0918 30.6559C88.0918 32.2828 90.6835 32.7765 91.8726 33.0817C94.1477 33.6651 96.3478 34.4982 97.7089 36.5173C98.4492 37.6149 98.8192 39.0125 98.8192 40.7099C98.8192 45.1777 94.3661 47.2738 90.4438 47.2738C87.9187 47.2738 85.5904 46.6846 83.4587 45.5064C83.3738 45.4595 83.3216 45.3697 83.3216 45.2727V41.1257C83.3216 40.9105 83.5625 40.781 83.7461 40.8935C85.6021 42.0297 87.5782 42.5979 89.6745 42.5979C91.2754 42.5979 93.4115 42.5105 93.4115 40.4467C93.4115 38.7657 90.8712 38.16 89.6194 37.8015C87.4695 37.1857 85.2286 36.5356 83.794 34.7061C81.7764 32.1327 82.5343 27.8721 85.0692 25.9472Z" fill="#003DAE"/>
<path d="M165.278 46.9226C165.129 46.9226 165.009 46.8019 165.009 46.653V26.6768C165.009 26.5731 165.068 26.4784 165.162 26.4353C165.512 26.2754 165.966 26.0907 166.525 25.8814C169.462 24.7818 172.824 24.2215 175.946 24.1418C176.096 24.138 176.22 24.2594 176.22 24.4099V28.5461C176.22 28.6936 176.101 28.8135 175.953 28.8166C173.899 28.8595 172.118 29.0883 170.611 29.5034C170.495 29.5352 170.416 29.6409 170.416 29.7607V46.653C170.416 46.8019 170.296 46.9226 170.147 46.9226H165.278Z" fill="#003DAE"/>
<path d="M131.283 24.1387C124.725 24.1387 121.523 29.7818 121.523 35.6415C121.523 41.9511 125.085 46.6177 131.661 46.6177C132.635 46.6041 133.66 46.4963 134.742 46.3005C134.909 46.2703 135.064 46.3976 135.064 46.5672C135.064 47.25 135.13 47.9793 134.959 48.6459C134.493 50.4628 132.532 50.7272 130.951 50.8189C130.807 50.8273 130.694 50.9456 130.694 51.0894V55.3876C130.694 55.5383 130.818 55.6599 130.969 55.6554C135.016 55.5357 139.389 53.8648 140.278 49.5152C140.41 48.8712 140.472 48.1865 140.472 47.4694V31.5146C140.472 26.3617 135.86 24.1387 131.283 24.1387ZM131.283 28.9417C131.298 28.9417 131.324 28.9417 131.354 28.9417C133.83 28.9417 135.064 29.7759 135.064 31.4444V41.6713C135.064 41.8003 134.973 41.9115 134.846 41.9344C133.861 42.112 132.861 42.2009 131.837 42.2009C127.891 42.2009 126.931 39.2007 126.931 35.7295C126.931 32.7463 127.563 28.9417 131.283 28.9417Z" fill="#003DAE"/>
<path d="M104.511 24.7777C104.395 24.8093 104.315 24.9153 104.315 25.0357V28.8708C104.315 29.0482 104.484 29.1772 104.656 29.1349C106.045 28.7938 107.571 28.6168 109.257 28.6168C112.318 28.6168 113.909 29.9208 114.025 32.5371C114.032 32.7013 113.885 32.828 113.722 32.8058C111.059 32.4428 108.204 32.3224 105.608 33.1213C102.652 34.0309 100.402 36.4386 100.402 39.593C100.402 44.9769 105.265 47.2761 110.03 47.2761C114.661 47.2761 119.483 44.9628 119.483 39.7245V33.6659C119.483 30.5778 118.633 28.2114 116.933 26.5797C113.789 23.5622 108.468 23.7033 104.511 24.7777ZM110.839 35.9927C111.678 36.0064 112.681 36.0871 113.843 36.242C113.976 36.2598 114.075 36.3738 114.075 36.5083V39.11C114.075 41.3784 112.727 42.5083 110.03 42.5083C110.016 42.5083 110.001 42.5083 109.986 42.5083C107.158 42.5083 105.739 41.3082 105.739 38.908C105.754 36.9616 107.454 35.9927 110.839 35.9927Z" fill="#003DAE"/>
<path d="M146.955 24.7776C146.839 24.8092 146.759 24.9152 146.759 25.0356V28.8708C146.759 29.0482 146.927 29.1772 147.1 29.1349C148.49 28.7938 150.024 28.6168 151.709 28.6168C154.77 28.6168 156.354 29.9208 156.469 32.5371C156.476 32.7013 156.329 32.828 156.166 32.8058C153.505 32.4431 150.655 32.323 148.06 33.1213C145.074 34.0401 142.846 36.403 142.846 39.593C142.846 44.9705 147.718 47.2761 152.474 47.2761C157.114 47.2761 161.927 44.9691 161.927 39.7245V33.6659C161.927 30.5778 161.077 28.2114 159.377 26.5797C156.234 23.5624 150.912 23.7013 146.955 24.7776ZM153.292 35.9927C154.131 36.0064 155.126 36.0871 156.287 36.242C156.42 36.2598 156.519 36.3738 156.519 36.5083V39.11C156.519 41.3784 155.171 42.5083 152.474 42.5083C152.46 42.5083 152.445 42.5083 152.43 42.5083C149.602 42.5083 148.192 41.3082 148.192 38.908C148.207 36.9616 149.907 35.9927 153.292 35.9927Z" fill="#003DAE"/>
<path d="M181.028 24.7776C180.911 24.8092 180.832 24.9152 180.832 25.0356V28.8708C180.832 29.0482 181 29.1772 181.173 29.1349C182.563 28.7938 184.097 28.6168 185.782 28.6168C188.843 28.6168 190.427 29.9208 190.541 32.5371C190.549 32.7013 190.402 32.828 190.239 32.8058C187.578 32.4431 184.728 32.3232 182.133 33.1213C179.171 34.0326 176.919 36.3907 176.919 39.593C176.919 44.9705 181.791 47.2761 186.547 47.2761C191.187 47.2761 196 44.9691 196 39.7245V33.6659C196 30.5778 195.15 28.2114 193.45 26.5797C190.306 23.5622 184.985 23.7014 181.028 24.7776ZM187.365 35.9927C188.203 36.0064 189.199 36.0871 190.36 36.242C190.493 36.2598 190.592 36.3738 190.592 36.5083V39.11C190.592 41.3784 189.244 42.5083 186.547 42.5083C186.533 42.5083 186.518 42.5083 186.503 42.5083C183.675 42.5083 182.265 41.3082 182.265 38.908C182.28 36.9616 183.98 35.9927 187.365 35.9927Z" fill="#003DAE"/>
</svg>
