<svg xmlns="http://www.w3.org/2000/svg" width="159" height="56" viewBox="0 0 159 56" fill="#003DAE">
  <g id="logo-mark">
    <path d="M28.197 8.51c-10.012 0-18.258 7.503-19.398 17.167-.057.488-.1.98-.123 1.476a.784.784 0 0 0 .794.811h2.968c.45 0 .811-.363.84-.81.032-.5.091-.99.167-1.477 1.108-7.127 7.283-12.593 14.752-12.593 8.252 0 14.938 6.664 14.938 14.88 0 8.217-6.686 14.873-14.938 14.873H5.78c-.639 0-1.025.7-.659 1.222a28.03 28.03 0 0 0 2.524 3.11.802.802 0 0 0 .585.25h19.967c10.79 0 19.54-8.71 19.54-19.455 0-10.744-8.75-19.455-19.54-19.455Z"/>
    <path d="M28.197 0a28.148 28.148 0 0 0-21.73 10.198C2.866 14.541.623 20.022.16 25.634c-.001.014-.006.028-.007.043-.04.49-.076.98-.097 1.476a.786.786 0 0 0 .797.811H3.82c.45 0 .812-.363.829-.811a24 24 0 0 1 .1-1.476C5.904 13.797 15.96 4.504 28.196 4.504c13.012 0 23.562 10.504 23.562 23.46 0 12.957-10.55 23.46-23.562 23.46H15.395c-.807 0-1.093 1.001-.379 1.377A28.178 28.178 0 0 0 26.758 56h1.439c14.58 0 26.565-11.033 28.007-25.17.094-.92.148-1.851.15-2.794 0-.968-.054-1.93-.15-2.872C54.762 11.026 42.776 0 28.197 0Z"/>
    <path d="M28.197 17.09c-5.24 0-9.608 3.684-10.665 8.587-.104.483-.182.974-.224 1.477-.037.446.33.81.78.81h2.974c.45 0 .809-.365.87-.809a6.4 6.4 0 0 1 .388-1.478 6.308 6.308 0 0 1 5.877-4.005c3.49 0 6.32 2.816 6.32 6.292s-2.83 6.293-6.32 6.293H5.485c-.174-.633-.335-1.292-.518-1.923-.128-.443-.527-.75-.934-.75H1.091c-.401 0-.76.466-.683.908.373 1.976.818 4.042 1.62 5.895.126.29.433.445.721.445h25.448c6.03 0 10.915-4.863 10.915-10.868 0-6.004-4.885-10.875-10.915-10.875Z"/>
  </g>
  <path id="logo-text" d="M68.636 21.059c2.724-2.07 6.802-1.839 9.693-.232.069.038.11.11.11.189v2.86c0 .16-.167.267-.315.205-1.158-.489-2.457-.733-3.895-.733-2.093 0-3.14.51-3.14 1.532 0 1.32 2.103 1.721 3.069 1.969 1.846.473 3.632 1.15 4.736 2.788.601.891.901 2.025.901 3.403 0 3.626-3.614 5.327-6.797 5.327-2.05 0-3.94-.478-5.67-1.434a.216.216 0 0 1-.11-.19v-3.366c0-.174.195-.28.344-.188 1.506.922 3.11 1.383 4.812 1.383 1.299 0 3.032-.07 3.032-1.746 0-1.364-2.061-1.856-3.077-2.147-1.745-.5-3.564-1.027-4.728-2.512-1.638-2.088-1.022-5.546 1.035-7.108Zm65.097 17.023a.219.219 0 0 1-.219-.219V21.651c0-.084.048-.161.125-.196.284-.13.653-.28 1.106-.45 2.384-.892 5.112-1.347 7.646-1.412a.217.217 0 0 1 .222.218v3.357a.22.22 0 0 1-.216.22c-1.667.034-3.112.22-4.336.557a.216.216 0 0 0-.158.209v13.71c0 .12-.098.218-.219.218h-3.951Zm-27.59-18.492c-5.322 0-7.921 4.58-7.921 9.336 0 5.121 2.891 8.909 8.228 8.909.79-.011 1.622-.099 2.5-.258a.222.222 0 0 1 .262.217c0 .554.053 1.146-.086 1.687-.378 1.474-1.969 1.689-3.253 1.763a.22.22 0 0 0-.208.22v3.488c0 .123.1.221.223.218 3.284-.098 6.834-1.454 7.555-4.984a8.288 8.288 0 0 0 .157-1.66V25.577c0-4.182-3.743-5.986-7.457-5.986Zm0 3.899h.057c2.01 0 3.012.677 3.012 2.031v8.3a.217.217 0 0 1-.178.214c-.799.144-1.611.216-2.442.216-3.202 0-3.982-2.435-3.982-5.252 0-2.421.513-5.51 3.533-5.51ZM84.415 20.11a.217.217 0 0 0-.16.209v3.112c0 .144.138.25.277.215 1.128-.277 2.367-.42 3.734-.42 2.484 0 3.776 1.058 3.87 3.18a.214.214 0 0 1-.245.219c-2.162-.295-4.479-.392-6.586.256-2.4.738-4.225 2.692-4.225 5.252 0 4.37 3.947 6.236 7.814 6.236 3.759 0 7.672-1.877 7.672-6.129v-4.917c0-2.506-.69-4.427-2.07-5.751-2.551-2.45-6.87-2.335-10.081-1.463Zm5.136 9.102c.68.01 1.495.076 2.437.202a.218.218 0 0 1 .189.216v2.111c0 1.842-1.094 2.758-3.283 2.758h-.035c-2.296 0-3.447-.974-3.447-2.922.012-1.58 1.391-2.366 4.139-2.366Zm29.311-9.102a.217.217 0 0 0-.159.209v3.112c0 .144.137.25.277.215 1.128-.277 2.373-.42 3.741-.42 2.484 0 3.769 1.058 3.862 3.18a.214.214 0 0 1-.245.219c-2.16-.294-4.473-.392-6.579.256-2.423.746-4.232 2.663-4.232 5.252 0 4.365 3.954 6.236 7.815 6.236 3.765 0 7.671-1.872 7.671-6.129v-4.917c0-2.506-.69-4.427-2.07-5.751-2.551-2.449-6.87-2.336-10.081-1.463Zm5.143 9.102c.681.01 1.489.076 2.43.202a.217.217 0 0 1 .189.216v2.111c0 1.842-1.094 2.758-3.282 2.758h-.036c-2.296 0-3.44-.974-3.44-2.922.012-1.58 1.392-2.366 4.139-2.366Zm22.51-9.102a.217.217 0 0 0-.159.209v3.112c0 .144.137.25.277.215 1.128-.277 2.373-.42 3.741-.42 2.484 0 3.77 1.058 3.863 3.18a.214.214 0 0 1-.246.219c-2.159-.294-4.473-.392-6.579.256-2.403.74-4.231 2.654-4.231 5.252 0 4.365 3.954 6.236 7.814 6.236 3.765 0 7.672-1.872 7.672-6.129v-4.917c0-2.506-.69-4.427-2.07-5.751-2.551-2.449-6.87-2.336-10.082-1.463Zm5.144 9.102c.68.01 1.488.076 2.43.202a.218.218 0 0 1 .189.216v2.111c0 1.842-1.095 2.758-3.283 2.758h-.036c-2.295 0-3.44-.974-3.44-2.922.012-1.58 1.392-2.366 4.14-2.366Z" />
</svg>
