<svg width="1248" height="346" viewBox="0 0 1248 346" fill="none" xmlns="http://www.w3.org/2000/svg">
<g id="img">
<rect x="195.192" y="120.162" width="50" height="61" rx="10" transform="rotate(9.41434 195.192 120.162)" fill="var(--svg-fill)" stroke="var(--svg-stroke)" stroke-width="3"/>
<path d="M196.24 172.795L197.614 164.508L203.391 165.466L203.148 166.934L199.147 166.271L198.84 168.117L202.487 168.722L202.251 170.143L198.605 169.538L198.259 171.622L202.261 172.285L202.017 173.753L196.24 172.795Z" fill="var(--svg-stroke)"/>
<path d="M203.818 174.052L205.192 165.765L208.377 166.293C209.126 166.417 209.727 166.634 210.178 166.944C210.631 167.246 210.942 167.622 211.111 168.072C211.281 168.514 211.32 169.011 211.228 169.563C211.137 170.116 210.938 170.578 210.634 170.949C210.33 171.312 209.915 171.567 209.387 171.715C208.861 171.855 208.224 171.863 207.474 171.738L206.053 171.503L205.582 174.344L203.818 174.052ZM206.297 170.035L207.54 170.241C208.171 170.346 208.631 170.312 208.919 170.141C209.214 169.971 209.396 169.681 209.464 169.271C209.531 168.868 209.452 168.539 209.227 168.283C209.011 168.02 208.587 167.836 207.956 167.731L206.713 167.525L206.297 170.035Z" fill="var(--svg-stroke)"/>
<path d="M215.266 176.096C214.556 175.978 213.962 175.75 213.483 175.411C213.003 175.072 212.664 174.622 212.465 174.062C212.266 173.502 212.231 172.835 212.359 172.062L213.184 167.09L214.947 167.382L214.151 172.189C214.033 172.899 214.083 173.455 214.3 173.856C214.517 174.256 214.922 174.506 215.514 174.604C216.106 174.702 216.569 174.597 216.904 174.287C217.239 173.978 217.465 173.472 217.582 172.77L218.381 167.951L220.145 168.244L219.32 173.216C219.192 173.99 218.943 174.609 218.574 175.075C218.213 175.542 217.751 175.859 217.188 176.025C216.625 176.191 215.985 176.215 215.266 176.096Z" fill="var(--svg-stroke)"/>
<path d="M220.812 176.869L222.186 168.582L225.726 169.169C226.657 169.324 227.307 169.634 227.676 170.101C228.054 170.561 228.185 171.138 228.07 171.833C227.999 172.259 227.832 172.608 227.568 172.881C227.313 173.147 226.997 173.317 226.619 173.392C227.074 173.581 227.408 173.868 227.62 174.252C227.834 174.628 227.896 175.084 227.807 175.621C227.728 176.094 227.561 176.492 227.305 176.815C227.05 177.129 226.693 177.35 226.234 177.476C225.776 177.595 225.2 177.597 224.506 177.482L220.812 176.869ZM222.8 175.812L224.41 176.079C224.962 176.171 225.361 176.14 225.605 175.985C225.85 175.831 226.003 175.569 226.064 175.198C226.126 174.827 226.067 174.521 225.888 174.281C225.718 174.034 225.349 173.863 224.781 173.769L223.183 173.504L222.8 175.812ZM223.383 172.296L224.804 172.532C225.285 172.612 225.636 172.573 225.857 172.415C226.086 172.258 226.227 172.018 226.28 171.694C226.335 171.363 226.283 171.094 226.122 170.889C225.961 170.684 225.64 170.542 225.159 170.462L223.726 170.225L223.383 172.296Z" fill="var(--svg-stroke)"/>
<rect x="191" y="77.772" width="50" height="61" rx="10" transform="rotate(-5.47652 191 77.772)" fill="var(--svg-fill)" stroke="var(--svg-stroke)" stroke-width="3"/>
<path d="M210.052 128.184L209.25 119.822L212.463 119.514C213.22 119.442 213.856 119.497 214.372 119.681C214.887 119.856 215.284 120.14 215.562 120.531C215.84 120.914 216.006 121.385 216.059 121.942C216.113 122.5 216.04 122.997 215.841 123.434C215.641 123.863 215.305 124.216 214.833 124.495C214.361 124.765 213.747 124.936 212.99 125.009L211.557 125.146L211.832 128.013L210.052 128.184ZM211.415 123.665L212.669 123.545C213.306 123.484 213.742 123.334 213.976 123.094C214.218 122.854 214.319 122.527 214.28 122.113C214.241 121.707 214.079 121.409 213.796 121.219C213.52 121.02 213.063 120.951 212.426 121.013L211.172 121.133L211.415 123.665Z" fill="var(--svg-stroke)"/>
<path d="M217.996 127.422L217.194 119.061L220.097 118.782C220.941 118.701 221.676 118.784 222.302 119.029C222.929 119.274 223.426 119.681 223.794 120.248C224.169 120.807 224.398 121.524 224.482 122.4L224.505 122.639C224.59 123.531 224.499 124.299 224.232 124.944C223.964 125.588 223.535 126.1 222.944 126.478C222.361 126.847 221.639 127.073 220.779 127.155L217.996 127.422ZM219.634 125.77L220.517 125.686C220.955 125.644 221.346 125.522 221.688 125.32C222.03 125.119 222.291 124.816 222.469 124.414C222.655 124.002 222.716 123.47 222.653 122.817L222.631 122.578C222.571 121.957 222.424 121.472 222.19 121.125C221.955 120.77 221.655 120.53 221.289 120.404C220.931 120.278 220.541 120.235 220.119 120.275L219.116 120.371L219.634 125.77Z" fill="var(--svg-stroke)"/>
<path d="M226.476 126.609L225.675 118.248L231.396 117.699L231.538 119.18L227.597 119.558L227.798 121.66L231.382 121.317L231.519 122.75L227.936 123.094L228.256 126.439L226.476 126.609Z" fill="var(--svg-stroke)"/>
<rect x="236.634" y="82.9119" width="50" height="61" rx="10" transform="rotate(3.51872 236.634 82.9119)" fill="var(--svg-fill)" stroke="var(--svg-stroke)" stroke-width="3"/>
<path d="M249.953 135.582L250.377 128.683L247.682 128.517L247.773 127.032L254.948 127.473L254.857 128.958L252.162 128.793L251.737 135.692L249.953 135.582Z" fill="var(--svg-stroke)"/>
<path d="M255.159 135.902L258.242 131.703L255.794 127.525L257.806 127.649L259.482 130.505L261.507 127.876L263.46 127.997L260.544 131.809L263.064 136.388L261.04 136.264L259.28 133.005L257.147 136.024L255.159 135.902Z" fill="var(--svg-stroke)"/>
<path d="M266.491 136.599L266.916 129.7L264.221 129.534L264.312 128.049L271.486 128.49L271.395 129.975L268.7 129.81L268.276 136.709L266.491 136.599Z" fill="var(--svg-stroke)"/>
<rect x="224.039" y="150" width="50" height="61" rx="10" transform="rotate(3.79612 224.039 150)" fill="var(--svg-fill)" stroke="var(--svg-stroke)" stroke-width="3"/>
<path d="M230.118 202.518L233.222 198.334L230.794 194.144L232.805 194.278L234.467 197.142L236.505 194.523L238.457 194.653L235.523 198.451L238.021 203.042L235.997 202.908L234.253 199.641L232.106 202.65L230.118 202.518Z" fill="var(--svg-stroke)"/>
<path d="M239.232 203.122L239.788 194.741L241.572 194.859L241.115 201.756L244.946 202.01L244.848 203.495L239.232 203.122Z" fill="var(--svg-stroke)"/>
<path d="M249.033 203.917C248.291 203.868 247.679 203.723 247.198 203.483C246.716 203.242 246.356 202.93 246.117 202.545C245.887 202.153 245.776 201.709 245.785 201.212L247.581 201.331C247.624 201.647 247.752 201.896 247.964 202.078C248.185 202.261 248.574 202.371 249.133 202.408C249.708 202.446 250.124 202.398 250.381 202.263C250.647 202.12 250.79 201.905 250.809 201.618C250.825 201.378 250.762 201.178 250.62 201.016C250.487 200.855 250.272 200.712 249.975 200.588C249.679 200.456 249.291 200.326 248.811 200.198C248.251 200.049 247.775 199.861 247.381 199.634C246.987 199.408 246.694 199.116 246.501 198.758C246.316 198.401 246.241 197.959 246.276 197.432C246.308 196.945 246.464 196.535 246.743 196.2C247.022 195.858 247.408 195.603 247.9 195.435C248.392 195.268 248.961 195.205 249.608 195.248C250.311 195.295 250.879 195.433 251.312 195.662C251.755 195.884 252.08 196.178 252.288 196.544C252.504 196.912 252.616 197.336 252.625 197.817L250.841 197.699C250.796 197.407 250.678 197.187 250.487 197.038C250.297 196.881 249.971 196.788 249.508 196.757C249.037 196.726 248.685 196.778 248.451 196.915C248.218 197.052 248.092 197.248 248.075 197.504C248.055 197.815 248.19 198.068 248.482 198.264C248.782 198.46 249.258 198.644 249.913 198.816C250.362 198.934 250.758 199.069 251.1 199.22C251.451 199.371 251.743 199.559 251.977 199.783C252.211 199.999 252.383 200.255 252.491 200.551C252.6 200.846 252.641 201.198 252.614 201.605C252.58 202.116 252.415 202.554 252.118 202.919C251.829 203.285 251.422 203.554 250.897 203.728C250.381 203.902 249.759 203.965 249.033 203.917Z" fill="var(--svg-stroke)"/>
<path d="M253.06 204.04L256.163 199.856L253.736 195.666L255.747 195.8L257.409 198.664L259.447 196.045L261.399 196.175L258.465 199.973L260.962 204.564L258.939 204.43L257.195 201.163L255.047 204.172L253.06 204.04Z" fill="var(--svg-stroke)"/>
<rect x="275.679" y="72" width="50" height="61" rx="10" transform="rotate(9.12969 275.679 72)" fill="var(--svg-fill)" stroke="var(--svg-stroke)" stroke-width="3"/>
<path d="M276.66 124.825L277.993 116.531L280.872 116.994C281.709 117.129 282.4 117.394 282.944 117.789C283.488 118.184 283.867 118.703 284.079 119.345C284.301 119.98 284.343 120.732 284.203 121.601L284.165 121.838C284.023 122.723 283.741 123.443 283.319 123.999C282.898 124.555 282.354 124.942 281.687 125.159C281.029 125.369 280.274 125.406 279.421 125.269L276.66 124.825ZM278.661 123.639L279.538 123.78C279.973 123.85 280.381 123.831 280.763 123.722C281.145 123.613 281.473 123.386 281.747 123.042C282.031 122.69 282.224 122.19 282.329 121.543L282.367 121.306C282.466 120.69 282.446 120.184 282.307 119.789C282.169 119.386 281.939 119.078 281.617 118.864C281.302 118.651 280.936 118.511 280.517 118.444L279.522 118.284L278.661 123.639Z" fill="var(--svg-stroke)"/>
<path d="M288.591 126.888C288.07 126.804 287.589 126.646 287.148 126.413C286.708 126.18 286.328 125.868 286.011 125.477C285.702 125.079 285.484 124.594 285.357 124.023C285.238 123.453 285.239 122.788 285.361 122.03L285.399 121.793C285.516 121.066 285.718 120.463 286.006 119.983C286.303 119.496 286.66 119.115 287.077 118.842C287.501 118.57 287.959 118.392 288.451 118.309C288.942 118.226 289.448 118.226 289.97 118.31C290.491 118.394 290.972 118.552 291.413 118.785C291.853 119.018 292.229 119.33 292.539 119.72C292.857 120.111 293.076 120.584 293.198 121.138C293.329 121.686 293.336 122.323 293.219 123.05L293.181 123.287C293.059 124.045 292.848 124.676 292.549 125.178C292.257 125.683 291.898 126.075 291.472 126.355C291.056 126.628 290.602 126.806 290.11 126.889C289.619 126.972 289.113 126.972 288.591 126.888ZM288.831 125.395C289.195 125.454 289.544 125.425 289.878 125.308C290.222 125.185 290.521 124.942 290.774 124.577C291.036 124.206 291.222 123.677 291.333 122.99L291.371 122.753C291.475 122.105 291.458 121.576 291.322 121.165C291.195 120.747 290.986 120.43 290.697 120.214C290.416 119.998 290.093 119.861 289.73 119.803C289.374 119.746 289.025 119.775 288.683 119.89C288.34 120.005 288.039 120.24 287.779 120.596C287.529 120.944 287.352 121.443 287.248 122.09L287.209 122.327C287.099 123.014 287.106 123.575 287.231 124.008C287.365 124.435 287.576 124.76 287.864 124.985C288.153 125.201 288.476 125.338 288.831 125.395Z" fill="var(--svg-stroke)"/>
<path d="M297.404 128.304C296.685 128.189 296.064 127.943 295.541 127.568C295.027 127.185 294.658 126.66 294.433 125.992C294.217 125.317 294.19 124.478 294.351 123.475L294.389 123.238C294.506 122.511 294.701 121.906 294.973 121.424C295.246 120.933 295.579 120.549 295.972 120.271C296.373 119.996 296.811 119.815 297.287 119.729C297.762 119.644 298.261 119.643 298.782 119.726C299.248 119.801 299.673 119.93 300.057 120.114C300.45 120.29 300.786 120.518 301.065 120.798C301.344 121.078 301.549 121.415 301.681 121.809C301.82 122.204 301.866 122.649 301.818 123.144L299.97 122.846C299.958 122.366 299.824 121.992 299.567 121.724C299.31 121.456 298.969 121.288 298.542 121.219C298.211 121.166 297.889 121.199 297.578 121.32C297.268 121.432 296.992 121.663 296.75 122.013C296.515 122.364 296.344 122.871 296.238 123.535L296.2 123.772C296.116 124.293 296.101 124.74 296.154 125.114C296.209 125.479 296.31 125.783 296.457 126.025C296.606 126.26 296.783 126.442 296.989 126.573C297.196 126.695 297.414 126.775 297.644 126.812C298.094 126.884 298.483 126.829 298.812 126.647C299.143 126.457 299.375 126.146 299.509 125.714L301.358 126.011C301.236 126.518 301.05 126.942 300.801 127.282C300.553 127.615 300.256 127.872 299.912 128.051C299.568 128.223 299.183 128.327 298.755 128.364C298.328 128.4 297.878 128.381 297.404 128.304Z" fill="var(--svg-stroke)"/>
<path d="M301.45 128.809L304.929 124.932L302.901 120.534L304.891 120.854L306.28 123.861L308.553 121.442L310.484 121.753L307.209 125.262L309.269 130.065L307.267 129.744L305.835 126.329L303.416 129.125L301.45 128.809Z" fill="var(--svg-stroke)"/>
<rect x="260" y="150.102" width="50" height="61" rx="10" transform="rotate(-15.1916 260 150.102)" fill="var(--svg-fill)" stroke="var(--svg-stroke)" stroke-width="3"/>
<path d="M283.713 197.546L281.512 189.44L284.627 188.594C285.36 188.395 285.997 188.342 286.536 188.436C287.074 188.522 287.513 188.735 287.853 189.073C288.192 189.404 288.434 189.84 288.581 190.38C288.728 190.92 288.74 191.423 288.617 191.887C288.493 192.344 288.221 192.749 287.804 193.103C287.384 193.449 286.807 193.722 286.073 193.921L284.684 194.298L285.438 197.078L283.713 197.546ZM284.294 192.862L285.51 192.532C286.127 192.364 286.531 192.143 286.722 191.867C286.92 191.59 286.965 191.25 286.856 190.849C286.749 190.455 286.54 190.188 286.228 190.049C285.922 189.9 285.461 189.909 284.843 190.077L283.627 190.407L284.294 192.862Z" fill="var(--svg-stroke)"/>
<path d="M291.415 195.455L289.213 187.348L292.329 186.503C293.062 186.303 293.698 186.251 294.238 186.345C294.775 186.431 295.214 186.643 295.555 186.982C295.893 187.313 296.136 187.748 296.283 188.289C296.43 188.829 296.442 189.332 296.319 189.796C296.194 190.253 295.923 190.658 295.505 191.012C295.085 191.358 294.508 191.63 293.775 191.83L292.385 192.207L293.14 194.986L291.415 195.455ZM291.995 190.771L293.211 190.441C293.829 190.273 294.233 190.051 294.424 189.776C294.622 189.498 294.666 189.159 294.557 188.757C294.45 188.364 294.241 188.097 293.93 187.958C293.624 187.809 293.162 187.818 292.545 187.986L291.329 188.316L291.995 190.771Z" fill="var(--svg-stroke)"/>
<path d="M301.015 192.848L299.204 186.177L296.598 186.885L296.208 185.449L303.145 183.565L303.535 185.001L300.93 185.709L302.741 192.379L301.015 192.848Z" fill="var(--svg-stroke)"/>
<path d="M305.817 191.544L307.391 186.578L303.732 183.406L305.677 182.878L308.181 185.046L309.256 181.906L311.143 181.394L309.605 185.94L313.46 189.469L311.503 190L308.792 187.478L307.74 191.022L305.817 191.544Z" fill="var(--svg-stroke)"/>
<path d="M159.254 273L153.689 258.3H157.091L160.955 269.22L164.609 258.3H167.759L162.383 273H159.254ZM171.931 273.252C171.133 273.252 170.454 273.105 169.894 272.811C169.334 272.503 168.907 272.083 168.613 271.551C168.319 271.019 168.172 270.417 168.172 269.745C168.172 268.625 168.501 267.785 169.159 267.225C169.831 266.665 170.832 266.385 172.162 266.385H175.48V265.86C175.48 265.132 175.312 264.621 174.976 264.327C174.654 264.033 174.136 263.886 173.422 263.886C172.792 263.886 172.337 263.998 172.057 264.222C171.777 264.432 171.616 264.698 171.574 265.02H168.802C168.844 264.376 169.047 263.802 169.411 263.298C169.789 262.78 170.321 262.374 171.007 262.08C171.707 261.772 172.547 261.618 173.527 261.618C174.479 261.618 175.305 261.758 176.005 262.038C176.719 262.318 177.272 262.773 177.664 263.403C178.056 264.019 178.252 264.852 178.252 265.902V270.165C178.252 270.753 178.259 271.271 178.273 271.719C178.301 272.153 178.343 272.58 178.399 273H175.816C175.76 272.692 175.725 272.461 175.711 272.307C175.711 272.139 175.711 271.894 175.711 271.572C175.417 272.02 174.955 272.412 174.325 272.748C173.695 273.084 172.897 273.252 171.931 273.252ZM172.792 271.11C173.24 271.11 173.667 271.033 174.073 270.879C174.493 270.711 174.829 270.459 175.081 270.123C175.347 269.773 175.48 269.332 175.48 268.8V268.275H172.687C172.155 268.275 171.735 268.401 171.427 268.653C171.133 268.891 170.986 269.22 170.986 269.64C170.986 270.088 171.14 270.445 171.448 270.711C171.756 270.977 172.204 271.11 172.792 271.11ZM181.112 273V261.87H183.632V263.529C183.786 263.207 183.996 262.906 184.262 262.626C184.528 262.346 184.857 262.108 185.249 261.912C185.641 261.716 186.075 261.618 186.551 261.618C186.817 261.618 187.041 261.632 187.223 261.66C187.419 261.688 187.545 261.716 187.601 261.744V264.201C187.461 264.145 187.279 264.096 187.055 264.054C186.845 263.998 186.558 263.97 186.194 263.97C185.634 263.97 185.179 264.089 184.829 264.327C184.493 264.565 184.248 264.88 184.094 265.272C183.94 265.65 183.863 266.063 183.863 266.511V273H181.112ZM189.925 273V261.87H192.676V273H189.925ZM191.29 260.799C190.8 260.799 190.394 260.645 190.072 260.337C189.764 260.029 189.61 259.63 189.61 259.14C189.61 258.65 189.764 258.251 190.072 257.943C190.394 257.635 190.793 257.481 191.269 257.481C191.773 257.481 192.179 257.635 192.487 257.943C192.809 258.251 192.97 258.65 192.97 259.14C192.97 259.63 192.809 260.029 192.487 260.337C192.179 260.645 191.78 260.799 191.29 260.799ZM200.855 273.252C199.847 273.252 198.916 273.049 198.062 272.643C197.222 272.223 196.55 271.586 196.046 270.732C195.542 269.878 195.29 268.814 195.29 267.54V267.12C195.29 265.916 195.542 264.908 196.046 264.096C196.55 263.27 197.222 262.654 198.062 262.248C198.916 261.828 199.847 261.618 200.855 261.618C201.877 261.618 202.808 261.828 203.648 262.248C204.488 262.654 205.16 263.27 205.664 264.096C206.168 264.908 206.42 265.916 206.42 267.12V267.54C206.42 268.786 206.168 269.836 205.664 270.69C205.16 271.544 204.488 272.188 203.648 272.622C202.808 273.042 201.877 273.252 200.855 273.252ZM200.855 270.9C201.387 270.9 201.856 270.781 202.262 270.543C202.682 270.291 203.011 269.913 203.249 269.409C203.487 268.905 203.606 268.282 203.606 267.54V267.12C203.606 266.434 203.487 265.86 203.249 265.398C203.011 264.936 202.682 264.586 202.262 264.348C201.856 264.096 201.387 263.97 200.855 263.97C200.323 263.97 199.847 264.096 199.427 264.348C199.021 264.586 198.699 264.936 198.461 265.398C198.223 265.86 198.104 266.434 198.104 267.12V267.54C198.104 268.296 198.223 268.926 198.461 269.43C198.699 269.92 199.021 270.291 199.427 270.543C199.847 270.781 200.323 270.9 200.855 270.9ZM212.649 273.252C211.361 273.252 210.388 272.888 209.73 272.16C209.072 271.418 208.743 270.277 208.743 268.737V261.87H211.494V268.359C211.494 269.199 211.655 269.836 211.977 270.27C212.313 270.69 212.873 270.9 213.657 270.9C214.217 270.9 214.665 270.781 215.001 270.543C215.351 270.305 215.61 269.997 215.778 269.619C215.946 269.241 216.03 268.821 216.03 268.359V261.87H218.802V273H216.24V271.341C215.974 271.859 215.547 272.307 214.959 272.685C214.385 273.063 213.615 273.252 212.649 273.252ZM226.251 273.252C225.341 273.252 224.578 273.161 223.962 272.979C223.346 272.783 222.835 272.524 222.429 272.202C222.037 271.866 221.743 271.488 221.547 271.068C221.365 270.648 221.253 270.207 221.211 269.745H223.983C224.053 270.109 224.27 270.41 224.634 270.648C224.998 270.872 225.537 270.984 226.251 270.984C227.063 270.984 227.644 270.872 227.994 270.648C228.344 270.424 228.519 270.137 228.519 269.787C228.519 269.535 228.442 269.332 228.288 269.178C228.134 269.01 227.861 268.87 227.469 268.758C227.077 268.632 226.524 268.506 225.81 268.38C225.194 268.296 224.627 268.184 224.109 268.044C223.591 267.89 223.136 267.68 222.744 267.414C222.366 267.148 222.065 266.819 221.841 266.427C221.631 266.021 221.526 265.531 221.526 264.957C221.526 264.341 221.708 263.781 222.072 263.277C222.45 262.773 222.989 262.374 223.689 262.08C224.403 261.772 225.257 261.618 226.251 261.618C227.329 261.618 228.19 261.786 228.834 262.122C229.478 262.458 229.961 262.892 230.283 263.424C230.605 263.956 230.801 264.523 230.871 265.125H228.099C227.987 264.719 227.77 264.411 227.448 264.201C227.126 263.991 226.727 263.886 226.251 263.886C225.551 263.886 225.047 263.998 224.739 264.222C224.445 264.432 224.298 264.698 224.298 265.02C224.298 265.356 224.459 265.615 224.781 265.797C225.117 265.979 225.796 266.14 226.818 266.28C227.448 266.364 228.029 266.49 228.561 266.658C229.107 266.812 229.583 267.022 229.989 267.288C230.395 267.554 230.71 267.89 230.934 268.296C231.172 268.688 231.291 269.171 231.291 269.745C231.291 270.431 231.102 271.04 230.724 271.572C230.36 272.09 229.8 272.503 229.044 272.811C228.302 273.105 227.371 273.252 226.251 273.252ZM239.792 273V258.3H244.895C246.379 258.3 247.646 258.566 248.696 259.098C249.746 259.63 250.544 260.421 251.09 261.471C251.65 262.507 251.93 263.795 251.93 265.335V265.755C251.93 267.323 251.643 268.646 251.069 269.724C250.495 270.802 249.662 271.621 248.57 272.181C247.492 272.727 246.197 273 244.685 273H239.792ZM242.921 270.396H244.475C245.245 270.396 245.945 270.249 246.575 269.955C247.205 269.661 247.709 269.178 248.087 268.506C248.479 267.82 248.675 266.903 248.675 265.755V265.335C248.675 264.243 248.5 263.375 248.15 262.731C247.8 262.073 247.317 261.604 246.701 261.324C246.099 261.044 245.427 260.904 244.685 260.904H242.921V270.396ZM259.72 273.252C258.712 273.252 257.781 273.049 256.927 272.643C256.087 272.223 255.415 271.586 254.911 270.732C254.407 269.878 254.155 268.814 254.155 267.54V267.12C254.155 265.916 254.407 264.908 254.911 264.096C255.415 263.27 256.087 262.654 256.927 262.248C257.781 261.828 258.712 261.618 259.72 261.618C260.742 261.618 261.673 261.828 262.513 262.248C263.353 262.654 264.025 263.27 264.529 264.096C265.033 264.908 265.285 265.916 265.285 267.12V267.54C265.285 268.786 265.033 269.836 264.529 270.69C264.025 271.544 263.353 272.188 262.513 272.622C261.673 273.042 260.742 273.252 259.72 273.252ZM259.72 270.9C260.252 270.9 260.721 270.781 261.127 270.543C261.547 270.291 261.876 269.913 262.114 269.409C262.352 268.905 262.471 268.282 262.471 267.54V267.12C262.471 266.434 262.352 265.86 262.114 265.398C261.876 264.936 261.547 264.586 261.127 264.348C260.721 264.096 260.252 263.97 259.72 263.97C259.188 263.97 258.712 264.096 258.292 264.348C257.886 264.586 257.564 264.936 257.326 265.398C257.088 265.86 256.969 266.434 256.969 267.12V267.54C256.969 268.296 257.088 268.926 257.326 269.43C257.564 269.92 257.886 270.291 258.292 270.543C258.712 270.781 259.188 270.9 259.72 270.9ZM272.627 273.252C271.605 273.252 270.681 273.042 269.855 272.622C269.029 272.188 268.371 271.551 267.881 270.711C267.405 269.857 267.167 268.8 267.167 267.54V267.12C267.167 265.916 267.419 264.908 267.923 264.096C268.427 263.284 269.092 262.668 269.918 262.248C270.744 261.828 271.647 261.618 272.627 261.618C273.677 261.618 274.566 261.793 275.294 262.143C276.022 262.493 276.582 262.976 276.974 263.592C277.38 264.208 277.611 264.887 277.667 265.629H274.853C274.741 265.125 274.51 264.726 274.16 264.432C273.824 264.124 273.313 263.97 272.627 263.97C272.151 263.97 271.71 264.082 271.304 264.306C270.912 264.53 270.59 264.873 270.338 265.335C270.1 265.797 269.981 266.392 269.981 267.12V267.54C269.981 268.324 270.093 268.968 270.317 269.472C270.555 269.962 270.87 270.326 271.262 270.564C271.668 270.788 272.123 270.9 272.627 270.9C273.173 270.9 273.642 270.76 274.034 270.48C274.44 270.186 274.713 269.773 274.853 269.241H277.667C277.583 270.039 277.317 270.746 276.869 271.362C276.421 271.978 275.826 272.447 275.084 272.769C274.356 273.091 273.537 273.252 272.627 273.252ZM283.788 273.252C282.5 273.252 281.527 272.888 280.869 272.16C280.211 271.418 279.882 270.277 279.882 268.737V261.87H282.633V268.359C282.633 269.199 282.794 269.836 283.116 270.27C283.452 270.69 284.012 270.9 284.796 270.9C285.356 270.9 285.804 270.781 286.14 270.543C286.49 270.305 286.749 269.997 286.917 269.619C287.085 269.241 287.169 268.821 287.169 268.359V261.87H289.941V273H287.379V271.341C287.113 271.859 286.686 272.307 286.098 272.685C285.524 273.063 284.754 273.252 283.788 273.252ZM292.896 273V261.87H295.416V263.529C295.668 263.039 296.074 262.598 296.634 262.206C297.208 261.814 297.866 261.618 298.608 261.618C299.504 261.618 300.204 261.8 300.708 262.164C301.226 262.528 301.59 263.011 301.8 263.613C302.108 263.025 302.549 262.549 303.123 262.185C303.711 261.807 304.404 261.618 305.202 261.618C306.378 261.618 307.274 261.961 307.89 262.647C308.52 263.333 308.835 264.369 308.835 265.755V273H306.063V266.385C306.063 265.503 305.916 264.88 305.622 264.516C305.342 264.152 304.887 263.97 304.257 263.97C303.893 263.97 303.557 264.068 303.249 264.264C302.941 264.446 302.689 264.719 302.493 265.083C302.311 265.447 302.22 265.881 302.22 266.385V273H299.469V266.385C299.469 265.503 299.322 264.88 299.028 264.516C298.748 264.152 298.293 263.97 297.663 263.97C297.299 263.97 296.956 264.068 296.634 264.264C296.326 264.446 296.081 264.719 295.899 265.083C295.731 265.447 295.647 265.881 295.647 266.385V273H292.896ZM316.71 273.252C315.702 273.252 314.771 273.049 313.917 272.643C313.077 272.223 312.405 271.593 311.901 270.753C311.397 269.899 311.145 268.828 311.145 267.54V267.12C311.145 265.888 311.383 264.866 311.859 264.054C312.349 263.242 313 262.633 313.812 262.227C314.624 261.821 315.52 261.618 316.5 261.618C318.25 261.618 319.58 262.08 320.49 263.004C321.4 263.928 321.855 265.265 321.855 267.015V268.191H313.98C314.008 268.849 314.148 269.388 314.4 269.808C314.666 270.214 315.002 270.515 315.408 270.711C315.814 270.893 316.248 270.984 316.71 270.984C317.424 270.984 317.963 270.879 318.327 270.669C318.691 270.459 318.95 270.151 319.104 269.745H321.645C321.421 270.907 320.868 271.782 319.986 272.37C319.104 272.958 318.012 273.252 316.71 273.252ZM316.605 263.886C316.171 263.886 315.751 263.956 315.345 264.096C314.939 264.236 314.617 264.488 314.379 264.852C314.141 265.202 314.008 265.671 313.98 266.259H319.167C319.153 265.629 319.027 265.146 318.789 264.81C318.565 264.46 318.264 264.222 317.886 264.096C317.508 263.956 317.081 263.886 316.605 263.886ZM324.293 273V261.87H326.813V263.508C327.093 263.004 327.527 262.563 328.115 262.185C328.703 261.807 329.508 261.618 330.53 261.618C331.888 261.618 332.896 261.982 333.554 262.71C334.226 263.438 334.562 264.488 334.562 265.86V273H331.79V266.49C331.79 265.664 331.615 265.041 331.265 264.621C330.929 264.187 330.348 263.97 329.522 263.97C328.934 263.97 328.458 264.089 328.094 264.327C327.73 264.565 327.464 264.873 327.296 265.251C327.128 265.629 327.044 266.042 327.044 266.49V273H324.293ZM341.942 273.126C341.074 273.126 340.36 273.007 339.8 272.769C339.24 272.517 338.827 272.118 338.561 271.572C338.309 271.026 338.183 270.319 338.183 269.451V264.18H336.692V261.87H338.183V259.35H340.934V261.87H343.622V264.18H340.934V269.01C340.934 269.64 341.046 270.095 341.27 270.375C341.508 270.641 341.942 270.774 342.572 270.774C342.992 270.774 343.412 270.753 343.832 270.711V273.021C343.566 273.049 343.286 273.07 342.992 273.084C342.712 273.112 342.362 273.126 341.942 273.126ZM350.77 273.252C349.86 273.252 349.097 273.161 348.481 272.979C347.865 272.783 347.354 272.524 346.948 272.202C346.556 271.866 346.262 271.488 346.066 271.068C345.884 270.648 345.772 270.207 345.73 269.745H348.502C348.572 270.109 348.789 270.41 349.153 270.648C349.517 270.872 350.056 270.984 350.77 270.984C351.582 270.984 352.163 270.872 352.513 270.648C352.863 270.424 353.038 270.137 353.038 269.787C353.038 269.535 352.961 269.332 352.807 269.178C352.653 269.01 352.38 268.87 351.988 268.758C351.596 268.632 351.043 268.506 350.329 268.38C349.713 268.296 349.146 268.184 348.628 268.044C348.11 267.89 347.655 267.68 347.263 267.414C346.885 267.148 346.584 266.819 346.36 266.427C346.15 266.021 346.045 265.531 346.045 264.957C346.045 264.341 346.227 263.781 346.591 263.277C346.969 262.773 347.508 262.374 348.208 262.08C348.922 261.772 349.776 261.618 350.77 261.618C351.848 261.618 352.709 261.786 353.353 262.122C353.997 262.458 354.48 262.892 354.802 263.424C355.124 263.956 355.32 264.523 355.39 265.125H352.618C352.506 264.719 352.289 264.411 351.967 264.201C351.645 263.991 351.246 263.886 350.77 263.886C350.07 263.886 349.566 263.998 349.258 264.222C348.964 264.432 348.817 264.698 348.817 265.02C348.817 265.356 348.978 265.615 349.3 265.797C349.636 265.979 350.315 266.14 351.337 266.28C351.967 266.364 352.548 266.49 353.08 266.658C353.626 266.812 354.102 267.022 354.508 267.288C354.914 267.554 355.229 267.89 355.453 268.296C355.691 268.688 355.81 269.171 355.81 269.745C355.81 270.431 355.621 271.04 355.243 271.572C354.879 272.09 354.319 272.503 353.563 272.811C352.821 273.105 351.89 273.252 350.77 273.252Z" fill="var(--svg-stroke)"/>
<path d="M486.061 174.061C486.646 173.475 486.646 172.525 486.061 171.939L476.515 162.393C475.929 161.808 474.979 161.808 474.393 162.393C473.808 162.979 473.808 163.929 474.393 164.515L482.879 173L474.393 181.485C473.808 182.071 473.808 183.021 474.393 183.607C474.979 184.192 475.929 184.192 476.515 183.607L486.061 174.061ZM421 174.5H485V171.5H421V174.5Z" fill="var(--svg-stroke)"/>
<rect x="573.667" y="79.8333" width="137.5" height="126.667" rx="22" fill="var(--svg-fill)" stroke="var(--svg-stroke)" stroke-width="3"/>
<line x1="571.167" y1="142.5" x2="712.834" y2="142.5" stroke="var(--svg-stroke)" stroke-width="3"/>
<path fill-rule="evenodd" clip-rule="evenodd" d="M602 104.833C603.381 104.833 604.5 105.953 604.5 107.333V120.667C604.5 122.047 603.381 123.167 602 123.167C600.619 123.167 599.5 122.047 599.5 120.667V107.333C599.5 105.953 600.619 104.833 602 104.833ZM622 104.833C623.381 104.833 624.5 105.953 624.5 107.333V120.667C624.5 122.047 623.381 123.167 622 123.167C620.619 123.167 619.5 122.047 619.5 120.667V107.333C619.5 105.953 620.619 104.833 622 104.833ZM649.5 114C649.5 112.619 650.619 111.5 652 111.5H682C683.381 111.5 684.5 112.619 684.5 114C684.5 115.381 683.381 116.5 682 116.5H652C650.619 116.5 649.5 115.381 649.5 114ZM602 164.833C603.381 164.833 604.5 165.953 604.5 167.333V180.667C604.5 182.047 603.381 183.167 602 183.167C600.619 183.167 599.5 182.047 599.5 180.667V167.333C599.5 165.953 600.619 164.833 602 164.833ZM622 164.833C623.381 164.833 624.5 165.953 624.5 167.333V180.667C624.5 182.047 623.381 183.167 622 183.167C620.619 183.167 619.5 182.047 619.5 180.667V167.333C619.5 165.953 620.619 164.833 622 164.833Z" fill="var(--svg-stroke)"/>
<path d="M667.833 184.234C666.329 184.236 664.848 183.872 663.523 183.175C662.501 182.638 661.596 181.916 660.855 181.051C660.491 180.626 660.622 179.992 661.09 179.687L661.584 179.365C662.041 179.067 662.647 179.197 663.018 179.597C663.514 180.131 664.101 180.58 664.754 180.924C665.701 181.422 666.759 181.682 667.833 181.682C668.907 181.682 669.965 181.422 670.912 180.924C671.565 180.58 672.152 180.131 672.648 179.597C673.019 179.197 673.625 179.067 674.082 179.365L674.576 179.687C675.044 179.992 675.175 180.626 674.811 181.051C674.07 181.916 673.165 182.638 672.143 183.175C670.818 183.872 669.337 184.236 667.833 184.234Z" fill="var(--svg-stroke)"/>
<path d="M673.041 170.198C672.526 170.198 672.023 170.348 671.595 170.628C671.166 170.908 670.833 171.307 670.635 171.773C670.438 172.24 670.387 172.753 670.487 173.248C670.588 173.743 670.836 174.198 671.2 174.555C671.564 174.911 672.028 175.155 672.533 175.253C673.038 175.351 673.562 175.301 674.038 175.108C674.514 174.915 674.92 174.588 675.207 174.168C675.493 173.748 675.646 173.255 675.646 172.75C675.649 172.414 675.584 172.081 675.454 171.769C675.324 171.458 675.133 171.176 674.89 170.938C674.648 170.7 674.359 170.512 674.042 170.385C673.724 170.258 673.384 170.195 673.041 170.198Z" fill="var(--svg-stroke)"/>
<path d="M662.625 170.198C662.11 170.198 661.606 170.348 661.178 170.628C660.75 170.908 660.416 171.307 660.219 171.773C660.022 172.24 659.97 172.753 660.071 173.248C660.171 173.743 660.419 174.198 660.783 174.555C661.147 174.911 661.611 175.155 662.117 175.253C662.622 175.351 663.145 175.301 663.621 175.108C664.097 174.915 664.504 174.588 664.79 174.168C665.076 173.748 665.229 173.255 665.229 172.75C665.232 172.414 665.167 172.081 665.037 171.769C664.908 171.458 664.716 171.176 664.474 170.938C664.231 170.7 663.943 170.512 663.625 170.385C663.308 170.258 662.968 170.195 662.625 170.198Z" fill="var(--svg-stroke)"/>
<path d="M685.063 172.75C685.615 172.75 686.063 172.302 686.063 171.75V171.198C686.063 170.645 685.615 170.198 685.063 170.198H684.459C683.906 170.198 683.459 169.75 683.459 169.198V165.094C683.457 163.74 682.908 162.443 681.931 161.486C680.955 160.529 679.631 159.991 678.25 159.989H676.646C676.094 159.989 675.646 159.542 675.646 158.989V155.885C675.646 155.333 675.198 154.885 674.646 154.885H674.042C673.49 154.885 673.042 155.333 673.042 155.885V158.989C673.042 159.542 672.594 159.989 672.042 159.989H663.625C663.073 159.989 662.625 159.542 662.625 158.989V155.885C662.625 155.333 662.178 154.885 661.625 154.885H661.021C660.469 154.885 660.021 155.333 660.021 155.885V158.989C660.021 159.542 659.573 159.989 659.021 159.989H657.417C656.036 159.991 654.712 160.529 653.736 161.486C652.759 162.443 652.21 163.74 652.209 165.094V169.198C652.209 169.75 651.761 170.198 651.209 170.198H650.604C650.052 170.198 649.604 170.645 649.604 171.198V171.75C649.604 172.302 650.052 172.75 650.604 172.75H651.209C651.761 172.75 652.209 173.198 652.209 173.75V178.13C652.209 178.682 651.761 179.13 651.209 179.13H650.604C650.052 179.13 649.604 179.578 649.604 180.13V180.682C649.604 181.234 650.052 181.682 650.604 181.682H651.209C651.761 181.682 652.209 182.13 652.209 182.682V185.51C652.21 186.863 652.759 188.161 653.736 189.118C654.712 190.075 656.036 190.613 657.417 190.614H678.25C679.631 190.613 680.955 190.075 681.931 189.118C682.908 188.161 683.457 186.863 683.459 185.51V182.682C683.459 182.13 683.906 181.682 684.459 181.682H685.063C685.615 181.682 686.063 181.234 686.063 180.682V180.13C686.063 179.578 685.615 179.13 685.063 179.13H684.459C683.906 179.13 683.459 178.682 683.459 178.13V173.75C683.459 173.198 683.906 172.75 684.459 172.75H685.063ZM680.854 185.51C680.854 186.187 680.579 186.836 680.091 187.314C679.603 187.792 678.941 188.062 678.25 188.062H657.417C656.727 188.062 656.065 187.792 655.576 187.314C655.088 186.836 654.814 186.187 654.813 185.51V165.094C654.814 164.417 655.088 163.768 655.576 163.29C656.065 162.811 656.727 162.542 657.417 162.542H678.25C678.941 162.542 679.603 162.811 680.091 163.29C680.579 163.768 680.854 164.417 680.854 165.094V185.51Z" fill="var(--svg-stroke)"/>
<path d="M550.891 273V258.3H554.02L558.493 266.574L562.945 258.3H565.99V273H562.84V263.655L559.354 270.06H557.485L554.02 263.655V273H550.891ZM572.666 273.252C571.868 273.252 571.189 273.105 570.629 272.811C570.069 272.503 569.642 272.083 569.348 271.551C569.054 271.019 568.907 270.417 568.907 269.745C568.907 268.625 569.236 267.785 569.894 267.225C570.566 266.665 571.567 266.385 572.897 266.385H576.215V265.86C576.215 265.132 576.047 264.621 575.711 264.327C575.389 264.033 574.871 263.886 574.157 263.886C573.527 263.886 573.072 263.998 572.792 264.222C572.512 264.432 572.351 264.698 572.309 265.02H569.537C569.579 264.376 569.782 263.802 570.146 263.298C570.524 262.78 571.056 262.374 571.742 262.08C572.442 261.772 573.282 261.618 574.262 261.618C575.214 261.618 576.04 261.758 576.74 262.038C577.454 262.318 578.007 262.773 578.399 263.403C578.791 264.019 578.987 264.852 578.987 265.902V270.165C578.987 270.753 578.994 271.271 579.008 271.719C579.036 272.153 579.078 272.58 579.134 273H576.551C576.495 272.692 576.46 272.461 576.446 272.307C576.446 272.139 576.446 271.894 576.446 271.572C576.152 272.02 575.69 272.412 575.06 272.748C574.43 273.084 573.632 273.252 572.666 273.252ZM573.527 271.11C573.975 271.11 574.402 271.033 574.808 270.879C575.228 270.711 575.564 270.459 575.816 270.123C576.082 269.773 576.215 269.332 576.215 268.8V268.275H573.422C572.89 268.275 572.47 268.401 572.162 268.653C571.868 268.891 571.721 269.22 571.721 269.64C571.721 270.088 571.875 270.445 572.183 270.711C572.491 270.977 572.939 271.11 573.527 271.11ZM586.761 273.252C585.739 273.252 584.815 273.042 583.989 272.622C583.163 272.188 582.505 271.551 582.015 270.711C581.539 269.857 581.301 268.8 581.301 267.54V267.12C581.301 265.916 581.553 264.908 582.057 264.096C582.561 263.284 583.226 262.668 584.052 262.248C584.878 261.828 585.781 261.618 586.761 261.618C587.811 261.618 588.7 261.793 589.428 262.143C590.156 262.493 590.716 262.976 591.108 263.592C591.514 264.208 591.745 264.887 591.801 265.629H588.987C588.875 265.125 588.644 264.726 588.294 264.432C587.958 264.124 587.447 263.97 586.761 263.97C586.285 263.97 585.844 264.082 585.438 264.306C585.046 264.53 584.724 264.873 584.472 265.335C584.234 265.797 584.115 266.392 584.115 267.12V267.54C584.115 268.324 584.227 268.968 584.451 269.472C584.689 269.962 585.004 270.326 585.396 270.564C585.802 270.788 586.257 270.9 586.761 270.9C587.307 270.9 587.776 270.76 588.168 270.48C588.574 270.186 588.847 269.773 588.987 269.241H591.801C591.717 270.039 591.451 270.746 591.003 271.362C590.555 271.978 589.96 272.447 589.218 272.769C588.49 273.091 587.671 273.252 586.761 273.252ZM594.12 273V258.3H596.871V263.403C597.039 263.123 597.27 262.85 597.564 262.584C597.872 262.304 598.25 262.073 598.698 261.891C599.16 261.709 599.713 261.618 600.357 261.618C601.715 261.618 602.723 261.982 603.381 262.71C604.053 263.438 604.389 264.488 604.389 265.86V273H601.617V266.511C601.617 265.685 601.442 265.055 601.092 264.621C600.756 264.187 600.175 263.97 599.349 263.97C598.761 263.97 598.285 264.089 597.921 264.327C597.557 264.565 597.291 264.88 597.123 265.272C596.955 265.65 596.871 266.063 596.871 266.511V273H594.12ZM607.465 273V261.87H610.216V273H607.465ZM608.83 260.799C608.34 260.799 607.934 260.645 607.612 260.337C607.304 260.029 607.15 259.63 607.15 259.14C607.15 258.65 607.304 258.251 607.612 257.943C607.934 257.635 608.333 257.481 608.809 257.481C609.313 257.481 609.719 257.635 610.027 257.943C610.349 258.251 610.51 258.65 610.51 259.14C610.51 259.63 610.349 260.029 610.027 260.337C609.719 260.645 609.32 260.799 608.83 260.799ZM613.377 273V261.87H615.897V263.508C616.177 263.004 616.611 262.563 617.199 262.185C617.787 261.807 618.592 261.618 619.614 261.618C620.972 261.618 621.98 261.982 622.638 262.71C623.31 263.438 623.646 264.488 623.646 265.86V273H620.874V266.49C620.874 265.664 620.699 265.041 620.349 264.621C620.013 264.187 619.432 263.97 618.606 263.97C618.018 263.97 617.542 264.089 617.178 264.327C616.814 264.565 616.548 264.873 616.38 265.251C616.212 265.629 616.128 266.042 616.128 266.49V273H613.377ZM631.53 273.252C630.522 273.252 629.591 273.049 628.737 272.643C627.897 272.223 627.225 271.593 626.721 270.753C626.217 269.899 625.965 268.828 625.965 267.54V267.12C625.965 265.888 626.203 264.866 626.679 264.054C627.169 263.242 627.82 262.633 628.632 262.227C629.444 261.821 630.34 261.618 631.32 261.618C633.07 261.618 634.4 262.08 635.31 263.004C636.22 263.928 636.675 265.265 636.675 267.015V268.191H628.8C628.828 268.849 628.968 269.388 629.22 269.808C629.486 270.214 629.822 270.515 630.228 270.711C630.634 270.893 631.068 270.984 631.53 270.984C632.244 270.984 632.783 270.879 633.147 270.669C633.511 270.459 633.77 270.151 633.924 269.745H636.465C636.241 270.907 635.688 271.782 634.806 272.37C633.924 272.958 632.832 273.252 631.53 273.252ZM631.425 263.886C630.991 263.886 630.571 263.956 630.165 264.096C629.759 264.236 629.437 264.488 629.199 264.852C628.961 265.202 628.828 265.671 628.8 266.259H633.987C633.973 265.629 633.847 265.146 633.609 264.81C633.385 264.46 633.084 264.222 632.706 264.096C632.328 263.956 631.901 263.886 631.425 263.886ZM645.203 273V258.3H648.332V270.396H655.052V273H645.203ZM662.096 273.252C661.088 273.252 660.157 273.049 659.303 272.643C658.463 272.223 657.791 271.593 657.287 270.753C656.783 269.899 656.531 268.828 656.531 267.54V267.12C656.531 265.888 656.769 264.866 657.245 264.054C657.735 263.242 658.386 262.633 659.198 262.227C660.01 261.821 660.906 261.618 661.886 261.618C663.636 261.618 664.966 262.08 665.876 263.004C666.786 263.928 667.241 265.265 667.241 267.015V268.191H659.366C659.394 268.849 659.534 269.388 659.786 269.808C660.052 270.214 660.388 270.515 660.794 270.711C661.2 270.893 661.634 270.984 662.096 270.984C662.81 270.984 663.349 270.879 663.713 270.669C664.077 270.459 664.336 270.151 664.49 269.745H667.031C666.807 270.907 666.254 271.782 665.372 272.37C664.49 272.958 663.398 273.252 662.096 273.252ZM661.991 263.886C661.557 263.886 661.137 263.956 660.731 264.096C660.325 264.236 660.003 264.488 659.765 264.852C659.527 265.202 659.394 265.671 659.366 266.259H664.553C664.539 265.629 664.413 265.146 664.175 264.81C663.951 264.46 663.65 264.222 663.272 264.096C662.894 263.956 662.467 263.886 661.991 263.886ZM672.997 273.252C672.199 273.252 671.52 273.105 670.96 272.811C670.4 272.503 669.973 272.083 669.679 271.551C669.385 271.019 669.238 270.417 669.238 269.745C669.238 268.625 669.567 267.785 670.225 267.225C670.897 266.665 671.898 266.385 673.228 266.385H676.546V265.86C676.546 265.132 676.378 264.621 676.042 264.327C675.72 264.033 675.202 263.886 674.488 263.886C673.858 263.886 673.403 263.998 673.123 264.222C672.843 264.432 672.682 264.698 672.64 265.02H669.868C669.91 264.376 670.113 263.802 670.477 263.298C670.855 262.78 671.387 262.374 672.073 262.08C672.773 261.772 673.613 261.618 674.593 261.618C675.545 261.618 676.371 261.758 677.071 262.038C677.785 262.318 678.338 262.773 678.73 263.403C679.122 264.019 679.318 264.852 679.318 265.902V270.165C679.318 270.753 679.325 271.271 679.339 271.719C679.367 272.153 679.409 272.58 679.465 273H676.882C676.826 272.692 676.791 272.461 676.777 272.307C676.777 272.139 676.777 271.894 676.777 271.572C676.483 272.02 676.021 272.412 675.391 272.748C674.761 273.084 673.963 273.252 672.997 273.252ZM673.858 271.11C674.306 271.11 674.733 271.033 675.139 270.879C675.559 270.711 675.895 270.459 676.147 270.123C676.413 269.773 676.546 269.332 676.546 268.8V268.275H673.753C673.221 268.275 672.801 268.401 672.493 268.653C672.199 268.891 672.052 269.22 672.052 269.64C672.052 270.088 672.206 270.445 672.514 270.711C672.822 270.977 673.27 271.11 673.858 271.11ZM682.178 273V261.87H684.698V263.529C684.852 263.207 685.062 262.906 685.328 262.626C685.594 262.346 685.923 262.108 686.315 261.912C686.707 261.716 687.141 261.618 687.617 261.618C687.883 261.618 688.107 261.632 688.289 261.66C688.485 261.688 688.611 261.716 688.667 261.744V264.201C688.527 264.145 688.345 264.096 688.121 264.054C687.911 263.998 687.624 263.97 687.26 263.97C686.7 263.97 686.245 264.089 685.895 264.327C685.559 264.565 685.314 264.88 685.16 265.272C685.006 265.65 684.929 266.063 684.929 266.511V273H682.178ZM690.78 273V261.87H693.3V263.508C693.58 263.004 694.014 262.563 694.602 262.185C695.19 261.807 695.995 261.618 697.017 261.618C698.375 261.618 699.383 261.982 700.041 262.71C700.713 263.438 701.049 264.488 701.049 265.86V273H698.277V266.49C698.277 265.664 698.102 265.041 697.752 264.621C697.416 264.187 696.835 263.97 696.009 263.97C695.421 263.97 694.945 264.089 694.581 264.327C694.217 264.565 693.951 264.873 693.783 265.251C693.615 265.629 693.531 266.042 693.531 266.49V273H690.78ZM704.125 273V261.87H706.876V273H704.125ZM705.49 260.799C705 260.799 704.594 260.645 704.272 260.337C703.964 260.029 703.81 259.63 703.81 259.14C703.81 258.65 703.964 258.251 704.272 257.943C704.594 257.635 704.993 257.481 705.469 257.481C705.973 257.481 706.379 257.635 706.687 257.943C707.009 258.251 707.17 258.65 707.17 259.14C707.17 259.63 707.009 260.029 706.687 260.337C706.379 260.645 705.98 260.799 705.49 260.799ZM710.036 273V261.87H712.556V263.508C712.836 263.004 713.27 262.563 713.858 262.185C714.446 261.807 715.251 261.618 716.273 261.618C717.631 261.618 718.639 261.982 719.297 262.71C719.969 263.438 720.305 264.488 720.305 265.86V273H717.533V266.49C717.533 265.664 717.358 265.041 717.008 264.621C716.672 264.187 716.091 263.97 715.265 263.97C714.677 263.97 714.201 264.089 713.837 264.327C713.473 264.565 713.207 264.873 713.039 265.251C712.871 265.629 712.787 266.042 712.787 266.49V273H710.036ZM727.98 277.452C726.804 277.452 725.866 277.305 725.166 277.011C724.466 276.731 723.948 276.339 723.612 275.835C723.29 275.331 723.101 274.736 723.045 274.05H725.859C725.943 274.344 726.132 274.617 726.426 274.869C726.72 275.135 727.238 275.268 727.98 275.268C728.918 275.268 729.618 275.044 730.08 274.596C730.542 274.148 730.773 273.476 730.773 272.58V271.236C730.423 271.782 729.954 272.223 729.366 272.559C728.778 272.881 728.106 273.042 727.35 273.042C726.384 273.042 725.544 272.832 724.83 272.412C724.13 271.992 723.584 271.369 723.192 270.543C722.814 269.703 722.625 268.667 722.625 267.435V267.015C722.625 265.853 722.814 264.873 723.192 264.075C723.584 263.277 724.137 262.668 724.851 262.248C725.565 261.828 726.398 261.618 727.35 261.618C728.274 261.618 729.037 261.807 729.639 262.185C730.241 262.563 730.682 263.004 730.962 263.508V261.87H733.524V272.37C733.524 274.022 733.069 275.282 732.159 276.15C731.249 277.018 729.856 277.452 727.98 277.452ZM728.001 270.69C728.561 270.69 729.044 270.592 729.45 270.396C729.87 270.186 730.192 269.864 730.416 269.43C730.654 268.996 730.773 268.471 730.773 267.855V266.595C730.773 266.007 730.654 265.524 730.416 265.146C730.178 264.768 729.842 264.481 729.408 264.285C728.988 264.075 728.519 263.97 728.001 263.97C727.245 263.97 726.629 264.229 726.153 264.747C725.677 265.251 725.439 266.007 725.439 267.015V267.435C725.439 268.513 725.684 269.325 726.174 269.871C726.664 270.417 727.273 270.69 728.001 270.69Z" fill="var(--svg-stroke)"/>
<path d="M864.061 174.061C864.646 173.475 864.646 172.525 864.061 171.939L854.515 162.393C853.929 161.808 852.979 161.808 852.393 162.393C851.808 162.979 851.808 163.929 852.393 164.515L860.879 173L852.393 181.485C851.808 182.071 851.808 183.021 852.393 183.607C852.979 184.192 853.929 184.192 854.515 183.607L864.061 174.061ZM799 174.5H863V171.5H799V174.5Z" fill="var(--svg-stroke)"/>
<rect x="971.212" y="64" width="108.36" height="130.37" rx="18" fill="var(--svg-fill)"/>
<rect x="971.212" y="64" width="108.36" height="130.37" rx="18" stroke="var(--svg-stroke)" fill="var(--svg-fill)" stroke-width="3"/>
<rect x="956.82" y="79.238" width="108.36" height="129.524" rx="18" fill="var(--svg-fill)"/>
<rect x="956.82" y="79.238" width="108.36" height="129.524" rx="18" stroke="var(--svg-stroke)" fill="var(--svg-fill)" stroke-width="3"/>
<rect x="942.429" y="93.6296" width="108.36" height="130.37" rx="18" fill="var(--svg-fill)"/>
<rect x="942.429" y="93.6296" width="108.36" height="130.37" rx="18" stroke="var(--svg-stroke)" fill="var(--svg-fill)" stroke-width="3"/>
<path d="M960 141H1014.18M960 148H1031M960 155H1020.72M960 162H1022.59M1029.13 169H960H1014.18M1025.39 176H960H1031M960 183H1020.72M960 190H1022.59M960 197H1029.13M960 204H1025.39" stroke="var(--svg-stroke)" stroke-width="2" stroke-linecap="round"/>
<path d="M960 116H998.153M960 126H986.986M1007.46 116H1027M996.292 126H1019.56" stroke="var(--svg-stroke)" stroke-width="3" stroke-linecap="round"/>
<path d="M934.24 273.252C932.938 273.252 931.853 273.07 930.985 272.706C930.117 272.342 929.452 271.838 928.99 271.194C928.542 270.536 928.297 269.773 928.255 268.905H931.405C931.517 269.451 931.769 269.871 932.161 270.165C932.567 270.459 933.26 270.606 934.24 270.606C935.248 270.606 935.969 270.473 936.403 270.207C936.851 269.927 937.075 269.535 937.075 269.031C937.075 268.611 936.942 268.268 936.676 268.002C936.424 267.736 936.032 267.512 935.5 267.33C934.968 267.134 934.275 266.952 933.421 266.784C932.427 266.588 931.573 266.315 930.859 265.965C930.145 265.615 929.599 265.139 929.221 264.537C928.857 263.935 928.675 263.172 928.675 262.248C928.675 261.394 928.899 260.659 929.347 260.043C929.795 259.413 930.439 258.923 931.279 258.573C932.119 258.223 933.106 258.048 934.24 258.048C935.472 258.048 936.48 258.223 937.264 258.573C938.062 258.909 938.664 259.385 939.07 260.001C939.49 260.617 939.735 261.345 939.805 262.185H936.676C936.564 261.681 936.333 261.31 935.983 261.072C935.633 260.82 935.052 260.694 934.24 260.694C933.414 260.694 932.805 260.827 932.413 261.093C932.021 261.359 931.825 261.716 931.825 262.164C931.825 262.71 932.091 263.137 932.623 263.445C933.169 263.753 934.023 264.019 935.185 264.243C935.983 264.397 936.69 264.586 937.306 264.81C937.936 265.034 938.468 265.328 938.902 265.692C939.336 266.042 939.665 266.469 939.889 266.973C940.113 267.477 940.225 268.086 940.225 268.8C940.225 269.696 939.987 270.48 939.511 271.152C939.049 271.824 938.37 272.342 937.474 272.706C936.592 273.07 935.514 273.252 934.24 273.252ZM947.348 273.126C946.48 273.126 945.766 273.007 945.206 272.769C944.646 272.517 944.233 272.118 943.967 271.572C943.715 271.026 943.589 270.319 943.589 269.451V264.18H942.098V261.87H943.589V259.35H946.34V261.87H949.028V264.18H946.34V269.01C946.34 269.64 946.452 270.095 946.676 270.375C946.914 270.641 947.348 270.774 947.978 270.774C948.398 270.774 948.818 270.753 949.238 270.711V273.021C948.972 273.049 948.692 273.07 948.398 273.084C948.118 273.112 947.768 273.126 947.348 273.126ZM951.682 273V261.87H954.202V263.529C954.356 263.207 954.566 262.906 954.832 262.626C955.098 262.346 955.427 262.108 955.819 261.912C956.211 261.716 956.645 261.618 957.121 261.618C957.387 261.618 957.611 261.632 957.793 261.66C957.989 261.688 958.115 261.716 958.171 261.744V264.201C958.031 264.145 957.849 264.096 957.625 264.054C957.415 263.998 957.128 263.97 956.764 263.97C956.204 263.97 955.749 264.089 955.399 264.327C955.063 264.565 954.818 264.88 954.664 265.272C954.51 265.65 954.433 266.063 954.433 266.511V273H951.682ZM964.086 273.252C962.798 273.252 961.825 272.888 961.167 272.16C960.509 271.418 960.18 270.277 960.18 268.737V261.87H962.931V268.359C962.931 269.199 963.092 269.836 963.414 270.27C963.75 270.69 964.31 270.9 965.094 270.9C965.654 270.9 966.102 270.781 966.438 270.543C966.788 270.305 967.047 269.997 967.215 269.619C967.383 269.241 967.467 268.821 967.467 268.359V261.87H970.239V273H967.677V271.341C967.411 271.859 966.984 272.307 966.396 272.685C965.822 273.063 965.052 273.252 964.086 273.252ZM978.108 273.252C977.086 273.252 976.162 273.042 975.336 272.622C974.51 272.188 973.852 271.551 973.362 270.711C972.886 269.857 972.648 268.8 972.648 267.54V267.12C972.648 265.916 972.9 264.908 973.404 264.096C973.908 263.284 974.573 262.668 975.399 262.248C976.225 261.828 977.128 261.618 978.108 261.618C979.158 261.618 980.047 261.793 980.775 262.143C981.503 262.493 982.063 262.976 982.455 263.592C982.861 264.208 983.092 264.887 983.148 265.629H980.334C980.222 265.125 979.991 264.726 979.641 264.432C979.305 264.124 978.794 263.97 978.108 263.97C977.632 263.97 977.191 264.082 976.785 264.306C976.393 264.53 976.071 264.873 975.819 265.335C975.581 265.797 975.462 266.392 975.462 267.12V267.54C975.462 268.324 975.574 268.968 975.798 269.472C976.036 269.962 976.351 270.326 976.743 270.564C977.149 270.788 977.604 270.9 978.108 270.9C978.654 270.9 979.123 270.76 979.515 270.48C979.921 270.186 980.194 269.773 980.334 269.241H983.148C983.064 270.039 982.798 270.746 982.35 271.362C981.902 271.978 981.307 272.447 980.565 272.769C979.837 273.091 979.018 273.252 978.108 273.252ZM989.962 273.126C989.094 273.126 988.38 273.007 987.82 272.769C987.26 272.517 986.847 272.118 986.581 271.572C986.329 271.026 986.203 270.319 986.203 269.451V264.18H984.712V261.87H986.203V259.35H988.954V261.87H991.642V264.18H988.954V269.01C988.954 269.64 989.066 270.095 989.29 270.375C989.528 270.641 989.962 270.774 990.592 270.774C991.012 270.774 991.432 270.753 991.852 270.711V273.021C991.586 273.049 991.306 273.07 991.012 273.084C990.732 273.112 990.382 273.126 989.962 273.126ZM998.097 273.252C996.809 273.252 995.836 272.888 995.178 272.16C994.52 271.418 994.191 270.277 994.191 268.737V261.87H996.942V268.359C996.942 269.199 997.103 269.836 997.425 270.27C997.761 270.69 998.321 270.9 999.105 270.9C999.665 270.9 1000.11 270.781 1000.45 270.543C1000.8 270.305 1001.06 269.997 1001.23 269.619C1001.39 269.241 1001.48 268.821 1001.48 268.359V261.87H1004.25V273H1001.69V271.341C1001.42 271.859 1001 272.307 1000.41 272.685C999.833 273.063 999.063 273.252 998.097 273.252ZM1007.21 273V261.87H1009.73V263.529C1009.88 263.207 1010.09 262.906 1010.36 262.626C1010.62 262.346 1010.95 262.108 1011.34 261.912C1011.73 261.716 1012.17 261.618 1012.64 261.618C1012.91 261.618 1013.13 261.632 1013.32 261.66C1013.51 261.688 1013.64 261.716 1013.69 261.744V264.201C1013.55 264.145 1013.37 264.096 1013.15 264.054C1012.94 263.998 1012.65 263.97 1012.29 263.97C1011.73 263.97 1011.27 264.089 1010.92 264.327C1010.59 264.565 1010.34 264.88 1010.19 265.272C1010.03 265.65 1009.96 266.063 1009.96 266.511V273H1007.21ZM1020.62 273.252C1019.61 273.252 1018.68 273.049 1017.83 272.643C1016.99 272.223 1016.32 271.593 1015.81 270.753C1015.31 269.899 1015.06 268.828 1015.06 267.54V267.12C1015.06 265.888 1015.29 264.866 1015.77 264.054C1016.26 263.242 1016.91 262.633 1017.72 262.227C1018.54 261.821 1019.43 261.618 1020.41 261.618C1022.16 261.618 1023.49 262.08 1024.4 263.004C1025.31 263.928 1025.77 265.265 1025.77 267.015V268.191H1017.89C1017.92 268.849 1018.06 269.388 1018.31 269.808C1018.58 270.214 1018.91 270.515 1019.32 270.711C1019.73 270.893 1020.16 270.984 1020.62 270.984C1021.34 270.984 1021.87 270.879 1022.24 270.669C1022.6 270.459 1022.86 270.151 1023.02 269.745H1025.56C1025.33 270.907 1024.78 271.782 1023.9 272.37C1023.02 272.958 1021.92 273.252 1020.62 273.252ZM1020.52 263.886C1020.08 263.886 1019.66 263.956 1019.26 264.096C1018.85 264.236 1018.53 264.488 1018.29 264.852C1018.05 265.202 1017.92 265.671 1017.89 266.259H1023.08C1023.06 265.629 1022.94 265.146 1022.7 264.81C1022.48 264.46 1022.18 264.222 1021.8 264.096C1021.42 263.956 1020.99 263.886 1020.52 263.886ZM1032.38 273.252C1031.42 273.252 1030.58 273.042 1029.86 272.622C1029.16 272.202 1028.62 271.572 1028.23 270.732C1027.85 269.878 1027.66 268.814 1027.66 267.54V267.12C1027.66 265.916 1027.85 264.908 1028.23 264.096C1028.62 263.284 1029.17 262.668 1029.88 262.248C1030.6 261.828 1031.43 261.618 1032.38 261.618C1033.15 261.618 1033.83 261.786 1034.4 262.122C1034.99 262.444 1035.46 262.878 1035.81 263.424V258.3H1038.56V273H1036V271.362C1035.72 271.866 1035.27 272.307 1034.67 272.685C1034.07 273.063 1033.31 273.252 1032.38 273.252ZM1033.03 270.9C1033.59 270.9 1034.08 270.795 1034.48 270.585C1034.9 270.375 1035.23 270.053 1035.45 269.619C1035.69 269.171 1035.81 268.618 1035.81 267.96V266.7C1035.81 266.084 1035.69 265.58 1035.45 265.188C1035.21 264.782 1034.88 264.481 1034.44 264.285C1034.02 264.075 1033.55 263.97 1033.03 263.97C1032.28 263.97 1031.66 264.236 1031.19 264.768C1030.71 265.286 1030.47 266.07 1030.47 267.12V267.54C1030.47 268.688 1030.72 269.535 1031.21 270.081C1031.7 270.627 1032.31 270.9 1033.03 270.9ZM1047.63 273V258.3H1052.74C1054.22 258.3 1055.49 258.566 1056.54 259.098C1057.59 259.63 1058.39 260.421 1058.93 261.471C1059.49 262.507 1059.77 263.795 1059.77 265.335V265.755C1059.77 267.323 1059.49 268.646 1058.91 269.724C1058.34 270.802 1057.5 271.621 1056.41 272.181C1055.33 272.727 1054.04 273 1052.53 273H1047.63ZM1050.76 270.396H1052.32C1053.09 270.396 1053.79 270.249 1054.42 269.955C1055.05 269.661 1055.55 269.178 1055.93 268.506C1056.32 267.82 1056.52 266.903 1056.52 265.755V265.335C1056.52 264.243 1056.34 263.375 1055.99 262.731C1055.64 262.073 1055.16 261.604 1054.54 261.324C1053.94 261.044 1053.27 260.904 1052.53 260.904H1050.76V270.396ZM1065.86 273.252C1065.06 273.252 1064.38 273.105 1063.82 272.811C1063.26 272.503 1062.84 272.083 1062.54 271.551C1062.25 271.019 1062.1 270.417 1062.1 269.745C1062.1 268.625 1062.43 267.785 1063.09 267.225C1063.76 266.665 1064.76 266.385 1066.09 266.385H1069.41V265.86C1069.41 265.132 1069.24 264.621 1068.91 264.327C1068.58 264.033 1068.07 263.886 1067.35 263.886C1066.72 263.886 1066.27 263.998 1065.99 264.222C1065.71 264.432 1065.55 264.698 1065.5 265.02H1062.73C1062.77 264.376 1062.98 263.802 1063.34 263.298C1063.72 262.78 1064.25 262.374 1064.94 262.08C1065.64 261.772 1066.48 261.618 1067.46 261.618C1068.41 261.618 1069.24 261.758 1069.94 262.038C1070.65 262.318 1071.2 262.773 1071.59 263.403C1071.99 264.019 1072.18 264.852 1072.18 265.902V270.165C1072.18 270.753 1072.19 271.271 1072.2 271.719C1072.23 272.153 1072.27 272.58 1072.33 273H1069.75C1069.69 272.692 1069.66 272.461 1069.64 272.307C1069.64 272.139 1069.64 271.894 1069.64 271.572C1069.35 272.02 1068.89 272.412 1068.26 272.748C1067.63 273.084 1066.83 273.252 1065.86 273.252ZM1066.72 271.11C1067.17 271.11 1067.6 271.033 1068 270.879C1068.42 270.711 1068.76 270.459 1069.01 270.123C1069.28 269.773 1069.41 269.332 1069.41 268.8V268.275H1066.62C1066.09 268.275 1065.67 268.401 1065.36 268.653C1065.06 268.891 1064.92 269.22 1064.92 269.64C1064.92 270.088 1065.07 270.445 1065.38 270.711C1065.69 270.977 1066.13 271.11 1066.72 271.11ZM1079.56 273.126C1078.69 273.126 1077.98 273.007 1077.42 272.769C1076.86 272.517 1076.44 272.118 1076.18 271.572C1075.92 271.026 1075.8 270.319 1075.8 269.451V264.18H1074.31V261.87H1075.8V259.35H1078.55V261.87H1081.24V264.18H1078.55V269.01C1078.55 269.64 1078.66 270.095 1078.89 270.375C1079.12 270.641 1079.56 270.774 1080.19 270.774C1080.61 270.774 1081.03 270.753 1081.45 270.711V273.021C1081.18 273.049 1080.9 273.07 1080.61 273.084C1080.33 273.112 1079.98 273.126 1079.56 273.126ZM1087.21 273.252C1086.41 273.252 1085.73 273.105 1085.17 272.811C1084.61 272.503 1084.19 272.083 1083.89 271.551C1083.6 271.019 1083.45 270.417 1083.45 269.745C1083.45 268.625 1083.78 267.785 1084.44 267.225C1085.11 266.665 1086.11 266.385 1087.44 266.385H1090.76V265.86C1090.76 265.132 1090.59 264.621 1090.25 264.327C1089.93 264.033 1089.41 263.886 1088.7 263.886C1088.07 263.886 1087.62 263.998 1087.34 264.222C1087.06 264.432 1086.89 264.698 1086.85 265.02H1084.08C1084.12 264.376 1084.33 263.802 1084.69 263.298C1085.07 262.78 1085.6 262.374 1086.29 262.08C1086.99 261.772 1087.83 261.618 1088.81 261.618C1089.76 261.618 1090.58 261.758 1091.28 262.038C1092 262.318 1092.55 262.773 1092.94 263.403C1093.33 264.019 1093.53 264.852 1093.53 265.902V270.165C1093.53 270.753 1093.54 271.271 1093.55 271.719C1093.58 272.153 1093.62 272.58 1093.68 273H1091.09C1091.04 272.692 1091 272.461 1090.99 272.307C1090.99 272.139 1090.99 271.894 1090.99 271.572C1090.7 272.02 1090.23 272.412 1089.6 272.748C1088.97 273.084 1088.18 273.252 1087.21 273.252ZM1088.07 271.11C1088.52 271.11 1088.95 271.033 1089.35 270.879C1089.77 270.711 1090.11 270.459 1090.36 270.123C1090.63 269.773 1090.76 269.332 1090.76 268.8V268.275H1087.97C1087.43 268.275 1087.01 268.401 1086.71 268.653C1086.41 268.891 1086.26 269.22 1086.26 269.64C1086.26 270.088 1086.42 270.445 1086.73 270.711C1087.03 270.977 1087.48 271.11 1088.07 271.11Z" fill="var(--svg-stroke)"/>
</g>
</svg>
