<svg xmlns="http://www.w3.org/2000/svg" width="132" height="132" viewBox="0 0 132 132" fill="#F9FAFC">
    <path d="m115.338 71.36 8.662-.716-.316 1.852-6.077.291 5.582 2.605-.283 1.663-6.159.631 5.64 2.408-.292 1.71-7.931-3.57.302-1.77 6.221-.706-5.651-2.63.302-1.768Zm-3.535 13.902 7.585 3.656-2.545 5.296-1.343-.647 1.762-3.669-1.69-.814-1.606 3.342-1.3-.627 1.606-3.342-1.907-.92-1.763 3.669-1.344-.648 2.545-5.296Zm-8.134 13.328 3.682 8.203-1.277 1.26-8.144-3.798 1.353-1.336 1.67.77 2.218-2.19-.753-1.674 1.251-1.235Zm.155 4.362-1.439 1.42 2.771 1.375-1.332-2.795Zm-9.89 4.215 4.255 7.274-2.937 1.723c-.608.357-1.17.556-1.685.598-.521.045-.99-.048-1.403-.279-.41-.225-.753-.573-1.029-1.044-.292-.499-.419-1.01-.382-1.535.041-.517.276-1.013.705-1.488l-3.418-1.792 1.796-1.053 3.08 1.766 1.028-.603-1.556-2.66 1.546-.907Zm.727 4.793-1.09.64c-.573.336-.917.654-1.03.953-.11.306-.062.632.14.979.203.346.462.543.778.591.32.054.766-.087 1.34-.424l1.09-.639-1.228-2.1Zm-10.917.447 2.507 8.048-5.602 1.751-.444-1.426 3.88-1.213-.559-1.793-3.535 1.105-.43-1.38 3.535-1.105-.63-2.023-3.88 1.212-.444-1.425 5.602-1.751Zm-15.796 3.175L67.494 124l-1.79-.097.181-3.343-3.602-.195-.18 3.343-1.79-.097.455-8.418 1.789.097-.194 3.583 3.603.196.193-3.584 1.79.097Zm-12.645-1.446-2.048 8.177-1.738-.436 2.048-8.178 1.738.437Zm-5.88-1.682-3.452 7.689-3.104-1.398c-.643-.29-1.131-.632-1.463-1.028-.34-.4-.535-.835-.587-1.308-.055-.465.03-.946.253-1.444.237-.527.58-.928 1.027-1.201.445-.267.985-.363 1.62-.288l-.524-3.828 1.897.855.35 3.538 1.086.489 1.262-2.812 1.635.736Zm-3.479 3.372-1.151-.519c-.607-.273-1.065-.369-1.374-.288-.312.088-.55.316-.715.682-.164.366-.174.692-.03.977.142.292.516.575 1.123.848l1.151.519.996-2.219Zm-6.006-8.273-4.7 6.995-1.487-1.002 4.7-6.994 1.486 1.001Zm-5.064-3.569-5.952 5.962-1.199-1.201 1.2-6.464-3.827 3.832-1.259-1.26 5.953-5.961 1.198 1.2-1.198 6.464 3.826-3.832 1.258 1.26ZM24.09 90.458c.362.653.561 1.309.597 1.968.026.657-.151 1.288-.53 1.895-.39.603-1.03 1.152-1.919 1.648l-.21.117c-.638.356-1.236.574-1.796.657-.564.075-1.078.04-1.544-.105a3.436 3.436 0 0 1-1.254-.72 4.474 4.474 0 0 1-.924-1.167 4.476 4.476 0 0 1-.48-1.235 3.112 3.112 0 0 1-.062-1.178 2.74 2.74 0 0 1 .388-1.085c.204-.343.49-.663.857-.96l.912 1.642c-.24.262-.394.513-.462.754a1.343 1.343 0 0 0-.04.697c.04.217.113.424.222.62.172.31.405.556.7.74.291.178.65.254 1.076.228.422-.033.92-.21 1.495-.53l.21-.117c.455-.253.81-.515 1.063-.785.254-.27.429-.542.524-.816a1.897 1.897 0 0 0-.159-1.524 2.359 2.359 0 0 0-.613-.733 1.565 1.565 0 0 0-.827-.325c-.321-.032-.668.037-1.04.208l.83 1.494-1.093.61-1.667-3 .42-.234c.61-.34 1.182-.557 1.716-.653a3.239 3.239 0 0 1 1.466.038c.443.12.844.338 1.202.653.358.314.672.714.941 1.198Zm-7.657-13.593c.035.173.026.347-.028.522a1.107 1.107 0 0 1-.299.456 1.033 1.033 0 0 1-.468.232.971.971 0 0 1-.779-.146 1.006 1.006 0 0 1-.428-.65 1.008 1.008 0 0 1 .136-.766.973.973 0 0 1 .658-.443.967.967 0 0 1 .524.039c.174.054.324.146.45.276.116.131.195.291.233.48Zm1.195-13.397L9 64.516l.245-1.862 6.06-.525-5.677-2.389.22-1.672 6.13-.867-5.728-2.19.227-1.719 8.06 3.263-.233 1.779-6.19.945 5.748 2.41-.234 1.78Zm2.96-13.972-7.715-3.37 2.346-5.387 1.367.597-1.625 3.73 1.719.752 1.481-3.4 1.323.578-1.481 3.4 1.94.847 1.625-3.73 1.367.596-2.347 5.387Zm7.585-13.646-3.977-8.063 1.23-1.305 8.276 3.5-1.304 1.383-1.696-.708-2.138 2.268.814 1.647-1.205 1.279Zm-.314-4.352 1.387-1.472-2.82-1.273 1.433 2.745Zm9.794-4.667-4.519-7.113 2.871-1.83c.595-.378 1.15-.598 1.662-.659.52-.064.99.012 1.413.228.418.21.774.544 1.066 1.005.31.488.456.994.438 1.52-.022.518-.238 1.022-.649 1.512l3.48 1.665-1.755 1.119-3.144-1.651-1.004.64 1.652 2.601-1.511.963Zm-.903-4.763 1.066-.68c.56-.357.893-.687.995-.99.097-.31.039-.634-.176-.973-.215-.338-.482-.526-.799-.562-.322-.042-.763.116-1.325.473l-1.065.68 1.304 2.052Zm10.862-.853-2.808-7.947 5.532-1.961.497 1.408-3.831 1.358.625 1.771 3.492-1.238.481 1.363-3.491 1.238.706 1.998 3.832-1.358.497 1.407-5.532 1.961Zm15.361-3.785.13-8.43 1.792.028-.052 3.348 3.607.055.052-3.348 1.791.028-.13 8.43-1.791-.028.055-3.589-3.607-.055-.055 3.588-1.792-.027Zm13.01.96 1.766-8.243 1.752.377-1.766 8.243-1.752-.377Zm5.653 1.35 3.133-7.825 3.159 1.268c.655.264 1.156.586 1.504.968.355.385.569.812.64 1.282.074.462.01.947-.194 1.454-.215.536-.54.95-.977 1.242-.433.285-.968.403-1.606.354l.68 3.803-1.93-.776-.496-3.52-1.104-.444-1.146 2.861-1.663-.668Zm3.337-3.513 1.172.47c.617.249 1.079.326 1.384.232.308-.1.537-.338.686-.71.15-.373.146-.699-.01-.978-.153-.286-.538-.553-1.156-.801l-1.172-.471-.904 2.258Zm6.503 8.078 4.44-7.162 1.523.947-4.44 7.162-1.523-.947Zm5.274 3.402 5.731-6.174 1.242 1.156-.964 6.503 3.685-3.969 1.304 1.214-5.732 6.174-1.242-1.156.964-6.504-3.685 3.97-1.304-1.214Zm11.285 13.073c-.387-.638-.61-1.286-.67-1.944-.05-.655.103-1.293.46-1.913.367-.617.986-1.19 1.857-1.718l.206-.125c.624-.378 1.214-.619 1.77-.722.561-.096 1.076-.08 1.547.048.475.134.901.359 1.28.674.378.315.7.692.965 1.132.25.412.424.817.525 1.216.112.402.147.793.106 1.175a2.74 2.74 0 0 1-.348 1.098 3.63 3.63 0 0 1-.821.99l-.972-1.606c.23-.27.375-.528.434-.77.067-.247.071-.48.014-.698a1.977 1.977 0 0 0-.244-.613 2.008 2.008 0 0 0-.727-.714c-.297-.166-.659-.229-1.083-.187-.421.048-.912.243-1.475.584l-.205.125c-.446.27-.791.545-1.034.825a2.34 2.34 0 0 0-.494.834 1.91 1.91 0 0 0 .215 1.517c.179.296.392.532.64.71.248.178.528.276.839.294.322.02.666-.061 1.032-.246l-.885-1.463 1.07-.649 1.776 2.936-.412.25c-.596.362-1.16.6-1.69.715a3.236 3.236 0 0 1-1.466.017 2.993 2.993 0 0 1-1.226-.608 4.432 4.432 0 0 1-.984-1.163Zm8.211 13.33a1.03 1.03 0 0 1 .007-.522 1.019 1.019 0 0 1 .74-.716.971.971 0 0 1 .784.116c.235.149.386.36.453.633.068.272.032.53-.107.77a.974.974 0 0 1-.64.469.966.966 0 0 1-.525-.02 1.039 1.039 0 0 1-.46-.258 1.015 1.015 0 0 1-.252-.471Z">
        <animateTransform
            attributeName="transform"
            attributeType="XML"
            type="rotate"
            from="0 66.5 66.1"
            to="360 66.5 66.1"
            dur="10s"
            repeatCount="indefinite" />
    </path>
    <g id="sagara">
        <path d="M66.576 60.155c-2.792 0-5.12 1.974-5.683 4.6a6.211 6.211 0 0 0-.12.792.409.409 0 0 0 .416.434h1.585c.24 0 .431-.196.463-.434.038-.275.11-.54.208-.792a3.362 3.362 0 0 1 3.131-2.145 3.369 3.369 0 0 1 3.368 3.37 3.369 3.369 0 0 1-3.368 3.372h-14.08a.424.424 0 0 0-.414.53c.148.564.326 1.117.537 1.653a.425.425 0 0 0 .397.268h13.56a5.818 5.818 0 0 0 5.817-5.822 5.821 5.821 0 0 0-5.817-5.826Z" />
        <path d="M66.576 55.559c-5.335 0-9.729 4.02-10.336 9.196-.03.262-.054.525-.066.791a.419.419 0 0 0 .423.435h1.581c.24 0 .433-.195.449-.435.017-.267.048-.53.088-.79.59-3.819 3.881-6.747 7.861-6.747 4.397 0 7.96 3.57 7.96 7.972 0 4.401-3.563 7.968-7.96 7.968H54.631a.418.418 0 0 0-.351.654c.409.587.858 1.145 1.344 1.666a.429.429 0 0 0 .313.134h10.64c5.75 0 10.412-4.666 10.411-10.422 0-5.756-4.662-10.422-10.412-10.422Z" />
        <path d="M66.576 51a14.969 14.969 0 0 0-11.58 5.463c-.295.36-.577.733-.839 1.119l-.05.076c-.235.352-.453.716-.659 1.088-.036.066-.075.129-.11.195-.181.337-.342.686-.496 1.038-.046.105-.094.211-.138.317-.12.291-.226.586-.328.886-.064.19-.13.383-.187.576-.06.206-.108.414-.16.623-.07.282-.141.563-.194.851-.025.13-.037.266-.057.397-.058.364-.111.731-.142 1.104 0 .007-.003.015-.004.022-.02.263-.04.526-.051.791a.42.42 0 0 0 .424.435h1.581c.24 0 .433-.195.442-.435.01-.265.028-.529.053-.79.617-6.365 5.975-11.343 12.495-11.343 6.934 0 12.556 5.627 12.556 12.568 0 6.94-5.622 12.568-12.556 12.568h-6.821c-.43 0-.583.536-.202.737 1.883.998 4.005 1.6 6.257 1.714h.766c7.77 0 14.156-5.91 14.925-13.484.05-.493.078-.992.08-1.497 0-.518-.03-1.034-.08-1.538C80.731 56.907 74.344 51 66.576 51Z" />
    </g>
</svg>