<svg width="32" height="32" viewBox="0 0 32 32" fill="none" xmlns="http://www.w3.org/2000/svg">
<path fill-rule="evenodd" clip-rule="evenodd" d="M17.4597 13.2632L16.0709 9.04461C16.0648 9.02619 16.0582 9.0173 16.0582 9.0173C16.0568 9.01551 16.0556 9.01428 16.0532 9.01272C16.0471 9.00862 16.0289 9 16 9C15.9711 9 15.9529 9.00862 15.9468 9.01272C15.9444 9.01428 15.9432 9.01551 15.9418 9.0173C15.9418 9.0173 15.9352 9.02619 15.9291 9.04461L14.5403 13.2632C14.2594 14.1165 13.4594 14.6824 12.5697 14.6824H8.07529C8.0517 14.6824 8.03958 14.686 8.03547 14.6873C8.03108 14.6888 8.02865 14.6903 8.02664 14.6919C8.02156 14.6957 8.01107 14.7069 8.00443 14.727C7.9978 14.7472 8.0009 14.761 8.0009 14.761C8.0009 14.761 8.00091 14.7615 8.0021 14.7631C8.0021 14.7631 8.00929 14.7731 8.02719 14.7859L11.6633 17.3931C12.3909 17.9149 12.702 18.847 12.4203 19.7028L11.0314 23.9214C11.0253 23.9398 11.0257 23.9484 11.0257 23.9484C11.0264 23.9504 11.033 23.9651 11.0542 23.9802C11.0753 23.9954 11.0948 23.9997 11.1047 24C11.1088 24.0001 11.1126 23.9997 11.1171 23.9983C11.1213 23.997 11.1325 23.9931 11.1504 23.9802L14.7864 21.373C15.5109 20.8535 16.4891 20.8535 17.2136 21.373L20.8496 23.9802C20.8675 23.9931 20.8787 23.997 20.8829 23.9983C20.8874 23.9997 20.8912 24.0001 20.8953 24C20.9052 23.9997 20.9247 23.9954 20.9458 23.9802C20.967 23.9651 20.9736 23.9508 20.9743 23.9488C20.9743 23.9488 20.9747 23.9398 20.9686 23.9214L19.5797 19.7028C19.298 18.847 19.6091 17.9149 20.3367 17.3931L23.9728 14.7859C23.9907 14.7731 23.9979 14.7631 23.9979 14.7631C23.9991 14.7615 23.9991 14.761 23.9991 14.761C23.9991 14.761 24.0022 14.7472 23.9956 14.727C23.9889 14.7069 23.9784 14.6957 23.9734 14.6919C23.9713 14.6903 23.9689 14.6888 23.9645 14.6873C23.9604 14.686 23.9483 14.6824 23.9247 14.6824H19.4303C18.5406 14.6824 17.7406 14.1165 17.4597 13.2632ZM17.0207 8.7319C16.6994 7.75603 15.3006 7.75603 14.9793 8.7319L13.5904 12.9505C13.4468 13.3869 13.0347 13.6824 12.5697 13.6824H8.07529C7.03563 13.6824 6.60335 14.9954 7.44446 15.5986L11.0805 18.2058C11.4567 18.4755 11.6141 18.9536 11.4704 19.39L10.0816 23.6087C9.76028 24.5845 10.892 25.396 11.7331 24.7929L15.3692 22.1857C15.7453 21.9159 16.2547 21.9159 16.6308 22.1857L20.2669 24.7929C21.108 25.396 22.2397 24.5845 21.9184 23.6087L20.5296 19.39C20.3859 18.9536 20.5433 18.4755 20.9195 18.2058L24.5555 15.5986C25.3966 14.9954 24.9644 13.6824 23.9247 13.6824H19.4303C18.9653 13.6824 18.5532 13.3869 18.4096 12.9505L17.0207 8.7319Z" fill="#2B2727"/>
</svg>
