<svg width="32" height="32" viewBox="0 0 32 32" fill="none" xmlns="http://www.w3.org/2000/svg">
<path fill-rule="evenodd" clip-rule="evenodd" d="M25 9H6C5.44772 9 5 9.44772 5 10V22C5 22.5523 5.44772 23 6 23H25C25.5523 23 26 22.5523 26 22V10C26 9.44772 25.5523 9 25 9ZM6 8C4.89543 8 4 8.89543 4 10V22C4 23.1046 4.89543 24 6 24H25C26.1046 24 27 23.1046 27 22V10C27 8.89543 26.1046 8 25 8H6Z" fill="#2B2727"/>
<path fill-rule="evenodd" clip-rule="evenodd" d="M8 11.5C8 11.7761 8.22386 12 8.5 12C8.77614 12 9 11.7761 9 11.5C9 11.2239 8.77614 11 8.5 11C8.22386 11 8 11.2239 8 11.5ZM8.5 10C7.67157 10 7 10.6716 7 11.5C7 12.3284 7.67157 13 8.5 13C9.32843 13 10 12.3284 10 11.5C10 10.6716 9.32843 10 8.5 10Z" fill="#2B2727"/>
<path fill-rule="evenodd" clip-rule="evenodd" d="M12 11.5C12 11.2239 12.2239 11 12.5 11H15.5C15.7761 11 16 11.2239 16 11.5C16 11.7761 15.7761 12 15.5 12H12.5C12.2239 12 12 11.7761 12 11.5ZM17 11.5C17 11.2239 17.2239 11 17.5 11H19.5C19.7761 11 20 11.2239 20 11.5C20 11.7761 19.7761 12 19.5 12H17.5C17.2239 12 17 11.7761 17 11.5ZM21 11.5C21 11.2239 21.2239 11 21.5 11H23.5C23.7761 11 24 11.2239 24 11.5C24 11.7761 23.7761 12 23.5 12H21.5C21.2239 12 21 11.7761 21 11.5Z" fill="#2B2727"/>
<path fill-rule="evenodd" clip-rule="evenodd" d="M11 15H8V20H11V15ZM12 20C12 20.5523 11.5523 21 11 21H8C7.44772 21 7 20.5523 7 20V15C7 14.4477 7.44772 14 8 14H11C11.5523 14 12 14.4477 12 15V20ZM18 20V15C18 14.4477 17.5523 14 17 14H14C13.4477 14 13 14.4477 13 15V20C13 20.5523 13.4477 21 14 21H17C17.5523 21 18 20.5523 18 20ZM17 15H14V20H17V15ZM23 15H20V20H23V15ZM20 14C19.4477 14 19 14.4477 19 15V20C19 20.5523 19.4477 21 20 21H23C23.5523 21 24 20.5523 24 20V15C24 14.4477 23.5523 14 23 14H20Z" fill="#2B2727"/>
</svg>
