<svg width="32" height="32" viewBox="0 0 32 32" fill="none" xmlns="http://www.w3.org/2000/svg">
<path fill-rule="evenodd" clip-rule="evenodd" d="M16.8 6H7.2C6.62345 6 6.25117 6.00078 5.96784 6.02393C5.69617 6.04612 5.59545 6.0838 5.54601 6.10899C5.35785 6.20487 5.20487 6.35785 5.10899 6.54601C5.0838 6.59545 5.04612 6.69617 5.02393 6.96784C5.00078 7.25117 5 7.62345 5 8.2V23.8C5 24.3766 5.00078 24.7488 5.02393 25.0322C5.04612 25.3038 5.0838 25.4045 5.10899 25.454C5.20487 25.6422 5.35785 25.7951 5.54601 25.891C5.59545 25.9162 5.69617 25.9539 5.96784 25.9761C6.25117 25.9992 6.62345 26 7.2 26H16.8C17.3766 26 17.7488 25.9992 18.0322 25.9761C18.3038 25.9539 18.4045 25.9162 18.454 25.891C18.6422 25.7951 18.7951 25.6422 18.891 25.454C18.9162 25.4045 18.9539 25.3038 18.9761 25.0322C18.9992 24.7488 19 24.3766 19 23.8V8.2C19 7.62345 18.9992 7.25117 18.9761 6.96784C18.9539 6.69617 18.9162 6.59545 18.891 6.54601C18.7951 6.35785 18.6422 6.20487 18.454 6.10899C18.4045 6.0838 18.3038 6.04612 18.0322 6.02393C17.7488 6.00078 17.3766 6 16.8 6ZM4.21799 6.09202C4 6.51984 4 7.0799 4 8.2V23.8C4 24.9201 4 25.4802 4.21799 25.908C4.40973 26.2843 4.71569 26.5903 5.09202 26.782C5.51984 27 6.0799 27 7.2 27H16.8C17.9201 27 18.4802 27 18.908 26.782C19.2843 26.5903 19.5903 26.2843 19.782 25.908C20 25.4802 20 24.9201 20 23.8V8.2C20 7.0799 20 6.51984 19.782 6.09202C19.5903 5.71569 19.2843 5.40973 18.908 5.21799C18.4802 5 17.9201 5 16.8 5H7.2C6.0799 5 5.51984 5 5.09202 5.21799C4.71569 5.40973 4.40973 5.71569 4.21799 6.09202Z" fill="#2B2727"/>
<path fill-rule="evenodd" clip-rule="evenodd" d="M24.8 17H24.2C23.6234 17 23.2512 17.0008 22.9678 17.0239C22.6962 17.0461 22.5955 17.0838 22.546 17.109C22.3578 17.2049 22.2049 17.3578 22.109 17.546C22.0838 17.5955 22.0461 17.6962 22.0239 17.9678C22.0008 18.2512 22 18.6234 22 19.2V23.8C22 24.3766 22.0008 24.7488 22.0239 25.0322C22.0461 25.3038 22.0838 25.4045 22.109 25.454C22.2049 25.6422 22.3578 25.7951 22.546 25.891C22.5955 25.9162 22.6962 25.9539 22.9678 25.9761C23.2512 25.9992 23.6234 26 24.2 26H24.8C25.3766 26 25.7488 25.9992 26.0322 25.9761C26.3038 25.9539 26.4045 25.9162 26.454 25.891C26.6422 25.7951 26.7951 25.6422 26.891 25.454C26.9162 25.4045 26.9539 25.3038 26.9761 25.0322C26.9992 24.7488 27 24.3766 27 23.8V19.2C27 18.6234 26.9992 18.2512 26.9761 17.9678C26.9539 17.6962 26.9162 17.5955 26.891 17.546C26.7951 17.3578 26.6422 17.2049 26.454 17.109C26.4045 17.0838 26.3038 17.0461 26.0322 17.0239C25.7488 17.0008 25.3766 17 24.8 17ZM21.218 17.092C21 17.5198 21 18.0799 21 19.2V23.8C21 24.9201 21 25.4802 21.218 25.908C21.4097 26.2843 21.7157 26.5903 22.092 26.782C22.5198 27 23.0799 27 24.2 27H24.8C25.9201 27 26.4802 27 26.908 26.782C27.2843 26.5903 27.5903 26.2843 27.782 25.908C28 25.4802 28 24.9201 28 23.8V19.2C28 18.0799 28 17.5198 27.782 17.092C27.5903 16.7157 27.2843 16.4097 26.908 16.218C26.4802 16 25.9201 16 24.8 16H24.2C23.0799 16 22.5198 16 22.092 16.218C21.7157 16.4097 21.4097 16.7157 21.218 17.092Z" fill="#2B2727"/>
<path fill-rule="evenodd" clip-rule="evenodd" d="M23.5 18C23.5 17.7239 23.7239 17.5 24 17.5H25C25.2761 17.5 25.5 17.7239 25.5 18C25.5 18.2761 25.2761 18.5 25 18.5H24C23.7239 18.5 23.5 18.2761 23.5 18Z" fill="#2B2727"/>
</svg>
