<svg width="32" height="32" viewBox="0 0 32 32" fill="none" xmlns="http://www.w3.org/2000/svg">
<path fill-rule="evenodd" clip-rule="evenodd" d="M16 5.5C10.201 5.5 5.5 10.201 5.5 16C5.5 21.799 10.201 26.5 16 26.5C21.799 26.5 26.5 21.799 26.5 16C26.5 10.201 21.799 5.5 16 5.5ZM4 16C4 9.37258 9.37258 4 16 4C22.6274 4 28 9.37258 28 16C28 22.6274 22.6274 28 16 28C9.37258 28 4 22.6274 4 16ZM9.71967 9.46964C10.0126 9.17675 10.4874 9.17675 10.7803 9.46964L16 14.6893L21.2197 9.46964C21.5126 9.17675 21.9874 9.17675 22.2803 9.46964C22.5732 9.76253 22.5732 10.2374 22.2803 10.5303L17.0607 15.75L22.2803 20.9696C22.5732 21.2625 22.5732 21.7374 22.2803 22.0303C21.9874 22.3232 21.5126 22.3232 21.2197 22.0303L16 16.8106L10.7803 22.0303C10.4874 22.3232 10.0126 22.3232 9.71967 22.0303C9.42678 21.7374 9.42678 21.2625 9.71967 20.9696L14.9393 15.75L9.71967 10.5303C9.42677 10.2374 9.42677 9.76253 9.71967 9.46964Z" fill="#2B2727"/>
</svg>
