<svg width="32" height="32" viewBox="0 0 32 32" fill="none" xmlns="http://www.w3.org/2000/svg">
<path fill-rule="evenodd" clip-rule="evenodd" d="M24.8 9H7.2C6.62345 9 6.25117 9.00078 5.96784 9.02393C5.69617 9.04612 5.59545 9.0838 5.54601 9.10899C5.35785 9.20487 5.20487 9.35785 5.10899 9.54601C5.0838 9.59545 5.04612 9.69617 5.02393 9.96784C5.00078 10.2512 5 10.6234 5 11.2V12.8C5 13.3766 5.00078 13.7488 5.02393 14.0322C5.04612 14.3038 5.0838 14.4045 5.10899 14.454C5.20487 14.6422 5.35785 14.7951 5.54601 14.891C5.59545 14.9162 5.69617 14.9539 5.96784 14.9761C6.25117 14.9992 6.62345 15 7.2 15H24.8C25.3766 15 25.7488 14.9992 26.0322 14.9761C26.3038 14.9539 26.4045 14.9162 26.454 14.891C26.6422 14.7951 26.7951 14.6422 26.891 14.454C26.9162 14.4045 26.9539 14.3038 26.9761 14.0322C26.9992 13.7488 27 13.3766 27 12.8V11.2C27 10.6234 26.9992 10.2512 26.9761 9.96784C26.9539 9.69617 26.9162 9.59545 26.891 9.54601C26.7951 9.35785 26.6422 9.20487 26.454 9.10899C26.4045 9.0838 26.3038 9.04612 26.0322 9.02393C25.7488 9.00078 25.3766 9 24.8 9ZM4.21799 9.09202C4 9.51984 4 10.0799 4 11.2V12.8C4 13.9201 4 14.4802 4.21799 14.908C4.40973 15.2843 4.71569 15.5903 5.09202 15.782C5.51984 16 6.0799 16 7.2 16H24.8C25.9201 16 26.4802 16 26.908 15.782C27.2843 15.5903 27.5903 15.2843 27.782 14.908C28 14.4802 28 13.9201 28 12.8V11.2C28 10.0799 28 9.51984 27.782 9.09202C27.5903 8.71569 27.2843 8.40973 26.908 8.21799C26.4802 8 25.9201 8 24.8 8H7.2C6.0799 8 5.51984 8 5.09202 8.21799C4.71569 8.40973 4.40973 8.71569 4.21799 9.09202Z" fill="#2B2727"/>
<path fill-rule="evenodd" clip-rule="evenodd" d="M12.5 10.5C12.7761 10.5 13 10.7239 13 11V13C13 13.2761 12.7761 13.5 12.5 13.5C12.2239 13.5 12 13.2761 12 13V11C12 10.7239 12.2239 10.5 12.5 10.5ZM14.5 10.5C14.7761 10.5 15 10.7239 15 11V13C15 13.2761 14.7761 13.5 14.5 13.5C14.2239 13.5 14 13.2761 14 13V11C14 10.7239 14.2239 10.5 14.5 10.5ZM16.5 10.5C16.7761 10.5 17 10.7239 17 11V13C17 13.2761 16.7761 13.5 16.5 13.5C16.2239 13.5 16 13.2761 16 13V11C16 10.7239 16.2239 10.5 16.5 10.5ZM18.5 10.5C18.7761 10.5 19 10.7239 19 11V13C19 13.2761 18.7761 13.5 18.5 13.5C18.2239 13.5 18 13.2761 18 13V11C18 10.7239 18.2239 10.5 18.5 10.5Z" fill="#2B2727"/>
<path d="M25 10.5C25 10.7761 24.7761 11 24.5 11C24.2239 11 24 10.7761 24 10.5C24 10.2239 24.2239 10 24.5 10C24.7761 10 25 10.2239 25 10.5Z" fill="#2B2727"/>
<path d="M7.2 18H24.8C25.3766 18 25.7488 18.0008 26.0322 18.0239C26.3038 18.0461 26.4045 18.0838 26.454 18.109C26.6422 18.2049 26.7951 18.3578 26.891 18.546C26.9162 18.5955 26.9539 18.6962 26.9761 18.9678C26.9992 19.2512 27 19.6234 27 20.2V20.5924C27.4131 20.8863 27.7566 21.2759 28 21.7299V20.2C28 19.0799 28 18.5198 27.782 18.092C27.5903 17.7157 27.2843 17.4097 26.908 17.218C26.4802 17 25.9201 17 24.8 17H7.2C6.0799 17 5.51984 17 5.09202 17.218C4.71569 17.4097 4.40973 17.7157 4.21799 18.092C4 18.5198 4 19.0799 4 20.2V21.8C4 22.9201 4 23.4802 4.21799 23.908C4.40973 24.2843 4.71569 24.5903 5.09202 24.782C5.51984 25 6.0799 25 7.2 25H18.0201C18.064 24.6394 18.178 24.3011 18.3478 24H7.2C6.62345 24 6.25117 23.9992 5.96784 23.9761C5.69617 23.9539 5.59545 23.9162 5.54601 23.891C5.35785 23.7951 5.20487 23.6422 5.10899 23.454C5.0838 23.4045 5.04612 23.3038 5.02393 23.0322C5.00078 22.7488 5 22.3766 5 21.8V20.2C5 19.6234 5.00078 19.2512 5.02393 18.9678C5.04612 18.6962 5.0838 18.5955 5.10899 18.546C5.20487 18.3578 5.35785 18.2049 5.54601 18.109C5.59545 18.0838 5.69617 18.0461 5.96784 18.0239C6.25117 18.0008 6.62345 18 7.2 18Z" fill="#2B2727"/>
<path fill-rule="evenodd" clip-rule="evenodd" d="M12.5 19.5C12.7761 19.5 13 19.7239 13 20V22C13 22.2761 12.7761 22.5 12.5 22.5C12.2239 22.5 12 22.2761 12 22V20C12 19.7239 12.2239 19.5 12.5 19.5ZM14.5 19.5C14.7761 19.5 15 19.7239 15 20V22C15 22.2761 14.7761 22.5 14.5 22.5C14.2239 22.5 14 22.2761 14 22V20C14 19.7239 14.2239 19.5 14.5 19.5ZM16.5 19.5C16.7761 19.5 17 19.7239 17 20V22C17 22.2761 16.7761 22.5 16.5 22.5C16.2239 22.5 16 22.2761 16 22V20C16 19.7239 16.2239 19.5 16.5 19.5ZM18.5 19.5C18.7761 19.5 19 19.7239 19 20V22C19 22.2761 18.7761 22.5 18.5 22.5C18.2239 22.5 18 22.2761 18 22V20C18 19.7239 18.2239 19.5 18.5 19.5Z" fill="#2B2727"/>
<path d="M25 19.5C25 19.7761 24.7761 20 24.5 20C24.2239 20 24 19.7761 24 19.5C24 19.2239 24.2239 19 24.5 19C24.7761 19 25 19.2239 25 19.5Z" fill="#2B2727"/>
<path fill-rule="evenodd" clip-rule="evenodd" d="M21.656 22.9937C21.5122 23.4126 21.11 23.687 20.6674 23.6681C20.6451 23.6672 20.6227 23.6667 20.6 23.6667C19.7401 23.6667 19 24.3888 19 25.3333C19 26.2778 19.7401 27 20.6 27H28.4C29.2599 27 30 26.2778 30 25.3333C30 24.3888 29.2599 23.6667 28.4 23.6667C28.3867 23.6667 28.3734 23.6668 28.3602 23.6672C27.8734 23.6794 27.4486 23.3391 27.3541 22.8614C27.1407 21.7815 26.2186 21 25.15 21C24.4251 21 23.773 21.3555 23.3565 21.9242C23.1682 22.1813 22.8686 22.3333 22.5499 22.3333C22.1535 22.3334 21.7931 22.5943 21.656 22.9937ZM22.5498 21.3333C21.7 21.3334 20.9772 21.8911 20.7101 22.669C20.6736 22.6675 20.6369 22.6667 20.6 22.6667C19.1641 22.6667 18 23.8606 18 25.3333C18 26.8061 19.1641 28 20.6 28H28.4C29.8359 28 31 26.8061 31 25.3333C31 23.8606 29.8359 22.6667 28.4 22.6667C28.3783 22.6667 28.3567 22.6669 28.3351 22.6675C28.0343 21.1456 26.7226 20 25.15 20C24.0867 20 23.1427 20.5237 22.5498 21.3333Z" fill="#2B2727"/>
</svg>
